<?xml version="1.0" standalone="no"?>
<!DOCTYPE svg PUBLIC "-//W3C//DTD SVG 1.1//EN" "http://www.w3.org/Graphics/SVG/1.1/DTD/svg11.dtd" >
<svg>
<metadata>
Created by FontForge 20090914 at Mon Apr 29 18:07:42 2013
 By www-data
Copyright 2000 Agfa Monotype Corporation. All Rights Reserved.
</metadata>
<defs>
<font id="Univers-CondensedOblique" horiz-adv-x="1024" >
  <font-face 
    font-family="Univers 57 Condensed"
    font-weight="400"
    font-style="oblique"
    font-stretch="condensed"
    units-per-em="2048"
    panose-1="2 11 6 6 3 5 2 12 2 4"
    ascent="1638"
    descent="-410"
    x-height="1040"
    cap-height="1663"
    bbox="-347 -544.001 2178 2066"
    underline-thickness="102"
    underline-position="-154"
    slope="-12"
    unicode-range="U+0020-U+FB02"
  />
<missing-glyph horiz-adv-x="1022" 
d="M76 0v1109h870v-1109h-870zM332 256h358v597h-358v-597z" />
    <glyph glyph-name=".notdef" horiz-adv-x="1022" 
d="M76 0v1109h870v-1109h-870zM332 256h358v597h-358v-597z" />
    <glyph glyph-name="space" unicode=" " horiz-adv-x="455" 
 />
    <glyph glyph-name="space" unicode="&#xa0;" horiz-adv-x="455" 
 />
    <glyph glyph-name="exclam" unicode="!" horiz-adv-x="682" 
d="M344 343l201 1129v0h223v0l-279 -1129h-145zM247 0l45 213h193l-45 -213h-193z" />
    <glyph glyph-name="quotedbl" unicode="&#x22;" horiz-adv-x="512" 
d="M628 1472h123l-89 -416h-123zM382 1472h123l-89 -416h-123z" />
    <glyph glyph-name="numbersign" unicode="#" horiz-adv-x="909" 
d="M93 480l60 114h202v0l126 240v0h-205l61 114h203v0l248 476v0v0h107l-248 -476v0h165v0l248 476h107l-248 -476v0h207l-61 -114h-205v0l-126 -240v0h211l-60 -114h-209v0l-249 -480h-107l249 480v0h-165v0l-249 -480v0v0h-107v0l249 480v0h-204zM462 594h165v0l126 240v0
h-165v0z" />
    <glyph glyph-name="dollar" unicode="$" horiz-adv-x="909" 
d="M101 434l198.999 0.000976562c-38.667 -182.667 8.33301 -282.667 141 -300l110 516c-119.333 63.333 -201 124.333 -245 183c-43.333 58.667 -55 135.667 -35 231c21.333 101.333 73.333 188.666 156 261.999c82.667 74 180.334 114 293.001 120v0l28 128h89l-27 -125
c263.333 -6 366 -145.667 308 -419h-199c34 158.667 -14.333 242.667 -145 252l-99 -470v0l38 -23c125.333 -68.667 205.333 -135.667 240 -201c35.333 -65.333 44.333 -139.666 27 -222.999c-24 -110.667 -77.333 -202.667 -160 -276
c-82.667 -72.667 -190.667 -112.334 -324 -119.001l-28 -128h-89l28 128v0c-124.667 0 -216 35.333 -274 106c-56.667 71.333 -71 172.333 -43 303zM631.999 610.001l-101.999 -476.001c62.667 5.33301 117.667 28.333 165 69c48 40.667 78.333 91.334 91 152.001
c12 56 4.33301 102.333 -23 139c-26.667 37.333 -70.334 76 -131.001 116zM685 1282c-122.667 -24.667 -196 -93 -220 -205c-19.333 -90.667 23.667 -165.667 129 -225z" />
    <glyph glyph-name="percent" unicode="%" horiz-adv-x="1593" 
d="M368 -74l1051 1632h128l-1051 -1632h-128zM1011 388c27.333 126 67.333 218.667 120 278c53.333 60 127.666 90 222.999 90c91.333 0 151.666 -28.667 180.999 -86c30 -57.333 31 -152.666 3 -285.999c-37.333 -176 -83.666 -289 -138.999 -339s-125.333 -75 -210 -75
c-99.333 0 -162.666 27.667 -189.999 83c-26 55.333 -29 132.666 -9 231.999zM1148 359c-26 -124 -32.668 -201 -20.001 -231c13.333 -29.333 41 -44 83 -44c44 0 78 14.333 102 43s49 103.667 75 225c24.667 118 32.334 195.667 23.001 233
c-8.66699 38 -36.334 57 -83.001 57c-47.333 0 -82.666 -16.667 -105.999 -50s-48 -111 -74 -233zM386.999 1145c27.333 126 67.001 218.666 119.001 277.999c54 60 128.667 90 224 90c91.333 0 151.666 -28.667 180.999 -86c30 -57.333 31 -152.666 3 -285.999
c-36 -167.333 -79.333 -278.333 -130 -333c-50.667 -54 -123.667 -81 -219 -81s-158 27 -188 81c-29.333 54.667 -30.333 146 -3 274zM524 1116c-25.333 -120 -32.001 -196 -20.001 -228c12 -31.333 39.667 -47 83 -47c40.667 0 73.667 14.667 99 44
c26.667 30 52.667 104.667 78 224c26 122.667 33.333 201.667 22 237c-10.667 35.333 -38 53 -82 53c-47.333 0 -82.666 -16.667 -105.999 -50s-48 -111 -74 -233z" />
    <glyph glyph-name="ampersand" unicode="&#x26;" horiz-adv-x="1366" 
d="M615 838c-97.333 148.667 -135.668 272.332 -115.001 370.999c19.333 92 66 164 140 216s169.333 78 286 78v0c108 0 186 -26.667 234 -80c49.333 -52.667 64 -125.667 44 -219c-26 -123.333 -134.333 -251.333 -325 -384v0l215 -373v0c36 65.333 65 150 87 254l35 166
h168c-58 -274.667 -128 -459.667 -210 -555v0l170 -312h-214l-86 152v0c-71.333 -67.333 -142.333 -114.666 -213 -141.999s-153 -41 -247 -41c-141.333 0 -249 36 -323 108c-73.333 72.667 -95.666 177 -66.999 313c38.667 182.667 179 332 421 448zM696.998 729.998
c-118 -69.333 -196 -128.334 -234 -177.001c-38 -48 -62.667 -99.667 -74 -155c-17.333 -81.333 -3 -146.666 43 -195.999s113.333 -74 202 -74c132 0 243.667 48.667 335 146v0zM796.998 933.997c125.333 97.333 195.667 182.667 211 256c24 113.333 -16.333 170 -121 170
c-46 0 -88 -15.333 -126 -46c-36.667 -30 -60.334 -70 -71.001 -120c-9.33301 -42 2.33398 -90.333 35.001 -145z" />
    <glyph glyph-name="quotesingle" unicode="'" horiz-adv-x="512" 
d="M505 1472h123l-89 -416h-123z" />
    <glyph glyph-name="parenleft" unicode="(" horiz-adv-x="569" 
d="M234 -239c-22.667 236 -36.333 411.666 -41 526.999c-6 115.333 5 238.333 33 369c33.333 156.667 85.333 303.334 156 440.001l230 443h117c-158 -359.333 -260.333 -649 -307 -869c-52 -244 -73.667 -547.333 -65 -910h-123z" />
    <glyph glyph-name="parenright" unicode=")" horiz-adv-x="569" 
d="M588 1540c22.667 -236 36.333 -411.666 41 -526.999c6 -115.333 -5 -238.333 -33 -369c-33.333 -156.667 -85.333 -303.334 -156 -440.001l-230 -443h-117c158 359.333 260.333 649 307 869c52 244 73.667 547.333 65 910h123z" />
    <glyph glyph-name="asterisk" unicode="*" horiz-adv-x="909" 
d="M319 1199l313 -32l-126 269l131 67l73 -293v0l197 293l103 -67l-240 -269l327 32l-30 -141l-313 32l126 -269l-132 -67l-68 301v0l-202 -301l-102 67l240 269l-327 -32z" />
    <glyph glyph-name="plus" unicode="+" 
d="M219 580h368l96 448h127l-96 -448h368l-27 -127h-368l-95 -448h-127l95 448h-368z" />
    <glyph glyph-name="comma" unicode="," horiz-adv-x="455" 
d="M8 -263l210 480h208l-286 -480h-132z" />
    <glyph glyph-name="glyph14" unicode="-" horiz-adv-x="682" 
d="M248 638h448l-34 -156h-448z" />
    <glyph glyph-name="period" unicode="." horiz-adv-x="455" 
d="M177 213h193l-45 -213h-193z" />
    <glyph glyph-name="slash" unicode="/" horiz-adv-x="569" 
d="M-89 -192l840 1664h138l-840 -1664h-138z" />
    <glyph glyph-name="zero" unicode="0" horiz-adv-x="909" 
d="M231 754l29 136.999c42 196.667 102.667 338.334 182 425.001c78.667 86.667 186 130 322 130c124 0 208.667 -42 254 -126c45.333 -83.333 43 -251.333 -7 -504l-14 -68l-27 -128c-58 -273.333 -129 -450 -213 -530c-83.333 -80 -185.333 -120 -306 -120
c-132 0 -220.333 42.667 -265 128c-44.667 86 -38.667 261.667 18 527zM411 698.999l-21 -98c-40.667 -190.667 -52.334 -316.667 -35.001 -378c18.667 -60.667 61.334 -91 128.001 -91c64 0 118 28.333 162 85s87 183.667 129 381l20 92v0l28 132c38.667 184 50 307 34 369
s-59 93 -129 93s-127.333 -36 -172 -108c-44 -71.333 -83.333 -189.333 -118 -354l-26 -123v0z" />
    <glyph glyph-name="one" unicode="1" horiz-adv-x="909" 
d="M458 1251c58 24.667 149.667 82.333 275 173h161l-303 -1424h-191l258 1216l-238 -144z" />
    <glyph glyph-name="two" unicode="2" horiz-adv-x="909" 
d="M124 164l454.999 491c154.667 168 245 313.667 271 437c27.333 128 -16.667 192 -132 192c-108 0 -177.667 -74 -209 -222v0h-191l14 66c18.667 90 65.334 165.333 140.001 226c74 61.333 166.333 92 277 92c121.333 0 206.333 -31 255 -93
c48.667 -61.333 59.667 -154 33 -278c-22 -104.667 -74.667 -212 -158 -322c-83.333 -109.333 -269 -306.333 -557 -591v0h557l-34 -162h-756z" />
    <glyph glyph-name="three" unicode="3" horiz-adv-x="909" 
d="M133 386l191.002 -0.00292969v0c-19.333 -90.667 -18.666 -155.667 2.00098 -195c20 -39.333 64.667 -59 134 -59c140.667 0 229 85.333 265 256c21.333 98.667 15.666 168.667 -17.001 210c-32 41.333 -108.333 62 -229 62v0l35 165c24 -2 39.667 -3 47 -3
c161.333 0 258.666 78.333 291.999 235c32 151.333 -14.667 227 -140 227c-64 0 -112.667 -17.667 -146 -53c-34 -35.333 -59 -91.666 -75 -168.999h-191l13 63c20.667 98 68 176 142 234s171.333 87 292 87c252 0 351.667 -123.667 299 -371
c-39.333 -185.333 -158 -296.333 -356 -333c118.667 -19.333 190.667 -59.666 216 -120.999c26 -61.333 28.667 -141.666 8 -240.999c-58 -273.333 -224.667 -410 -500 -410c-246.667 0 -345.334 116.333 -296.001 349l14 67v0z" />
    <glyph glyph-name="four" unicode="4" horiz-adv-x="909" 
d="M160 513l600 911h250l-194 -913h167l-35 -162h-167l-74 -349h-176l74 349h-480zM324 511h316l159 749v0z" />
    <glyph glyph-name="five" unicode="5" horiz-adv-x="909" 
d="M169 322l191.001 0.000976562v0c-30 -144 8 -216 114 -216c71.333 0 125.666 26.333 162.999 79c38 53.333 68.333 132.666 91 237.999c28.667 134.667 36.667 229 24 283c-12.667 54.667 -53.667 82 -123 82c-98 0 -165.667 -52.667 -203 -158h-170l169 794h656
l-35 -162h-468v1l-90 -427c55.333 76 139.666 114 252.999 114c94.667 0 158.667 -37.667 192 -113s31 -202.333 -7 -381c-35.333 -166 -92.666 -288.667 -171.999 -368c-78.667 -78.667 -178 -118 -298 -118c-126 0 -212.333 25.667 -259 77
c-46 52 -55.333 143.667 -28 275v0z" />
    <glyph glyph-name="six" unicode="6" horiz-adv-x="909" 
d="M434 793c22.667 32 57.665 63.0029 104.998 93.0029c48.667 30.667 104.334 46 167.001 46c222 0 299 -160.333 231 -481c-33.333 -156.667 -93 -276 -179 -358c-85.333 -82 -183.666 -123 -294.999 -123c-140 0 -231.667 44.667 -275 134
c-42 89.333 -36 261.666 18 516.999l49 231c48 225.333 112.333 380.666 193 465.999s187.334 128 320.001 128c108 0 187 -31.333 237 -94c51.333 -62 67.666 -136.333 48.999 -223l-7 -35h-191c12.667 61.333 7.66699 112.666 -15 153.999c-22 41.333 -56.667 62 -104 62
c-76.667 0 -136 -37.333 -178 -112c-42 -74 -83.667 -209 -125 -405zM365.998 461.003c-46.667 -219.333 -3.33301 -329 130 -329c66 0 118.667 28.333 158 85c40 57.333 73 147 99 269c40.667 189.333 -3 284 -131 284c-126.667 0 -212 -103 -256 -309z" />
    <glyph glyph-name="seven" unicode="7" horiz-adv-x="909" 
d="M207 0l668 1262v0h-543l35 162h736l-36 -167l-646 -1257h-214z" />
    <glyph glyph-name="eight" unicode="8" horiz-adv-x="909" 
d="M515 753c-71.333 4.66699 -126.667 37.668 -166 99.001c-38.667 62 -48 140 -28 234c22 104 71 190 147 258s175 102 297 102c109.333 0 191.333 -31 246 -93s69.334 -151.667 44.001 -269c-20.667 -97.333 -60.334 -173.333 -119.001 -228
c-58 -54 -126 -87.667 -204 -101c88.667 -13.333 149 -48.333 181 -105s34.667 -147.334 8 -272.001c-26.667 -126 -79.667 -225.667 -159 -299c-79.333 -72.667 -182 -109 -308 -109c-118 0 -205 34 -261 102c-54.667 68.667 -67.334 171.334 -38.001 308.001
c24.667 115.333 66.334 204.333 125.001 267c58.667 63.333 137 98.666 235 105.999zM348.999 393.001c-37.333 -174 8.66895 -261 138.002 -261c127.333 0 209.666 87 246.999 261c39.333 188 -5.33398 282 -134.001 282c-128 0 -211.667 -94 -251 -282zM514.001 1096
c-17.333 -80.667 -15.3359 -144 5.99707 -190c20.667 -46 59.334 -69 116.001 -69s104.334 21 143.001 63c40 42 69.333 107.333 88 196c12.667 58.667 8.33398 109 -12.999 151c-20.667 42 -59.667 63 -117 63c-56.667 0 -105 -20.667 -145 -62
c-39.333 -41.333 -65.333 -92 -78 -152z" />
    <glyph glyph-name="nine" unicode="9" horiz-adv-x="909" 
d="M176 338l191.001 0.000976562c-13.333 -62.667 -9.66602 -112.667 11.001 -150s55.334 -56 104.001 -56c77.333 0 137.666 39 180.999 117c43.333 78.667 88.666 229 135.999 451c-65.333 -94.667 -158 -142 -278 -142c-100 0 -171.667 38 -215 114
c-43.333 76.667 -49.333 189 -18 337c31.333 146.667 91 256 179 328c88 72.667 188 109 300 109c138.667 0 227 -46.333 265 -139c38 -92 34.333 -245.667 -11 -461l-51 -240c-50.667 -239.333 -117.667 -405.333 -201 -498c-82.667 -92 -188.334 -138 -317.001 -138
c-110 0 -189.667 33.333 -239 100c-48.667 67.333 -61 156.666 -37 267.999zM479.001 1008c-40.667 -192 1.99902 -288 127.999 -288c124.667 0 207.334 95.333 248.001 286c42.667 202.667 1.66699 304 -123 304c-126 0 -210.333 -100.667 -253 -302z" />
    <glyph glyph-name="colon" unicode=":" horiz-adv-x="455" 
d="M357 1034h193l-45 -213h-193zM177 213h193l-45 -213h-193z" />
    <glyph glyph-name="semicolon" unicode=";" horiz-adv-x="455" 
d="M8 -263l210 480h208l-286 -480h-132zM357 1034h193l-45 -213h-193z" />
    <glyph glyph-name="less" unicode="&#x3c;" 
d="M827 -29l-750 464l28 131l950 480l-32 -149l-773 -396v0l608 -381z" />
    <glyph glyph-name="equal" unicode="=" 
d="M178 387h848l-27 -127h-848zM263 786h848l-27 -127h-848z" />
    <glyph glyph-name="greater" unicode="&#x3e;" 
d="M305 1046l750 -464l-28 -131l-950 -480l32 149l773 396v0l-608 381z" />
    <glyph glyph-name="question" unicode="?" horiz-adv-x="909" 
d="M397 213h193l-45 -213h-193zM341 1080l6.99902 35.9971c54.667 258 201.334 387 440.001 387c103.333 0 178 -31 224 -93c45.333 -61.333 57 -143.666 35 -246.999v0c-26 -122 -80.667 -227 -164 -315c-54.667 -60 -104.667 -112.667 -150 -158
c-46 -45.333 -76 -100.666 -90 -165.999l-32 -151h-168l48 225c11.333 54 45.333 111.333 102 172s98.334 107.667 125.001 141c74.667 90.667 120.334 175.334 137.001 254.001c11.333 54 7.66602 101 -11.001 141c-18 40.667 -49.667 61 -95 61
c-102.667 0 -171.334 -81.333 -206.001 -244l-9 -43h-193z" />
    <glyph glyph-name="at" unicode="@" horiz-adv-x="1614" 
d="M1545 1170l-348.995 -626.001c-26.667 -49.333 -42 -83.333 -46 -102c-7.33301 -34.667 9.33398 -52 50.001 -52c75.333 0 160 44 254 132s156.667 205 188 351c31.333 150 3 273.333 -85 370s-232 145 -432 145c-194.667 0 -368.667 -65.333 -522 -196
c-152 -130 -246.667 -282.333 -284 -457c-38.667 -184 -6.33398 -338.667 96.999 -464s247 -188 431 -188c123.333 0 241.333 23 354 69c113.333 46.667 210 113.334 290 200.001h123c-94.667 -123.333 -213.334 -218.333 -356.001 -285
c-142.667 -66 -286.334 -99 -431.001 -99c-217.333 0 -386.666 74.333 -507.999 223c-122 149.333 -160.333 331 -115 545c45.333 213.333 159 394.333 341 543c181.333 149.333 381.666 224 600.999 224c251.333 0 424.333 -65 519 -195
c95.333 -129.333 125.666 -275.333 90.999 -438c-40.667 -190.667 -123.667 -337.667 -249 -441c-124.667 -102.667 -245.334 -154 -362.001 -154c-42 0 -77.333 10.667 -106 32c-28.667 22 -43.334 50 -44.001 84v0c-82.667 -74.667 -173 -112 -271 -112
c-89.333 0 -154.333 29.667 -195 89c-40.667 60 -52 132.333 -34 217c32.667 151.333 112.667 293.666 240 426.999c128.667 133.333 265 200 409 200c54 0 99.667 -13.667 137 -41s61 -61.666 71 -102.999l52 102h141zM1125 1089
c-110.667 0 -211.333 -56.999 -302 -170.999s-146.334 -219.667 -167.001 -317c-11.333 -54 -6.66602 -100.667 14.001 -140s56.334 -59 107.001 -59c106.667 0 213.667 80.333 321 241c78 120 125 217.667 141 293c9.33301 43.333 2.66602 79.666 -20.001 108.999
s-54 44 -94 44z" />
    <glyph glyph-name="A" unicode="A" horiz-adv-x="1251" 
d="M30 0l777 1472h241l167 -1472h-211l-31 353v0h-570v0l-184 -353h-189zM487 517h468v0l-71 788v0zM985 1663v0zM1183 0v0zM319 1503v0z" />
    <glyph glyph-name="B" unicode="B" horiz-adv-x="1251" 
d="M183 0l313.001 1472h492c120 0 207.667 -32 263 -96c56.667 -63.333 73.667 -149 51 -257c-42.667 -199.333 -161.667 -315 -357 -347c216.667 -18 301.667 -137.667 255 -359c-30 -139.333 -89 -243 -177 -311c-88.667 -68 -199.334 -102 -332.001 -102h-508z
M411.001 164h274c78 0 147.333 23.333 208 70s99 107.667 115 183c19.333 92 8.33301 160.333 -33 205c-40.667 45.333 -120 68 -238 68h-214zM558.001 854h274.999c146.667 0 236.334 77 269.001 231c14.667 70 5.66699 124.667 -27 164c-32 39.333 -83.333 59 -154 59
h-267z" />
    <glyph glyph-name="C" unicode="C" horiz-adv-x="1139" 
d="M930 433l192.998 -0.000976562c-34 -160 -94 -277.333 -180 -352c-85.333 -74.667 -200.666 -112 -345.999 -112c-144.667 0 -248 39.667 -310 119c-62 80 -69.333 230.333 -22 451l92 437c74.667 351.333 267.334 527 578.001 527c266 0 375 -113 327 -339l-19 -93h-193
l10 49c32 149.333 -23.667 224 -167 224c-78.667 0 -147.667 -25 -207 -75s-107.333 -160.333 -144 -331l-90 -425c-27.333 -129.333 -30 -226 -8 -290c23.333 -63.333 86.333 -95 189 -95c72.667 0 135 27 187 81c53.333 54.667 90 129.334 110 224.001zM968.998 1663v0z
M582.998 -0.000976562v0z" />
    <glyph glyph-name="D" unicode="D" horiz-adv-x="1251" 
d="M171 0l313 1472h454c158 0 266.667 -47.333 326 -142c59.333 -94 59.333 -280.667 0 -560c-71.333 -333.333 -161.333 -545 -270 -635s-253.667 -135 -435 -135h-388zM399 164l190.999 -0.000976562c130 0 227.667 32 293 96
c66.667 64.667 116.334 173.334 149.001 326.001l69 329c30.667 142.667 28 243.667 -8 303c-36 60 -101.333 90 -196 90h-255zM933.999 1663v0zM318.999 1503v0z" />
    <glyph glyph-name="E" unicode="E" 
d="M165 0l313 1472h769l-35 -164h-576l-100 -469h534l-35 -164h-534l-108 -511h588l-35 -164h-781zM866 1663v0zM889 0v0zM319 1503v0z" />
    <glyph glyph-name="F" unicode="F" horiz-adv-x="909" 
d="M150 0l313 1472h737l-35 -164h-544l-100 -469h514l-35 -164h-514l-143 -675h-193z" />
    <glyph glyph-name="G" unicode="G" horiz-adv-x="1251" 
d="M731 634l35.001 164h464l-153 -719c-144 -73.333 -301.667 -110 -473 -110c-154.667 0 -261.334 43 -320.001 129c-59.333 86 -67 232.667 -23 440l102 480c68.667 323.333 260 485 574 485c294.667 0 415.667 -124 363 -372l-12 -60h-193c38.667 182 -27 273 -197 273
c-99.333 0 -176.333 -30.333 -231 -91c-53.333 -60.667 -90 -138.667 -110 -234l-108 -506c-34 -158.667 -31.333 -262.667 8 -312c38.667 -48.667 95 -73 169 -73c120.667 0 214.667 21.667 282 65l94 441h-271zM960.001 1663v0zM607.001 0v0z" />
    <glyph glyph-name="H" unicode="H" horiz-adv-x="1251" 
d="M490 1472h193l-135 -633h511l135 633h193l-313 -1472h-193l143 675h-511l-143 -675h-193z" />
    <glyph glyph-name="I" unicode="I" horiz-adv-x="569" 
d="M502 1472h193l-313 -1472h-193zM639 1663v0zM328 0v0zM319 1503v0z" />
    <glyph glyph-name="J" unicode="J" 
d="M159 465h193c-25.333 -120 -32.333 -206.333 -21 -259c12 -52 53 -78 123 -78c73.333 0 131.333 23.667 174 71c44 48 78.667 133 104 255l217 1018h193l-237 -1116c-55.333 -258 -216.333 -387 -483 -387c-114 0 -197 32.667 -249 98c-52 66 -63 168.667 -33 308z" />
    <glyph glyph-name="K" unicode="K" horiz-adv-x="1139" 
d="M532 817l661 655h214l-679 -667l396 -805h-241l-360 776v0l-165 -776h-193l313 1472h193zM637 0v0z" />
    <glyph glyph-name="L" unicode="L" horiz-adv-x="909" 
d="M478 1472h193l-278 -1308h544l-35 -164h-737zM696 1663v0zM585 0v0zM319 1503v0z" />
    <glyph glyph-name="M" unicode="M" horiz-adv-x="1706" 
d="M481 1472h304l117 -1242v0l646 1242h310l-313 -1472h-193l276 1300v0l-691 -1300h-177l-136 1311v0l-279 -1311h-177z" />
    <glyph glyph-name="N" unicode="N" horiz-adv-x="1366" 
d="M490 1472h268l310 -1271v0l270 1271h168l-313 -1472h-259l-317 1282v0l-272 -1282h-168zM1058 1663v0zM665 0v0zM319 1503v0z" />
    <glyph glyph-name="O" unicode="O" horiz-adv-x="1251" 
d="M272 532l102.999 484.999c32.667 154 97.334 273.333 194.001 358c96.667 85.333 221.334 128 374.001 128c152 0 258.333 -42.667 319 -128c60.667 -84.667 75 -202.667 43 -354l-104 -489c-40.667 -192.667 -107.667 -334.667 -201 -426
c-94 -91.333 -220.667 -137 -380 -137c-168.667 0 -279 47 -331 141c-50.667 94.667 -56.334 235.334 -17.001 422.001zM568.999 1021l-108.001 -506c-27.333 -130.667 -28.666 -228 -3.99902 -292c25.333 -63.333 90 -95 194 -95c94.667 0 169.667 29.333 225 88
c56 58.667 99.333 161 130 307l108 508c22 103.333 14.333 181.333 -23 234s-98 79 -182 79c-180.667 0 -294 -107.667 -340 -323zM986.998 1663v0z" />
    <glyph glyph-name="P" unicode="P" horiz-adv-x="1139" 
d="M502 1472h444c124 0 215.333 -33.333 274 -100c59.333 -66 73.333 -172.667 42 -320c-27.333 -126.667 -84 -225 -170 -295s-192.667 -105 -320 -105h-251l-139 -652h-193zM660 1308l-105 -492h210c83.333 0 151.333 22.667 204 68c52 45.333 86 105.333 102 180
c16.667 77.333 10 137.333 -20 180c-29.333 42.667 -79 64 -149 64h-242z" />
    <glyph glyph-name="Q" unicode="Q" horiz-adv-x="1251" 
d="M965 128c85.333 24 133.665 35.998 144.998 35.998h145l-35 -164h-650c-148 0 -246.667 42.667 -296 128c-48 86 -53 219 -15 399l104 489c32.667 154.667 97.334 274.334 194.001 359.001c96.667 85.333 221.334 128 374.001 128c152 0 258.333 -42.333 319 -127
c61.333 -84 75.666 -202.667 42.999 -356l-102 -481c-17.333 -79.333 -46.666 -160.666 -87.999 -243.999c-47.333 -95.333 -93.333 -151 -138 -167zM448.999 513.998c-28 -133.333 -27.001 -227.333 2.99902 -282c30.667 -54 95.334 -81 194.001 -81
c100.667 0 177 29.333 229 88s91.667 153.667 119 285l108 506c22 104.667 14.333 183 -23 235c-37.333 52.667 -98 79 -182 79c-180.667 0 -294 -108.333 -340 -325z" />
    <glyph glyph-name="R" unicode="R" horiz-adv-x="1139" 
d="M162 0l313 1472h507c112.667 0 193.334 -32.333 242.001 -97c50 -64 62.667 -154.333 38 -271c-40 -188.667 -156.667 -302.334 -350 -341.001c78 -8 131.667 -34 161 -78c30 -44 35.333 -121.333 16 -232c-34.667 -191.333 -48.334 -342.333 -41.001 -453h-196
c-13.333 29.333 -13 93.333 1 192s29 196.334 45 293.001c19.333 126.667 -39.667 190 -177 190h-223l-143 -675h-193zM533 839h277c62 0 116 22.333 162 67s76.667 104 92 178c13.333 60.667 8.33301 113 -15 157c-23.333 44.667 -67.333 67 -132 67h-284zM917 1663v0z
M595 0v0zM319 1503v0z" />
    <glyph glyph-name="S" unicode="S" horiz-adv-x="1139" 
d="M220 433l193.002 0.00195312l-11 -52c-16 -76 -6.66699 -136.333 28 -181c34 -44.667 94 -67 180 -67c74 0 138.333 20 193 60s90 98.333 106 175c13.333 61.333 1.66602 114 -35.001 158c-36 44 -105.667 94.667 -209 152c-126 72.667 -207.333 140 -244 202
c-36 62.667 -44.667 137.334 -26 224.001c25.333 119.333 84 215.666 176 288.999s207 110 345 110c136.667 0 232.334 -33.333 287.001 -100s69.667 -158.334 45 -275.001l-12 -57h-193v0c38 178.667 -19.333 268 -172 268c-72.667 0 -134 -19.333 -184 -58
c-49.333 -38.667 -81 -90.667 -95 -156c-14.667 -68.667 3.66602 -129.334 54.999 -182.001c32 -33.333 100.333 -79.333 205 -138c105.333 -58.667 177 -118.334 215 -179.001c44.667 -72 57 -155.667 37 -251c-58 -270.667 -244.667 -406 -560 -406
c-134.667 0 -231.334 35 -290.001 105c-58.667 70.667 -73.667 172.334 -45 305.001zM962.002 1663v0zM561.002 0.00195312v0z" />
    <glyph glyph-name="T" unicode="T" 
d="M345 1472h961l-35 -164h-384l-278 -1308h-193l278 1308h-384zM866 1663v0zM513 0v0zM319 1503v0z" />
    <glyph glyph-name="U" unicode="U" horiz-adv-x="1251" 
d="M472 1472h193l-203 -956c-30 -140.667 -29.667 -240.667 1 -300c30.667 -58.667 92.334 -88 185.001 -88c95.333 0 171 29 227 87s99.333 158.667 130 302l203 955h193l-199 -934c-42.667 -202 -112.334 -347.333 -209.001 -436s-221 -133 -373 -133
c-158.667 0 -266.667 44.333 -324 133c-58 88.667 -65.667 234 -23 436zM984 1663v0zM732 0v0zM319 1503v0z" />
    <glyph glyph-name="V" unicode="V" horiz-adv-x="1139" 
d="M616 167l626 1305h193l-745 -1472h-226l-119 1472h205z" />
    <glyph glyph-name="W" unicode="W" horiz-adv-x="1821" 
d="M329 1472h202l13 -1282v0l569 1282h244l4 -1282v0l568 1282h196l-697 -1472h-229l-17 1277v0l-569 -1277h-229z" />
    <glyph glyph-name="X" unicode="X" horiz-adv-x="1139" 
d="M12 0l588 765v0l-254 707h217l181 -569v0l429 569h208l-545 -707v0l277 -765h-224l-212 627v0l-460 -627h-205z" />
    <glyph glyph-name="Y" unicode="Y" 
d="M329 1472h211l141 -713v0l452 713h189l-593 -908l-120 -564h-193l120 564zM928 1663v0zM319 1503v0z" />
    <glyph glyph-name="Z" unicode="Z" 
d="M48 0l45 213l952 1095v0h-695l35 164h888l-41 -190l-972 -1118v0h750l-35 -164h-927zM869 1663v0zM319 1503v0z" />
    <glyph glyph-name="bracketleft" unicode="[" horiz-adv-x="569" 
d="M408 1540h344l-24 -113h-176l-330 -1553h170l-24 -113h-338z" />
    <glyph glyph-name="backslash" unicode="\" horiz-adv-x="569" 
d="M428 -32l-118 1504h138l118 -1504h-138z" />
    <glyph glyph-name="bracketright" unicode="]" horiz-adv-x="569" 
d="M374 -239h-344l24 113h176l330 1553h-170l24 113h338z" />
    <glyph glyph-name="asciicircum" unicode="^" 
d="M401 573h-144l501 854h123l139 -854h-144l-102 657v0z" />
    <glyph glyph-name="underscore" unicode="_" 
d="M-54 -254l22 103h1024l-22 -103h-1024z" />
    <glyph glyph-name="grave" unicode="`" horiz-adv-x="569" 
d="M555 1184l-201 288h224l115 -288h-138zM518 1184v0z" />
    <glyph glyph-name="a" unicode="a" 
d="M319 758c47.333 202.667 184.67 304.001 412.003 304.001s318.666 -105 273.999 -315l-109 -511c-17.333 -82.667 -26 -161.334 -26 -236.001h-187l33 155c-73.333 -118 -172.333 -177 -297 -177c-193.333 0 -266 113 -218 339c22.667 105.333 74.667 186.333 156 243
s190.666 85 327.999 85h130l19 89c28.667 134 -16 201 -134 201c-47.333 0 -90 -14.667 -128 -44c-36.667 -28.667 -61.334 -73 -74.001 -133h-179zM788.004 518.001h-36.999c-127.333 0 -219.333 -16.667 -276 -50c-56 -33.333 -91.667 -86.333 -107 -159
c-12.667 -60 -8.33398 -107.333 12.999 -142c22 -34.667 57 -52 105 -52c68 0 126.667 26.667 176 80s91.333 161 126 323v0zM767.005 1190v0zM824.005 0.000976562v0z" />
    <glyph glyph-name="b" unicode="b" 
d="M163 0l312.999 1472h168l-118 -554c36 48 76.667 84 122 108c46 24 95.333 36 148 36c116.667 0 193.667 -39.333 231 -118c37.333 -78 34.333 -219.333 -9 -424c-39.333 -184 -92.666 -320.333 -159.999 -409s-163.666 -133 -288.999 -133
c-114.667 0 -185.334 48 -212.001 144l-26 -122h-168zM439.999 514c-32 -150.667 -39.001 -255 -21.001 -313c18 -57.333 59.333 -86 124 -86c74.667 0 134.334 29.333 179.001 88c45.333 58.667 82.333 156 111 292c35.333 165.333 45 278.333 29 339
c-15.333 60.667 -62 91 -140 91c-52 0 -95.333 -15.667 -130 -47s-61 -67.333 -79 -108c-24 -54 -48.333 -139.333 -73 -256z" />
    <glyph glyph-name="c" unicode="c" 
d="M762 346l178.997 0.000976562c-24.667 -116 -76 -206.333 -154 -271c-77.333 -64.667 -161.333 -97 -252 -97c-152 0 -245 45 -279 135s-32.667 221.333 4 394c42.667 202 102.334 345 179.001 429s187 126 331 126c98 0 169 -27.333 213 -82
c44.667 -54.667 53.667 -144.667 27 -270v0v0h-179v0v0c14.667 68 13.667 120.667 -3 158c-15.333 38 -45.666 57 -90.999 57c-73.333 0 -132.333 -26.333 -177 -79c-44 -52.667 -79.667 -143.334 -107 -272.001c-38.667 -182 -49.667 -304 -33 -366s63 -93 139 -93
c102.667 0.666992 170.334 77.667 203.001 231zM799.997 1190v0zM458.997 0.000976562v0z" />
    <glyph glyph-name="d" unicode="d" 
d="M889 918l117.999 554h168l-313 -1472h-168l26 122c-68.667 -96 -160 -144 -274 -144c-119.333 0 -195.666 42.333 -228.999 127s-29.333 223 12 415c44 210 102.667 352.667 176 428c72.667 76 165 114 277 114c110.667 0 179.667 -48 207 -144zM401.999 495
c-30 -142.667 -33.668 -241.666 -11.001 -296.999s69 -83 139 -83c62 0 114.333 26.667 157 80c43.333 53.333 82 159.666 116 318.999c24.667 116.667 36.667 202 36 256c-0.666992 40.667 -11.667 76.667 -33 108s-57.666 47 -108.999 47c-80 0 -140.667 -30.333 -182 -91
c-40 -60.667 -77.667 -173.667 -113 -339z" />
    <glyph glyph-name="e" unicode="e" 
d="M409 466c-28.667 -134.667 -31.668 -226.999 -9.00098 -276.999c22.667 -49.333 69.334 -74 140.001 -74c51.333 0 97 18 137 54c40 36.667 68 85 84 145h184c-22.667 -104.667 -71.667 -187 -147 -247c-75.333 -59.333 -169 -89 -281 -89
c-160 0 -254.667 49.333 -284 148c-29.333 99.333 -27.333 226.333 6 381c44 206.667 104.333 350.667 181 432c77.333 82 187 123 329 123c134.667 0 220.667 -37.667 258 -113c38 -74.667 38.333 -199.334 1 -374.001l-23 -109h-576zM435.999 593.001l396.999 0.000976562
v0c30.667 143.333 30.334 240.666 -0.999023 291.999c-19.333 33.333 -58.333 50 -117 50c-74.667 0 -133 -25 -175 -75s-76.667 -139 -104 -267zM758.998 1190v0zM578.998 0.00195312v0z" />
    <glyph glyph-name="f" unicode="f" horiz-adv-x="569" 
d="M237 1040h160l37 175c19.333 90 56 155.333 110 196c54.667 40.667 137.334 61 248.001 61c24 0 48 -2 72 -6l-27 -123c-2.66699 1.33301 -15.334 2 -38.001 2c-112.667 0 -178.667 -45 -198 -135l-36 -170h208l-27 -127h-208l-194 -913h-168l194 913h-160z" />
    <glyph glyph-name="g" unicode="g" 
d="M150 -112h192.002v0c-10.667 -52 -2.33398 -89.333 24.999 -112c28 -22 60.333 -33 97 -33c118.667 0 190.334 58 215.001 174l45 211c-68 -85.333 -155 -128 -261 -128c-136.667 -0 -218.334 58.333 -245.001 175c-18.667 84 -10.667 208.333 24 373
c73.333 342.667 218.666 514 435.999 514c114 0 184.333 -53.333 211 -160l29 138h168l-242 -1141c-40.667 -188.667 -180.667 -283 -420 -283c-109.333 0 -187 23.667 -233 71c-45.333 48 -61.333 104.333 -48 169zM422.002 549c-32 -148.667 -38.667 -254.667 -20 -318
c18.667 -62.667 62.667 -94 132 -94c64 0 118 25.333 162 76c45.333 51.333 84.666 155.333 117.999 312c33.333 158 40 264 20 318c-19.333 54.667 -62.333 82 -129 82c-75.333 0 -134.666 -31.333 -177.999 -94c-43.333 -62 -78.333 -156 -105 -282zM746.002 1190v0z" />
    <glyph glyph-name="h" unicode="h" 
d="M457 1472h167.998l-121 -570c78 106.667 184 160 318 160c96.667 0 161 -26.333 193 -79c32.667 -52 36.334 -137.667 11.001 -257l-154 -726h-168l154 723c28.667 134.667 -15.666 202 -132.999 202c-144 0 -237 -97.667 -279 -293l-134 -632h-168z" />
    <glyph glyph-name="i" unicode="i" horiz-adv-x="455" 
d="M365 1040h168l-221 -1040h-168zM450 1493h190l-38 -181h-190zM265 0v0z" />
    <glyph glyph-name="j" unicode="j" horiz-adv-x="455" 
d="M115 -136l250 1176h168l-249 -1174c-20.667 -95.333 -55.667 -160.333 -105 -195s-130.333 -53 -243 -55v0l31 143v0c48 0 82.333 7.33301 103 22c21.333 15.333 36.333 43 45 83zM450 1493h190l-38 -181h-190z" />
    <glyph glyph-name="k" unicode="k" horiz-adv-x="909" 
d="M440 589l419 451h205l-442 -447l281 -593h-213l-252 581v0l-123 -581h-168l313 1472h168zM513 0v0z" />
    <glyph glyph-name="l" unicode="l" horiz-adv-x="455" 
d="M144 0l313 1472h168l-313 -1472h-168zM584 1664v0zM230 0v0z" />
    <glyph glyph-name="m" unicode="m" horiz-adv-x="1479" 
d="M307 0h-168.001l178 837c13.333 63.333 26 131 38 203h173l-29 -138c64 106.667 161.667 160 293 160c120 0 191 -42.667 213 -128c64 85.333 155 128 273 128c186 0 259.333 -91.333 220 -274l-167 -788h-168l154 723c28.667 134.667 -11.666 202 -120.999 202
c-120 0 -195.667 -73.667 -227 -221l-150 -704h-168l154 723c28.667 134.667 -9.33301 202 -114 202c-124.667 0 -203 -75 -235 -225z" />
    <glyph glyph-name="n" unicode="n" 
d="M315 0l-168 0.000976562l182 857c10.667 50 22 111 34 183h179l-35 -138c43.333 59.333 90.666 100.666 141.999 123.999c52.667 24 111.334 36 176.001 36c95.333 0 159.666 -25.333 192.999 -76c34 -50 37.667 -136.667 11 -260l-154 -726h-168l154 723
c28.667 134.667 -16.666 202 -135.999 202c-142 0 -234 -97.667 -276 -293zM781 1190v0zM522 0.000976562v0z" />
    <glyph glyph-name="o" unicode="o" 
d="M226 507c45.333 215.333 107.333 361.667 186 439c79.333 77.333 189 116 329 116c146.667 0 239.334 -42.333 278.001 -127c38.667 -84 37.667 -221 -3 -411c-42.667 -203.333 -102 -345.333 -178 -426c-76 -80 -185.333 -120 -328 -120
c-138.667 0 -231.667 37.333 -279 112c-46.667 75.333 -48.334 214.333 -5.00098 417zM419 574.001c-36.667 -173.333 -48.001 -293.333 -34.001 -360c14.667 -66 66 -99 154 -99c82 0 145 33.667 189 101c43.333 67.333 83.333 186.666 120 357.999
c29.333 136.667 30.333 229.334 3 278.001c-26.667 48.667 -73.667 73 -141 73c-76 0 -136.667 -26.333 -182 -79c-45.333 -52 -81.666 -142.667 -108.999 -272zM764.999 1190v0z" />
    <glyph glyph-name="p" unicode="p" 
d="M512 902c71.333 106.667 163.667 160 277 160c118.667 0 194.667 -42.667 228 -128c34 -84.667 30.667 -222.667 -10 -414c-44 -206.667 -102.333 -348.667 -175 -426c-72 -77.333 -165 -116 -279 -116c-112.667 0 -181.667 48 -207 144l-108 -506h-168l303 1424h168z
M432.001 526l-10.999 -49.001c-27.333 -131.333 -31 -224.666 -11 -279.999c20 -54.667 62.667 -82 128 -82c78 0 138 30.333 180 91c41.333 60.667 79.666 174.667 114.999 342c30.667 143.333 34.667 242 12 296c-21.333 54 -68 81 -140 81
c-64.667 0 -118.667 -29 -162 -87c-42 -57.333 -79 -161.333 -111 -312z" />
    <glyph glyph-name="q" unicode="q" 
d="M889 902l29 138.001h168l-303 -1424h-168l108 506c-30.667 -40.667 -68 -75 -112 -103c-44 -27.333 -96.667 -41 -158 -41c-118.667 0 -195.667 41.333 -231 124c-35.333 83.333 -32 222.666 10 417.999c41.333 194.667 96.666 333.667 165.999 417
c70 83.333 164 125 282 125c112.667 0 182.334 -53.333 209.001 -160zM416 548.001c-35.333 -167.333 -45.667 -281.333 -31 -342s62 -91 142 -91c68.667 0 125 32 169 96s81.667 169 113 315c32 150.667 38.667 254.667 20 312c-18 58 -59 87 -123 87
c-71.333 0 -130 -27 -176 -81c-45.333 -54 -83.333 -152.667 -114 -296z" />
    <glyph glyph-name="r" unicode="r" horiz-adv-x="682" 
d="M155 0l221 1040h168l-35 -163v0c70.667 123.333 179 185 325 185h35v0l-37 -175c-28 6.66699 -57.333 10 -88 10c-153.333 0 -250.333 -94.667 -291 -284l-130 -613h-168zM654 1190v0zM237 0v0z" />
    <glyph glyph-name="s" unicode="s" horiz-adv-x="909" 
d="M171 314l192.002 0.00292969v0c-28.667 -132.667 12 -199 122 -199c58 0 105 12.333 141 37c36 25.333 59.667 64.666 71 117.999c8 37.333 -2.33301 69 -31 95c-29.333 26.667 -75.333 55.667 -138 87c-88 44 -153 90.667 -195 140c-42 50 -55.667 109.667 -41 179
c19.333 91.333 66 162.666 140 213.999c74.667 51.333 168 77 280 77c104.667 0 180 -22.667 226 -68c46.667 -44.667 63.334 -99 50.001 -163l-12 -57h-192v0c22.667 107.333 -17.333 161 -120 161c-46.667 0 -87.334 -12.667 -122.001 -38s-56.667 -60 -66 -104
c-8.66699 -40 9.66602 -75.667 54.999 -107c45.333 -30.667 91.666 -57.334 138.999 -80.001c79.333 -41.333 138.333 -85.333 177 -132s50.667 -104.667 36 -174c-46 -214.667 -188.333 -322 -427 -322c-238 0 -333 112 -285 336v0zM760.002 1190v0zM446.002 0.00292969v0z
" />
    <glyph glyph-name="t" unicode="t" horiz-adv-x="569" 
d="M188 913l27 126.999h171l42 197l184 75l-58 -272h224l-27 -127h-224l-141 -664c-9.33301 -43.333 -4 -76.666 16 -99.999c20 -22.667 55 -34 105 -34c18.667 0 45.334 2.66699 80.001 8l-27 -127c-42.667 -12 -99.334 -18 -170.001 -18
c-153.333 0 -216.333 63.333 -189 190l158 745h-171zM276 -0.000976562v0z" />
    <glyph glyph-name="u" unicode="u" 
d="M376 1040l167.997 0.000976562l-154 -723c-30 -141.333 12.667 -212 128 -212c67.333 0 123.333 24.667 168 74s73.334 103.666 86.001 162.999l148 698h168l-182 -857c-10.667 -50.667 -22 -111.667 -34 -183h-173l29 138c-75.333 -106.667 -176.666 -160 -303.999 -160
c-85.333 0 -147.666 22 -186.999 66c-38.667 44.667 -49 109.667 -31 195zM754.997 1190v0zM815.997 0.000976562v0zM225.997 1062v0z" />
    <glyph glyph-name="v" unicode="v" horiz-adv-x="909" 
d="M485 154l437 886h176l-541 -1040h-221l-83 1040h189z" />
    <glyph glyph-name="w" unicode="w" horiz-adv-x="1479" 
d="M239 1040h186l-5 -902v0l427 902h239l19 -902v0l394 902h179l-493 -1040h-226l-31 890v0l-428 -890h-226z" />
    <glyph glyph-name="x" unicode="x" horiz-adv-x="909" 
d="M13 0l435 544v0l-188 496h215l117 -374v0l285 374h205l-415 -496v0l226 -544h-221l-148 423v0l-311 -423h-200z" />
    <glyph glyph-name="y" unicode="y" horiz-adv-x="909" 
d="M237 1040h194l76 -840v0l429 840h181l-776 -1424h-173l197 384v0zM737 1190v0zM226 1062v0z" />
    <glyph glyph-name="z" unicode="z" horiz-adv-x="797" 
d="M71 0l34 158l612 745v0h-430l29 137h616l-33 -154l-618 -749v0h472l-29 -137h-653zM682 1190v0zM226 1062v0z" />
    <glyph glyph-name="braceleft" unicode="{" horiz-adv-x="561" 
d="M174 743c80 16.667 135.333 37.001 166 61.001c31.333 24 52 59.667 62 107l79 372c38 179.333 153.667 269 347 269h62l-25 -115v0c-68 -3.33301 -118 -17.333 -150 -42c-32.667 -24.667 -57 -74.334 -73 -149.001l-65 -307c-15.333 -72 -45 -129.667 -89 -173
c-43.333 -42.667 -107.666 -69.667 -192.999 -81v0c82.667 -20 135.667 -51.333 159 -94c23.333 -42 25.666 -106.667 6.99902 -194l-73 -347c-14.667 -66.667 -11.667 -115.334 9 -146.001c20 -30 64.333 -45 133 -45v0l-24 -115h-21h-18c-110.667 0 -186 23.333 -226 70
c-38.667 46.667 -46.667 122.334 -24 227.001l88 415c10 48.667 5 84 -15 106c-19.333 22 -66.333 44 -141 66z" />
    <glyph glyph-name="bar" unicode="|" horiz-adv-x="512" 
d="M518 1536h127l-435 -2048h-127z" />
    <glyph glyph-name="braceright" unicode="}" horiz-adv-x="561" 
d="M694 629c-84.667 -22 -141.334 -44.0029 -170.001 -66.0029s-48.334 -57.667 -59.001 -107l-88 -415c-21.333 -99.333 -60.666 -173.666 -117.999 -222.999c-56 -49.333 -142.333 -74 -259 -74h-18c-10 0 -16.667 0.666992 -20 2l24 113v0c68 0 118.667 15 152 45
c33.333 30.667 57.333 79.334 72 146.001l73 347c18.667 88 48.667 153 90 195c40.667 42.667 107.334 74 200.001 94v0c-69.333 10 -120 34.667 -152 74s-39.333 99 -22 179l65 307c16 74.667 12.667 124.334 -10 149.001s-67 38.667 -133 42v0l25 115h62
c193.333 0 271 -89.333 233 -268l-79 -372c-10 -47.333 -5 -83 15 -107s67 -44.333 141 -61z" />
    <glyph glyph-name="asciitilde" unicode="~" 
d="M192 484c94.667 131.333 187.668 197 279.001 197c44.667 0 106.667 -23.667 186 -71c79.333 -46.667 133 -70 161 -70c60 0 125 47 195 141l48 -97c-94 -132.667 -186 -199 -276 -199c-43.333 0 -103.666 23.333 -180.999 70c-76.667 47.333 -131.334 71 -164.001 71
c-60.667 0 -127.334 -47 -200.001 -141z" />
    <glyph glyph-name="exclamdown" unicode="&#xa1;" horiz-adv-x="682" 
d="M540 744l-201 -1129v0h-223v0l279 1129h145zM637 1087l-45 -213h-193l45 213h193z" />
    <glyph glyph-name="cent" unicode="&#xa2;" horiz-adv-x="909" 
d="M223 71c-58 80 -65.002 224.333 -21.002 433c42 198.667 100.667 340 176 424c76 84 189.667 126 341 126c45.333 0 85.666 -6 120.999 -18v0l82 130v0l57 -30l-81 -132v0c64.667 -54 81.334 -154.667 50.001 -302v0h-176c11.333 54 17.333 97 18 129v0l-415 -660v0
c22.667 -38 66.334 -57 131.001 -57c40 0 79.333 19.667 118 59c38 39.333 65.333 97 82 173h176c-25.333 -117.333 -75.666 -208 -150.999 -272c-76 -64 -161.333 -96 -256 -96c-87.333 0 -152.333 12.667 -195 38v0l-85 -134v0l-67 33zM356.998 272l397 628v0
c-18.667 12 -41.334 18 -68.001 18c-77.333 0 -138.666 -26 -183.999 -78c-46 -52 -82.333 -141.333 -109 -268c-29.333 -137.333 -41.333 -237.333 -36 -300z" />
    <glyph glyph-name="sterling" unicode="&#xa3;" horiz-adv-x="909" 
d="M174 860h163.999l51 243c48.667 228.667 199.334 343 452.001 343c109.333 0 190 -29.333 242 -88c51.333 -58.667 65.666 -140.667 42.999 -246l-4 -19c-1.33301 -7.33301 -2.33301 -12.333 -3 -15h-196l7 33c24.667 115.333 -18.666 173 -129.999 173
c-60 0 -108.333 -14.667 -145 -44c-36.667 -28.667 -63.667 -84.667 -81 -168l-45 -212h283l-35 -162h-283l-114 -536h535l-34 -162h-878l34 162h152l114 536h-164z" />
    <glyph glyph-name="currency" unicode="&#xa4;" horiz-adv-x="909" 
d="M210 1014l121 104.999l59 -82v0c99.333 64 201.333 96 306 96v0c97.333 0 182.333 -33.667 255 -101v0l101 87l77 -105l-100 -92v0c40 -88 47 -193.667 21 -317v0c-22.667 -104 -73 -202.333 -151 -295v0l61 -87l-122 -111l-64 92v0c-98 -69.333 -198.333 -104 -301 -104
v0c-95.333 0 -181.333 34.667 -258 104v0l-100 -92l-74 111l102 91v0c-42.667 88.667 -52 188.667 -28 300v0c26 124.667 78.333 227.334 157 308.001v0zM268 615.999c-23.333 -109.333 -11.6641 -197.332 35.0029 -263.999c47.333 -66 113.666 -99 198.999 -99
c87.333 0 169.333 32.667 246 98s127 154 151 266c22.667 106.667 11 193.667 -35 261c-46 68 -111.333 102 -196 102c-108.667 0 -197.334 -36.667 -266.001 -110c-68.667 -72.667 -113.334 -157.334 -134.001 -254.001z" />
    <glyph glyph-name="yen" unicode="&#xa5;" horiz-adv-x="909" 
d="M368 0l58 272h-240l29 136h240l27 128h-240l29 136h188v0l-156 752h199l121 -656v0l420 656h179l-491 -752v0h187l-29 -136h-240l-27 -128h240l-29 -136h-240l-58 -272h-167z" />
    <glyph glyph-name="brokenbar" unicode="&#xa6;" horiz-adv-x="512" 
d="M244 -352h-127l153 720h127zM488 1392h127l-153 -720h-127z" />
    <glyph glyph-name="section" unicode="&#xa7;" horiz-adv-x="909" 
d="M144 15l39.001 183.002c88 -45.333 171.333 -68 250 -68c56 0 104.333 12.333 145 37c42 25.333 67.333 58.666 76 99.999c14 66 -30.333 118.333 -133 157l-106 41c-126 49.333 -178 126.666 -156 231.999c23.333 109.333 111.666 198.333 264.999 267
c-109.333 54 -153 133 -131 237c20 92.667 68 165.667 144 219c76 54 167 81 273 81c72.667 0 146.667 -13 222 -39l-36 -169c-84.667 34.667 -152.667 52 -204 52s-96 -12.333 -134 -37s-61 -56 -69 -94c-13.333 -61.333 26 -111 118 -149l102 -42
c112.667 -46.667 157.667 -122 135 -226c-12.667 -61.333 -43 -115.666 -91 -162.999c-47.333 -47.333 -106.333 -82.333 -177 -105c57.333 -14.667 104.333 -42.334 141 -83.001s47.667 -94.667 33 -162c-20.667 -97.333 -71.334 -173.333 -152.001 -228
c-81.333 -54.667 -177.666 -82 -288.999 -82c-98.667 0 -187 13.667 -265 41zM626.001 916.002c-110 -39.333 -172.666 -96.0029 -187.999 -170.003c-9.33301 -43.333 -6.33301 -75.666 9 -96.999c16 -21.333 55.333 -43.666 118 -66.999
c118.667 38.667 186.667 98.334 204 179.001c8.66699 41.333 0.666992 73 -24 95s-64.334 42 -119.001 60z" />
    <glyph glyph-name="dieresis" unicode="&#xa8;" horiz-adv-x="569" 
d="M316 1413h189l-45 -213h-189zM665 1413h189l-45 -213h-189zM539 1184v0z" />
    <glyph glyph-name="copyright" unicode="&#xa9;" horiz-adv-x="1638" 
d="M808 -43c-210.667 0 -375.667 75.999 -495 227.999c-118 152 -154.667 334 -110 546c45.333 213.333 159 395.333 341 546c183.333 151.333 381.333 227 594 227c210 0 374.667 -74.667 494 -224c120 -148.667 157.333 -329.667 112 -543
s-160.333 -396.666 -345 -549.999c-184 -153.333 -381 -230 -591 -230zM318 729.999c-37.333 -176.667 -6.66504 -329.333 92.002 -458c99.333 -128 242.666 -192 429.999 -192c182 0 349.333 64 502 192s247.667 281 285 459c38.667 180.667 6.66699 334 -96 460
c-101.333 126.667 -241.333 190 -420 190c-184 0 -352.667 -63.333 -506 -190c-152.667 -126 -248.334 -279.667 -287.001 -461zM1307 956h-145c20 94 -13.333 141 -100 141c-67.333 0 -118.333 -14 -153 -42c-34 -27.333 -58 -73 -72 -137l-61 -288
c-19.333 -89.333 -14.333 -146.333 15 -171s67.333 -37 114 -37c100.667 0 165.334 57.667 194.001 173h143c-40.667 -192 -161.334 -288 -362.001 -288c-96.667 0 -168.334 24.333 -215.001 73c-46.667 49.333 -55.667 140.333 -27 273l46 216
c48.667 228.667 182.334 343 401.001 343c184.667 0 261 -74.667 229 -224z" />
    <glyph glyph-name="ordfeminine" unicode="&#xaa;" horiz-adv-x="614" 
d="M332 1321c30.667 128 129.335 192 296.002 192c165.333 0 234.666 -61.667 207.999 -185l-65 -306c-10 -49.333 -14 -96.333 -12 -141h-149l20 93c-48.667 -70.667 -114.667 -106 -198 -106c-141.333 0 -197.333 68.667 -168 206c13.333 60.667 49.333 109 108 145
c59.333 36 143.666 55 252.999 57h66l6 28c18 84 -13.333 126 -94 126c-80 0 -127.667 -36.333 -143 -109h-128zM674.001 1193l-23 0.000976562c-95.333 0 -159.333 -10.333 -192 -31s-53.667 -53.334 -63 -98.001c-16 -75.333 9.33301 -113 76 -113
c52.667 0 94.667 18 126 54s55 91 71 165l4 19z" />
    <glyph glyph-name="guillemotleft" unicode="&#xab;" horiz-adv-x="909" 
d="M530 558l278 400h159l-253 -397l83 -403h-156zM178 558l278 400h159l-253 -397l83 -403h-156z" />
    <glyph glyph-name="logicalnot" unicode="&#xac;" 
d="M262 781h848l-115 -543h-127l88 416h-721z" />
    <glyph glyph-name="hyphen" unicode="&#xad;" horiz-adv-x="682" 
d="M248 638h448l-34 -156h-448z" />
    <glyph glyph-name="registered" unicode="&#xae;" horiz-adv-x="1638" 
d="M808 -43c-210.667 0 -375.667 75.999 -495 227.999c-118 152 -154.667 334 -110 546c45.333 213.333 159 395.333 341 546c183.333 151.333 381.333 227 594 227c210 0 374.667 -74.667 494 -224c120 -148.667 157.333 -329.667 112 -543
s-160.333 -396.666 -345 -549.999c-184 -153.333 -381 -230 -591 -230zM318 729.999c-37.333 -176.667 -6.66504 -329.333 92.002 -458c99.333 -128 242.666 -192 429.999 -192c182 0 349.333 64 502 192s247.667 281 285 459c38.667 180.667 6.66699 334 -96 460
c-101.333 126.667 -241.333 190 -420 190c-184 0 -352.667 -63.333 -506 -190c-152.667 -126 -248.334 -279.667 -287.001 -461zM593.001 292l186.999 880.998h342c84.667 0 142.667 -20.667 174 -62s40.333 -93 27 -155c-11.333 -52.667 -40.333 -98 -87 -136
c-46 -37.333 -96.667 -59.666 -152 -66.999v0c52 -10 86 -25 102 -45c17.333 -19.333 22 -62.666 14 -129.999c-13.333 -114 -20.333 -171.667 -21 -173c-10 -48 -9 -85.667 3 -113h-143c-9.33301 21.333 -1.66602 112.333 23.001 273c14 83.333 -20.667 125 -104 125h-137
l-85 -398h-143zM903 1076l-58 -271h181c81.333 0 132 46.333 152 139c18.667 88 -13.333 132 -96 132h-179z" />
    <glyph glyph-name="macron" unicode="&#xaf;" horiz-adv-x="569" 
d="M286 1345h560l-24 -113h-560zM534 1184v0z" />
    <glyph glyph-name="macron" unicode="&#x2c9;" horiz-adv-x="569" 
d="M286 1345h560l-24 -113h-560zM534 1184v0z" />
    <glyph glyph-name="degree" unicode="&#xb0;" horiz-adv-x="819" 
d="M339 1142c17.333 83.333 62.333 154.668 135 214.001c73.333 60 153.666 90 240.999 90c86 0 153 -30 201 -90c48.667 -59.333 64.334 -131 47.001 -215c-18.667 -85.333 -64.667 -157.333 -138 -216s-153 -88 -239 -88c-87.333 0 -155 29.333 -203 88
c-47.333 59.333 -62 131.666 -44 216.999zM466 1140c-10 -48 -0.667969 -89.001 27.999 -123.001s68.334 -51 119.001 -51c50 0 96.667 17.333 140 52c44 34.667 71.333 76.334 82 125.001c10 47.333 0.333008 88 -29 122c-28.667 34.667 -68 52 -118 52
c-50.667 0 -97.667 -17.667 -141 -53c-43.333 -34.667 -70.333 -76 -81 -124z" />
    <glyph glyph-name="plusminus" unicode="&#xb1;" 
d="M124 131h863l-27 -127h-863zM246 706h368l71 336h127l-71 -336h368l-27 -127h-368l-71 -336h-127l71 336h-368z" />
    <glyph glyph-name="twosuperior" unicode="&#xb2;" horiz-adv-x="545" 
d="M177 684l268 255c116.667 110 183 202.667 199 278c14.667 70 -17 105 -95 105c-59.333 0 -98 -41.667 -116 -125v0v0h-143v0l6 24c13.333 64 45 116 95 156c49.333 40 108.333 60 177 60c176.667 0 249.334 -73.667 218.001 -221
c-18.667 -90 -68.334 -174.333 -149.001 -253l-288 -278v0h329l-24 -109h-500z" />
    <glyph glyph-name="threesuperior" unicode="&#xb3;" horiz-adv-x="545" 
d="M177 814l130.998 -0.000976562v0c-20 -94 9 -141 87 -141c94 0 150.667 45 170 135c14 65.333 8.66699 109.333 -16 132c-24 22.667 -72.667 34 -146 34v0l22 103h35c94.667 0 151.667 45 171 135c17.333 81.333 -13 122 -91 122c-72.667 0 -119 -45.667 -139 -137h-129
l9 40c14 65.333 44.333 115 91 149c46 34 108.667 51 188 51c88.667 0 150.667 -18.667 186 -56c34.667 -36.667 44.667 -89.667 30 -159c-23.333 -110 -103.666 -176.333 -240.999 -199c70.667 -11.333 120.667 -32.666 150 -63.999c30 -30.667 37.333 -82.667 22 -156
c-16 -74 -54 -133.333 -114 -178c-59.333 -44.667 -135.666 -67 -228.999 -67c-68 0 -122 16.667 -162 50c-38.667 34 -50 89 -34 165z" />
    <glyph glyph-name="acute" unicode="&#xb4;" horiz-adv-x="569" 
d="M380 1184l237 288h224l-323 -288h-138zM555 1184v0z" />
    <glyph glyph-name="mu" unicode="&#xb5;" 
d="M1088 1040l-182 -858c-11.333 -51.333 -20.666 -112 -27.999 -182h-179l30 139c-35.333 -47.333 -78 -86 -128 -116s-109 -45 -177 -45c-26 0 -59.667 6.66699 -101 20l-82 -382h-168l303 1424h168l-153 -722c-30 -140.667 12.667 -211 128 -211
c63.333 0 117.666 22.667 162.999 68c46 46 76 102.333 90 169l148 696h168z" />
    <glyph glyph-name="paragraph" unicode="&#xb6;" horiz-adv-x="901" 
d="M285 -240l197.001 927.999c-86.667 0 -153.334 39 -200.001 117c-46.667 78.667 -59 169.334 -37 272.001c24 114 74.667 208.333 152 283c78 74.667 179.667 112 305 112h404v0v0l-364 -1712h-143l335 1575h-171l-335 -1575h-143z" />
    <glyph glyph-name="periodcentered" unicode="&#xb7;" horiz-adv-x="455" 
d="M219 416l45 212h192l-45 -212h-192z" />
    <glyph glyph-name="periodcentered" unicode="&#x2219;" horiz-adv-x="455" 
d="M219 416l45 212h192l-45 -212h-192z" />
    <glyph glyph-name="cedilla" unicode="&#xb8;" horiz-adv-x="569" 
d="M-22 -406l52 83c46 -20.667 87.667 -31 125 -31c73.333 0 115.333 25 126 75c12 56 -14.333 84 -79 84c-4.66699 0 -32.667 -5.66699 -84 -17l-27 39l167 173h97l-127 -129c26.667 11.333 51.667 17 75 17c50 0 87.667 -14.333 113 -43c25.333 -28 33 -65.333 23 -112
c-11.333 -54.667 -43 -99 -95 -133c-51.333 -34 -110.333 -51 -177 -51c-66 0 -129 15 -189 45zM255 0v0z" />
    <glyph glyph-name="onesuperior" unicode="&#xb9;" horiz-adv-x="545" 
d="M376 1318c24 9.33301 85 44.667 183 106h127l-181 -848h-143l151 708l-162 -84z" />
    <glyph glyph-name="ordmasculine" unicode="&#xba;" horiz-adv-x="614" 
d="M283 1183c28 131.333 67.667 219 119 263c52 44.667 125.667 67 221 67c89.333 0 151 -21.667 185 -65c34.667 -42.667 38.667 -127.667 12 -255c-26 -121.333 -64.333 -206 -115 -254c-50.667 -47.333 -124 -71 -220 -71c-102.667 0 -168 25 -196 75
c-26.667 50.667 -28.667 130.667 -6 240zM426 1223c-25.333 -119.333 -31 -195.001 -17 -227.001c14 -31.333 45.333 -47 94 -47c46.667 0 83.667 17 111 51c28 34.667 52 99.334 72 194.001c18 86 21.667 147 11 183c-10.667 36.667 -42 55 -94 55
c-50 0 -87.667 -15 -113 -45c-26 -30 -47.333 -84.667 -64 -164z" />
    <glyph glyph-name="guillemotright" unicode="&#xbb;" horiz-adv-x="909" 
d="M615 558l-278 -400h-159l253 397l-83 403h156zM967 558l-278 -400h-159l253 397l-83 403h156z" />
    <glyph glyph-name="onequarter" unicode="&#xbc;" horiz-adv-x="1364" 
d="M376 1318c24 9.33301 85 44.667 183 106h127l-181 -848h-143l151 708l-162 -84zM124 -51.999l1222 1535h128l-1222 -1535h-128zM806 304.001l378 545h202l-114 -534h109l-24 -115h-109l-43 -199h-143l43 199h-321zM939 315.001h190l88 415v0z" />
    <glyph glyph-name="onehalf" unicode="&#xbd;" horiz-adv-x="1364" 
d="M315 1318c24 9.33301 85 44.667 183 106h127l-181 -848h-143l151 708l-162 -84zM63 -51.999l1222 1535h128l-1222 -1535h-128zM837 109.001l268 255c116.667 110 183 202.667 199 278c14.667 70 -17 105 -95 105c-59.333 0 -98 -41.667 -116 -125v0v0h-143v0l6 24
c13.333 64 45 116 95 156c49.333 40 108.333 60 177 60c176.667 0 249.334 -73.667 218.001 -221c-18.667 -90 -68.334 -174.333 -149.001 -253l-288 -278v0h329l-24 -109h-500z" />
    <glyph glyph-name="threequarters" unicode="&#xbe;" horiz-adv-x="1364" 
d="M187 814l130.998 -0.000976562v0c-20 -94 9 -141 87 -141c94 0 150.667 45 170 135c14 65.333 8.66699 109.333 -16 132c-24 22.667 -72.667 34 -146 34v0l22 103h35c94.667 0 151.667 45 171 135c17.333 81.333 -13 122 -91 122c-72.667 0 -119 -45.667 -139 -137h-129
l9 40c14 65.333 44.333 115 91 149c46 34 108.667 51 188 51c88.667 0 150.667 -18.667 186 -56c34.667 -36.667 44.667 -89.667 30 -159c-23.333 -110 -103.666 -176.333 -240.999 -199c70.667 -11.333 120.667 -32.666 150 -63.999c30 -30.667 37.333 -82.667 22 -156
c-16 -74 -54 -133.333 -114 -178c-59.333 -44.667 -135.666 -67 -228.999 -67c-68 0 -122 16.667 -162 50c-38.667 34 -50 89 -34 165zM195.998 -52.001l1222 1535h128l-1222 -1535h-128zM836.998 303.999l378 545h202l-114 -534h109l-24 -115h-109l-43 -199h-143l43 199
h-321zM969.998 314.999h190l88 415v0z" />
    <glyph glyph-name="questiondown" unicode="&#xbf;" horiz-adv-x="909" 
d="M710 872h-193l45 213h193zM766 5l-6.99902 -35.9971c-54.667 -258 -201.334 -387 -440.001 -387c-103.333 0 -178 31 -224 93c-45.333 61.333 -57 143.666 -35 246.999v0c26 122 80.667 227 164 315c54.667 60 104.667 112.667 150 158c46 45.333 76 100.666 90 165.999
l32 151h168l-48 -225c-11.333 -54 -45.333 -111.333 -102 -172s-98.334 -107.667 -125.001 -141c-74.667 -90.667 -120.334 -175.334 -137.001 -254.001c-11.333 -54 -7.66602 -101 11.001 -141c18 -40.667 49.667 -61 95 -61c102.667 0 171.334 81.333 206.001 244l9 43
h193z" />
    <glyph glyph-name="Agrave" unicode="&#xc0;" horiz-adv-x="1251" 
d="M30 0l777 1472h241l167 -1472h-211l-31 353v0h-570v0l-184 -353h-189zM487 517h468v0l-71 788v0zM985 1663v0zM1183 0v0zM319 1503v0zM1022 1663l-201 288h224l115 -288h-138zM985 1663v0z" />
    <glyph glyph-name="Aacute" unicode="&#xc1;" horiz-adv-x="1251" 
d="M30 0l777 1472h241l167 -1472h-211l-31 353v0h-570v0l-184 -353h-189zM487 517h468v0l-71 788v0zM985 1663v0zM1183 0v0zM319 1503v0zM810 1663l237 288h224l-323 -288h-138zM985 1663v0z" />
    <glyph glyph-name="Acircumflex" unicode="&#xc2;" horiz-adv-x="1251" 
d="M30 0l777 1472h241l167 -1472h-211l-31 353v0h-570v0l-184 -353h-189zM487 517h468v0l-71 788v0zM985 1663v0zM1183 0v0zM319 1503v0zM675 1663l269 288h189l147 -288h-165l-98 192v0l-177 -192h-165zM985 1663v0z" />
    <glyph glyph-name="Atilde" unicode="&#xc3;" horiz-adv-x="1251" 
d="M30 0l777 1472h241l167 -1472h-211l-31 353v0h-570v0l-184 -353h-189zM487 517h468v0l-71 788v0zM985 1663v0zM1183 0v0zM319 1503v0zM629 1657c25.333 72.667 59.001 127.333 101.001 164c42.667 36.667 95.667 55 159 55c38.667 0 86.334 -12.667 143.001 -38
c57.333 -25.333 99.666 -38 126.999 -38c32 0 57.667 8 77 24c19.333 16.667 33.666 39.667 42.999 69h103c-18.667 -63.333 -52.334 -116.333 -101.001 -159c-49.333 -42.667 -102 -64 -158 -64c-33.333 0 -81.666 12.667 -144.999 38s-109.333 38 -138 38
c-25.333 0 -49 -9 -71 -27c-22.667 -18 -38 -38.667 -46 -62h-94zM985.001 1663v0z" />
    <glyph glyph-name="Adieresis" unicode="&#xc4;" horiz-adv-x="1251" 
d="M30 0l777 1472h241l167 -1472h-211l-31 353v0h-570v0l-184 -353h-189zM487 517h468v0l-71 788v0zM985 1663v0zM1183 0v0zM319 1503v0zM762 1892h189l-45 -213h-189zM1111 1892h189l-45 -213h-189zM985 1663v0z" />
    <glyph glyph-name="Aring" unicode="&#xc5;" horiz-adv-x="1251" 
d="M30 0l777 1472h241l167 -1472h-211l-31 353v0h-570v0l-184 -353h-189zM487 517h468v0l-71 788v0zM985 1663v0zM1183 0v0zM319 1503v0zM814 1858c12 57.333 42.667 106.332 92 146.999c50 40.667 104.333 61 163 61c60.667 0 106.667 -20 138 -60
c31.333 -39.333 40.333 -89.666 27 -150.999c-12 -58 -43 -107.333 -93 -148c-50 -40 -104 -60 -162 -60s-103.667 18.667 -137 56c-32.667 37.333 -42 89 -28 155zM899 1856c-8 -35.333 -2.33398 -65.334 16.999 -90.001c19.333 -24 46.666 -36 81.999 -36
c34.667 0 66.667 12 96 36c29.333 24.667 48 55 56 91c7.33301 34.667 1.33301 64.334 -18 89.001s-46.333 37 -81 37c-35.333 0 -67.666 -12.333 -96.999 -37s-47.666 -54.667 -54.999 -90zM984.999 1663v0z" />
    <glyph glyph-name="AE" unicode="&#xc6;" horiz-adv-x="1706" 
d="M30 0l969 1472v0h910l-35 -164h-606v0l-37 -469v0h528l-35 -164h-501v0l-36 -511v0h462l-35 -164h-624l24 353v0h-557v0l-228 -353h-199zM569 517h458v0l59 800v0z" />
    <glyph glyph-name="Ccedilla" unicode="&#xc7;" horiz-adv-x="1139" 
d="M930 433l192.998 -0.000976562c-34 -160 -94 -277.333 -180 -352c-85.333 -74.667 -200.666 -112 -345.999 -112c-144.667 0 -248 39.667 -310 119c-62 80 -69.333 230.333 -22 451l92 437c74.667 351.333 267.334 527 578.001 527c266 0 375 -113 327 -339l-19 -93h-193
l10 49c32 149.333 -23.667 224 -167 224c-78.667 0 -147.667 -25 -207 -75s-107.333 -160.333 -144 -331l-90 -425c-27.333 -129.333 -30 -226 -8 -290c23.333 -63.333 86.333 -95 189 -95c72.667 0 135 27 187 81c53.333 54.667 90 129.334 110 224.001zM968.998 1663v0z
M582.998 -0.000976562v0zM305.998 -406.001l52 83c46 -20.667 87.667 -31 125 -31c73.333 0 115.333 25 126 75c12 56 -14.333 84 -79 84c-4.66699 0 -32.667 -5.66699 -84 -17l-27 39l167 173h97l-127 -129c26.667 11.333 51.667 17 75 17c50 0 87.667 -14.333 113 -43
c25.333 -28 33 -65.333 23 -112c-11.333 -54.667 -43 -99 -95 -133c-51.333 -34 -110.333 -51 -177 -51c-66 0 -129 15 -189 45zM582.998 -0.000976562v0z" />
    <glyph glyph-name="Egrave" unicode="&#xc8;" 
d="M165 0l313 1472h769l-35 -164h-576l-100 -469h534l-35 -164h-534l-108 -511h588l-35 -164h-781zM866 1663v0zM889 0v0zM319 1503v0zM903 1663l-201 288h224l115 -288h-138zM866 1663v0z" />
    <glyph glyph-name="Eacute" unicode="&#xc9;" 
d="M165 0l313 1472h769l-35 -164h-576l-100 -469h534l-35 -164h-534l-108 -511h588l-35 -164h-781zM866 1663v0zM889 0v0zM319 1503v0zM691 1663l237 288h224l-323 -288h-138zM866 1663v0z" />
    <glyph glyph-name="Ecircumflex" unicode="&#xca;" 
d="M165 0l313 1472h769l-35 -164h-576l-100 -469h534l-35 -164h-534l-108 -511h588l-35 -164h-781zM866 1663v0zM889 0v0zM319 1503v0zM556 1663l269 288h189l147 -288h-165l-98 192v0l-177 -192h-165zM866 1663v0z" />
    <glyph glyph-name="Edieresis" unicode="&#xcb;" 
d="M165 0l313 1472h769l-35 -164h-576l-100 -469h534l-35 -164h-534l-108 -511h588l-35 -164h-781zM866 1663v0zM889 0v0zM319 1503v0zM643 1892h189l-45 -213h-189zM992 1892h189l-45 -213h-189zM866 1663v0z" />
    <glyph glyph-name="Igrave" unicode="&#xcc;" horiz-adv-x="569" 
d="M502 1472h193l-313 -1472h-193zM639 1663v0zM328 0v0zM319 1503v0zM676 1663l-201 288h224l115 -288h-138zM639 1663v0z" />
    <glyph glyph-name="Iacute" unicode="&#xcd;" horiz-adv-x="569" 
d="M502 1472h193l-313 -1472h-193zM639 1663v0zM328 0v0zM319 1503v0zM464 1663l237 288h224l-323 -288h-138zM639 1663v0z" />
    <glyph glyph-name="Icircumflex" unicode="&#xce;" horiz-adv-x="569" 
d="M502 1472h193l-313 -1472h-193zM639 1663v0zM328 0v0zM319 1503v0zM329 1663l269 288h189l147 -288h-165l-98 192v0l-177 -192h-165zM639 1663v0z" />
    <glyph glyph-name="Idieresis" unicode="&#xcf;" horiz-adv-x="569" 
d="M502 1472h193l-313 -1472h-193zM639 1663v0zM328 0v0zM319 1503v0zM416 1892h189l-45 -213h-189zM765 1892h189l-45 -213h-189zM639 1663v0z" />
    <glyph glyph-name="Eth" unicode="&#xd0;" horiz-adv-x="1251" 
d="M354 859l130 612.999h454c140.667 0 241.667 -35.667 303 -107c79.333 -93.333 87 -291.666 23 -594.999c-71.333 -333.333 -161.333 -545 -270 -635s-253.667 -135 -435 -135h-388l158 744h-144l25 115h144zM547 858.999l304.001 -0.00195312l-25 -115h-304l-123 -580
h191c138 0 241 37 309 111c57.333 62.667 101.666 166.334 132.999 311.001l69 329c30.667 142.667 27 245.334 -11 308.001c-34 56.667 -98.333 85 -193 85h-255z" />
    <glyph glyph-name="Ntilde" unicode="&#xd1;" horiz-adv-x="1366" 
d="M490 1472h268l310 -1271v0l270 1271h168l-313 -1472h-259l-317 1282v0l-272 -1282h-168zM1058 1663v0zM665 0v0zM319 1503v0zM702 1657c25.333 72.667 59.001 127.333 101.001 164c42.667 36.667 95.667 55 159 55c38.667 0 86.334 -12.667 143.001 -38
c57.333 -25.333 99.666 -38 126.999 -38c32 0 57.667 8 77 24c19.333 16.667 33.666 39.667 42.999 69h103c-18.667 -63.333 -52.334 -116.333 -101.001 -159c-49.333 -42.667 -102 -64 -158 -64c-33.333 0 -81.666 12.667 -144.999 38s-109.333 38 -138 38
c-25.333 0 -49 -9 -71 -27c-22.667 -18 -38 -38.667 -46 -62h-94zM1058 1663v0z" />
    <glyph glyph-name="Ograve" unicode="&#xd2;" horiz-adv-x="1251" 
d="M272 532l102.999 484.999c32.667 154 97.334 273.333 194.001 358c96.667 85.333 221.334 128 374.001 128c152 0 258.333 -42.667 319 -128c60.667 -84.667 75 -202.667 43 -354l-104 -489c-40.667 -192.667 -107.667 -334.667 -201 -426
c-94 -91.333 -220.667 -137 -380 -137c-168.667 0 -279 47 -331 141c-50.667 94.667 -56.334 235.334 -17.001 422.001zM568.999 1021l-108.001 -506c-27.333 -130.667 -28.666 -228 -3.99902 -292c25.333 -63.333 90 -95 194 -95c94.667 0 169.667 29.333 225 88
c56 58.667 99.333 161 130 307l108 508c22 103.333 14.333 181.333 -23 234s-98 79 -182 79c-180.667 0 -294 -107.667 -340 -323zM986.998 1663v0zM1024 1663l-201 288h224l115 -288h-138zM986.998 1663v0z" />
    <glyph glyph-name="Oacute" unicode="&#xd3;" horiz-adv-x="1251" 
d="M272 532l102.999 484.999c32.667 154 97.334 273.333 194.001 358c96.667 85.333 221.334 128 374.001 128c152 0 258.333 -42.667 319 -128c60.667 -84.667 75 -202.667 43 -354l-104 -489c-40.667 -192.667 -107.667 -334.667 -201 -426
c-94 -91.333 -220.667 -137 -380 -137c-168.667 0 -279 47 -331 141c-50.667 94.667 -56.334 235.334 -17.001 422.001zM568.999 1021l-108.001 -506c-27.333 -130.667 -28.666 -228 -3.99902 -292c25.333 -63.333 90 -95 194 -95c94.667 0 169.667 29.333 225 88
c56 58.667 99.333 161 130 307l108 508c22 103.333 14.333 181.333 -23 234s-98 79 -182 79c-180.667 0 -294 -107.667 -340 -323zM986.998 1663v0zM811.998 1663l237 288h224l-323 -288h-138zM986.998 1663v0z" />
    <glyph glyph-name="Ocircumflex" unicode="&#xd4;" horiz-adv-x="1251" 
d="M272 532l102.999 484.999c32.667 154 97.334 273.333 194.001 358c96.667 85.333 221.334 128 374.001 128c152 0 258.333 -42.667 319 -128c60.667 -84.667 75 -202.667 43 -354l-104 -489c-40.667 -192.667 -107.667 -334.667 -201 -426
c-94 -91.333 -220.667 -137 -380 -137c-168.667 0 -279 47 -331 141c-50.667 94.667 -56.334 235.334 -17.001 422.001zM568.999 1021l-108.001 -506c-27.333 -130.667 -28.666 -228 -3.99902 -292c25.333 -63.333 90 -95 194 -95c94.667 0 169.667 29.333 225 88
c56 58.667 99.333 161 130 307l108 508c22 103.333 14.333 181.333 -23 234s-98 79 -182 79c-180.667 0 -294 -107.667 -340 -323zM986.998 1663v0zM676.998 1663l269 288h189l147 -288h-165l-98 192v0l-177 -192h-165zM986.998 1663v0z" />
    <glyph glyph-name="Otilde" unicode="&#xd5;" horiz-adv-x="1251" 
d="M272 532l102.999 484.999c32.667 154 97.334 273.333 194.001 358c96.667 85.333 221.334 128 374.001 128c152 0 258.333 -42.667 319 -128c60.667 -84.667 75 -202.667 43 -354l-104 -489c-40.667 -192.667 -107.667 -334.667 -201 -426
c-94 -91.333 -220.667 -137 -380 -137c-168.667 0 -279 47 -331 141c-50.667 94.667 -56.334 235.334 -17.001 422.001zM568.999 1021l-108.001 -506c-27.333 -130.667 -28.666 -228 -3.99902 -292c25.333 -63.333 90 -95 194 -95c94.667 0 169.667 29.333 225 88
c56 58.667 99.333 161 130 307l108 508c22 103.333 14.333 181.333 -23 234s-98 79 -182 79c-180.667 0 -294 -107.667 -340 -323zM986.998 1663v0zM630.998 1657c25.333 72.667 59.001 127.333 101.001 164c42.667 36.667 95.667 55 159 55
c38.667 0 86.334 -12.667 143.001 -38c57.333 -25.333 99.666 -38 126.999 -38c32 0 57.667 8 77 24c19.333 16.667 33.666 39.667 42.999 69h103c-18.667 -63.333 -52.334 -116.333 -101.001 -159c-49.333 -42.667 -102 -64 -158 -64c-33.333 0 -81.666 12.667 -144.999 38
s-109.333 38 -138 38c-25.333 0 -49 -9 -71 -27c-22.667 -18 -38 -38.667 -46 -62h-94zM986.999 1663v0z" />
    <glyph glyph-name="Odieresis" unicode="&#xd6;" horiz-adv-x="1251" 
d="M272 532l102.999 484.999c32.667 154 97.334 273.333 194.001 358c96.667 85.333 221.334 128 374.001 128c152 0 258.333 -42.667 319 -128c60.667 -84.667 75 -202.667 43 -354l-104 -489c-40.667 -192.667 -107.667 -334.667 -201 -426
c-94 -91.333 -220.667 -137 -380 -137c-168.667 0 -279 47 -331 141c-50.667 94.667 -56.334 235.334 -17.001 422.001zM568.999 1021l-108.001 -506c-27.333 -130.667 -28.666 -228 -3.99902 -292c25.333 -63.333 90 -95 194 -95c94.667 0 169.667 29.333 225 88
c56 58.667 99.333 161 130 307l108 508c22 103.333 14.333 181.333 -23 234s-98 79 -182 79c-180.667 0 -294 -107.667 -340 -323zM986.998 1663v0zM763.998 1892h189l-45 -213h-189zM1113 1892h189l-45 -213h-189zM986.998 1663v0z" />
    <glyph glyph-name="multiply" unicode="&#xd7;" 
d="M206 97l-70 89l406 335v0l-264 335l108 89l264 -335v0l406 335l70 -89l-406 -335v0l264 -335l-108 -89l-264 335v0z" />
    <glyph glyph-name="Oslash" unicode="&#xd8;" horiz-adv-x="1251" 
d="M1273 1357l140.998 161l62 -46l-167 -192v0c18.667 -71.333 17.334 -158 -3.99902 -260l-104 -489c-41.333 -194.667 -108 -337 -200 -427s-219 -135 -381 -135c-165.333 0 -275.333 46 -330 138v0l-151 -174l-59 46l173 211v0c-18 84 -11.333 199.667 20 347l103 484
c32.667 152.667 97 271 193 355c96.667 84.667 221.334 127 374.001 127c161.333 0 271.333 -48.667 330 -146zM1121 1181c-16 108.667 -86.667 163 -212 163c-180.667 0 -294 -108.333 -340 -325l-108 -506c-9.33301 -43.333 -15.333 -81.333 -18 -114v0zM1120 1059
l-678 -778v0c12.667 -102 81.667 -153 207 -153c100.667 0 177.667 29 231 87c52.667 58 94.667 161 126 309z" />
    <glyph glyph-name="Ugrave" unicode="&#xd9;" horiz-adv-x="1251" 
d="M472 1472h193l-203 -956c-30 -140.667 -29.667 -240.667 1 -300c30.667 -58.667 92.334 -88 185.001 -88c95.333 0 171 29 227 87s99.333 158.667 130 302l203 955h193l-199 -934c-42.667 -202 -112.334 -347.333 -209.001 -436s-221 -133 -373 -133
c-158.667 0 -266.667 44.333 -324 133c-58 88.667 -65.667 234 -23 436zM984 1663v0zM732 0v0zM319 1503v0zM1021 1663l-201 288h224l115 -288h-138zM984 1663v0z" />
    <glyph glyph-name="Uacute" unicode="&#xda;" horiz-adv-x="1251" 
d="M472 1472h193l-203 -956c-30 -140.667 -29.667 -240.667 1 -300c30.667 -58.667 92.334 -88 185.001 -88c95.333 0 171 29 227 87s99.333 158.667 130 302l203 955h193l-199 -934c-42.667 -202 -112.334 -347.333 -209.001 -436s-221 -133 -373 -133
c-158.667 0 -266.667 44.333 -324 133c-58 88.667 -65.667 234 -23 436zM984 1663v0zM732 0v0zM319 1503v0zM809 1663l237 288h224l-323 -288h-138zM984 1663v0z" />
    <glyph glyph-name="Ucircumflex" unicode="&#xdb;" horiz-adv-x="1251" 
d="M472 1472h193l-203 -956c-30 -140.667 -29.667 -240.667 1 -300c30.667 -58.667 92.334 -88 185.001 -88c95.333 0 171 29 227 87s99.333 158.667 130 302l203 955h193l-199 -934c-42.667 -202 -112.334 -347.333 -209.001 -436s-221 -133 -373 -133
c-158.667 0 -266.667 44.333 -324 133c-58 88.667 -65.667 234 -23 436zM984 1663v0zM732 0v0zM319 1503v0zM674 1663l269 288h189l147 -288h-165l-98 192v0l-177 -192h-165zM984 1663v0z" />
    <glyph glyph-name="Udieresis" unicode="&#xdc;" horiz-adv-x="1251" 
d="M472 1472h193l-203 -956c-30 -140.667 -29.667 -240.667 1 -300c30.667 -58.667 92.334 -88 185.001 -88c95.333 0 171 29 227 87s99.333 158.667 130 302l203 955h193l-199 -934c-42.667 -202 -112.334 -347.333 -209.001 -436s-221 -133 -373 -133
c-158.667 0 -266.667 44.333 -324 133c-58 88.667 -65.667 234 -23 436zM984 1663v0zM732 0v0zM319 1503v0zM761 1892h189l-45 -213h-189zM1110 1892h189l-45 -213h-189zM984 1663v0z" />
    <glyph glyph-name="Yacute" unicode="&#xdd;" 
d="M329 1472h211l141 -713v0l452 713h189l-593 -908l-120 -564h-193l120 564zM928 1663v0zM319 1503v0zM753 1663l237 288h224l-323 -288h-138zM928 1663v0z" />
    <glyph glyph-name="Thorn" unicode="&#xde;" horiz-adv-x="1139" 
d="M643 1227h255.998c122.667 0 212.667 -33.667 270 -101c58 -66.667 71.333 -174.334 40 -323.001c-25.333 -119.333 -81.666 -216.666 -168.999 -291.999c-87.333 -74.667 -194.666 -112 -321.999 -112h-251l-85 -399h-193l313 1472h193zM607.998 1063l-106.001 -499.999
h210c83.333 0 151 22.667 203 68c52.667 46 87 106.667 103 182c16.667 79.333 10.334 140.666 -18.999 183.999c-29.333 44 -79 66 -149 66h-242z" />
    <glyph glyph-name="germandbls" unicode="&#xdf;" horiz-adv-x="1139" 
d="M144 0l249.999 1178c22 101.333 78 180.333 168 237c90.667 57.333 190 86 298 86c118 0 205.333 -25.667 262 -77c56 -51.333 73.667 -126.666 53 -225.999c-15.333 -72 -55.333 -134.333 -120 -187l-73 -62c-25.333 -20 -48.666 -42 -69.999 -66
c-22 -23.333 -35 -45.333 -39 -66c-8 -37.333 7 -75.333 45 -114l94 -87c83.333 -80.667 112 -183 86 -307c-47.333 -220.667 -178 -331 -392 -331c-204 0 -286.333 92.667 -247 278h173c-20 -94 14.333 -141 103 -141c94.667 0 155.334 61.667 182.001 185
c16 77.333 -10.667 149 -80 215l-70 68c-38.667 32.667 -63.334 68 -74.001 106c-9.33301 38.667 -9.66602 78 -0.999023 118v0c13.333 51.333 62 113.333 146 186c84.667 72.667 132.667 134.667 144 186c12 58 4 103.333 -24 136s-70.333 49 -127 49
c-78 0 -139.333 -17.667 -184 -53c-44.667 -34.667 -77.334 -100.334 -98.001 -197.001l-237 -1114h-168z" />
    <glyph glyph-name="agrave" unicode="&#xe0;" 
d="M319 758c47.333 202.667 184.67 304.001 412.003 304.001s318.666 -105 273.999 -315l-109 -511c-17.333 -82.667 -26 -161.334 -26 -236.001h-187l33 155c-73.333 -118 -172.333 -177 -297 -177c-193.333 0 -266 113 -218 339c22.667 105.333 74.667 186.333 156 243
s190.666 85 327.999 85h130l19 89c28.667 134 -16 201 -134 201c-47.333 0 -90 -14.667 -128 -44c-36.667 -28.667 -61.334 -73 -74.001 -133h-179zM788.004 518.001h-36.999c-127.333 0 -219.333 -16.667 -276 -50c-56 -33.333 -91.667 -86.333 -107 -159
c-12.667 -60 -8.33398 -107.333 12.999 -142c22 -34.667 57 -52 105 -52c68 0 126.667 26.667 176 80s91.333 161 126 323v0zM767.005 1190v0zM824.005 0.000976562v0zM804.005 1190l-201 288h224l115 -288h-138zM767.005 1190v0z" />
    <glyph glyph-name="aacute" unicode="&#xe1;" 
d="M319 758c47.333 202.667 184.67 304.001 412.003 304.001s318.666 -105 273.999 -315l-109 -511c-17.333 -82.667 -26 -161.334 -26 -236.001h-187l33 155c-73.333 -118 -172.333 -177 -297 -177c-193.333 0 -266 113 -218 339c22.667 105.333 74.667 186.333 156 243
s190.666 85 327.999 85h130l19 89c28.667 134 -16 201 -134 201c-47.333 0 -90 -14.667 -128 -44c-36.667 -28.667 -61.334 -73 -74.001 -133h-179zM788.004 518.001h-36.999c-127.333 0 -219.333 -16.667 -276 -50c-56 -33.333 -91.667 -86.333 -107 -159
c-12.667 -60 -8.33398 -107.333 12.999 -142c22 -34.667 57 -52 105 -52c68 0 126.667 26.667 176 80s91.333 161 126 323v0zM767.005 1190v0zM824.005 0.000976562v0zM592.005 1190l237 288h224l-323 -288h-138zM767.005 1190v0z" />
    <glyph glyph-name="acircumflex" unicode="&#xe2;" 
d="M319 758c47.333 202.667 184.67 304.001 412.003 304.001s318.666 -105 273.999 -315l-109 -511c-17.333 -82.667 -26 -161.334 -26 -236.001h-187l33 155c-73.333 -118 -172.333 -177 -297 -177c-193.333 0 -266 113 -218 339c22.667 105.333 74.667 186.333 156 243
s190.666 85 327.999 85h130l19 89c28.667 134 -16 201 -134 201c-47.333 0 -90 -14.667 -128 -44c-36.667 -28.667 -61.334 -73 -74.001 -133h-179zM788.004 518.001h-36.999c-127.333 0 -219.333 -16.667 -276 -50c-56 -33.333 -91.667 -86.333 -107 -159
c-12.667 -60 -8.33398 -107.333 12.999 -142c22 -34.667 57 -52 105 -52c68 0 126.667 26.667 176 80s91.333 161 126 323v0zM767.005 1190v0zM824.005 0.000976562v0zM457.005 1190l269 288h189l147 -288h-165l-98 192v0l-177 -192h-165zM767.005 1190v0z" />
    <glyph glyph-name="atilde" unicode="&#xe3;" 
d="M319 758c47.333 202.667 184.67 304.001 412.003 304.001s318.666 -105 273.999 -315l-109 -511c-17.333 -82.667 -26 -161.334 -26 -236.001h-187l33 155c-73.333 -118 -172.333 -177 -297 -177c-193.333 0 -266 113 -218 339c22.667 105.333 74.667 186.333 156 243
s190.666 85 327.999 85h130l19 89c28.667 134 -16 201 -134 201c-47.333 0 -90 -14.667 -128 -44c-36.667 -28.667 -61.334 -73 -74.001 -133h-179zM788.004 518.001h-36.999c-127.333 0 -219.333 -16.667 -276 -50c-56 -33.333 -91.667 -86.333 -107 -159
c-12.667 -60 -8.33398 -107.333 12.999 -142c22 -34.667 57 -52 105 -52c68 0 126.667 26.667 176 80s91.333 161 126 323v0zM767.005 1190v0zM824.005 0.000976562v0zM411.005 1184c25.333 72.667 59.001 127.333 101.001 164c42.667 36.667 95.667 55 159 55
c38.667 0 86.334 -12.667 143.001 -38c57.333 -25.333 99.666 -38 126.999 -38c32 0 57.667 8 77 24c19.333 16.667 33.666 39.667 42.999 69h103c-18.667 -63.333 -52.334 -116.333 -101.001 -159c-49.333 -42.667 -102 -64 -158 -64c-33.333 0 -81.666 12.667 -144.999 38
s-109.333 38 -138 38c-25.333 0 -49 -9 -71 -27c-22.667 -18 -38 -38.667 -46 -62h-94zM767.006 1190v0z" />
    <glyph glyph-name="adieresis" unicode="&#xe4;" 
d="M319 758c47.333 202.667 184.67 304.001 412.003 304.001s318.666 -105 273.999 -315l-109 -511c-17.333 -82.667 -26 -161.334 -26 -236.001h-187l33 155c-73.333 -118 -172.333 -177 -297 -177c-193.333 0 -266 113 -218 339c22.667 105.333 74.667 186.333 156 243
s190.666 85 327.999 85h130l19 89c28.667 134 -16 201 -134 201c-47.333 0 -90 -14.667 -128 -44c-36.667 -28.667 -61.334 -73 -74.001 -133h-179zM788.004 518.001h-36.999c-127.333 0 -219.333 -16.667 -276 -50c-56 -33.333 -91.667 -86.333 -107 -159
c-12.667 -60 -8.33398 -107.333 12.999 -142c22 -34.667 57 -52 105 -52c68 0 126.667 26.667 176 80s91.333 161 126 323v0zM767.005 1190v0zM824.005 0.000976562v0zM544.005 1419h189l-45 -213h-189zM893.005 1419h189l-45 -213h-189zM767.005 1190v0z" />
    <glyph glyph-name="aring" unicode="&#xe5;" 
d="M319 758c47.333 202.667 184.67 304.001 412.003 304.001s318.666 -105 273.999 -315l-109 -511c-17.333 -82.667 -26 -161.334 -26 -236.001h-187l33 155c-73.333 -118 -172.333 -177 -297 -177c-193.333 0 -266 113 -218 339c22.667 105.333 74.667 186.333 156 243
s190.666 85 327.999 85h130l19 89c28.667 134 -16 201 -134 201c-47.333 0 -90 -14.667 -128 -44c-36.667 -28.667 -61.334 -73 -74.001 -133h-179zM788.004 518.001h-36.999c-127.333 0 -219.333 -16.667 -276 -50c-56 -33.333 -91.667 -86.333 -107 -159
c-12.667 -60 -8.33398 -107.333 12.999 -142c22 -34.667 57 -52 105 -52c68 0 126.667 26.667 176 80s91.333 161 126 323v0zM767.005 1190v0zM824.005 0.000976562v0zM596.005 1385c12 57.333 42.667 106.332 92 146.999c50 40.667 104.333 61 163 61
c60.667 0 106.667 -20 138 -60c31.333 -39.333 40.333 -89.666 27 -150.999c-12 -58 -43 -107.333 -93 -148c-50 -40 -104 -60 -162 -60s-103.667 18.667 -137 56c-32.667 37.333 -42 89 -28 155zM681.005 1383c-8 -35.333 -2.33398 -65.334 16.999 -90.001
c19.333 -24 46.666 -36 81.999 -36c34.667 0 66.667 12 96 36c29.333 24.667 48 55 56 91c7.33301 34.667 1.33301 64.334 -18 89.001s-46.333 37 -81 37c-35.333 0 -67.666 -12.333 -96.999 -37s-47.666 -54.667 -54.999 -90zM767.004 1190v0z" />
    <glyph glyph-name="ae" unicode="&#xe6;" horiz-adv-x="1593" 
d="M997 905c53.333 104.667 157.334 157.001 312.001 157.001c138 0 225 -42.667 261 -128c35.333 -85.333 38 -198.333 8 -339c-2 -10 -10.667 -44 -26 -102h-571v0v0v0v0v0c-30 -142 -36.333 -240.667 -19 -296c17.333 -54.667 60.333 -82 129 -82
c120 0 200.333 71.667 241 215h179c-26 -121.333 -76.667 -210.333 -152 -267c-74.667 -56.667 -170.667 -85 -288 -85c-84.667 0 -150.667 17 -198 51c-47.333 34.667 -72 79.667 -74 135c-79.333 -124 -198 -186 -356 -186c-100.667 0 -172 26.667 -214 80
s-52.333 129.333 -31 228c21.333 101.333 65.666 178.666 132.999 231.999c67.333 54 179.333 85.333 336 94l162 8v0l22 103c14.667 70.667 10 123.667 -14 159c-23.333 35.333 -66.333 53 -129 53c-61.333 0 -108.333 -15.333 -141 -46c-32 -30 -52.333 -66.667 -61 -110
l-5 -21h-179c47.333 202.667 184 304 410 304c164 0 252.333 -52.333 265 -157zM384.001 285.001c-24.667 -113.333 17 -170.001 125 -170.001c74 0 133.667 27.333 179 82c46 55.333 80 135 102 239l12 57v0h-74c-109.333 -2 -190.333 -19 -243 -51
c-52 -31.333 -85.667 -83.666 -101 -156.999zM1008 620h397v0c24.667 116 24 197.333 -2 244c-26 47.333 -71.333 71 -136 71c-128 0 -214.333 -105 -259 -315z" />
    <glyph glyph-name="ccedilla" unicode="&#xe7;" 
d="M762 346l178.997 0.000976562c-24.667 -116 -76 -206.333 -154 -271c-77.333 -64.667 -161.333 -97 -252 -97c-152 0 -245 45 -279 135s-32.667 221.333 4 394c42.667 202 102.334 345 179.001 429s187 126 331 126c98 0 169 -27.333 213 -82
c44.667 -54.667 53.667 -144.667 27 -270v0v0h-179v0v0c14.667 68 13.667 120.667 -3 158c-15.333 38 -45.666 57 -90.999 57c-73.333 0 -132.333 -26.333 -177 -79c-44 -52.667 -79.667 -143.334 -107 -272.001c-38.667 -182 -49.667 -304 -33 -366s63 -93 139 -93
c102.667 0.666992 170.334 77.667 203.001 231zM799.997 1190v0zM458.997 0.000976562v0zM181.997 -405.999l52 83c46 -20.667 87.667 -31 125 -31c73.333 0 115.333 25 126 75c12 56 -14.333 84 -79 84c-4.66699 0 -32.667 -5.66699 -84 -17l-27 39l167 173h97l-127 -129
c26.667 11.333 51.667 17 75 17c50 0 87.667 -14.333 113 -43c25.333 -28 33 -65.333 23 -112c-11.333 -54.667 -43 -99 -95 -133c-51.333 -34 -110.333 -51 -177 -51c-66 0 -129 15 -189 45zM458.997 0.000976562v0z" />
    <glyph glyph-name="egrave" unicode="&#xe8;" 
d="M409 466c-28.667 -134.667 -31.668 -226.999 -9.00098 -276.999c22.667 -49.333 69.334 -74 140.001 -74c51.333 0 97 18 137 54c40 36.667 68 85 84 145h184c-22.667 -104.667 -71.667 -187 -147 -247c-75.333 -59.333 -169 -89 -281 -89
c-160 0 -254.667 49.333 -284 148c-29.333 99.333 -27.333 226.333 6 381c44 206.667 104.333 350.667 181 432c77.333 82 187 123 329 123c134.667 0 220.667 -37.667 258 -113c38 -74.667 38.333 -199.334 1 -374.001l-23 -109h-576zM435.999 593.001l396.999 0.000976562
v0c30.667 143.333 30.334 240.666 -0.999023 291.999c-19.333 33.333 -58.333 50 -117 50c-74.667 0 -133 -25 -175 -75s-76.667 -139 -104 -267zM758.998 1190v0zM578.998 0.00195312v0zM795.998 1190l-201 288h224l115 -288h-138zM758.998 1190v0z" />
    <glyph glyph-name="eacute" unicode="&#xe9;" 
d="M409 466c-28.667 -134.667 -31.668 -226.999 -9.00098 -276.999c22.667 -49.333 69.334 -74 140.001 -74c51.333 0 97 18 137 54c40 36.667 68 85 84 145h184c-22.667 -104.667 -71.667 -187 -147 -247c-75.333 -59.333 -169 -89 -281 -89
c-160 0 -254.667 49.333 -284 148c-29.333 99.333 -27.333 226.333 6 381c44 206.667 104.333 350.667 181 432c77.333 82 187 123 329 123c134.667 0 220.667 -37.667 258 -113c38 -74.667 38.333 -199.334 1 -374.001l-23 -109h-576zM435.999 593.001l396.999 0.000976562
v0c30.667 143.333 30.334 240.666 -0.999023 291.999c-19.333 33.333 -58.333 50 -117 50c-74.667 0 -133 -25 -175 -75s-76.667 -139 -104 -267zM758.998 1190v0zM578.998 0.00195312v0zM583.998 1190l237 288h224l-323 -288h-138zM758.998 1190v0z" />
    <glyph glyph-name="ecircumflex" unicode="&#xea;" 
d="M409 466c-28.667 -134.667 -31.668 -226.999 -9.00098 -276.999c22.667 -49.333 69.334 -74 140.001 -74c51.333 0 97 18 137 54c40 36.667 68 85 84 145h184c-22.667 -104.667 -71.667 -187 -147 -247c-75.333 -59.333 -169 -89 -281 -89
c-160 0 -254.667 49.333 -284 148c-29.333 99.333 -27.333 226.333 6 381c44 206.667 104.333 350.667 181 432c77.333 82 187 123 329 123c134.667 0 220.667 -37.667 258 -113c38 -74.667 38.333 -199.334 1 -374.001l-23 -109h-576zM435.999 593.001l396.999 0.000976562
v0c30.667 143.333 30.334 240.666 -0.999023 291.999c-19.333 33.333 -58.333 50 -117 50c-74.667 0 -133 -25 -175 -75s-76.667 -139 -104 -267zM758.998 1190v0zM578.998 0.00195312v0zM448.998 1190l269 288h189l147 -288h-165l-98 192v0l-177 -192h-165zM758.998 1190v0
z" />
    <glyph glyph-name="edieresis" unicode="&#xeb;" 
d="M409 466c-28.667 -134.667 -31.668 -226.999 -9.00098 -276.999c22.667 -49.333 69.334 -74 140.001 -74c51.333 0 97 18 137 54c40 36.667 68 85 84 145h184c-22.667 -104.667 -71.667 -187 -147 -247c-75.333 -59.333 -169 -89 -281 -89
c-160 0 -254.667 49.333 -284 148c-29.333 99.333 -27.333 226.333 6 381c44 206.667 104.333 350.667 181 432c77.333 82 187 123 329 123c134.667 0 220.667 -37.667 258 -113c38 -74.667 38.333 -199.334 1 -374.001l-23 -109h-576zM435.999 593.001l396.999 0.000976562
v0c30.667 143.333 30.334 240.666 -0.999023 291.999c-19.333 33.333 -58.333 50 -117 50c-74.667 0 -133 -25 -175 -75s-76.667 -139 -104 -267zM758.998 1190v0zM578.998 0.00195312v0zM535.998 1419h189l-45 -213h-189zM884.998 1419h189l-45 -213h-189zM758.998 1190v0z
" />
    <glyph glyph-name="igrave" unicode="&#xec;" horiz-adv-x="455" 
d="M365 1040h168l-221 -1040h-168zM483 1190v0zM226 1062v0zM520 1190l-201 288h224l115 -288h-138zM483 1190v0z" />
    <glyph glyph-name="iacute" unicode="&#xed;" horiz-adv-x="455" 
d="M365 1040h168l-221 -1040h-168zM483 1190v0zM226 1062v0zM308 1190l237 288h224l-323 -288h-138zM483 1190v0z" />
    <glyph glyph-name="icircumflex" unicode="&#xee;" horiz-adv-x="455" 
d="M365 1040h168l-221 -1040h-168zM483 1190v0zM226 1062v0zM173 1190l269 288h189l147 -288h-165l-98 192v0l-177 -192h-165zM483 1190v0z" />
    <glyph glyph-name="idieresis" unicode="&#xef;" horiz-adv-x="455" 
d="M365 1040h168l-221 -1040h-168zM483 1190v0zM226 1062v0zM260 1419h189l-45 -213h-189zM609 1419h189l-45 -213h-189zM483 1190v0z" />
    <glyph glyph-name="eth" unicode="&#xf0;" 
d="M668 1327c-44 42.667 -93.332 80.001 -147.999 112.001l133 97c64.667 -34 123.334 -77 176.001 -129v0l218 111l45 -67l-213 -108v0c90.667 -127.333 145.667 -250.333 165 -369c20 -118.667 9 -276.667 -33 -474c-40.667 -192 -99.334 -327 -176.001 -405
c-76 -78 -184.333 -117 -325 -117c-148 0 -242.333 41.667 -283 125s-41 218.666 -1 405.999c43.333 204.667 101.666 344.334 174.999 419.001s175.333 112 306 112c66.667 0 123 -26.333 169 -79c-8.66699 97.333 -58 200.666 -148 309.999v0l-200 -103l-50 62z
M419.001 574.001c-36.667 -173.333 -47.668 -293.332 -33.001 -359.999c15.333 -66 66.333 -99 153 -99c82 0 145 33.667 189 101c43.333 67.333 83.333 186.666 120 357.999c26 121.333 26.333 206.333 1 255c-24.667 49.333 -72.667 74 -144 74
c-74.667 0 -134.667 -24.667 -180 -74s-80.666 -134.333 -105.999 -255z" />
    <glyph glyph-name="ntilde" unicode="&#xf1;" 
d="M315 0l-168 0.000976562l182 857c10.667 50 22 111 34 183h179l-35 -138c43.333 59.333 90.666 100.666 141.999 123.999c52.667 24 111.334 36 176.001 36c95.333 0 159.666 -25.333 192.999 -76c34 -50 37.667 -136.667 11 -260l-154 -726h-168l154 723
c28.667 134.667 -16.666 202 -135.999 202c-142 0 -234 -97.667 -276 -293zM781 1190v0zM522 0.000976562v0zM425 1184c25.333 72.667 59.001 127.333 101.001 164c42.667 36.667 95.667 55 159 55c38.667 0 86.334 -12.667 143.001 -38
c57.333 -25.333 99.666 -38 126.999 -38c32 0 57.667 8 77 24c19.333 16.667 33.666 39.667 42.999 69h103c-18.667 -63.333 -52.334 -116.333 -101.001 -159c-49.333 -42.667 -102 -64 -158 -64c-33.333 0 -81.666 12.667 -144.999 38s-109.333 38 -138 38
c-25.333 0 -49 -9 -71 -27c-22.667 -18 -38 -38.667 -46 -62h-94zM781.001 1190v0z" />
    <glyph glyph-name="ograve" unicode="&#xf2;" 
d="M226 507c45.333 215.333 107.333 361.667 186 439c79.333 77.333 189 116 329 116c146.667 0 239.334 -42.333 278.001 -127c38.667 -84 37.667 -221 -3 -411c-42.667 -203.333 -102 -345.333 -178 -426c-76 -80 -185.333 -120 -328 -120
c-138.667 0 -231.667 37.333 -279 112c-46.667 75.333 -48.334 214.333 -5.00098 417zM419 574.001c-36.667 -173.333 -48.001 -293.333 -34.001 -360c14.667 -66 66 -99 154 -99c82 0 145 33.667 189 101c43.333 67.333 83.333 186.666 120 357.999
c29.333 136.667 30.333 229.334 3 278.001c-26.667 48.667 -73.667 73 -141 73c-76 0 -136.667 -26.333 -182 -79c-45.333 -52 -81.666 -142.667 -108.999 -272zM764.999 1190v0zM801.999 1190l-201 288h224l115 -288h-138zM764.999 1190v0z" />
    <glyph glyph-name="oacute" unicode="&#xf3;" 
d="M226 507c45.333 215.333 107.333 361.667 186 439c79.333 77.333 189 116 329 116c146.667 0 239.334 -42.333 278.001 -127c38.667 -84 37.667 -221 -3 -411c-42.667 -203.333 -102 -345.333 -178 -426c-76 -80 -185.333 -120 -328 -120
c-138.667 0 -231.667 37.333 -279 112c-46.667 75.333 -48.334 214.333 -5.00098 417zM419 574.001c-36.667 -173.333 -48.001 -293.333 -34.001 -360c14.667 -66 66 -99 154 -99c82 0 145 33.667 189 101c43.333 67.333 83.333 186.666 120 357.999
c29.333 136.667 30.333 229.334 3 278.001c-26.667 48.667 -73.667 73 -141 73c-76 0 -136.667 -26.333 -182 -79c-45.333 -52 -81.666 -142.667 -108.999 -272zM764.999 1190v0zM589.999 1190l237 288h224l-323 -288h-138zM764.999 1190v0z" />
    <glyph glyph-name="ocircumflex" unicode="&#xf4;" 
d="M226 507c45.333 215.333 107.333 361.667 186 439c79.333 77.333 189 116 329 116c146.667 0 239.334 -42.333 278.001 -127c38.667 -84 37.667 -221 -3 -411c-42.667 -203.333 -102 -345.333 -178 -426c-76 -80 -185.333 -120 -328 -120
c-138.667 0 -231.667 37.333 -279 112c-46.667 75.333 -48.334 214.333 -5.00098 417zM419 574.001c-36.667 -173.333 -48.001 -293.333 -34.001 -360c14.667 -66 66 -99 154 -99c82 0 145 33.667 189 101c43.333 67.333 83.333 186.666 120 357.999
c29.333 136.667 30.333 229.334 3 278.001c-26.667 48.667 -73.667 73 -141 73c-76 0 -136.667 -26.333 -182 -79c-45.333 -52 -81.666 -142.667 -108.999 -272zM764.999 1190v0zM454.999 1190l269 288h189l147 -288h-165l-98 192v0l-177 -192h-165zM764.999 1190v0z" />
    <glyph glyph-name="otilde" unicode="&#xf5;" 
d="M226 507c45.333 215.333 107.333 361.667 186 439c79.333 77.333 189 116 329 116c146.667 0 239.334 -42.333 278.001 -127c38.667 -84 37.667 -221 -3 -411c-42.667 -203.333 -102 -345.333 -178 -426c-76 -80 -185.333 -120 -328 -120
c-138.667 0 -231.667 37.333 -279 112c-46.667 75.333 -48.334 214.333 -5.00098 417zM419 574.001c-36.667 -173.333 -48.001 -293.333 -34.001 -360c14.667 -66 66 -99 154 -99c82 0 145 33.667 189 101c43.333 67.333 83.333 186.666 120 357.999
c29.333 136.667 30.333 229.334 3 278.001c-26.667 48.667 -73.667 73 -141 73c-76 0 -136.667 -26.333 -182 -79c-45.333 -52 -81.666 -142.667 -108.999 -272zM764.999 1190v0zM408.999 1184c25.333 72.667 59.001 127.333 101.001 164c42.667 36.667 95.667 55 159 55
c38.667 0 86.334 -12.667 143.001 -38c57.333 -25.333 99.666 -38 126.999 -38c32 0 57.667 8 77 24c19.333 16.667 33.666 39.667 42.999 69h103c-18.667 -63.333 -52.334 -116.333 -101.001 -159c-49.333 -42.667 -102 -64 -158 -64c-33.333 0 -81.666 12.667 -144.999 38
s-109.333 38 -138 38c-25.333 0 -49 -9 -71 -27c-22.667 -18 -38 -38.667 -46 -62h-94zM765 1190v0z" />
    <glyph glyph-name="odieresis" unicode="&#xf6;" 
d="M226 507c45.333 215.333 107.333 361.667 186 439c79.333 77.333 189 116 329 116c146.667 0 239.334 -42.333 278.001 -127c38.667 -84 37.667 -221 -3 -411c-42.667 -203.333 -102 -345.333 -178 -426c-76 -80 -185.333 -120 -328 -120
c-138.667 0 -231.667 37.333 -279 112c-46.667 75.333 -48.334 214.333 -5.00098 417zM419 574.001c-36.667 -173.333 -48.001 -293.333 -34.001 -360c14.667 -66 66 -99 154 -99c82 0 145 33.667 189 101c43.333 67.333 83.333 186.666 120 357.999
c29.333 136.667 30.333 229.334 3 278.001c-26.667 48.667 -73.667 73 -141 73c-76 0 -136.667 -26.333 -182 -79c-45.333 -52 -81.666 -142.667 -108.999 -272zM764.999 1190v0zM541.999 1419h189l-45 -213h-189zM890.999 1419h189l-45 -213h-189zM764.999 1190v0z" />
    <glyph glyph-name="divide" unicode="&#xf7;" 
d="M581 820l45 208h192l-45 -208h-192zM1015 453h-832l27 127h832zM408 5l44 208h192l-44 -208h-192z" />
    <glyph glyph-name="oslash" unicode="&#xf8;" 
d="M219 139c-30 83.333 -27.333 208.332 8 374.999c42 198 100 338.667 174 422c74 84 187 126 339 126c118.667 0 202.667 -29 252 -87v0l128 135l57 -42l-149 -159v0c30.667 -77.333 26.667 -205.666 -12 -384.999c-42.667 -203.333 -102.334 -345.333 -179.001 -426
c-76 -80 -186.333 -120 -331 -120c-129.333 0 -216.666 28.333 -261.999 85v0l-123 -133l-53 46zM867 735.999l-480.999 -521.001v0c16 -66.667 67 -100 153 -100c82 0 145 33.667 189 101c44 68 84 187.667 120 359c13.333 62.667 19.666 116.334 18.999 161.001z
M379.001 307.998l479.998 522v0c-17.333 63.333 -66.666 95 -147.999 95c-76 0 -137 -26.333 -183 -79c-45.333 -52 -81.666 -143 -108.999 -273c-24.667 -116.667 -38 -205 -40 -265z" />
    <glyph glyph-name="ugrave" unicode="&#xf9;" 
d="M376 1040l167.997 0.000976562l-154 -723c-30 -141.333 12.667 -212 128 -212c67.333 0 123.333 24.667 168 74s73.334 103.666 86.001 162.999l148 698h168l-182 -857c-10.667 -50.667 -22 -111.667 -34 -183h-173l29 138c-75.333 -106.667 -176.666 -160 -303.999 -160
c-85.333 0 -147.666 22 -186.999 66c-38.667 44.667 -49 109.667 -31 195zM754.997 1190v0zM815.997 0.000976562v0zM225.997 1062v0zM791.997 1190l-201 288h224l115 -288h-138zM754.997 1190v0z" />
    <glyph glyph-name="uacute" unicode="&#xfa;" 
d="M376 1040l167.997 0.000976562l-154 -723c-30 -141.333 12.667 -212 128 -212c67.333 0 123.333 24.667 168 74s73.334 103.666 86.001 162.999l148 698h168l-182 -857c-10.667 -50.667 -22 -111.667 -34 -183h-173l29 138c-75.333 -106.667 -176.666 -160 -303.999 -160
c-85.333 0 -147.666 22 -186.999 66c-38.667 44.667 -49 109.667 -31 195zM754.997 1190v0zM815.997 0.000976562v0zM225.997 1062v0zM579.997 1190l237 288h224l-323 -288h-138zM754.997 1190v0z" />
    <glyph glyph-name="ucircumflex" unicode="&#xfb;" 
d="M376 1040l167.997 0.000976562l-154 -723c-30 -141.333 12.667 -212 128 -212c67.333 0 123.333 24.667 168 74s73.334 103.666 86.001 162.999l148 698h168l-182 -857c-10.667 -50.667 -22 -111.667 -34 -183h-173l29 138c-75.333 -106.667 -176.666 -160 -303.999 -160
c-85.333 0 -147.666 22 -186.999 66c-38.667 44.667 -49 109.667 -31 195zM754.997 1190v0zM815.997 0.000976562v0zM225.997 1062v0zM444.997 1190l269 288h189l147 -288h-165l-98 192v0l-177 -192h-165zM754.997 1190v0z" />
    <glyph glyph-name="udieresis" unicode="&#xfc;" 
d="M376 1040l167.997 0.000976562l-154 -723c-30 -141.333 12.667 -212 128 -212c67.333 0 123.333 24.667 168 74s73.334 103.666 86.001 162.999l148 698h168l-182 -857c-10.667 -50.667 -22 -111.667 -34 -183h-173l29 138c-75.333 -106.667 -176.666 -160 -303.999 -160
c-85.333 0 -147.666 22 -186.999 66c-38.667 44.667 -49 109.667 -31 195zM754.997 1190v0zM815.997 0.000976562v0zM225.997 1062v0zM531.997 1419h189l-45 -213h-189zM880.997 1419h189l-45 -213h-189zM754.997 1190v0z" />
    <glyph glyph-name="yacute" unicode="&#xfd;" horiz-adv-x="909" 
d="M237 1040h194l76 -840v0l429 840h181l-776 -1424h-173l197 384v0zM737 1190v0zM226 1062v0zM562 1190l237 288h224l-323 -288h-138zM737 1190v0z" />
    <glyph glyph-name="thorn" unicode="&#xfe;" 
d="M502 902c71.333 106.667 163.666 159.999 276.999 159.999c116 0 191.333 -41.333 226 -124c36 -82.667 33.333 -222 -8 -418c-43.333 -203.333 -101.666 -344.666 -174.999 -423.999c-72.667 -78.667 -165.667 -118 -279 -118c-112.667 0 -181.667 48 -207 144
l-108 -506h-168l395 1856h168zM422 525.999c-38 -179.333 -45 -292.667 -21 -340s66.333 -71 127 -71c78 0 138 30.333 180 91c41.333 60.667 79.666 174.667 114.999 342c28.667 133.333 34.334 229.333 17.001 288c-17.333 59.333 -65.666 89 -144.999 89
c-64.667 0 -118.334 -28 -161.001 -84c-42 -55.333 -79.333 -160.333 -112 -315z" />
    <glyph glyph-name="ydieresis" unicode="&#xff;" horiz-adv-x="909" 
d="M237 1040h194l76 -840v0l429 840h181l-776 -1424h-173l197 384v0zM737 1190v0zM226 1062v0zM514 1419h189l-45 -213h-189zM863 1419h189l-45 -213h-189zM737 1190v0z" />
    <glyph glyph-name="Amacron" unicode="&#x100;" horiz-adv-x="1251" 
d="M30 0l777 1472h241l167 -1472h-211l-31 353v0h-570v0l-184 -353h-189zM487 517h468v0l-71 788v0zM985 1663v0zM1183 0v0zM319 1503v0zM737 1824h560l-24 -113h-560zM985 1663v0z" />
    <glyph glyph-name="amacron" unicode="&#x101;" 
d="M319 758c47.333 202.667 184.67 304.001 412.003 304.001s318.666 -105 273.999 -315l-109 -511c-17.333 -82.667 -26 -161.334 -26 -236.001h-187l33 155c-73.333 -118 -172.333 -177 -297 -177c-193.333 0 -266 113 -218 339c22.667 105.333 74.667 186.333 156 243
s190.666 85 327.999 85h130l19 89c28.667 134 -16 201 -134 201c-47.333 0 -90 -14.667 -128 -44c-36.667 -28.667 -61.334 -73 -74.001 -133h-179zM788.004 518.001h-36.999c-127.333 0 -219.333 -16.667 -276 -50c-56 -33.333 -91.667 -86.333 -107 -159
c-12.667 -60 -8.33398 -107.333 12.999 -142c22 -34.667 57 -52 105 -52c68 0 126.667 26.667 176 80s91.333 161 126 323v0zM767.005 1190v0zM824.005 0.000976562v0zM519.005 1351h560l-24 -113h-560zM767.005 1190v0z" />
    <glyph glyph-name="Abreve" unicode="&#x102;" horiz-adv-x="1251" 
d="M30 0l777 1472h241l167 -1472h-211l-31 353v0h-570v0l-184 -353h-189zM487 517h468v0l-71 788v0zM985 1663v0zM1183 0v0zM319 1503v0zM1258 1952h99.999c-31.333 -89.333 -78.666 -157.333 -141.999 -204c-62.667 -46 -137.667 -69 -225 -69
c-200.667 0 -287.667 91 -261 273h100c-2.66699 -106.667 58 -160 182 -160c119.333 0 201.333 53.333 246 160zM984.999 1663v0z" />
    <glyph glyph-name="abreve" unicode="&#x103;" 
d="M319 758c47.333 202.667 184.67 304.001 412.003 304.001s318.666 -105 273.999 -315l-109 -511c-17.333 -82.667 -26 -161.334 -26 -236.001h-187l33 155c-73.333 -118 -172.333 -177 -297 -177c-193.333 0 -266 113 -218 339c22.667 105.333 74.667 186.333 156 243
s190.666 85 327.999 85h130l19 89c28.667 134 -16 201 -134 201c-47.333 0 -90 -14.667 -128 -44c-36.667 -28.667 -61.334 -73 -74.001 -133h-179zM788.004 518.001h-36.999c-127.333 0 -219.333 -16.667 -276 -50c-56 -33.333 -91.667 -86.333 -107 -159
c-12.667 -60 -8.33398 -107.333 12.999 -142c22 -34.667 57 -52 105 -52c68 0 126.667 26.667 176 80s91.333 161 126 323v0zM767.005 1190v0zM824.005 0.000976562v0zM1040 1479h99.999c-31.333 -89.333 -78.666 -157.333 -141.999 -204c-62.667 -46 -137.667 -69 -225 -69
c-200.667 0 -287.667 91 -261 273h100c-2.66699 -106.667 58 -160 182 -160c119.333 0 201.333 53.333 246 160zM767.004 1190v0z" />
    <glyph glyph-name="Aogonek" unicode="&#x104;" horiz-adv-x="1251" 
d="M30 0l777 1472h241l167 -1472h-211l-31 353v0h-570v0l-184 -353h-189zM487 517h468v0l-71 788v0zM985 1663v0zM1183 0v0zM319 1503v0zM1099 0h127.002c-144.667 -54 -223.667 -112 -237 -174c-6 -29.333 -2.66699 -53 10 -71c12.667 -17.333 34 -26 64 -26
c19.333 0 45 3.33301 77 10c31.333 7.33301 68 18.333 110 33l-24 -111c-78.667 -30 -154.334 -45 -227.001 -45c-64.667 0 -114.334 16 -149.001 48c-35.333 32.667 -47.333 75.667 -36 129c10.667 50 46 93 106 129c61.333 36.667 121 62.667 179 78zM1183 0v0z" />
    <glyph glyph-name="aogonek" unicode="&#x105;" 
d="M319 758c47.333 202.667 184.67 304.001 412.003 304.001s318.666 -105 273.999 -315l-109 -511c-17.333 -82.667 -26 -161.334 -26 -236.001h-187l33 155c-73.333 -118 -172.333 -177 -297 -177c-193.333 0 -266 113 -218 339c22.667 105.333 74.667 186.333 156 243
s190.666 85 327.999 85h130l19 89c28.667 134 -16 201 -134 201c-47.333 0 -90 -14.667 -128 -44c-36.667 -28.667 -61.334 -73 -74.001 -133h-179zM788.004 518.001h-36.999c-127.333 0 -219.333 -16.667 -276 -50c-56 -33.333 -91.667 -86.333 -107 -159
c-12.667 -60 -8.33398 -107.333 12.999 -142c22 -34.667 57 -52 105 -52c68 0 126.667 26.667 176 80s91.333 161 126 323v0zM767.005 1190v0zM824.005 0.000976562v0zM740.005 0.000976562h127.002c-144.667 -54 -223.667 -112 -237 -174c-6 -29.333 -2.66699 -53 10 -71
c12.667 -17.333 34 -26 64 -26c19.333 0 45 3.33301 77 10c31.333 7.33301 68 18.333 110 33l-24 -111c-78.667 -30 -154.334 -45 -227.001 -45c-64.667 0 -114.334 16 -149.001 48c-35.333 32.667 -47.333 75.667 -36 129c10.667 50 46 93 106 129
c61.333 36.667 121 62.667 179 78zM824.007 0.000976562v0z" />
    <glyph glyph-name="Cacute" unicode="&#x106;" horiz-adv-x="1139" 
d="M930 433l192.998 -0.000976562c-34 -160 -94 -277.333 -180 -352c-85.333 -74.667 -200.666 -112 -345.999 -112c-144.667 0 -248 39.667 -310 119c-62 80 -69.333 230.333 -22 451l92 437c74.667 351.333 267.334 527 578.001 527c266 0 375 -113 327 -339l-19 -93h-193
l10 49c32 149.333 -23.667 224 -167 224c-78.667 0 -147.667 -25 -207 -75s-107.333 -160.333 -144 -331l-90 -425c-27.333 -129.333 -30 -226 -8 -290c23.333 -63.333 86.333 -95 189 -95c72.667 0 135 27 187 81c53.333 54.667 90 129.334 110 224.001zM968.998 1663v0z
M582.998 -0.000976562v0zM793.998 1663l237 288h224l-323 -288h-138zM968.998 1663v0z" />
    <glyph glyph-name="cacute" unicode="&#x107;" 
d="M762 346l178.997 0.000976562c-24.667 -116 -76 -206.333 -154 -271c-77.333 -64.667 -161.333 -97 -252 -97c-152 0 -245 45 -279 135s-32.667 221.333 4 394c42.667 202 102.334 345 179.001 429s187 126 331 126c98 0 169 -27.333 213 -82
c44.667 -54.667 53.667 -144.667 27 -270v0v0h-179v0v0c14.667 68 13.667 120.667 -3 158c-15.333 38 -45.666 57 -90.999 57c-73.333 0 -132.333 -26.333 -177 -79c-44 -52.667 -79.667 -143.334 -107 -272.001c-38.667 -182 -49.667 -304 -33 -366s63 -93 139 -93
c102.667 0.666992 170.334 77.667 203.001 231zM799.997 1190v0zM458.997 0.000976562v0zM624.997 1190l237 288h224l-323 -288h-138zM799.997 1190v0z" />
    <glyph glyph-name="Ccaron" unicode="&#x10c;" horiz-adv-x="1139" 
d="M930 433l192.998 -0.000976562c-34 -160 -94 -277.333 -180 -352c-85.333 -74.667 -200.666 -112 -345.999 -112c-144.667 0 -248 39.667 -310 119c-62 80 -69.333 230.333 -22 451l92 437c74.667 351.333 267.334 527 578.001 527c266 0 375 -113 327 -339l-19 -93h-193
l10 49c32 149.333 -23.667 224 -167 224c-78.667 0 -147.667 -25 -207 -75s-107.333 -160.333 -144 -331l-90 -425c-27.333 -129.333 -30 -226 -8 -290c23.333 -63.333 86.333 -95 189 -95c72.667 0 135 27 187 81c53.333 54.667 90 129.334 110 224.001zM968.998 1663v0z
M582.998 -0.000976562v0zM1316 1951l-269 -288h-189l-147 288h165l96 -192v0l179 192h165zM968.998 1663v0z" />
    <glyph glyph-name="ccaron" unicode="&#x10d;" 
d="M762 346l178.997 0.000976562c-24.667 -116 -76 -206.333 -154 -271c-77.333 -64.667 -161.333 -97 -252 -97c-152 0 -245 45 -279 135s-32.667 221.333 4 394c42.667 202 102.334 345 179.001 429s187 126 331 126c98 0 169 -27.333 213 -82
c44.667 -54.667 53.667 -144.667 27 -270v0v0h-179v0v0c14.667 68 13.667 120.667 -3 158c-15.333 38 -45.666 57 -90.999 57c-73.333 0 -132.333 -26.333 -177 -79c-44 -52.667 -79.667 -143.334 -107 -272.001c-38.667 -182 -49.667 -304 -33 -366s63 -93 139 -93
c102.667 0.666992 170.334 77.667 203.001 231zM799.997 1190v0zM458.997 0.000976562v0zM1147 1478l-269 -288h-189l-147 288h165l96 -192v0l179 192h165zM799.997 1190v0z" />
    <glyph glyph-name="Dcaron" unicode="&#x10e;" horiz-adv-x="1251" 
d="M171 0l313 1472h454c158 0 266.667 -47.333 326 -142c59.333 -94 59.333 -280.667 0 -560c-71.333 -333.333 -161.333 -545 -270 -635s-253.667 -135 -435 -135h-388zM399 164l190.999 -0.000976562c130 0 227.667 32 293 96
c66.667 64.667 116.334 173.334 149.001 326.001l69 329c30.667 142.667 28 243.667 -8 303c-36 60 -101.333 90 -196 90h-255zM933.999 1663v0zM318.999 1503v0zM1281 1951l-269 -288h-189l-147 288h165l96 -192v0l179 192h165zM933.999 1663v0z" />
    <glyph glyph-name="dcaron" unicode="&#x10f;" horiz-adv-x="1229" 
d="M889 918l117.999 554h168l-313 -1472h-168l26 122c-68.667 -96 -160 -144 -274 -144c-119.333 0 -195.666 42.333 -228.999 127s-29.333 223 12 415c44 210 102.667 352.667 176 428c72.667 76 165 114 277 114c110.667 0 179.667 -48 207 -144zM401.999 495
c-30 -142.667 -33.668 -241.666 -11.001 -296.999s69 -83 139 -83c62 0 114.333 26.667 157 80c43.333 53.333 82 159.666 116 318.999c24.667 116.667 36.667 202 36 256c-0.666992 40.667 -11.667 76.667 -33 108s-57.666 47 -108.999 47c-80 0 -140.667 -30.333 -182 -91
c-40 -60.667 -77.667 -173.667 -113 -339zM1264 1286l40 185.999h189l-40 -187c-30.667 -145.333 -112.667 -235.666 -246 -270.999l17 83c72 12 120 75 144 189h-104z" />
    <glyph glyph-name="Dcroat" unicode="&#x110;" horiz-adv-x="1251" 
d="M354 859l130 612.999h454c140.667 0 241.667 -35.667 303 -107c79.333 -93.333 87 -291.666 23 -594.999c-71.333 -333.333 -161.333 -545 -270 -635s-253.667 -135 -435 -135h-388l158 744h-144l25 115h144zM547 858.999l304.001 -0.00195312l-25 -115h-304l-123 -580
h191c138 0 241 37 309 111c57.333 62.667 101.666 166.334 132.999 311.001l69 329c30.667 142.667 27 245.334 -11 308.001c-34 56.667 -98.333 85 -193 85h-255z" />
    <glyph glyph-name="dcroat" unicode="&#x111;" 
d="M954 1222h-228.001l22 107h228l31 143h168l-31 -143h123l-22 -107h-123l-260 -1222h-168l26 122c-68.667 -96 -160 -144 -274 -144c-119.333 0 -195.333 42.667 -228 128c-33.333 85.333 -29.666 223.333 11.001 414c44.667 212.667 102.667 356 174 430
c72 74.667 165 112 279 112c110.667 0 179.667 -48 207 -144zM401.999 495c-28 -132.667 -32.334 -229.333 -13.001 -290c18.667 -60 65.667 -90 141 -90c56.667 0 108 27 154 81c46 54.667 85.667 160.667 119 318c24.667 116.667 36.667 202 36 256
c-0.666992 40.667 -11.667 76.667 -33 108s-57.666 47 -108.999 47c-80 0 -140.667 -30.333 -182 -91c-40 -60.667 -77.667 -173.667 -113 -339z" />
    <glyph glyph-name="Emacron" unicode="&#x112;" 
d="M165 0l313 1472h769l-35 -164h-576l-100 -469h534l-35 -164h-534l-108 -511h588l-35 -164h-781zM866 1663v0zM889 0v0zM319 1503v0zM618 1824h560l-24 -113h-560zM866 1663v0z" />
    <glyph glyph-name="emacron" unicode="&#x113;" 
d="M409 466c-28.667 -134.667 -31.668 -226.999 -9.00098 -276.999c22.667 -49.333 69.334 -74 140.001 -74c51.333 0 97 18 137 54c40 36.667 68 85 84 145h184c-22.667 -104.667 -71.667 -187 -147 -247c-75.333 -59.333 -169 -89 -281 -89
c-160 0 -254.667 49.333 -284 148c-29.333 99.333 -27.333 226.333 6 381c44 206.667 104.333 350.667 181 432c77.333 82 187 123 329 123c134.667 0 220.667 -37.667 258 -113c38 -74.667 38.333 -199.334 1 -374.001l-23 -109h-576zM435.999 593.001l396.999 0.000976562
v0c30.667 143.333 30.334 240.666 -0.999023 291.999c-19.333 33.333 -58.333 50 -117 50c-74.667 0 -133 -25 -175 -75s-76.667 -139 -104 -267zM758.998 1190v0zM578.998 0.00195312v0zM510.998 1351h560l-24 -113h-560zM758.998 1190v0z" />
    <glyph glyph-name="Edotaccent" unicode="&#x116;" 
d="M165 0l313 1472h769l-35 -164h-576l-100 -469h534l-35 -164h-534l-108 -511h588l-35 -164h-781zM866 1663v0zM889 0v0zM319 1503v0zM816 1892h191l-45 -213h-191zM866 1663v0z" />
    <glyph glyph-name="edotaccent" unicode="&#x117;" 
d="M409 466c-28.667 -134.667 -31.668 -226.999 -9.00098 -276.999c22.667 -49.333 69.334 -74 140.001 -74c51.333 0 97 18 137 54c40 36.667 68 85 84 145h184c-22.667 -104.667 -71.667 -187 -147 -247c-75.333 -59.333 -169 -89 -281 -89
c-160 0 -254.667 49.333 -284 148c-29.333 99.333 -27.333 226.333 6 381c44 206.667 104.333 350.667 181 432c77.333 82 187 123 329 123c134.667 0 220.667 -37.667 258 -113c38 -74.667 38.333 -199.334 1 -374.001l-23 -109h-576zM435.999 593.001l396.999 0.000976562
v0c30.667 143.333 30.334 240.666 -0.999023 291.999c-19.333 33.333 -58.333 50 -117 50c-74.667 0 -133 -25 -175 -75s-76.667 -139 -104 -267zM758.998 1190v0zM578.998 0.00195312v0zM708.998 1419h191l-45 -213h-191zM758.998 1190v0z" />
    <glyph glyph-name="Eogonek" unicode="&#x118;" 
d="M165 0l313 1472h769l-35 -164h-576l-100 -469h534l-35 -164h-534l-108 -511h588l-35 -164h-781zM866 1663v0zM889 0v0zM319 1503v0zM805 0h127.002c-144.667 -54 -223.667 -112 -237 -174c-6 -29.333 -2.66699 -53 10 -71c12.667 -17.333 34 -26 64 -26
c19.333 0 45 3.33301 77 10c31.333 7.33301 68 18.333 110 33l-24 -111c-78.667 -30 -154.334 -45 -227.001 -45c-64.667 0 -114.334 16 -149.001 48c-35.333 32.667 -47.333 75.667 -36 129c10.667 50 46 93 106 129c61.333 36.667 121 62.667 179 78zM889.002 0v0z" />
    <glyph glyph-name="eogonek" unicode="&#x119;" 
d="M409 466c-28.667 -134.667 -31.668 -226.999 -9.00098 -276.999c22.667 -49.333 69.334 -74 140.001 -74c51.333 0 97 18 137 54c40 36.667 68 85 84 145h184c-22.667 -104.667 -71.667 -187 -147 -247c-75.333 -59.333 -169 -89 -281 -89
c-160 0 -254.667 49.333 -284 148c-29.333 99.333 -27.333 226.333 6 381c44 206.667 104.333 350.667 181 432c77.333 82 187 123 329 123c134.667 0 220.667 -37.667 258 -113c38 -74.667 38.333 -199.334 1 -374.001l-23 -109h-576zM435.999 593.001l396.999 0.000976562
v0c30.667 143.333 30.334 240.666 -0.999023 291.999c-19.333 33.333 -58.333 50 -117 50c-74.667 0 -133 -25 -175 -75s-76.667 -139 -104 -267zM758.998 1190v0zM578.998 0.00195312v0zM494.998 0.00195312h127.002c-144.667 -54 -223.667 -112 -237 -174
c-6 -29.333 -2.66699 -53 10 -71c12.667 -17.333 34 -26 64 -26c19.333 0 45 3.33301 77 10c31.333 7.33301 68 18.333 110 33l-24 -111c-78.667 -30 -154.334 -45 -227.001 -45c-64.667 0 -114.334 16 -149.001 48c-35.333 32.667 -47.333 75.667 -36 129
c10.667 50 46 93 106 129c61.333 36.667 121 62.667 179 78zM579 0.00195312v0z" />
    <glyph glyph-name="Ecaron" unicode="&#x11a;" 
d="M165 0l313 1472h769l-35 -164h-576l-100 -469h534l-35 -164h-534l-108 -511h588l-35 -164h-781zM866 1663v0zM889 0v0zM319 1503v0zM1213 1951l-269 -288h-189l-147 288h165l96 -192v0l179 192h165zM866 1663v0z" />
    <glyph glyph-name="ecaron" unicode="&#x11b;" 
d="M409 466c-28.667 -134.667 -31.668 -226.999 -9.00098 -276.999c22.667 -49.333 69.334 -74 140.001 -74c51.333 0 97 18 137 54c40 36.667 68 85 84 145h184c-22.667 -104.667 -71.667 -187 -147 -247c-75.333 -59.333 -169 -89 -281 -89
c-160 0 -254.667 49.333 -284 148c-29.333 99.333 -27.333 226.333 6 381c44 206.667 104.333 350.667 181 432c77.333 82 187 123 329 123c134.667 0 220.667 -37.667 258 -113c38 -74.667 38.333 -199.334 1 -374.001l-23 -109h-576zM435.999 593.001l396.999 0.000976562
v0c30.667 143.333 30.334 240.666 -0.999023 291.999c-19.333 33.333 -58.333 50 -117 50c-74.667 0 -133 -25 -175 -75s-76.667 -139 -104 -267zM758.998 1190v0zM578.998 0.00195312v0zM1106 1478l-269 -288h-189l-147 288h165l96 -192v0l179 192h165zM758.998 1190v0z
" />
    <glyph glyph-name="Gbreve" unicode="&#x11e;" horiz-adv-x="1251" 
d="M731 634l35.001 164h464l-153 -719c-144 -73.333 -301.667 -110 -473 -110c-154.667 0 -261.334 43 -320.001 129c-59.333 86 -67 232.667 -23 440l102 480c68.667 323.333 260 485 574 485c294.667 0 415.667 -124 363 -372l-12 -60h-193c38.667 182 -27 273 -197 273
c-99.333 0 -176.333 -30.333 -231 -91c-53.333 -60.667 -90 -138.667 -110 -234l-108 -506c-34 -158.667 -31.333 -262.667 8 -312c38.667 -48.667 95 -73 169 -73c120.667 0 214.667 21.667 282 65l94 441h-271zM960.001 1663v0zM607.001 0v0zM1233 1952h99.999
c-31.333 -89.333 -78.666 -157.333 -141.999 -204c-62.667 -46 -137.667 -69 -225 -69c-200.667 0 -287.667 91 -261 273h100c-2.66699 -106.667 58 -160 182 -160c119.333 0 201.333 53.333 246 160zM960 1663v0z" />
    <glyph glyph-name="gbreve" unicode="&#x11f;" 
d="M150 -112h192.002v0c-10.667 -52 -2.33398 -89.333 24.999 -112c28 -22 60.333 -33 97 -33c118.667 0 190.334 58 215.001 174l45 211c-68 -85.333 -155 -128 -261 -128c-136.667 -0 -218.334 58.333 -245.001 175c-18.667 84 -10.667 208.333 24 373
c73.333 342.667 218.666 514 435.999 514c114 0 184.333 -53.333 211 -160l29 138h168l-242 -1141c-40.667 -188.667 -180.667 -283 -420 -283c-109.333 0 -187 23.667 -233 71c-45.333 48 -61.333 104.333 -48 169zM422.002 549c-32 -148.667 -38.667 -254.667 -20 -318
c18.667 -62.667 62.667 -94 132 -94c64 0 118 25.333 162 76c45.333 51.333 84.666 155.333 117.999 312c33.333 158 40 264 20 318c-19.333 54.667 -62.333 82 -129 82c-75.333 0 -134.666 -31.333 -177.999 -94c-43.333 -62 -78.333 -156 -105 -282zM746.002 1190v0z
M1019 1479h99.999c-31.333 -89.333 -78.666 -157.333 -141.999 -204c-62.667 -46 -137.667 -69 -225 -69c-200.667 0 -287.667 91 -261 273h100c-2.66699 -106.667 58 -160 182 -160c119.333 0 201.333 53.333 246 160zM746.001 1190v0z" />
    <glyph glyph-name="Gcommaaccent" unicode="&#x122;" horiz-adv-x="1251" 
d="M731 634l35.001 164h464l-153 -719c-144 -73.333 -301.667 -110 -473 -110c-154.667 0 -261.334 43 -320.001 129c-59.333 86 -67 232.667 -23 440l102 480c68.667 323.333 260 485 574 485c294.667 0 415.667 -124 363 -372l-12 -60h-193c38.667 182 -27 273 -197 273
c-99.333 0 -176.333 -30.333 -231 -91c-53.333 -60.667 -90 -138.667 -110 -234l-108 -506c-34 -158.667 -31.333 -262.667 8 -312c38.667 -48.667 95 -73 169 -73c120.667 0 214.667 21.667 282 65l94 441h-271zM960.001 1663v0zM607.001 0v0zM469.001 -320l34 160h144
l-33 -155c-26 -124 -90.333 -200.333 -193 -229l15 67c50.667 10.667 86 63 106 157h-73zM607.001 0v0z" />
    <glyph glyph-name="gcommaaccent" unicode="&#x123;" 
d="M150 -112h192.002v0c-10.667 -52 -2.33398 -89.333 24.999 -112c28 -22 60.333 -33 97 -33c118.667 0 190.334 58 215.001 174l45 211c-68 -85.333 -155 -128 -261 -128c-136.667 -0 -218.334 58.333 -245.001 175c-18.667 84 -10.667 208.333 24 373
c73.333 342.667 218.666 514 435.999 514c114 0 184.333 -53.333 211 -160l29 138h168l-242 -1141c-40.667 -188.667 -180.667 -283 -420 -283c-109.333 0 -187 23.667 -233 71c-45.333 48 -61.333 104.333 -48 169zM422.002 549c-32 -148.667 -38.667 -254.667 -20 -318
c18.667 -62.667 62.667 -94 132 -94c64 0 118 25.333 162 76c45.333 51.333 84.666 155.333 117.999 312c33.333 158 40 264 20 318c-19.333 54.667 -62.333 82 -129 82c-75.333 0 -134.666 -31.333 -177.999 -94c-43.333 -62 -78.333 -156 -105 -282zM746.002 1190v0z
M836.002 1350l-34 -160.001h-144l32 154c26.667 124 91 200.667 193 230l-15 -70c-50.667 -11.333 -85.667 -62.666 -105 -153.999h73zM746.002 1190v0z" />
    <glyph glyph-name="Imacron" unicode="&#x12a;" horiz-adv-x="569" 
d="M502 1472h193l-313 -1472h-193zM639 1663v0zM328 0v0zM319 1503v0zM391 1824h560l-24 -113h-560zM639 1663v0z" />
    <glyph glyph-name="imacron" unicode="&#x12b;" horiz-adv-x="455" 
d="M365 1040h168l-221 -1040h-168zM483 1190v0zM226 1062v0zM235 1351h560l-24 -113h-560zM483 1190v0z" />
    <glyph glyph-name="Iogonek" unicode="&#x12e;" horiz-adv-x="569" 
d="M502 1472h193l-313 -1472h-193zM639 1663v0zM328 0v0zM319 1503v0zM244 0h127.002c-144.667 -54 -223.667 -112 -237 -174c-6 -29.333 -2.66699 -53 10 -71c12.667 -17.333 34 -26 64 -26c19.333 0 45 3.33301 77 10c31.333 7.33301 68 18.333 110 33l-24 -111
c-78.667 -30 -154.334 -45 -227.001 -45c-64.667 0 -114.334 16 -149.001 48c-35.333 32.667 -47.333 75.667 -36 129c10.667 50 46 93 106 129c61.333 36.667 121 62.667 179 78zM328.002 0v0z" />
    <glyph glyph-name="iogonek" unicode="&#x12f;" horiz-adv-x="455" 
d="M365 1040h168l-221 -1040h-168zM450 1493h190l-38 -181h-190zM265 0v0zM181 0h127.002c-144.667 -54 -223.667 -112 -237 -174c-6 -29.333 -2.66699 -53 10 -71c12.667 -17.333 34 -26 64 -26c19.333 0 45 3.33301 77 10c31.333 7.33301 68 18.333 110 33l-24 -111
c-78.667 -30 -154.334 -45 -227.001 -45c-64.667 0 -114.334 16 -149.001 48c-35.333 32.667 -47.333 75.667 -36 129c10.667 50 46 93 106 129c61.333 36.667 121 62.667 179 78zM265.002 0v0z" />
    <glyph glyph-name="Idotaccent" unicode="&#x130;" horiz-adv-x="569" 
d="M502 1472h193l-313 -1472h-193zM639 1663v0zM328 0v0zM319 1503v0zM589 1892h191l-45 -213h-191zM639 1663v0z" />
    <glyph glyph-name="dotlessi" unicode="&#x131;" horiz-adv-x="455" 
d="M365 1040h168l-221 -1040h-168zM483 1190v0zM226 1062v0z" />
    <glyph glyph-name="Kcommaaccent" unicode="&#x136;" horiz-adv-x="1139" 
d="M532 817l661 655h214l-679 -667l396 -805h-241l-360 776v0l-165 -776h-193l313 1472h193zM637 0v0zM499 -320l34 160h144l-33 -155c-26 -124 -90.333 -200.333 -193 -229l15 67c50.667 10.667 86 63 106 157h-73zM637 0v0z" />
    <glyph glyph-name="kcommaaccent" unicode="&#x137;" horiz-adv-x="909" 
d="M440 589l419 451h205l-442 -447l281 -593h-213l-252 581v0l-123 -581h-168l313 1472h168zM513 0v0zM375 -320l34 160h144l-33 -155c-26 -124 -90.333 -200.333 -193 -229l15 67c50.667 10.667 86 63 106 157h-73zM513 0v0z" />
    <glyph glyph-name="Lacute" unicode="&#x139;" horiz-adv-x="909" 
d="M478 1472h193l-278 -1308h544l-35 -164h-737zM696 1663v0zM585 0v0zM319 1503v0zM521 1663l237 288h224l-323 -288h-138zM696 1663v0z" />
    <glyph glyph-name="lacute" unicode="&#x13a;" horiz-adv-x="455" 
d="M144 0l313 1472h168l-313 -1472h-168zM584 1664v0zM230 0v0zM409 1664l237 288h224l-323 -288h-138zM584 1664v0z" />
    <glyph glyph-name="Lcommaaccent" unicode="&#x13b;" horiz-adv-x="909" 
d="M478 1472h193l-278 -1308h544l-35 -164h-737zM696 1663v0zM585 0v0zM319 1503v0zM447 -320l34 160h144l-33 -155c-26 -124 -90.333 -200.333 -193 -229l15 67c50.667 10.667 86 63 106 157h-73zM585 0v0z" />
    <glyph glyph-name="lcommaaccent" unicode="&#x13c;" horiz-adv-x="455" 
d="M144 0l313 1472h168l-313 -1472h-168zM584 1664v0zM230 0v0zM92 -320l34 160h144l-33 -155c-26 -124 -90.333 -200.333 -193 -229l15 67c50.667 10.667 86 63 106 157h-73zM230 0v0z" />
    <glyph glyph-name="Lcaron" unicode="&#x13d;" horiz-adv-x="909" 
d="M478 1472h193l-278 -1308h544l-35 -164h-737zM696 1663v0zM585 0v0zM319 1503v0zM875 1286l40 185.999h189l-40 -187c-30.667 -145.333 -112.667 -235.666 -246 -270.999l17 83c72 12 120 75 144 189h-104z" />
    <glyph glyph-name="lcaron" unicode="&#x13e;" horiz-adv-x="655" 
d="M144 0l313 1472h168l-313 -1472h-168zM584 1664v0zM230 0v0zM705 1286l40 185.999h189l-40 -187c-30.667 -145.333 -112.667 -235.666 -246 -270.999l17 83c72 12 120 75 144 189h-104z" />
    <glyph glyph-name="Lslash" unicode="&#x141;" horiz-adv-x="909" 
d="M478 1472h193l-107 -504v0l170 83l29 -79l-222 -112v0l-148 -696h544l-35 -164h-737l159 749v0l-161 -82l-28 79l212 108v0z" />
    <glyph glyph-name="lslash" unicode="&#x142;" horiz-adv-x="455" 
d="M144 0l164 771v0l-183 -94l-27 71l231 121v0l128 603v0h168v0l-107 -505v0l183 94l26 -71l-230 -121v0l-185 -869v0h-168z" />
    <glyph glyph-name="Nacute" unicode="&#x143;" horiz-adv-x="1366" 
d="M490 1472h268l310 -1271v0l270 1271h168l-313 -1472h-259l-317 1282v0l-272 -1282h-168zM1058 1663v0zM665 0v0zM319 1503v0zM883 1663l237 288h224l-323 -288h-138zM1058 1663v0z" />
    <glyph glyph-name="nacute" unicode="&#x144;" 
d="M315 0l-168 0.000976562l182 857c10.667 50 22 111 34 183h179l-35 -138c43.333 59.333 90.666 100.666 141.999 123.999c52.667 24 111.334 36 176.001 36c95.333 0 159.666 -25.333 192.999 -76c34 -50 37.667 -136.667 11 -260l-154 -726h-168l154 723
c28.667 134.667 -16.666 202 -135.999 202c-142 0 -234 -97.667 -276 -293zM781 1190v0zM522 0.000976562v0zM606 1190l237 288h224l-323 -288h-138zM781 1190v0z" />
    <glyph glyph-name="Ncommaaccent" unicode="&#x145;" horiz-adv-x="1366" 
d="M490 1472h268l310 -1271v0l270 1271h168l-313 -1472h-259l-317 1282v0l-272 -1282h-168zM1058 1663v0zM665 0v0zM319 1503v0zM527 -320l34 160h144l-33 -155c-26 -124 -90.333 -200.333 -193 -229l15 67c50.667 10.667 86 63 106 157h-73zM665 0v0z" />
    <glyph glyph-name="ncommaaccent" unicode="&#x146;" 
d="M315 0l-168 0.000976562l182 857c10.667 50 22 111 34 183h179l-35 -138c43.333 59.333 90.666 100.666 141.999 123.999c52.667 24 111.334 36 176.001 36c95.333 0 159.666 -25.333 192.999 -76c34 -50 37.667 -136.667 11 -260l-154 -726h-168l154 723
c28.667 134.667 -16.666 202 -135.999 202c-142 0 -234 -97.667 -276 -293zM781 1190v0zM522 0.000976562v0zM384 -319.999l34 160h144l-33 -155c-26 -124 -90.333 -200.333 -193 -229l15 67c50.667 10.667 86 63 106 157h-73zM522 0.000976562v0z" />
    <glyph glyph-name="Ncaron" unicode="&#x147;" horiz-adv-x="1366" 
d="M490 1472h268l310 -1271v0l270 1271h168l-313 -1472h-259l-317 1282v0l-272 -1282h-168zM1058 1663v0zM665 0v0zM319 1503v0zM1405 1951l-269 -288h-189l-147 288h165l96 -192v0l179 192h165zM1058 1663v0z" />
    <glyph glyph-name="ncaron" unicode="&#x148;" 
d="M315 0l-168 0.000976562l182 857c10.667 50 22 111 34 183h179l-35 -138c43.333 59.333 90.666 100.666 141.999 123.999c52.667 24 111.334 36 176.001 36c95.333 0 159.666 -25.333 192.999 -76c34 -50 37.667 -136.667 11 -260l-154 -726h-168l154 723
c28.667 134.667 -16.666 202 -135.999 202c-142 0 -234 -97.667 -276 -293zM781 1190v0zM522 0.000976562v0zM1128 1478l-269 -288h-189l-147 288h165l96 -192v0l179 192h165zM781 1190v0z" />
    <glyph glyph-name="Omacron" unicode="&#x14c;" horiz-adv-x="1251" 
d="M272 532l102.999 484.999c32.667 154 97.334 273.333 194.001 358c96.667 85.333 221.334 128 374.001 128c152 0 258.333 -42.667 319 -128c60.667 -84.667 75 -202.667 43 -354l-104 -489c-40.667 -192.667 -107.667 -334.667 -201 -426
c-94 -91.333 -220.667 -137 -380 -137c-168.667 0 -279 47 -331 141c-50.667 94.667 -56.334 235.334 -17.001 422.001zM568.999 1021l-108.001 -506c-27.333 -130.667 -28.666 -228 -3.99902 -292c25.333 -63.333 90 -95 194 -95c94.667 0 169.667 29.333 225 88
c56 58.667 99.333 161 130 307l108 508c22 103.333 14.333 181.333 -23 234s-98 79 -182 79c-180.667 0 -294 -107.667 -340 -323zM986.998 1663v0zM738.998 1824h560l-24 -113h-560zM986.998 1663v0z" />
    <glyph glyph-name="omacron" unicode="&#x14d;" 
d="M226 507c45.333 215.333 107.333 361.667 186 439c79.333 77.333 189 116 329 116c146.667 0 239.334 -42.333 278.001 -127c38.667 -84 37.667 -221 -3 -411c-42.667 -203.333 -102 -345.333 -178 -426c-76 -80 -185.333 -120 -328 -120
c-138.667 0 -231.667 37.333 -279 112c-46.667 75.333 -48.334 214.333 -5.00098 417zM419 574.001c-36.667 -173.333 -48.001 -293.333 -34.001 -360c14.667 -66 66 -99 154 -99c82 0 145 33.667 189 101c43.333 67.333 83.333 186.666 120 357.999
c29.333 136.667 30.333 229.334 3 278.001c-26.667 48.667 -73.667 73 -141 73c-76 0 -136.667 -26.333 -182 -79c-45.333 -52 -81.666 -142.667 -108.999 -272zM764.999 1190v0zM516.999 1351h560l-24 -113h-560zM764.999 1190v0z" />
    <glyph glyph-name="Ohungarumlaut" unicode="&#x150;" horiz-adv-x="1251" 
d="M272 532l102.999 484.999c32.667 154 97.334 273.333 194.001 358c96.667 85.333 221.334 128 374.001 128c152 0 258.333 -42.667 319 -128c60.667 -84.667 75 -202.667 43 -354l-104 -489c-40.667 -192.667 -107.667 -334.667 -201 -426
c-94 -91.333 -220.667 -137 -380 -137c-168.667 0 -279 47 -331 141c-50.667 94.667 -56.334 235.334 -17.001 422.001zM568.999 1021l-108.001 -506c-27.333 -130.667 -28.666 -228 -3.99902 -292c25.333 -63.333 90 -95 194 -95c94.667 0 169.667 29.333 225 88
c56 58.667 99.333 161 130 307l108 508c22 103.333 14.333 181.333 -23 234s-98 79 -182 79c-180.667 0 -294 -107.667 -340 -323zM986.998 1663v0zM671.998 1663l237 288h224l-323 -288h-138zM1040 1663l237 288h224l-323 -288h-138zM986.998 1663v0z" />
    <glyph glyph-name="ohungarumlaut" unicode="&#x151;" 
d="M226 507c45.333 215.333 107.333 361.667 186 439c79.333 77.333 189 116 329 116c146.667 0 239.334 -42.333 278.001 -127c38.667 -84 37.667 -221 -3 -411c-42.667 -203.333 -102 -345.333 -178 -426c-76 -80 -185.333 -120 -328 -120
c-138.667 0 -231.667 37.333 -279 112c-46.667 75.333 -48.334 214.333 -5.00098 417zM419 574.001c-36.667 -173.333 -48.001 -293.333 -34.001 -360c14.667 -66 66 -99 154 -99c82 0 145 33.667 189 101c43.333 67.333 83.333 186.666 120 357.999
c29.333 136.667 30.333 229.334 3 278.001c-26.667 48.667 -73.667 73 -141 73c-76 0 -136.667 -26.333 -182 -79c-45.333 -52 -81.666 -142.667 -108.999 -272zM764.999 1190v0zM449.999 1190l237 288h224l-323 -288h-138zM817.999 1190l237 288h224l-323 -288h-138z
M764.999 1190v0z" />
    <glyph glyph-name="OE" unicode="&#x152;" horiz-adv-x="1706" 
d="M1652 0l-1002 -0.000976562v0c-181.333 0 -301.333 44.333 -360 133c-57.333 88.667 -66.666 225.334 -27.999 410.001l76 354c42.667 202 111.667 348.333 207 439s222.666 136 381.999 136v0h1026l-35 -164h-580l-100 -469h538l-35 -164h-538l-108 -511h592zM1145 1308
h-274c-88 0 -158.333 -28.667 -211 -86s-95.667 -165.333 -129 -324l-73 -345c-28 -131.333 -29.333 -229 -4 -293c26 -64 91.667 -96 197 -96h251z" />
    <glyph glyph-name="oe" unicode="&#x153;" horiz-adv-x="1593" 
d="M994 886c64.667 117.333 178 176.001 340 176.001c128.667 0 213.667 -37.667 255 -113c41.333 -74.667 43.333 -199.334 6 -374.001l-23 -109h-576v0c-26 -124 -30.667 -213.667 -14 -269c16.667 -54.667 65 -82 145 -82c54.667 0 100.667 16.667 138 50
c38 34 65.667 83.667 83 149h184c-21.333 -99.333 -70 -180.333 -146 -243c-76 -62 -170.667 -93 -284 -93c-165.333 0 -257.666 53.333 -276.999 160c-76 -106.667 -181.667 -160 -317 -160c-158.667 0 -254.667 45.333 -288 136c-32.667 90.667 -30.667 221.667 6 393
c44.667 212 107.667 357.333 189 436c82 79.333 190 119 324 119c85.333 0 149.666 -13.667 192.999 -41s64 -72.333 62 -135zM419 574.001c-36.667 -173.333 -48.001 -293.332 -34.001 -359.999c14.667 -66 66 -99 154 -99c82 0 145 33.667 189 101
c43.333 67.333 83.333 186.666 120 357.999c28 132 29.667 223.333 5 274c-24 51.333 -71.667 77 -143 77c-76 0 -136.667 -26.333 -182 -79c-45.333 -52 -81.666 -142.667 -108.999 -272zM1023 593.002h396.999v0c24.667 114.667 30 198.667 16 252
c-13.333 53.333 -61.666 80 -144.999 80c-72.667 0 -129 -25 -169 -75s-73 -135.667 -99 -257z" />
    <glyph glyph-name="Racute" unicode="&#x154;" horiz-adv-x="1139" 
d="M162 0l313 1472h507c112.667 0 193.334 -32.333 242.001 -97c50 -64 62.667 -154.333 38 -271c-40 -188.667 -156.667 -302.334 -350 -341.001c78 -8 131.667 -34 161 -78c30 -44 35.333 -121.333 16 -232c-34.667 -191.333 -48.334 -342.333 -41.001 -453h-196
c-13.333 29.333 -13 93.333 1 192s29 196.334 45 293.001c19.333 126.667 -39.667 190 -177 190h-223l-143 -675h-193zM533 839h277c62 0 116 22.333 162 67s76.667 104 92 178c13.333 60.667 8.33301 113 -15 157c-23.333 44.667 -67.333 67 -132 67h-284zM917 1663v0z
M595 0v0zM319 1503v0zM742 1663l237 288h224l-323 -288h-138zM917 1663v0z" />
    <glyph glyph-name="racute" unicode="&#x155;" horiz-adv-x="682" 
d="M155 0l221 1040h168l-35 -163v0c70.667 123.333 179 185 325 185h35v0l-37 -175c-28 6.66699 -57.333 10 -88 10c-153.333 0 -250.333 -94.667 -291 -284l-130 -613h-168zM654 1190v0zM237 0v0zM479 1190l237 288h224l-323 -288h-138zM654 1190v0z" />
    <glyph glyph-name="Rcommaaccent" unicode="&#x156;" horiz-adv-x="1139" 
d="M162 0l313 1472h507c112.667 0 193.334 -32.333 242.001 -97c50 -64 62.667 -154.333 38 -271c-40 -188.667 -156.667 -302.334 -350 -341.001c78 -8 131.667 -34 161 -78c30 -44 35.333 -121.333 16 -232c-34.667 -191.333 -48.334 -342.333 -41.001 -453h-196
c-13.333 29.333 -13 93.333 1 192s29 196.334 45 293.001c19.333 126.667 -39.667 190 -177 190h-223l-143 -675h-193zM533 839h277c62 0 116 22.333 162 67s76.667 104 92 178c13.333 60.667 8.33301 113 -15 157c-23.333 44.667 -67.333 67 -132 67h-284zM917 1663v0z
M595 0v0zM319 1503v0zM457 -320l34 160h144l-33 -155c-26 -124 -90.333 -200.333 -193 -229l15 67c50.667 10.667 86 63 106 157h-73zM595 0v0z" />
    <glyph glyph-name="rcommaaccent" unicode="&#x157;" horiz-adv-x="682" 
d="M155 0l221 1040h168l-35 -163v0c70.667 123.333 179 185 325 185h35v0l-37 -175c-28 6.66699 -57.333 10 -88 10c-153.333 0 -250.333 -94.667 -291 -284l-130 -613h-168zM654 1190v0zM237 0v0zM99 -320l34 160h144l-33 -155c-26 -124 -90.333 -200.333 -193 -229l15 67
c50.667 10.667 86 63 106 157h-73zM237 0v0z" />
    <glyph glyph-name="Rcaron" unicode="&#x158;" horiz-adv-x="1139" 
d="M162 0l313 1472h507c112.667 0 193.334 -32.333 242.001 -97c50 -64 62.667 -154.333 38 -271c-40 -188.667 -156.667 -302.334 -350 -341.001c78 -8 131.667 -34 161 -78c30 -44 35.333 -121.333 16 -232c-34.667 -191.333 -48.334 -342.333 -41.001 -453h-196
c-13.333 29.333 -13 93.333 1 192s29 196.334 45 293.001c19.333 126.667 -39.667 190 -177 190h-223l-143 -675h-193zM533 839h277c62 0 116 22.333 162 67s76.667 104 92 178c13.333 60.667 8.33301 113 -15 157c-23.333 44.667 -67.333 67 -132 67h-284zM917 1663v0z
M595 0v0zM319 1503v0zM1264 1951l-269 -288h-189l-147 288h165l96 -192v0l179 192h165zM917 1663v0z" />
    <glyph glyph-name="rcaron" unicode="&#x159;" horiz-adv-x="682" 
d="M155 0l221 1040h168l-35 -163v0c70.667 123.333 179 185 325 185h35v0l-37 -175c-28 6.66699 -57.333 10 -88 10c-153.333 0 -250.333 -94.667 -291 -284l-130 -613h-168zM654 1190v0zM237 0v0zM1001 1478l-269 -288h-189l-147 288h165l96 -192v0l179 192h165zM654 1190
v0z" />
    <glyph glyph-name="Sacute" unicode="&#x15a;" horiz-adv-x="1139" 
d="M220 433l193.002 0.00195312l-11 -52c-16 -76 -6.66699 -136.333 28 -181c34 -44.667 94 -67 180 -67c74 0 138.333 20 193 60s90 98.333 106 175c13.333 61.333 1.66602 114 -35.001 158c-36 44 -105.667 94.667 -209 152c-126 72.667 -207.333 140 -244 202
c-36 62.667 -44.667 137.334 -26 224.001c25.333 119.333 84 215.666 176 288.999s207 110 345 110c136.667 0 232.334 -33.333 287.001 -100s69.667 -158.334 45 -275.001l-12 -57h-193v0c38 178.667 -19.333 268 -172 268c-72.667 0 -134 -19.333 -184 -58
c-49.333 -38.667 -81 -90.667 -95 -156c-14.667 -68.667 3.66602 -129.334 54.999 -182.001c32 -33.333 100.333 -79.333 205 -138c105.333 -58.667 177 -118.334 215 -179.001c44.667 -72 57 -155.667 37 -251c-58 -270.667 -244.667 -406 -560 -406
c-134.667 0 -231.334 35 -290.001 105c-58.667 70.667 -73.667 172.334 -45 305.001zM962.002 1663v0zM561.002 0.00195312v0zM787.002 1663l237 288h224l-323 -288h-138zM962.002 1663v0z" />
    <glyph glyph-name="sacute" unicode="&#x15b;" horiz-adv-x="909" 
d="M171 314l192.002 0.00292969v0c-28.667 -132.667 12 -199 122 -199c58 0 105 12.333 141 37c36 25.333 59.667 64.666 71 117.999c8 37.333 -2.33301 69 -31 95c-29.333 26.667 -75.333 55.667 -138 87c-88 44 -153 90.667 -195 140c-42 50 -55.667 109.667 -41 179
c19.333 91.333 66 162.666 140 213.999c74.667 51.333 168 77 280 77c104.667 0 180 -22.667 226 -68c46.667 -44.667 63.334 -99 50.001 -163l-12 -57h-192v0c22.667 107.333 -17.333 161 -120 161c-46.667 0 -87.334 -12.667 -122.001 -38s-56.667 -60 -66 -104
c-8.66699 -40 9.66602 -75.667 54.999 -107c45.333 -30.667 91.666 -57.334 138.999 -80.001c79.333 -41.333 138.333 -85.333 177 -132s50.667 -104.667 36 -174c-46 -214.667 -188.333 -322 -427 -322c-238 0 -333 112 -285 336v0zM760.002 1190v0zM446.002 0.00292969v0z
M585.002 1190l237 288h224l-323 -288h-138zM760.002 1190v0z" />
    <glyph glyph-name="Scedilla" unicode="&#x15e;" horiz-adv-x="1139" 
d="M220 433l193.002 0.00195312l-11 -52c-16 -76 -6.66699 -136.333 28 -181c34 -44.667 94 -67 180 -67c74 0 138.333 20 193 60s90 98.333 106 175c13.333 61.333 1.66602 114 -35.001 158c-36 44 -105.667 94.667 -209 152c-126 72.667 -207.333 140 -244 202
c-36 62.667 -44.667 137.334 -26 224.001c25.333 119.333 84 215.666 176 288.999s207 110 345 110c136.667 0 232.334 -33.333 287.001 -100s69.667 -158.334 45 -275.001l-12 -57h-193v0c38 178.667 -19.333 268 -172 268c-72.667 0 -134 -19.333 -184 -58
c-49.333 -38.667 -81 -90.667 -95 -156c-14.667 -68.667 3.66602 -129.334 54.999 -182.001c32 -33.333 100.333 -79.333 205 -138c105.333 -58.667 177 -118.334 215 -179.001c44.667 -72 57 -155.667 37 -251c-58 -270.667 -244.667 -406 -560 -406
c-134.667 0 -231.334 35 -290.001 105c-58.667 70.667 -73.667 172.334 -45 305.001zM962.002 1663v0zM561.002 0.00195312v0zM284.002 -405.998l52 83c46 -20.667 87.667 -31 125 -31c73.333 0 115.333 25 126 75c12 56 -14.333 84 -79 84
c-4.66699 0 -32.667 -5.66699 -84 -17l-27 39l167 173h97l-127 -129c26.667 11.333 51.667 17 75 17c50 0 87.667 -14.333 113 -43c25.333 -28 33 -65.333 23 -112c-11.333 -54.667 -43 -99 -95 -133c-51.333 -34 -110.333 -51 -177 -51c-66 0 -129 15 -189 45z
M561.002 0.00195312v0z" />
    <glyph glyph-name="scedilla" unicode="&#x15f;" horiz-adv-x="909" 
d="M171 314l192.002 0.00292969v0c-28.667 -132.667 12 -199 122 -199c58 0 105 12.333 141 37c36 25.333 59.667 64.666 71 117.999c8 37.333 -2.33301 69 -31 95c-29.333 26.667 -75.333 55.667 -138 87c-88 44 -153 90.667 -195 140c-42 50 -55.667 109.667 -41 179
c19.333 91.333 66 162.666 140 213.999c74.667 51.333 168 77 280 77c104.667 0 180 -22.667 226 -68c46.667 -44.667 63.334 -99 50.001 -163l-12 -57h-192v0c22.667 107.333 -17.333 161 -120 161c-46.667 0 -87.334 -12.667 -122.001 -38s-56.667 -60 -66 -104
c-8.66699 -40 9.66602 -75.667 54.999 -107c45.333 -30.667 91.666 -57.334 138.999 -80.001c79.333 -41.333 138.333 -85.333 177 -132s50.667 -104.667 36 -174c-46 -214.667 -188.333 -322 -427 -322c-238 0 -333 112 -285 336v0zM760.002 1190v0zM446.002 0.00292969v0z
M169.002 -405.997l52 83c46 -20.667 87.667 -31 125 -31c73.333 0 115.333 25 126 75c12 56 -14.333 84 -79 84c-4.66699 0 -32.667 -5.66699 -84 -17l-27 39l167 173h97l-127 -129c26.667 11.333 51.667 17 75 17c50 0 87.667 -14.333 113 -43
c25.333 -28 33 -65.333 23 -112c-11.333 -54.667 -43 -99 -95 -133c-51.333 -34 -110.333 -51 -177 -51c-66 0 -129 15 -189 45zM446.002 0.00292969v0z" />
    <glyph glyph-name="Scaron" unicode="&#x160;" horiz-adv-x="1139" 
d="M220 433l193.002 0.00195312l-11 -52c-16 -76 -6.66699 -136.333 28 -181c34 -44.667 94 -67 180 -67c74 0 138.333 20 193 60s90 98.333 106 175c13.333 61.333 1.66602 114 -35.001 158c-36 44 -105.667 94.667 -209 152c-126 72.667 -207.333 140 -244 202
c-36 62.667 -44.667 137.334 -26 224.001c25.333 119.333 84 215.666 176 288.999s207 110 345 110c136.667 0 232.334 -33.333 287.001 -100s69.667 -158.334 45 -275.001l-12 -57h-193v0c38 178.667 -19.333 268 -172 268c-72.667 0 -134 -19.333 -184 -58
c-49.333 -38.667 -81 -90.667 -95 -156c-14.667 -68.667 3.66602 -129.334 54.999 -182.001c32 -33.333 100.333 -79.333 205 -138c105.333 -58.667 177 -118.334 215 -179.001c44.667 -72 57 -155.667 37 -251c-58 -270.667 -244.667 -406 -560 -406
c-134.667 0 -231.334 35 -290.001 105c-58.667 70.667 -73.667 172.334 -45 305.001zM962.002 1663v0zM561.002 0.00195312v0zM1309 1951l-269 -288h-189l-147 288h165l96 -192v0l179 192h165zM962.002 1663v0z" />
    <glyph glyph-name="scaron" unicode="&#x161;" horiz-adv-x="909" 
d="M171 314l192.002 0.00292969v0c-28.667 -132.667 12 -199 122 -199c58 0 105 12.333 141 37c36 25.333 59.667 64.666 71 117.999c8 37.333 -2.33301 69 -31 95c-29.333 26.667 -75.333 55.667 -138 87c-88 44 -153 90.667 -195 140c-42 50 -55.667 109.667 -41 179
c19.333 91.333 66 162.666 140 213.999c74.667 51.333 168 77 280 77c104.667 0 180 -22.667 226 -68c46.667 -44.667 63.334 -99 50.001 -163l-12 -57h-192v0c22.667 107.333 -17.333 161 -120 161c-46.667 0 -87.334 -12.667 -122.001 -38s-56.667 -60 -66 -104
c-8.66699 -40 9.66602 -75.667 54.999 -107c45.333 -30.667 91.666 -57.334 138.999 -80.001c79.333 -41.333 138.333 -85.333 177 -132s50.667 -104.667 36 -174c-46 -214.667 -188.333 -322 -427 -322c-238 0 -333 112 -285 336v0zM760.002 1190v0zM446.002 0.00292969v0z
M1107 1478l-269 -288h-189l-147 288h165l96 -192v0l179 192h165zM760.002 1190v0z" />
    <glyph glyph-name="Tcommaaccent" unicode="&#x162;" 
d="M345 1472h961l-35 -164h-384l-278 -1308h-193l278 1308h-384zM866 1663v0zM513 0v0zM319 1503v0zM375 -320l34 160h144l-33 -155c-26 -124 -90.333 -200.333 -193 -229l15 67c50.667 10.667 86 63 106 157h-73zM513 0v0z" />
    <glyph glyph-name="tcommaaccent" unicode="&#x163;" horiz-adv-x="569" 
d="M188 913l27 126.999h171l42 197l184 75l-58 -272h224l-27 -127h-224l-141 -664c-9.33301 -43.333 -4 -76.666 16 -99.999c20 -22.667 55 -34 105 -34c18.667 0 45.334 2.66699 80.001 8l-27 -127c-42.667 -12 -99.334 -18 -170.001 -18
c-153.333 0 -216.333 63.333 -189 190l158 745h-171zM276 -0.000976562v0zM138 -320.001l34 160h144l-33 -155c-26 -124 -90.333 -200.333 -193 -229l15 67c50.667 10.667 86 63 106 157h-73zM276 -0.000976562v0z" />
    <glyph glyph-name="Tcaron" unicode="&#x164;" 
d="M345 1472h961l-35 -164h-384l-278 -1308h-193l278 1308h-384zM866 1663v0zM513 0v0zM319 1503v0zM1213 1951l-269 -288h-189l-147 288h165l96 -192v0l179 192h165zM866 1663v0z" />
    <glyph glyph-name="tcaron" unicode="&#x165;" horiz-adv-x="774" 
d="M188 913l27 126.999h171l42 197l184 75l-58 -272h224l-27 -127h-224l-141 -664c-9.33301 -43.333 -4 -76.666 16 -99.999c20 -22.667 55 -34 105 -34c18.667 0 45.334 2.66699 80.001 8l-27 -127c-42.667 -12 -99.334 -18 -170.001 -18
c-153.333 0 -216.333 63.333 -189 190l158 745h-171zM276 -0.000976562v0zM806 1407l40 185.999h189l-40 -187c-30.667 -145.333 -112.667 -235.666 -246 -270.999l17 83c72 12 120 75 144 189h-104z" />
    <glyph glyph-name="Umacron" unicode="&#x16a;" horiz-adv-x="1251" 
d="M472 1472h193l-203 -956c-30 -140.667 -29.667 -240.667 1 -300c30.667 -58.667 92.334 -88 185.001 -88c95.333 0 171 29 227 87s99.333 158.667 130 302l203 955h193l-199 -934c-42.667 -202 -112.334 -347.333 -209.001 -436s-221 -133 -373 -133
c-158.667 0 -266.667 44.333 -324 133c-58 88.667 -65.667 234 -23 436zM984 1663v0zM732 0v0zM319 1503v0zM736 1824h560l-24 -113h-560zM984 1663v0z" />
    <glyph glyph-name="umacron" unicode="&#x16b;" 
d="M376 1040l167.997 0.000976562l-154 -723c-30 -141.333 12.667 -212 128 -212c67.333 0 123.333 24.667 168 74s73.334 103.666 86.001 162.999l148 698h168l-182 -857c-10.667 -50.667 -22 -111.667 -34 -183h-173l29 138c-75.333 -106.667 -176.666 -160 -303.999 -160
c-85.333 0 -147.666 22 -186.999 66c-38.667 44.667 -49 109.667 -31 195zM754.997 1190v0zM815.997 0.000976562v0zM225.997 1062v0zM506.997 1351h560l-24 -113h-560zM754.997 1190v0z" />
    <glyph glyph-name="Uring" unicode="&#x16e;" horiz-adv-x="1251" 
d="M472 1472h193l-203 -956c-30 -140.667 -29.667 -240.667 1 -300c30.667 -58.667 92.334 -88 185.001 -88c95.333 0 171 29 227 87s99.333 158.667 130 302l203 955h193l-199 -934c-42.667 -202 -112.334 -347.333 -209.001 -436s-221 -133 -373 -133
c-158.667 0 -266.667 44.333 -324 133c-58 88.667 -65.667 234 -23 436zM984 1663v0zM732 0v0zM319 1503v0zM813 1858c12 57.333 42.667 106.332 92 146.999c50 40.667 104.333 61 163 61c60.667 0 106.667 -20 138 -60c31.333 -39.333 40.333 -89.666 27 -150.999
c-12 -58 -43 -107.333 -93 -148c-50 -40 -104 -60 -162 -60s-103.667 18.667 -137 56c-32.667 37.333 -42 89 -28 155zM898 1856c-8 -35.333 -2.33398 -65.334 16.999 -90.001c19.333 -24 46.666 -36 81.999 -36c34.667 0 66.667 12 96 36c29.333 24.667 48 55 56 91
c7.33301 34.667 1.33301 64.334 -18 89.001s-46.333 37 -81 37c-35.333 0 -67.666 -12.333 -96.999 -37s-47.666 -54.667 -54.999 -90zM983.999 1663v0z" />
    <glyph glyph-name="uring" unicode="&#x16f;" 
d="M376 1040l167.997 0.000976562l-154 -723c-30 -141.333 12.667 -212 128 -212c67.333 0 123.333 24.667 168 74s73.334 103.666 86.001 162.999l148 698h168l-182 -857c-10.667 -50.667 -22 -111.667 -34 -183h-173l29 138c-75.333 -106.667 -176.666 -160 -303.999 -160
c-85.333 0 -147.666 22 -186.999 66c-38.667 44.667 -49 109.667 -31 195zM754.997 1190v0zM815.997 0.000976562v0zM225.997 1062v0zM583.997 1385c12 57.333 42.667 106.332 92 146.999c50 40.667 104.333 61 163 61c60.667 0 106.667 -20 138 -60
c31.333 -39.333 40.333 -89.666 27 -150.999c-12 -58 -43 -107.333 -93 -148c-50 -40 -104 -60 -162 -60s-103.667 18.667 -137 56c-32.667 37.333 -42 89 -28 155zM668.997 1383c-8 -35.333 -2.33398 -65.334 16.999 -90.001c19.333 -24 46.666 -36 81.999 -36
c34.667 0 66.667 12 96 36c29.333 24.667 48 55 56 91c7.33301 34.667 1.33301 64.334 -18 89.001s-46.333 37 -81 37c-35.333 0 -67.666 -12.333 -96.999 -37s-47.666 -54.667 -54.999 -90zM754.996 1190v0z" />
    <glyph glyph-name="Uhungarumlaut" unicode="&#x170;" horiz-adv-x="1251" 
d="M472 1472h193l-203 -956c-30 -140.667 -29.667 -240.667 1 -300c30.667 -58.667 92.334 -88 185.001 -88c95.333 0 171 29 227 87s99.333 158.667 130 302l203 955h193l-199 -934c-42.667 -202 -112.334 -347.333 -209.001 -436s-221 -133 -373 -133
c-158.667 0 -266.667 44.333 -324 133c-58 88.667 -65.667 234 -23 436zM984 1663v0zM732 0v0zM319 1503v0zM669 1663l237 288h224l-323 -288h-138zM1037 1663l237 288h224l-323 -288h-138zM984 1663v0z" />
    <glyph glyph-name="uhungarumlaut" unicode="&#x171;" 
d="M376 1040l167.997 0.000976562l-154 -723c-30 -141.333 12.667 -212 128 -212c67.333 0 123.333 24.667 168 74s73.334 103.666 86.001 162.999l148 698h168l-182 -857c-10.667 -50.667 -22 -111.667 -34 -183h-173l29 138c-75.333 -106.667 -176.666 -160 -303.999 -160
c-85.333 0 -147.666 22 -186.999 66c-38.667 44.667 -49 109.667 -31 195zM754.997 1190v0zM815.997 0.000976562v0zM225.997 1062v0zM439.997 1190l237 288h224l-323 -288h-138zM807.997 1190l237 288h224l-323 -288h-138zM754.997 1190v0z" />
    <glyph glyph-name="Uogonek" unicode="&#x172;" horiz-adv-x="1251" 
d="M472 1472h193l-203 -956c-30 -140.667 -29.667 -240.667 1 -300c30.667 -58.667 92.334 -88 185.001 -88c95.333 0 171 29 227 87s99.333 158.667 130 302l203 955h193l-199 -934c-42.667 -202 -112.334 -347.333 -209.001 -436s-221 -133 -373 -133
c-158.667 0 -266.667 44.333 -324 133c-58 88.667 -65.667 234 -23 436zM984 1663v0zM732 0v0zM319 1503v0zM648 0h127.002c-144.667 -54 -223.667 -112 -237 -174c-6 -29.333 -2.66699 -53 10 -71c12.667 -17.333 34 -26 64 -26c19.333 0 45 3.33301 77 10
c31.333 7.33301 68 18.333 110 33l-24 -111c-78.667 -30 -154.334 -45 -227.001 -45c-64.667 0 -114.334 16 -149.001 48c-35.333 32.667 -47.333 75.667 -36 129c10.667 50 46 93 106 129c61.333 36.667 121 62.667 179 78zM732.002 0v0z" />
    <glyph glyph-name="uogonek" unicode="&#x173;" 
d="M376 1040l167.997 0.000976562l-154 -723c-30 -141.333 12.667 -212 128 -212c67.333 0 123.333 24.667 168 74s73.334 103.666 86.001 162.999l148 698h168l-182 -857c-10.667 -50.667 -22 -111.667 -34 -183h-173l29 138c-75.333 -106.667 -176.666 -160 -303.999 -160
c-85.333 0 -147.666 22 -186.999 66c-38.667 44.667 -49 109.667 -31 195zM754.997 1190v0zM815.997 0.000976562v0zM225.997 1062v0zM731.997 0.000976562h127.002c-144.667 -54 -223.667 -112 -237 -174c-6 -29.333 -2.66699 -53 10 -71c12.667 -17.333 34 -26 64 -26
c19.333 0 45 3.33301 77 10c31.333 7.33301 68 18.333 110 33l-24 -111c-78.667 -30 -154.334 -45 -227.001 -45c-64.667 0 -114.334 16 -149.001 48c-35.333 32.667 -47.333 75.667 -36 129c10.667 50 46 93 106 129c61.333 36.667 121 62.667 179 78zM815.999 0.000976562
v0z" />
    <glyph glyph-name="Ydieresis" unicode="&#x178;" 
d="M329 1472h211l141 -713v0l452 713h189l-593 -908l-120 -564h-193l120 564zM928 1663v0zM319 1503v0zM705 1892h189l-45 -213h-189zM1054 1892h189l-45 -213h-189zM928 1663v0z" />
    <glyph glyph-name="Zacute" unicode="&#x179;" 
d="M48 0l45 213l952 1095v0h-695l35 164h888l-41 -190l-972 -1118v0h750l-35 -164h-927zM869 1663v0zM319 1503v0zM694 1663l237 288h224l-323 -288h-138zM869 1663v0z" />
    <glyph glyph-name="zacute" unicode="&#x17a;" horiz-adv-x="797" 
d="M71 0l34 158l612 745v0h-430l29 137h616l-33 -154l-618 -749v0h472l-29 -137h-653zM682 1190v0zM226 1062v0zM507 1190l237 288h224l-323 -288h-138zM682 1190v0z" />
    <glyph glyph-name="Zdotaccent" unicode="&#x17b;" 
d="M48 0l45 213l952 1095v0h-695l35 164h888l-41 -190l-972 -1118v0h750l-35 -164h-927zM869 1663v0zM319 1503v0zM819 1892h191l-45 -213h-191zM869 1663v0z" />
    <glyph glyph-name="zdotaccent" unicode="&#x17c;" horiz-adv-x="797" 
d="M71 0l34 158l612 745v0h-430l29 137h616l-33 -154l-618 -749v0h472l-29 -137h-653zM682 1190v0zM226 1062v0zM632 1419h191l-45 -213h-191zM682 1190v0z" />
    <glyph glyph-name="Zcaron" unicode="&#x17d;" 
d="M48 0l45 213l952 1095v0h-695l35 164h888l-41 -190l-972 -1118v0h750l-35 -164h-927zM869 1663v0zM319 1503v0zM1216 1951l-269 -288h-189l-147 288h165l96 -192v0l179 192h165zM869 1663v0z" />
    <glyph glyph-name="zcaron" unicode="&#x17e;" horiz-adv-x="797" 
d="M71 0l34 158l612 745v0h-430l29 137h616l-33 -154l-618 -749v0h472l-29 -137h-653zM682 1190v0zM226 1062v0zM1029 1478l-269 -288h-189l-147 288h165l96 -192v0l179 192h165zM682 1190v0z" />
    <glyph glyph-name="florin" unicode="&#x192;" horiz-adv-x="909" 
d="M-3 -350l53 137c2 -1.33301 5.66699 -2 11 -2h15c70.667 0 120.667 38.333 150 115l332 905v0h-188l51 127h184v0l73 196c79.333 208 204 312 374 312c28.667 0 59 -2.66699 91 -8l-53 -137c-16.667 5.33301 -33 8 -49 8c-90.667 0 -159.667 -63 -207 -189l-69 -182v0
h208l-45 -127h-208v0l-337 -918c-58.667 -159.333 -172.667 -239 -342 -239h-23c-12 0 -19 0.666992 -21 2z" />
    <glyph glyph-name="circumflex" unicode="&#x2c6;" horiz-adv-x="569" 
d="M236 1184l269 288h189l147 -288h-165l-98 192v0l-177 -192h-165zM546 1184v0z" />
    <glyph glyph-name="caron" unicode="&#x2c7;" horiz-adv-x="569" 
d="M902 1472l-269 -288h-189l-147 288h165l96 -192v0l179 192h165zM555 1184v0z" />
    <glyph glyph-name="breve" unicode="&#x2d8;" horiz-adv-x="569" 
d="M809 1473h99.999c-31.333 -89.333 -78.666 -157.333 -141.999 -204c-62.667 -46 -137.667 -69 -225 -69c-200.667 0 -287.667 91 -261 273h100c-2.66699 -106.667 58 -160 182 -160c119.333 0 201.333 53.333 246 160zM535.999 1184v0z" />
    <glyph glyph-name="dotaccent" unicode="&#x2d9;" horiz-adv-x="569" 
d="M492 1413h191l-45 -213h-191zM542 1184v0z" />
    <glyph glyph-name="ring" unicode="&#x2da;" horiz-adv-x="569" 
d="M373 1379c12 57.333 42.667 106.332 92 146.999c50 40.667 104.333 61 163 61c60.667 0 106.667 -20 138 -60c31.333 -39.333 40.333 -89.666 27 -150.999c-12 -58 -43 -107.333 -93 -148c-50 -40 -104 -60 -162 -60s-103.667 18.667 -137 56
c-32.667 37.333 -42 89 -28 155zM458 1377c-8 -35.333 -2.33398 -65.334 16.999 -90.001c19.333 -24 46.666 -36 81.999 -36c34.667 0 66.667 12 96 36c29.333 24.667 48 55 56 91c7.33301 34.667 1.33301 64.334 -18 89.001s-46.333 37 -81 37
c-35.333 0 -67.666 -12.333 -96.999 -37s-47.666 -54.667 -54.999 -90zM543.999 1184v0z" />
    <glyph glyph-name="ogonek" unicode="&#x2db;" horiz-adv-x="569" 
d="M305 0h127.002c-144.667 -54 -223.667 -112 -237 -174c-6 -29.333 -2.66699 -53 10 -71c12.667 -17.333 34 -26 64 -26c19.333 0 45 3.33301 77 10c31.333 7.33301 68 18.333 110 33l-24 -111c-78.667 -30 -154.334 -45 -227.001 -45c-64.667 0 -114.334 16 -149.001 48
c-35.333 32.667 -47.333 75.667 -36 129c10.667 50 46 93 106 129c61.333 36.667 121 62.667 179 78zM389.002 0v0z" />
    <glyph glyph-name="tilde" unicode="&#x2dc;" horiz-adv-x="569" 
d="M186 1178c25.333 72.667 59.001 127.333 101.001 164c42.667 36.667 95.667 55 159 55c38.667 0 86.334 -12.667 143.001 -38c57.333 -25.333 99.666 -38 126.999 -38c32 0 57.667 8 77 24c19.333 16.667 33.666 39.667 42.999 69h103
c-18.667 -63.333 -52.334 -116.333 -101.001 -159c-49.333 -42.667 -102 -64 -158 -64c-33.333 0 -81.666 12.667 -144.999 38s-109.333 38 -138 38c-25.333 0 -49 -9 -71 -27c-22.667 -18 -38 -38.667 -46 -62h-94zM542.001 1184v0z" />
    <glyph glyph-name="hungarumlaut" unicode="&#x2dd;" horiz-adv-x="909" 
d="M332 1184l237 288h224l-323 -288h-138zM700 1184l237 288h224l-323 -288h-138zM647 1184v0z" />
    <glyph glyph-name="endash" unicode="&#x2013;" 
d="M130 612h1024l-24 -113h-1024z" />
    <glyph glyph-name="emdash" unicode="&#x2014;" horiz-adv-x="2048" 
d="M130 612h2048l-24 -113h-2048z" />
    <glyph glyph-name="quoteleft" unicode="&#x2018;" horiz-adv-x="455" 
d="M681 1472l-166 -400h-223l248 400h141z" />
    <glyph glyph-name="quoteright" unicode="&#x2019;" horiz-adv-x="455" 
d="M292 1072l166 400h223l-248 -400h-141z" />
    <glyph glyph-name="quotesinglbase" unicode="&#x201a;" horiz-adv-x="455" 
d="M42 -224l166 400h223l-248 -400h-141z" />
    <glyph glyph-name="quotedblleft" unicode="&#x201c;" horiz-adv-x="909" 
d="M1082 1472l-166 -400h-223l248 400h141zM746 1472l-166 -400h-223l248 400h141z" />
    <glyph glyph-name="quotedblright" unicode="&#x201d;" horiz-adv-x="909" 
d="M357 1072l166 400h223l-248 -400h-141zM693 1072l166 400h223l-248 -400h-141z" />
    <glyph glyph-name="quotedblbase" unicode="&#x201e;" horiz-adv-x="909" 
d="M97 -224l166 400h223l-248 -400h-141zM433 -224l166 400h223l-248 -400h-141z" />
    <glyph glyph-name="dagger" unicode="&#x2020;" horiz-adv-x="909" 
d="M329 1168h288l65 304h168l-65 -304h288l-29 -136h-288l-219 -1032h-168l219 1032h-288z" />
    <glyph glyph-name="daggerdbl" unicode="&#x2021;" horiz-adv-x="909" 
d="M328 1168h288l65 304h168l-65 -304h288l-29 -136h-288l-125 -589h288l-29 -136h-288l-64 -304h-168l64 304h-288l29 136h288l125 589h-288z" />
    <glyph glyph-name="bullet" unicode="&#x2022;" horiz-adv-x="682" 
d="M186 739c18 84.667 64 157.667 138 219c73.333 62 153.333 93 240 93c84.667 0 151.334 -31 200.001 -93c48.667 -61.333 64 -134.333 46 -219c-18.667 -86.667 -65.334 -160.334 -140.001 -221.001c-74 -60.667 -153.333 -91 -238 -91c-86.667 0 -154 30.333 -202 91
s-62.667 134.334 -44 221.001z" />
    <glyph glyph-name="ellipsis" unicode="&#x2026;" horiz-adv-x="2048" 
d="M292 213h193l-45 -213h-193zM980 213h193l-45 -213h-193zM1623 0l45 213h193l-45 -213h-193z" />
    <glyph glyph-name="perthousand" unicode="&#x2030;" horiz-adv-x="1821" 
d="M178 -74l1051 1632h128l-1051 -1632h-128zM793 343c26.667 126.667 61.334 216.667 104.001 270c44 54 111.667 81 203 81c85.333 0 140 -25 164 -75c24 -49.333 22 -140.333 -6 -273c-32 -150 -73.333 -250.333 -124 -301c-50 -50 -112 -75 -186 -75
c-80.667 0 -134.667 25.667 -162 77c-26.667 51.333 -24.334 150 6.99902 296zM915 316c-17.333 -83.333 -21.334 -143 -12.001 -179c10.667 -35.333 34.334 -53 71.001 -53c33.333 0 62 17 86 51c24 34.667 45 95 63 181c24 112 33 183.667 27 215s-29.667 47 -71 47
c-40 0 -71.333 -15.333 -94 -46s-46 -102.667 -70 -216zM1382 343c27.333 129.333 63.001 220 107.001 272c44 52.667 110.667 79 200 79c85.333 0 140 -25 164 -75c24 -49.333 22 -140.333 -6 -273c-32 -150 -74.667 -252 -128 -306c-47.333 -46.667 -108 -70 -182 -70
c-80.667 0 -134.667 25.667 -162 77c-26.667 51.333 -24.334 150 6.99902 296zM1504 316c-16 -74.667 -20.001 -132 -12.001 -172c7.33301 -40 31 -60 71 -60c35.333 0 64.666 19.333 87.999 58c24.667 38.667 45 96.667 61 174c22.667 106.667 31.334 177 26.001 211
s-28.666 51 -69.999 51c-42.667 0 -75 -17 -97 -51s-44.333 -104.333 -67 -211zM293.999 1155c26 124.667 60.6699 214.333 104.003 269s110.666 82 201.999 82c85.333 0 140 -25 164 -75c24 -49.333 22 -140.333 -6 -273c-32 -150 -73.333 -250.333 -124 -301
c-50 -50 -112 -75 -186 -75c-80.667 0 -134.334 25.667 -161.001 77s-24.334 150 6.99902 296zM416.002 1128c-18.667 -87.333 -22.334 -147.999 -11.001 -181.999c11.333 -33.333 34.333 -50 69 -50c30.667 0 58.667 16.333 84 49c24.667 33.333 46.667 94.333 66 183
c25.333 119.333 33 192.666 23 219.999c-10 28 -32.667 42 -68 42c-38 0 -69 -15.667 -93 -47c-23.333 -31.333 -46.666 -103 -69.999 -215z" />
    <glyph glyph-name="guilsinglleft" unicode="&#x2039;" horiz-adv-x="455" 
d="M94 558l278 400h159l-253 -397l83 -403h-156z" />
    <glyph glyph-name="guilsinglright" unicode="&#x203a;" horiz-adv-x="455" 
d="M531 558l-278 -400h-159l253 397l-83 403h156z" />
    <glyph glyph-name="foursuperior" unicode="&#x2074;" horiz-adv-x="545" 
d="M171 879l378 545h202l-114 -534h109l-24 -115h-109l-43 -199h-143l43 199h-321zM304 890h190l88 415v0z" />
    <glyph glyph-name="Euro" unicode="&#x20ac;" horiz-adv-x="909" 
d="M553 903h336.002l-70 -131h-294l-24 -112v0h256l-70 -131h-214l-23 -109c-25.333 -120 -27 -199 -5 -237c22.667 -37.333 64.334 -56 125.001 -56c60 0 105.333 19.333 136 58c31.333 38.667 56.666 104.667 75.999 198h188c-16.667 -80 -32 -137.667 -46 -173
c-30.667 -73.333 -77 -131.666 -139 -174.999c-60.667 -43.333 -150 -65 -268 -65c-126 0 -209.333 32.667 -250 98c-39.333 65.333 -43.333 171.666 -12 318.999l30 142h-152l67 131h113v0l24 112h-152l67 131h113l12 55c37.333 176.667 91 302 161 376
c69.333 74.667 172.333 112 309 112c123.333 0 205.333 -24.667 246 -74c40 -48.667 49.333 -127.667 28 -237l-11 -54h-188l7 35c13.333 63.333 12.666 108 -2.00098 134c-15.333 26 -53.666 39 -114.999 39c-58.667 0 -106.334 -16.333 -143.001 -49
c-36.667 -32 -69.334 -116.333 -98.001 -253z" />
    <glyph glyph-name="trademark" unicode="&#x2122;" horiz-adv-x="1690" 
d="M366 592l162 765h-244l25 115h631l-25 -115h-244l-162 -765h-143zM856 592l187 880h226l85 -660v0l352 660h222l-187 -880h-143l150 705l-391 -705h-117l-91 708l-150 -708h-143z" />
    <glyph glyph-name="partialdiff" unicode="&#x2202;" horiz-adv-x="1012" 
d="M914 690c32.667 80 57.667 161 75 243c32 149.333 26.667 271.333 -16 366c-42 94.667 -117.667 142 -227 142c-70.667 0 -152 -23.333 -244 -70l-57 103c104.667 38.667 198.334 58 281.001 58c166.667 0 285 -69 355 -207c70.667 -138 84.667 -307.333 42 -508
c-48.667 -229.333 -135.667 -430.333 -261 -603c-124.667 -172.667 -268.334 -259 -431.001 -259c-109.333 0 -193 38.667 -251 116c-58 78 -75.333 172.333 -52 283c26 122 87.667 231.667 185 329s202.333 146 315 146s208 -46.333 286 -139zM883 617
c-46 88.667 -110.334 133 -193.001 133c-78 0 -156.667 -42 -236 -126c-79.333 -83.333 -133.333 -192 -162 -326c-21.333 -100 -18.666 -172 8.00098 -216c28 -43.333 67 -65 117 -65c84.667 0 165.667 48 243 144c78.667 96 153 248 223 456z" />
    <glyph glyph-name="Delta" unicode="&#x2206;" horiz-adv-x="1253" 
d="M11 0l955 1407l277 -1407h-1232zM166 100h845v0l-196 955z" />
    <glyph glyph-name="summation" unicode="&#x2211;" horiz-adv-x="1460" 
d="M-14 -203l888.001 822.001l-515 932c102 -12.667 171.333 -19 208 -19h1023l-55 -320h-40c-4.66699 92 -25.667 153 -63 183s-105.333 45 -204 45h-543v0l406 -735l-746 -697v0h752c72 0 130.333 14 175 42s95 89.667 151 185h48c-74 -148 -135.333 -298.333 -184 -451
c-24.667 5.33301 -55.334 9.66602 -92.001 12.999c-36 4 -63.333 6 -82 6h-1007c-26.667 0 -66.667 -2 -120 -6z" />
    <glyph glyph-name="minus" unicode="&#x2212;" 
d="M192 453l27 127h848l-27 -127h-848z" />
    <glyph glyph-name="fraction" unicode="&#x2215;" horiz-adv-x="342" 
d="M-347 -52l1222 1535h128l-1222 -1535h-128z" />
    <glyph glyph-name="radical" unicode="&#x221a;" horiz-adv-x="1124" 
d="M1390 1886l69 -10l-724 -1949l-281 1025l-217 -93l-20 67l332 147l231 -824z" />
    <glyph glyph-name="notequal" unicode="&#x2260;" 
d="M254 787h472v0l136 224v0h127l-136 -224v0h249l-27 -127h-299v0l-165 -272v0h406l-27 -127h-454v0l-137 -224v0h-127l137 224v0h-267l27 127h315v0l164 272v0h-421z" />
    <glyph glyph-name="lessequal" unicode="&#x2264;" 
d="M1217 1335l-32 -149l-773 -396l605 -397l-32 -149l-746 480l28 131zM960 127l-27 -127h-848l27 127h848z" />
    <glyph glyph-name="greaterequal" unicode="&#x2265;" 
d="M964 127l-27 -127h-848l27 127h848zM1119 855l-28 -131l-950 -480l32 149l773 397l-605 396l32 149z" />
    <glyph glyph-name="lozenge" unicode="&#x25ca;" horiz-adv-x="1012" 
d="M890 1520l241 -748l-564 -772h-128l-236 772l559 748h128zM803 1412l-472 -642l195 -662l477 662z" />
    <glyph glyph-name="unif001" unicode="&#xf001;" 
d="M240 1040h160l37 175c19.333 90 56 155.333 110 196c54.667 40.667 137.334 61 248.001 61c24 0 48 -2 72 -6l-27 -123c-2.66699 1.33301 -15.334 2 -38.001 2c-112.667 0 -178.667 -45 -198 -135l-36 -170h208l-27 -127h-208l-194 -913h-168l194 913h-160zM928 1040h168
l-221 -1040h-168zM1013 1493h190l-38 -181h-190z" />
    <glyph glyph-name="unif002" unicode="&#xf002;" 
d="M240 1040h160l37 175c19.333 90 56 155.333 110 196c54.667 40.667 137.334 61 248.001 61c24 0 48 -2 72 -6l-27 -123c-2.66699 1.33301 -15.334 2 -38.001 2c-112.667 0 -178.667 -45 -198 -135l-36 -170h208l-27 -127h-208l-194 -913h-168l194 913h-160zM707 0
l313 1472h168l-313 -1472h-168z" />
    <glyph glyph-name="unif151" unicode="&#xf151;" horiz-adv-x="455" 
d="M408 1286l40 185.999h189l-40 -187c-30.667 -145.333 -112.667 -235.666 -246 -270.999l17 83c72 12 120 75 144 189h-104z" />
    <glyph glyph-name="commaaccent" unicode="&#xf170;" horiz-adv-x="455" 
d="M76 -320l34 160h144l-33 -155c-26 -124 -90.333 -200.333 -193 -229l15 67c50.667 10.667 86 63 106 157h-73zM214 0v0z" />
    <glyph glyph-name="unif171" unicode="&#xf171;" horiz-adv-x="455" 
d="M574 1344l-34 -160.001h-144l32 154c26.667 124 91 200.667 193 230l-15 -70c-50.667 -11.333 -85.667 -62.666 -105 -153.999h73zM484 1184v0z" />
    <glyph glyph-name="Scommaaccent" unicode="&#xf24d;" horiz-adv-x="1139" 
d="M220 433l193.002 0.00195312l-11 -52c-16 -76 -6.66699 -136.333 28 -181c34 -44.667 94 -67 180 -67c74 0 138.333 20 193 60s90 98.333 106 175c13.333 61.333 1.66602 114 -35.001 158c-36 44 -105.667 94.667 -209 152c-126 72.667 -207.333 140 -244 202
c-36 62.667 -44.667 137.334 -26 224.001c25.333 119.333 84 215.666 176 288.999s207 110 345 110c136.667 0 232.334 -33.333 287.001 -100s69.667 -158.334 45 -275.001l-12 -57h-193v0c38 178.667 -19.333 268 -172 268c-72.667 0 -134 -19.333 -184 -58
c-49.333 -38.667 -81 -90.667 -95 -156c-14.667 -68.667 3.66602 -129.334 54.999 -182.001c32 -33.333 100.333 -79.333 205 -138c105.333 -58.667 177 -118.334 215 -179.001c44.667 -72 57 -155.667 37 -251c-58 -270.667 -244.667 -406 -560 -406
c-134.667 0 -231.334 35 -290.001 105c-58.667 70.667 -73.667 172.334 -45 305.001zM962.002 1663v0zM561.002 0.00195312v0zM423.002 -319.998l34 160h144l-33 -155c-26 -124 -90.333 -200.333 -193 -229l15 67c50.667 10.667 86 63 106 157h-73zM561.002 0.00195312v0z
" />
    <glyph glyph-name="scommaaccent" unicode="&#xf24e;" horiz-adv-x="909" 
d="M171 314l192.002 0.00292969v0c-28.667 -132.667 12 -199 122 -199c58 0 105 12.333 141 37c36 25.333 59.667 64.666 71 117.999c8 37.333 -2.33301 69 -31 95c-29.333 26.667 -75.333 55.667 -138 87c-88 44 -153 90.667 -195 140c-42 50 -55.667 109.667 -41 179
c19.333 91.333 66 162.666 140 213.999c74.667 51.333 168 77 280 77c104.667 0 180 -22.667 226 -68c46.667 -44.667 63.334 -99 50.001 -163l-12 -57h-192v0c22.667 107.333 -17.333 161 -120 161c-46.667 0 -87.334 -12.667 -122.001 -38s-56.667 -60 -66 -104
c-8.66699 -40 9.66602 -75.667 54.999 -107c45.333 -30.667 91.666 -57.334 138.999 -80.001c79.333 -41.333 138.333 -85.333 177 -132s50.667 -104.667 36 -174c-46 -214.667 -188.333 -322 -427 -322c-238 0 -333 112 -285 336v0zM760.002 1190v0zM446.002 0.00292969v0z
M308.002 -319.997l34 160h144l-33 -155c-26 -124 -90.333 -200.333 -193 -229l15 67c50.667 10.667 86 63 106 157h-73zM446.002 0.00292969v0z" />
    <glyph glyph-name="fi" unicode="&#xfb01;" 
d="M240 1040h160l37 175c19.333 90 56 155.333 110 196c54.667 40.667 137.334 61 248.001 61c24 0 48 -2 72 -6l-27 -123c-2.66699 1.33301 -15.334 2 -38.001 2c-112.667 0 -178.667 -45 -198 -135l-36 -170h208l-27 -127h-208l-194 -913h-168l194 913h-160zM928 1040h168
l-221 -1040h-168zM1013 1493h190l-38 -181h-190z" />
    <glyph glyph-name="fl" unicode="&#xfb02;" 
d="M240 1040h160l37 175c19.333 90 56 155.333 110 196c54.667 40.667 137.334 61 248.001 61c24 0 48 -2 72 -6l-27 -123c-2.66699 1.33301 -15.334 2 -38.001 2c-112.667 0 -178.667 -45 -198 -135l-36 -170h208l-27 -127h-208l-194 -913h-168l194 913h-160zM707 0
l313 1472h168l-313 -1472h-168z" />
    <glyph glyph-name=".null" horiz-adv-x="0" 
 />
    <glyph glyph-name="nonmarkingreturn" horiz-adv-x="455" 
 />
  </font>
</defs>
</svg>
