<?xml version="1.0" encoding="UTF-8" standalone="no"?>
<!DOCTYPE svg PUBLIC "-//W3C//DTD SVG 1.1//EN"
"http://www.w3.org/Graphics/SVG/1.1/DTD/svg11.dtd">


<!-- Page 1 -->
<svg x="0" y="0" width="485" height="177" viewBox="0 0 485 177" version="1.1" xmlns="http://www.w3.org/2000/svg" xmlns:xlink="http://www.w3.org/1999/xlink"
style="display: block;margin-left: auto;margin-right: auto;">
<defs>
<clipPath id="c0_1"><path d="M0,177.7V0H485.1V177.7Z" /></clipPath>

<style type="text/css"><![CDATA[

.g0_1{
fill: none;
stroke: #0000FF;
stroke-width: 1.5247222;
stroke-linecap: butt;
stroke-linejoin: miter;
stroke-miterlimit: 4;
}
.g1_1{
fill: none;
stroke: #FF0000;
stroke-width: 1.5247222;
stroke-linecap: butt;
stroke-linejoin: miter;
stroke-miterlimit: 4;
}

]]></style>

</defs>
<path d="M0,0
L0,177
L485,177
L485,0 Z " 
fill="#FFFFFF" stroke="none" />
<g clip-path="url(#c0_1)">
<path d="M.4,83.3L.6,77.8L.8,72.3c.5,-14.7,1,-29.4,1.6,-44l.2,-3.9l.2,-3.7C3.3,14.4,3.4,7.2,4.5,1.1L4.7,.6L4.9,.4l.2,.2l.2,.5C8.4,28.3,8,55.9,9.4,83.3l.2,5.5l.2,5.6c1.3,27.4,1,55,4.1,82.2l.2,.5l.2,.2l.1,-.2l.2,-.5c3.1,-27.2,2.8,-54.8,4.2,-82.2l.3,-11.1c1.4,-27.4,1,-55,4.1,-82.2l.2,-.5l.2,-.2l.2,.2l.2,.5c3.1,27.2,2.8,54.8,4.1,82.2l.2,5.5l.2,5.6c1.3,27.4,1,55,4.1,82.2l.2,.5l.2,.2l.2,-.2l.2,-.5c3.1,-27.2,2.7,-54.8,4.1,-82.2l.4,-11.1c1.3,-27.4,1,-55,4.1,-82.2l.2,-.5l.2,-.2l.2,.2l.1,.5c3.1,27.2,2.8,54.8,4.2,82.2l.2,5.5l.1,5.6l.2,5.5c.5,15.1,1.1,30.2,1.7,45.3l.2,4.2l.2,3.9c.4,7.4,.6,15.2,1.7,22.4l.2,.9l.2,.5l.1,.2l.2,-.2l.2,-.5c3.1,-27.2,2.8,-54.8,4.1,-82.2l.4,-11.1c1.4,-27.4,1,-55,4.1,-82.2l.2,-.5l.2,-.2l.2,.2l.2,.5c3.1,27.2,2.8,54.8,4.1,82.2l.2,5.5l.2,5.6c1.3,27.4,1,55,4.1,82.2l.2,.5l.2,.2l.2,-.2l.2,-.5l.1,-.9c1.1,-7.2,1.3,-15,1.7,-22.4l.2,-3.9l.2,-4.2c.7,-15.1,1.2,-30.2,1.7,-45.3L75,94.4l.2,-5.6l.2,-5.5c1.3,-27.4,1,-55,4.1,-82.2l.2,-.5l.2,-.2L80,.6l.2,.5c3.1,27.2,2.8,54.8,4.2,82.2l.3,11.1c1.4,27.4,1,55,4.1,82.2l.2,.5l.2,.2l.2,-.2l.2,-.5l.2,-.9c1,-7.2,1.2,-15,1.7,-22.4l.2,-3.9l.1,-4.2C92.5,130.1,93,115,93.5,99.9l.2,-5.5l.2,-5.6l.2,-5.5c1.3,-27.4,1,-55,4.1,-82.2l.2,-.5l.2,-.2l.2,.2l.2,.5c3.1,27.2,2.7,54.8,4.1,82.2l.4,11.1c1.3,27.4,1,55,4.1,82.2l.2,.5l.2,.2l.2,-.2l.1,-.5c3.1,-27.2,2.8,-54.8,4.2,-82.2l.2,-5.6l.1,-5.5l.2,-5.5c.5,-15.1,1.1,-30.2,1.7,-45.3l.2,-4.2l.2,-3.9c.4,-7.4,.6,-15.2,1.7,-22.5l.2,-.8l.2,-.5l.1,-.2l.2,.2l.2,.5c3.1,27.2,2.8,54.8,4.1,82.2l.4,11.1c1.4,27.4,1,55,4.1,82.2l.2,.5l.2,.2l.2,-.2l.2,-.5c3.1,-27.2,2.8,-54.8,4.1,-82.2l.2,-5.6l.2,-5.5c1.3,-27.4,1,-55,4.1,-82.2l.2,-.5l.2,-.2l.2,.2l.2,.5l.1,.8c1.1,7.3,1.3,15.1,1.7,22.5l.2,3.9l.2,4.2c.7,15.1,1.2,30.2,1.7,45.3l.2,5.5l.2,5.5l.2,5.6c1.3,27.4,1,55,4.1,82.2l.2,.5l.2,.2l.1,-.2l.2,-.5c3.1,-27.2,2.8,-54.8,4.2,-82.2l.3,-11.1c1.4,-27.4,1,-55,4.1,-82.2l.2,-.5l.2,-.2l.2,.2l.2,.5l.2,.8c1,7.3,1.2,15.1,1.7,22.5l.2,3.9l.1,4.2c.7,15.1,1.2,30.2,1.7,45.3l.2,5.5l.2,5.5l.2,5.6l.2,5.5c.5,15.1,1,30.2,1.7,45.3l.2,4.2l.1,3.9c.5,7.4,.7,15.2,1.7,22.4l.2,.9l.2,.5l.2,.2l.2,-.2l.2,-.5c3.1,-27.2,2.7,-54.8,4.1,-82.2l.2,-5.6l.2,-5.5c1.3,-27.4,1,-55,4.1,-82.2l.2,-.5l.2,-.2l.2,.2l.1,.5c3.1,27.2,2.8,54.8,4.2,82.2l.2,5.5l.1,5.6l.2,5.5c.5,15.1,1.1,30.2,1.7,45.3l.2,4.2l.2,3.9c.4,7.4,.6,15.2,1.7,22.4l.2,.9l.2,.5l.1,.2l.2,-.2l.2,-.5c3.1,-27.2,2.8,-54.8,4.1,-82.2l.2,-5.6l.2,-5.5c1.4,-27.4,1,-55,4.1,-82.2l.2,-.5l.2,-.2l.2,.2l.2,.5c3.1,27.2,2.8,54.8,4.1,82.2l.2,5.5l.2,5.6c1.3,27.4,1,55,4.1,82.2l.2,.5l.2,.2l.2,-.2l.2,-.5l.1,-.9c1.1,-7.2,1.3,-15,1.7,-22.4l.2,-3.9l.2,-4.2C205,130.1,205.5,115,206,99.9l.2,-5.5l.2,-5.6l.2,-5.5c1.3,-27.4,1,-55,4.1,-82.2l.2,-.5l.2,-.2l.1,.2l.2,.5c3.1,27.2,2.8,54.8,4.2,82.2l.3,11.1c1.4,27.4,1,55,4.2,82.2l.1,.5l.2,.2l.2,-.2l.2,-.5l.2,-.9c1,-7.2,1.2,-15,1.7,-22.4l.2,-3.9l.1,-4.2c.7,-15.1,1.2,-30.2,1.7,-45.3l.2,-5.5l.2,-5.6l.2,-5.5c1.3,-27.4,1,-55,4.1,-82.2l.2,-.5l.2,-.2l.2,.2l.2,.5c3.1,27.2,2.7,54.8,4.1,82.2l.2,5.5l.2,5.6c1.3,27.4,1,55,4.1,82.2l.2,.5l.2,.2l.2,-.2l.1,-.5c3.1,-27.2,2.8,-54.8,4.2,-82.2l.2,-5.6l.1,-5.5l.2,-5.5c.5,-15.1,1.1,-30.2,1.7,-45.3l.2,-4.2l.2,-3.9C246.7,17,246.9,9.2,248,1.9l.2,-.8l.2,-.5l.1,-.2l.2,.2l.2,.5c3.1,27.2,2.8,54.8,4.1,82.2l.4,11.1c1.4,27.4,1,55,4.1,82.2l.2,.5l.2,.2l.2,-.2l.2,-.5c3.1,-27.2,2.8,-54.8,4.1,-82.2l.2,-5.6l.2,-5.5c1.3,-27.4,1,-55,4.1,-82.2l.2,-.5l.2,-.2l.2,.2l.2,.5l.1,.8c1.1,7.3,1.3,15.1,1.7,22.5l.2,3.9l.2,4.2c.7,15.1,1.2,30.2,1.7,45.3l.2,5.5l.2,5.5l.2,5.6c1.3,27.4,1,55,4.1,82.2l.2,.5l.2,.2l.1,-.2l.2,-.5c3.1,-27.2,2.8,-54.8,4.2,-82.2l.1,-5.6l.2,-5.5c1.4,-27.4,1,-55,4.2,-82.2l.1,-.5L286,.4l.2,.2l.2,.5l.2,.8c1,7.3,1.2,15.1,1.7,22.5l.2,3.9l.1,4.2c.7,15.1,1.2,30.2,1.7,45.3l.2,5.5l.2,5.5l.2,5.6c1.4,27.4,1,55,4.1,82.2l.2,.5l.2,.2l.2,-.2l.2,-.5c3.1,-27.2,2.7,-54.8,4.1,-82.2l.2,-5.6l.2,-5.5c1.3,-27.4,1,-55,4.1,-82.2l.2,-.5l.2,-.2l.2,.2l.1,.5c3.1,27.2,2.8,54.8,4.2,82.2l.2,5.5l.1,5.6l.2,5.5c.5,15.1,1.1,30.2,1.7,45.3l.2,4.2l.2,3.9c.4,7.4,.6,15.2,1.7,22.4l.2,.9l.2,.5l.1,.2l.2,-.2l.2,-.5c3.1,-27.2,2.8,-54.8,4.1,-82.2L319,83.3c1.4,-27.4,1,-55,4.1,-82.2l.2,-.5l.2,-.2l.2,.2l.2,.5c3.1,27.2,2.8,54.8,4.1,82.2l.4,11.1c1.3,27.4,1,55,4.1,82.2l.2,.5l.2,.2l.2,-.2l.2,-.5l.1,-.9c1.1,-7.2,1.3,-15,1.7,-22.4l.2,-3.9l.2,-4.2c.7,-15.1,1.2,-30.2,1.7,-45.3l.2,-5.5l.2,-5.6l.2,-5.5c1.3,-27.4,1,-55,4.1,-82.2l.2,-.5l.2,-.2l.1,.2l.2,.5c3.1,27.2,2.8,54.8,4.2,82.2l.3,11.1c1.4,27.4,1,55,4.2,82.2l.1,.5l.2,.2l.2,-.2l.2,-.5l.2,-.9c1,-7.2,1.2,-15,1.7,-22.4l.2,-3.9l.2,-4.2c.6,-15.1,1.1,-30.2,1.6,-45.3l.2,-5.5l.2,-5.6l.2,-5.5c1.3,-27.4,1,-55,4.1,-82.2l.2,-.5L361,.4l.2,.2l.2,.5c3.1,27.2,2.7,54.8,4.1,82.2l.2,5.5l.2,5.6c1.3,27.4,1,55,4.1,82.2l.2,.5l.2,.2l.2,-.2l.1,-.5c3.1,-27.2,2.8,-54.8,4.2,-82.2l.2,-5.6l.1,-5.5l.2,-5.5c.5,-15.1,1.1,-30.2,1.7,-45.3l.2,-4.2l.2,-3.9c.4,-7.4,.6,-15.2,1.7,-22.5l.2,-.8l.2,-.5l.1,-.2l.2,.2l.2,.5c3.1,27.2,2.8,54.8,4.1,82.2l.4,11.1c1.4,27.4,1,55,4.1,82.2l.2,.5l.2,.2l.2,-.2l.2,-.5c3.1,-27.2,2.8,-54.8,4.1,-82.2l.2,-5.6l.2,-5.5l.2,-5.5c.5,-15.1,1,-30.2,1.7,-45.3l.1,-4.2l.2,-3.9c.5,-7.4,.7,-15.2,1.7,-22.5l.2,-.8l.2,-.5l.2,-.2l.2,.2l.2,.5l.1,.8c1.1,7.3,1.3,15.1,1.7,22.5l.2,3.9l.2,4.2c.7,15.1,1.2,30.2,1.7,45.3l.2,5.5l.2,5.5l.2,5.6c1.3,27.4,1,55,4.1,82.2l.2,.5l.2,.2l.1,-.2l.2,-.5c3.1,-27.2,2.8,-54.8,4.2,-82.2l.1,-5.6l.2,-5.5c1.4,-27.4,1,-55,4.2,-82.2L417,.6l.2,-.2l.2,.2l.2,.5l.2,.8c1,7.3,1.2,15.1,1.7,22.5l.2,3.9l.2,4.2c.6,15.1,1.1,30.2,1.6,45.3l.2,5.5l.2,5.5l.2,5.6l.2,5.5c.5,15.1,1,30.2,1.7,45.3l.2,4.2l.1,3.9c.5,7.4,.7,15.2,1.7,22.4l.2,.9l.2,.5l.2,.2l.2,-.2l.2,-.5c3.1,-27.2,2.7,-54.8,4.1,-82.2l.4,-11.1c1.3,-27.4,1,-55,4.1,-82.2l.2,-.5L436,.4l.2,.2l.1,.5c3.2,27.2,2.8,54.8,4.2,82.2l.2,5.5l.1,5.6l.2,5.5c.5,15.1,1.1,30.2,1.7,45.3l.2,4.2l.2,3.9c.4,7.4,.6,15.2,1.7,22.4l.2,.9l.2,.5l.1,.2l.2,-.2l.2,-.5c3.1,-27.2,2.8,-54.8,4.1,-82.2l.4,-11.1c1.4,-27.4,1,-55,4.1,-82.2l.2,-.5l.2,-.2l.2,.2l.2,.5c3.1,27.2,2.8,54.8,4.1,82.2l.2,5.5l.2,5.6l.2,5.5c.5,15.1,1,30.2,1.7,45.3l.1,4.2l.2,3.9c.5,7.4,.7,15.2,1.7,22.4l.2,.9l.2,.5l.2,.2l.2,-.2l.2,-.5c3.1,-27.2,2.7,-54.8,4.1,-82.2l.2,-5.6l.2,-5.5c1.3,-27.4,1,-55,4.1,-82.2l.2,-.5l.2,-.2l.1,.2l.2,.5c3.1,27.2,2.8,54.8,4.2,82.2l.1,5.5l.2,5.6c1.4,27.4,1,55,4.2,82.2l.1,.5l.2,.2l.2,-.2l.2,-.5l.2,-.9c1,-7.2,1.2,-15,1.7,-22.4l.2,-3.9l.2,-4.2c.6,-15.1,1.1,-30.2,1.6,-45.3l.2,-5.5l.2,-5.6l.2,-5.5c1.4,-27.4,1,-55,4.1,-82.2L492,.6l.2,-.2l.2,.2l.2,.5c3.1,27.2,2.7,54.8,4.1,82.2l.4,11.1c1.3,27.4,1,55,4.1,82.2l.2,.5l.2,.2l.2,-.2l.1,-.5c3.2,-27.2,2.8,-54.8,4.2,-82.2l.2,-5.6l.1,-5.5l.2,-5.5c.5,-15.1,1.1,-30.2,1.7,-45.3l.2,-4.2l.2,-3.9c.4,-7.4,.6,-15.2,1.7,-22.5l.2,-.8l.2,-.5l.1,-.2l.2,.2l.2,.5c3.1,27.2,2.8,54.8,4.1,82.2l.2,5.5l.2,5.6c1.4,27.4,1,55,4.1,82.2l.2,.5l.2,.2l.2,-.2l.2,-.5c3.1,-27.2,2.8,-54.8,4.1,-82.2l.2,-5.6l.2,-5.5c1.3,-27.4,1,-55,4.1,-82.2l.2,-.5l.2,-.2l.2,.2l.2,.5c3.1,27.2,2.7,54.8,4.1,82.2l.2,5.5l.2,5.6c1.3,27.4,1,55,4.1,82.2l.2,.5l.2,.2l.1,-.2l.2,-.5c3.1,-27.2,2.8,-54.8,4.2,-82.2l.3,-11.1c1.4,-27.4,1.1,-55,4.2,-82.2l.1,-.5l.2,-.2l.2,.2l.2,.5l.2,.8c1,7.3,1.2,15.1,1.7,22.5l.2,3.9l.2,4.2c.6,15.1,1.1,30.2,1.6,45.3l.2,5.5l.2,5.5l.2,5.6c1.4,27.4,1,55,4.1,82.2l.2,.5l.2,.2l.2,-.2l.2,-.5c1.1,-6.1,1.2,-13.3,1.7,-19.6l.1,-3.7l.2,-3.9c.8,-16.5,1.3,-33,1.9,-49.5l.2,-5.5l.2,-5.6" class="g0_1" />
<path d="M.4,94.4l.2,5.5l.2,5.5c.5,14.7,1,29.3,1.6,44l.2,3.9l.2,3.7c.5,6.3,.6,13.5,1.7,19.6l.2,.5l.2,.2l.2,-.2l.2,-.5C8.4,149.4,8,121.8,9.4,94.4l.2,-5.6l.2,-5.5c1.3,-27.4,1,-55,4.1,-82.2l.2,-.5l.2,-.2l.1,.2l.2,.5c3.1,27.2,2.8,54.8,4.2,82.2l.3,11.1c1.4,27.4,1,55,4.1,82.2l.2,.5l.2,.2l.2,-.2l.2,-.5c3.1,-27.2,2.8,-54.8,4.1,-82.2l.2,-5.6l.2,-5.5c1.3,-27.4,1,-55,4.1,-82.2l.2,-.5L33,.4l.2,.2l.2,.5c3.1,27.2,2.7,54.8,4.1,82.2l.4,11.1c1.3,27.4,1,55,4.1,82.2l.2,.5l.2,.2l.2,-.2l.1,-.5c3.1,-27.2,2.8,-54.8,4.2,-82.2l.2,-5.6l.1,-5.5l.2,-5.5c.5,-15.1,1.1,-30.2,1.7,-45.3l.2,-4.2l.2,-3.9C49.9,17,50.1,9.2,51.2,1.9l.2,-.8l.2,-.5l.1,-.2l.2,.2l.2,.5c3.1,27.2,2.8,54.8,4.1,82.2l.4,11.1c1.4,27.4,1,55,4.1,82.2l.2,.5l.2,.2l.2,-.2l.2,-.5c3.1,-27.2,2.8,-54.8,4.1,-82.2l.2,-5.6L66,83.3c1.3,-27.4,1,-55,4.1,-82.2l.2,-.5l.2,-.2l.2,.2l.2,.5l.1,.8c1.1,7.3,1.3,15.1,1.7,22.5l.2,3.9l.2,4.2c.7,15.1,1.2,30.2,1.7,45.3l.2,5.5l.2,5.5l.2,5.6c1.3,27.4,1,55,4.1,82.2l.2,.5l.2,.2l.1,-.2l.2,-.5C83.3,149.4,83,121.8,84.4,94.4l.3,-11.1c1.4,-27.4,1,-55,4.1,-82.2L89,.6l.2,-.2l.2,.2l.2,.5l.2,.8c1,7.3,1.2,15.1,1.7,22.5l.2,3.9l.1,4.2c.7,15.1,1.2,30.2,1.7,45.3l.2,5.5l.2,5.5l.2,5.6c1.3,27.4,1,55,4.1,82.2l.2,.5l.2,.2l.2,-.2l.2,-.5c3.1,-27.2,2.7,-54.8,4.1,-82.2l.4,-11.1c1.3,-27.4,1,-55,4.1,-82.2l.2,-.5L108,.4l.2,.2l.1,.5c3.1,27.2,2.8,54.8,4.2,82.2l.2,5.5l.1,5.6l.2,5.5c.5,15.1,1.1,30.2,1.7,45.3l.2,4.2l.2,3.9c.4,7.4,.6,15.2,1.7,22.4l.2,.9l.2,.5l.1,.2l.2,-.2l.2,-.5c3.1,-27.2,2.8,-54.8,4.1,-82.2l.4,-11.1c1.4,-27.4,1,-55,4.1,-82.2l.2,-.5l.2,-.2l.2,.2l.2,.5c3.1,27.2,2.8,54.8,4.1,82.2l.2,5.5l.2,5.6c1.3,27.4,1,55,4.1,82.2l.2,.5l.2,.2l.2,-.2l.2,-.5l.1,-.9c1.1,-7.2,1.3,-15,1.7,-22.4l.2,-3.9l.2,-4.2c.7,-15.1,1.2,-30.2,1.7,-45.3l.2,-5.5l.2,-5.6l.2,-5.5c1.3,-27.4,1,-55,4.1,-82.2l.2,-.5l.2,-.2l.1,.2l.2,.5c3.1,27.2,2.8,54.8,4.2,82.2l.3,11.1c1.4,27.4,1,55,4.1,82.2l.2,.5l.2,.2l.2,-.2l.2,-.5l.2,-.9c1,-7.2,1.2,-15,1.7,-22.4l.2,-3.9l.1,-4.2c.7,-15.1,1.2,-30.2,1.7,-45.3l.2,-5.5l.2,-5.6l.2,-5.5l.2,-5.5c.5,-15.1,1,-30.2,1.7,-45.3l.2,-4.2l.1,-3.9c.5,-7.4,.7,-15.2,1.7,-22.5l.2,-.8L164,.6l.2,-.2l.2,.2l.2,.5c3.1,27.2,2.7,54.8,4.1,82.2l.2,5.5l.2,5.6c1.3,27.4,1,55,4.1,82.2l.2,.5l.2,.2l.2,-.2l.1,-.5c3.1,-27.2,2.8,-54.8,4.2,-82.2l.2,-5.6l.1,-5.5l.2,-5.5c.5,-15.1,1.1,-30.2,1.7,-45.3l.2,-4.2l.2,-3.9c.4,-7.4,.6,-15.2,1.7,-22.5l.2,-.8l.2,-.5l.1,-.2l.2,.2l.2,.5c3.1,27.2,2.8,54.8,4.1,82.2l.2,5.5l.2,5.6c1.4,27.4,1,55,4.1,82.2l.2,.5l.2,.2l.2,-.2l.2,-.5c3.1,-27.2,2.8,-54.8,4.1,-82.2l.2,-5.6l.2,-5.5c1.3,-27.4,1,-55,4.1,-82.2l.2,-.5l.2,-.2l.2,.2l.2,.5l.1,.8c1.1,7.3,1.3,15.1,1.7,22.5l.2,3.9l.2,4.2c.7,15.1,1.2,30.2,1.7,45.3l.2,5.5l.2,5.5l.2,5.6c1.3,27.4,1,55,4.1,82.2l.2,.5l.2,.2l.1,-.2l.2,-.5c3.1,-27.2,2.8,-54.8,4.2,-82.2l.3,-11.1c1.4,-27.4,1,-55,4.2,-82.2l.1,-.5l.2,-.2l.2,.2l.2,.5l.2,.8c1,7.3,1.2,15.1,1.7,22.5l.2,3.9l.1,4.2c.7,15.1,1.2,30.2,1.7,45.3l.2,5.5l.2,5.5l.2,5.6c1.4,27.4,1,55,4.1,82.2l.2,.5l.2,.2l.2,-.2l.2,-.5c3.1,-27.2,2.7,-54.8,4.1,-82.2l.2,-5.6l.2,-5.5c1.3,-27.4,1,-55,4.1,-82.2L239,.6l.2,-.2l.2,.2l.1,.5c3.1,27.2,2.8,54.8,4.2,82.2l.2,5.5l.1,5.6l.2,5.5c.5,15.1,1.1,30.2,1.7,45.3l.2,4.2l.2,3.9c.4,7.4,.6,15.2,1.7,22.4l.2,.9l.2,.5l.1,.2l.2,-.2l.2,-.5c3.1,-27.2,2.8,-54.8,4.1,-82.2l.4,-11.1c1.4,-27.4,1,-55,4.1,-82.2l.2,-.5l.2,-.2l.2,.2l.2,.5c3.1,27.2,2.8,54.8,4.1,82.2l.2,5.5l.2,5.6c1.3,27.4,1,55,4.1,82.2l.2,.5l.2,.2l.2,-.2l.2,-.5l.1,-.9c1.1,-7.2,1.3,-15,1.7,-22.4l.2,-3.9l.2,-4.2c.7,-15.1,1.2,-30.2,1.7,-45.3l.2,-5.5l.2,-5.6l.2,-5.5c1.3,-27.4,1,-55,4.1,-82.2l.2,-.5l.2,-.2l.1,.2l.2,.5c3.1,27.2,2.8,54.8,4.2,82.2l.1,5.5l.2,5.6c1.4,27.4,1,55,4.2,82.2l.1,.5l.2,.2l.2,-.2l.2,-.5l.2,-.9c1,-7.2,1.2,-15,1.7,-22.4l.2,-3.9l.1,-4.2c.7,-15.1,1.2,-30.2,1.7,-45.3l.2,-5.5l.2,-5.6l.2,-5.5c1.4,-27.4,1,-55,4.1,-82.2l.2,-.5l.2,-.2l.2,.2l.2,.5c3.1,27.2,2.7,54.8,4.1,82.2l.2,5.5l.2,5.6c1.3,27.4,1,55,4.1,82.2l.2,.5l.2,.2l.2,-.2l.1,-.5c3.1,-27.2,2.8,-54.8,4.2,-82.2l.2,-5.6l.1,-5.5l.2,-5.5c.5,-15.1,1.1,-30.2,1.7,-45.3l.2,-4.2l.2,-3.9c.4,-7.4,.6,-15.2,1.7,-22.5l.2,-.8L314,.6l.1,-.2l.2,.2l.2,.5c3.1,27.2,2.8,54.8,4.1,82.2l.4,11.1c1.4,27.4,1,55,4.1,82.2l.2,.5l.2,.2l.2,-.2l.2,-.5c3.1,-27.2,2.8,-54.8,4.1,-82.2l.4,-11.1c1.3,-27.4,1,-55,4.1,-82.2l.2,-.5l.2,-.2l.2,.2l.2,.5l.1,.8c1.1,7.3,1.3,15.1,1.7,22.5l.2,3.9l.2,4.2c.7,15.1,1.2,30.2,1.7,45.3l.2,5.5l.2,5.5l.2,5.6c1.3,27.4,1,55,4.1,82.2l.2,.5l.2,.2l.1,-.2l.2,-.5c3.1,-27.2,2.8,-54.8,4.2,-82.2l.3,-11.1c1.4,-27.4,1,-55,4.2,-82.2l.1,-.5l.2,-.2l.2,.2l.2,.5l.2,.8c1,7.3,1.2,15.1,1.7,22.5l.2,3.9l.2,4.2c.6,15.1,1.1,30.2,1.6,45.3l.2,5.5l.2,5.5l.2,5.6c1.3,27.4,1,55,4.1,82.2l.2,.5l.2,.2l.2,-.2l.2,-.5c3.1,-27.2,2.7,-54.8,4.1,-82.2l.2,-5.6l.2,-5.5c1.3,-27.4,1,-55,4.1,-82.2l.2,-.5l.2,-.2l.2,.2l.1,.5c3.1,27.2,2.8,54.8,4.2,82.2l.2,5.5l.1,5.6l.2,5.5c.5,15.1,1.1,30.2,1.7,45.3l.2,4.2l.2,3.9c.4,7.4,.6,15.2,1.7,22.4l.2,.9l.2,.5l.1,.2l.2,-.2l.2,-.5c3.1,-27.2,2.8,-54.8,4.1,-82.2l.4,-11.1c1.4,-27.4,1,-55,4.1,-82.2l.2,-.5l.2,-.2l.2,.2l.2,.5c3.1,27.2,2.8,54.8,4.1,82.2l.2,5.5l.2,5.6l.2,5.5c.5,15.1,1,30.2,1.7,45.3l.1,4.2l.2,3.9c.5,7.4,.7,15.2,1.7,22.4l.2,.9l.2,.5l.2,.2l.2,-.2l.2,-.5l.1,-.9c1.1,-7.2,1.3,-15,1.7,-22.4l.2,-3.9l.2,-4.2c.7,-15.1,1.2,-30.2,1.7,-45.3l.2,-5.5l.2,-5.6l.2,-5.5c1.3,-27.4,1,-55,4.1,-82.2l.2,-.5l.2,-.2l.1,.2l.2,.5c3.1,27.2,2.8,54.8,4.2,82.2l.1,5.5l.2,5.6c1.4,27.4,1,55,4.2,82.2l.1,.5l.2,.2l.2,-.2l.2,-.5l.2,-.9c1,-7.2,1.2,-15,1.7,-22.4l.2,-3.9l.2,-4.2c.6,-15.1,1.1,-30.2,1.6,-45.3l.2,-5.5l.2,-5.6l.2,-5.5l.2,-5.5c.5,-15.1,1,-30.2,1.7,-45.3l.2,-4.2l.1,-3.9C424.8,17,425,9.2,426,1.9l.2,-.8l.2,-.5l.2,-.2l.2,.2l.2,.5c3.1,27.2,2.7,54.8,4.1,82.2l.4,11.1c1.3,27.4,1,55,4.1,82.2l.2,.5l.2,.2l.2,-.2l.1,-.5c3.2,-27.2,2.8,-54.8,4.2,-82.2l.2,-5.6l.1,-5.5l.2,-5.5c.5,-15.1,1.1,-30.2,1.7,-45.3l.2,-4.2l.2,-3.9c.4,-7.4,.6,-15.2,1.7,-22.5l.2,-.8l.2,-.5l.1,-.2l.2,.2l.2,.5c3.1,27.2,2.8,54.8,4.1,82.2l.4,11.1c1.4,27.4,1,55,4.1,82.2l.2,.5l.2,.2l.2,-.2l.2,-.5c3.1,-27.2,2.8,-54.8,4.1,-82.2l.2,-5.6l.2,-5.5l.2,-5.5c.5,-15.1,1,-30.2,1.7,-45.3l.1,-4.2l.2,-3.9c.5,-7.4,.7,-15.2,1.7,-22.5l.2,-.8l.2,-.5l.2,-.2l.2,.2l.2,.5c3.1,27.2,2.7,54.8,4.1,82.2l.2,5.5l.2,5.6c1.3,27.4,1,55,4.1,82.2l.2,.5l.2,.2l.1,-.2l.2,-.5c3.1,-27.2,2.8,-54.8,4.2,-82.2l.1,-5.6l.2,-5.5c1.4,-27.4,1,-55,4.2,-82.2l.1,-.5l.2,-.2l.2,.2l.2,.5l.2,.8c1,7.3,1.2,15.1,1.7,22.5l.2,3.9l.2,4.2c.6,15.1,1.1,30.2,1.6,45.3l.2,5.5l.2,5.5l.2,5.6c1.4,27.4,1,55,4.1,82.2l.2,.5l.2,.2l.2,-.2l.2,-.5c3.1,-27.2,2.7,-54.8,4.1,-82.2l.4,-11.1c1.3,-27.4,1,-55,4.1,-82.2l.2,-.5l.2,-.2l.2,.2l.1,.5c3.2,27.2,2.8,54.8,4.2,82.2l.2,5.5l.1,5.6l.2,5.5c.5,15.1,1.1,30.2,1.7,45.3l.2,4.2l.2,3.9c.4,7.4,.6,15.2,1.7,22.4l.2,.9l.2,.5l.1,.2l.2,-.2l.2,-.5c3.1,-27.2,2.8,-54.8,4.1,-82.2l.2,-5.6l.2,-5.5c1.4,-27.4,1,-55,4.1,-82.2l.2,-.5l.2,-.2l.2,.2l.2,.5c3.1,27.2,2.8,54.8,4.1,82.2l.2,5.5l.2,5.6l.2,5.5c.5,15.1,1,30.2,1.7,45.3l.1,4.2l.2,3.9c.5,7.4,.7,15.2,1.7,22.4l.2,.9l.2,.5l.2,.2l.2,-.2l.2,-.5c3.1,-27.2,2.7,-54.8,4.1,-82.2l.2,-5.6l.2,-5.5c1.3,-27.4,1,-55,4.1,-82.2l.2,-.5l.2,-.2l.1,.2l.2,.5c3.1,27.2,2.8,54.8,4.2,82.2l.3,11.1c1.4,27.4,1.1,55,4.2,82.2l.1,.5l.2,.2l.2,-.2l.2,-.5l.2,-.9c1,-7.2,1.2,-15,1.7,-22.4l.2,-3.9l.2,-4.2c.6,-15.1,1.1,-30.2,1.6,-45.3l.2,-5.5l.2,-5.6l.2,-5.5c1.4,-27.4,1,-55,4.1,-82.2l.2,-.5l.2,-.2l.2,.2l.2,.5c1.1,6.1,1.2,13.3,1.7,19.6l.1,3.7l.2,3.9c.8,16.5,1.3,33,1.9,49.5l.2,5.5l.2,5.5" class="g1_1" />
</g>

</svg>
