<svg width="900" height="350" xmlns="http://www.w3.org/2000/svg"> <defs><style type="text/css">.g0_1{fill:none;stroke:#00F;stroke-width:5;stroke-linecap:round;stroke-linejoin:miter;stroke-miterlimit:4}.g1_1{fill:none;stroke:#A52A2A;stroke-width:5;stroke-linecap:round;stroke-linejoin:miter;stroke-miterlimit:4}.g2_1{fill:none;stroke:#008000;stroke-width:5;stroke-linecap:round;stroke-linejoin:miter;stroke-miterlimit:4}.g3_1{fill:none;stroke:#FF0;stroke-width:5;stroke-linecap:round;stroke-linejoin:miter;stroke-miterlimit:4}</style><style>.path{stroke-dasharray:500;stroke-dashoffset:500;animation:dash 25s linear infinite}@keyframes dash{from{stroke-dashoffset:1000}to{stroke-dashoffset:0}}</style><linearGradient id="Inbox"> <stop offset="5%" stop-color="#457fca" /> <stop offset="95%" stop-color="#5691c8" /> </linearGradient></defs> <g><title>background</title> <rect fill="url(#Inbox)" id="canvas_background" height="352" width="902" y="-1" x="-1"/> </g> <g><title>Layer 1</title> <g id="svg_6"> <path id="svg_2" class="g0_1 path" d="m833.6,126.15l0,0l-3.6,0l-0.4,0.1l-3.7,0l-0.5,0.1l-3.1,0l-0.6,0.1l-3.6,0l-0.8,0.1l-2.4,0l-0.8,0.1l-3.6,0l-0.9,0.1l-2.9,0l-1.1,0.1l-3.1,0l-1.1,0.1l-2.2,0l-1.1,0.1l-2.3,0l-1.2,0.1l-3.6,0l-1.3,0.1l-2.5,0l-1.3,0.1l-1.3,0l-1.4,0.1l-2.7,0l-1.4,0.1l-2.8,0l-1.4,0.1l-2.9,0l-1.5,0.1l-1.5,0l-1.5,0.1l-3.1,0l-1.6,0.1l-1.5,0l-1.6,0.1l-1.6,0l-1.7,0.1l-3.2,0l-1.7,0.1l-1.7,0l-1.7,0.1l-1.7,0l-1.7,0.1l-1.8,0l-1.7,0.1l-1.8,0l-1.8,0.1l-1.8,0l-1.8,0.1l-1.8,0l-1.9,0.1l-1.8,0l-1.9,0.1l-1.9,0l-1.9,0.1l-1.9,0l-1.9,0.1l-2,0l-1.9,0.1l-2,0l-1.9,0.1l-2,0l-2,0.1l-2.1,0.1l-2,0l-2,0.1l-2.1,0l-2.1,0.1l-2,0l-2.1,0.1l-2.1,0.1l-2.1,0l-2.2,0.1l-2.1,0l-2.2,0.1l-2.1,0.1l-2.2,0l-2.2,0.1l-2.2,0.1l-2.2,0l-2.2,0.1l-2.2,0l-2.3,0.1l-2.2,0.1l-2.3,0l-2.3,0.1l-2.3,0.1l-2.2,0l-2.4,0.1l-2.3,0.1l-2.3,0l-2.3,0.1l-2.4,0.1l-2.3,0l-2.4,0.1l-2.4,0.1l-2.3,0.1l-2.4,0l-2.4,0.1l-2.4,0.1l-2.4,0l-2.5,0.1l-2.4,0.1l-2.4,0.1l-2.5,0l-2.5,0.1l-2.4,0.1l-2.5,0.1l-2.5,0l-2.5,0.1l-2.5,0.1l-2.5,0.1l-2.5,0l-2.5,0.1l-2.5,0.1l-2.6,0.1l-2.5,0.1l-2.6,0l-2.5,0.1l-2.6,0.1l-2.5,0.1l-2.6,0.1l-2.6,0l-2.6,0.1l-2.6,0.1l-2.5,0.1l-2.7,0.1l-2.6,0.1l-2.6,0l-2.6,0.1l-2.6,0.1l-2.6,0.1l-2.7,0.1l-2.6,0.1l-2.6,0.1l-2.7,0l-2.6,0.1l-2.7,0.1l-2.6,0.1l-2.7,0.1l-2.7,0.1l-2.6,0.1l-2.7,0.1l-2.7,0.1l-2.7,0l-2.6,0.1l-2.7,0.1l-2.7,0.1l-2.7,0.1l-2.7,0.1l-2.7,0.1l-2.7,0.1l-2.7,0.1l-2.7,0.1l-2.7,0.1l-2.7,0.1l-2.7,0.1l-2.7,0.1l-2.7,0l-2.7,0.1l-2.7,0.1l-2.7,0.1l-2.7,0.1l-2.7,0.1l-2.7,0.1l-2.8,0.1l-2.7,0.1l-2.7,0.1l-2.7,0.1l-2.7,0.1l-2.7,0.1l-2.7,0.1l-2.7,0.1l-2.8,0.1l-2.7,0.1l-2.7,0.1l-2.7,0.1l-2.7,0.1l-2.7,0.1l-2.7,0.1l-2.7,0.1l-2.7,0.1l-2.7,0.2l-2.7,0.1l-2.7,0.1l-2.7,0.1l-2.6,0.1l-2.7,0.1l-2.7,0.1l-2.7,0.1l-2.7,0.1l-2.6,0.1l-2.7,0.1l-2.7,0.1l-2.6,0.1l-2.7,0.1l-2.6,0.2l-2.7,0.1l-2.6,0.1l-2.7,0.1l-2.6,0.1l-2.6,0.1l-2.7,0.1l-2.6,0.1l-2.6,0.1l-2.6,0.2l-2.6,0.1l-2.6,0.1l-2.6,0.1l-2.6,0.1l-2.6,0.1l-2.6,0.1l-2.6,0.1l-2.5,0.2l-2.6,0.1l-2.5,0.1l-2.6,0.1l-2.5,0.1l-2.6,0.1l-2.5,0.2l-2.5,0.1l-2.5,0.1l-2.5,0.1l-2.5,0.1l-2.5,0.1l-2.5,0.2l-2.5,0.1l-2.5,0.1l-2.4,0.1l-2.5,0.1l-2.4,0.2l-2.4,0.1l-2.5,0.1l-2.4,0.1l-2.4,0.1l-2.4,0.2l-2.4,0.1l-2.4,0.1l-2.4,0.1l-2.3,0.2l-2.4,0.1l-2.3,0.1l-2.4,0.1l-2.3,0.2l-2.3,0.1l-2.3,0.1l-2.3,0.1l-2.3,0.2l-2.3,0.1l-2.2,0.1l-2.3,0.1l-2.2,0.2l-2.3,0.1l-2.2,0.1l-2.2,0.1l-2.2,0.2l-2.2,0.1l-2.1,0.1l-2.2,0.1l-2.2,0.2l-2.1,0.1l-2.1,0.1l-2.2,0.2l-2.1,0.1l-2.1,0.1l-2,0.1l-2.1,0.2l-2.1,0.1l-2,0.1l-2,0.2l-2.1,0.1l-2,0.1l-1.9,0.2l-2,0.1l-2,0.1l-1.9,0.2l-2,0.1l-1.9,0.1l-1.9,0.2l-1.9,0.1l-1.9,0.1l-1.9,0.2l-1.8,0.1l-1.9,0.1l-1.8,0.2l-1.8,0.1l-1.8,0.1l-1.8,0.2l-1.8,0.1l-1.7,0.1l-1.8,0.2l-1.7,0.1l-1.7,0.1l-1.7,0.2l-1.7,0.1l-1.7,0.2l-1.6,0.1l-1.7,0.1l-1.6,0.2l-1.6,0.1l-1.6,0.1l-1.6,0.2l-1.5,0.1l-1.6,0.2l-1.5,0.1l-1.5,0.1l-1.5,0.2l-1.5,0.1l-1.4,0.2l-1.5,0.1l-1.4,0.1l-1.4,0.2l-1.4,0.1l-1.4,0.2l-1.4,0.1l-1.3,0.1l-1.4,0.2l-1.3,0.1l-1.3,0.2l-1.2,0.1l-1.3,0.2l-1.3,0.1l-1.2,0.1l-1.2,0.2l-1.2,0.1l-1.2,0.2l-1.1,0.1l-1.2,0.1l-1.1,0.2l-1.1,0.1l-1.1,0.2l-1.1,0.1l-1,0.2l-1.1,0.1l-1,0.2l-1,0.1l-1,0.1l-0.9,0.2l-1,0.1l-0.9,0.2l-0.9,0.1l-0.9,0.2l-0.9,0.1l-0.9,0.2l-0.8,0.1l-0.8,0.2l-0.8,0.1l-0.8,0.1l-0.8,0.2l-0.7,0.1l-0.7,0.2l-0.8,0.1l-0.7,0.2l-0.6,0.1l-0.7,0.2l-0.6,0.1l-0.6,0.2l-0.6,0.1l-0.6,0.2l-0.6,0.1l-0.5,0.2l-0.5,0.1l-0.5,0.2l-0.5,0.1l-0.5,0.2l-0.4,0.1l-0.5,0.2l-0.4,0.1l-0.4,0.1l-0.3,0.2l-0.4,0.1l-0.3,0.2l-0.3,0.1l-0.3,0.2l-0.3,0.1l-0.3,0.2l-0.2,0.1l-0.2,0.2l-0.2,0.1l-0.2,0.2l-0.1,0.1l-0.2,0.2l-0.1,0.1l-0.1,0.2l-0.1,0.1l-0.1,0.2l0,0.8l0.1,0.1l0,0.2l0.1,0.1l0.1,0.2l0.2,0.1l0.1,0.2l0.2,0.1l0.2,0.2l0.2,0.1l0.2,0.2l0.2,0.1l0.3,0.2l0.3,0.1l0.3,0.2l0.3,0.1l0.4,0.2l0.3,0.1l0.4,0.2l0.4,0.1l0.4,0.2l0.5,0.1l0.4,0.2l0.5,0.1l0.5,0.2l0.5,0.1l0.5,0.2l0.6,0.2l0.5,0.1l0.6,0.2l0.6,0.1l0.7,0.2l0.6,0.1l0.7,0.2l0.6,0.1l0.7,0.2l0.8,0.1l0.7,0.2l0.8,0.1l0.7,0.2l0.8,0.1l0.8,0.2l0.9,0.1l0.8,0.2l0.9,0.2l0.9,0.1l0.9,0.2l0.9,0.1l0.9,0.2l1,0.1l1,0.2l1,0.1l1,0.2l1,0.1l1.1,0.2l1,0.1l1.1,0.2l1.1,0.1l1.1,0.2l1.2,0.1l1.1,0.2l1.2,0.2l1.2,0.1l1.2,0.2l1.2,0.1l1.2,0.2l1.3,0.1l1.3,0.2l1.3,0.1l1.3,0.2l1.3,0.1l1.4,0.2l1.3,0.1l1.4,0.2l1.4,0.1l1.4,0.2l1.4,0.1l1.5,0.2l1.4,0.1l1.5,0.2l1.5,0.2l1.5,0.1l1.5,0.2l1.6,0.1l1.5,0.2l1.6,0.1l1.6,0.2l1.6,0.1l1.6,0.2l1.6,0.1l1.7,0.2l1.7,0.1l1.6,0.2l1.7,0.1l1.8,0.2l1.7,0.1l1.7,0.2l1.8,0.1l1.7,0.2l1.8,0.1l1.8,0.2l1.9,0.1l1.8,0.2l1.8,0.1l1.9,0.2l1.9,0.1l1.8,0.2l1.9,0.1l2,0.2l1.9,0.1l1.9,0.2l2,0.2l2,0.1l1.9,0.2l2,0.1l2,0.1l2.1,0.2l2,0.2l2.1,0.1l2,0.1l2.1,0.2l2.1,0.1l2.1,0.2l2.1,0.1l2.1,0.2l2.1,0.1l2.2,0.2l2.2,0.1l2.1,0.2l2.2,0.1l2.2,0.2l2.2,0.1l2.2,0.2l2.3,0.1l2.2,0.2l2.3,0.1l2.2,0.2l2.3,0.1l2.3,0.2l2.3,0.1l2.3,0.2l2.3,0.1l2.3,0.2l2.4,0.1l2.3,0.1l2.4,0.2l2.3,0.1l2.4,0.2l2.4,0.1l2.4,0.2l2.4,0.1l2.4,0.2l2.4,0.1l2.5,0.2l2.4,0.1l2.4,0.2l2.5,0.1l2.5,0.1l2.4,0.2l2.5,0.1l2.5,0.2l2.5,0.1l2.5,0.2l2.5,0.1l2.6,0.1l2.5,0.2l2.5,0.1l2.6,0.2l2.5,0.1l2.6,0.2l2.6,0.1l2.5,0.1l2.6,0.2l2.6,0.1l2.6,0.2l2.6,0.1l2.6,0.2l2.6,0.1l2.6,0.1l2.6,0.2l2.7,0.1l2.6,0.2l2.6,0.1l2.7,0.1l2.6,0.2l2.7,0.1l2.7,0.2l2.6,0.1l2.7,0.1l2.7,0.2l2.6,0.1l2.7,0.2l2.7,0.1l2.7,0.1l2.7,0.2l2.7,0.1l2.7,0.1l2.7,0.2l2.7,0.1l2.7,0.2l2.7,0.1l2.7,0.1l2.7,0.2l2.8,0.1l2.7,0.1l2.7,0.2l2.7,0.1l2.8,0.1l2.7,0.2l2.7,0.1l2.8,0.1l2.7,0.2l2.7,0.1l2.8,0.1l2.7,0.2l2.8,0.1l2.7,0.1l2.7,0.2l2.8,0.1l2.7,0.1l2.8,0.2l2.7,0.1l2.7,0.1l2.8,0.2l2.7,0.1l2.8,0.1l2.7,0.2l2.8,0.1l2.7,0.1l2.7,0.1l2.8,0.2l2.7,0.1l2.7,0.1l2.8,0.2l2.7,0.1l2.7,0.1l2.8,0.1l2.7,0.2l2.7,0.1l2.7,0.1l2.7,0.1l2.8,0.2l2.7,0.1l2.7,0.1l2.7,0.2l2.7,0.1l2.7,0.1l2.7,0.1l2.7,0.2l2.7,0.1l2.6,0.1l2.7,0.1l2.7,0.1l2.7,0.2l2.6,0.1l2.7,0.1l2.7,0.1l2.6,0.2l2.7,0.1l2.6,0.1l2.6,0.1l2.7,0.1l2.6,0.2l2.6,0.1l2.6,0.1l2.7,0.1l2.6,0.1l2.6,0.2l2.5,0.1l2.6,0.1l2.6,0.1l2.6,0.1l2.5,0.1l2.6,0.2l2.6,0.1l2.5,0.1l2.5,0.1l2.6,0.1l2.5,0.1l2.5,0.2l2.5,0.1l2.5,0.1l2.5,0.1l2.5,0.1l2.5,0.1l2.4,0.1l2.5,0.2l2.4,0.1l2.5,0.1l2.4,0.1l2.4,0.1l2.4,0.1l2.4,0.1l2.4,0.1l2.4,0.1l2.4,0.2l2.3,0.1l2.4,0.1l2.3,0.1l2.4,0.1l2.3,0.1l2.3,0.1l2.3,0.1l2.3,0.1l2.3,0.1l2.3,0.1l2.2,0.1l2.3,0.1l2.2,0.2l2.2,0.1l2.3,0.1l2.2,0.1l2.2,0.1l2.1,0.1l2.2,0.1l2.2,0.1l2.1,0.1l2.1,0.1l2.2,0.1l2.1,0.1l2.1,0.1l2.1,0.1l2,0.1l2.1,0.1l2,0.1l2.1,0.1l2,0.1l2,0.1l2,0.1l1.9,0.1l2,0.1l2,0.1l1.9,0.1l1.9,0.1l1.9,0.1l1.9,0.1l1.9,0.1l1.9,0l1.8,0.1l1.9,0.1l1.8,0.1l1.8,0.1l1.8,0.1l1.8,0.1l1.8,0.1l1.7,0.1l1.7,0.1l1.8,0.1l1.7,0.1l1.7,0.1l1.6,0l1.7,0.1l1.6,0.1l1.7,0.1l1.6,0.1l1.6,0.1l1.6,0.1l1.5,0.1l1.6,0l1.5,0.1l1.5,0.1l1.5,0.1l1.5,0.1l1.5,0.1l1.4,0.1l1.5,0l1.4,0.1l1.4,0.1l1.4,0.1l1.3,0.1l1.4,0.1l1.3,0l1.3,0.1l1.3,0.1l1.3,0.1l1.3,0.1l1.2,0l1.3,0.1l1.2,0.1l1.2,0.1l1.2,0l1.1,0.1l1.2,0.1l1.1,0.1l1.1,0l1.1,0.1l1.1,0.1l1,0.1l1.1,0l1,0.1l1,0.1l1,0.1l0.9,0l1,0.1l0.9,0.1l0.9,0.1l0.9,0l0.9,0.1l0.8,0.1l0.9,0l0.8,0.1l0.8,0.1l0.8,0l0.7,0.1l0.8,0.1l0.7,0l0.7,0.1l0.7,0.1l0.6,0l0.7,0.1l0.6,0.1l0.6,0l0.6,0.1l0.6,0.1l0.5,0l0.6,0.1l0.5,0l0.5,0.1l0.5,0.1l0.4,0l0.5,0.1l0.4,0l0.4,0.1l0.4,0.1l0.3,0l0.4,0.1l0.3,0l0.3,0.1l0.3,0.1l0.2,0l0.3,0.1l0.2,0l0.2,0.1l0.2,0l0.2,0.1l0.1,0l0.2,0.1l0.1,0l0.1,0.1l0.1,0.1l0,0.2l-0.1,0l0,0.1l-0.1,0l-0.1,0.1l-0.2,0l-0.1,0.1l-0.2,0l-0.1,0.1l-0.2,0l-0.3,0.1l-0.2,0l-0.3,0.1l-0.6,0l-0.3,0.1l-0.3,0l-0.4,0.1l-0.7,0l-0.5,0.1l-0.4,0l-0.4,0.1l-1,0l-0.5,0.1l-0.6,0l-0.5,0.1l-1.2,0l-0.6,0.1l-1.2,0l-0.7,0.1l-1.4,0l-0.7,0.1l-1.5,0l-0.8,0.1l-2.4,0l-0.9,0.1l-1.8,0l-0.9,0.1l-2.8,0l-1,0.1l-3,0l-1.1,0.1l-3.3,0l-1.1,0.1l-4.7,0l-1.2,0.1l-6.3,0l-1.3,0.1l-6.9,0l-1.4,0.1l-12,0l-1.6,0.1l-70.7,0l-2.2,-0.1l-17.4,0l-2.3,-0.1l-11.4,0l-2.3,-0.1l-11.7,0l-2.3,-0.1l-9.6,0l-2.4,-0.1l-7.3,0l-2.5,-0.1l-7.4,0l-2.5,-0.1l-7.5,0l-2.6,-0.1l-5,0l-2.6,-0.1l-7.7,0l-2.6,-0.1l-5.1,0l-2.6,-0.1l-5.3,0l-2.6,-0.1l-5.2,0l-2.7,-0.1l-2.6,0l-2.7,-0.1l-5.3,0l-2.7,-0.1l-5.3,0l-2.7,-0.1l-2.7,0l-2.7,-0.1l-5.4,0l-2.7,-0.1l-2.7,0l-2.7,-0.1l-2.7,0l-2.7,-0.1l-5.5,0l-2.7,-0.1l-2.8,0l-2.7,-0.1l-2.7,0l-2.8,-0.1l-2.7,0l-2.8,-0.1l-2.7,0l-2.8,-0.1l-2.7,0l-2.8,-0.1l-2.8,0l-2.7,-0.1l-2.8,0l-2.8,-0.1l-2.7,0l-2.8,-0.1l-2.8,0l-2.7,-0.1l-2.8,0l-2.8,-0.1l-2.7,0l-2.8,-0.1l-2.8,0l-2.8,-0.1l-2.7,-0.1l-2.8,0l-2.8,-0.1l-2.7,0l-2.8,-0.1l-2.8,0l-2.8,-0.1l-2.7,-0.1l-2.8,0l-2.8,-0.1l-2.7,0l-2.8,-0.1l-2.8,-0.1l-2.7,0l-2.8,-0.1l-2.7,0l-2.8,-0.1l-2.7,-0.1l-2.8,0l-2.7,-0.1l-2.8,-0.1l-2.7,0l-2.7,-0.1l-2.8,-0.1l-2.7,0l-2.7,-0.1l-2.8,-0.1l-2.7,0l-2.7,-0.1l-2.7,-0.1l-2.7,0l-2.7,-0.1l-2.7,-0.1l-2.7,-0.1l-2.7,0l-2.7,-0.1l-2.7,-0.1l-2.6,0l-2.7,-0.1l-2.7,-0.1l-2.6,-0.1l-2.7,0l-2.6,-0.1l-2.7,-0.1l-2.6,-0.1l-2.6,0l-2.7,-0.1l-2.6,-0.1l-2.6,-0.1l-2.6,0l-2.6,-0.1l-2.6,-0.1l-2.6,-0.1l-2.5,-0.1l-2.6,0l-2.6,-0.1l-2.5,-0.1l-2.6,-0.1l-2.5,-0.1l-2.5,0l-2.5,-0.1l-2.6,-0.1l-2.5,-0.1l-2.5,-0.1l-2.4,-0.1l-2.5,0l-2.5,-0.1l-2.4,-0.1l-2.5,-0.1l-2.4,-0.1l-2.5,-0.1l-2.4,-0.1l-2.4,0l-2.4,-0.1l-2.4,-0.1l-2.4,-0.1l-2.4,-0.1l-2.3,-0.1l-2.4,-0.1l-2.3,-0.1l-2.4,-0.1l-2.3,0l-2.3,-0.1l-2.3,-0.1l-2.3,-0.1l-2.3,-0.1l-2.2,-0.1l-2.3,-0.1l-2.2,-0.1l-2.3,-0.1l-2.2,-0.1l-2.2,-0.1l-2.2,-0.1l-2.2,-0.1l-2.1,-0.1l-2.2,-0.1l-2.1,-0.1l-2.2,0l-2.1,-0.1l-2.1,-0.1l-2.1,-0.1l-2.1,-0.1l-2.1,-0.1l-2,-0.1l-2.1,-0.1l-2,-0.1l-2,-0.1l-2,-0.1l-2,-0.1l-2,-0.1l-2,-0.1l-1.9,-0.1l-1.9,-0.1l-2,-0.1l-1.9,-0.2l-1.9,-0.1l-1.8,-0.1l-1.9,-0.1l-1.9,-0.1l-1.8,-0.1l-1.8,-0.1l-1.8,-0.1l-1.8,-0.1l-1.8,-0.1l-1.7,-0.1l-1.8,-0.1l-1.7,-0.1l-1.7,-0.1l-1.7,-0.1l-1.7,-0.1l-1.7,-0.1l-1.6,-0.2l-1.7,-0.1l-1.6,-0.1l-1.6,-0.1l-1.6,-0.1l-1.5,-0.1l-1.6,-0.1l-1.5,-0.1l-1.6,-0.1l-1.5,-0.2l-1.5,-0.1l-1.4,-0.1l-1.5,-0.1l-1.4,-0.1l-1.5,-0.1l-1.4,-0.1l-1.3,-0.1l-1.4,-0.2l-1.4,-0.1l-1.3,-0.1l-1.3,-0.1l-1.3,-0.1l-1.3,-0.1l-1.3,-0.2l-1.2,-0.1l-1.3,-0.1l-1.2,-0.1l-1.2,-0.1l-1.2,-0.1l-1.1,-0.2l-1.2,-0.1l-1.1,-0.1l-1.1,-0.1l-1.1,-0.1l-1.1,-0.2l-1,-0.1l-1.1,-0.1l-1,-0.1l-1,-0.1l-1,-0.2l-0.9,-0.1l-1,-0.1l-0.9,-0.1l-0.9,-0.2l-0.9,-0.1l-0.8,-0.1l-0.9,-0.1l-0.8,-0.1l-0.8,-0.2l-0.8,-0.1l-0.8,-0.1l-0.8,-0.1l-0.7,-0.2l-0.7,-0.1l-0.7,-0.1l-0.7,-0.1l-0.7,-0.2l-0.6,-0.1l-0.6,-0.1l-0.6,-0.2l-0.6,-0.1l-0.6,-0.1l-0.5,-0.1l-0.6,-0.2l-0.5,-0.1l-0.4,-0.1l-0.5,-0.2l-0.5,-0.1l-0.4,-0.1l-0.4,-0.1l-0.4,-0.2l-0.4,-0.1l-0.3,-0.1l-0.4,-0.2l-0.3,-0.1l-0.3,-0.1l-0.2,-0.2l-0.3,-0.1l-0.2,-0.1l-0.2,-0.2l-0.2,-0.1l-0.2,-0.1l-0.2,-0.2l-0.1,-0.1l-0.1,-0.1l-0.1,-0.2l-0.1,-0.1l0,-0.1l-0.1,-0.2l0,-0.4l0.1,-0.1l0,-0.1l0.1,-0.2l0.1,-0.1l0.1,-0.1l0.2,-0.2l0.1,-0.1l0.2,-0.2l0.2,-0.1l0.2,-0.1l0.3,-0.2l0.2,-0.1l0.3,-0.1l0.3,-0.2l0.3,-0.1l0.4,-0.2l0.3,-0.1l0.4,-0.1l0.4,-0.2l0.4,-0.1l0.4,-0.2l0.5,-0.1l0.5,-0.1l0.5,-0.2l0.5,-0.1l0.5,-0.2l0.6,-0.1l0.5,-0.1l0.6,-0.2l0.6,-0.1l0.6,-0.2l0.7,-0.1l0.7,-0.2l0.6,-0.1l0.8,-0.1l0.7,-0.2l0.7,-0.1l0.8,-0.2l0.8,-0.1l0.8,-0.2l0.8,-0.1l0.8,-0.1l0.9,-0.2l0.9,-0.1l0.8,-0.2l1,-0.1l0.9,-0.2l0.9,-0.1l1,-0.2l1,-0.1l1,-0.1l1,-0.2l1.1,-0.1l1,-0.2l1.1,-0.1l1.1,-0.2l1.1,-0.1l1.2,-0.2l1.1,-0.1l1.2,-0.2l1.2,-0.1l1.2,-0.2l1.2,-0.1l1.2,-0.1l1.3,-0.2l1.3,-0.1l1.3,-0.2l1.3,-0.1l1.3,-0.2l1.3,-0.1l1.4,-0.2l1.4,-0.1l1.4,-0.2l1.4,-0.1l1.4,-0.2l1.5,-0.1l1.5,-0.2l1.4,-0.1l1.5,-0.2l1.6,-0.1l1.5,-0.2l1.5,-0.1l1.6,-0.2l1.6,-0.1l1.6,-0.2l1.6,-0.1l1.6,-0.2l1.7,-0.1l1.6,-0.2l1.7,-0.1l1.7,-0.2l1.7,-0.1l1.7,-0.2l1.8,-0.1l1.7,-0.2l1.8,-0.1l1.8,-0.2l1.8,-0.1l1.8,-0.2l1.9,-0.1l1.8,-0.2l1.9,-0.1l1.8,-0.2l1.9,-0.1l1.9,-0.2l2,-0.1l1.9,-0.2l1.9,-0.1l2,-0.2l2,-0.1l2,-0.2l2,-0.2l2,-0.1l2,-0.2l2.1,-0.1l2,-0.2l2.1,-0.1l2.1,-0.2l2.1,-0.1l2.1,-0.2l2.1,-0.1l2.2,-0.2l2.1,-0.1l2.2,-0.2l2.2,-0.1l2.2,-0.2l2.2,-0.1l2.2,-0.2l2.2,-0.1l2.2,-0.2l2.3,-0.2l2.2,-0.1l2.3,-0.2l2.3,-0.1l2.3,-0.2l2.3,-0.1l2.3,-0.2l2.4,-0.1l2.3,-0.2l2.3,-0.1l2.4,-0.2l2.4,-0.1l2.4,-0.2l2.4,-0.1l2.4,-0.2l2.4,-0.2l2.4,-0.1l2.4,-0.2l2.5,-0.1l2.4,-0.2l2.5,-0.1l2.5,-0.2l2.4,-0.1l2.5,-0.2l2.5,-0.1l2.5,-0.2l2.6,-0.1l2.5,-0.2l2.5,-0.2l2.6,-0.1l2.5,-0.2l2.6,-0.1l2.5,-0.2l2.6,-0.1l2.6,-0.2l2.6,-0.1l2.6,-0.2l2.6,-0.1l2.6,-0.2l2.6,-0.1l2.7,-0.2l2.6,-0.2l2.6,-0.1l2.7,-0.2l2.6,-0.1l2.7,-0.2l2.7,-0.1l2.6,-0.2l2.7,-0.1l2.7,-0.2l2.7,-0.1l2.7,-0.2l2.7,-0.1l2.7,-0.2l2.7,-0.1l2.7,-0.2l2.7,-0.2l2.8,-0.1l2.7,-0.2l2.7,-0.1l2.8,-0.2l2.7,-0.1l2.7,-0.2l2.8,-0.1l2.8,-0.2l2.7,-0.1l2.8,-0.2l2.7,-0.1l2.8,-0.2l2.8,-0.1l2.8,-0.2l2.7,-0.1l2.8,-0.2l2.8,-0.1l2.8,-0.2l2.8,-0.2l2.8,-0.1l2.7,-0.2l2.8,-0.1l2.8,-0.2l2.8,-0.1l2.8,-0.2l2.8,-0.1l2.8,-0.2l2.8,-0.1l2.8,-0.2l2.8,-0.1l2.8,-0.2l2.8,-0.1l2.8,-0.2l2.8,-0.1l2.8,-0.2l2.9,-0.1l2.8,-0.2l2.8,-0.1l2.8,-0.2l2.8,-0.1l2.8,-0.2l2.8,-0.1l2.8,-0.2l2.8,-0.1l2.8,-0.2l2.7,-0.1l2.8,-0.2l2.8,-0.1l2.8,-0.2l2.8,-0.1l2.8,-0.2l2.8,-0.1l2.8,-0.2l2.7,-0.1l2.8,-0.2l2.8,-0.1l2.7,-0.2l2.8,-0.1l2.8,-0.2l2.7,-0.1l2.8,-0.1l2.7,-0.2l2.8,-0.1l2.7,-0.2l2.8,-0.1l2.7,-0.2l2.7,-0.1l2.8,-0.2l2.7,-0.1l2.7,-0.2l2.7,-0.1l2.7,-0.2l2.7,-0.1l2.7,-0.2l2.7,-0.1l2.7,-0.1l2.7,-0.2l2.6,-0.1l2.7,-0.2l2.7,-0.1l2.6,-0.2l2.7,-0.1l2.6,-0.2l2.6,-0.1l2.7,-0.1l2.6,-0.2l2.6,-0.1l2.6,-0.2l2.6,-0.1l2.6,-0.2l2.6,-0.1l2.6,-0.1l2.5,-0.2l2.6,-0.1l2.5,-0.2l2.6,-0.1l2.5,-0.2l2.5,-0.1l2.6,-0.1l2.5,-0.2l2.5,-0.1l2.4,-0.2l2.5,-0.1l2.5,-0.1l2.5,-0.2l2.4,-0.1l2.5,-0.2l2.4,-0.1l2.4,-0.1l2.4,-0.2l2.4,-0.1l2.4,-0.2l2.4,-0.1l2.4,-0.1l2.3,-0.2l2.4,-0.1l2.3,-0.1l2.4,-0.2l2.3,-0.1l2.3,-0.2l2.3,-0.1l2.3,-0.1l2.2,-0.2l2.3,-0.1l2.2,-0.1l2.3,-0.2l2.2,-0.1l2.2,-0.1l2.2,-0.2l2.2,-0.1l2.2,-0.1l2.2,-0.2l2.1,-0.1l2.1,-0.1l2.2,-0.2l2.1,-0.1l2.1,-0.1l2.1,-0.2l2,-0.1l2.1,-0.1l2,-0.2l2.1,-0.1l2,-0.1l2,-0.2l2,-0.1l2,-0.1l1.9,-0.2l2,-0.1l1.9,-0.1l1.9,-0.1l1.9,-0.2l1.9,-0.1l1.9,-0.1l1.8,-0.2l1.9,-0.1l1.8,-0.1l1.8,-0.1l1.8,-0.2l1.8,-0.1l1.8,-0.1l1.7,-0.1l1.8,-0.2l1.7,-0.1l1.7,-0.1l1.7,-0.2l1.7,-0.1l1.6,-0.1l1.7,-0.1l1.6,-0.2l1.6,-0.1l1.6,-0.1l1.6,-0.1l1.5,-0.1l1.6,-0.2l1.5,-0.1l1.5,-0.1l1.5,-0.1l1.5,-0.2l1.5,-0.1l1.4,-0.1l1.4,-0.1l1.4,-0.1l1.4,-0.2l1.4,-0.1l1.4,-0.1l1.3,-0.1l1.3,-0.1l1.3,-0.2l1.3,-0.1l1.3,-0.1l1.2,-0.1l1.3,-0.1l1.2,-0.1l1.2,-0.2l1.2,-0.1l1.1,-0.1l1.2,-0.1l1.1,-0.1l1.1,-0.1l1.1,-0.2l1.1,-0.1l1,-0.1l1,-0.1l1.1,-0.1l1,-0.1l0.9,-0.1l1,-0.1l0.9,-0.2l1,-0.1l0.9,-0.1l0.9,-0.1l0.8,-0.1l0.9,-0.1l0.8,-0.1l0.8,-0.1l0.8,-0.1l0.8,-0.2l0.7,-0.1l0.7,-0.1l0.8,-0.1l0.6,-0.1l0.7,-0.1l0.7,-0.1l0.6,-0.1l0.6,-0.1l0.6,-0.1l0.6,-0.1l0.6,-0.1l0.5,-0.1l0.5,-0.1l0.5,-0.1l0.5,-0.1l0.5,-0.2l0.4,-0.1l0.4,-0.1l0.4,-0.1l0.4,-0.1l0.4,-0.1l0.3,-0.1l0.3,-0.1l0.3,-0.1l0.3,-0.1l0.3,-0.1l0.2,-0.1l0.2,-0.1l0.2,-0.1l0.2,-0.1l0.2,-0.1l0.1,-0.1l0.2,-0.1l0.1,-0.1l0.1,-0.1l0,-0.1l0.1,-0.1l0,-0.2l-0.1,-0.1l0,-0.1l-0.1,-0.1l-0.1,-0.1l-0.1,-0.1l-0.2,-0.1l-0.1,-0.1l-0.2,-0.1l-0.2,-0.1l-0.2,0l-0.2,-0.1l-0.3,-0.1l-0.3,-0.1l-0.3,-0.1l-0.3,-0.1l-0.3,-0.1l-0.4,-0.1l-0.3,-0.1l-0.4,0l-0.4,-0.1l-0.5,-0.1l-0.4,-0.1l-0.5,-0.1l-0.5,-0.1l-0.5,-0.1l-0.5,0l-0.6,-0.1l-0.6,-0.1l-0.6,-0.1l-0.6,-0.1l-0.6,-0.1l-0.6,0l-0.7,-0.1l-0.7,-0.1l-0.7,-0.1l-0.7,-0.1l-0.8,0l-0.7,-0.1l-0.8,-0.1l-0.8,-0.1l-0.9,-0.1l-0.8,0l-0.9,-0.1l-0.8,-0.1l-0.9,-0.1l-1,0l-0.9,-0.1l-0.9,-0.1l-1,-0.1l-1,0l-1,-0.1l-1.1,-0.1l-1,-0.1l-1.1,0l-1.1,-0.1l-1.1,-0.1l-1.1,0l-1.1,-0.1l-1.2,-0.1l-1.2,-0.1l-1.2,0l-1.2,-0.1l-1.2,-0.1l-1.2,0l-1.3,-0.1l-1.3,-0.1l-1.3,0l-1.3,-0.1l-1.4,-0.1l-1.3,0l-1.4,-0.1l-1.4,-0.1l-1.4,0l-1.4,-0.1l-1.5,-0.1l-1.4,0l-1.5,-0.1l-1.5,0l-1.5,-0.1l-1.5,-0.1l-1.6,0l-1.5,-0.1l-1.6,0l-1.6,-0.1l-1.6,-0.1l-1.7,0l-1.6,-0.1l-1.7,0l-1.6,-0.1l-1.7,-0.1l-1.7,0l-1.8,-0.1l-1.7,0l-1.8,-0.1l-1.7,0l-1.8,-0.1l-1.8,0l-1.8,-0.1l-1.9,0l-1.8,-0.1l-1.9,0l-1.9,-0.1l-1.9,0l-1.9,-0.1l-1.9,0l-1.9,-0.1l-2,0l-1.9,-0.1l-2,0l-2,-0.1l-2,0l-2.1,-0.1l-2,0l-2,-0.1l-2.1,0l-2.1,-0.1l-2.1,0l-2.1,-0.1l-4.2,0l-2.2,-0.1l-2.1,0l-2.2,-0.1l-4.4,0l-2.2,-0.1l-2.2,0l-2.3,-0.1l-4.5,0l-2.2,-0.1l-2.3,0l-2.3,-0.1l-4.6,0l-2.4,-0.1l-4.7,0l-2.3,-0.1l-4.8,0l-2.4,-0.1l-4.8,0l-2.4,-0.1l-7.4,0l-2.4,-0.1l-5,0l-2.5,-0.1l-7.6,0l-2.5,-0.1l-7.6,0l-2.6,-0.1l-7.8,0l-2.6,-0.1l-10.5,0l-2.6,-0.1l-13.3,0l-2.7,-0.1l-16.2,0l-2.7,-0.1l-22,0l-2.8,-0.1l-98.5,0l-2.9,0.1l-22.6,0l-2.8,0.1l-16.9,0l-2.8,0.1l-11.2,0l-2.8,0.1l-11.1,0l-2.7,0.1l-11.1,0l-2.7,0.1l-8.2,0l-2.7,0.1l-8.2,0l-2.6,0.1l-5.4,0l-2.7,0.1l-5.3,0l-2.7,0.1l-7.9,0l-2.7,0.1l-5.2,0l-2.6,0.1l-5.2,0l-2.6,0.1l-2.6,0l-2.5,0.1l-5.1,0l-2.6,0.1l-5,0l-2.5,0.1l-2.5,0l-2.5,0.1l-5,0l-2.4,0.1l-2.5,0l-2.4,0.1l-2.5,0l-2.4,0.1l-4.8,0l-2.4,0.1l-2.4,0l-2.3,0.1l-2.4,0l-2.4,0.1l-2.3,0l-2.3,0.1l-2.3,0l-2.3,0.1l-2.3,0l-2.3,0.1l-2.3,0l-2.2,0.1l-2.3,0l-2.2,0.1l-2.2,0l-2.2,0.1l-2.2,0l-2.2,0.1l-2.1,0l-2.2,0.1l-2.1,0l-2.2,0.1l-2.1,0l-2.1,0.1l-2,0.1l-2.1,0l-2.1,0.1l-2,0l-2.1,0.1l-2,0l-2,0.1l-2,0.1l-1.9,0l-2,0.1l-1.9,0l-2,0.1l-1.9,0.1l-1.9,0l-1.9,0.1l-1.8,0.1l-1.9,0l-1.8,0.1l-1.9,0l-1.8,0.1l-1.8,0.1l-1.7,0l-1.8,0.1l-1.7,0.1l-1.8,0l-1.7,0.1l-1.7,0.1l-1.7,0l-1.6,0.1l-1.7,0.1l-1.6,0.1l-1.6,0l-1.6,0.1l-1.6,0.1l-1.6,0l-1.5,0.1l-1.6,0.1l-1.5,0.1l-1.5,0l-1.5,0.1l-1.4,0.1l-1.5,0.1l-1.4,0l-1.4,0.1l-1.4,0.1l-1.4,0.1l-1.3,0l-1.4,0.1l-1.3,0.1l-1.3,0.1l-1.3,0l-1.3,0.1l-1.2,0.1l-1.3,0.1l-1.2,0.1l-1.2,0l-1.2,0.1l-1.1,0.1l-1.2,0.1l-1.1,0.1l-1.1,0l-1.1,0.1l-1.1,0.1l-1,0.1l-1,0.1l-1.1,0.1l-1,0l-0.9,0.1l-1,0.1l-0.9,0.1l-0.9,0.1l-0.9,0.1l-0.9,0.1l-0.9,0.1l-0.8,0l-0.9,0.1l-0.8,0.1l-0.7,0.1l-0.8,0.1l-0.8,0.1l-0.7,0.1l-0.7,0.1l-0.7,0.1l-0.6,0.1l-0.7,0l-0.6,0.1l-0.6,0.1l-0.6,0.1l-0.6,0.1l-0.5,0.1l-0.6,0.1l-0.5,0.1l-0.5,0.1l-0.4,0.1l-0.5,0.1l-0.4,0.1l-0.4,0.1l-0.4,0.1l-0.4,0.1l-0.4,0.1l-0.3,0.1l-0.3,0.1l-0.3,0.1l-0.3,0.1l-0.2,0.1l-0.2,0.1l-0.2,0.1l-0.2,0.1l-0.2,0.1l-0.2,0.1l-0.1,0.1l-0.1,0.1l-0.1,0.1l-0.1,0.1l0,0.2l-0.1,0.1l0.1,0.1l0,0.2l0.1,0.1l0.1,0.1l0.1,0.1l0.1,0.1l0.2,0.1l0.2,0.1l0.2,0.2l0.2,0.1l0.2,0.1l0.3,0.1l0.2,0.1l0.3,0.1l0.3,0.1l0.4,0.1l0.3,0.1l0.4,0.1l0.4,0.1l0.4,0.2l0.4,0.1l0.5,0.1l0.5,0.1l0.4,0.1l0.6,0.1l0.5,0.1l0.5,0.1l0.6,0.2l0.6,0.1l0.6,0.1l0.6,0.1l0.7,0.1l0.7,0.1l0.7,0.2l0.7,0.1l0.7,0.1l0.7,0.1l0.8,0.1l0.8,0.1l0.8,0.2l0.8,0.1l0.9,0.1l0.8,0.1l0.9,0.1l0.9,0.2l0.9,0.1l1,0.1l0.9,0.1l1,0.1l1,0.2l1,0.1l1.1,0.1l1,0.1l1.1,0.1l1.1,0.2l1.1,0.1l1.1,0.1l1.2,0.1l1.2,0.2l1.1,0.1l1.2,0.1l1.3,0.1l1.2,0.2l1.3,0.1l1.2,0.1l1.3,0.1l1.3,0.2l1.4,0.1l1.3,0.1l1.4,0.1l1.4,0.2l1.4,0.1l1.4,0.1l1.4,0.1l1.5,0.2l1.5,0.1l1.4,0.1l1.5,0.2l1.6,0.1l1.5,0.1l1.6,0.2l1.5,0.1l1.6,0.1l1.6,0.1l1.7,0.2l1.6,0.1l1.7,0.1l1.6,0.2l1.7,0.1l1.7,0.1l1.8,0.2l1.7,0.1l1.7,0.1l1.8,0.2l1.8,0.1l1.8,0.1l1.8,0.2l1.9,0.1l1.8,0.1l1.9,0.2l1.9,0.1l1.9,0.1l1.9,0.2l1.9,0.1l1.9,0.1l2,0.2l2,0.1l1.9,0.2l2,0.1l2.1,0.1l2,0.2l2,0.1l2.1,0.1l2,0.2l2.1,0.1l2.1,0.2l2.1,0.1l2.2,0.1l2.1,0.2l2.2,0.1l2.1,0.2l2.2,0.1l2.2,0.1l2.2,0.2l2.2,0.1l2.2,0.2l2.3,0.1l2.2,0.1l2.3,0.2l2.3,0.1l2.3,0.2l2.3,0.1l2.3,0.1l2.3,0.2l2.4,0.1l2.3,0.2l2.4,0.1l2.4,0.2l2.4,0.1l2.4,0.1l2.4,0.2l2.4,0.1l2.4,0.2l2.5,0.1l2.4,0.2l2.5,0.1l2.4,0.1l2.5,0.2l2.5,0.1l2.5,0.2l2.5,0.1l2.6,0.2l2.5,0.1l2.5,0.2l2.6,0.1l2.5,0.2l2.6,0.1l2.6,0.1l2.6,0.2l2.6,0.1l2.6,0.2l2.6,0.1l2.6,0.2l2.6,0.1l2.7,0.2l2.6,0.1l2.7,0.2l2.6,0.1l2.7,0.2l2.7,0.1l2.6,0.2l2.7,0.1l2.7,0.2l2.7,0.1l2.7,0.2l2.8,0.1l2.7,0.2l2.7,0.1l2.7,0.2l2.8,0.1l2.7,0.2l2.8,0.1l2.7,0.2l2.8,0.1l2.8,0.2l2.7,0.1l2.8,0.2l2.8,0.1l2.8,0.2l2.8,0.1l2.8,0.2l2.8,0.1l2.8,0.2l2.8,0.1l2.8,0.2l2.8,0.1l2.9,0.2l2.8,0.1l2.8,0.2l2.8,0.1l2.9,0.2l2.8,0.1l2.9,0.2l2.8,0.1l2.8,0.2l2.9,0.1l2.8,0.2l2.9,0.1l2.9,0.2l2.8,0.1l2.9,0.2l2.8,0.1l2.9,0.2l2.9,0.1l2.8,0.2l2.9,0.2l2.8,0.1l2.9,0.2l2.9,0.1l2.8,0.2l2.9,0.1l2.9,0.2l2.8,0.1l2.9,0.2l2.9,0.1l2.8,0.2l2.9,0.1l2.9,0.2l2.8,0.1l2.9,0.2l2.9,0.2l2.8,0.1l2.9,0.2l2.8,0.1l2.9,0.2l2.8,0.1l2.9,0.2l2.8,0.1l2.9,0.2l2.8,0.1l2.9,0.2l2.8,0.1l2.8,0.2l2.9,0.2l2.8,0.1l2.8,0.2l2.9,0.1l2.8,0.2l2.8,0.1l2.8,0.2l2.8,0.1l2.8,0.2l2.8,0.1l2.8,0.2l2.8,0.2l2.8,0.1l2.8,0.2l2.7,0.1l2.8,0.2l2.8,0.1l2.7,0.2l2.8,0.1l2.7,0.2l2.8,0.1l2.7,0.2l2.7,0.2l2.8,0.1l2.7,0.2l2.7,0.1l2.7,0.2l2.7,0.1l2.7,0.2l2.7,0.1l2.6,0.2l2.7,0.1l2.7,0.2l2.6,0.2"/> <path id="svg_3" class="g1_1 path" d="m833.6,101.95l0,0l-0.4,0l-0.1,0.1l-1.2,0l-0.3,0.1l-0.9,0l-0.3,0.1l-1.2,0l-0.4,0.1l-0.9,0l-0.4,0.1l-0.5,0l-0.5,0.1l-1.1,0l-0.6,0.1l-0.6,0l-0.6,0.1l-0.6,0l-0.7,0.1l-0.6,0l-0.7,0.1l-0.7,0l-0.7,0.1l-0.7,0l-0.8,0.1l-0.8,0.1l-0.8,0l-0.8,0.1l-0.8,0l-0.8,0.1l-0.9,0.1l-0.9,0l-0.9,0.1l-0.9,0.1l-0.9,0.1l-1,0l-1,0.1l-0.9,0.1l-1.1,0.1l-1,0l-1,0.1l-1.1,0.1l-1.1,0.1l-1,0.1l-1.2,0l-1.1,0.1l-1.1,0.1l-1.2,0.1l-1.2,0.1l-1.2,0.1l-1.2,0.1l-1.2,0.1l-1.3,0.1l-1.2,0.1l-1.3,0.1l-1.3,0.1l-1.3,0.1l-1.4,0.1l-1.3,0.1l-1.4,0.1l-1.4,0.1l-1.4,0.1l-1.4,0.1l-1.4,0.1l-1.5,0.2l-1.4,0.1l-1.5,0.1l-1.5,0.1l-1.5,0.1l-1.6,0.1l-1.5,0.2l-1.6,0.1l-1.5,0.1l-1.6,0.1l-1.6,0.2l-1.7,0.1l-1.6,0.1l-1.6,0.2l-1.7,0.1l-1.7,0.1l-1.7,0.2l-1.7,0.1l-1.7,0.1l-1.8,0.2l-1.7,0.1l-1.8,0.2l-1.8,0.1l-1.8,0.1l-1.8,0.2l-1.8,0.1l-1.9,0.2l-1.8,0.1l-1.9,0.2l-1.9,0.1l-1.9,0.2l-1.9,0.1l-1.9,0.2l-2,0.2l-1.9,0.1l-2,0.2l-1.9,0.1l-2,0.2l-2,0.2l-2.1,0.1l-2,0.2l-2,0.2l-2.1,0.1l-2.1,0.2l-2,0.2l-2.1,0.1l-2.1,0.2l-2.1,0.2l-2.2,0.2l-2.1,0.1l-2.2,0.2l-2.1,0.2l-2.2,0.2l-2.2,0.2l-2.2,0.1l-2.2,0.2l-2.2,0.2l-2.2,0.2l-2.3,0.2l-2.2,0.2l-2.3,0.2l-2.3,0.1l-2.3,0.2l-2.2,0.2l-2.4,0.2l-2.3,0.2l-2.3,0.2l-2.3,0.2l-2.4,0.2l-2.3,0.2l-2.4,0.2l-2.4,0.2l-2.3,0.2l-2.4,0.2l-2.4,0.2l-2.4,0.2l-2.4,0.3l-2.5,0.2l-2.4,0.2l-2.4,0.2l-2.5,0.2l-2.5,0.2l-2.4,0.2l-2.5,0.2l-2.5,0.3l-2.5,0.2l-2.5,0.2l-2.5,0.2l-2.5,0.2l-2.5,0.3l-2.5,0.2l-2.6,0.2l-2.5,0.2l-2.6,0.3l-2.5,0.2l-2.6,0.2l-2.5,0.3l-2.6,0.2l-2.6,0.2l-2.6,0.2l-2.6,0.3l-2.5,0.2l-2.7,0.3l-2.6,0.2l-2.6,0.2l-2.6,0.3l-2.6,0.2l-2.6,0.2l-2.7,0.3l-2.6,0.2l-2.6,0.3l-2.7,0.2l-2.6,0.3l-2.7,0.2l-2.6,0.3l-2.7,0.2l-2.7,0.3l-2.6,0.2l-2.7,0.3l-2.7,0.2l-2.7,0.3l-2.6,0.2l-2.7,0.3l-2.7,0.2l-2.7,0.3l-2.7,0.2l-2.7,0.3l-2.7,0.3l-2.7,0.2l-2.7,0.3l-2.7,0.2l-2.7,0.3l-2.7,0.3l-2.7,0.2l-2.7,0.3l-2.7,0.3l-2.7,0.2l-2.7,0.3l-2.7,0.3l-2.7,0.2l-2.7,0.3l-2.8,0.3l-2.7,0.2l-2.7,0.3l-2.7,0.3l-2.7,0.3l-2.7,0.2l-2.7,0.3l-2.7,0.3l-2.8,0.3l-2.7,0.3l-2.7,0.2l-2.7,0.3l-2.7,0.3l-2.7,0.3l-2.7,0.3l-2.7,0.2l-2.7,0.3l-2.7,0.3l-2.7,0.3l-2.7,0.3l-2.7,0.3l-2.6,0.2l-2.7,0.3l-2.7,0.3l-2.7,0.3l-2.7,0.3l-2.6,0.3l-2.7,0.3l-2.7,0.3l-2.6,0.3l-2.7,0.3l-2.6,0.2l-2.7,0.3l-2.6,0.3l-2.7,0.3l-2.6,0.3l-2.6,0.3l-2.7,0.3l-2.6,0.3l-2.6,0.3l-2.6,0.3l-2.6,0.3l-2.6,0.3l-2.6,0.3l-2.6,0.3l-2.6,0.3l-2.6,0.3l-2.6,0.3l-2.5,0.3l-2.6,0.3l-2.5,0.3l-2.6,0.3l-2.5,0.3l-2.6,0.3l-2.5,0.4l-2.5,0.3l-2.5,0.3l-2.5,0.3l-2.5,0.3l-2.5,0.3l-2.5,0.3l-2.5,0.3l-2.5,0.3l-2.4,0.3l-2.5,0.3l-2.4,0.3l-2.4,0.4l-2.5,0.3l-2.4,0.3l-2.4,0.3l-2.4,0.3l-2.4,0.3l-2.4,0.3l-2.4,0.4l-2.3,0.3l-2.4,0.3l-2.3,0.3l-2.4,0.3l-2.3,0.3l-2.3,0.3l-2.3,0.4l-2.3,0.3l-2.3,0.3l-2.3,0.3l-2.2,0.3l-2.3,0.4l-2.2,0.3l-2.3,0.3l-2.2,0.3l-2.2,0.3l-2.2,0.3l-2.2,0.4l-2.1,0.3l-2.2,0.3l-2.2,0.3l-2.1,0.3l-2.1,0.4l-2.2,0.3l-2.1,0.3l-2.1,0.3l-2,0.4l-2.1,0.3l-2.1,0.3l-2,0.3l-2,0.3l-2.1,0.4l-2,0.3l-1.9,0.3l-2,0.3l-2,0.4l-1.9,0.3l-2,0.3l-1.9,0.3l-1.9,0.4l-1.9,0.3l-1.9,0.3l-1.9,0.3l-1.8,0.4l-1.9,0.3l-1.8,0.3l-1.8,0.3l-1.8,0.4l-1.8,0.3l-1.8,0.3l-1.7,0.3l-1.8,0.4l-1.7,0.3l-1.7,0.3l-1.7,0.3l-1.7,0.3l-1.7,0.4l-1.6,0.3l-1.7,0.3l-1.6,0.3l-1.6,0.4l-1.6,0.3l-1.6,0.3l-1.5,0.3l-1.6,0.4l-1.5,0.3l-1.5,0.3l-1.5,0.3l-1.5,0.4l-1.4,0.3l-1.5,0.3l-1.4,0.3l-1.4,0.4l-1.4,0.3l-1.4,0.3l-1.4,0.3l-1.3,0.4l-1.4,0.3l-1.3,0.3l-1.3,0.3l-1.2,0.4l-1.3,0.3l-1.3,0.3l-1.2,0.3l-1.2,0.4l-1.2,0.3l-1.2,0.3l-1.1,0.3l-1.2,0.3l-1.1,0.4l-1.1,0.3l-1.1,0.3l-1.1,0.3l-1,0.3l-1.1,0.4l-1,0.3l-1,0.3l-1,0.3l-0.9,0.3l-1,0.4l-0.9,0.3l-0.9,0.3l-0.9,0.3l-0.9,0.3l-0.9,0.4l-0.8,0.3l-0.8,0.3l-0.8,0.3l-0.8,0.3l-0.8,0.3l-0.7,0.4l-0.7,0.3l-0.8,0.3l-0.7,0.3l-0.6,0.3l-0.7,0.3l-0.6,0.3l-0.6,0.4l-0.6,0.3l-0.6,0.3l-0.6,0.3l-0.5,0.3l-0.5,0.3l-0.5,0.3l-0.5,0.3l-0.5,0.3l-0.4,0.4l-0.5,0.3l-0.4,0.3l-0.4,0.3l-0.3,0.3l-0.4,0.3l-0.3,0.3l-0.3,0.3l-0.3,0.3l-0.3,0.3l-0.3,0.3l-0.2,0.3l-0.2,0.3l-0.2,0.3l-0.2,0.3l-0.1,0.3l-0.2,0.3l-0.1,0.3l-0.1,0.3l-0.1,0.3l-0.1,0.3l0,1.5l0.1,0.3l0,0.3l0.1,0.3l0.1,0.3l0.2,0.3l0.1,0.3l0.2,0.3l0.2,0.3l0.2,0.3l0.2,0.3l0.2,0.3l0.3,0.2l0.3,0.3l0.3,0.3l0.3,0.3l0.4,0.3l0.3,0.3l0.4,0.3l0.4,0.2l0.4,0.3l0.5,0.3l0.4,0.3l0.5,0.3l0.5,0.3l0.5,0.2l0.5,0.3l0.6,0.3l0.5,0.3l0.6,0.3l0.6,0.2l0.7,0.3l0.6,0.3l0.7,0.2l0.6,0.3l0.7,0.3l0.8,0.3l0.7,0.2l0.8,0.3l0.7,0.3l0.8,0.2l0.8,0.3l0.9,0.3l0.8,0.2l0.9,0.3l0.9,0.3l0.9,0.2l0.9,0.3l0.9,0.3l1,0.2l1,0.3l1,0.2l1,0.3l1,0.3l1.1,0.2l1,0.3l1.1,0.2l1.1,0.3l1.1,0.2l1.2,0.3l1.1,0.2l1.2,0.3l1.2,0.2l1.2,0.3l1.2,0.2l1.2,0.3l1.3,0.2l1.3,0.3l1.3,0.2l1.3,0.2l1.3,0.3l1.4,0.2l1.3,0.3l1.4,0.2l1.4,0.2l1.4,0.3l1.4,0.2l1.5,0.2l1.4,0.3l1.5,0.2l1.5,0.2l1.5,0.3l1.5,0.2l1.6,0.2l1.5,0.3l1.6,0.2l1.6,0.2l1.6,0.2l1.6,0.2l1.6,0.3l1.7,0.2l1.7,0.2l1.6,0.2l1.7,0.2l1.8,0.3l1.7,0.2l1.7,0.2l1.8,0.2l1.7,0.2l1.8,0.2l1.8,0.2l1.9,0.2l1.8,0.3l1.8,0.2l1.9,0.2l1.9,0.2l1.8,0.2l1.9,0.2l2,0.2l1.9,0.2l1.9,0.2l2,0.2l2,0.2l1.9,0.2l2,0.2l2,0.1l2.1,0.2l2,0.2l2.1,0.2l2,0.2l2.1,0.2l2.1,0.2l2.1,0.2l2.1,0.1l2.1,0.2l2.1,0.2l2.2,0.2l2.2,0.2l2.1,0.1l2.2,0.2l2.2,0.2l2.2,0.2l2.2,0.1l2.3,0.2l2.2,0.2l2.3,0.1l2.2,0.2l2.3,0.2l2.3,0.1l2.3,0.2l2.3,0.2l2.3,0.1l2.3,0.2l2.4,0.1l2.3,0.2l2.4,0.2l2.3,0.1l2.4,0.2l2.4,0.1l2.4,0.2l2.4,0.1l2.4,0.2l2.4,0.1l2.5,0.2l2.4,0.1l2.4,0.1l2.5,0.2l2.5,0.1l2.4,0.2l2.5,0.1l2.5,0.1l2.5,0.2l2.5,0.1l2.5,0.1l2.6,0.2l2.5,0.1l2.5,0.1l2.6,0.2l2.5,0.1l2.6,0.1l2.6,0.1l2.5,0.2l2.6,0.1l2.6,0.1l2.6,0.1l2.6,0.1l2.6,0.1l2.6,0.2l2.6,0.1l2.6,0.1l2.7,0.1l2.6,0.1l2.6,0.1l2.7,0.1l2.6,0.1l2.7,0.1l2.7,0.1l2.6,0.1l2.7,0.1l2.7,0.1l2.6,0.1l2.7,0.1l2.7,0.1l2.7,0.1l2.7,0.1l2.7,0.1l2.7,0l2.7,0.1l2.7,0.1l2.7,0.1l2.7,0.1l2.7,0.1l2.7,0l2.8,0.1l2.7,0.1l2.7,0.1l2.7,0l2.8,0.1l2.7,0.1l2.7,0.1l2.8,0l2.7,0.1l2.7,0l2.8,0.1l2.7,0.1l2.8,0l2.7,0.1l2.7,0l2.8,0.1l2.7,0.1l2.8,0l2.7,0.1l2.7,0l2.8,0.1l2.7,0l2.8,0.1l5.5,0l2.7,0.1l2.7,0l2.8,0.1l5.4,0l2.8,0.1l5.4,0l2.8,0.1l8.1,0l2.7,0.1l10.9,0l2.7,0.1l21.5,0l2.6,0.1l10.7,0l2.6,-0.1l21,0l2.5,-0.1l10.3,0l2.6,-0.1l7.6,0l2.6,-0.1l5,0l2.5,-0.1l5,0l2.5,-0.1l2.5,0l2.4,-0.1l4.9,0l2.5,-0.1l2.4,0l2.4,-0.1l2.4,0l2.4,-0.1l2.4,0l2.4,-0.1l2.4,-0.1l2.3,0l2.4,-0.1l2.3,0l2.4,-0.1l2.3,-0.1l2.3,0l2.3,-0.1l2.3,-0.1l2.3,0l2.3,-0.1l2.2,-0.1l2.3,0l2.2,-0.1l2.2,-0.1l2.3,-0.1l2.2,0l2.2,-0.1l2.1,-0.1l2.2,-0.1l2.2,-0.1l2.1,-0.1l2.1,0l2.2,-0.1l2.1,-0.1l2.1,-0.1l2.1,-0.1l2,-0.1l2.1,-0.1l2,-0.1l2.1,-0.1l2,-0.1l2,-0.1l2,-0.1l1.9,-0.1l2,-0.1l2,-0.1l1.9,-0.1l1.9,-0.1l1.9,-0.1l1.9,-0.2l1.9,-0.1l1.9,-0.1l1.8,-0.1l1.9,-0.1l1.8,-0.1l1.8,-0.2l1.8,-0.1l1.8,-0.1l1.8,-0.1l1.7,-0.2l1.7,-0.1l1.8,-0.1l1.7,-0.1l1.7,-0.2l1.6,-0.1l1.7,-0.1l1.6,-0.2l1.7,-0.1l1.6,-0.1l1.6,-0.2l1.6,-0.1l1.5,-0.2l1.6,-0.1l1.5,-0.2l1.5,-0.1l1.5,-0.1l1.5,-0.2l1.5,-0.1l1.4,-0.2l1.5,-0.1l1.4,-0.2l1.4,-0.2l1.4,-0.1l1.3,-0.2l1.4,-0.1l1.3,-0.2l1.3,-0.1l1.3,-0.2l1.3,-0.2l1.3,-0.1l1.2,-0.2l1.3,-0.2l1.2,-0.1l1.2,-0.2l1.2,-0.2l1.1,-0.2l1.2,-0.1l1.1,-0.2l1.1,-0.2l1.1,-0.2l1.1,-0.1l1,-0.2l1.1,-0.2l1,-0.2l1,-0.2l1,-0.2l0.9,-0.1l1,-0.2l0.9,-0.2l0.9,-0.2l0.9,-0.2l0.9,-0.2l0.8,-0.2l0.9,-0.2l0.8,-0.2l0.8,-0.2l0.8,-0.2l0.7,-0.2l0.8,-0.2l0.7,-0.2l0.7,-0.2l0.7,-0.2l0.6,-0.2l0.7,-0.2l0.6,-0.2l0.6,-0.2l0.6,-0.2l0.6,-0.2l0.5,-0.2l0.6,-0.2l0.5,-0.3l0.5,-0.2l0.5,-0.2l0.4,-0.2l0.5,-0.2l0.4,-0.2l0.4,-0.3l0.4,-0.2l0.3,-0.2l0.4,-0.2l0.3,-0.3l0.3,-0.2l0.3,-0.2l0.2,-0.2l0.3,-0.3l0.2,-0.2l0.2,-0.2l0.2,-0.3l0.2,-0.2l0.1,-0.2l0.2,-0.3l0.1,-0.2l0.1,-0.2l0,-0.3l0.1,-0.2l0,-1l-0.1,-0.2l0,-0.3l-0.1,-0.2l-0.1,-0.3l-0.2,-0.2l-0.1,-0.2l-0.2,-0.3l-0.1,-0.2l-0.2,-0.3l-0.3,-0.3l-0.2,-0.2l-0.3,-0.3l-0.3,-0.2l-0.3,-0.3l-0.3,-0.2l-0.3,-0.3l-0.4,-0.2l-0.3,-0.3l-0.4,-0.3l-0.5,-0.2l-0.4,-0.3l-0.4,-0.3l-0.5,-0.2l-0.5,-0.3l-0.5,-0.2l-0.6,-0.3l-0.5,-0.3l-0.6,-0.3l-0.6,-0.2l-0.6,-0.3l-0.6,-0.3l-0.6,-0.2l-0.7,-0.3l-0.7,-0.3l-0.7,-0.3l-0.7,-0.2l-0.8,-0.3l-0.7,-0.3l-0.8,-0.3l-0.8,-0.2l-0.8,-0.3l-0.8,-0.3l-0.9,-0.3l-0.9,-0.3l-0.9,-0.2l-0.9,-0.3l-0.9,-0.3l-0.9,-0.3l-1,-0.3l-1,-0.3l-1,-0.2l-1,-0.3l-1,-0.3l-1.1,-0.3l-1.1,-0.3l-1.1,-0.3l-1.1,-0.3l-1.1,-0.3l-1.1,-0.3l-1.2,-0.3l-1.2,-0.2l-1.2,-0.3l-1.2,-0.3l-1.2,-0.3l-1.3,-0.3l-1.2,-0.3l-1.3,-0.3l-1.3,-0.3l-1.3,-0.3l-1.4,-0.3l-1.3,-0.3l-1.4,-0.3l-1.4,-0.3l-1.4,-0.3l-1.4,-0.3l-1.5,-0.3l-1.4,-0.3l-1.5,-0.3l-1.5,-0.3l-1.5,-0.3l-1.5,-0.3l-1.5,-0.3l-1.6,-0.3l-1.6,-0.4l-1.5,-0.3l-1.6,-0.3l-1.7,-0.3l-1.6,-0.3l-1.6,-0.3l-1.7,-0.3l-1.7,-0.3l-1.7,-0.3l-1.7,-0.3l-1.7,-0.3l-1.8,-0.4l-1.7,-0.3l-1.8,-0.3l-1.8,-0.3l-1.8,-0.3l-1.8,-0.3l-1.8,-0.3l-1.9,-0.4l-1.8,-0.3l-1.9,-0.3l-1.9,-0.3l-1.9,-0.3l-1.9,-0.3l-1.9,-0.3l-2,-0.4l-2,-0.3l-1.9,-0.3l-2,-0.3l-2,-0.3l-2,-0.4l-2.1,-0.3l-2,-0.3l-2.1,-0.3l-2,-0.3l-2.1,-0.4l-2.1,-0.3l-2.1,-0.3l-2.1,-0.3l-2.2,-0.3l-2.1,-0.4l-2.2,-0.3l-2.1,-0.3l-2.2,-0.3l-2.2,-0.4l-2.2,-0.3l-2.2,-0.3l-2.2,-0.3l-2.3,-0.3l-2.2,-0.4l-2.3,-0.3l-2.3,-0.3l-2.3,-0.3l-2.3,-0.4l-2.3,-0.3l-2.3,-0.3l-2.3,-0.3l-2.3,-0.4l-2.4,-0.3l-2.4,-0.3l-2.3,-0.3l-2.4,-0.4l-2.4,-0.3l-2.4,-0.3l-2.4,-0.4l-2.4,-0.3l-2.5,-0.3l-2.4,-0.3l-2.4,-0.4l-2.5,-0.3l-2.5,-0.3l-2.4,-0.3l-2.5,-0.4l-2.5,-0.3l-2.5,-0.3l-2.5,-0.4l-2.5,-0.3l-2.6,-0.3l-2.5,-0.3l-2.5,-0.4l-2.6,-0.3l-2.5,-0.3l-2.6,-0.3l-2.6,-0.4l-2.6,-0.3l-2.5,-0.3l-2.6,-0.4l-2.6,-0.3l-2.6,-0.3l-2.7,-0.3l-2.6,-0.4l-2.6,-0.3l-2.6,-0.3l-2.7,-0.3l-2.6,-0.4l-2.7,-0.3l-2.6,-0.3l-2.7,-0.3l-2.7,-0.4l-2.6,-0.3l-2.7,-0.3l-2.7,-0.3l-2.7,-0.4l-2.7,-0.3l-2.7,-0.3l-2.7,-0.4l-2.7,-0.3l-2.7,-0.3l-2.7,-0.3l-2.7,-0.4l-2.7,-0.3l-2.8,-0.3l-2.7,-0.3l-2.7,-0.3l-2.8,-0.4l-2.7,-0.3l-2.7,-0.3l-2.8,-0.3l-2.7,-0.4l-2.8,-0.3l-2.7,-0.3l-2.8,-0.3l-2.7,-0.4l-2.8,-0.3l-2.8,-0.3l-2.7,-0.3l-2.8,-0.3l-2.8,-0.4l-2.7,-0.3l-2.8,-0.3l-2.8,-0.3l-2.7,-0.3l-2.8,-0.4l-2.8,-0.3l-2.7,-0.3l-2.8,-0.3l-2.8,-0.3l-2.8,-0.3l-2.7,-0.4l-2.8,-0.3l-2.8,-0.3l-2.7,-0.3l-2.8,-0.3l-2.8,-0.3l-2.8,-0.3l-2.7,-0.4l-2.8,-0.3l-2.8,-0.3l-2.7,-0.3l-2.8,-0.3l-2.8,-0.3l-2.7,-0.3l-2.8,-0.3l-2.7,-0.4l-2.8,-0.3l-2.7,-0.3l-2.8,-0.3l-2.7,-0.3l-2.8,-0.3l-2.7,-0.3l-2.7,-0.3l-2.8,-0.3l-2.7,-0.3l-2.7,-0.3l-2.8,-0.3l-2.7,-0.3l-2.7,-0.3l-2.7,-0.3l-2.7,-0.3l-2.7,-0.3l-2.7,-0.3l-2.7,-0.3l-2.7,-0.3l-2.7,-0.3l-2.7,-0.3l-2.6,-0.3l-2.7,-0.3l-2.7,-0.3l-2.6,-0.3l-2.7,-0.3l-2.6,-0.3l-2.7,-0.3l-2.6,-0.3l-2.6,-0.3l-2.7,-0.3l-2.6,-0.3l-2.6,-0.3l-2.6,-0.3l-2.6,-0.3l-2.6,-0.3l-2.6,-0.2l-2.5,-0.3l-2.6,-0.3l-2.6,-0.3l-2.5,-0.3l-2.6,-0.3l-2.5,-0.3l-2.5,-0.2l-2.5,-0.3l-2.6,-0.3l-2.5,-0.3l-2.5,-0.3l-2.4,-0.2l-2.5,-0.3l-2.5,-0.3l-2.4,-0.3l-2.5,-0.3l-2.4,-0.2l-2.5,-0.3l-2.4,-0.3l-2.4,-0.3l-2.4,-0.2l-2.4,-0.3l-2.4,-0.3l-2.4,-0.2l-2.3,-0.3l-2.4,-0.3l-2.3,-0.3l-2.4,-0.2l-2.3,-0.3l-2.3,-0.3l-2.3,-0.2l-2.3,-0.3l-2.3,-0.2l-2.2,-0.3l-2.3,-0.3l-2.2,-0.2l-2.3,-0.3l-2.2,-0.2l-2.2,-0.3l-2.2,-0.3l-2.2,-0.2l-2.1,-0.3l-2.2,-0.2l-2.1,-0.3l-2.2,-0.2l-2.1,-0.3l-2.1,-0.2l-2.1,-0.3l-2.1,-0.2l-2.1,-0.3l-2,-0.2l-2.1,-0.3l-2,-0.2l-2,-0.3l-2,-0.2l-2,-0.2l-2,-0.3l-2,-0.2l-1.9,-0.3l-1.9,-0.2l-2,-0.2l-1.9,-0.3l-1.9,-0.2l-1.8,-0.2l-1.9,-0.3l-1.9,-0.2l-1.8,-0.2l-1.8,-0.3l-1.8,-0.2l-1.8,-0.2l-1.8,-0.2l-1.7,-0.3l-1.8,-0.2l-1.7,-0.2l-1.7,-0.2l-1.7,-0.2l-1.7,-0.3l-1.7,-0.2l-1.6,-0.2l-1.7,-0.2l-1.6,-0.2l-1.6,-0.2l-1.6,-0.3l-1.5,-0.2l-1.6,-0.2l-1.5,-0.2l-1.6,-0.2l-1.5,-0.2l-1.5,-0.2l-1.4,-0.2l-1.5,-0.2l-1.4,-0.2l-1.5,-0.2l-1.4,-0.2l-1.3,-0.2l-1.4,-0.2l-1.4,-0.2l-1.3,-0.2l-1.3,-0.2l-1.3,-0.2l-1.3,-0.2l-1.3,-0.2l-1.2,-0.2l-1.3,-0.2l-1.2,-0.2l-1.2,-0.1l-1.2,-0.2l-1.1,-0.2l-1.2,-0.2l-1.1,-0.2l-1.1,-0.2l-1.1,-0.1l-1.1,-0.2l-1,-0.2l-1.1,-0.2l-1,-0.1l-1,-0.2l-1,-0.2l-0.9,-0.1l-1,-0.2l-0.9,-0.2l-0.9,-0.2l-0.9,-0.1l-0.8,-0.2l-0.9,-0.1l-0.8,-0.2l-0.8,-0.2l-0.8,-0.1l-0.8,-0.2l-0.8,-0.1l-0.7,-0.2l-0.7,-0.1l-0.7,-0.2l-0.7,-0.1l-0.7,-0.2l-0.6,-0.1l-0.6,-0.2l-0.6,-0.1l-0.6,-0.2l-0.6,-0.1l-0.5,-0.2l-0.6,-0.1l-0.5,-0.1l-0.4,-0.2l-0.5,-0.1l-0.5,-0.2l-0.4,-0.1l-0.4,-0.1l-0.4,-0.2l-0.4,-0.1l-0.3,-0.1l-0.4,-0.1l-0.3,-0.2l-0.3,-0.1l-0.2,-0.1l-0.3,-0.1l-0.2,-0.2l-0.2,-0.1l-0.2,-0.1l-0.2,-0.1l-0.2,-0.1l-0.1,-0.1l-0.1,-0.1l-0.1,-0.2l-0.1,-0.1l0,-0.1l-0.1,-0.1l0,-0.3l0.1,-0.1l0,-0.1l0.1,-0.1l0.1,-0.1l0.1,-0.1l0.2,-0.1l0.1,-0.1l0.2,-0.1l0.2,-0.1l0.2,0l0.3,-0.1l0.2,-0.1l0.3,-0.1l0.3,-0.1l0.3,-0.1l0.4,0l0.3,-0.1l0.4,-0.1l0.4,-0.1l0.4,0l0.4,-0.1l0.5,-0.1l0.5,-0.1l0.5,0l0.5,-0.1l0.5,-0.1l0.6,0l0.5,-0.1l0.6,-0.1l0.6,0l0.6,-0.1l0.7,0l0.7,-0.1l0.6,0l0.8,-0.1l0.7,0l0.7,-0.1l0.8,0l0.8,-0.1l0.8,0l0.8,-0.1l0.8,0l0.9,-0.1l1.7,0l1,-0.1l1.8,0l1,-0.1l2,0l1,-0.1l3.2,0l1.1,-0.1l5.8,0l1.2,-0.1l23.1,0l1.6,0.1l7.8,0l1.6,0.1l4.9,0l1.7,0.1l3.4,0l1.7,0.1l3.5,0l1.8,0.1l3.6,0l1.8,0.1l1.9,0l1.8,0.1l1.9,0l1.8,0.1l1.9,0l1.9,0.1l2,0l1.9,0.1l1.9,0l2,0.1l2,0l2,0.1l2,0.1l2,0l2,0.1l2.1,0l2,0.1l2.1,0.1l2.1,0l2.1,0.1l2.1,0.1l2.1,0.1l2.2,0l2.1,0.1l2.2,0.1l2.2,0.1l2.2,0l2.2,0.1l2.2,0.1l2.2,0.1l2.2,0.1l2.3,0.1l2.2,0.1l2.3,0l2.3,0.1l2.3,0.1l2.3,0.1l2.3,0.1l2.4,0.1l2.3,0.1l2.3,0.1l2.4,0.1l2.4,0.1l2.4,0.1l2.4,0.1l2.4,0.1l2.4,0.1l2.4,0.2l2.4,0.1l2.5,0.1l2.4,0.1l2.5,0.1l2.5,0.1l2.4,0.1l2.5,0.2l2.5,0.1l2.5,0.1l2.6,0.1l2.5,0.1l2.5,0.2l2.6,0.1l2.5,0.1l2.6,0.2l2.5,0.1l2.6,0.1l2.6,0.2l2.6,0.1l2.6,0.1l2.6,0.2l2.6,0.1l2.6,0.1l2.7,0.2l2.6,0.1l2.6,0.2l2.7,0.1l2.6,0.2l2.7,0.1l2.7,0.2l2.6,0.1l2.7,0.2l2.7,0.1l2.7,0.2l2.7,0.1l2.7,0.2l2.7,0.2l2.7,0.1l2.7,0.2l2.7,0.1l2.8,0.2l2.7,0.2l2.7,0.1l2.8,0.2l2.7,0.2l2.7,0.2l2.8,0.1l2.8,0.2l2.7,0.2l2.8,0.1l2.7,0.2l2.8,0.2l2.8,0.2l2.8,0.2l2.7,0.1l2.8,0.2l2.8,0.2l2.8,0.2l2.8,0.2l2.8,0.2l2.7,0.2l2.8,0.1l2.8,0.2l2.8,0.2l2.8,0.2l2.8,0.2l2.8,0.2l2.8,0.2l2.8,0.2l2.8,0.2l2.8,0.2l2.8,0.2l2.8,0.2l2.8,0.2l2.8,0.2l2.9,0.2l2.8,0.2l2.8,0.3l2.8,0.2l2.8,0.2l2.8,0.2l2.8,0.2l2.8,0.2l2.8,0.2l2.8,0.3l2.7,0.2l2.8,0.2l2.8,0.2l2.8,0.2l2.8,0.3l2.8,0.2l2.8,0.2l2.8,0.2l2.7,0.3l2.8,0.2l2.8,0.2l2.7,0.2l2.8,0.3l2.8,0.2l2.7,0.2l2.8,0.3l2.7,0.2l2.8,0.2l2.7,0.3l2.8,0.2l2.7,0.3l2.7,0.2l2.8,0.2l2.7,0.3l2.7,0.2l2.7,0.3l2.7,0.2l2.7,0.3l2.7,0.2l2.7,0.3l2.7,0.2l2.7,0.3l2.6,0.2l2.7,0.3l2.7,0.2l2.6,0.3l2.7,0.2l2.6,0.3l2.6,0.2l2.7,0.3l2.6,0.2l2.6,0.3l2.6,0.3l2.6,0.2l2.6,0.3l2.6,0.3l2.6,0.2l2.5,0.3l2.6,0.2l2.5,0.3l2.6,0.3l2.5,0.2l2.5,0.3l2.6,0.3l2.5,0.3l2.5,0.2l2.4,0.3l2.5,0.3l2.5,0.2l2.5,0.3l2.4,0.3l2.5,0.3l2.4,0.3l2.4,0.2l2.4,0.3l2.4,0.3l2.4,0.3l2.4,0.3l2.4,0.2l2.3,0.3l2.4,0.3l2.3,0.3l2.4,0.3l2.3,0.3l2.3,0.2l2.3,0.3l2.3,0.3l2.2,0.3l2.3,0.3l2.2,0.3l2.3,0.3l2.2,0.3l2.2,0.3l2.2,0.3l2.2,0.2l2.2,0.3l2.2,0.3l2.1,0.3l2.1,0.3l2.2,0.3l2.1,0.3l2.1,0.3l2.1,0.3l2,0.3l2.1,0.3l2,0.3l2.1,0.3l2,0.3l2,0.3l2,0.3l2,0.3l1.9,0.3l2,0.3l1.9,0.3l1.9,0.3l1.9,0.4l1.9,0.3l1.9,0.3l1.8,0.3l1.9,0.3l1.8,0.3l1.8,0.3l1.8,0.3l1.8,0.3l1.8,0.3l1.7,0.3l1.8,0.4l1.7,0.3l1.7,0.3l1.7,0.3l1.7,0.3l1.6,0.3l1.7,0.3l1.6,0.4l1.6,0.3l1.6,0.3l1.6,0.3l1.5,0.3l1.6,0.3l1.5,0.4l1.5,0.3l1.5,0.3l1.5,0.3l1.5,0.3l1.4,0.3l1.4,0.4l1.4,0.3l1.4,0.3l1.4,0.3l1.4,0.3l1.3,0.4l1.3,0.3l1.3,0.3l1.3,0.3l1.3,0.4l1.2,0.3l1.3,0.3l1.2,0.3l1.2,0.4l1.2,0.3l1.1,0.3l1.2,0.3l1.1,0.3l1.1,0.4l1.1,0.3l1.1,0.3l1,0.4l1,0.3l1.1,0.3l1,0.3l0.9,0.4l1,0.3l0.9,0.3l1,0.3l0.9,0.4l0.9,0.3l0.8,0.3l0.9,0.3l0.8,0.4l0.8,0.3l0.8,0.3l0.8,0.4l0.7,0.3l0.7,0.3l0.8,0.3l0.6,0.4l0.7,0.3l0.7,0.3l0.6,0.4l0.6,0.3l0.6,0.3l0.6,0.4l0.6,0.3l0.5,0.3l0.5,0.3l0.5,0.4l0.5,0.3l0.5,0.3l0.4,0.4l0.4,0.3l0.4,0.3l0.4,0.3l0.4,0.4l0.3,0.3l0.3,0.3l0.3,0.4l0.3,0.3l0.3,0.3l0.2,0.4l0.2,0.3l0.2,0.3l0.2,0.3l0.2,0.4l0.1,0.3l0.2,0.3l0.1,0.4l0,0.3l0.1,0.3l0,0.3l0.1,0.4l0,0.6l-0.1,0.4l0,0.3l-0.1,0.3l-0.1,0.3l-0.1,0.4l-0.2,0.3l-0.1,0.3l-0.2,0.3l-0.2,0.4l-0.2,0.3l-0.2,0.3l-0.3,0.4l-0.3,0.3l-0.3,0.3l-0.3,0.3l-0.3,0.4l-0.4,0.3l-0.3,0.3l-0.4,0.3l-0.4,0.4l-0.5,0.3l-0.4,0.3l-0.5,0.3l-0.5,0.3l-0.5,0.4l-0.5,0.3l-0.6,0.3l-0.6,0.3l-0.6,0.4l-0.6,0.3l-0.6,0.3l-0.6,0.3l-0.7,0.3l-0.7,0.4l-0.7,0.3l-0.7,0.3l-0.8,0.3l-0.7,0.3l-0.8,0.3l-0.8,0.4l-0.9,0.3l-0.8,0.3l-0.9,0.3l-0.8,0.3l-0.9,0.3l-1,0.4l-0.9,0.3l-0.9,0.3l-1,0.3l-1,0.3l-1,0.3l-1.1,0.3l-1,0.3l-1.1,0.4l-1.1,0.3l-1.1,0.3l-1.1,0.3l-1.1,0.3l-1.2,0.3l-1.2,0.3l-1.2,0.3l-1.2,0.3l-1.2,0.3l-1.2,0.3l-1.3,0.3l-1.3,0.4l-1.3,0.3l-1.3,0.3l-1.4,0.3l-1.3,0.3l-1.4,0.3l-1.4,0.3l-1.4,0.3l-1.4,0.3l-1.5,0.3l-1.4,0.3l-1.5,0.3l-1.5,0.3l-1.5,0.3l-1.5,0.3l-1.6,0.3l-1.5,0.2l-1.6,0.3l-1.6,0.3l-1.6,0.3l-1.7,0.3l-1.6,0.3l-1.7,0.3l-1.6,0.3l-1.7,0.3l-1.7,0.3l-1.8,0.3l-1.7,0.2l-1.8,0.3l-1.7,0.3l-1.8,0.3l-1.8,0.3l-1.8,0.3l-1.9,0.3l-1.8,0.2l-1.9,0.3l-1.9,0.3l-1.9,0.3l-1.9,0.3l-1.9,0.2l-1.9,0.3l-2,0.3l-1.9,0.3l-2,0.2l-2,0.3l-2,0.3l-2.1,0.3l-2,0.2l-2,0.3l-2.1,0.3l-2.1,0.2l-2.1,0.3l-2.1,0.3l-2.1,0.3l-2.1,0.2l-2.2,0.3l-2.1,0.2l-2.2,0.3l-2.2,0.3l-2.2,0.2l-2.2,0.3l-2.2,0.3l-2.3,0.2l-2.2,0.3l-2.3,0.2l-2.2,0.3l-2.3,0.2l-2.3,0.3l-2.3,0.2l-2.3,0.3l-2.4,0.3l-2.3,0.2l-2.4,0.2l-2.3,0.3l-2.4,0.2l-2.4,0.3l-2.4,0.2l-2.4,0.3l-2.4,0.2l-2.4,0.3l-2.5,0.2l-2.4,0.2l-2.5,0.3l-2.4,0.2l-2.5,0.3l-2.5,0.2l-2.5,0.2l-2.5,0.3l-2.5,0.2l-2.6,0.2l-2.5,0.3l-2.5,0.2l-2.6,0.2l-2.5,0.3l-2.6,0.2l-2.6,0.2l-2.6,0.2l-2.6,0.3l-2.6,0.2l-2.6,0.2l-2.6,0.2l-2.6,0.2l-2.7,0.3l-2.6,0.2l-2.6,0.2l-2.7,0.2l-2.7,0.2l-2.6,0.2l-2.7,0.2l-2.7,0.3l-2.7,0.2l-2.7,0.2l-2.7,0.2l-2.7,0.2l-2.7,0.2l-2.7,0.2l-2.7,0.2l-2.7,0.2l-2.8,0.2l-2.7,0.2l-2.8,0.2l-2.7,0.2l-2.8,0.2l-2.7,0.2l-2.8,0.2l-2.8,0.2l-2.7,0.2l-2.8,0.1l-2.8,0.2l-2.8,0.2l-2.8,0.2l-2.8,0.2l-2.8,0.2l-2.7,0.2l-2.9,0.1l-2.8,0.2l-2.8,0.2l-2.8,0.2l-2.8,0.1l-2.8,0.2l-2.8,0.2l-2.8,0.2l-2.9,0.1l-2.8,0.2l-2.8,0.2l-2.8,0.1l-2.9,0.2l-2.8,0.2l-2.8,0.1l-2.9,0.2l-2.8,0.2l-2.8,0.1l-2.9,0.2l-2.8,0.1l-2.8,0.2l-2.9,0.1l-2.8,0.2l-2.8,0.1l-2.9,0.2l-2.8,0.1l-2.8,0.2l-2.9,0.1l-2.8,0.2l-2.8,0.1l-2.9,0.2l-2.8,0.1l-2.8,0.1l-2.8,0.2l-2.9,0.1l-2.8,0.2l-2.8,0.1l-2.8,0.1l-2.9,0.2l-2.8,0.1l-2.8,0.1l-2.8,0.1l-2.8,0.2l-2.8,0.1l-2.8,0.1l-2.8,0.1l-2.8,0.2l-2.8,0.1l-2.8,0.1l-2.7,0.1l-2.8,0.1l-2.8,0.1l-2.8,0.2l-2.7,0.1l-2.8,0.1l-2.8,0.1l-2.7,0.1l-2.8,0.1l-2.7,0.1l-2.7,0.1l-2.8,0.1l-2.7,0.1l-2.7,0.1l-2.7,0.1l-2.7,0.1l-2.8,0.1l-2.6,0.1l-2.7,0.1l-2.7,0.1l-2.7,0l-2.7,0.1l-2.6,0.1l-2.7,0.1l-2.7,0.1l-2.6,0.1l-2.6,0l-2.7,0.1l-2.6,0.1l-2.6,0.1l-2.6,0l-2.6,0.1l-2.6,0.1l-2.6,0.1l-2.6,0l-2.5,0.1l-2.6,0.1l-2.5,0l-2.6,0.1l-2.5,0l-2.5,0.1l-2.5,0.1l-2.5,0l-2.5,0.1l-2.5,0l-2.5,0.1l-2.4,0l-2.5,0.1l-2.4,0l-2.5,0.1l-2.4,0l-2.4,0.1l-4.8,0l-2.4,0.1l-2.3,0l-2.4,0.1l-4.7,0l-2.3,0.1l-6.9,0l-2.3,0.1l-6.8,0l-2.2,0.1l-10.9,0l-2.2,0.1l-26.7,0l-2,-0.1l-11.4,0l-1.9,-0.1l-5.5,0l-1.8,-0.1l-5.2,0l-1.8,-0.1l-3.4,0l-1.7,-0.1l-1.6,0l-1.7,-0.1l-3.2,0l-1.6,-0.1l-1.6,0l-1.6,-0.1l-1.5,0l-1.6,-0.1l-1.5,0l-1.5,-0.1l-1.5,0l-1.4,-0.1l-1.5,0l-1.4,-0.1l-1.4,-0.1l-1.4,0l-1.4,-0.1l-1.3,0l-1.4,-0.1l-1.3,-0.1l-1.3,0l-1.3,-0.1l-1.3,-0.1l-1.2,-0.1l-1.3,0l-1.2,-0.1l-1.2,-0.1l-1.2,-0.1l-1.1,0l-1.2,-0.1l-1.1,-0.1l-1.1,-0.1l-1.1,-0.1l-1.1,-0.1l-1,-0.1l-1,0l-1.1,-0.1l-1,-0.1l-0.9,-0.1l-1,-0.1l-0.9,-0.1l-0.9,-0.1l-0.9,-0.1l-0.9,-0.1l-0.9,-0.1l-0.8,-0.1l-0.9,-0.1l-0.8,-0.1l-0.7,-0.1l-0.8,-0.2l-0.8,-0.1l-0.7,-0.1l-0.7,-0.1l-0.7,-0.1l-0.6,-0.1l-0.7,-0.1l-0.6,-0.2l-0.6,-0.1l-0.6,-0.1l-0.6,-0.1l-0.5,-0.1l-0.6,-0.2l-0.5,-0.1l-0.5,-0.1l-0.4,-0.2l-0.5,-0.1l-0.4,-0.1l-0.4,-0.2l-0.4,-0.1l-0.4,-0.1l-0.4,-0.2l-0.3,-0.1l-0.3,-0.2l-0.3,-0.1l-0.3,-0.1l-0.2,-0.2l-0.2,-0.1l-0.2,-0.2l-0.2,-0.1l-0.2,-0.2l-0.2,-0.1l-0.1,-0.2l-0.1,-0.1l-0.1,-0.2l-0.1,-0.2l0,-0.3l-0.1,-0.1l0.1,-0.2l0,-0.3l0.1,-0.2l0.1,-0.2l0.1,-0.1l0.1,-0.2l0.2,-0.2l0.2,-0.1l0.2,-0.2l0.2,-0.2l0.2,-0.2l0.3,-0.1l0.2,-0.2l0.3,-0.2l0.3,-0.2l0.4,-0.2l0.3,-0.1l0.4,-0.2l0.4,-0.2l0.4,-0.2l0.4,-0.2l0.5,-0.2l0.5,-0.2l0.4,-0.2l0.6,-0.2l0.5,-0.2l0.5,-0.2l0.6,-0.2l0.6,-0.1l0.6,-0.2l0.6,-0.2l0.7,-0.3l0.7,-0.2l0.7,-0.2l0.7,-0.2l0.7,-0.2l0.7,-0.2l0.8,-0.2l0.8,-0.2l0.8,-0.2l0.8,-0.2l0.9,-0.2l0.8,-0.2l0.9,-0.3l0.9,-0.2l0.9,-0.2l1,-0.2l0.9,-0.2l1,-0.3l1,-0.2l1,-0.2l1.1,-0.2l1,-0.3l1.1,-0.2l1.1,-0.2l1.1,-0.2l1.1,-0.3l1.2,-0.2l1.2,-0.2l1.1,-0.3l1.2,-0.2l1.3,-0.2l1.2,-0.3l1.3,-0.2l1.2,-0.2l1.3,-0.3l1.3,-0.2l1.4,-0.3l1.3,-0.2l1.4,-0.3l1.4,-0.2l1.4,-0.2l1.4,-0.3l1.4,-0.2l1.5,-0.3l1.5,-0.2l1.4,-0.3l1.5,-0.2l1.6,-0.3l1.5,-0.2l1.6,-0.3l1.5,-0.3l1.6,-0.2l1.6,-0.3l1.7,-0.2l1.6,-0.3l1.7,-0.2l1.6,-0.3l1.7,-0.3l1.7,-0.2l1.8,-0.3l1.7,-0.3l1.7,-0.2l1.8,-0.3l1.8,-0.3l1.8,-0.2l1.8,-0.3l1.9,-0.3l1.8,-0.2l1.9,-0.3l1.9,-0.3l1.9,-0.2l1.9,-0.3l1.9,-0.3l1.9,-0.3l2,-0.2l2,-0.3l1.9,-0.3l2,-0.3l2.1,-0.3l2,-0.2l2,-0.3l2.1,-0.3l2,-0.3l2.1,-0.3l2.1,-0.3l2.1,-0.2l2.2,-0.3l2.1,-0.3l2.2,-0.3l2.1,-0.3l2.2,-0.3l2.2,-0.3l2.2,-0.3l2.2,-0.2l2.2,-0.3l2.3,-0.3l2.2,-0.3l2.3,-0.3l2.3,-0.3l2.3,-0.3l2.3,-0.3l2.3,-0.3l2.3,-0.3l2.4,-0.3l2.3,-0.3l2.4,-0.3l2.4,-0.3l2.4,-0.3l2.4,-0.3l2.4,-0.3l2.4,-0.3l2.4,-0.3l2.5,-0.3l2.4,-0.3l2.5,-0.3l2.4,-0.3l2.5,-0.3l2.5,-0.3l2.5,-0.3l2.5,-0.3l2.6,-0.4l2.5,-0.3l2.5,-0.3l2.6,-0.3l2.5,-0.3l2.6,-0.3l2.6,-0.3l2.6,-0.3l2.6,-0.3l2.6,-0.4l2.6,-0.3l2.6,-0.3l2.6,-0.3l2.7,-0.3l2.6,-0.3l2.7,-0.3l2.6,-0.4l2.7,-0.3l2.7,-0.3l2.6,-0.3l2.7,-0.3l2.7,-0.3l2.7,-0.4l2.7,-0.3l2.8,-0.3l2.7,-0.3l2.7,-0.3l2.7,-0.4l2.8,-0.3l2.7,-0.3l2.8,-0.3l2.7,-0.3l2.8,-0.4l2.8,-0.3l2.7,-0.3l2.8,-0.3l2.8,-0.4l2.8,-0.3l2.8,-0.3l2.8,-0.3l2.8,-0.4l2.8,-0.3l2.8,-0.3l2.8,-0.3l2.8,-0.4l2.9,-0.3l2.8,-0.3l2.8,-0.3l2.8,-0.4l2.9,-0.3l2.8,-0.3l2.9,-0.4l2.8,-0.3l2.8,-0.3l2.9,-0.3l2.8,-0.4l2.9,-0.3l2.9,-0.3l2.8,-0.4l2.9,-0.3l2.8,-0.3l2.9,-0.4l2.9,-0.3l2.8,-0.3l2.9,-0.3l2.8,-0.4l2.9,-0.3l2.9,-0.3l2.8,-0.4l2.9,-0.3l2.9,-0.3l2.8,-0.4l2.9,-0.3l2.9,-0.3l2.8,-0.4l2.9,-0.3l2.9,-0.3l2.8,-0.3l2.9,-0.4l2.9,-0.3l2.8,-0.3l2.9,-0.4l2.8,-0.3l2.9,-0.3l2.8,-0.4l2.9,-0.3l2.8,-0.3l2.9,-0.4l2.8,-0.3l2.9,-0.3l2.8,-0.4l2.8,-0.3l2.9,-0.3l2.8,-0.4l2.8,-0.3l2.9,-0.3l2.8,-0.4l2.8,-0.3l2.8,-0.3l2.8,-0.3l2.8,-0.4l2.8,-0.3l2.8,-0.3l2.8,-0.4l2.8,-0.3l2.8,-0.3l2.7,-0.4l2.8,-0.3l2.8,-0.3l2.7,-0.4l2.8,-0.3l2.7,-0.3l2.8,-0.3l2.7,-0.4l2.7,-0.3l2.8,-0.3l2.7,-0.4l2.7,-0.3l2.7,-0.3l2.7,-0.3l2.7,-0.4l2.7,-0.3l2.6,-0.3l2.7,-0.4l2.7,-0.3l2.6,-0.3"/> <path id="svg_4" class="g2_1 path" d="m833.6,77.85l0,0l-0.4,0l-0.1,0.1l-0.5,0l-0.2,0.1l-0.5,0l-0.3,0.1l-0.2,0l-0.3,0.1l-0.4,0l-0.3,0.1l-0.4,0l-0.4,0.1l-0.4,0l-0.4,0.1l-0.4,0.1l-0.5,0l-0.4,0.1l-0.5,0.1l-0.5,0.1l-0.6,0l-0.5,0.1l-0.6,0.1l-0.6,0.1l-0.6,0.1l-0.6,0.1l-0.7,0.1l-0.6,0.1l-0.7,0.1l-0.7,0.1l-0.7,0.1l-0.7,0.1l-0.8,0.1l-0.8,0.2l-0.8,0.1l-0.8,0.1l-0.8,0.1l-0.8,0.2l-0.9,0.1l-0.9,0.1l-0.9,0.2l-0.9,0.1l-0.9,0.1l-1,0.2l-1,0.1l-0.9,0.2l-1.1,0.1l-1,0.2l-1,0.2l-1.1,0.1l-1.1,0.2l-1,0.2l-1.2,0.1l-1.1,0.2l-1.1,0.2l-1.2,0.2l-1.2,0.1l-1.2,0.2l-1.2,0.2l-1.2,0.2l-1.3,0.2l-1.2,0.2l-1.3,0.2l-1.3,0.2l-1.3,0.2l-1.4,0.2l-1.3,0.2l-1.4,0.2l-1.4,0.2l-1.4,0.3l-1.4,0.2l-1.4,0.2l-1.5,0.2l-1.4,0.2l-1.5,0.3l-1.5,0.2l-1.5,0.2l-1.6,0.3l-1.5,0.2l-1.6,0.3l-1.5,0.2l-1.6,0.3l-1.6,0.2l-1.7,0.3l-1.6,0.2l-1.6,0.3l-1.7,0.2l-1.7,0.3l-1.7,0.3l-1.7,0.2l-1.7,0.3l-1.8,0.3l-1.7,0.3l-1.8,0.2l-1.8,0.3l-1.8,0.3l-1.8,0.3l-1.8,0.3l-1.9,0.3l-1.8,0.3l-1.9,0.2l-1.9,0.3l-1.9,0.3l-1.9,0.3l-1.9,0.4l-2,0.3l-1.9,0.3l-2,0.3l-1.9,0.3l-2,0.3l-2,0.3l-2.1,0.4l-2,0.3l-2,0.3l-2.1,0.3l-2.1,0.4l-2,0.3l-2.1,0.3l-2.1,0.4l-2.1,0.3l-2.2,0.3l-2.1,0.4l-2.2,0.3l-2.1,0.4l-2.2,0.3l-2.2,0.4l-2.2,0.3l-2.2,0.4l-2.2,0.4l-2.2,0.3l-2.3,0.4l-2.2,0.4l-2.3,0.3l-2.3,0.4l-2.3,0.4l-2.2,0.3l-2.4,0.4l-2.3,0.4l-2.3,0.4l-2.3,0.4l-2.4,0.3l-2.3,0.4l-2.4,0.4l-2.4,0.4l-2.3,0.4l-2.4,0.4l-2.4,0.4l-2.4,0.4l-2.4,0.4l-2.5,0.4l-2.4,0.4l-2.4,0.4l-2.5,0.4l-2.5,0.4l-2.4,0.4l-2.5,0.4l-2.5,0.4l-2.5,0.5l-2.5,0.4l-2.5,0.4l-2.5,0.4l-2.5,0.4l-2.5,0.5l-2.6,0.4l-2.5,0.4l-2.6,0.5l-2.5,0.4l-2.6,0.4l-2.5,0.5l-2.6,0.4l-2.6,0.4l-2.6,0.5l-2.6,0.4l-2.5,0.5l-2.7,0.4l-2.6,0.5l-2.6,0.4l-2.6,0.5l-2.6,0.4l-2.6,0.5l-2.7,0.4l-2.6,0.5l-2.6,0.4l-2.7,0.5l-2.6,0.4l-2.7,0.5l-2.6,0.5l-2.7,0.4l-2.7,0.5l-2.6,0.5l-2.7,0.4l-2.7,0.5l-2.7,0.5l-2.6,0.5l-2.7,0.4l-2.7,0.5l-2.7,0.5l-2.7,0.5l-2.7,0.4l-2.7,0.5l-2.7,0.5l-2.7,0.5l-2.7,0.5l-2.7,0.5l-2.7,0.4l-2.7,0.5l-2.7,0.5l-2.7,0.5l-2.7,0.5l-2.7,0.5l-2.7,0.5l-2.7,0.5l-2.7,0.5l-2.8,0.5l-2.7,0.5l-2.7,0.5l-2.7,0.5l-2.7,0.5l-2.7,0.5l-2.7,0.5l-2.7,0.5l-2.8,0.5l-2.7,0.5l-2.7,0.5l-2.7,0.5l-2.7,0.5l-2.7,0.5l-2.7,0.5l-2.7,0.5l-2.7,0.5l-2.7,0.6l-2.7,0.5l-2.7,0.5l-2.7,0.5l-2.6,0.5l-2.7,0.5l-2.7,0.5l-2.7,0.6l-2.7,0.5l-2.6,0.5l-2.7,0.5l-2.7,0.5l-2.6,0.6l-2.7,0.5l-2.6,0.5l-2.7,0.5l-2.6,0.5l-2.7,0.6l-2.6,0.5l-2.6,0.5l-2.7,0.5l-2.6,0.6l-2.6,0.5l-2.6,0.5l-2.6,0.5l-2.6,0.6l-2.6,0.5l-2.6,0.5l-2.6,0.5l-2.6,0.6l-2.6,0.5l-2.5,0.5l-2.6,0.6l-2.5,0.5l-2.6,0.5l-2.5,0.5l-2.6,0.6l-2.5,0.5l-2.5,0.5l-2.5,0.6l-2.5,0.5l-2.5,0.5l-2.5,0.6l-2.5,0.5l-2.5,0.5l-2.5,0.5l-2.4,0.6l-2.5,0.5l-2.4,0.5l-2.4,0.6l-2.5,0.5l-2.4,0.5l-2.4,0.6l-2.4,0.5l-2.4,0.5l-2.4,0.6l-2.4,0.5l-2.3,0.5l-2.4,0.6l-2.3,0.5l-2.4,0.5l-2.3,0.5l-2.3,0.6l-2.3,0.5l-2.3,0.5l-2.3,0.6l-2.3,0.5l-2.2,0.5l-2.3,0.5l-2.2,0.6l-2.3,0.5l-2.2,0.5l-2.2,0.6l-2.2,0.5l-2.2,0.5l-2.1,0.5l-2.2,0.6l-2.2,0.5l-2.1,0.5l-2.1,0.5l-2.2,0.6l-2.1,0.5l-2.1,0.5l-2,0.5l-2.1,0.5l-2.1,0.6l-2,0.5l-2,0.5l-2.1,0.5l-2,0.5l-1.9,0.6l-2,0.5l-2,0.5l-1.9,0.5l-2,0.5l-1.9,0.5l-1.9,0.6l-1.9,0.5l-1.9,0.5l-1.9,0.5l-1.8,0.5l-1.9,0.5l-1.8,0.5l-1.8,0.5l-1.8,0.5l-1.8,0.5l-1.8,0.6l-1.7,0.5l-1.8,0.5l-1.7,0.5l-1.7,0.5l-1.7,0.5l-1.7,0.5l-1.7,0.5l-1.6,0.5l-1.7,0.5l-1.6,0.5l-1.6,0.5l-1.6,0.4l-1.6,0.5l-1.5,0.5l-1.6,0.5l-1.5,0.5l-1.5,0.5l-1.5,0.5l-1.5,0.5l-1.4,0.5l-1.5,0.4l-1.4,0.5l-1.4,0.5l-1.4,0.5l-1.4,0.5l-1.4,0.4l-1.3,0.5l-1.4,0.5l-1.3,0.5l-1.3,0.4l-1.2,0.5l-1.3,0.5l-1.3,0.4l-1.2,0.5l-1.2,0.5l-1.2,0.4l-1.2,0.5l-1.1,0.5l-1.2,0.4l-1.1,0.5l-1.1,0.4l-1.1,0.5l-1.1,0.4l-1,0.5l-1.1,0.5l-1,0.4l-1,0.5l-1,0.4l-0.9,0.4l-1,0.5l-0.9,0.4l-0.9,0.5l-0.9,0.4l-0.9,0.4l-0.9,0.5l-0.8,0.4l-0.8,0.4l-0.8,0.5l-0.8,0.4l-0.8,0.4l-0.7,0.4l-0.7,0.5l-0.8,0.4l-0.7,0.4l-0.6,0.4l-0.7,0.4l-0.6,0.5l-0.6,0.4l-0.6,0.4l-0.6,0.4l-0.6,0.4l-0.5,0.4l-0.5,0.4l-0.5,0.4l-0.5,0.4l-0.5,0.4l-0.4,0.4l-0.5,0.4l-0.4,0.4l-0.4,0.4l-0.3,0.3l-0.4,0.4l-0.3,0.4l-0.3,0.4l-0.3,0.4l-0.3,0.4l-0.3,0.3l-0.2,0.4l-0.2,0.4l-0.2,0.3l-0.2,0.4l-0.1,0.4l-0.2,0.3l-0.1,0.4l-0.1,0.3l-0.1,0.4l-0.1,0.4l0,1.7l0.1,0.3l0,0.4l0.1,0.3l0.1,0.3l0.2,0.4l0.1,0.3l0.2,0.3l0.2,0.4l0.2,0.3l0.2,0.3l0.2,0.3l0.3,0.3l0.3,0.3l0.3,0.3l0.3,0.4l0.4,0.3l0.3,0.3l0.4,0.3l0.4,0.3l0.4,0.3l0.5,0.3l0.4,0.2l0.5,0.3l0.5,0.3l0.5,0.3l0.5,0.3l0.6,0.3l0.5,0.2l0.6,0.3l0.6,0.3l0.7,0.3l0.6,0.2l0.7,0.3l0.6,0.2l0.7,0.3l0.8,0.3l0.7,0.2l0.8,0.3l0.7,0.2l0.8,0.3l0.8,0.2l0.9,0.2l0.8,0.3l0.9,0.2l0.9,0.2l0.9,0.3l0.9,0.2l0.9,0.2l1,0.3l1,0.2l1,0.2l1,0.2l1,0.2l1.1,0.2l1,0.2l1.1,0.2l1.1,0.2l1.1,0.2l1.2,0.2l1.1,0.2l1.2,0.2l1.2,0.2l1.2,0.2l1.2,0.2l1.2,0.1l1.3,0.2l1.3,0.2l1.3,0.2l1.3,0.1l1.3,0.2l1.4,0.2l1.3,0.1l1.4,0.2l1.4,0.1l1.4,0.2l1.4,0.1l1.5,0.2l1.4,0.1l1.5,0.2l1.5,0.1l1.5,0.1l1.5,0.2l1.6,0.1l1.5,0.1l1.6,0.1l1.6,0.2l1.6,0.1l1.6,0.1l1.6,0.1l1.7,0.1l1.7,0.1l1.6,0.1l1.7,0.1l1.8,0.1l1.7,0.1l1.7,0.1l1.8,0.1l1.7,0.1l1.8,0.1l1.8,0l1.9,0.1l1.8,0.1l1.8,0.1l1.9,0l1.9,0.1l1.8,0.1l1.9,0l2,0.1l1.9,0l1.9,0.1l2,0l2,0.1l1.9,0l2,0.1l4.1,0l2,0.1l6.2,0l2.1,0.1l26,0l2.2,-0.1l6.8,0l2.3,-0.1l4.6,0l2.3,-0.1l2.3,0l2.4,-0.1l2.3,0l2.4,-0.1l2.3,0l2.4,-0.1l2.4,0l2.4,-0.1l2.4,0l2.4,-0.1l2.4,-0.1l2.5,-0.1l2.4,0l2.4,-0.1l2.5,-0.1l2.5,-0.1l2.4,-0.1l2.5,-0.1l2.5,-0.1l2.5,-0.1l2.5,-0.1l2.5,-0.1l2.6,-0.1l2.5,-0.1l2.5,-0.1l2.6,-0.1l2.5,-0.1l2.6,-0.1l2.6,-0.2l2.5,-0.1l2.6,-0.1l2.6,-0.1l2.6,-0.2l2.6,-0.1l2.6,-0.2l2.6,-0.1l2.6,-0.1l2.6,-0.2l2.7,-0.1l2.6,-0.2l2.6,-0.2l2.7,-0.1l2.6,-0.2l2.7,-0.1l2.7,-0.2l2.6,-0.2l2.7,-0.2l2.7,-0.1l2.6,-0.2l2.7,-0.2l2.7,-0.2l2.7,-0.2l2.7,-0.2l2.7,-0.1l2.7,-0.2l2.7,-0.2l2.7,-0.2l2.7,-0.2l2.7,-0.3l2.7,-0.2l2.7,-0.2l2.8,-0.2l2.7,-0.2l2.7,-0.2l2.7,-0.2l2.8,-0.3l2.7,-0.2l2.7,-0.2l2.8,-0.3l2.7,-0.2l2.7,-0.2l2.8,-0.3l2.7,-0.2l2.8,-0.3l2.7,-0.2l2.7,-0.3l2.8,-0.2l2.7,-0.3l2.8,-0.2l2.7,-0.3l2.7,-0.3l2.8,-0.2l2.7,-0.3l2.8,-0.3l2.7,-0.2l2.8,-0.3l2.7,-0.3l2.7,-0.3l2.8,-0.3l2.7,-0.3l2.7,-0.2l2.8,-0.3l2.7,-0.3l2.7,-0.3l2.8,-0.3l2.7,-0.3l2.7,-0.3l2.7,-0.3l2.7,-0.3l2.8,-0.4l2.7,-0.3l2.7,-0.3l2.7,-0.3l2.7,-0.3l2.7,-0.3l2.7,-0.4l2.7,-0.3l2.7,-0.3l2.6,-0.4l2.7,-0.3l2.7,-0.3l2.7,-0.4l2.6,-0.3l2.7,-0.4l2.7,-0.3l2.6,-0.3l2.7,-0.4l2.6,-0.4l2.6,-0.3l2.7,-0.4l2.6,-0.3l2.6,-0.4l2.6,-0.3l2.7,-0.4l2.6,-0.4l2.6,-0.3l2.5,-0.4l2.6,-0.4l2.6,-0.4l2.6,-0.3l2.5,-0.4l2.6,-0.4l2.6,-0.4l2.5,-0.4l2.5,-0.4l2.6,-0.4l2.5,-0.4l2.5,-0.3l2.5,-0.4l2.5,-0.4l2.5,-0.4l2.5,-0.4l2.5,-0.4l2.4,-0.5l2.5,-0.4l2.4,-0.4l2.5,-0.4l2.4,-0.4l2.4,-0.4l2.4,-0.4l2.4,-0.4l2.4,-0.5l2.4,-0.4l2.4,-0.4l2.3,-0.4l2.4,-0.5l2.3,-0.4l2.4,-0.4l2.3,-0.5l2.3,-0.4l2.3,-0.4l2.3,-0.5l2.3,-0.4l2.3,-0.5l2.2,-0.4l2.3,-0.4l2.2,-0.5l2.2,-0.4l2.3,-0.5l2.2,-0.4l2.2,-0.5l2.1,-0.4l2.2,-0.5l2.2,-0.5l2.1,-0.4l2.1,-0.5l2.2,-0.4l2.1,-0.5l2.1,-0.5l2.1,-0.4l2,-0.5l2.1,-0.5l2,-0.4l2.1,-0.5l2,-0.5l2,-0.5l2,-0.4l1.9,-0.5l2,-0.5l2,-0.5l1.9,-0.5l1.9,-0.4l1.9,-0.5l1.9,-0.5l1.9,-0.5l1.9,-0.5l1.8,-0.5l1.9,-0.5l1.8,-0.5l1.8,-0.5l1.8,-0.4l1.8,-0.5l1.8,-0.5l1.7,-0.5l1.7,-0.5l1.8,-0.5l1.7,-0.5l1.7,-0.5l1.6,-0.5l1.7,-0.5l1.6,-0.5l1.7,-0.5l1.6,-0.6l1.6,-0.5l1.6,-0.5l1.5,-0.5l1.6,-0.5l1.5,-0.5l1.5,-0.5l1.5,-0.5l1.5,-0.5l1.5,-0.5l1.4,-0.6l1.5,-0.5l1.4,-0.5l1.4,-0.5l1.4,-0.5l1.3,-0.6l1.4,-0.5l1.3,-0.5l1.3,-0.5l1.3,-0.5l1.3,-0.6l1.3,-0.5l1.2,-0.5l1.3,-0.5l1.2,-0.6l1.2,-0.5l1.2,-0.5l1.1,-0.5l1.2,-0.6l1.1,-0.5l1.1,-0.5l1.1,-0.5l1.1,-0.6l1,-0.5l1.1,-0.5l1,-0.6l1,-0.5l1,-0.5l0.9,-0.6l1,-0.5l0.9,-0.5l0.9,-0.5l0.9,-0.6l0.9,-0.5l0.8,-0.5l0.9,-0.6l0.8,-0.5l0.8,-0.6l0.8,-0.5l0.7,-0.5l0.8,-0.6l0.7,-0.5l0.7,-0.5l0.7,-0.6l0.6,-0.5l0.7,-0.5l0.6,-0.6l0.6,-0.5l0.6,-0.5l0.6,-0.6l0.5,-0.5l0.6,-0.5l0.5,-0.6l0.5,-0.5l0.5,-0.6l0.4,-0.5l0.5,-0.5l0.4,-0.6l0.4,-0.5l0.4,-0.5l0.3,-0.6l0.4,-0.5l0.3,-0.5l0.3,-0.6l0.3,-0.5l0.2,-0.5l0.3,-0.6l0.2,-0.5l0.2,-0.5l0.2,-0.6l0.2,-0.5l0.1,-0.5l0.2,-0.6l0.1,-0.5l0.1,-0.5l0,-0.6l0.1,-0.5l0,-2.1l-0.1,-0.5l0,-0.6l-0.1,-0.5l-0.1,-0.5l-0.2,-0.5l-0.1,-0.6l-0.2,-0.5l-0.1,-0.5l-0.2,-0.5l-0.3,-0.6l-0.2,-0.5l-0.3,-0.5l-0.3,-0.5l-0.3,-0.6l-0.3,-0.5l-0.3,-0.5l-0.4,-0.5l-0.3,-0.5l-0.4,-0.6l-0.5,-0.5l-0.4,-0.5l-0.4,-0.5l-0.5,-0.5l-0.5,-0.5l-0.5,-0.5l-0.6,-0.5l-0.5,-0.6l-0.6,-0.5l-0.6,-0.5l-0.6,-0.5l-0.6,-0.5l-0.6,-0.5l-0.7,-0.5l-0.7,-0.5l-0.7,-0.5l-0.7,-0.5l-0.8,-0.5l-0.7,-0.5l-0.8,-0.5l-0.8,-0.5l-0.8,-0.5l-0.8,-0.5l-0.9,-0.5l-0.9,-0.5l-0.9,-0.5l-0.9,-0.5l-0.9,-0.5l-0.9,-0.5l-1,-0.4l-1,-0.5l-1,-0.5l-1,-0.5l-1,-0.5l-1.1,-0.5l-1.1,-0.4l-1.1,-0.5l-1.1,-0.5l-1.1,-0.5l-1.1,-0.4l-1.2,-0.5l-1.2,-0.5l-1.2,-0.5l-1.2,-0.4l-1.2,-0.5l-1.3,-0.5l-1.2,-0.4l-1.3,-0.5l-1.3,-0.5l-1.3,-0.4l-1.4,-0.5l-1.3,-0.4l-1.4,-0.5l-1.4,-0.4l-1.4,-0.5l-1.4,-0.4l-1.5,-0.5l-1.4,-0.4l-1.5,-0.5l-1.5,-0.4l-1.5,-0.5l-1.5,-0.4l-1.5,-0.4l-1.6,-0.5l-1.6,-0.4l-1.5,-0.5l-1.6,-0.4l-1.7,-0.4l-1.6,-0.4l-1.6,-0.5l-1.7,-0.4l-1.7,-0.4l-1.7,-0.4l-1.7,-0.5l-1.7,-0.4l-1.8,-0.4l-1.7,-0.4l-1.8,-0.4l-1.8,-0.4l-1.8,-0.4l-1.8,-0.5l-1.8,-0.4l-1.9,-0.4l-1.8,-0.4l-1.9,-0.4l-1.9,-0.4l-1.9,-0.4l-1.9,-0.4l-1.9,-0.3l-2,-0.4l-2,-0.4l-1.9,-0.4l-2,-0.4l-2,-0.4l-2,-0.3l-2.1,-0.4l-2,-0.4l-2.1,-0.4l-2,-0.3l-2.1,-0.4l-2.1,-0.4l-2.1,-0.3l-2.1,-0.4l-2.2,-0.4l-2.1,-0.3l-2.2,-0.4l-2.1,-0.3l-2.2,-0.4l-2.2,-0.3l-2.2,-0.4l-2.2,-0.3l-2.2,-0.4l-2.3,-0.3l-2.2,-0.3l-2.3,-0.4l-2.3,-0.3l-2.3,-0.3l-2.3,-0.4l-2.3,-0.3l-2.3,-0.3l-2.3,-0.3l-2.3,-0.4l-2.4,-0.3l-2.4,-0.3l-2.3,-0.3l-2.4,-0.3l-2.4,-0.3l-2.4,-0.3l-2.4,-0.3l-2.4,-0.3l-2.5,-0.3l-2.4,-0.3l-2.4,-0.3l-2.5,-0.3l-2.5,-0.3l-2.4,-0.3l-2.5,-0.3l-2.5,-0.2l-2.5,-0.3l-2.5,-0.3l-2.5,-0.3l-2.6,-0.2l-2.5,-0.3l-2.5,-0.3l-2.6,-0.2l-2.5,-0.3l-2.6,-0.2l-2.6,-0.3l-2.6,-0.3l-2.5,-0.2l-2.6,-0.3l-2.6,-0.2l-2.6,-0.2l-2.7,-0.3l-2.6,-0.2l-2.6,-0.2l-2.6,-0.3l-2.7,-0.2l-2.6,-0.2l-2.7,-0.3l-2.6,-0.2l-2.7,-0.2l-2.7,-0.2l-2.6,-0.2l-2.7,-0.2l-2.7,-0.2l-2.7,-0.2l-2.7,-0.2l-2.7,-0.2l-2.7,-0.2l-2.7,-0.2l-2.7,-0.2l-2.7,-0.2l-2.7,-0.2l-2.7,-0.2l-2.8,-0.2l-2.7,-0.1l-2.7,-0.2l-2.8,-0.2l-2.7,-0.1l-2.7,-0.2l-2.8,-0.2l-2.7,-0.1l-2.8,-0.2l-2.7,-0.1l-2.8,-0.2l-2.7,-0.1l-2.8,-0.2l-2.8,-0.1l-2.7,-0.2l-2.8,-0.1l-2.8,-0.1l-2.7,-0.2l-2.8,-0.1l-2.8,-0.1l-2.7,-0.2l-2.8,-0.1l-2.8,-0.1l-2.7,-0.1l-2.8,-0.1l-2.8,-0.1l-2.8,-0.1l-2.7,-0.1l-2.8,-0.1l-2.8,-0.1l-2.7,-0.1l-2.8,-0.1l-2.8,-0.1l-2.8,-0.1l-2.7,-0.1l-2.8,-0.1l-2.8,0l-2.7,-0.1l-2.8,-0.1l-2.8,0l-2.7,-0.1l-2.8,-0.1l-2.7,0l-2.8,-0.1l-2.7,0l-2.8,-0.1l-2.7,0l-2.8,-0.1l-2.7,0l-2.7,-0.1l-5.5,0l-2.7,-0.1l-8.2,0l-2.7,-0.1l-29.5,0l-2.7,0.1l-7.9,0l-2.6,0.1l-5.3,0l-2.6,0.1l-5.2,0l-2.6,0.1l-2.6,0l-2.5,0.1l-2.6,0.1l-2.6,0l-2.5,0.1l-2.6,0l-2.5,0.1l-2.5,0.1l-2.5,0l-2.6,0.1l-2.5,0.1l-2.5,0.1l-2.4,0.1l-2.5,0.1l-2.5,0l-2.4,0.1l-2.5,0.1l-2.4,0.1l-2.5,0.1l-2.4,0.1l-2.4,0.1l-2.4,0.2l-2.4,0.1l-2.4,0.1l-2.4,0.1l-2.3,0.1l-2.4,0.2l-2.3,0.1l-2.4,0.1l-2.3,0.1l-2.3,0.2l-2.3,0.1l-2.3,0.2l-2.3,0.1l-2.2,0.2l-2.3,0.1l-2.2,0.2l-2.3,0.1l-2.2,0.2l-2.2,0.1l-2.2,0.2l-2.2,0.2l-2.1,0.1l-2.2,0.2l-2.1,0.2l-2.2,0.2l-2.1,0.2l-2.1,0.1l-2.1,0.2l-2.1,0.2l-2.1,0.2l-2,0.2l-2.1,0.2l-2,0.2l-2,0.2l-2,0.2l-2,0.2l-2,0.2l-2,0.3l-1.9,0.2l-1.9,0.2l-2,0.2l-1.9,0.2l-1.9,0.3l-1.8,0.2l-1.9,0.2l-1.9,0.3l-1.8,0.2l-1.8,0.2l-1.8,0.3l-1.8,0.2l-1.8,0.3l-1.7,0.2l-1.8,0.3l-1.7,0.2l-1.7,0.3l-1.7,0.3l-1.7,0.2l-1.7,0.3l-1.6,0.3l-1.7,0.2l-1.6,0.3l-1.6,0.3l-1.6,0.3l-1.5,0.3l-1.6,0.2l-1.5,0.3l-1.6,0.3l-1.5,0.3l-1.5,0.3l-1.4,0.3l-1.5,0.3l-1.4,0.3l-1.5,0.3l-1.4,0.3l-1.3,0.3l-1.4,0.3l-1.4,0.4l-1.3,0.3l-1.3,0.3l-1.3,0.3l-1.3,0.3l-1.3,0.4l-1.2,0.3l-1.3,0.3l-1.2,0.4l-1.2,0.3l-1.2,0.3l-1.1,0.4l-1.2,0.3l-1.1,0.4l-1.1,0.3l-1.1,0.4l-1.1,0.3l-1,0.4l-1.1,0.3l-1,0.4l-1,0.3l-1,0.4l-0.9,0.4l-1,0.3l-0.9,0.4l-0.9,0.4l-0.9,0.4l-0.8,0.3l-0.9,0.4l-0.8,0.4l-0.8,0.4l-0.8,0.4l-0.8,0.3l-0.8,0.4l-0.7,0.4l-0.7,0.4l-0.7,0.4l-0.7,0.4l-0.7,0.4l-0.6,0.4l-0.6,0.4l-0.6,0.4l-0.6,0.4l-0.6,0.4l-0.5,0.4l-0.6,0.4l-0.5,0.5l-0.4,0.4l-0.5,0.4l-0.5,0.4l-0.4,0.4l-0.4,0.5l-0.4,0.4l-0.4,0.4l-0.3,0.4l-0.4,0.5l-0.3,0.4l-0.3,0.4l-0.2,0.5l-0.3,0.4l-0.2,0.5l-0.2,0.4l-0.2,0.4l-0.2,0.5l-0.2,0.4l-0.1,0.5l-0.1,0.4l-0.1,0.5l-0.1,0.4l0,0.5l-0.1,0.4l0,1.4l0.1,0.5l0,0.4l0.1,0.5l0.1,0.5l0.1,0.4l0.2,0.5l0.1,0.5l0.2,0.5l0.2,0.4l0.2,0.5l0.3,0.5l0.2,0.5l0.3,0.4l0.3,0.5l0.3,0.5l0.4,0.5l0.3,0.5l0.4,0.5l0.4,0.4l0.4,0.5l0.4,0.5l0.5,0.5l0.5,0.5l0.5,0.5l0.5,0.5l0.5,0.5l0.6,0.5l0.5,0.5l0.6,0.5l0.6,0.5l0.6,0.5l0.7,0.5l0.7,0.5l0.6,0.5l0.8,0.5l0.7,0.5l0.7,0.5l0.8,0.5l0.8,0.5l0.8,0.6l0.8,0.5l0.8,0.5l0.9,0.5l0.9,0.5l0.8,0.5l1,0.5l0.9,0.6l0.9,0.5l1,0.5l1,0.5l1,0.5l1,0.6l1.1,0.5l1,0.5l1.1,0.5l1.1,0.6l1.1,0.5l1.2,0.5l1.1,0.5l1.2,0.6l1.2,0.5l1.2,0.5l1.2,0.5l1.2,0.6l1.3,0.5l1.3,0.5l1.3,0.6l1.3,0.5l1.3,0.5l1.3,0.6l1.4,0.5l1.4,0.5l1.4,0.6l1.4,0.5l1.4,0.5l1.5,0.6l1.5,0.5l1.4,0.5l1.5,0.6l1.6,0.5l1.5,0.5l1.5,0.6l1.6,0.5l1.6,0.6l1.6,0.5l1.6,0.5l1.6,0.6l1.7,0.5l1.6,0.6l1.7,0.5l1.7,0.5l1.7,0.6l1.7,0.5l1.8,0.6l1.7,0.5l1.8,0.5l1.8,0.6l1.8,0.5l1.8,0.6l1.9,0.5l1.8,0.5l1.9,0.6l1.8,0.5l1.9,0.6l1.9,0.5l2,0.5l1.9,0.6l1.9,0.5l2,0.6l2,0.5l2,0.5l2,0.6l2,0.5l2,0.6l2.1,0.5l2,0.5l2.1,0.6l2.1,0.5l2.1,0.5l2.1,0.6l2.1,0.5l2.2,0.6l2.1,0.5l2.2,0.5l2.2,0.6l2.2,0.5l2.2,0.5l2.2,0.6l2.2,0.5l2.2,0.5l2.3,0.6l2.2,0.5l2.3,0.5l2.3,0.6l2.3,0.5l2.3,0.5l2.3,0.6l2.4,0.5l2.3,0.5l2.3,0.5l2.4,0.6l2.4,0.5l2.4,0.5l2.4,0.5l2.4,0.6l2.4,0.5l2.4,0.5l2.4,0.5l2.5,0.6l2.4,0.5l2.5,0.5l2.5,0.5l2.4,0.5l2.5,0.6l2.5,0.5l2.5,0.5l2.6,0.5l2.5,0.5l2.5,0.5l2.6,0.5l2.5,0.5l2.6,0.6l2.5,0.5l2.6,0.5l2.6,0.5l2.6,0.5l2.6,0.5l2.6,0.5l2.6,0.5l2.6,0.5l2.7,0.5l2.6,0.5l2.6,0.5l2.7,0.5l2.6,0.5l2.7,0.5l2.7,0.5l2.6,0.5l2.7,0.5l2.7,0.5l2.7,0.4l2.7,0.5l2.7,0.5l2.7,0.5l2.7,0.5l2.7,0.5l2.7,0.4l2.8,0.5l2.7,0.5l2.7,0.5l2.8,0.5l2.7,0.4l2.7,0.5l2.8,0.5l2.8,0.4l2.7,0.5l2.8,0.5l2.7,0.4l2.8,0.5l2.8,0.5l2.8,0.4l2.7,0.5l2.8,0.4l2.8,0.5l2.8,0.5l2.8,0.4l2.8,0.5l2.7,0.4l2.8,0.5l2.8,0.4l2.8,0.4l2.8,0.5l2.8,0.4l2.8,0.5l2.8,0.4l2.8,0.4l2.8,0.5l2.8,0.4l2.8,0.4l2.8,0.5l2.8,0.4l2.8,0.4l2.9,0.4l2.8,0.5l2.8,0.4l2.8,0.4l2.8,0.4l2.8,0.4l2.8,0.4l2.8,0.4l2.8,0.5l2.8,0.4l2.7,0.4l2.8,0.4l2.8,0.4l2.8,0.4l2.8,0.4l2.8,0.4l2.8,0.3l2.8,0.4l2.7,0.4l2.8,0.4l2.8,0.4l2.7,0.4l2.8,0.3l2.8,0.4l2.7,0.4l2.8,0.4l2.7,0.3l2.8,0.4l2.7,0.4l2.8,0.3l2.7,0.4l2.7,0.4l2.8,0.3l2.7,0.4l2.7,0.3l2.7,0.4l2.7,0.3l2.7,0.4l2.7,0.3l2.7,0.4l2.7,0.3l2.7,0.3l2.6,0.4l2.7,0.3l2.7,0.3l2.6,0.4l2.7,0.3l2.6,0.3l2.6,0.3l2.7,0.4l2.6,0.3l2.6,0.3l2.6,0.3l2.6,0.3l2.6,0.3l2.6,0.3l2.6,0.3l2.5,0.3l2.6,0.3l2.5,0.3l2.6,0.3l2.5,0.3l2.5,0.3l2.6,0.3l2.5,0.2l2.5,0.3l2.4,0.3l2.5,0.3l2.5,0.2l2.5,0.3l2.4,0.3l2.5,0.2l2.4,0.3l2.4,0.3l2.4,0.2l2.4,0.3l2.4,0.2l2.4,0.3l2.4,0.2l2.3,0.3l2.4,0.2l2.3,0.2l2.4,0.3l2.3,0.2l2.3,0.2l2.3,0.3l2.3,0.2l2.2,0.2l2.3,0.2l2.2,0.2l2.3,0.2l2.2,0.3l2.2,0.2l2.2,0.2l2.2,0.2l2.2,0.2l2.2,0.2l2.1,0.2l2.1,0.2l2.2,0.1l2.1,0.2l2.1,0.2l2.1,0.2l2,0.2l2.1,0.1l2,0.2l2.1,0.2l2,0.1l2,0.2l2,0.2l2,0.1l1.9,0.2l2,0.1l1.9,0.2l1.9,0.1l1.9,0.2l1.9,0.1l1.9,0.1l1.8,0.2l1.9,0.1l1.8,0.1l1.8,0.2l1.8,0.1l1.8,0.1l1.8,0.1l1.7,0.1l1.8,0.2l1.7,0.1l1.7,0.1l1.7,0.1l1.7,0.1l1.6,0.1l1.7,0.1l1.6,0.1l1.6,0l1.6,0.1l1.6,0.1l1.5,0.1l1.6,0.1l1.5,0l1.5,0.1l1.5,0.1l1.5,0l1.5,0.1l1.4,0.1l1.4,0l1.4,0.1l1.4,0l1.4,0.1l2.7,0l1.3,0.1l1.3,0l1.3,0.1l5,0l1.2,0.1l12,0l0.9,-0.1l2.9,0l0.9,-0.1l1.7,0l0.9,-0.1l0.8,0l0.8,-0.1l0.8,0l0.8,-0.1l0.7,0l0.7,-0.1l0.8,0l0.6,-0.1l0.7,-0.1l0.7,0l0.6,-0.1l0.6,-0.1l0.6,-0.1l0.6,0l0.6,-0.1l0.5,-0.1l0.5,-0.1l0.5,-0.1l0.5,-0.1l0.5,-0.1l0.4,-0.1l0.4,-0.1l0.4,-0.1l0.4,-0.1l0.4,-0.1l0.3,-0.1l0.3,-0.2l0.3,-0.1l0.3,-0.1l0.3,-0.1l0.2,-0.2l0.2,-0.1l0.2,-0.1l0.2,-0.2l0.2,-0.1l0.1,-0.2l0.2,-0.1l0.1,-0.2l0,-0.1l0.1,-0.2l0,-0.1l0.1,-0.2l0,-0.3l-0.1,-0.2l0,-0.2l-0.1,-0.1l-0.1,-0.2l-0.1,-0.2l-0.2,-0.2l-0.1,-0.2l-0.2,-0.2l-0.2,-0.1l-0.2,-0.2l-0.2,-0.2l-0.3,-0.2l-0.3,-0.2l-0.3,-0.3l-0.3,-0.2l-0.3,-0.2l-0.4,-0.2l-0.3,-0.2l-0.4,-0.2l-0.4,-0.3l-0.5,-0.2l-0.4,-0.2l-0.5,-0.2l-0.5,-0.3l-0.5,-0.2l-0.5,-0.2l-0.6,-0.3l-0.6,-0.2l-0.6,-0.3l-0.6,-0.2l-0.6,-0.3l-0.6,-0.2l-0.7,-0.3l-0.7,-0.3l-0.7,-0.2l-0.7,-0.3l-0.8,-0.3l-0.7,-0.2l-0.8,-0.3l-0.8,-0.3l-0.9,-0.3l-0.8,-0.2l-0.9,-0.3l-0.8,-0.3l-0.9,-0.3l-1,-0.3l-0.9,-0.3l-0.9,-0.3l-1,-0.3l-1,-0.3l-1,-0.3l-1.1,-0.3l-1,-0.3l-1.1,-0.3l-1.1,-0.3l-1.1,-0.3l-1.1,-0.4l-1.1,-0.3l-1.2,-0.3l-1.2,-0.3l-1.2,-0.3l-1.2,-0.4l-1.2,-0.3l-1.2,-0.3l-1.3,-0.4l-1.3,-0.3l-1.3,-0.4l-1.3,-0.3l-1.4,-0.4l-1.3,-0.3l-1.4,-0.4l-1.4,-0.3l-1.4,-0.4l-1.4,-0.3l-1.5,-0.4l-1.4,-0.3l-1.5,-0.4l-1.5,-0.4l-1.5,-0.3l-1.5,-0.4l-1.6,-0.4l-1.5,-0.4l-1.6,-0.3l-1.6,-0.4l-1.6,-0.4l-1.7,-0.4l-1.6,-0.4l-1.7,-0.4l-1.6,-0.4l-1.7,-0.4l-1.7,-0.3l-1.8,-0.4l-1.7,-0.4l-1.8,-0.4l-1.7,-0.4l-1.8,-0.5l-1.8,-0.4l-1.8,-0.4l-1.9,-0.4l-1.8,-0.4l-1.9,-0.4l-1.9,-0.4l-1.9,-0.4l-1.9,-0.5l-1.9,-0.4l-1.9,-0.4l-2,-0.4l-1.9,-0.5l-2,-0.4l-2,-0.4l-2,-0.5l-2.1,-0.4l-2,-0.4l-2,-0.5l-2.1,-0.4l-2.1,-0.4l-2.1,-0.5l-2.1,-0.4l-2.1,-0.5l-2.1,-0.4l-2.2,-0.5l-2.1,-0.4l-2.2,-0.5l-2.2,-0.4l-2.2,-0.5l-2.2,-0.5l-2.2,-0.4l-2.3,-0.5l-2.2,-0.5l-2.3,-0.4l-2.2,-0.5l-2.3,-0.5l-2.3,-0.4l-2.3,-0.5l-2.3,-0.5l-2.4,-0.4l-2.3,-0.5l-2.4,-0.5l-2.3,-0.5l-2.4,-0.5l-2.4,-0.4l-2.4,-0.5l-2.4,-0.5l-2.4,-0.5l-2.4,-0.5l-2.5,-0.5l-2.4,-0.5l-2.5,-0.4l-2.4,-0.5l-2.5,-0.5l-2.5,-0.5l-2.5,-0.5l-2.5,-0.5l-2.5,-0.5l-2.6,-0.5l-2.5,-0.5l-2.5,-0.5l-2.6,-0.5l-2.5,-0.5l-2.6,-0.5l-2.6,-0.5l-2.6,-0.5l-2.6,-0.6l-2.6,-0.5l-2.6,-0.5l-2.6,-0.5l-2.6,-0.5l-2.7,-0.5l-2.6,-0.5l-2.6,-0.5l-2.7,-0.6l-2.7,-0.5l-2.6,-0.5l-2.7,-0.5l-2.7,-0.5l-2.7,-0.6l-2.7,-0.5l-2.7,-0.5l-2.7,-0.5l-2.7,-0.6l-2.7,-0.5l-2.7,-0.5l-2.7,-0.5l-2.8,-0.6l-2.7,-0.5l-2.8,-0.5l-2.7,-0.5l-2.8,-0.6l-2.7,-0.5l-2.8,-0.5l-2.8,-0.6l-2.7,-0.5l-2.8,-0.5l-2.8,-0.6l-2.8,-0.5l-2.8,-0.5l-2.8,-0.6l-2.8,-0.5l-2.7,-0.6l-2.9,-0.5l-2.8,-0.5l-2.8,-0.6l-2.8,-0.5l-2.8,-0.5l-2.8,-0.6l-2.8,-0.5l-2.8,-0.6l-2.9,-0.5l-2.8,-0.6l-2.8,-0.5l-2.8,-0.5l-2.9,-0.6l-2.8,-0.5l-2.8,-0.6l-2.9,-0.5l-2.8,-0.5l-2.8,-0.6l-2.9,-0.5l-2.8,-0.6l-2.8,-0.5l-2.9,-0.6l-2.8,-0.5l-2.8,-0.6l-2.9,-0.5l-2.8,-0.5l-2.8,-0.6l-2.9,-0.5l-2.8,-0.6l-2.8,-0.5l-2.9,-0.6l-2.8,-0.5l-2.8,-0.6l-2.8,-0.5l-2.9,-0.6l-2.8,-0.5l-2.8,-0.5l-2.8,-0.6l-2.9,-0.5l-2.8,-0.6l-2.8,-0.5l-2.8,-0.6l-2.8,-0.5l-2.8,-0.6l-2.8,-0.5l-2.8,-0.5l-2.8,-0.6l-2.8,-0.5l-2.8,-0.6l-2.7,-0.5l-2.8,-0.6l-2.8,-0.5l-2.8,-0.5l-2.7,-0.6l-2.8,-0.5l-2.8,-0.6l-2.7,-0.5l-2.8,-0.5l-2.7,-0.6l-2.7,-0.5l-2.8,-0.5l-2.7,-0.6l-2.7,-0.5l-2.7,-0.6l-2.7,-0.5l-2.8,-0.5l-2.6,-0.6l-2.7,-0.5l-2.7,-0.5l-2.7,-0.6l-2.7,-0.5l-2.6,-0.5l-2.7,-0.6l-2.7,-0.5l-2.6,-0.5l-2.6,-0.5l-2.7,-0.6l-2.6,-0.5l-2.6,-0.5l-2.6,-0.6l-2.6,-0.5l-2.6,-0.5l-2.6,-0.5l-2.6,-0.5l-2.5,-0.6l-2.6,-0.5l-2.5,-0.5l-2.6,-0.5l-2.5,-0.5l-2.5,-0.6l-2.5,-0.5l-2.5,-0.5l-2.5,-0.5l-2.5,-0.5l-2.5,-0.5l-2.4,-0.5l-2.5,-0.5l-2.4,-0.6l-2.5,-0.5l-2.4,-0.5l-2.4,-0.5l-2.4,-0.5l-2.4,-0.5l-2.4,-0.5l-2.3,-0.5l-2.4,-0.5l-2.4,-0.5l-2.3,-0.5l-2.3,-0.5l-2.3,-0.5l-2.3,-0.5l-2.3,-0.5l-2.3,-0.5l-2.3,-0.4l-2.2,-0.5l-2.3,-0.5l-2.2,-0.5l-2.2,-0.5l-2.2,-0.5l-2.2,-0.4l-2.2,-0.5l-2.1,-0.5l-2.2,-0.5l-2.1,-0.5l-2.2,-0.4l-2.1,-0.5l-2.1,-0.5l-2,-0.5l-2.1,-0.4l-2.1,-0.5l-2,-0.5l-2.1,-0.4l-2,-0.5l-2,-0.4l-2,-0.5l-1.9,-0.5l-2,-0.4l-1.9,-0.5l-2,-0.4l-1.9,-0.5l-1.9,-0.4l-1.9,-0.5l-1.8,-0.4l-1.9,-0.5l-1.8,-0.4l-1.9,-0.4l-1.8,-0.5l-1.8,-0.4l-1.7,-0.4l-1.8,-0.5l-1.7,-0.4l-1.8,-0.4l-1.7,-0.5l-1.7,-0.4l-1.7,-0.4l-1.6,-0.4l-1.7,-0.5l-1.6,-0.4l-1.6,-0.4l-1.6,-0.4l-1.6,-0.4l-1.6,-0.4l-1.5,-0.4l-1.6,-0.4l-1.5,-0.5l-1.5,-0.4l-1.5,-0.4l-1.4,-0.4l-1.5,-0.3l-1.4,-0.4l-1.4,-0.4l-1.4,-0.4l-1.4,-0.4l-1.3,-0.4l-1.4,-0.4l-1.3,-0.4l-1.3,-0.3l-1.3,-0.4l-1.3,-0.4l-1.2,-0.4l-1.3,-0.3l-1.2,-0.4l-1.2,-0.4l-1.2,-0.3l-1.1,-0.4l-1.2,-0.4l-1.1,-0.3l-1.1,-0.4l-1.1,-0.3l-1.1,-0.4l-1,-0.3l-1,-0.4l-1.1,-0.3l-1,-0.4l-0.9,-0.3l-1,-0.3l-0.9,-0.4l-0.9,-0.3l-0.9,-0.3l-0.9,-0.4l-0.9,-0.3l-0.8,-0.3l-0.9,-0.3l-0.8,-0.3l-0.7,-0.4l-0.8,-0.3l-0.8,-0.3l-0.7,-0.3l-0.7,-0.3l-0.7,-0.3l-0.6,-0.3l-0.7,-0.3l-0.6,-0.3l-0.6,-0.3l-0.6,-0.3l-0.6,-0.3l-0.5,-0.3l-0.6,-0.2l-0.5,-0.3l-0.5,-0.3l-0.4,-0.3l-0.5,-0.2l-0.4,-0.3l-0.4,-0.3l-0.4,-0.2l-0.4,-0.3l-0.4,-0.3l-0.3,-0.2l-0.3,-0.3l-0.3,-0.2l-0.3,-0.3l-0.2,-0.2l-0.2,-0.3l-0.2,-0.2l-0.2,-0.2l-0.2,-0.3l-0.2,-0.2l-0.1,-0.2l-0.1,-0.3l-0.1,-0.2l-0.1,-0.2l0,-0.5l-0.1,-0.2l0.1,-0.2l0,-0.4l0.1,-0.2l0.1,-0.2l0.1,-0.2l0.1,-0.2l0.2,-0.2l0.2,-0.2l0.2,-0.2l0.2,-0.1l0.2,-0.2l0.3,-0.2l0.2,-0.2l0.3,-0.1l0.3,-0.2l0.4,-0.2l0.3,-0.1l0.4,-0.2l0.4,-0.2l0.4,-0.1l0.4,-0.2l0.5,-0.1l0.5,-0.2l0.4,-0.1l0.6,-0.1l0.5,-0.2l0.5,-0.1l0.6,-0.1l0.6,-0.2l0.6,-0.1l0.6,-0.1l0.7,-0.1l0.7,-0.2l0.7,-0.1l0.7,-0.1l0.7,-0.1l0.7,-0.1l0.8,-0.1l0.8,-0.1l0.8,-0.1l0.8,-0.1l0.9,-0.1l0.8,-0.1l0.9,0l0.9,-0.1l0.9,-0.1l1,-0.1l0.9,-0.1l1,0l1,-0.1l1,-0.1l1.1,0l1,-0.1l1.1,0l1.1,-0.1l1.1,0l1.1,-0.1l1.2,0l1.2,-0.1l2.3,0l1.3,-0.1l3.7,0l1.3,-0.1l15.4,0l1.5,0.1l6.2,0l1.6,0.1l1.6,0l1.7,0.1l3.3,0l1.6,0.1l1.7,0l1.7,0.1l1.8,0l1.7,0.1l1.7,0.1l1.8,0l1.8,0.1l1.8,0.1l1.8,0l1.9,0.1l1.8,0.1l1.9,0.1l1.9,0.1l1.9,0.1l1.9,0l1.9,0.1l1.9,0.1l2,0.1l2,0.1l1.9,0.2l2,0.1l2.1,0.1l2,0.1l2,0.1l2.1,0.1l2,0.2l2.1,0.1l2.1,0.1l2.1,0.1l2.2,0.2l2.1,0.1l2.2,0.2l2.1,0.1l2.2,0.1l2.2,0.2l2.2,0.2l2.2,0.1l2.2,0.2l2.3,0.1l2.2,0.2l2.3,0.2l2.3,0.1l2.3,0.2l2.3,0.2l2.3,0.2l2.3,0.1l2.4,0.2l2.3,0.2l2.4,0.2l2.4,0.2l2.4,0.2l2.4,0.2l2.4,0.2l2.4,0.2l2.4,0.2l2.5,0.2l2.4,0.2l2.5,0.2l2.4,0.3l2.5,0.2l2.5,0.2l2.5,0.2l2.5,0.3l2.6,0.2l2.5,0.2l2.5,0.3l2.6,0.2l2.5,0.2l2.6,0.3l2.6,0.2l2.6,0.3l2.6,0.2l2.6,0.3l2.6,0.3l2.6,0.2l2.6,0.3l2.7,0.2l2.6,0.3l2.7,0.3l2.6,0.3l2.7,0.2l2.7,0.3l2.6,0.3l2.7,0.3l2.7,0.3l2.7,0.3l2.7,0.2l2.8,0.3l2.7,0.3l2.7,0.3l2.7,0.3l2.8,0.3l2.7,0.4l2.8,0.3l2.7,0.3l2.8,0.3l2.8,0.3l2.7,0.3l2.8,0.4l2.8,0.3l2.8,0.3l2.8,0.3l2.8,0.4l2.8,0.3l2.8,0.3l2.8,0.4l2.8,0.3l2.8,0.4l2.9,0.3l2.8,0.4l2.8,0.3l2.8,0.4l2.9,0.3l2.8,0.4l2.9,0.3l2.8,0.4l2.8,0.4l2.9,0.3l2.8,0.4l2.9,0.4l2.9,0.3l2.8,0.4l2.9,0.4l2.8,0.4l2.9,0.4l2.9,0.3l2.8,0.4l2.9,0.4l2.8,0.4l2.9,0.4l2.9,0.4l2.8,0.4l2.9,0.4l2.9,0.4l2.8,0.4l2.9,0.4l2.9,0.4l2.8,0.4l2.9,0.4l2.9,0.4l2.8,0.5l2.9,0.4l2.9,0.4l2.8,0.4l2.9,0.4l2.8,0.5l2.9,0.4l2.8,0.4l2.9,0.4l2.8,0.5l2.9,0.4l2.8,0.4l2.9,0.5l2.8,0.4l2.8,0.5l2.9,0.4l2.8,0.5l2.8,0.4l2.9,0.4l2.8,0.5l2.8,0.4l2.8,0.5l2.8,0.5l2.8,0.4l2.8,0.5l2.8,0.4l2.8,0.5l2.8,0.5l2.8,0.4l2.7,0.5l2.8,0.5l2.8,0.4l2.7,0.5l2.8,0.5l2.7,0.5l2.8,0.4l2.7,0.5l2.7,0.5l2.8,0.5l2.7,0.4l2.7,0.5l2.7,0.5l2.7,0.5l2.7,0.5l2.7,0.5l2.6,0.5l2.7,0.5l2.7,0.5l2.6,0.4"/> <path id="svg_5" class="g3_1 path" d="m833.6,53.65l0,0.1l-0.4,0l-0.1,0.1l-0.1,0l-0.2,0.1l-0.2,0l-0.2,0.1l-0.2,0l-0.3,0.1l-0.3,0l-0.2,0.1l-0.3,0.1l-0.4,0.1l-0.3,0.1l-0.4,0.1l-0.4,0.1l-0.4,0.1l-0.4,0.1l-0.4,0.1l-0.5,0.1l-0.4,0.1l-0.5,0.1l-0.5,0.2l-0.6,0.1l-0.5,0.1l-0.6,0.2l-0.6,0.1l-0.6,0.2l-0.6,0.1l-0.7,0.2l-0.6,0.2l-0.7,0.1l-0.7,0.2l-0.7,0.2l-0.7,0.2l-0.8,0.2l-0.8,0.2l-0.8,0.2l-0.8,0.2l-0.8,0.2l-0.8,0.2l-0.9,0.2l-0.9,0.2l-0.9,0.3l-0.9,0.2l-0.9,0.2l-1,0.3l-1,0.2l-0.9,0.3l-1.1,0.2l-1,0.3l-1,0.3l-1.1,0.2l-1.1,0.3l-1,0.3l-1.2,0.3l-1.1,0.3l-1.1,0.3l-1.2,0.2l-1.2,0.3l-1.2,0.4l-1.2,0.3l-1.2,0.3l-1.3,0.3l-1.2,0.3l-1.3,0.3l-1.3,0.4l-1.3,0.3l-1.4,0.4l-1.3,0.3l-1.4,0.3l-1.4,0.4l-1.4,0.4l-1.4,0.3l-1.4,0.4l-1.5,0.4l-1.4,0.3l-1.5,0.4l-1.5,0.4l-1.5,0.4l-1.6,0.4l-1.5,0.4l-1.6,0.4l-1.5,0.4l-1.6,0.4l-1.6,0.4l-1.7,0.4l-1.6,0.4l-1.6,0.5l-1.7,0.4l-1.7,0.4l-1.7,0.5l-1.7,0.4l-1.7,0.4l-1.8,0.5l-1.7,0.4l-1.8,0.5l-1.8,0.5l-1.8,0.4l-1.8,0.5l-1.8,0.5l-1.9,0.4l-1.8,0.5l-1.9,0.5l-1.9,0.5l-1.9,0.5l-1.9,0.5l-1.9,0.5l-2,0.5l-1.9,0.5l-2,0.5l-1.9,0.5l-2,0.5l-2,0.5l-2.1,0.5l-2,0.6l-2,0.5l-2.1,0.5l-2.1,0.6l-2,0.5l-2.1,0.6l-2.1,0.5l-2.1,0.6l-2.2,0.5l-2.1,0.6l-2.2,0.5l-2.1,0.6l-2.2,0.6l-2.2,0.5l-2.2,0.6l-2.2,0.6l-2.2,0.6l-2.2,0.5l-2.3,0.6l-2.2,0.6l-2.3,0.6l-2.3,0.6l-2.3,0.6l-2.2,0.6l-2.4,0.6l-2.3,0.6l-2.3,0.6l-2.3,0.6l-2.4,0.7l-2.3,0.6l-2.4,0.6l-2.4,0.6l-2.3,0.7l-2.4,0.6l-2.4,0.6l-2.4,0.7l-2.4,0.6l-2.5,0.6l-2.4,0.7l-2.4,0.6l-2.5,0.7l-2.5,0.6l-2.4,0.7l-2.5,0.6l-2.5,0.7l-2.5,0.7l-2.5,0.6l-2.5,0.7l-2.5,0.7l-2.5,0.6l-2.5,0.7l-2.6,0.7l-2.5,0.7l-2.6,0.6l-2.5,0.7l-2.6,0.7l-2.5,0.7l-2.6,0.7l-2.6,0.7l-2.6,0.7l-2.6,0.7l-2.5,0.7l-2.7,0.7l-2.6,0.7l-2.6,0.7l-2.6,0.7l-2.6,0.7l-2.6,0.7l-2.7,0.7l-2.6,0.7l-2.6,0.7l-2.7,0.7l-2.6,0.8l-2.7,0.7l-2.6,0.7l-2.7,0.7l-2.7,0.8l-2.6,0.7l-2.7,0.7l-2.7,0.7l-2.7,0.8l-2.6,0.7l-2.7,0.7l-2.7,0.8l-2.7,0.7l-2.7,0.7l-2.7,0.8l-2.7,0.7l-2.7,0.8l-2.7,0.7l-2.7,0.8l-2.7,0.7l-2.7,0.7l-2.7,0.8l-2.7,0.7l-2.7,0.8l-2.7,0.7l-2.7,0.8l-2.7,0.7l-2.7,0.8l-2.7,0.8l-2.8,0.7l-2.7,0.8l-2.7,0.7l-2.7,0.8l-2.7,0.7l-2.7,0.8l-2.7,0.8l-2.7,0.7l-2.8,0.8l-2.7,0.7l-2.7,0.8l-2.7,0.8l-2.7,0.7l-2.7,0.8l-2.7,0.8l-2.7,0.7l-2.7,0.8l-2.7,0.7l-2.7,0.8l-2.7,0.8l-2.7,0.7l-2.6,0.8l-2.7,0.8l-2.7,0.7l-2.7,0.8l-2.7,0.8l-2.6,0.7l-2.7,0.8l-2.7,0.8l-2.6,0.7l-2.7,0.8l-2.6,0.8l-2.7,0.7l-2.6,0.8l-2.7,0.8l-2.6,0.7l-2.6,0.8l-2.7,0.8l-2.6,0.7l-2.6,0.8l-2.6,0.8l-2.6,0.7l-2.6,0.8l-2.6,0.8l-2.6,0.7l-2.6,0.8l-2.6,0.8l-2.6,0.7l-2.5,0.8l-2.6,0.7l-2.5,0.8l-2.6,0.8l-2.5,0.7l-2.6,0.8l-2.5,0.7l-2.5,0.8l-2.5,0.7l-2.5,0.8l-2.5,0.7l-2.5,0.8l-2.5,0.8l-2.5,0.7l-2.5,0.8l-2.4,0.7l-2.5,0.7l-2.4,0.8l-2.4,0.7l-2.5,0.8l-2.4,0.7l-2.4,0.8l-2.4,0.7l-2.4,0.7l-2.4,0.8l-2.4,0.7l-2.3,0.8l-2.4,0.7l-2.3,0.7l-2.4,0.7l-2.3,0.8l-2.3,0.7l-2.3,0.7l-2.3,0.8l-2.3,0.7l-2.3,0.7l-2.2,0.7l-2.3,0.7l-2.2,0.7l-2.3,0.8l-2.2,0.7l-2.2,0.7l-2.2,0.7l-2.2,0.7l-2.1,0.7l-2.2,0.7l-2.2,0.7l-2.1,0.7l-2.1,0.7l-2.2,0.7l-2.1,0.7l-2.1,0.7l-2,0.7l-2.1,0.7l-2.1,0.6l-2,0.7l-2,0.7l-2.1,0.7l-2,0.7l-1.9,0.6l-2,0.7l-2,0.7l-1.9,0.6l-2,0.7l-1.9,0.7l-1.9,0.6l-1.9,0.7l-1.9,0.6l-1.9,0.7l-1.8,0.6l-1.9,0.7l-1.8,0.6l-1.8,0.7l-1.8,0.6l-1.8,0.6l-1.8,0.7l-1.7,0.6l-1.8,0.6l-1.7,0.6l-1.7,0.7l-1.7,0.6l-1.7,0.6l-1.7,0.6l-1.6,0.6l-1.7,0.6l-1.6,0.6l-1.6,0.6l-1.6,0.6l-1.6,0.6l-1.5,0.6l-1.6,0.6l-1.5,0.6l-1.5,0.6l-1.5,0.5l-1.5,0.6l-1.4,0.6l-1.5,0.6l-1.4,0.5l-1.4,0.6l-1.4,0.6l-1.4,0.5l-1.4,0.6l-1.3,0.5l-1.4,0.6l-1.3,0.5l-1.3,0.5l-1.2,0.6l-1.3,0.5l-1.3,0.5l-1.2,0.6l-1.2,0.5l-1.2,0.5l-1.2,0.5l-1.1,0.5l-1.2,0.5l-1.1,0.5l-1.1,0.5l-1.1,0.5l-1.1,0.5l-1,0.5l-1.1,0.5l-1,0.5l-1,0.4l-1,0.5l-0.9,0.5l-1,0.5l-0.9,0.4l-0.9,0.5l-0.9,0.4l-0.9,0.5l-0.9,0.4l-0.8,0.5l-0.8,0.4l-0.8,0.4l-0.8,0.5l-0.8,0.4l-0.7,0.4l-0.7,0.4l-0.8,0.4l-0.7,0.5l-0.6,0.4l-0.7,0.4l-0.6,0.4l-0.6,0.4l-0.6,0.3l-0.6,0.4l-0.6,0.4l-0.5,0.4l-0.5,0.4l-0.5,0.3l-0.5,0.4l-0.5,0.3l-0.4,0.4l-0.5,0.3l-0.4,0.4l-0.4,0.3l-0.3,0.4l-0.4,0.3l-0.3,0.3l-0.3,0.4l-0.3,0.3l-0.3,0.3l-0.3,0.3l-0.2,0.3l-0.2,0.3l-0.2,0.3l-0.2,0.3l-0.1,0.3l-0.2,0.3l-0.1,0.3l-0.1,0.2l-0.1,0.3l-0.1,0.3l0,1.2l0.1,0.3l0,0.2l0.1,0.2l0.1,0.3l0.2,0.2l0.1,0.2l0.2,0.2l0.2,0.2l0.2,0.2l0.2,0.2l0.2,0.2l0.3,0.2l0.3,0.2l0.3,0.1l0.3,0.2l0.4,0.2l0.3,0.1l0.4,0.2l0.4,0.2l0.4,0.1l0.5,0.1l0.4,0.2l0.5,0.1l0.5,0.2l0.5,0.1l0.5,0.1l0.6,0.1l0.5,0.1l0.6,0.1l0.6,0.1l0.7,0.1l0.6,0.1l0.7,0.1l0.6,0.1l0.7,0.1l0.8,0l0.7,0.1l0.8,0.1l0.7,0l0.8,0.1l0.8,0l0.9,0.1l1.7,0l0.9,0.1l9.8,0l1.1,-0.1l2.2,0l1.2,-0.1l1.1,0l1.2,-0.1l1.2,0l1.2,-0.1l1.2,0l1.2,-0.1l1.3,-0.1l1.3,-0.1l1.3,0l1.3,-0.1l1.3,-0.1l1.4,-0.1l1.3,-0.1l1.4,-0.1l1.4,-0.1l1.4,-0.2l1.4,-0.1l1.5,-0.1l1.4,-0.1l1.5,-0.2l1.5,-0.1l1.5,-0.2l1.5,-0.1l1.6,-0.2l1.5,-0.1l1.6,-0.2l1.6,-0.2l1.6,-0.2l1.6,-0.1l1.6,-0.2l1.7,-0.2l1.7,-0.2l1.6,-0.2l1.7,-0.2l1.8,-0.2l1.7,-0.2l1.7,-0.2l1.8,-0.3l1.7,-0.2l1.8,-0.2l1.8,-0.3l1.9,-0.2l1.8,-0.3l1.8,-0.2l1.9,-0.3l1.9,-0.2l1.8,-0.3l1.9,-0.3l2,-0.2l1.9,-0.3l1.9,-0.3l2,-0.3l2,-0.3l1.9,-0.3l2,-0.3l2,-0.3l2.1,-0.3l2,-0.3l2.1,-0.3l2,-0.3l2.1,-0.4l2.1,-0.3l2.1,-0.3l2.1,-0.4l2.1,-0.3l2.1,-0.4l2.2,-0.3l2.2,-0.4l2.1,-0.3l2.2,-0.4l2.2,-0.4l2.2,-0.3l2.2,-0.4l2.3,-0.4l2.2,-0.4l2.3,-0.4l2.2,-0.4l2.3,-0.4l2.3,-0.4l2.3,-0.4l2.3,-0.4l2.3,-0.4l2.3,-0.5l2.4,-0.4l2.3,-0.4l2.4,-0.4l2.3,-0.5l2.4,-0.4l2.4,-0.5l2.4,-0.4l2.4,-0.5l2.4,-0.4l2.4,-0.5l2.5,-0.5l2.4,-0.4l2.4,-0.5l2.5,-0.5l2.5,-0.5l2.4,-0.4l2.5,-0.5l2.5,-0.5l2.5,-0.5l2.5,-0.5l2.5,-0.5l2.6,-0.5l2.5,-0.5l2.5,-0.6l2.6,-0.5l2.5,-0.5l2.6,-0.5l2.6,-0.6l2.5,-0.5l2.6,-0.5l2.6,-0.6l2.6,-0.5l2.6,-0.6l2.6,-0.5l2.6,-0.6l2.6,-0.5l2.6,-0.6l2.7,-0.5l2.6,-0.6l2.6,-0.6l2.7,-0.6l2.6,-0.5l2.7,-0.6l2.7,-0.6l2.6,-0.6l2.7,-0.6l2.7,-0.6l2.6,-0.6l2.7,-0.6l2.7,-0.6l2.7,-0.6l2.7,-0.6l2.7,-0.6l2.7,-0.6l2.7,-0.6l2.7,-0.6l2.7,-0.7l2.7,-0.6l2.7,-0.6l2.7,-0.6l2.8,-0.7l2.7,-0.6l2.7,-0.7l2.7,-0.6l2.8,-0.6l2.7,-0.7l2.7,-0.6l2.8,-0.7l2.7,-0.7l2.7,-0.6l2.8,-0.7l2.7,-0.6l2.8,-0.7l2.7,-0.7l2.7,-0.7l2.8,-0.6l2.7,-0.7l2.8,-0.7l2.7,-0.7l2.7,-0.6l2.8,-0.7l2.7,-0.7l2.8,-0.7l2.7,-0.7l2.8,-0.7l2.7,-0.7l2.7,-0.7l2.8,-0.7l2.7,-0.7l2.7,-0.7l2.8,-0.7l2.7,-0.7l2.7,-0.7l2.8,-0.7l2.7,-0.8l2.7,-0.7l2.7,-0.7l2.7,-0.7l2.8,-0.7l2.7,-0.8l2.7,-0.7l2.7,-0.7l2.7,-0.7l2.7,-0.8l2.7,-0.7l2.7,-0.7l2.7,-0.8l2.6,-0.7l2.7,-0.7l2.7,-0.8l2.7,-0.7l2.6,-0.8l2.7,-0.7l2.7,-0.8l2.6,-0.7l2.7,-0.8l2.6,-0.7l2.6,-0.8l2.7,-0.7l2.6,-0.8l2.6,-0.7l2.6,-0.8l2.7,-0.7l2.6,-0.8l2.6,-0.7l2.5,-0.8l2.6,-0.8l2.6,-0.7l2.6,-0.8l2.5,-0.7l2.6,-0.8l2.6,-0.8l2.5,-0.7l2.5,-0.8l2.6,-0.8l2.5,-0.7l2.5,-0.8l2.5,-0.8l2.5,-0.8l2.5,-0.7l2.5,-0.8l2.5,-0.8l2.4,-0.7l2.5,-0.8l2.4,-0.8l2.5,-0.7l2.4,-0.8l2.4,-0.8l2.4,-0.8l2.4,-0.7l2.4,-0.8l2.4,-0.8l2.4,-0.8l2.3,-0.7l2.4,-0.8l2.3,-0.8l2.4,-0.8l2.3,-0.7l2.3,-0.8l2.3,-0.8l2.3,-0.8l2.3,-0.7l2.3,-0.8l2.2,-0.8l2.3,-0.8l2.2,-0.7l2.2,-0.8l2.3,-0.8l2.2,-0.8l2.2,-0.7l2.1,-0.8l2.2,-0.8l2.2,-0.7l2.1,-0.8l2.1,-0.8l2.2,-0.8l2.1,-0.7l2.1,-0.8l2.1,-0.8l2,-0.7l2.1,-0.8l2,-0.8l2.1,-0.7l2,-0.8l2,-0.7l2,-0.8l1.9,-0.8l2,-0.7l2,-0.8l1.9,-0.7l1.9,-0.8l1.9,-0.8l1.9,-0.7l1.9,-0.8l1.9,-0.7l1.8,-0.8l1.9,-0.7l1.8,-0.8l1.8,-0.7l1.8,-0.8l1.8,-0.7l1.8,-0.8l1.7,-0.7l1.7,-0.7l1.8,-0.8l1.7,-0.7l1.7,-0.8l1.6,-0.7l1.7,-0.7l1.6,-0.8l1.7,-0.7l1.6,-0.7l1.6,-0.8l1.6,-0.7l1.5,-0.7l1.6,-0.7l1.5,-0.7l1.5,-0.8l1.5,-0.7l1.5,-0.7l1.5,-0.7l1.4,-0.7l1.5,-0.7l1.4,-0.7l1.4,-0.7l1.4,-0.8l1.3,-0.7l1.4,-0.7l1.3,-0.6l1.3,-0.7l1.3,-0.7l1.3,-0.7l1.3,-0.7l1.2,-0.7l1.3,-0.7l1.2,-0.7l1.2,-0.6l1.2,-0.7l1.1,-0.7l1.2,-0.7l1.1,-0.6l1.1,-0.7l1.1,-0.7l1.1,-0.6l1,-0.7l1.1,-0.6l1,-0.7l1,-0.7l1,-0.6l0.9,-0.6l1,-0.7l0.9,-0.6l0.9,-0.7l0.9,-0.6l0.9,-0.6l0.8,-0.7l0.9,-0.6l0.8,-0.6l0.8,-0.6l0.8,-0.7l0.7,-0.6l0.8,-0.6l0.7,-0.6l0.7,-0.6l0.7,-0.6l0.6,-0.6l0.7,-0.6l0.6,-0.6l0.6,-0.6l0.6,-0.6l0.6,-0.5l0.5,-0.6l0.6,-0.6l0.5,-0.6l0.5,-0.5l0.5,-0.6l0.4,-0.6l0.5,-0.5l0.4,-0.6l0.4,-0.6l0.4,-0.5l0.3,-0.5l0.4,-0.6l0.3,-0.5l0.3,-0.6l0.3,-0.5l0.2,-0.5l0.3,-0.6l0.2,-0.5l0.2,-0.5l0.2,-0.5l0.2,-0.5l0.1,-0.5l0.2,-0.5l0.1,-0.5l0.1,-0.5l0,-0.5l0.1,-0.5l0,-1.9l-0.1,-0.5l0,-0.5l-0.1,-0.4l-0.1,-0.5l-0.2,-0.4l-0.1,-0.5l-0.2,-0.4l-0.1,-0.5l-0.2,-0.4l-0.3,-0.4l-0.2,-0.5l-0.3,-0.4l-0.3,-0.4l-0.3,-0.4l-0.3,-0.4l-0.3,-0.4l-0.4,-0.5l-0.3,-0.4l-0.4,-0.3l-0.5,-0.4l-0.4,-0.4l-0.4,-0.4l-0.5,-0.4l-0.5,-0.4l-0.5,-0.3l-0.6,-0.4l-0.5,-0.4l-0.6,-0.3l-0.6,-0.4l-0.6,-0.3l-0.6,-0.4l-0.6,-0.3l-0.7,-0.3l-0.7,-0.4l-0.7,-0.3l-0.7,-0.3l-0.8,-0.3l-0.7,-0.3l-0.8,-0.4l-0.8,-0.3l-0.8,-0.3l-0.8,-0.3l-0.9,-0.2l-0.9,-0.3l-0.9,-0.3l-0.9,-0.3l-0.9,-0.3l-0.9,-0.2l-1,-0.3l-1,-0.2l-1,-0.3l-1,-0.2l-1,-0.3l-1.1,-0.2l-1.1,-0.3l-1.1,-0.2l-1.1,-0.2l-1.1,-0.2l-1.1,-0.3l-1.2,-0.2l-1.2,-0.2l-1.2,-0.2l-1.2,-0.2l-1.2,-0.2l-1.3,-0.2l-1.2,-0.1l-1.3,-0.2l-1.3,-0.2l-1.3,-0.2l-1.4,-0.1l-1.3,-0.2l-1.4,-0.1l-1.4,-0.2l-1.4,-0.1l-1.4,-0.2l-1.5,-0.1l-1.4,-0.1l-1.5,-0.2l-1.5,-0.1l-1.5,-0.1l-1.5,-0.1l-1.5,-0.1l-1.6,-0.1l-1.6,-0.1l-1.5,-0.1l-1.6,-0.1l-1.7,-0.1l-1.6,0l-1.6,-0.1l-1.7,-0.1l-1.7,0l-1.7,-0.1l-1.7,0l-1.7,-0.1l-1.8,0l-1.7,-0.1l-5.4,0l-1.8,-0.1l-11.2,0l-1.9,0.1l-5.9,0l-1.9,0.1l-2,0l-2,0.1l-2,0l-2.1,0.1l-2,0l-2.1,0.1l-2,0.1l-2.1,0l-2.1,0.1l-2.1,0.1l-2.1,0.1l-2.2,0.1l-2.1,0.1l-2.2,0.1l-2.1,0.1l-2.2,0.1l-2.2,0.2l-2.2,0.1l-2.2,0.1l-2.2,0.1l-2.3,0.2l-2.2,0.1l-2.3,0.2l-2.3,0.1l-2.3,0.2l-2.3,0.2l-2.3,0.1l-2.3,0.2l-2.3,0.2l-2.3,0.2l-2.4,0.1l-2.4,0.2l-2.3,0.2l-2.4,0.2l-2.4,0.2l-2.4,0.3l-2.4,0.2l-2.4,0.2l-2.5,0.2l-2.4,0.3l-2.4,0.2l-2.5,0.2l-2.5,0.3l-2.4,0.2l-2.5,0.3l-2.5,0.2l-2.5,0.3l-2.5,0.3l-2.5,0.2l-2.6,0.3l-2.5,0.3l-2.5,0.3l-2.6,0.3l-2.5,0.3l-2.6,0.3l-2.6,0.3l-2.6,0.3l-2.5,0.3l-2.6,0.3l-2.6,0.3l-2.6,0.4l-2.7,0.3l-2.6,0.3l-2.6,0.4l-2.6,0.3l-2.7,0.4l-2.6,0.3l-2.7,0.4l-2.6,0.4l-2.7,0.3l-2.7,0.4l-2.6,0.4l-2.7,0.3l-2.7,0.4l-2.7,0.4l-2.7,0.4l-2.7,0.4l-2.7,0.4l-2.7,0.4l-2.7,0.4l-2.7,0.4l-2.7,0.5l-2.7,0.4l-2.8,0.4l-2.7,0.4l-2.7,0.5l-2.8,0.4l-2.7,0.5l-2.7,0.4l-2.8,0.5l-2.7,0.4l-2.8,0.5l-2.7,0.4l-2.8,0.5l-2.7,0.5l-2.8,0.4l-2.8,0.5l-2.7,0.5l-2.8,0.5l-2.8,0.5l-2.7,0.5l-2.8,0.5l-2.8,0.5l-2.7,0.5l-2.8,0.5l-2.8,0.5l-2.7,0.5l-2.8,0.5l-2.8,0.6l-2.8,0.5l-2.7,0.5l-2.8,0.6l-2.8,0.5l-2.7,0.6l-2.8,0.5l-2.8,0.5l-2.8,0.6l-2.7,0.6l-2.8,0.5l-2.8,0.6l-2.7,0.5l-2.8,0.6l-2.8,0.6l-2.7,0.6l-2.8,0.5l-2.7,0.6l-2.8,0.6l-2.7,0.6l-2.8,0.6l-2.7,0.6l-2.8,0.6l-2.7,0.6l-2.7,0.6l-2.8,0.6l-2.7,0.6l-2.7,0.6l-2.8,0.7l-2.7,0.6l-2.7,0.6l-2.7,0.6l-2.7,0.7l-2.7,0.6l-2.7,0.6l-2.7,0.7l-2.7,0.6l-2.7,0.7l-2.7,0.6l-2.6,0.7l-2.7,0.6l-2.7,0.7l-2.6,0.6l-2.7,0.7l-2.6,0.7l-2.7,0.6l-2.6,0.7l-2.6,0.7l-2.7,0.6l-2.6,0.7l-2.6,0.7l-2.6,0.7l-2.6,0.7l-2.6,0.6l-2.6,0.7l-2.5,0.7l-2.6,0.7l-2.6,0.7l-2.5,0.7l-2.6,0.7l-2.5,0.7l-2.5,0.7l-2.5,0.7l-2.6,0.7l-2.5,0.7l-2.5,0.8l-2.4,0.7l-2.5,0.7l-2.5,0.7l-2.4,0.7l-2.5,0.7l-2.4,0.8l-2.5,0.7l-2.4,0.7l-2.4,0.8l-2.4,0.7l-2.4,0.7l-2.4,0.8l-2.4,0.7l-2.3,0.7l-2.4,0.8l-2.3,0.7l-2.4,0.8l-2.3,0.7l-2.3,0.7l-2.3,0.8l-2.3,0.7l-2.3,0.8l-2.2,0.7l-2.3,0.8l-2.2,0.8l-2.3,0.7l-2.2,0.8l-2.2,0.7l-2.2,0.8l-2.2,0.7l-2.1,0.8l-2.2,0.8l-2.1,0.7l-2.2,0.8l-2.1,0.8l-2.1,0.7l-2.1,0.8l-2.1,0.8l-2.1,0.7l-2,0.8l-2.1,0.8l-2,0.8l-2,0.7l-2,0.8l-2,0.8l-2,0.8l-2,0.7l-1.9,0.8l-1.9,0.8l-2,0.8l-1.9,0.7l-1.9,0.8l-1.8,0.8l-1.9,0.8l-1.9,0.8l-1.8,0.7l-1.8,0.8l-1.8,0.8l-1.8,0.8l-1.8,0.8l-1.7,0.7l-1.8,0.8l-1.7,0.8l-1.7,0.8l-1.7,0.8l-1.7,0.8l-1.7,0.7l-1.6,0.8l-1.7,0.8l-1.6,0.8l-1.6,0.8l-1.6,0.7l-1.5,0.8l-1.6,0.8l-1.5,0.8l-1.6,0.8l-1.5,0.8l-1.5,0.7l-1.4,0.8l-1.5,0.8l-1.4,0.8l-1.5,0.8l-1.4,0.7l-1.3,0.8l-1.4,0.8l-1.4,0.8l-1.3,0.7l-1.3,0.8l-1.3,0.8l-1.3,0.8l-1.3,0.7l-1.2,0.8l-1.3,0.8l-1.2,0.8l-1.2,0.7l-1.2,0.8l-1.1,0.8l-1.2,0.7l-1.1,0.8l-1.1,0.8l-1.1,0.7l-1.1,0.8l-1,0.8l-1.1,0.7l-1,0.8l-1,0.7l-1,0.8l-0.9,0.8l-1,0.7l-0.9,0.8l-0.9,0.7l-0.9,0.8l-0.8,0.7l-0.9,0.8l-0.8,0.7l-0.8,0.8l-0.8,0.7l-0.8,0.8l-0.8,0.7l-0.7,0.7l-0.7,0.8l-0.7,0.7l-0.7,0.7l-0.7,0.8l-0.6,0.7l-0.6,0.7l-0.6,0.8l-0.6,0.7l-0.6,0.7l-0.5,0.7l-0.6,0.8l-0.5,0.7l-0.4,0.7l-0.5,0.7l-0.5,0.7l-0.4,0.7l-0.4,0.7l-0.4,0.7l-0.4,0.7l-0.3,0.7l-0.4,0.7l-0.3,0.7l-0.3,0.7l-0.2,0.7l-0.3,0.7l-0.2,0.7l-0.2,0.7l-0.2,0.7l-0.2,0.6l-0.2,0.7l-0.1,0.7l-0.1,0.7l-0.1,0.6l-0.1,0.7l0,0.7l-0.1,0.6l0,2l0.1,0.7l0,0.6l0.1,0.7l0.1,0.6l0.1,0.6l0.2,0.7l0.1,0.6l0.2,0.6l0.2,0.7l0.2,0.6l0.3,0.6l0.2,0.6l0.3,0.7l0.3,0.6l0.3,0.6l0.4,0.6l0.3,0.6l0.4,0.6l0.4,0.6l0.4,0.6l0.4,0.6l0.5,0.6l0.5,0.6l0.5,0.5l0.5,0.6l0.5,0.6l0.6,0.6l0.5,0.5l0.6,0.6l0.6,0.6l0.6,0.5l0.7,0.6l0.7,0.5l0.6,0.6l0.8,0.5l0.7,0.6l0.7,0.5l0.8,0.5l0.8,0.6l0.8,0.5l0.8,0.5l0.8,0.5l0.9,0.5l0.9,0.6l0.8,0.5l1,0.5l0.9,0.5l0.9,0.5l1,0.5l1,0.4l1,0.5l1,0.5l1.1,0.5l1,0.5l1.1,0.4l1.1,0.5l1.1,0.4l1.2,0.5l1.1,0.5l1.2,0.4l1.2,0.5l1.2,0.4l1.2,0.4l1.2,0.5l1.3,0.4l1.3,0.4l1.3,0.4l1.3,0.4l1.3,0.5l1.3,0.4l1.4,0.4l1.4,0.4l1.4,0.4l1.4,0.4l1.4,0.3l1.5,0.4l1.5,0.4l1.4,0.4l1.5,0.3l1.6,0.4l1.5,0.4l1.5,0.3l1.6,0.4l1.6,0.3l1.6,0.4l1.6,0.3l1.6,0.3l1.7,0.4l1.6,0.3l1.7,0.3l1.7,0.3l1.7,0.3l1.7,0.3l1.8,0.3l1.7,0.3l1.8,0.3l1.8,0.3l1.8,0.3l1.8,0.3l1.9,0.2l1.8,0.3l1.9,0.3l1.8,0.2l1.9,0.3l1.9,0.2l2,0.3l1.9,0.2l1.9,0.3l2,0.2l2,0.2l2,0.2l2,0.3l2,0.2l2,0.2l2.1,0.2l2,0.2l2.1,0.2l2.1,0.2l2.1,0.1l2.1,0.2l2.1,0.2l2.2,0.2l2.1,0.1l2.2,0.2l2.2,0.1l2.2,0.2l2.2,0.1l2.2,0.2l2.2,0.1l2.2,0.1l2.3,0.2l2.2,0.1l2.3,0.1l2.3,0.1l2.3,0.1l2.3,0.1l2.3,0.1l2.4,0.1l2.3,0.1l2.3,0.1l2.4,0l2.4,0.1l2.4,0.1l2.4,0l2.4,0.1l2.4,0l2.4,0.1l2.4,0l2.5,0.1l7.4,0l2.4,0.1l12.6,0l2.5,-0.1l7.7,0l2.5,-0.1l5.2,0l2.6,-0.1l2.6,0l2.6,-0.1l2.6,-0.1l2.6,0l2.7,-0.1l2.6,-0.1l2.6,-0.1l2.7,-0.1l2.6,-0.1l2.7,0l2.7,-0.2l2.6,-0.1l2.7,-0.1l2.7,-0.1l2.7,-0.1l2.7,-0.1l2.7,-0.2l2.7,-0.1l2.7,-0.2l2.7,-0.1l2.7,-0.2l2.8,-0.1l2.7,-0.2l2.7,-0.1l2.8,-0.2l2.7,-0.2l2.7,-0.2l2.8,-0.2l2.8,-0.1l2.7,-0.2l2.8,-0.2l2.7,-0.3l2.8,-0.2l2.8,-0.2l2.8,-0.2l2.7,-0.2l2.8,-0.3l2.8,-0.2l2.8,-0.2l2.8,-0.3l2.8,-0.2l2.7,-0.3l2.8,-0.2l2.8,-0.3l2.8,-0.3l2.8,-0.2l2.8,-0.3l2.8,-0.3l2.8,-0.3l2.8,-0.3l2.8,-0.3l2.8,-0.3l2.8,-0.3l2.8,-0.3l2.8,-0.3l2.8,-0.3l2.9,-0.3l2.8,-0.4l2.8,-0.3l2.8,-0.3l2.8,-0.4l2.8,-0.3l2.8,-0.4l2.8,-0.3l2.8,-0.4l2.8,-0.3l2.7,-0.4l2.8,-0.4l2.8,-0.4l2.8,-0.3l2.8,-0.4l2.8,-0.4l2.8,-0.4l2.8,-0.4l2.7,-0.4l2.8,-0.4l2.8,-0.4l2.7,-0.4l2.8,-0.5l2.8,-0.4l2.7,-0.4l2.8,-0.4l2.7,-0.5l2.8,-0.4l2.7,-0.5l2.8,-0.4l2.7,-0.5l2.7,-0.4l2.8,-0.5l2.7,-0.4l2.7,-0.5l2.7,-0.5l2.7,-0.5l2.7,-0.4l2.7,-0.5l2.7,-0.5l2.7,-0.5l2.7,-0.5l2.6,-0.5l2.7,-0.5l2.7,-0.5l2.6,-0.5l2.7,-0.5l2.6,-0.6l2.6,-0.5l2.7,-0.5l2.6,-0.5l2.6,-0.6l2.6,-0.5l2.6,-0.6l2.6,-0.5l2.6,-0.6l2.6,-0.5l2.5,-0.6l2.6,-0.5l2.5,-0.6l2.6,-0.6l2.5,-0.5l2.5,-0.6l2.6,-0.6l2.5,-0.6l2.5,-0.5l2.4,-0.6l2.5,-0.6l2.5,-0.6l2.5,-0.6l2.4,-0.6l2.5,-0.6l2.4,-0.6l2.4,-0.6l2.4,-0.6l2.4,-0.7l2.4,-0.6l2.4,-0.6l2.4,-0.6l2.3,-0.7l2.4,-0.6l2.3,-0.6l2.4,-0.7l2.3,-0.6l2.3,-0.6l2.3,-0.7l2.3,-0.6l2.2,-0.7l2.3,-0.6l2.2,-0.7l2.3,-0.7l2.2,-0.6l2.2,-0.7l2.2,-0.7l2.2,-0.6l2.2,-0.7l2.2,-0.7l2.1,-0.7l2.1,-0.6l2.2,-0.7l2.1,-0.7l2.1,-0.7l2.1,-0.7l2,-0.7l2.1,-0.7l2,-0.7l2.1,-0.7l2,-0.7l2,-0.7l2,-0.7l2,-0.7l1.9,-0.7l2,-0.7l1.9,-0.7l1.9,-0.8l1.9,-0.7l1.9,-0.7l1.9,-0.7l1.8,-0.8l1.9,-0.7l1.8,-0.7l1.8,-0.7l1.8,-0.8l1.8,-0.7l1.8,-0.8l1.7,-0.7l1.8,-0.7l1.7,-0.8l1.7,-0.7l1.7,-0.8l1.7,-0.7l1.6,-0.8l1.7,-0.7l1.6,-0.8l1.6,-0.7l1.6,-0.8l1.6,-0.7l1.5,-0.8l1.6,-0.8l1.5,-0.7l1.5,-0.8l1.5,-0.7l1.5,-0.8l1.5,-0.8l1.4,-0.7l1.4,-0.8l1.4,-0.8l1.4,-0.8l1.4,-0.7l1.4,-0.8l1.3,-0.8l1.3,-0.7l1.3,-0.8l1.3,-0.8l1.3,-0.8l1.2,-0.8l1.3,-0.7l1.2,-0.8l1.2,-0.8l1.2,-0.8l1.1,-0.8l1.2,-0.7l1.1,-0.8l1.1,-0.8l1.1,-0.8l1.1,-0.8l1,-0.8l1,-0.8l1.1,-0.7l1,-0.8l0.9,-0.8l1,-0.8l0.9,-0.8l1,-0.8l0.9,-0.8l0.9,-0.8l0.8,-0.8l0.9,-0.7l0.8,-0.8l0.8,-0.8l0.8,-0.8l0.8,-0.8l0.7,-0.8l0.7,-0.8l0.8,-0.8l0.6,-0.8l0.7,-0.8l0.7,-0.7l0.6,-0.8l0.6,-0.8l0.6,-0.8l0.6,-0.8l0.6,-0.8l0.5,-0.8l0.5,-0.8l0.5,-0.8l0.5,-0.7l0.5,-0.8l0.4,-0.8l0.4,-0.8l0.4,-0.8l0.4,-0.8l0.4,-0.8l0.3,-0.7l0.3,-0.8l0.3,-0.8l0.3,-0.8l0.3,-0.8l0.2,-0.7l0.2,-0.8l0.2,-0.8l0.2,-0.8l0.2,-0.8l0.1,-0.7l0.2,-0.8l0.1,-0.8l0,-0.8l0.1,-0.7l0,-0.8l0.1,-0.8l0,-1.5l-0.1,-0.8l0,-0.7l-0.1,-0.8l-0.1,-0.8l-0.1,-0.7l-0.2,-0.8l-0.1,-0.7l-0.2,-0.8l-0.2,-0.7l-0.2,-0.8l-0.2,-0.7l-0.3,-0.8l-0.3,-0.7l-0.3,-0.8l-0.3,-0.7l-0.3,-0.8l-0.4,-0.7l-0.3,-0.8l-0.4,-0.7l-0.4,-0.7l-0.5,-0.8l-0.4,-0.7l-0.5,-0.7l-0.5,-0.8l-0.5,-0.7l-0.5,-0.7l-0.6,-0.7l-0.6,-0.7l-0.6,-0.8l-0.6,-0.7l-0.6,-0.7l-0.6,-0.7l-0.7,-0.7l-0.7,-0.7l-0.7,-0.7l-0.7,-0.7l-0.8,-0.7l-0.7,-0.7l-0.8,-0.7l-0.8,-0.7l-0.9,-0.7l-0.8,-0.7l-0.9,-0.7l-0.8,-0.7l-0.9,-0.7l-1,-0.6l-0.9,-0.7l-0.9,-0.7l-1,-0.7l-1,-0.6l-1,-0.7l-1.1,-0.7l-1,-0.6l-1.1,-0.7l-1.1,-0.6l-1.1,-0.7l-1.1,-0.6l-1.1,-0.7l-1.2,-0.6l-1.2,-0.7l-1.2,-0.6l-1.2,-0.6l-1.2,-0.7l-1.2,-0.6l-1.3,-0.6l-1.3,-0.6l-1.3,-0.7l-1.3,-0.6l-1.4,-0.6l-1.3,-0.6l-1.4,-0.6l-1.4,-0.6l-1.4,-0.6l-1.4,-0.6l-1.5,-0.6l-1.4,-0.6l-1.5,-0.6l-1.5,-0.6l-1.5,-0.5l-1.5,-0.6l-1.6,-0.6l-1.5,-0.6l-1.6,-0.5l-1.6,-0.6l-1.6,-0.5l-1.7,-0.6l-1.6,-0.6l-1.7,-0.5l-1.6,-0.5l-1.7,-0.6l-1.7,-0.5l-1.8,-0.6l-1.7,-0.5l-1.8,-0.5l-1.7,-0.5l-1.8,-0.6l-1.8,-0.5l-1.8,-0.5l-1.9,-0.5l-1.8,-0.5l-1.9,-0.5l-1.9,-0.5l-1.9,-0.5l-1.9,-0.5l-1.9,-0.5l-1.9,-0.4l-2,-0.5l-1.9,-0.5l-2,-0.5l-2,-0.4l-2,-0.5l-2.1,-0.4l-2,-0.5l-2,-0.4l-2.1,-0.5l-2.1,-0.4l-2.1,-0.5l-2.1,-0.4l-2.1,-0.4l-2.1,-0.4l-2.2,-0.5l-2.1,-0.4l-2.2,-0.4l-2.2,-0.4l-2.2,-0.4l-2.2,-0.4l-2.2,-0.4l-2.3,-0.4l-2.2,-0.4l-2.3,-0.3l-2.2,-0.4l-2.3,-0.4l-2.3,-0.3l-2.3,-0.4l-2.3,-0.4l-2.4,-0.3l-2.3,-0.4l-2.4,-0.3l-2.3,-0.3l-2.4,-0.4l-2.4,-0.3l-2.4,-0.3l-2.4,-0.4l-2.4,-0.3l-2.4,-0.3l-2.5,-0.3l-2.4,-0.3l-2.5,-0.3l-2.4,-0.3l-2.5,-0.3l-2.5,-0.3l-2.5,-0.2l-2.5,-0.3l-2.5,-0.3l-2.6,-0.3l-2.5,-0.2l-2.5,-0.3l-2.6,-0.2l-2.5,-0.3l-2.6,-0.2l-2.6,-0.2l-2.6,-0.3l-2.6,-0.2l-2.6,-0.2l-2.6,-0.2l-2.6,-0.3l-2.6,-0.2l-2.7,-0.2l-2.6,-0.2l-2.6,-0.2l-2.7,-0.2l-2.7,-0.1l-2.6,-0.2l-2.7,-0.2l-2.7,-0.2l-2.7,-0.1l-2.7,-0.2l-2.7,-0.1l-2.7,-0.2l-2.7,-0.1l-2.7,-0.2l-2.7,-0.1l-2.7,-0.1l-2.8,-0.2l-2.7,-0.1l-2.8,-0.1l-2.7,-0.1l-2.8,-0.1l-2.7,-0.1l-2.8,-0.1l-2.8,-0.1l-2.7,-0.1l-2.8,-0.1l-2.8,0l-2.8,-0.1l-2.8,-0.1l-2.8,0l-2.8,-0.1l-2.7,0l-2.9,-0.1l-2.8,0l-2.8,-0.1l-11.2,0l-2.8,-0.1l-8.5,0l-2.8,0.1l-8.5,0l-2.9,0.1l-5.6,0l-2.9,0.1l-2.8,0l-2.8,0.1l-2.9,0l-2.8,0.1l-2.8,0.1l-2.9,0.1l-2.8,0l-2.8,0.1l-2.9,0.1l-2.8,0.1l-2.8,0.1l-2.9,0.1l-2.8,0.1l-2.8,0.1l-2.8,0.2l-2.9,0.1l-2.8,0.1l-2.8,0.1l-2.8,0.2l-2.9,0.1l-2.8,0.2l-2.8,0.1l-2.8,0.2l-2.8,0.2l-2.8,0.1l-2.8,0.2l-2.8,0.2l-2.8,0.2l-2.8,0.2l-2.8,0.2l-2.7,0.2l-2.8,0.2l-2.8,0.2l-2.8,0.2l-2.7,0.2l-2.8,0.2l-2.8,0.3l-2.7,0.2l-2.8,0.2l-2.7,0.3l-2.7,0.2l-2.8,0.3l-2.7,0.2l-2.7,0.3l-2.7,0.3l-2.7,0.2l-2.8,0.3l-2.6,0.3l-2.7,0.3l-2.7,0.3l-2.7,0.3l-2.7,0.2l-2.6,0.4l-2.7,0.3l-2.7,0.3l-2.6,0.3l-2.6,0.3l-2.7,0.3l-2.6,0.4l-2.6,0.3l-2.6,0.4l-2.6,0.3l-2.6,0.3l-2.6,0.4l-2.6,0.4l-2.5,0.3l-2.6,0.4l-2.5,0.4l-2.6,0.3l-2.5,0.4l-2.5,0.4l-2.5,0.4l-2.5,0.4l-2.5,0.4l-2.5,0.4l-2.5,0.4l-2.4,0.4l-2.5,0.4l-2.4,0.5l-2.5,0.4l-2.4,0.4l-2.4,0.4l-2.4,0.5l-2.4,0.4l-2.4,0.5l-2.3,0.4l-2.4,0.5l-2.4,0.4l-2.3,0.5l-2.3,0.5l-2.3,0.4l-2.3,0.5l-2.3,0.5l-2.3,0.5l-2.3,0.5l-2.2,0.4l-2.3,0.5l-2.2,0.5l-2.2,0.5l-2.2,0.5l-2.2,0.6l-2.2,0.5l-2.1,0.5l-2.2,0.5l-2.1,0.5l-2.2,0.6l-2.1,0.5l-2.1,0.5l-2,0.6l-2.1,0.5l-2.1,0.6l-2,0.5l-2.1,0.6l-2,0.5l-2,0.6l-2,0.6l-1.9,0.5l-2,0.6l-1.9,0.6l-2,0.6l-1.9,0.5l-1.9,0.6l-1.9,0.6l-1.8,0.6l-1.9,0.6l-1.8,0.6l-1.9,0.6l-1.8,0.6l-1.8,0.6l-1.7,0.7l-1.8,0.6l-1.7,0.6l-1.8,0.6l-1.7,0.6l-1.7,0.7l-1.7,0.6l-1.6,0.6l-1.7,0.7l-1.6,0.6l-1.6,0.7l-1.6,0.6l-1.6,0.7l-1.6,0.6l-1.5,0.7l-1.6,0.6l-1.5,0.7l-1.5,0.7l-1.5,0.6l-1.4,0.7l-1.5,0.7l-1.4,0.6l-1.4,0.7l-1.4,0.7l-1.4,0.7l-1.3,0.7l-1.4,0.7l-1.3,0.6l-1.3,0.7l-1.3,0.7l-1.3,0.7l-1.2,0.7l-1.3,0.7l-1.2,0.7l-1.2,0.8l-1.2,0.7l-1.1,0.7l-1.2,0.7l-1.1,0.7l-1.1,0.7l-1.1,0.8l-1.1,0.7l-1,0.7l-1,0.7l-1.1,0.8l-1,0.7l-0.9,0.7l-1,0.8l-0.9,0.7l-0.9,0.7l-0.9,0.8l-0.9,0.7l-0.9,0.8l-0.8,0.7l-0.9,0.8l-0.8,0.7l-0.7,0.8l-0.8,0.7l-0.8,0.8l-0.7,0.7l-0.7,0.8l-0.7,0.8l-0.6,0.7l-0.7,0.8l-0.6,0.8l-0.6,0.7l-0.6,0.8l-0.6,0.8l-0.5,0.7l-0.6,0.8l-0.5,0.8l-0.5,0.7l-0.4,0.8l-0.5,0.8l-0.4,0.8l-0.4,0.8l-0.4,0.7l-0.4,0.8l-0.4,0.8l-0.3,0.8l-0.3,0.8l-0.3,0.7l-0.3,0.8l-0.2,0.8l-0.2,0.8l-0.2,0.8l-0.2,0.8l-0.2,0.8l-0.2,0.8l-0.1,0.8l-0.1,0.7l-0.1,0.8l-0.1,0.8l0,1.6l-0.1,0.8l0.1,0.8l0,1.6l0.1,0.8l0.1,0.8l0.1,0.8l0.1,0.8l0.2,0.8l0.2,0.8l0.2,0.8l0.2,0.8l0.2,0.8l0.3,0.8l0.2,0.8l0.3,0.8l0.3,0.8l0.4,0.8l0.3,0.8l0.4,0.8l0.4,0.8l0.4,0.8l0.4,0.8l0.5,0.8l0.5,0.8l0.4,0.8l0.6,0.7l0.5,0.8l0.5,0.8l0.6,0.8l0.6,0.8l0.6,0.8l0.6,0.8l0.7,0.8l0.7,0.8l0.7,0.8l0.7,0.8l0.7,0.8l0.7,0.8l0.8,0.8l0.8,0.7l0.8,0.8l0.8,0.8l0.9,0.8l0.8,0.8l0.9,0.8l0.9,0.8l0.9,0.7l1,0.8l0.9,0.8l1,0.8l1,0.8l1,0.7l1.1,0.8l1,0.8l1.1,0.7l1.1,0.8l1.1,0.8l1.1,0.8l1.2,0.7l1.2,0.8l1.1,0.8l1.2,0.7l1.3,0.8l1.2,0.7l1.3,0.8l1.2,0.8l1.3,0.7l1.3,0.8l1.4,0.7l1.3,0.8l1.4,0.7l1.4,0.8l1.4,0.7l1.4,0.7l1.4,0.8l1.5,0.7l1.5,0.8l1.4,0.7l1.5,0.7l1.6,0.8l1.5,0.7l1.6,0.7l1.5,0.7l1.6,0.8l1.6,0.7l1.7,0.7l1.6,0.7l1.7,0.7l1.6,0.8l1.7,0.7l1.7,0.7l1.8,0.7l1.7,0.7l1.7,0.7l1.8,0.7l1.8,0.7l1.8,0.7l1.8,0.7l1.9,0.6l1.8,0.7l1.9,0.7l1.9,0.7l1.9,0.7l1.9,0.6l1.9,0.7l1.9,0.7l2,0.6l2,0.7l1.9,0.7l2,0.6l2.1,0.7l2,0.6l2,0.7l2.1,0.6l2,0.7l2.1,0.6l2.1,0.6l2.1,0.7l2.2,0.6l2.1,0.6l2.2,0.7l2.1,0.6l2.2,0.6l2.2,0.6l2.2,0.6l2.2,0.6l2.2,0.6l2.3,0.6l2.2,0.6l2.3,0.6l2.3,0.6l2.3,0.6l2.3,0.6l2.3,0.6l2.3,0.6l2.4,0.5l2.3,0.6l2.4,0.6l2.4,0.5l2.4,0.6l2.4,0.6l2.4,0.5l2.4,0.6l2.4,0.5l2.5,0.6l2.4,0.5l2.5,0.5l2.4,0.6l2.5,0.5l2.5,0.5l2.5,0.5l2.5,0.5l2.6,0.6l2.5,0.5l2.5,0.5l2.6,0.5l2.5,0.5l2.6,0.5l2.6,0.4l2.6,0.5l2.6,0.5l2.6,0.5l2.6,0.5l2.6,0.4l2.6,0.5l2.7,0.4l2.6,0.5l2.7,0.5l2.6,0.4l2.7,0.4l2.7,0.5l2.6,0.4l2.7,0.4l2.7,0.5l2.7,0.4l2.7,0.4l2.8,0.4l2.7,0.4l2.7,0.4l2.7,0.4l2.8,0.4l2.7,0.4l2.8,0.4l2.7,0.4l2.8,0.4l2.8,0.3l2.7,0.4l2.8,0.4l2.8,0.3l2.8,0.4l2.8,0.3l2.8,0.4l2.8,0.3l2.8,0.4l2.8,0.3l2.8,0.3l2.8,0.4l2.9,0.3l2.8,0.3l2.8,0.3l2.8,0.3l2.9,0.3l2.8,0.3l2.9,0.3l2.8,0.3l2.8,0.3l2.9,0.2l2.8,0.3l2.9,0.3l2.9,0.2l2.8,0.3l2.9,0.2l2.8,0.3l2.9,0.2l2.9,0.3l2.8,0.2l2.9,0.2l2.8,0.3l2.9,0.2l2.9,0.2l2.8,0.2l2.9,0.2l2.9,0.2l2.8,0.2l2.9,0.2l2.9,0.2l2.8,0.1l2.9,0.2l2.9,0.2l2.8,0.2l2.9,0.1l2.9,0.2l2.8,0.1l2.9,0.2l2.8,0.1l2.9,0.1l2.8,0.2l2.9,0.1l2.8,0.1l2.9,0.1l2.8,0.1l2.9,0.1l2.8,0.1l2.8,0.1l2.9,0.1l2.8,0.1l2.8,0.1l2.9,0.1l2.8,0l2.8,0.1l2.8,0.1l2.8,0l2.8,0.1l5.6,0l2.8,0.1l8.3,0l2.8,0.1l11,0l2.8,-0.1l10.9,0l2.7,-0.1l2.7,0l2.7,-0.1l2.7,0l2.7,-0.1l2.6,0l2.7,-0.1l2.7,-0.1l2.6,-0.1"/> </g> </g> </svg>