<svg width="604" height="125.00000000000001" xmlns="http://www.w3.org/2000/svg">
 <defs>
  <clipPath id="c0_1">
   <path id="svg_1" d="m50.4,199.6l0,-191.2l615.1,0l0,191.2l-615.1,0z"/>
  </clipPath>
  <style type="text/css">
   <![CDATA[
text { white-space: pre; }
path, image { pointer-events: none; }

.s1_1{
font-size: 10.07px;
font-family: Arial-BoldMT_1x;
fill: #333333;
}
.s2_1{
font-size: 10.90px;
font-family: ArialMT_1d;
fill: #444444;
}
.s3_1{
font-size: 10.90px;
font-family: ArialMT_1d;
fill: #222222;
}

.g0_1{
fill: #FFFFFF;
}
.g1_1{
fill: none;
stroke: #C5C5C5;
stroke-width: 0.8392487;
stroke-linecap: butt;
stroke-linejoin: miter;
stroke-miterlimit: 4;
}
.g2_1{
fill: #E9E9E9;
}
.g3_1{
fill: none;
stroke: #DDDDDD;
stroke-width: 0.8392487;
stroke-linecap: butt;
stroke-linejoin: miter;
stroke-miterlimit: 4;
}
.g4_1{
fill: #F6F6F6;
}
.g5_1{
fill: none;
stroke: #C5C5C5;
stroke-width: 0.83923376;
stroke-linecap: butt;
stroke-linejoin: miter;
stroke-miterlimit: 4;
}
.g6_1{
fill: #FFC0CB;
}
.g7_1{
fill: #CCCCCC;
}
.g8_1{
fill: #EBEBEB;
}
.g9_1{
fill: #333333;
}
.g10_1{
fill: none;
stroke: #000000;
stroke-width: 1.6784974;
stroke-linecap: butt;
stroke-linejoin: miter;
stroke-miterlimit: 4;
}
.g11_1{
fill: none;
stroke: #FF0000;
stroke-width: 1.6784974;
stroke-linecap: butt;
stroke-linejoin: miter;
stroke-miterlimit: 4;
}
.g12_1{
fill: none;
stroke: #0000FF;
stroke-width: 1.6784974;
stroke-linecap: butt;
stroke-linejoin: miter;
stroke-miterlimit: 4;
}
.g13_1{
fill: none;
stroke: #008000;
stroke-width: 1.6784974;
stroke-linecap: butt;
stroke-linejoin: miter;
stroke-miterlimit: 4;
}
.g14_1{
fill: none;
stroke: #FFFF00;
stroke-width: 1.6784974;
stroke-linecap: butt;
stroke-linejoin: miter;
stroke-miterlimit: 4;
}
.g15_1{
fill: none;
stroke: #A52A2A;
stroke-width: 1.6784974;
stroke-linecap: butt;
stroke-linejoin: miter;
stroke-miterlimit: 4;
}
.g16_1{
fill: none;
stroke: #000000;
stroke-width: 1.6784751;
stroke-linecap: butt;
stroke-linejoin: miter;
stroke-miterlimit: 4;
}
.g17_1{
fill: none;
stroke: #FF0000;
stroke-width: 1.6784751;
stroke-linecap: butt;
stroke-linejoin: miter;
stroke-miterlimit: 4;
}
.g18_1{
fill: none;
stroke: #0000FF;
stroke-width: 1.6784751;
stroke-linecap: butt;
stroke-linejoin: miter;
stroke-miterlimit: 4;
}
.g19_1{
fill: none;
stroke: #008000;
stroke-width: 1.6784751;
stroke-linecap: butt;
stroke-linejoin: miter;
stroke-miterlimit: 4;
}
.g20_1{
fill: none;
stroke: #FFFF00;
stroke-width: 1.6784751;
stroke-linecap: butt;
stroke-linejoin: miter;
stroke-miterlimit: 4;
}
.g21_1{
fill: none;
stroke: #A52A2A;
stroke-width: 1.6784751;
stroke-linecap: butt;
stroke-linejoin: miter;
stroke-miterlimit: 4;
}

]]>
  </style>
 </defs>
 <!-- Any embedded fonts defined here -->
 <style type="text/css">
  <![CDATA[

@font-face {
	font-family: Arial-BoldMT_1x;
	src: url("fonts/Arial-BoldMT_1x.woff") format("woff");
}

@font-face {
	font-family: ArialMT_1d;
	src: url("fonts/ArialMT_1d.woff") format("woff");
}

]]>
 </style>

 <style>
   .path {
  stroke-dasharray: 1000;
  stroke-dashoffset: 1000;
  animation: dash 25s linear infinite;
}
@keyframes dash {
  from {
    stroke-dashoffset: 1000;
  }
  to {
    stroke-dashoffset: 0;
  }
}
 </style>
 <g>
  <title>background</title>
  <rect fill="#ffaaff" id="canvas_background" height="127" width="606" y="-1" x="-1"/>
 </g>
 <g>
  <title>Layer 1</title>
  <g id="svg_97">
   <path id="svg_56" class="path g10_1" d="m0.000001,14.900002l198,0l4.1,95.2l198,0l4.1,-95.2l198,0l4,95.2l8.1,0"/>
   <path id="svg_57" class="path g11_1" d="m0.000001,62.500002l4,-3.8l4.1,-3.8l4,-3.8l4.1,-3.7l4,-3.6l4,-3.6l4.1,-3.5l4,-3.4l4.1,-3.3l4,-3.1l4,-3l4.1,-2.9l4,-2.7l4.1,-2.5l4,-2.3l4.1,-2.2l4,-1.9l4,-1.7l4.1,-1.5l4,-1.3l4.1,-1.1l4,-0.8l4,-0.6l4.1,-0.4l4,-0.1l4.1,0.1l4,0.4l4.1,0.6l4,0.8l4,1.1l4.1,1.3l4,1.5l4.1,1.7l4,1.9l4,2.2l4.1,2.3l4,2.5l4.1,2.7l4,2.9l4.1,3l4,3.1l4,3.3l4.1,3.4l4,3.5l4.1,3.6l4,3.6l4,3.7l4.1,3.8l4,3.8l4.1,3.8l4,3.8l4.1,3.8l4,3.7l4,3.7l4.1,3.7l4,3.6l4.1,3.5l4,3.4l4,3.2l4.1,3.2l4,3l4.1,2.9l4,2.6l4.1,2.6l4,2.3l4,2.1l4.1,2l4,1.7l4.1,1.5l4,1.3l4,1.1l4.1,0.8l4,0.6l4.1,0.3l4,0.2l4.1,-0.2l4,-0.3l4,-0.6l4.1,-0.8l4,-1.1l4.1,-1.3l4,-1.5l4,-1.7l4.1,-2l4,-2.1l4.1,-2.3l4,-2.6l4.1,-2.6l4,-2.9l4,-3l4.1,-3.2l4,-3.2l4.1,-3.4l4,-3.5l4,-3.6l4.1,-3.7l4,-3.7l4.1,-3.7l4,-3.8l4.1,-3.8l4,-3.8l4,-3.8l4.1,-3.8l4,-3.7l4.1,-3.6l4,-3.6l4,-3.5l4.1,-3.4l4,-3.3l4.1,-3.1l4,-3l4.1,-2.9l4,-2.7l4,-2.5l4.1,-2.3l4,-2.2l4.1,-1.9l4,-1.7l4,-1.5l4.1,-1.3l4,-1.1l4.1,-0.8l4,-0.6l4.1,-0.4l4,-0.1l4,0.1l4.1,0.4l4,0.6l4.1,0.8l4,1.1l4,1.3l4.1,1.5l4,1.7l4.1,1.9l4,2.2l4.1,2.3l4,2.5l4,2.7l4.1,2.9l4,3l4.1,3.1l4,3.3l4,3.4l4.1,3.5l4,3.6l4.1,3.6l4,3.7l4.1,3.8l4,3.8l4,3.8l4.1,3.8l4,3.8"/>
   <path id="svg_58" class="path g12_1" d="m0.000001,62.500002l4,-7.6l4.1,-7.4l4,-7.2l4.1,-6.7l4,-6.2l4,-5.5l4.1,-4.8l4,-4l4.1,-3.1l4,-2.3l4,-1.5l4.1,-0.7l4,-0.1l4.1,0.7l4,1.1l4.1,1.6l4,1.9l4,2l4.1,2.1l4,1.9l4.1,1.8l4,1.5l4,1.2l4.1,0.7l4,0.2l4.1,-0.2l4,-0.7l4.1,-1.2l4,-1.5l4,-1.8l4.1,-1.9l4,-2.1l4.1,-2l4,-1.9l4,-1.6l4.1,-1.1l4,-0.7l4.1,0.1l4,0.7l4.1,1.5l4,2.3l4,3.1l4.1,4l4,4.8l4.1,5.5l4,6.2l4,6.7l4.1,7.2l4,7.4l4.1,7.6l4,7.6l4.1,7.4l4,7.2l4,6.7l4.1,6.1l4,5.6l4.1,4.7l4,4l4,3.2l4.1,2.3l4,1.5l4.1,0.7l4,0l4.1,-0.6l4,-1.2l4,-1.5l4.1,-1.9l4,-2l4.1,-2.1l4,-2l4,-1.8l4.1,-1.5l4,-1.1l4.1,-0.7l4,-0.2l4.1,0.2l4,0.7l4,1.1l4.1,1.5l4,1.8l4.1,2l4,2.1l4,2l4.1,1.9l4,1.5l4.1,1.2l4,0.6l4.1,0l4,-0.7l4,-1.5l4.1,-2.3l4,-3.2l4.1,-4l4,-4.7l4,-5.6l4.1,-6.1l4,-6.7l4.1,-7.2l4,-7.4l4.1,-7.6l4,-7.6l4,-7.4l4.1,-7.2l4,-6.7l4.1,-6.2l4,-5.5l4,-4.8l4.1,-4l4,-3.1l4.1,-2.3l4,-1.5l4.1,-0.7l4,-0.1l4,0.7l4.1,1.1l4,1.6l4.1,1.9l4,2l4,2.1l4.1,1.9l4,1.8l4.1,1.5l4,1.2l4.1,0.7l4,0.2l4,-0.2l4.1,-0.7l4,-1.2l4.1,-1.5l4,-1.8l4,-1.9l4.1,-2.1l4,-2l4.1,-1.9l4,-1.6l4.1,-1.1l4,-0.7l4,0.1l4.1,0.7l4,1.5l4.1,2.3l4,3.1l4,4l4.1,4.8l4,5.5l4.1,6.2l4,6.7l4.1,7.2l4,7.4l4,7.6l4.1,7.6l4,7.4"/>
   <path id="svg_59" class="path g13_1" d="m0.000001,62.500002l4,-11.4l4.1,-10.8l4,-9.8l4.1,-8.4l4,-6.8l4,-4.9l4.1,-3.1l4,-1.3l4.1,0.2l4,1.5l4,2.2l4.1,2.7l4,2.6l4.1,2.4l4,1.7l4.1,1l4,0.2l4,-0.7l4.1,-1.3l4,-1.8l4.1,-1.9l4,-1.9l4,-1.5l4.1,-1.1l4,-0.3l4.1,0.3l4,1.1l4.1,1.5l4,1.9l4,1.9l4.1,1.8l4,1.3l4.1,0.7l4,-0.2l4,-1l4.1,-1.7l4,-2.4l4.1,-2.6l4,-2.7l4.1,-2.2l4,-1.5l4,-0.2l4.1,1.3l4,3.1l4.1,4.9l4,6.8l4,8.4l4.1,9.8l4,10.8l4.1,11.4l4,11.3l4.1,10.8l4,9.9l4,8.4l4.1,6.8l4,4.9l4.1,3l4,1.3l4,-0.2l4.1,-1.4l4,-2.3l4.1,-2.6l4,-2.7l4.1,-2.3l4,-1.8l4,-1l4.1,-0.1l4,0.7l4.1,1.3l4,1.7l4,2l4.1,1.9l4,1.5l4.1,1l4,0.4l4.1,-0.4l4,-1l4,-1.5l4.1,-1.9l4,-2l4.1,-1.7l4,-1.3l4,-0.7l4.1,0.1l4,1l4.1,1.8l4,2.3l4.1,2.7l4,2.6l4,2.3l4.1,1.4l4,0.2l4.1,-1.3l4,-3l4,-4.9l4.1,-6.8l4,-8.4l4.1,-9.9l4,-10.8l4.1,-11.3l4,-11.4l4,-10.8l4.1,-9.8l4,-8.4l4.1,-6.8l4,-4.9l4,-3.1l4.1,-1.3l4,0.2l4.1,1.5l4,2.2l4.1,2.7l4,2.6l4,2.4l4.1,1.7l4,1l4.1,0.2l4,-0.7l4,-1.3l4.1,-1.8l4,-1.9l4.1,-1.9l4,-1.5l4.1,-1.1l4,-0.3l4,0.3l4.1,1.1l4,1.5l4.1,1.9l4,1.9l4,1.8l4.1,1.3l4,0.7l4.1,-0.2l4,-1l4.1,-1.7l4,-2.4l4,-2.6l4.1,-2.7l4,-2.2l4.1,-1.5l4,-0.2l4,1.3l4.1,3.1l4,4.9l4.1,6.8l4,8.4l4.1,9.8l4,10.8l4,11.4l4.1,11.3l4,10.8"/>
   <path id="svg_60" class="path g14_1" d="m0.000001,62.500002l4,-15l4.1,-13.8l4,-11.6l4.1,-8.5l4,-5.3l4,-2.1l4.1,0.6l4,2.4l4.1,3.4l4,3.3l4,2.6l4.1,1.4l4,0l4.1,-1.2l4,-2l4.1,-2.3l4,-2l4,-1.2l4.1,-0.3l4,0.7l4.1,1.6l4,1.9l4,1.8l4.1,1.3l4,0.4l4.1,-0.4l4,-1.3l4.1,-1.8l4,-1.9l4,-1.6l4.1,-0.7l4,0.3l4.1,1.2l4,2l4,2.3l4.1,2l4,1.2l4.1,0l4,-1.4l4.1,-2.6l4,-3.3l4,-3.4l4.1,-2.4l4,-0.6l4.1,2.1l4,5.3l4,8.5l4.1,11.6l4,13.8l4.1,15l4,15l4.1,13.8l4,11.5l4,8.6l4.1,5.3l4,2l4.1,-0.5l4,-2.4l4,-3.4l4.1,-3.3l4,-2.6l4.1,-1.4l4,0l4.1,1.2l4,2l4,2.3l4.1,1.9l4,1.3l4.1,0.3l4,-0.8l4,-1.5l4.1,-1.9l4,-1.8l4.1,-1.3l4,-0.5l4.1,0.5l4,1.3l4,1.8l4.1,1.9l4,1.5l4.1,0.8l4,-0.3l4,-1.3l4.1,-1.9l4,-2.3l4.1,-2l4,-1.2l4.1,0l4,1.4l4,2.6l4.1,3.3l4,3.4l4.1,2.4l4,0.5l4,-2l4.1,-5.3l4,-8.6l4.1,-11.5l4,-13.8l4.1,-15l4,-15l4,-13.8l4.1,-11.6l4,-8.5l4.1,-5.3l4,-2.1l4,0.6l4.1,2.4l4,3.4l4.1,3.3l4,2.6l4.1,1.4l4,0l4,-1.2l4.1,-2l4,-2.3l4.1,-2l4,-1.2l4,-0.3l4.1,0.7l4,1.6l4.1,1.9l4,1.8l4.1,1.3l4,0.4l4,-0.4l4.1,-1.3l4,-1.8l4.1,-1.9l4,-1.6l4,-0.7l4.1,0.3l4,1.2l4.1,2l4,2.3l4.1,2l4,1.2l4,0l4.1,-1.4l4,-2.6l4.1,-3.3l4,-3.4l4,-2.4l4.1,-0.6l4,2.1l4.1,5.3l4,8.5l4.1,11.6l4,13.8l4,15l4.1,15l4,13.8"/>
   <path id="svg_61" class="path g15_1" d="m0.000001,62.500002l4,-18.6l4.1,-16.3l4,-12.2l4.1,-7l4,-2.2l4,1.7l4.1,3.8l4,4.1l4.1,3l4,1.1l4,-1l4.1,-2.3l4,-2.6l4.1,-2l4,-0.8l4.1,0.7l4,1.8l4,2.1l4.1,1.6l4,0.6l4.1,-0.6l4,-1.5l4,-1.9l4.1,-1.5l4,-0.6l4.1,0.6l4,1.5l4.1,1.9l4,1.5l4,0.6l4.1,-0.6l4,-1.6l4.1,-2.1l4,-1.8l4,-0.7l4.1,0.8l4,2l4.1,2.6l4,2.3l4.1,1l4,-1.1l4,-3l4.1,-4.1l4,-3.8l4.1,-1.7l4,2.2l4,7l4.1,12.2l4,16.3l4.1,18.6l4,18.6l4.1,16.3l4,12.1l4,7.1l4.1,2.1l4,-1.6l4.1,-3.8l4,-4.2l4,-2.9l4.1,-1.1l4,0.9l4.1,2.3l4,2.7l4.1,2l4,0.7l4,-0.7l4.1,-1.7l4,-2.1l4.1,-1.7l4,-0.6l4,0.6l4.1,1.6l4,1.9l4.1,1.5l4,0.6l4.1,-0.6l4,-1.5l4,-1.9l4.1,-1.6l4,-0.6l4.1,0.6l4,1.7l4,2.1l4.1,1.7l4,0.7l4.1,-0.7l4,-2l4.1,-2.7l4,-2.3l4,-0.9l4.1,1.1l4,2.9l4.1,4.2l4,3.8l4,1.6l4.1,-2.1l4,-7.1l4.1,-12.1l4,-16.3l4.1,-18.6l4,-18.6l4,-16.3l4.1,-12.2l4,-7l4.1,-2.2l4,1.7l4,3.8l4.1,4.1l4,3l4.1,1.1l4,-1l4.1,-2.3l4,-2.6l4,-2l4.1,-0.8l4,0.7l4.1,1.8l4,2.1l4,1.6l4.1,0.6l4,-0.6l4.1,-1.5l4,-1.9l4.1,-1.5l4,-0.6l4,0.6l4.1,1.5l4,1.9l4.1,1.5l4,0.6l4,-0.6l4.1,-1.6l4,-2.1l4.1,-1.8l4,-0.7l4.1,0.8l4,2l4,2.6l4.1,2.3l4,1l4.1,-1.1l4,-3l4,-4.1l4.1,-3.8l4,-1.7l4.1,2.2l4,7l4.1,12.2l4,16.3l4,18.6l4.1,18.6l4,16.3"/>
  </g>
 </g>
</svg>
