<?xml version="1.0" encoding="UTF-8" standalone="no"?>
<!DOCTYPE svg PUBLIC "-//W3C//DTD SVG 1.1//EN"
"http://www.w3.org/Graphics/SVG/1.1/DTD/svg11.dtd">


<!-- Page 1 -->
<svg x="0" y="0" width="620" height="179" viewBox="0 0 620 179" version="1.1" xmlns="http://www.w3.org/2000/svg" xmlns:xlink="http://www.w3.org/1999/xlink"
style="display: block;margin-left: auto;margin-right: auto;">
<defs>

<style type="text/css"><![CDATA[

.g0_1{
fill: none;
stroke: #FF0000;
stroke-width: 1.6810127;
stroke-linecap: butt;
stroke-linejoin: miter;
stroke-miterlimit: 4;
}
.g1_1{
fill: none;
stroke: #0000FF;
stroke-width: 1.6810127;
stroke-linecap: butt;
stroke-linejoin: miter;
stroke-miterlimit: 4;
}

]]></style>

</defs>
<path d="M0,0
L0,179
L620,179
L620,0 Z " 
fill="#FFFFFF" stroke="none" />
<path d="M310.1,90l11.1,-9.2l10.7,-9L342,62.9l9.2,-8.5l8,-8.1l6.6,-7.6l5,-7L374,25.4l1.1,-5.6l-1,-4.8l-3.3,-4L365.3,8L357.5,5.8L347.4,4.6L335.1,4.2l-14.3,.5L304.5,6.1l-18,2.2l-19.5,3L246.2,15l-21.7,4.3l-22.4,4.9l-22.8,5.3l-22.7,5.7l-22.4,6.1l-21.7,6.2L91.8,53.8L72.5,60.1L54.9,66.3l-15.5,6L26.1,78L15.3,83.5L7.4,88.4L2.3,92.9l-1.9,4l1.3,3.4l4.5,2.8l7.9,2.2l11,1.5l14.3,.9l17.2,.3l20.2,-.3l22.8,-.9l25.3,-1.4l27.4,-1.8l29.3,-2.2l30.8,-2.6L244.3,96L277,93l33.1,-3l33.2,-3L376,84l31.9,-2.8l30.8,-2.6L468,76.4l27.4,-1.8l25.3,-1.4l22.8,-.9L563.7,72l17.2,.3l14.3,.9l11,1.5l7.9,2.2l4.5,2.8l1.3,3.4L618,87l-5.1,4.6L605,96.5L594.2,102l-13.3,5.7l-15.5,6l-17.6,6.2l-19.3,6.3l-20.7,6.3l-21.7,6.2l-22.4,6.1L441,150.5l-22.8,5.3l-22.4,4.9L374.1,165l-20.8,3.7l-19.5,3l-18,2.2l-16.3,1.4l-14.3,.5l-12.3,-.4l-10.1,-1.2L255,172l-5.5,-3l-3.3,-4l-1,-4.8l1.1,-5.6l3.2,-6.3l5,-7l6.6,-7.6l8,-8.1l9.2,-8.5l10.1,-8.9l10.7,-9l11,-9.2" class="g0_1" />
<path d="M310.1,90l11.1,9.2l10.7,9l10.1,8.9l9.2,8.5l8,8.1l6.6,7.6l5,7l3.2,6.3l1.1,5.6l-1,4.8l-3.3,4l-5.5,3l-7.8,2.2l-10.1,1.2l-12.3,.4l-14.3,-.5l-16.3,-1.4l-18,-2.2l-19.5,-3L246.2,165l-21.7,-4.3l-22.4,-4.9l-22.8,-5.3l-22.7,-5.7l-22.4,-6.1l-21.7,-6.2L91.8,126.2L72.5,119.9L54.9,113.7l-15.5,-6L26.1,102L15.3,96.5L7.4,91.6L2.3,87L.4,83.1L1.7,79.7L6.2,76.9l7.9,-2.2l11,-1.5l14.3,-.9L56.6,72l20.2,.3l22.8,.9l25.3,1.4l27.4,1.8l29.3,2.2l30.8,2.6L244.3,84L277,87l33.1,3l33.2,3L376,96l31.9,2.8l30.8,2.6l29.3,2.2l27.4,1.8l25.3,1.4l22.8,.9l20.2,.3l17.2,-.3l14.3,-.9l11,-1.5l7.9,-2.2l4.5,-2.8l1.3,-3.4l-1.9,-4l-5.1,-4.5L605,83.5L594.2,78L580.9,72.3l-15.5,-6L547.8,60.1L528.5,53.8L507.8,47.5L486.1,41.3L463.7,35.2L441,29.5L418.2,24.2L395.8,19.3L374.1,15L353.3,11.3l-19.5,-3l-18,-2.2L299.5,4.7L285.2,4.2l-12.3,.4L262.8,5.8L255,8l-5.5,3l-3.3,4l-1,4.8l1.1,5.6l3.2,6.3l5,7l6.6,7.6l8,8.1l9.2,8.5l10.1,8.9l10.7,9l11,9.2" class="g1_1" />

</svg>
