<svg width="485" height="177" xmlns="http://www.w3.org/2000/svg">
 <defs>
  <clipPath id="c0_1">
   <path id="svg_1" d="m0,177.7l0,-177.7l485.1,0l0,177.7l-485.1,0z"/>
  </clipPath>
  <style type="text/css">
   <![CDATA[

.g0_1{
fill: none;
stroke: #0000FF;
stroke-width: 1.5247222;
stroke-linecap: round;
stroke-linejoin: miter;
stroke-miterlimit: 4;
}
.g1_1{
fill: none;
stroke: #FF0000;
stroke-width: 1.5247222;
stroke-linecap: round;
stroke-linejoin: miter;
stroke-miterlimit: 4;
}

]]>
  </style>
     <style>
   .path {
  stroke-dasharray: 10000;
  stroke-dashoffset: 0;
  animation: dash 25s linear infinite;
}
@keyframes dash {
  from {
    stroke-dashoffset: 10000;
  }
  to {
    stroke-dashoffset: 0;
  }
}
 </style>

  <linearGradient spreadMethod="pad" id="svg_7">
   <stop offset="0" stop-color="#FDFC47"/>
   <stop offset="1" stop-color="#24FE41"/>
  </linearGradient>
 </defs>
 <g>
  <title>background</title>
  <rect fill="url(#svg_7)" id="canvas_background" height="179" width="487" y="-1" x="-1"/>
 </g>
 <g>
  <title>Layer 1</title>
  <g id="svg_3" clip-path="url(#c0_1)">
   <path id="svg_4" class="path g0_1" d="m0.4,83.3l0.2,-5.5l0.2,-5.5c0.5,-14.7 1,-29.4 1.6,-44l0.2,-3.9l0.2,-3.7c0.5,-6.3 0.6,-13.5 1.7,-19.6l0.2,-0.5l0.2,-0.2l0.2,0.2l0.2,0.5c3.1,27.2 2.7,54.8 4.1,82.2l0.2,5.5l0.2,5.6c1.3,27.4 1,55 4.1,82.2l0.2,0.5l0.2,0.2l0.1,-0.2l0.2,-0.5c3.1,-27.2 2.8,-54.8 4.2,-82.2l0.3,-11.1c1.4,-27.4 1,-55 4.1,-82.2l0.2,-0.5l0.2,-0.2l0.2,0.2l0.2,0.5c3.1,27.2 2.8,54.8 4.1,82.2l0.2,5.5l0.2,5.6c1.3,27.4 1,55 4.1,82.2l0.2,0.5l0.2,0.2l0.2,-0.2l0.2,-0.5c3.1,-27.2 2.7,-54.8 4.1,-82.2l0.4,-11.1c1.3,-27.4 1,-55 4.1,-82.2l0.2,-0.5l0.2,-0.2l0.2,0.2l0.1,0.5c3.1,27.2 2.8,54.8 4.2,82.2l0.2,5.5l0.1,5.6l0.2,5.5c0.5,15.1 1.1,30.2 1.7,45.3l0.2,4.2l0.2,3.9c0.4,7.4 0.6,15.2 1.7,22.4l0.2,0.9l0.2,0.5l0.1,0.2l0.2,-0.2l0.2,-0.5c3.1,-27.2 2.8,-54.8 4.1,-82.2l0.4,-11.1c1.4,-27.4 1,-55 4.1,-82.2l0.2,-0.5l0.2,-0.2l0.2,0.2l0.2,0.5c3.1,27.2 2.8,54.8 4.1,82.2l0.2,5.5l0.2,5.6c1.3,27.4 1,55 4.1,82.2l0.2,0.5l0.2,0.2l0.2,-0.2l0.2,-0.5l0.1,-0.9c1.1,-7.2 1.3,-15 1.7,-22.4l0.2,-3.9l0.2,-4.2c0.7,-15.1 1.2,-30.2 1.7,-45.3l0.2,-5.5l0.2,-5.6l0.2,-5.5c1.3,-27.4 1,-55 4.1,-82.2l0.2,-0.5l0.2,-0.2l0.1,0.2l0.2,0.5c3.1,27.2 2.8,54.8 4.2,82.2l0.3,11.1c1.4,27.4 1,55 4.1,82.2l0.2,0.5l0.2,0.2l0.2,-0.2l0.2,-0.5l0.2,-0.9c1,-7.2 1.2,-15 1.7,-22.4l0.2,-3.9l0.1,-4.2c0.7,-15.1 1.2,-30.2 1.7,-45.3l0.2,-5.5l0.2,-5.6l0.2,-5.5c1.3,-27.4 1,-55 4.1,-82.2l0.2,-0.5l0.2,-0.2l0.2,0.2l0.2,0.5c3.1,27.2 2.7,54.8 4.1,82.2l0.4,11.1c1.3,27.4 1,55 4.1,82.2l0.2,0.5l0.2,0.2l0.2,-0.2l0.1,-0.5c3.1,-27.2 2.8,-54.8 4.2,-82.2l0.2,-5.6l0.1,-5.5l0.2,-5.5c0.5,-15.1 1.1,-30.2 1.7,-45.3l0.2,-4.2l0.2,-3.9c0.4,-7.4 0.6,-15.2 1.7,-22.5l0.2,-0.8l0.2,-0.5l0.1,-0.2l0.2,0.2l0.2,0.5c3.1,27.2 2.8,54.8 4.1,82.2l0.4,11.1c1.4,27.4 1,55 4.1,82.2l0.2,0.5l0.2,0.2l0.2,-0.2l0.2,-0.5c3.1,-27.2 2.8,-54.8 4.1,-82.2l0.2,-5.6l0.2,-5.5c1.3,-27.4 1,-55 4.1,-82.2l0.2,-0.5l0.2,-0.2l0.2,0.2l0.2,0.5l0.1,0.8c1.1,7.3 1.3,15.1 1.7,22.5l0.2,3.9l0.2,4.2c0.7,15.1 1.2,30.2 1.7,45.3l0.2,5.5l0.2,5.5l0.2,5.6c1.3,27.4 1,55 4.1,82.2l0.2,0.5l0.2,0.2l0.1,-0.2l0.2,-0.5c3.1,-27.2 2.8,-54.8 4.2,-82.2l0.3,-11.1c1.4,-27.4 1,-55 4.1,-82.2l0.2,-0.5l0.2,-0.2l0.2,0.2l0.2,0.5l0.2,0.8c1,7.3 1.2,15.1 1.7,22.5l0.2,3.9l0.1,4.2c0.7,15.1 1.2,30.2 1.7,45.3l0.2,5.5l0.2,5.5l0.2,5.6l0.2,5.5c0.5,15.1 1,30.2 1.7,45.3l0.2,4.2l0.1,3.9c0.5,7.4 0.7,15.2 1.7,22.4l0.2,0.9l0.2,0.5l0.2,0.2l0.2,-0.2l0.2,-0.5c3.1,-27.2 2.7,-54.8 4.1,-82.2l0.2,-5.6l0.2,-5.5c1.3,-27.4 1,-55 4.1,-82.2l0.2,-0.5l0.2,-0.2l0.2,0.2l0.1,0.5c3.1,27.2 2.8,54.8 4.2,82.2l0.2,5.5l0.1,5.6l0.2,5.5c0.5,15.1 1.1,30.2 1.7,45.3l0.2,4.2l0.2,3.9c0.4,7.4 0.6,15.2 1.7,22.4l0.2,0.9l0.2,0.5l0.1,0.2l0.2,-0.2l0.2,-0.5c3.1,-27.2 2.8,-54.8 4.1,-82.2l0.2,-5.6l0.2,-5.5c1.4,-27.4 1,-55 4.1,-82.2l0.2,-0.5l0.2,-0.2l0.2,0.2l0.2,0.5c3.1,27.2 2.8,54.8 4.1,82.2l0.2,5.5l0.2,5.6c1.3,27.4 1,55 4.1,82.2l0.2,0.5l0.2,0.2l0.2,-0.2l0.2,-0.5l0.1,-0.9c1.1,-7.2 1.3,-15 1.7,-22.4l0.2,-3.9l0.2,-4.2c0.7,-15.1 1.2,-30.2 1.7,-45.3l0.2,-5.5l0.2,-5.6l0.2,-5.5c1.3,-27.4 1,-55 4.1,-82.2l0.2,-0.5l0.2,-0.2l0.1,0.2l0.2,0.5c3.1,27.2 2.8,54.8 4.2,82.2l0.3,11.1c1.4,27.4 1,55 4.2,82.2l0.1,0.5l0.2,0.2l0.2,-0.2l0.2,-0.5l0.2,-0.9c1,-7.2 1.2,-15 1.7,-22.4l0.2,-3.9l0.1,-4.2c0.7,-15.1 1.2,-30.2 1.7,-45.3l0.2,-5.5l0.2,-5.6l0.2,-5.5c1.3,-27.4 1,-55 4.1,-82.2l0.2,-0.5l0.2,-0.2l0.2,0.2l0.2,0.5c3.1,27.2 2.7,54.8 4.1,82.2l0.2,5.5l0.2,5.6c1.3,27.4 1,55 4.1,82.2l0.2,0.5l0.2,0.2l0.2,-0.2l0.1,-0.5c3.1,-27.2 2.8,-54.8 4.2,-82.2l0.2,-5.6l0.1,-5.5l0.2,-5.5c0.5,-15.1 1.1,-30.2 1.7,-45.3l0.2,-4.2l0.2,-3.9c0.4,-7.4 0.6,-15.2 1.7,-22.5l0.2,-0.8l0.2,-0.5l0.1,-0.2l0.2,0.2l0.2,0.5c3.1,27.2 2.8,54.8 4.1,82.2l0.4,11.1c1.4,27.4 1,55 4.1,82.2l0.2,0.5l0.2,0.2l0.2,-0.2l0.2,-0.5c3.1,-27.2 2.8,-54.8 4.1,-82.2l0.2,-5.6l0.2,-5.5c1.3,-27.4 1,-55 4.1,-82.2l0.2,-0.5l0.2,-0.2l0.2,0.2l0.2,0.5l0.1,0.8c1.1,7.3 1.3,15.1 1.7,22.5l0.2,3.9l0.2,4.2c0.7,15.1 1.2,30.2 1.7,45.3l0.2,5.5l0.2,5.5l0.2,5.6c1.3,27.4 1,55 4.1,82.2l0.2,0.5l0.2,0.2l0.1,-0.2l0.2,-0.5c3.1,-27.2 2.8,-54.8 4.2,-82.2l0.1,-5.6l0.2,-5.5c1.4,-27.4 1,-55 4.2,-82.2l0.1,-0.5l0.2,-0.2l0.2,0.2l0.2,0.5l0.2,0.8c1,7.3 1.2,15.1 1.7,22.5l0.2,3.9l0.1,4.2c0.7,15.1 1.2,30.2 1.7,45.3l0.2,5.5l0.2,5.5l0.2,5.6c1.4,27.4 1,55 4.1,82.2l0.2,0.5l0.2,0.2l0.2,-0.2l0.2,-0.5c3.1,-27.2 2.7,-54.8 4.1,-82.2l0.2,-5.6l0.2,-5.5c1.3,-27.4 1,-55 4.1,-82.2l0.2,-0.5l0.2,-0.2l0.2,0.2l0.1,0.5c3.1,27.2 2.8,54.8 4.2,82.2l0.2,5.5l0.1,5.6l0.2,5.5c0.5,15.1 1.1,30.2 1.7,45.3l0.2,4.2l0.2,3.9c0.4,7.4 0.6,15.2 1.7,22.4l0.2,0.9l0.2,0.5l0.1,0.2l0.2,-0.2l0.2,-0.5c3.1,-27.2 2.8,-54.8 4.1,-82.2l0.4,-11.1c1.4,-27.4 1,-55 4.1,-82.2l0.2,-0.5l0.2,-0.2l0.2,0.2l0.2,0.5c3.1,27.2 2.8,54.8 4.1,82.2l0.4,11.1c1.3,27.4 1,55 4.1,82.2l0.2,0.5l0.2,0.2l0.2,-0.2l0.2,-0.5l0.1,-0.9c1.1,-7.2 1.3,-15 1.7,-22.4l0.2,-3.9l0.2,-4.2c0.7,-15.1 1.2,-30.2 1.7,-45.3l0.2,-5.5l0.2,-5.6l0.2,-5.5c1.3,-27.4 1,-55 4.1,-82.2l0.2,-0.5l0.2,-0.2l0.1,0.2l0.2,0.5c3.1,27.2 2.8,54.8 4.2,82.2l0.3,11.1c1.4,27.4 1,55 4.2,82.2l0.1,0.5l0.2,0.2l0.2,-0.2l0.2,-0.5l0.2,-0.9c1,-7.2 1.2,-15 1.7,-22.4l0.2,-3.9l0.2,-4.2c0.6,-15.1 1.1,-30.2 1.6,-45.3l0.2,-5.5l0.2,-5.6l0.2,-5.5c1.3,-27.4 1,-55 4.1,-82.2l0.2,-0.5l0.2,-0.2l0.2,0.2l0.2,0.5c3.1,27.2 2.7,54.8 4.1,82.2l0.2,5.5l0.2,5.6c1.3,27.4 1,55 4.1,82.2l0.2,0.5l0.2,0.2l0.2,-0.2l0.1,-0.5c3.1,-27.2 2.8,-54.8 4.2,-82.2l0.2,-5.6l0.1,-5.5l0.2,-5.5c0.5,-15.1 1.1,-30.2 1.7,-45.3l0.2,-4.2l0.2,-3.9c0.4,-7.4 0.6,-15.2 1.7,-22.5l0.2,-0.8l0.2,-0.5l0.1,-0.2l0.2,0.2l0.2,0.5c3.1,27.2 2.8,54.8 4.1,82.2l0.4,11.1c1.4,27.4 1,55 4.1,82.2l0.2,0.5l0.2,0.2l0.2,-0.2l0.2,-0.5c3.1,-27.2 2.8,-54.8 4.1,-82.2l0.2,-5.6l0.2,-5.5l0.2,-5.5c0.5,-15.1 1,-30.2 1.7,-45.3l0.1,-4.2l0.2,-3.9c0.5,-7.4 0.7,-15.2 1.7,-22.5l0.2,-0.8l0.2,-0.5l0.2,-0.2l0.2,0.2l0.2,0.5l0.1,0.8c1.1,7.3 1.3,15.1 1.7,22.5l0.2,3.9l0.2,4.2c0.7,15.1 1.2,30.2 1.7,45.3l0.2,5.5l0.2,5.5l0.2,5.6c1.3,27.4 1,55 4.1,82.2l0.2,0.5l0.2,0.2l0.1,-0.2l0.2,-0.5c3.1,-27.2 2.8,-54.8 4.2,-82.2l0.1,-5.6l0.2,-5.5c1.4,-27.4 1,-55 4.2,-82.2l0.1,-0.5l0.2,-0.2l0.2,0.2l0.2,0.5l0.2,0.8c1,7.3 1.2,15.1 1.7,22.5l0.2,3.9l0.2,4.2c0.6,15.1 1.1,30.2 1.6,45.3l0.2,5.5l0.2,5.5l0.2,5.6l0.2,5.5c0.5,15.1 1,30.2 1.7,45.3l0.2,4.2l0.1,3.9c0.5,7.4 0.7,15.2 1.7,22.4l0.2,0.9l0.2,0.5l0.2,0.2l0.2,-0.2l0.2,-0.5c3.1,-27.2 2.7,-54.8 4.1,-82.2l0.4,-11.1c1.3,-27.4 1,-55 4.1,-82.2l0.2,-0.5l0.2,-0.2l0.2,0.2l0.1,0.5c3.2,27.2 2.8,54.8 4.2,82.2l0.2,5.5l0.1,5.6l0.2,5.5c0.5,15.1 1.1,30.2 1.7,45.3l0.2,4.2l0.2,3.9c0.4,7.4 0.6,15.2 1.7,22.4l0.2,0.9l0.2,0.5l0.1,0.2l0.2,-0.2l0.2,-0.5c3.1,-27.2 2.8,-54.8 4.1,-82.2l0.4,-11.1c1.4,-27.4 1,-55 4.1,-82.2l0.2,-0.5l0.2,-0.2l0.2,0.2l0.2,0.5c3.1,27.2 2.8,54.8 4.1,82.2l0.2,5.5l0.2,5.6l0.2,5.5c0.5,15.1 1,30.2 1.7,45.3l0.1,4.2l0.2,3.9c0.5,7.4 0.7,15.2 1.7,22.4l0.2,0.9l0.2,0.5l0.2,0.2l0.2,-0.2l0.2,-0.5c3.1,-27.2 2.7,-54.8 4.1,-82.2l0.2,-5.6l0.2,-5.5c1.3,-27.4 1,-55 4.1,-82.2l0.2,-0.5l0.2,-0.2l0.1,0.2l0.2,0.5c3.1,27.2 2.8,54.8 4.2,82.2l0.1,5.5l0.2,5.6c1.4,27.4 1,55 4.2,82.2l0.1,0.5l0.2,0.2l0.2,-0.2l0.2,-0.5l0.2,-0.9c1,-7.2 1.2,-15 1.7,-22.4l0.2,-3.9l0.2,-4.2c0.6,-15.1 1.1,-30.2 1.6,-45.3l0.2,-5.5l0.2,-5.6l0.2,-5.5c1.4,-27.4 1,-55 4.1,-82.2l0.2,-0.5l0.2,-0.2l0.2,0.2l0.2,0.5c3.1,27.2 2.7,54.8 4.1,82.2l0.4,11.1c1.3,27.4 1,55 4.1,82.2l0.2,0.5l0.2,0.2l0.2,-0.2l0.1,-0.5c3.2,-27.2 2.8,-54.8 4.2,-82.2l0.2,-5.6l0.1,-5.5l0.2,-5.5c0.5,-15.1 1.1,-30.2 1.7,-45.3l0.2,-4.2l0.2,-3.9c0.4,-7.4 0.6,-15.2 1.7,-22.5l0.2,-0.8l0.2,-0.5l0.1,-0.2l0.2,0.2l0.2,0.5c3.1,27.2 2.8,54.8 4.1,82.2l0.2,5.5l0.2,5.6c1.4,27.4 1,55 4.1,82.2l0.2,0.5l0.2,0.2l0.2,-0.2l0.2,-0.5c3.1,-27.2 2.8,-54.8 4.1,-82.2l0.2,-5.6l0.2,-5.5c1.3,-27.4 1,-55 4.1,-82.2l0.2,-0.5l0.2,-0.2l0.2,0.2l0.2,0.5c3.1,27.2 2.7,54.8 4.1,82.2l0.2,5.5l0.2,5.6c1.3,27.4 1,55 4.1,82.2l0.2,0.5l0.2,0.2l0.1,-0.2l0.2,-0.5c3.1,-27.2 2.8,-54.8 4.2,-82.2l0.3,-11.1c1.4,-27.4 1.1,-55 4.2,-82.2l0.1,-0.5l0.2,-0.2l0.2,0.2l0.2,0.5l0.2,0.8c1,7.3 1.2,15.1 1.7,22.5l0.2,3.9l0.2,4.2c0.6,15.1 1.1,30.2 1.6,45.3l0.2,5.5l0.2,5.5l0.2,5.6c1.4,27.4 1,55 4.1,82.2l0.2,0.5l0.2,0.2l0.2,-0.2l0.2,-0.5c1.1,-6.1 1.2,-13.3 1.7,-19.6l0.1,-3.7l0.2,-3.9c0.8,-16.5 1.3,-33 1.9,-49.5l0.2,-5.5l0.2,-5.6"/>
   <path id="svg_5" class="path g1_1" d="m0.4,94.4l0.2,5.5l0.2,5.5c0.5,14.7 1,29.3 1.6,44l0.2,3.9l0.2,3.7c0.5,6.3 0.6,13.5 1.7,19.6l0.2,0.5l0.2,0.2l0.2,-0.2l0.2,-0.5c3.1,-27.2 2.7,-54.8 4.1,-82.2l0.2,-5.6l0.2,-5.5c1.3,-27.4 1,-55 4.1,-82.2l0.2,-0.5l0.2,-0.2l0.1,0.2l0.2,0.5c3.1,27.2 2.8,54.8 4.2,82.2l0.3,11.1c1.4,27.4 1,55 4.1,82.2l0.2,0.5l0.2,0.2l0.2,-0.2l0.2,-0.5c3.1,-27.2 2.8,-54.8 4.1,-82.2l0.2,-5.6l0.2,-5.5c1.3,-27.4 1,-55 4.1,-82.2l0.2,-0.5l0.2,-0.2l0.2,0.2l0.2,0.5c3.1,27.2 2.7,54.8 4.1,82.2l0.4,11.1c1.3,27.4 1,55 4.1,82.2l0.2,0.5l0.2,0.2l0.2,-0.2l0.1,-0.5c3.1,-27.2 2.8,-54.8 4.2,-82.2l0.2,-5.6l0.1,-5.5l0.2,-5.5c0.5,-15.1 1.1,-30.2 1.7,-45.3l0.2,-4.2l0.2,-3.9c0.4,-7.4 0.6,-15.2 1.7,-22.5l0.2,-0.8l0.2,-0.5l0.1,-0.2l0.2,0.2l0.2,0.5c3.1,27.2 2.8,54.8 4.1,82.2l0.4,11.1c1.4,27.4 1,55 4.1,82.2l0.2,0.5l0.2,0.2l0.2,-0.2l0.2,-0.5c3.1,-27.2 2.8,-54.8 4.1,-82.2l0.2,-5.6l0.2,-5.5c1.3,-27.4 1,-55 4.1,-82.2l0.2,-0.5l0.2,-0.2l0.2,0.2l0.2,0.5l0.1,0.8c1.1,7.3 1.3,15.1 1.7,22.5l0.2,3.9l0.2,4.2c0.7,15.1 1.2,30.2 1.7,45.3l0.2,5.5l0.2,5.5l0.2,5.6c1.3,27.4 1,55 4.1,82.2l0.2,0.5l0.2,0.2l0.1,-0.2l0.2,-0.5c3.1,-27.2 2.8,-54.8 4.2,-82.2l0.3,-11.1c1.4,-27.4 1,-55 4.1,-82.2l0.2,-0.5l0.2,-0.2l0.2,0.2l0.2,0.5l0.2,0.8c1,7.3 1.2,15.1 1.7,22.5l0.2,3.9l0.1,4.2c0.7,15.1 1.2,30.2 1.7,45.3l0.2,5.5l0.2,5.5l0.2,5.6c1.3,27.4 1,55 4.1,82.2l0.2,0.5l0.2,0.2l0.2,-0.2l0.2,-0.5c3.1,-27.2 2.7,-54.8 4.1,-82.2l0.4,-11.1c1.3,-27.4 1,-55 4.1,-82.2l0.2,-0.5l0.2,-0.2l0.2,0.2l0.1,0.5c3.1,27.2 2.8,54.8 4.2,82.2l0.2,5.5l0.1,5.6l0.2,5.5c0.5,15.1 1.1,30.2 1.7,45.3l0.2,4.2l0.2,3.9c0.4,7.4 0.6,15.2 1.7,22.4l0.2,0.9l0.2,0.5l0.1,0.2l0.2,-0.2l0.2,-0.5c3.1,-27.2 2.8,-54.8 4.1,-82.2l0.4,-11.1c1.4,-27.4 1,-55 4.1,-82.2l0.2,-0.5l0.2,-0.2l0.2,0.2l0.2,0.5c3.1,27.2 2.8,54.8 4.1,82.2l0.2,5.5l0.2,5.6c1.3,27.4 1,55 4.1,82.2l0.2,0.5l0.2,0.2l0.2,-0.2l0.2,-0.5l0.1,-0.9c1.1,-7.2 1.3,-15 1.7,-22.4l0.2,-3.9l0.2,-4.2c0.7,-15.1 1.2,-30.2 1.7,-45.3l0.2,-5.5l0.2,-5.6l0.2,-5.5c1.3,-27.4 1,-55 4.1,-82.2l0.2,-0.5l0.2,-0.2l0.1,0.2l0.2,0.5c3.1,27.2 2.8,54.8 4.2,82.2l0.3,11.1c1.4,27.4 1,55 4.1,82.2l0.2,0.5l0.2,0.2l0.2,-0.2l0.2,-0.5l0.2,-0.9c1,-7.2 1.2,-15 1.7,-22.4l0.2,-3.9l0.1,-4.2c0.7,-15.1 1.2,-30.2 1.7,-45.3l0.2,-5.5l0.2,-5.6l0.2,-5.5l0.2,-5.5c0.5,-15.1 1,-30.2 1.7,-45.3l0.2,-4.2l0.1,-3.9c0.5,-7.4 0.7,-15.2 1.7,-22.5l0.2,-0.8l0.2,-0.5l0.2,-0.2l0.2,0.2l0.2,0.5c3.1,27.2 2.7,54.8 4.1,82.2l0.2,5.5l0.2,5.6c1.3,27.4 1,55 4.1,82.2l0.2,0.5l0.2,0.2l0.2,-0.2l0.1,-0.5c3.1,-27.2 2.8,-54.8 4.2,-82.2l0.2,-5.6l0.1,-5.5l0.2,-5.5c0.5,-15.1 1.1,-30.2 1.7,-45.3l0.2,-4.2l0.2,-3.9c0.4,-7.4 0.6,-15.2 1.7,-22.5l0.2,-0.8l0.2,-0.5l0.1,-0.2l0.2,0.2l0.2,0.5c3.1,27.2 2.8,54.8 4.1,82.2l0.2,5.5l0.2,5.6c1.4,27.4 1,55 4.1,82.2l0.2,0.5l0.2,0.2l0.2,-0.2l0.2,-0.5c3.1,-27.2 2.8,-54.8 4.1,-82.2l0.2,-5.6l0.2,-5.5c1.3,-27.4 1,-55 4.1,-82.2l0.2,-0.5l0.2,-0.2l0.2,0.2l0.2,0.5l0.1,0.8c1.1,7.3 1.3,15.1 1.7,22.5l0.2,3.9l0.2,4.2c0.7,15.1 1.2,30.2 1.7,45.3l0.2,5.5l0.2,5.5l0.2,5.6c1.3,27.4 1,55 4.1,82.2l0.2,0.5l0.2,0.2l0.1,-0.2l0.2,-0.5c3.1,-27.2 2.8,-54.8 4.2,-82.2l0.3,-11.1c1.4,-27.4 1,-55 4.2,-82.2l0.1,-0.5l0.2,-0.2l0.2,0.2l0.2,0.5l0.2,0.8c1,7.3 1.2,15.1 1.7,22.5l0.2,3.9l0.1,4.2c0.7,15.1 1.2,30.2 1.7,45.3l0.2,5.5l0.2,5.5l0.2,5.6c1.4,27.4 1,55 4.1,82.2l0.2,0.5l0.2,0.2l0.2,-0.2l0.2,-0.5c3.1,-27.2 2.7,-54.8 4.1,-82.2l0.2,-5.6l0.2,-5.5c1.3,-27.4 1,-55 4.1,-82.2l0.2,-0.5l0.2,-0.2l0.2,0.2l0.1,0.5c3.1,27.2 2.8,54.8 4.2,82.2l0.2,5.5l0.1,5.6l0.2,5.5c0.5,15.1 1.1,30.2 1.7,45.3l0.2,4.2l0.2,3.9c0.4,7.4 0.6,15.2 1.7,22.4l0.2,0.9l0.2,0.5l0.1,0.2l0.2,-0.2l0.2,-0.5c3.1,-27.2 2.8,-54.8 4.1,-82.2l0.4,-11.1c1.4,-27.4 1,-55 4.1,-82.2l0.2,-0.5l0.2,-0.2l0.2,0.2l0.2,0.5c3.1,27.2 2.8,54.8 4.1,82.2l0.2,5.5l0.2,5.6c1.3,27.4 1,55 4.1,82.2l0.2,0.5l0.2,0.2l0.2,-0.2l0.2,-0.5l0.1,-0.9c1.1,-7.2 1.3,-15 1.7,-22.4l0.2,-3.9l0.2,-4.2c0.7,-15.1 1.2,-30.2 1.7,-45.3l0.2,-5.5l0.2,-5.6l0.2,-5.5c1.3,-27.4 1,-55 4.1,-82.2l0.2,-0.5l0.2,-0.2l0.1,0.2l0.2,0.5c3.1,27.2 2.8,54.8 4.2,82.2l0.1,5.5l0.2,5.6c1.4,27.4 1,55 4.2,82.2l0.1,0.5l0.2,0.2l0.2,-0.2l0.2,-0.5l0.2,-0.9c1,-7.2 1.2,-15 1.7,-22.4l0.2,-3.9l0.1,-4.2c0.7,-15.1 1.2,-30.2 1.7,-45.3l0.2,-5.5l0.2,-5.6l0.2,-5.5c1.4,-27.4 1,-55 4.1,-82.2l0.2,-0.5l0.2,-0.2l0.2,0.2l0.2,0.5c3.1,27.2 2.7,54.8 4.1,82.2l0.2,5.5l0.2,5.6c1.3,27.4 1,55 4.1,82.2l0.2,0.5l0.2,0.2l0.2,-0.2l0.1,-0.5c3.1,-27.2 2.8,-54.8 4.2,-82.2l0.2,-5.6l0.1,-5.5l0.2,-5.5c0.5,-15.1 1.1,-30.2 1.7,-45.3l0.2,-4.2l0.2,-3.9c0.4,-7.4 0.6,-15.2 1.7,-22.5l0.2,-0.8l0.2,-0.5l0.1,-0.2l0.2,0.2l0.2,0.5c3.1,27.2 2.8,54.8 4.1,82.2l0.4,11.1c1.4,27.4 1,55 4.1,82.2l0.2,0.5l0.2,0.2l0.2,-0.2l0.2,-0.5c3.1,-27.2 2.8,-54.8 4.1,-82.2l0.4,-11.1c1.3,-27.4 1,-55 4.1,-82.2l0.2,-0.5l0.2,-0.2l0.2,0.2l0.2,0.5l0.1,0.8c1.1,7.3 1.3,15.1 1.7,22.5l0.2,3.9l0.2,4.2c0.7,15.1 1.2,30.2 1.7,45.3l0.2,5.5l0.2,5.5l0.2,5.6c1.3,27.4 1,55 4.1,82.2l0.2,0.5l0.2,0.2l0.1,-0.2l0.2,-0.5c3.1,-27.2 2.8,-54.8 4.2,-82.2l0.3,-11.1c1.4,-27.4 1,-55 4.2,-82.2l0.1,-0.5l0.2,-0.2l0.2,0.2l0.2,0.5l0.2,0.8c1,7.3 1.2,15.1 1.7,22.5l0.2,3.9l0.2,4.2c0.6,15.1 1.1,30.2 1.6,45.3l0.2,5.5l0.2,5.5l0.2,5.6c1.3,27.4 1,55 4.1,82.2l0.2,0.5l0.2,0.2l0.2,-0.2l0.2,-0.5c3.1,-27.2 2.7,-54.8 4.1,-82.2l0.2,-5.6l0.2,-5.5c1.3,-27.4 1,-55 4.1,-82.2l0.2,-0.5l0.2,-0.2l0.2,0.2l0.1,0.5c3.1,27.2 2.8,54.8 4.2,82.2l0.2,5.5l0.1,5.6l0.2,5.5c0.5,15.1 1.1,30.2 1.7,45.3l0.2,4.2l0.2,3.9c0.4,7.4 0.6,15.2 1.7,22.4l0.2,0.9l0.2,0.5l0.1,0.2l0.2,-0.2l0.2,-0.5c3.1,-27.2 2.8,-54.8 4.1,-82.2l0.4,-11.1c1.4,-27.4 1,-55 4.1,-82.2l0.2,-0.5l0.2,-0.2l0.2,0.2l0.2,0.5c3.1,27.2 2.8,54.8 4.1,82.2l0.2,5.5l0.2,5.6l0.2,5.5c0.5,15.1 1,30.2 1.7,45.3l0.1,4.2l0.2,3.9c0.5,7.4 0.7,15.2 1.7,22.4l0.2,0.9l0.2,0.5l0.2,0.2l0.2,-0.2l0.2,-0.5l0.1,-0.9c1.1,-7.2 1.3,-15 1.7,-22.4l0.2,-3.9l0.2,-4.2c0.7,-15.1 1.2,-30.2 1.7,-45.3l0.2,-5.5l0.2,-5.6l0.2,-5.5c1.3,-27.4 1,-55 4.1,-82.2l0.2,-0.5l0.2,-0.2l0.1,0.2l0.2,0.5c3.1,27.2 2.8,54.8 4.2,82.2l0.1,5.5l0.2,5.6c1.4,27.4 1,55 4.2,82.2l0.1,0.5l0.2,0.2l0.2,-0.2l0.2,-0.5l0.2,-0.9c1,-7.2 1.2,-15 1.7,-22.4l0.2,-3.9l0.2,-4.2c0.6,-15.1 1.1,-30.2 1.6,-45.3l0.2,-5.5l0.2,-5.6l0.2,-5.5l0.2,-5.5c0.5,-15.1 1,-30.2 1.7,-45.3l0.2,-4.2l0.1,-3.9c0.5,-7.4 0.7,-15.2 1.7,-22.5l0.2,-0.8l0.2,-0.5l0.2,-0.2l0.2,0.2l0.2,0.5c3.1,27.2 2.7,54.8 4.1,82.2l0.4,11.1c1.3,27.4 1,55 4.1,82.2l0.2,0.5l0.2,0.2l0.2,-0.2l0.1,-0.5c3.2,-27.2 2.8,-54.8 4.2,-82.2l0.2,-5.6l0.1,-5.5l0.2,-5.5c0.5,-15.1 1.1,-30.2 1.7,-45.3l0.2,-4.2l0.2,-3.9c0.4,-7.4 0.6,-15.2 1.7,-22.5l0.2,-0.8l0.2,-0.5l0.1,-0.2l0.2,0.2l0.2,0.5c3.1,27.2 2.8,54.8 4.1,82.2l0.4,11.1c1.4,27.4 1,55 4.1,82.2l0.2,0.5l0.2,0.2l0.2,-0.2l0.2,-0.5c3.1,-27.2 2.8,-54.8 4.1,-82.2l0.2,-5.6l0.2,-5.5l0.2,-5.5c0.5,-15.1 1,-30.2 1.7,-45.3l0.1,-4.2l0.2,-3.9c0.5,-7.4 0.7,-15.2 1.7,-22.5l0.2,-0.8l0.2,-0.5l0.2,-0.2l0.2,0.2l0.2,0.5c3.1,27.2 2.7,54.8 4.1,82.2l0.2,5.5l0.2,5.6c1.3,27.4 1,55 4.1,82.2l0.2,0.5l0.2,0.2l0.1,-0.2l0.2,-0.5c3.1,-27.2 2.8,-54.8 4.2,-82.2l0.1,-5.6l0.2,-5.5c1.4,-27.4 1,-55 4.2,-82.2l0.1,-0.5l0.2,-0.2l0.2,0.2l0.2,0.5l0.2,0.8c1,7.3 1.2,15.1 1.7,22.5l0.2,3.9l0.2,4.2c0.6,15.1 1.1,30.2 1.6,45.3l0.2,5.5l0.2,5.5l0.2,5.6c1.4,27.4 1,55 4.1,82.2l0.2,0.5l0.2,0.2l0.2,-0.2l0.2,-0.5c3.1,-27.2 2.7,-54.8 4.1,-82.2l0.4,-11.1c1.3,-27.4 1,-55 4.1,-82.2l0.2,-0.5l0.2,-0.2l0.2,0.2l0.1,0.5c3.2,27.2 2.8,54.8 4.2,82.2l0.2,5.5l0.1,5.6l0.2,5.5c0.5,15.1 1.1,30.2 1.7,45.3l0.2,4.2l0.2,3.9c0.4,7.4 0.6,15.2 1.7,22.4l0.2,0.9l0.2,0.5l0.1,0.2l0.2,-0.2l0.2,-0.5c3.1,-27.2 2.8,-54.8 4.1,-82.2l0.2,-5.6l0.2,-5.5c1.4,-27.4 1,-55 4.1,-82.2l0.2,-0.5l0.2,-0.2l0.2,0.2l0.2,0.5c3.1,27.2 2.8,54.8 4.1,82.2l0.2,5.5l0.2,5.6l0.2,5.5c0.5,15.1 1,30.2 1.7,45.3l0.1,4.2l0.2,3.9c0.5,7.4 0.7,15.2 1.7,22.4l0.2,0.9l0.2,0.5l0.2,0.2l0.2,-0.2l0.2,-0.5c3.1,-27.2 2.7,-54.8 4.1,-82.2l0.2,-5.6l0.2,-5.5c1.3,-27.4 1,-55 4.1,-82.2l0.2,-0.5l0.2,-0.2l0.1,0.2l0.2,0.5c3.1,27.2 2.8,54.8 4.2,82.2l0.3,11.1c1.4,27.4 1.1,55 4.2,82.2l0.1,0.5l0.2,0.2l0.2,-0.2l0.2,-0.5l0.2,-0.9c1,-7.2 1.2,-15 1.7,-22.4l0.2,-3.9l0.2,-4.2c0.6,-15.1 1.1,-30.2 1.6,-45.3l0.2,-5.5l0.2,-5.6l0.2,-5.5c1.4,-27.4 1,-55 4.1,-82.2l0.2,-0.5l0.2,-0.2l0.2,0.2l0.2,0.5c1.1,6.1 1.2,13.3 1.7,19.6l0.1,3.7l0.2,3.9c0.8,16.5 1.3,33 1.9,49.5l0.2,5.5l0.2,5.5"/>
  </g>
 </g>
</svg>