<svg width="725" height="250" xmlns="http://www.w3.org/2000/svg">
 <defs>
  <style type="text/css">
   <![CDATA[

.g0_1{
fill: url(#rFlare);
stroke: url(#Phhappiness);
stroke-width: 10;
stroke-linecap: round;
stroke-linejoin: miter;
stroke-miterlimit: 4;
}

]]>
  </style>
   <style>
   .path {
  stroke-dasharray: 1650;
  stroke-dashoffset: 0;
  animation: dash 25s linear infinite;
}
@keyframes dash {
  from {
    stroke-dashoffset: 1650;
  }
  to {
    stroke-dashoffset: 0;
  }
}
 </style>
         <linearGradient id="Flare">
          <stop offset="5%" stop-color="#f12711" />
          <stop offset="95%" stop-color="#f5af19" />
        </linearGradient>
         <linearGradient id="rFlare">
          <stop offset="0%" stop-color="#f5af19" />
          <stop offset="100%" stop-color="#f12711" />
        </linearGradient>
         <linearGradient id="Sulphur">
          <stop offset="5%" stop-color="#CAC531" />
          <stop offset="95%" stop-color="#F3F9A7" />
        </linearGradient>
         <linearGradient id="Phhappiness">
          <stop offset="5%" stop-color="#00b09b" />
          <stop offset="95%" stop-color="#96c93d" />
        </linearGradient>
</defs>
 <g>
  <title>background</title>
  <rect fill="url(#Flare)" id="canvas_background" height="252" width="727" y="-1" x="-1"/>
 </g>
 <g>
  <title>Layer 1</title>
  <path id="svg_1" fill="#FFFFFF" d="m326.849976,203l0,-203l0,203z"/>
  <path fill="#ff7f00" stroke-width="0" id="svg_2" class="g0_1 path" d="m362.549986,125.050003l20.5,-12.7l20.4,-12.5l20.3,-12.1l20,-11.4l19.7,-10.8l19.3,-9.8l18.8,-8.6l18.2,-7.5l17.7,-6.1l17,-4.7l16.2,-3.2l15.3,-1.6l14.5,0l13.6,1.6l12.6,3.2l11.5,4.7l10.4,6.1l9.4,7.5l8.1,8.6l6.9,9.8l5.8,10.8l4.4,11.4l3.2,12.1l2,12.5l0.6,12.7l-0.6,12.7l-2,12.4l-3.2,12.1l-4.4,11.5l-5.8,10.7l-6.9,9.8l-8.1,8.7l-9.4,7.5l-10.4,6.1l-11.5,4.7l-12.6,3.1l-13.6,1.6l-14.5,0l-15.3,-1.6l-16.2,-3.1l-17,-4.7l-17.7,-6.1l-18.2,-7.5l-18.8,-8.7l-19.3,-9.8l-19.7,-10.7l-20,-11.5l-20.3,-12.1l-20.4,-12.4l-20.5,-12.7l-20.5,-12.7l-20.4,-12.5l-20.3,-12.1l-20,-11.4l-19.7,-10.8l-19.3,-9.8l-18.8,-8.6l-18.3,-7.5l-17.6,-6.1l-17,-4.7l-16.2,-3.2l-15.4,-1.6l-14.5,0l-13.5,1.6l-12.6,3.2l-11.5,4.7l-10.5,6.1l-9.3,7.5l-8.1,8.6l-7,9.8l-5.7,10.8l-4.5,11.4l-3.2,12.1l-1.9,12.5l-0.7,12.7l0.7,12.7l1.9,12.4l3.2,12.1l4.5,11.5l5.7,10.7l7,9.8l8.1,8.7l9.3,7.5l10.5,6.1l11.5,4.7l12.6,3.1l13.5,1.6l14.5,0l15.4,-1.6l16.2,-3.1l17,-4.7l17.6,-6.1l18.3,-7.5l18.8,-8.7l19.3,-9.8l19.7,-10.7l20,-11.5l20.3,-12.1l20.4,-12.4l20.5,-12.7"/>
 </g>
</svg>