<?xml version="1.0" encoding="UTF-8" standalone="no"?>
<!DOCTYPE svg PUBLIC "-//W3C//DTD SVG 1.1//EN"
"http://www.w3.org/Graphics/SVG/1.1/DTD/svg11.dtd">


<!-- Page 1 -->
<svg x="0" y="0" width="803" height="253" viewBox="0 0 803 253" version="1.1" xmlns="http://www.w3.org/2000/svg" xmlns:xlink="http://www.w3.org/1999/xlink"
style="display: block;margin-left: auto;margin-right: auto;">
<defs>

<style type="text/css"><![CDATA[

.g0_1{
fill: none;
stroke: #0000FF;
stroke-width: 2.176189;
stroke-linecap: butt;
stroke-linejoin: miter;
stroke-miterlimit: 4;
}
.g1_1{
fill: none;
stroke: #FF0000;
stroke-width: 2.176189;
stroke-linecap: butt;
stroke-linejoin: miter;
stroke-miterlimit: 4;
}
.g2_1{
fill: none;
stroke: #008000;
stroke-width: 2.176189;
stroke-linecap: butt;
stroke-linejoin: miter;
stroke-miterlimit: 4;
}
.g3_1{
fill: none;
stroke: #FFC0CB;
stroke-width: 2.176189;
stroke-linecap: butt;
stroke-linejoin: miter;
stroke-miterlimit: 4;
}

]]></style>

</defs>
<path d="M0,0
L0,253
L803,253
L803,0 Z " 
fill="#FFFFFF" stroke="none" />
<path d="M785.1,77.9v0h-3.6l-.4,.1h-3.7l-.5,.1h-3.1l-.6,.1h-3.6l-.8,.1h-2.4l-.8,.1H762l-.9,.1h-2.9l-1.1,.1H754l-1.1,.1h-2.2l-1.1,.1h-2.3l-1.2,.1h-3.6l-1.3,.1h-2.5l-1.3,.1h-1.3l-1.4,.1H732l-1.4,.1h-2.8l-1.4,.1h-2.9l-1.5,.1h-1.5l-1.5,.1h-3.1l-1.6,.1h-1.5l-1.6,.1h-1.6l-1.7,.1h-3.2L703,80h-1.7l-1.7,.1h-1.7l-1.7,.1h-1.8l-1.7,.1h-1.8l-1.8,.1h-1.8l-1.8,.1h-1.8l-1.9,.1H680l-1.9,.1h-1.9l-1.9,.1h-1.9l-1.9,.1h-2l-1.9,.1h-2l-1.9,.1h-2l-2,.1l-2.1,.1h-2l-2,.1h-2.1l-2.1,.1h-2l-2.1,.1l-2.1,.1h-2.1l-2.2,.1h-2.1l-2.2,.1l-2.1,.1h-2.2l-2.2,.1l-2.2,.1h-2.2l-2.2,.1h-2.2l-2.3,.1l-2.2,.1h-2.3l-2.3,.1l-2.3,.1h-2.2l-2.4,.1l-2.3,.1h-2.3l-2.3,.1l-2.4,.1h-2.3l-2.4,.1l-2.4,.1l-2.3,.1h-2.4l-2.4,.1l-2.4,.1H574l-2.5,.1l-2.4,.1l-2.4,.1h-2.5l-2.5,.1l-2.4,.1l-2.5,.1h-2.5l-2.5,.1l-2.5,.1l-2.5,.1h-2.5l-2.5,.1l-2.5,.1l-2.6,.1l-2.5,.1h-2.6l-2.5,.1l-2.6,.1l-2.5,.1l-2.6,.1h-2.6l-2.6,.1l-2.6,.1l-2.5,.1l-2.7,.1l-2.6,.1h-2.6l-2.6,.1L498,86l-2.6,.1l-2.7,.1l-2.6,.1l-2.6,.1h-2.7l-2.6,.1l-2.7,.1l-2.6,.1l-2.7,.1l-2.7,.1l-2.6,.1l-2.7,.1l-2.7,.1h-2.7l-2.6,.1l-2.7,.1l-2.7,.1l-2.7,.1l-2.7,.1l-2.7,.1l-2.7,.1l-2.7,.1l-2.7,.1l-2.7,.1l-2.7,.1l-2.7,.1l-2.7,.1h-2.7l-2.7,.1l-2.7,.1l-2.7,.1l-2.7,.1l-2.7,.1l-2.7,.1l-2.8,.1l-2.7,.1l-2.7,.1l-2.7,.1l-2.7,.1l-2.7,.1l-2.7,.1l-2.7,.1l-2.8,.1l-2.7,.1l-2.7,.1l-2.7,.1l-2.7,.1l-2.7,.1l-2.7,.1l-2.7,.1l-2.7,.1l-2.7,.2l-2.7,.1l-2.7,.1l-2.7,.1l-2.6,.1l-2.7,.1l-2.7,.1l-2.7,.1l-2.7,.1l-2.6,.1l-2.7,.1l-2.7,.1l-2.6,.1l-2.7,.1l-2.6,.2l-2.7,.1l-2.6,.1l-2.7,.1l-2.6,.1l-2.6,.1l-2.7,.1l-2.6,.1l-2.6,.1l-2.6,.2l-2.6,.1l-2.6,.1l-2.6,.1l-2.6,.1L284,94l-2.6,.1l-2.6,.1l-2.5,.2l-2.6,.1l-2.5,.1l-2.6,.1l-2.5,.1l-2.6,.1l-2.5,.2l-2.5,.1l-2.5,.1l-2.5,.1l-2.5,.1l-2.5,.1l-2.5,.2l-2.5,.1L241,96l-2.4,.1l-2.5,.1l-2.4,.2l-2.4,.1l-2.5,.1l-2.4,.1l-2.4,.1l-2.4,.2l-2.4,.1l-2.4,.1l-2.4,.1l-2.3,.2l-2.4,.1l-2.3,.1l-2.4,.1l-2.3,.2l-2.3,.1l-2.3,.1l-2.3,.1l-2.3,.2l-2.3,.1l-2.2,.1l-2.3,.1l-2.2,.2l-2.3,.1l-2.2,.1l-2.2,.1l-2.2,.2l-2.2,.1l-2.1,.1l-2.2,.1l-2.2,.2l-2.1,.1l-2.1,.1l-2.2,.2l-2.1,.1l-2.1,.1l-2,.1l-2.1,.2l-2.1,.1l-2,.1l-2,.2l-2.1,.1l-2,.1l-1.9,.2l-2,.1l-2,.1l-1.9,.2l-2,.1l-1.9,.1l-1.9,.2l-1.9,.1l-1.9,.1l-1.9,.2l-1.8,.1l-1.9,.1l-1.8,.2l-1.8,.1l-1.8,.1l-1.8,.2l-1.8,.1l-1.7,.1l-1.8,.2l-1.7,.1l-1.7,.1l-1.7,.2l-1.7,.1l-1.7,.2l-1.6,.1l-1.7,.1l-1.6,.2l-1.6,.1l-1.6,.1l-1.6,.2l-1.5,.1l-1.6,.2l-1.5,.1l-1.5,.1l-1.5,.2l-1.5,.1l-1.4,.2l-1.5,.1l-1.4,.1l-1.4,.2l-1.4,.1l-1.4,.2l-1.4,.1l-1.3,.1l-1.4,.2l-1.3,.1L64,108l-1.2,.1l-1.3,.2l-1.3,.1l-1.2,.1l-1.2,.2l-1.2,.1l-1.2,.2l-1.1,.1l-1.2,.1l-1.1,.2l-1.1,.1l-1.1,.2l-1.1,.1l-1,.2l-1.1,.1l-1,.2l-1,.1l-1,.1l-.9,.2l-1,.1l-.9,.2l-.9,.1l-.9,.2l-.9,.1l-.9,.2l-.8,.1l-.8,.2l-.8,.1l-.8,.1l-.8,.2l-.7,.1l-.7,.2l-.8,.1l-.7,.2l-.6,.1l-.7,.2l-.6,.1l-.6,.2l-.6,.1l-.6,.2l-.6,.1l-.5,.2l-.5,.1l-.5,.2l-.5,.1l-.5,.2l-.4,.1l-.5,.2l-.4,.1l-.4,.1l-.3,.2l-.4,.1l-.3,.2l-.3,.1l-.3,.2l-.3,.1l-.3,.2l-.2,.1l-.2,.2l-.2,.1l-.2,.2l-.1,.1l-.2,.2l-.1,.1l-.1,.2l-.1,.1l-.1,.2v.8l.1,.1v.2l.1,.1l.1,.2l.2,.1l.1,.2l.2,.1l.2,.2l.2,.1l.2,.2l.2,.1l.3,.2l.3,.1l.3,.2l.3,.1l.4,.2l.3,.1l.4,.2l.4,.1l.4,.2l.5,.1l.4,.2l.5,.1l.5,.2l.5,.1l.5,.2l.6,.2l.5,.1l.6,.2l.6,.1l.7,.2l.6,.1l.7,.2l.6,.1l.7,.2l.8,.1l.7,.2l.8,.1l.7,.2l.8,.1l.8,.2l.9,.1l.8,.2l.9,.2l.9,.1l.9,.2l.9,.1l.9,.2l1,.1l1,.2l1,.1l1,.2l1,.1l1.1,.2l1,.1l1.1,.2l1.1,.1l1.1,.2l1.2,.1l1.1,.2l1.2,.2l1.2,.1l1.2,.2l1.2,.1l1.2,.2l1.3,.1l1.3,.2l1.3,.1l1.3,.2l1.3,.1l1.4,.2l1.3,.1l1.4,.2l1.4,.1l1.4,.2l1.4,.1l1.5,.2l1.4,.1l1.5,.2l1.5,.2l1.5,.1l1.5,.2l1.6,.1l1.5,.2l1.6,.1l1.6,.2l1.6,.1L94,132l1.6,.1l1.7,.2l1.7,.1l1.6,.2l1.7,.1l1.8,.2l1.7,.1l1.7,.2l1.8,.1l1.7,.2l1.8,.1l1.8,.2l1.9,.1l1.8,.2l1.8,.1l1.9,.2l1.9,.1l1.8,.2l1.9,.1l2,.2l1.9,.1l1.9,.2l2,.2l2,.1l1.9,.2l2,.1l2,.1l2.1,.2l2,.2l2.1,.1l2,.1l2.1,.2l2.1,.1l2.1,.2l2.1,.1l2.1,.2l2.1,.1l2.2,.2l2.2,.1l2.1,.2l2.2,.1l2.2,.2l2.2,.1l2.2,.2l2.3,.1l2.2,.2l2.3,.1l2.2,.2l2.3,.1l2.3,.2l2.3,.1l2.3,.2l2.3,.1l2.3,.2l2.4,.1l2.3,.1l2.4,.2l2.3,.1l2.4,.2l2.4,.1l2.4,.2l2.4,.1l2.4,.2l2.4,.1l2.5,.2l2.4,.1l2.4,.2l2.5,.1l2.5,.1l2.4,.2l2.5,.1l2.5,.2l2.5,.1l2.5,.2l2.5,.1l2.6,.1l2.5,.2l2.5,.1l2.6,.2l2.5,.1l2.6,.2l2.6,.1l2.5,.1l2.6,.2l2.6,.1l2.6,.2l2.6,.1l2.6,.2l2.6,.1l2.6,.1l2.6,.2l2.7,.1l2.6,.2l2.6,.1l2.7,.1l2.6,.2l2.7,.1l2.7,.2l2.6,.1l2.7,.1l2.7,.2l2.6,.1l2.7,.2l2.7,.1l2.7,.1l2.7,.2l2.7,.1l2.7,.1l2.7,.2l2.7,.1l2.7,.2l2.7,.1l2.7,.1l2.7,.2l2.8,.1l2.7,.1l2.7,.2l2.7,.1l2.8,.1l2.7,.2l2.7,.1l2.8,.1l2.7,.2l2.7,.1l2.8,.1l2.7,.2l2.8,.1l2.7,.1l2.7,.2l2.8,.1l2.7,.1l2.8,.2l2.7,.1l2.7,.1l2.8,.2l2.7,.1l2.8,.1l2.7,.2l2.8,.1l2.7,.1l2.7,.1l2.8,.2l2.7,.1l2.7,.1l2.8,.2l2.7,.1l2.7,.1l2.8,.1l2.7,.2l2.7,.1l2.7,.1l2.7,.1l2.8,.2l2.7,.1l2.7,.1l2.7,.2l2.7,.1l2.7,.1l2.7,.1l2.7,.2l2.7,.1l2.6,.1l2.7,.1l2.7,.1l2.7,.2l2.6,.1l2.7,.1l2.7,.1l2.6,.2l2.7,.1l2.6,.1l2.6,.1l2.7,.1l2.6,.2l2.6,.1l2.6,.1l2.7,.1l2.6,.1l2.6,.2l2.5,.1l2.6,.1l2.6,.1l2.6,.1l2.5,.1l2.6,.2l2.6,.1l2.5,.1l2.5,.1l2.6,.1l2.5,.1l2.5,.2l2.5,.1l2.5,.1l2.5,.1l2.5,.1l2.5,.1l2.4,.1l2.5,.2l2.4,.1l2.5,.1l2.4,.1l2.4,.1l2.4,.1l2.4,.1l2.4,.1l2.4,.1l2.4,.2l2.3,.1l2.4,.1l2.3,.1l2.4,.1l2.3,.1l2.3,.1l2.3,.1l2.3,.1l2.3,.1l2.3,.1l2.2,.1l2.3,.1l2.2,.2l2.2,.1l2.3,.1l2.2,.1l2.2,.1l2.1,.1l2.2,.1l2.2,.1l2.1,.1l2.1,.1l2.2,.1l2.1,.1l2.1,.1l2.1,.1l2,.1l2.1,.1l2,.1l2.1,.1l2,.1l2,.1l2,.1l1.9,.1l2,.1l2,.1l1.9,.1l1.9,.1l1.9,.1l1.9,.1l1.9,.1h1.9l1.8,.1l1.9,.1l1.8,.1l1.8,.1l1.8,.1l1.8,.1l1.8,.1l1.7,.1l1.7,.1l1.8,.1l1.7,.1l1.7,.1H714l1.7,.1l1.6,.1l1.7,.1l1.6,.1l1.6,.1l1.6,.1l1.5,.1h1.6l1.5,.1l1.5,.1l1.5,.1l1.5,.1l1.5,.1l1.4,.1h1.5l1.4,.1l1.4,.1l1.4,.1l1.3,.1l1.4,.1h1.3l1.3,.1l1.3,.1l1.3,.1l1.3,.1h1.2l1.3,.1l1.2,.1l1.2,.1h1.2l1.1,.1l1.2,.1l1.1,.1h1.1l1.1,.1l1.1,.1l1,.1h1.1l1,.1l1,.1l1,.1h.9l1,.1l.9,.1l.9,.1h.9l.9,.1l.8,.1h.9l.8,.1l.8,.1h.8l.7,.1l.8,.1h.7l.7,.1l.7,.1h.6l.7,.1l.6,.1h.6l.6,.1l.6,.1h.5l.6,.1h.5l.5,.1l.5,.1h.4l.5,.1h.4l.4,.1l.4,.1h.3l.4,.1h.3l.3,.1l.3,.1h.2l.3,.1h.2l.2,.1h.2l.2,.1h.1l.2,.1h.1l.1,.1l.1,.1v.2h-.1v.1h-.1l-.1,.1h-.2l-.1,.1h-.2l-.1,.1h-.2l-.3,.1h-.2l-.3,.1h-.6l-.3,.1h-.3l-.4,.1h-.7l-.5,.1h-.4l-.4,.1h-1l-.5,.1h-.6l-.5,.1h-1.2l-.6,.1h-1.2l-.7,.1h-1.4l-.7,.1h-1.5l-.8,.1h-2.4l-.9,.1h-1.8l-.9,.1h-2.8l-1,.1h-3l-1.1,.1h-3.3l-1.1,.1h-4.7l-1.2,.1H747l-1.3,.1h-6.9l-1.4,.1h-12l-1.6,.1H653.1l-2.2,-.1H633.5l-2.3,-.1H619.8l-2.3,-.1H605.8l-2.3,-.1h-9.6l-2.4,-.1h-7.3l-2.5,-.1h-7.4l-2.5,-.1h-7.5l-2.6,-.1h-5l-2.6,-.1h-7.7l-2.6,-.1h-5.1l-2.6,-.1h-5.3l-2.6,-.1H523l-2.7,-.1h-2.6l-2.7,-.1h-5.3l-2.7,-.1h-5.3L499,173h-2.7l-2.7,-.1h-5.4l-2.7,-.1h-2.7l-2.7,-.1h-2.7l-2.7,-.1h-5.5l-2.7,-.1h-2.8l-2.7,-.1h-2.7l-2.8,-.1h-2.7l-2.8,-.1h-2.7l-2.8,-.1h-2.7L439,172h-2.8l-2.7,-.1h-2.8l-2.8,-.1h-2.7l-2.8,-.1h-2.8l-2.7,-.1h-2.8l-2.8,-.1h-2.7l-2.8,-.1H403l-2.8,-.1l-2.7,-.1h-2.8l-2.8,-.1h-2.7l-2.8,-.1h-2.8l-2.8,-.1l-2.7,-.1h-2.8l-2.8,-.1h-2.7l-2.8,-.1l-2.8,-.1h-2.7l-2.8,-.1H356l-2.8,-.1l-2.7,-.1h-2.8l-2.7,-.1l-2.8,-.1h-2.7l-2.7,-.1l-2.8,-.1h-2.7l-2.7,-.1l-2.8,-.1h-2.7l-2.7,-.1l-2.7,-.1H315l-2.7,-.1l-2.7,-.1l-2.7,-.1h-2.7l-2.7,-.1l-2.7,-.1h-2.6l-2.7,-.1l-2.7,-.1l-2.6,-.1h-2.7l-2.6,-.1l-2.7,-.1l-2.6,-.1H275l-2.7,-.1l-2.6,-.1l-2.6,-.1h-2.6l-2.6,-.1l-2.6,-.1l-2.6,-.1l-2.5,-.1h-2.6l-2.6,-.1l-2.5,-.1l-2.6,-.1l-2.5,-.1h-2.5l-2.5,-.1l-2.6,-.1l-2.5,-.1l-2.5,-.1l-2.4,-.1h-2.5l-2.5,-.1l-2.4,-.1l-2.5,-.1l-2.4,-.1l-2.5,-.1l-2.4,-.1h-2.4l-2.4,-.1l-2.4,-.1l-2.4,-.1l-2.4,-.1l-2.3,-.1l-2.4,-.1l-2.3,-.1l-2.4,-.1h-2.3l-2.3,-.1l-2.3,-.1l-2.3,-.1l-2.3,-.1l-2.2,-.1l-2.3,-.1l-2.2,-.1l-2.3,-.1l-2.2,-.1l-2.2,-.1l-2.2,-.1l-2.2,-.1l-2.1,-.1l-2.2,-.1l-2.1,-.1h-2.2l-2.1,-.1l-2.1,-.1l-2.1,-.1l-2.1,-.1l-2.1,-.1l-2,-.1l-2.1,-.1l-2,-.1l-2,-.1l-2,-.1l-2,-.1l-2,-.1l-2,-.1l-1.9,-.1l-1.9,-.1l-2,-.1l-1.9,-.2l-1.9,-.1l-1.8,-.1l-1.9,-.1l-1.9,-.1l-1.8,-.1l-1.8,-.1l-1.8,-.1l-1.8,-.1l-1.8,-.1L97.4,161l-1.8,-.1l-1.7,-.1l-1.7,-.1l-1.7,-.1l-1.7,-.1l-1.7,-.1l-1.6,-.2l-1.7,-.1L82.2,160l-1.6,-.1L79,159.8l-1.5,-.1l-1.6,-.1l-1.5,-.1l-1.6,-.1l-1.5,-.2l-1.5,-.1L68.4,159l-1.5,-.1l-1.4,-.1L64,158.7l-1.4,-.1l-1.3,-.1l-1.4,-.2l-1.4,-.1l-1.3,-.1L55.9,158l-1.3,-.1l-1.3,-.1L52,157.6l-1.2,-.1l-1.3,-.1l-1.2,-.1l-1.2,-.1l-1.2,-.1l-1.1,-.2l-1.2,-.1l-1.1,-.1l-1.1,-.1l-1.1,-.1l-1.1,-.2l-1,-.1l-1.1,-.1l-1,-.1l-1,-.1l-1,-.2l-.9,-.1l-1,-.1l-.9,-.1l-.9,-.2l-.9,-.1l-.8,-.1l-.9,-.1l-.8,-.1l-.8,-.2l-.8,-.1l-.8,-.1l-.8,-.1l-.7,-.2l-.7,-.1l-.7,-.1l-.7,-.1l-.7,-.2l-.6,-.1l-.6,-.1l-.6,-.2l-.6,-.1l-.6,-.1l-.5,-.1l-.6,-.2l-.5,-.1l-.4,-.1l-.5,-.2l-.5,-.1l-.4,-.1l-.4,-.1l-.4,-.2l-.4,-.1l-.3,-.1l-.4,-.2l-.3,-.1l-.3,-.1l-.2,-.2l-.3,-.1l-.2,-.1l-.2,-.2l-.2,-.1l-.2,-.1l-.2,-.2l-.1,-.1L9.7,150l-.1,-.2l-.1,-.1v-.1l-.1,-.2V149l.1,-.1v-.1l.1,-.2l.1,-.1l.1,-.1l.2,-.2l.1,-.1l.2,-.2l.2,-.1l.2,-.1l.3,-.2l.2,-.1l.3,-.1l.3,-.2l.3,-.1l.4,-.2l.3,-.1l.4,-.1l.4,-.2l.4,-.1l.4,-.2l.5,-.1l.5,-.1l.5,-.2l.5,-.1l.5,-.2l.6,-.1l.5,-.1l.6,-.2l.6,-.1l.6,-.2l.7,-.1l.7,-.2l.6,-.1l.8,-.1l.7,-.2l.7,-.1l.8,-.2l.8,-.1l.8,-.2l.8,-.1l.8,-.1l.9,-.2l.9,-.1l.8,-.2l1,-.1l.9,-.2l.9,-.1l1,-.2l1,-.1l1,-.1l1,-.2l1.1,-.1l1,-.2l1.1,-.1l1.1,-.2l1.1,-.1l1.2,-.2l1.1,-.1l1.2,-.2l1.2,-.1l1.2,-.2l1.2,-.1l1.2,-.1l1.3,-.2l1.3,-.1l1.3,-.2l1.3,-.1l1.3,-.2l1.3,-.1l1.4,-.2l1.4,-.1l1.4,-.2l1.4,-.1l1.4,-.2l1.5,-.1l1.5,-.2l1.4,-.1l1.5,-.2l1.6,-.1l1.5,-.2l1.5,-.1l1.6,-.2l1.6,-.1l1.6,-.2l1.6,-.1l1.6,-.2l1.7,-.1l1.6,-.2l1.7,-.1l1.7,-.2l1.7,-.1l1.7,-.2l1.8,-.1l1.7,-.2l1.8,-.1l1.8,-.2l1.8,-.1l1.8,-.2l1.9,-.1l1.8,-.2l1.9,-.1l1.8,-.2l1.9,-.1l1.9,-.2l2,-.1l1.9,-.2l1.9,-.1l2,-.2l2,-.1l2,-.2l2,-.2l2,-.1l2,-.2l2.1,-.1l2,-.2l2.1,-.1l2.1,-.2l2.1,-.1l2.1,-.2l2.1,-.1l2.2,-.2l2.1,-.1l2.2,-.2l2.2,-.1l2.2,-.2l2.2,-.1l2.2,-.2l2.2,-.1l2.2,-.2l2.3,-.2l2.2,-.1l2.3,-.2l2.3,-.1l2.3,-.2l2.3,-.1l2.3,-.2l2.4,-.1l2.3,-.2l2.3,-.1l2.4,-.2l2.4,-.1l2.4,-.2l2.4,-.1l2.4,-.2l2.4,-.2l2.4,-.1l2.4,-.2l2.5,-.1l2.4,-.2l2.5,-.1l2.5,-.2l2.4,-.1l2.5,-.2l2.5,-.1l2.5,-.2l2.6,-.1l2.5,-.2l2.5,-.2l2.6,-.1l2.5,-.2l2.6,-.1l2.5,-.2l2.6,-.1l2.6,-.2l2.6,-.1l2.6,-.2l2.6,-.1l2.6,-.2l2.6,-.1l2.7,-.2l2.6,-.2l2.6,-.1l2.7,-.2l2.6,-.1l2.7,-.2l2.7,-.1l2.6,-.2l2.7,-.1l2.7,-.2l2.7,-.1l2.7,-.2l2.7,-.1l2.7,-.2l2.7,-.1l2.7,-.2l2.7,-.2l2.8,-.1l2.7,-.2l2.7,-.1l2.8,-.2l2.7,-.1l2.7,-.2l2.8,-.1L334,120l2.7,-.1l2.8,-.2l2.7,-.1l2.8,-.2l2.8,-.1l2.8,-.2l2.7,-.1l2.8,-.2l2.8,-.1l2.8,-.2l2.8,-.2l2.8,-.1L370,118l2.8,-.1l2.8,-.2l2.8,-.1l2.8,-.2l2.8,-.1l2.8,-.2l2.8,-.1l2.8,-.2l2.8,-.1l2.8,-.2l2.8,-.1l2.8,-.2l2.8,-.1l2.8,-.2l2.9,-.1l2.8,-.2l2.8,-.1l2.8,-.2l2.8,-.1l2.8,-.2l2.8,-.1l2.8,-.2l2.8,-.1l2.8,-.2l2.7,-.1l2.8,-.2l2.8,-.1l2.8,-.2l2.8,-.1l2.8,-.2l2.8,-.1l2.8,-.2l2.7,-.1l2.8,-.2l2.8,-.1l2.7,-.2l2.8,-.1l2.8,-.2l2.7,-.1l2.8,-.1l2.7,-.2l2.8,-.1l2.7,-.2l2.8,-.1l2.7,-.2l2.7,-.1l2.8,-.2l2.7,-.1l2.7,-.2l2.7,-.1l2.7,-.2l2.7,-.1l2.7,-.2l2.7,-.1l2.7,-.1l2.7,-.2l2.6,-.1l2.7,-.2l2.7,-.1l2.6,-.2l2.7,-.1l2.6,-.2l2.6,-.1l2.7,-.1l2.6,-.2l2.6,-.1l2.6,-.2l2.6,-.1l2.6,-.2l2.6,-.1l2.6,-.1l2.5,-.2l2.6,-.1l2.5,-.2l2.6,-.1l2.5,-.2l2.5,-.1l2.6,-.1l2.5,-.2l2.5,-.1l2.4,-.2l2.5,-.1l2.5,-.1l2.5,-.2l2.4,-.1l2.5,-.2l2.4,-.1l2.4,-.1l2.4,-.2l2.4,-.1l2.4,-.2l2.4,-.1l2.4,-.1l2.3,-.2l2.4,-.1l2.3,-.1l2.4,-.2l2.3,-.1l2.3,-.2l2.3,-.1l2.3,-.1l2.2,-.2l2.3,-.1l2.2,-.1l2.3,-.2l2.2,-.1l2.2,-.1l2.2,-.2l2.2,-.1l2.2,-.1l2.2,-.2l2.1,-.1l2.1,-.1l2.2,-.2l2.1,-.1l2.1,-.1l2.1,-.2l2,-.1l2.1,-.1l2,-.2l2.1,-.1l2,-.1l2,-.2l2,-.1l2,-.1l1.9,-.2l2,-.1l1.9,-.1l1.9,-.1l1.9,-.2l1.9,-.1l1.9,-.1l1.8,-.2l1.9,-.1l1.8,-.1l1.8,-.1l1.8,-.2l1.8,-.1l1.8,-.1l1.7,-.1l1.8,-.2L720,98l1.7,-.1l1.7,-.2l1.7,-.1l1.6,-.1l1.7,-.1l1.6,-.2l1.6,-.1l1.6,-.1l1.6,-.1l1.5,-.1l1.6,-.2l1.5,-.1l1.5,-.1l1.5,-.1l1.5,-.2l1.5,-.1l1.4,-.1l1.4,-.1l1.4,-.1l1.4,-.2l1.4,-.1l1.4,-.1l1.3,-.1l1.3,-.1l1.3,-.2l1.3,-.1l1.3,-.1l1.2,-.1l1.3,-.1l1.2,-.1l1.2,-.2l1.2,-.1l1.1,-.1l1.2,-.1l1.1,-.1l1.1,-.1l1.1,-.2l1.1,-.1l1,-.1l1,-.1l1.1,-.1l1,-.1l.9,-.1l1,-.1l.9,-.2l1,-.1l.9,-.1l.9,-.1l.8,-.1l.9,-.1l.8,-.1l.8,-.1l.8,-.1l.8,-.2l.7,-.1l.7,-.1l.8,-.1l.6,-.1l.7,-.1l.7,-.1l.6,-.1l.6,-.1l.6,-.1l.6,-.1l.6,-.1l.5,-.1l.5,-.1l.5,-.1l.5,-.1l.5,-.2l.4,-.1l.4,-.1l.4,-.1l.4,-.1l.4,-.1l.3,-.1l.3,-.1l.3,-.1l.3,-.1l.3,-.1l.2,-.1l.2,-.1l.2,-.1l.2,-.1l.2,-.1l.1,-.1l.2,-.1l.1,-.1l.1,-.1v-.1l.1,-.1v-.2l-.1,-.1v-.1l-.1,-.1l-.1,-.1l-.1,-.1l-.2,-.1l-.1,-.1l-.2,-.1l-.2,-.1h-.2l-.2,-.1l-.3,-.1l-.3,-.1l-.3,-.1l-.3,-.1l-.3,-.1l-.4,-.1l-.3,-.1h-.4l-.4,-.1l-.5,-.1l-.4,-.1l-.5,-.1l-.5,-.1l-.5,-.1h-.5l-.6,-.1l-.6,-.1l-.6,-.1l-.6,-.1l-.6,-.1h-.6l-.7,-.1l-.7,-.1l-.7,-.1l-.7,-.1h-.8l-.7,-.1l-.8,-.1l-.8,-.1l-.9,-.1h-.8l-.9,-.1l-.8,-.1l-.9,-.1h-1l-.9,-.1l-.9,-.1l-1,-.1h-1l-1,-.1l-1.1,-.1l-1,-.1h-1.1L771.2,83l-1.1,-.1H769l-1.1,-.1l-1.2,-.1l-1.2,-.1h-1.2l-1.2,-.1l-1.2,-.1h-1.2l-1.3,-.1l-1.3,-.1h-1.3l-1.3,-.1L754.1,82h-1.3l-1.4,-.1L750,81.8h-1.4l-1.4,-.1l-1.5,-.1h-1.4l-1.5,-.1h-1.5l-1.5,-.1l-1.5,-.1h-1.6l-1.5,-.1h-1.6L732,81.1L730.4,81h-1.7l-1.6,-.1h-1.7l-1.6,-.1l-1.7,-.1h-1.7l-1.8,-.1h-1.7l-1.8,-.1h-1.7l-1.8,-.1h-1.8L708,80.3h-1.9l-1.8,-.1h-1.9l-1.9,-.1h-1.9L696.7,80h-1.9l-1.9,-.1h-2L689,79.8h-2l-2,-.1h-2l-2.1,-.1h-2l-2,-.1h-2.1l-2.1,-.1h-2.1l-2.1,-.1h-4.2l-2.2,-.1H660l-2.2,-.1h-4.4L651.2,79H649l-2.3,-.1h-4.5L640,78.8h-2.3l-2.3,-.1h-4.6l-2.4,-.1h-4.7l-2.3,-.1h-4.8l-2.4,-.1h-4.8L607,78.3h-7.4l-2.4,-.1h-5l-2.5,-.1h-7.6L579.6,78H572l-2.6,-.1h-7.8L559,77.8H548.5l-2.6,-.1H532.6l-2.7,-.1H513.7L511,77.5H489l-2.8,-.1H387.7l-2.9,.1H362.2l-2.8,.1H342.5l-2.8,.1H328.5l-2.8,.1H314.6l-2.7,.1H300.8l-2.7,.1h-8.2l-2.7,.1H279l-2.6,.1H271l-2.7,.1H263l-2.7,.1h-7.9l-2.7,.1h-5.2l-2.6,.1h-5.2l-2.6,.1h-2.6l-2.5,.1h-5.1l-2.6,.1h-5l-2.5,.1h-2.5l-2.5,.1h-5l-2.4,.1h-2.5l-2.4,.1H194l-2.4,.1h-4.8l-2.4,.1H182l-2.3,.1h-2.4l-2.4,.1h-2.3l-2.3,.1H168l-2.3,.1h-2.3l-2.3,.1h-2.3l-2.2,.1h-2.3l-2.2,.1h-2.2l-2.2,.1h-2.2l-2.2,.1h-2.1l-2.2,.1h-2.1l-2.2,.1h-2.1l-2.1,.1l-2,.1h-2.1l-2.1,.1h-2l-2.1,.1h-2l-2,.1l-2,.1h-1.9l-2,.1h-1.9l-2,.1l-1.9,.1h-1.9l-1.9,.1l-1.8,.1H97l-1.8,.1H93.3l-1.8,.1L89.7,82H88l-1.8,.1l-1.7,.1H82.7L81,82.3l-1.7,.1H77.6L76,82.5l-1.7,.1l-1.6,.1H71.1l-1.6,.1l-1.6,.1H66.3L64.8,83l-1.6,.1l-1.5,.1H60.2l-1.5,.1l-1.4,.1l-1.5,.1H54.4L53,83.6l-1.4,.1l-1.4,.1H48.9l-1.4,.1L46.2,84l-1.3,.1H43.6l-1.3,.1l-1.2,.1l-1.3,.1l-1.2,.1H37.4l-1.2,.1l-1.1,.1l-1.2,.1l-1.1,.1H31.7L30.6,85l-1.1,.1l-1,.1l-1,.1l-1.1,.1h-1l-.9,.1l-1,.1l-.9,.1l-.9,.1l-.9,.1l-.9,.1l-.9,.1h-.8l-.9,.1l-.8,.1l-.7,.1l-.8,.1l-.8,.1l-.7,.1l-.7,.1l-.7,.1l-.6,.1h-.7l-.6,.1l-.6,.1L9,87.3l-.6,.1l-.5,.1l-.6,.1l-.5,.1l-.5,.1l-.4,.1L5.4,88L5,88.1l-.4,.1l-.4,.1l-.4,.1l-.4,.1l-.3,.1l-.3,.1l-.3,.1l-.3,.1L2,89l-.2,.1l-.2,.1l-.2,.1l-.2,.1L1,89.5l-.1,.1l-.1,.1l-.1,.1l-.1,.1v.2l-.1,.1l.1,.1v.2l.1,.1l.1,.1l.1,.1l.1,.1l.2,.1l.2,.1l.2,.2l.2,.1l.2,.1l.3,.1l.2,.1l.3,.1l.3,.1l.4,.1l.3,.1l.4,.1l.4,.1l.4,.2l.4,.1l.5,.1l.5,.1l.4,.1l.6,.1l.5,.1l.5,.1l.6,.2l.6,.1l.6,.1l.6,.1l.7,.1l.7,.1l.7,.2l.7,.1l.7,.1l.7,.1l.8,.1l.8,.1l.8,.2l.8,.1l.9,.1l.8,.1l.9,.1l.9,.2l.9,.1l1,.1l.9,.1l1,.1l1,.2l1,.1l1.1,.1l1,.1l1.1,.1l1.1,.2l1.1,.1l1.1,.1l1.2,.1l1.2,.2l1.1,.1l1.2,.1l1.3,.1l1.2,.2l1.3,.1l1.2,.1l1.3,.1l1.3,.2l1.4,.1l1.3,.1l1.4,.1l1.4,.2l1.4,.1l1.4,.1l1.4,.1l1.5,.2l1.5,.1l1.4,.1l1.5,.2l1.6,.1l1.5,.1l1.6,.2l1.5,.1l1.6,.1l1.6,.1l1.7,.2l1.6,.1l1.7,.1l1.6,.2l1.7,.1l1.7,.1l1.8,.2l1.7,.1l1.7,.1l1.8,.2l1.8,.1l1.8,.1l1.8,.2l1.9,.1l1.8,.1l1.9,.2l1.9,.1l1.9,.1l1.9,.2l1.9,.1l1.9,.1l2,.2l2,.1l1.9,.2l2,.1l2.1,.1l2,.2l2,.1l2.1,.1l2,.2l2.1,.1l2.1,.2l2.1,.1l2.2,.1l2.1,.2l2.2,.1l2.1,.2l2.2,.1l2.2,.1l2.2,.2l2.2,.1l2.2,.2l2.3,.1l2.2,.1l2.3,.2l2.3,.1l2.3,.2l2.3,.1l2.3,.1l2.3,.2l2.4,.1l2.3,.2l2.4,.1l2.4,.2l2.4,.1l2.4,.1l2.4,.2l2.4,.1l2.4,.2l2.5,.1l2.4,.2l2.5,.1l2.4,.1l2.5,.2l2.5,.1l2.5,.2l2.5,.1l2.6,.2l2.5,.1l2.5,.2l2.6,.1l2.5,.2l2.6,.1l2.6,.1l2.6,.2l2.6,.1l2.6,.2l2.6,.1l2.6,.2l2.6,.1l2.7,.2l2.6,.1l2.7,.2l2.6,.1l2.7,.2l2.7,.1l2.6,.2l2.7,.1l2.7,.2l2.7,.1l2.7,.2l2.8,.1l2.7,.2l2.7,.1l2.7,.2l2.8,.1l2.7,.2l2.8,.1l2.7,.2l2.8,.1l2.8,.2l2.7,.1l2.8,.2l2.8,.1l2.8,.2l2.8,.1l2.8,.2l2.8,.1l2.8,.2l2.8,.1l2.8,.2l2.8,.1l2.9,.2l2.8,.1l2.8,.2l2.8,.1l2.9,.2l2.8,.1l2.9,.2l2.8,.1l2.8,.2l2.9,.1l2.8,.2l2.9,.1l2.9,.2l2.8,.1l2.9,.2l2.8,.1l2.9,.2l2.9,.1l2.8,.2l2.9,.2l2.8,.1l2.9,.2l2.9,.1l2.8,.2l2.9,.1l2.9,.2l2.8,.1l2.9,.2l2.9,.1l2.8,.2l2.9,.1l2.9,.2l2.8,.1l2.9,.2l2.9,.2l2.8,.1l2.9,.2l2.8,.1l2.9,.2l2.8,.1l2.9,.2l2.8,.1l2.9,.2l2.8,.1l2.9,.2l2.8,.1l2.8,.2l2.9,.2l2.8,.1l2.8,.2l2.9,.1l2.8,.2l2.8,.1l2.8,.2l2.8,.1l2.8,.2l2.8,.1l2.8,.2l2.8,.2l2.8,.1l2.8,.2l2.7,.1l2.8,.2l2.8,.1l2.7,.2l2.8,.1l2.7,.2l2.8,.1l2.7,.2l2.7,.2l2.8,.1l2.7,.2l2.7,.1l2.7,.2l2.7,.1l2.7,.2l2.7,.1l2.6,.2l2.7,.1l2.7,.2l2.6,.2" class="g0_1" />
<path d="M785.1,53.7v0h-.4l-.1,.1h-1.2l-.3,.1h-.9l-.3,.1h-1.2l-.4,.1h-.9l-.4,.1h-.5l-.5,.1h-1.1l-.6,.1h-.6l-.6,.1h-.6l-.7,.1h-.6l-.7,.1h-.7l-.7,.1h-.7l-.8,.1l-.8,.1H768l-.8,.1h-.8l-.8,.1l-.9,.1h-.9l-.9,.1l-.9,.1l-.9,.1h-1l-1,.1l-.9,.1l-1.1,.1h-1l-1,.1l-1.1,.1l-1.1,.1l-1,.1h-1.2l-1.1,.1l-1.1,.1l-1.2,.1l-1.2,.1l-1.2,.1l-1.2,.1l-1.2,.1l-1.3,.1l-1.2,.1l-1.3,.1l-1.3,.1l-1.3,.1l-1.4,.1l-1.3,.1l-1.4,.1l-1.4,.1l-1.4,.1l-1.4,.1l-1.4,.1l-1.5,.2l-1.4,.1l-1.5,.1l-1.5,.1l-1.5,.1l-1.6,.1l-1.5,.2l-1.6,.1l-1.5,.1l-1.6,.1l-1.6,.2l-1.7,.1l-1.6,.1l-1.6,.2l-1.7,.1l-1.7,.1l-1.7,.2l-1.7,.1l-1.7,.1l-1.8,.2l-1.7,.1l-1.8,.2l-1.8,.1l-1.8,.1l-1.8,.2l-1.8,.1l-1.9,.2l-1.8,.1l-1.9,.2l-1.9,.1l-1.9,.2l-1.9,.1l-1.9,.2l-2,.2l-1.9,.1l-2,.2l-1.9,.1l-2,.2l-2,.2l-2.1,.1l-2,.2l-2,.2l-2.1,.1l-2.1,.2l-2,.2l-2.1,.1l-2.1,.2l-2.1,.2l-2.2,.2l-2.1,.1l-2.2,.2l-2.1,.2l-2.2,.2l-2.2,.2l-2.2,.1l-2.2,.2l-2.2,.2l-2.2,.2l-2.3,.2l-2.2,.2l-2.3,.2l-2.3,.1l-2.3,.2l-2.2,.2l-2.4,.2l-2.3,.2l-2.3,.2l-2.3,.2l-2.4,.2l-2.3,.2l-2.4,.2l-2.4,.2l-2.3,.2l-2.4,.2l-2.4,.2l-2.4,.2l-2.4,.3l-2.5,.2l-2.4,.2l-2.4,.2l-2.5,.2l-2.5,.2l-2.4,.2l-2.5,.2l-2.5,.3l-2.5,.2l-2.5,.2l-2.5,.2l-2.5,.2l-2.5,.3l-2.5,.2l-2.6,.2l-2.5,.2l-2.6,.3l-2.5,.2l-2.6,.2l-2.5,.3l-2.6,.2l-2.6,.2l-2.6,.2l-2.6,.3l-2.5,.2l-2.7,.3l-2.6,.2l-2.6,.2l-2.6,.3l-2.6,.2l-2.6,.2l-2.7,.3l-2.6,.2l-2.6,.3l-2.7,.2l-2.6,.3l-2.7,.2l-2.6,.3l-2.7,.2l-2.7,.3l-2.6,.2l-2.7,.3l-2.7,.2l-2.7,.3l-2.6,.2l-2.7,.3l-2.7,.2l-2.7,.3l-2.7,.2l-2.7,.3l-2.7,.3l-2.7,.2l-2.7,.3l-2.7,.2l-2.7,.3l-2.7,.3l-2.7,.2l-2.7,.3l-2.7,.3l-2.7,.2l-2.7,.3l-2.7,.3l-2.7,.2l-2.7,.3l-2.8,.3l-2.7,.2l-2.7,.3l-2.7,.3l-2.7,.3l-2.7,.2l-2.7,.3l-2.7,.3l-2.8,.3l-2.7,.3l-2.7,.2l-2.7,.3l-2.7,.3l-2.7,.3l-2.7,.3l-2.7,.2l-2.7,.3l-2.7,.3l-2.7,.3l-2.7,.3l-2.7,.3l-2.6,.2l-2.7,.3l-2.7,.3l-2.7,.3l-2.7,.3l-2.6,.3l-2.7,.3l-2.7,.3l-2.6,.3l-2.7,.3l-2.6,.2l-2.7,.3l-2.6,.3l-2.7,.3l-2.6,.3l-2.6,.3l-2.7,.3l-2.6,.3l-2.6,.3l-2.6,.3l-2.6,.3l-2.6,.3l-2.6,.3l-2.6,.3l-2.6,.3l-2.6,.3l-2.6,.3l-2.5,.3l-2.6,.3l-2.5,.3l-2.6,.3l-2.5,.3l-2.6,.3l-2.5,.4l-2.5,.3l-2.5,.3l-2.5,.3l-2.5,.3l-2.5,.3L246,104l-2.5,.3l-2.5,.3l-2.4,.3l-2.5,.3l-2.4,.3l-2.4,.4l-2.5,.3l-2.4,.3l-2.4,.3l-2.4,.3l-2.4,.3l-2.4,.3l-2.4,.4l-2.3,.3l-2.4,.3l-2.3,.3l-2.4,.3l-2.3,.3l-2.3,.3l-2.3,.4l-2.3,.3l-2.3,.3l-2.3,.3l-2.2,.3l-2.3,.4l-2.2,.3l-2.3,.3l-2.2,.3l-2.2,.3l-2.2,.3l-2.2,.4l-2.1,.3l-2.2,.3l-2.2,.3l-2.1,.3l-2.1,.4l-2.2,.3l-2.1,.3l-2.1,.3l-2,.4l-2.1,.3l-2.1,.3l-2,.3l-2,.3l-2.1,.4l-2,.3l-1.9,.3l-2,.3l-2,.4l-1.9,.3l-2,.3l-1.9,.3l-1.9,.4l-1.9,.3l-1.9,.3l-1.9,.3l-1.8,.4l-1.9,.3l-1.8,.3l-1.8,.3l-1.8,.4l-1.8,.3l-1.8,.3l-1.7,.3l-1.8,.4l-1.7,.3l-1.7,.3l-1.7,.3l-1.7,.3l-1.7,.4l-1.6,.3l-1.7,.3l-1.6,.3l-1.6,.4l-1.6,.3l-1.6,.3l-1.5,.3l-1.6,.4l-1.5,.3l-1.5,.3l-1.5,.3l-1.5,.4l-1.4,.3l-1.5,.3l-1.4,.3l-1.4,.4l-1.4,.3l-1.4,.3l-1.4,.3l-1.3,.4l-1.4,.3l-1.3,.3l-1.3,.3l-1.2,.4l-1.3,.3l-1.3,.3l-1.2,.3l-1.2,.4l-1.2,.3l-1.2,.3l-1.1,.3l-1.2,.3l-1.1,.4l-1.1,.3l-1.1,.3l-1.1,.3l-1,.3l-1.1,.4l-1,.3l-1,.3l-1,.3l-.9,.3l-1,.4l-.9,.3l-.9,.3l-.9,.3l-.9,.3l-.9,.4l-.8,.3l-.8,.3l-.8,.3l-.8,.3l-.8,.3l-.7,.4l-.7,.3l-.8,.3l-.7,.3l-.6,.3l-.7,.3l-.6,.3l-.6,.4l-.6,.3l-.6,.3l-.6,.3l-.5,.3l-.5,.3l-.5,.3l-.5,.3l-.5,.3l-.4,.4l-.5,.3l-.4,.3l-.4,.3l-.3,.3l-.4,.3l-.3,.3l-.3,.3l-.3,.3l-.3,.3l-.3,.3l-.2,.3l-.2,.3l-.2,.3l-.2,.3l-.1,.3l-.2,.3l-.1,.3l-.1,.3l-.1,.3l-.1,.3v1.5l.1,.3v.3l.1,.3l.1,.3l.2,.3l.1,.3l.2,.3l.2,.3l.2,.3l.2,.3l.2,.3l.3,.2l.3,.3l.3,.3l.3,.3l.4,.3l.3,.3l.4,.3l.4,.2l.4,.3l.5,.3l.4,.3l.5,.3l.5,.3l.5,.2l.5,.3l.6,.3l.5,.3l.6,.3l.6,.2l.7,.3l.6,.3l.7,.2l.6,.3l.7,.3l.8,.3l.7,.2l.8,.3l.7,.3l.8,.2l.8,.3l.9,.3l.8,.2l.9,.3l.9,.3l.9,.2l.9,.3l.9,.3l1,.2l1,.3l1,.2l1,.3l1,.3l1.1,.2l1,.3l1.1,.2l1.1,.3l1.1,.2l1.2,.3l1.1,.2l1.2,.3l1.2,.2l1.2,.3l1.2,.2l1.2,.3l1.3,.2l1.3,.3l1.3,.2L66,175l1.3,.3l1.4,.2l1.3,.3l1.4,.2l1.4,.2l1.4,.3l1.4,.2l1.5,.2l1.4,.3l1.5,.2l1.5,.2l1.5,.3l1.5,.2l1.6,.2l1.5,.3l1.6,.2l1.6,.2l1.6,.2l1.6,.2l1.6,.3l1.7,.2l1.7,.2l1.6,.2l1.7,.2l1.8,.3l1.7,.2l1.7,.2l1.8,.2l1.7,.2l1.8,.2l1.8,.2l1.9,.2l1.8,.3l1.8,.2l1.9,.2l1.9,.2l1.8,.2l1.9,.2l2,.2l1.9,.2l1.9,.2l2,.2l2,.2l1.9,.2l2,.2l2,.1l2.1,.2l2,.2l2.1,.2l2,.2l2.1,.2l2.1,.2l2.1,.2l2.1,.1l2.1,.2l2.1,.2l2.2,.2l2.2,.2l2.1,.1l2.2,.2l2.2,.2l2.2,.2l2.2,.1l2.3,.2l2.2,.2l2.3,.1l2.2,.2l2.3,.2l2.3,.1l2.3,.2l2.3,.2l2.3,.1l2.3,.2l2.4,.1l2.3,.2l2.4,.2l2.3,.1l2.4,.2l2.4,.1l2.4,.2l2.4,.1l2.4,.2l2.4,.1l2.5,.2l2.4,.1l2.4,.1l2.5,.2l2.5,.1l2.4,.2l2.5,.1l2.5,.1l2.5,.2l2.5,.1l2.5,.1l2.6,.2l2.5,.1l2.5,.1l2.6,.2l2.5,.1l2.6,.1l2.6,.1l2.5,.2l2.6,.1l2.6,.1l2.6,.1l2.6,.1l2.6,.1l2.6,.2l2.6,.1l2.6,.1l2.7,.1l2.6,.1l2.6,.1l2.7,.1l2.6,.1l2.7,.1l2.7,.1l2.6,.1l2.7,.1l2.7,.1l2.6,.1l2.7,.1l2.7,.1l2.7,.1l2.7,.1l2.7,.1h2.7l2.7,.1l2.7,.1l2.7,.1l2.7,.1l2.7,.1H356l2.8,.1l2.7,.1l2.7,.1h2.7l2.8,.1l2.7,.1l2.7,.1h2.8l2.7,.1h2.7l2.8,.1l2.7,.1h2.8l2.7,.1H397l2.8,.1l2.7,.1h2.8l2.7,.1h2.7l2.8,.1h2.7l2.8,.1h5.5l2.7,.1h2.7l2.8,.1h5.4l2.8,.1h5.4l2.8,.1h8.1l2.7,.1h10.9l2.7,.1H495l2.6,.1h10.7l2.6,-.1h21l2.5,-.1h10.3l2.6,-.1h7.6l2.6,-.1h5l2.5,-.1h5l2.5,-.1H575l2.4,-.1h4.9l2.5,-.1h2.4l2.4,-.1H592l2.4,-.1h2.4l2.4,-.1l2.4,-.1h2.3l2.4,-.1h2.3l2.4,-.1l2.3,-.1h2.3l2.3,-.1l2.3,-.1h2.3l2.3,-.1l2.2,-.1h2.3l2.2,-.1l2.2,-.1l2.3,-.1h2.2l2.2,-.1l2.1,-.1l2.2,-.1l2.2,-.1l2.1,-.1h2.1l2.2,-.1l2.1,-.1l2.1,-.1l2.1,-.1l2,-.1l2.1,-.1l2,-.1l2.1,-.1l2,-.1l2,-.1l2,-.1l1.9,-.1l2,-.1l2,-.1l1.9,-.1l1.9,-.1l1.9,-.1l1.9,-.2l1.9,-.1l1.9,-.1l1.8,-.1l1.9,-.1l1.8,-.1l1.8,-.2l1.8,-.1l1.8,-.1l1.8,-.1l1.7,-.2l1.7,-.1l1.8,-.1l1.7,-.1l1.7,-.2l1.6,-.1l1.7,-.1l1.6,-.2l1.7,-.1l1.6,-.1l1.6,-.2l1.6,-.1l1.5,-.2l1.6,-.1l1.5,-.2l1.5,-.1l1.5,-.1l1.5,-.2l1.5,-.1l1.4,-.2l1.5,-.1l1.4,-.2l1.4,-.2l1.4,-.1l1.3,-.2l1.4,-.1l1.3,-.2l1.3,-.1l1.3,-.2l1.3,-.2l1.3,-.1l1.2,-.2l1.3,-.2l1.2,-.1l1.2,-.2l1.2,-.2l1.1,-.2l1.2,-.1l1.1,-.2l1.1,-.2l1.1,-.2l1.1,-.1l1,-.2l1.1,-.2l1,-.2l1,-.2l1,-.2l.9,-.1l1,-.2l.9,-.2l.9,-.2l.9,-.2l.9,-.2l.8,-.2l.9,-.2l.8,-.2l.8,-.2l.8,-.2l.7,-.2l.8,-.2l.7,-.2l.7,-.2l.7,-.2l.6,-.2l.7,-.2l.6,-.2l.6,-.2l.6,-.2l.6,-.2l.5,-.2l.6,-.2l.5,-.3l.5,-.2l.5,-.2l.4,-.2l.5,-.2l.4,-.2l.4,-.3l.4,-.2l.3,-.2l.4,-.2l.3,-.3l.3,-.2l.3,-.2l.2,-.2l.3,-.3l.2,-.2l.2,-.2l.2,-.3l.2,-.2l.1,-.2l.2,-.3l.1,-.2l.1,-.2v-.3l.1,-.2v-1l-.1,-.2v-.3l-.1,-.2l-.1,-.3l-.2,-.2l-.1,-.2l-.2,-.3l-.1,-.2l-.2,-.3l-.3,-.3l-.2,-.2l-.3,-.3l-.3,-.2l-.3,-.3l-.3,-.2l-.3,-.3l-.4,-.2l-.3,-.3l-.4,-.3l-.5,-.2l-.4,-.3l-.4,-.3l-.5,-.2l-.5,-.3l-.5,-.2l-.6,-.3l-.5,-.3l-.6,-.3l-.6,-.2l-.6,-.3l-.6,-.3l-.6,-.2l-.7,-.3l-.7,-.3l-.7,-.3l-.7,-.2l-.8,-.3l-.7,-.3l-.8,-.3l-.8,-.2l-.8,-.3l-.8,-.3l-.9,-.3l-.9,-.3l-.9,-.2l-.9,-.3l-.9,-.3l-.9,-.3l-1,-.3l-1,-.3l-1,-.2l-1,-.3l-1,-.3l-1.1,-.3l-1.1,-.3l-1.1,-.3l-1.1,-.3l-1.1,-.3l-1.1,-.3l-1.2,-.3l-1.2,-.2l-1.2,-.3l-1.2,-.3l-1.2,-.3l-1.3,-.3l-1.2,-.3l-1.3,-.3l-1.3,-.3l-1.3,-.3l-1.4,-.3l-1.3,-.3l-1.4,-.3l-1.4,-.3l-1.4,-.3l-1.4,-.3l-1.5,-.3l-1.4,-.3l-1.5,-.3l-1.5,-.3l-1.5,-.3l-1.5,-.3L727,152l-1.6,-.3l-1.6,-.4l-1.5,-.3l-1.6,-.3l-1.7,-.3l-1.6,-.3l-1.6,-.3l-1.7,-.3l-1.7,-.3l-1.7,-.3l-1.7,-.3l-1.7,-.3l-1.8,-.4l-1.7,-.3l-1.8,-.3l-1.8,-.3l-1.8,-.3l-1.8,-.3l-1.8,-.3l-1.9,-.4l-1.8,-.3l-1.9,-.3l-1.9,-.3l-1.9,-.3l-1.9,-.3l-1.9,-.3l-2,-.4l-2,-.3l-1.9,-.3l-2,-.3l-2,-.3l-2,-.4l-2.1,-.3l-2,-.3l-2.1,-.3l-2,-.3l-2.1,-.4l-2.1,-.3l-2.1,-.3l-2.1,-.3l-2.2,-.3l-2.1,-.4l-2.2,-.3l-2.1,-.3l-2.2,-.3l-2.2,-.4l-2.2,-.3l-2.2,-.3l-2.2,-.3l-2.3,-.3l-2.2,-.4l-2.3,-.3l-2.3,-.3l-2.3,-.3l-2.3,-.4l-2.3,-.3l-2.3,-.3l-2.3,-.3l-2.3,-.4l-2.4,-.3l-2.4,-.3l-2.3,-.3l-2.4,-.4l-2.4,-.3l-2.4,-.3l-2.4,-.4l-2.4,-.3l-2.5,-.3l-2.4,-.3l-2.4,-.4l-2.5,-.3l-2.5,-.3l-2.4,-.3l-2.5,-.4l-2.5,-.3l-2.5,-.3l-2.5,-.4l-2.5,-.3l-2.6,-.3l-2.5,-.3l-2.5,-.4l-2.6,-.3l-2.5,-.3l-2.6,-.3l-2.6,-.4l-2.6,-.3l-2.5,-.3l-2.6,-.4l-2.6,-.3l-2.6,-.3l-2.7,-.3l-2.6,-.4l-2.6,-.3l-2.6,-.3l-2.7,-.3l-2.6,-.4l-2.7,-.3l-2.6,-.3l-2.7,-.3l-2.7,-.4l-2.6,-.3l-2.7,-.3l-2.7,-.3l-2.7,-.4l-2.7,-.3l-2.7,-.3l-2.7,-.4l-2.7,-.3l-2.7,-.3l-2.7,-.3l-2.7,-.4l-2.7,-.3l-2.8,-.3l-2.7,-.3l-2.7,-.3l-2.8,-.4l-2.7,-.3l-2.7,-.3l-2.8,-.3l-2.7,-.4L450,113l-2.7,-.3l-2.8,-.3l-2.7,-.4l-2.8,-.3l-2.8,-.3l-2.7,-.3l-2.8,-.3l-2.8,-.4l-2.7,-.3l-2.8,-.3l-2.8,-.3l-2.7,-.3l-2.8,-.4l-2.8,-.3l-2.7,-.3l-2.8,-.3l-2.8,-.3l-2.8,-.3l-2.7,-.4l-2.8,-.3l-2.8,-.3l-2.7,-.3l-2.8,-.3l-2.8,-.3l-2.8,-.3l-2.7,-.4l-2.8,-.3l-2.8,-.3l-2.7,-.3l-2.8,-.3l-2.8,-.3l-2.7,-.3l-2.8,-.3l-2.7,-.4l-2.8,-.3l-2.7,-.3l-2.8,-.3L345,101l-2.8,-.3l-2.7,-.3l-2.7,-.3L334,99.8l-2.7,-.3l-2.7,-.3l-2.8,-.3l-2.7,-.3l-2.7,-.3L317.7,98L315,97.7l-2.7,-.3l-2.7,-.3l-2.7,-.3l-2.7,-.3l-2.7,-.3l-2.7,-.3l-2.6,-.3l-2.7,-.3L290.8,95l-2.6,-.3l-2.7,-.3l-2.6,-.3l-2.7,-.3l-2.6,-.3L275,93.2l-2.7,-.3l-2.6,-.3l-2.6,-.3L264.5,92l-2.6,-.3l-2.6,-.3l-2.6,-.2l-2.5,-.3l-2.6,-.3L249,90.3L246.5,90l-2.6,-.3l-2.5,-.3l-2.5,-.2l-2.5,-.3l-2.6,-.3l-2.5,-.3L228.8,88l-2.4,-.2l-2.5,-.3l-2.5,-.3L219,86.9l-2.5,-.3l-2.4,-.2l-2.5,-.3l-2.4,-.3l-2.4,-.3l-2.4,-.2L202,85l-2.4,-.3l-2.4,-.2l-2.3,-.3l-2.4,-.3l-2.3,-.3l-2.4,-.2l-2.3,-.3l-2.3,-.3l-2.3,-.2l-2.3,-.3l-2.3,-.2l-2.2,-.3l-2.3,-.3l-2.2,-.2L167.3,81l-2.2,-.2l-2.2,-.3l-2.2,-.3L158.5,80l-2.1,-.3l-2.2,-.2l-2.1,-.3L149.9,79l-2.1,-.3l-2.1,-.2l-2.1,-.3L141.5,78l-2.1,-.3l-2,-.2l-2.1,-.3l-2,-.2l-2,-.3l-2,-.2l-2,-.2l-2,-.3l-2,-.2l-1.9,-.3l-1.9,-.2l-2,-.2l-1.9,-.3l-1.9,-.2l-1.8,-.2L110,74.1l-1.9,-.2l-1.8,-.2l-1.8,-.3l-1.8,-.2L100.9,73l-1.8,-.2l-1.7,-.3l-1.8,-.2l-1.7,-.2l-1.7,-.2l-1.7,-.2l-1.7,-.3l-1.7,-.2L85.5,71l-1.7,-.2l-1.6,-.2l-1.6,-.2L79,70.1l-1.5,-.2l-1.6,-.2l-1.5,-.2l-1.6,-.2l-1.5,-.2l-1.5,-.2l-1.4,-.2l-1.5,-.2l-1.4,-.2L64,68.1l-1.4,-.2l-1.3,-.2l-1.4,-.2l-1.4,-.2l-1.3,-.2l-1.3,-.2l-1.3,-.2l-1.3,-.2L52,66.3l-1.2,-.2l-1.3,-.2l-1.2,-.2l-1.2,-.1l-1.2,-.2l-1.1,-.2L43.6,65l-1.1,-.2l-1.1,-.2l-1.1,-.1l-1.1,-.2l-1,-.2l-1.1,-.2l-1,-.1l-1,-.2l-1,-.2l-.9,-.1l-1,-.2l-.9,-.2l-.9,-.2l-.9,-.1l-.8,-.2l-.9,-.1L27,62.1l-.8,-.2l-.8,-.1l-.8,-.2l-.8,-.1l-.7,-.2l-.7,-.1L21.7,61L21,60.9l-.7,-.2l-.6,-.1l-.6,-.2l-.6,-.1l-.6,-.2L17.3,60l-.5,-.2l-.6,-.1l-.5,-.1l-.4,-.2l-.5,-.1l-.5,-.2L13.9,59l-.4,-.1l-.4,-.2l-.4,-.1l-.3,-.1L12,58.4l-.3,-.2l-.3,-.1L11.2,58l-.3,-.1l-.2,-.2l-.2,-.1l-.2,-.1l-.2,-.1l-.2,-.1l-.1,-.1l-.1,-.1l-.1,-.2l-.1,-.1v-.1l-.1,-.1v-.3l.1,-.1v-.1L9.6,56l.1,-.1l.1,-.1l.2,-.1l.1,-.1l.2,-.1l.2,-.1h.2l.3,-.1l.2,-.1l.3,-.1l.3,-.1l.3,-.1h.4l.3,-.1l.4,-.1l.4,-.1H14l.4,-.1l.5,-.1l.5,-.1h.5l.5,-.1l.5,-.1h.6L18,54l.6,-.1h.6l.6,-.1h.7l.7,-.1h.6l.8,-.1h.7l.7,-.1h.8l.8,-.1h.8l.8,-.1H28l.9,-.1h1.7l1,-.1h1.8l1,-.1h2l1,-.1h3.2l1.1,-.1h5.8l1.2,-.1H71.8l1.6,.1h7.8l1.6,.1h4.9l1.7,.1h3.4l1.7,.1H98l1.8,.1h3.6l1.8,.1h1.9l1.8,.1h1.9l1.8,.1h1.9l1.9,.1h2l1.9,.1h1.9l2,.1h2l2,.1l2,.1h2l2,.1h2.1l2,.1l2.1,.1h2.1l2.1,.1l2.1,.1l2.1,.1H151l2.1,.1l2.2,.1l2.2,.1h2.2l2.2,.1l2.2,.1l2.2,.1l2.2,.1l2.3,.1l2.2,.1h2.3l2.3,.1l2.3,.1l2.3,.1l2.3,.1l2.4,.1l2.3,.1l2.3,.1l2.4,.1l2.4,.1l2.4,.1l2.4,.1l2.4,.1l2.4,.1l2.4,.2l2.4,.1l2.5,.1l2.4,.1l2.5,.1l2.5,.1l2.4,.1l2.5,.2l2.5,.1l2.5,.1l2.6,.1l2.5,.1l2.5,.2l2.6,.1l2.5,.1l2.6,.2l2.5,.1l2.6,.1l2.6,.2l2.6,.1l2.6,.1l2.6,.2l2.6,.1l2.6,.1l2.7,.2l2.6,.1l2.6,.2l2.7,.1l2.6,.2l2.7,.1l2.7,.2l2.6,.1l2.7,.2l2.7,.1l2.7,.2l2.7,.1l2.7,.2l2.7,.2l2.7,.1l2.7,.2l2.7,.1l2.8,.2l2.7,.2l2.7,.1l2.8,.2l2.7,.2l2.7,.2l2.8,.1l2.8,.2l2.7,.2l2.8,.1l2.7,.2l2.8,.2l2.8,.2l2.8,.2l2.7,.1l2.8,.2l2.8,.2l2.8,.2l2.8,.2l2.8,.2l2.7,.2l2.8,.1l2.8,.2l2.8,.2l2.8,.2l2.8,.2l2.8,.2l2.8,.2l2.8,.2l2.8,.2l2.8,.2l2.8,.2l2.8,.2l2.8,.2l2.8,.2l2.9,.2l2.8,.2l2.8,.3l2.8,.2l2.8,.2l2.8,.2l2.8,.2l2.8,.2l2.8,.2l2.8,.3l2.7,.2l2.8,.2l2.8,.2l2.8,.2l2.8,.3l2.8,.2l2.8,.2l2.8,.2l2.7,.3l2.8,.2l2.8,.2l2.7,.2l2.8,.3l2.8,.2l2.7,.2l2.8,.3l2.7,.2l2.8,.2l2.7,.3l2.8,.2l2.7,.3l2.7,.2l2.8,.2l2.7,.3l2.7,.2l2.7,.3l2.7,.2l2.7,.3l2.7,.2l2.7,.3l2.7,.2l2.7,.3l2.6,.2l2.7,.3l2.7,.2l2.6,.3l2.7,.2l2.6,.3l2.6,.2l2.7,.3l2.6,.2l2.6,.3l2.6,.3l2.6,.2l2.6,.3l2.6,.3l2.6,.2l2.5,.3l2.6,.2l2.5,.3l2.6,.3l2.5,.2l2.5,.3l2.6,.3l2.5,.3l2.5,.2l2.4,.3l2.5,.3l2.5,.2l2.5,.3l2.4,.3l2.5,.3l2.4,.3L607,87l2.4,.3l2.4,.3l2.4,.3l2.4,.3l2.4,.2l2.3,.3l2.4,.3l2.3,.3l2.4,.3l2.3,.3l2.3,.2l2.3,.3l2.3,.3l2.2,.3l2.3,.3l2.2,.3l2.3,.3l2.2,.3l2.2,.3l2.2,.3l2.2,.2l2.2,.3l2.2,.3l2.1,.3l2.1,.3l2.2,.3l2.1,.3l2.1,.3l2.1,.3l2,.3l2.1,.3l2,.3l2.1,.3l2,.3l2,.3l2,.3l2,.3l1.9,.3l2,.3l1.9,.3l1.9,.3l1.9,.4l1.9,.3l1.9,.3l1.8,.3l1.9,.3l1.8,.3l1.8,.3l1.8,.3l1.8,.3l1.8,.3l1.7,.3l1.8,.4l1.7,.3l1.7,.3l1.7,.3l1.7,.3l1.6,.3l1.7,.3l1.6,.4l1.6,.3l1.6,.3l1.6,.3l1.5,.3l1.6,.3l1.5,.4l1.5,.3l1.5,.3l1.5,.3l1.5,.3l1.4,.3l1.4,.4l1.4,.3l1.4,.3l1.4,.3l1.4,.3l1.3,.4l1.3,.3l1.3,.3l1.3,.3l1.3,.4l1.2,.3l1.3,.3l1.2,.3l1.2,.4l1.2,.3l1.1,.3l1.2,.3l1.1,.3l1.1,.4l1.1,.3l1.1,.3l1,.4l1,.3l1.1,.3l1,.3l.9,.4l1,.3l.9,.3l1,.3l.9,.4l.9,.3l.8,.3l.9,.3l.8,.4l.8,.3l.8,.3l.8,.4l.7,.3l.7,.3l.8,.3l.6,.4l.7,.3l.7,.3l.6,.4l.6,.3l.6,.3l.6,.4l.6,.3l.5,.3l.5,.3l.5,.4l.5,.3l.5,.3l.4,.4l.4,.3l.4,.3l.4,.3l.4,.4l.3,.3l.3,.3l.3,.4l.3,.3l.3,.3l.2,.4l.2,.3l.2,.3l.2,.3l.2,.4l.1,.3l.2,.3l.1,.4v.3l.1,.3v.3l.1,.4v.6l-.1,.4v.3l-.1,.3l-.1,.3l-.1,.4l-.2,.3l-.1,.3l-.2,.3l-.2,.4l-.2,.3l-.2,.3l-.3,.4l-.3,.3l-.3,.3l-.3,.3l-.3,.4l-.4,.3l-.3,.3l-.4,.3l-.4,.4l-.5,.3l-.4,.3l-.5,.3l-.5,.3l-.5,.4l-.5,.3l-.6,.3l-.6,.3l-.6,.4l-.6,.3l-.6,.3l-.6,.3l-.7,.3l-.7,.4l-.7,.3l-.7,.3l-.8,.3l-.7,.3l-.8,.3l-.8,.4l-.9,.3l-.8,.3l-.9,.3l-.8,.3l-.9,.3l-1,.4l-.9,.3l-.9,.3l-1,.3l-1,.3l-1,.3l-1.1,.3l-1,.3l-1.1,.4l-1.1,.3l-1.1,.3l-1.1,.3l-1.1,.3l-1.2,.3l-1.2,.3l-1.2,.3l-1.2,.3l-1.2,.3l-1.2,.3l-1.3,.3l-1.3,.4l-1.3,.3l-1.3,.3l-1.4,.3l-1.3,.3l-1.4,.3l-1.4,.3l-1.4,.3l-1.4,.3l-1.5,.3l-1.4,.3l-1.5,.3l-1.5,.3l-1.5,.3l-1.5,.3l-1.6,.3l-1.5,.2l-1.6,.3L732,160l-1.6,.3l-1.7,.3l-1.6,.3l-1.7,.3l-1.6,.3l-1.7,.3l-1.7,.3l-1.8,.3l-1.7,.2l-1.8,.3l-1.7,.3l-1.8,.3l-1.8,.3l-1.8,.3l-1.9,.3l-1.8,.2l-1.9,.3l-1.9,.3l-1.9,.3l-1.9,.3l-1.9,.2l-1.9,.3l-2,.3l-1.9,.3l-2,.2l-2,.3l-2,.3l-2.1,.3l-2,.2l-2,.3l-2.1,.3l-2.1,.2l-2.1,.3l-2.1,.3l-2.1,.3l-2.1,.2l-2.2,.3l-2.1,.2l-2.2,.3l-2.2,.3l-2.2,.2l-2.2,.3L649,172l-2.3,.2l-2.2,.3l-2.3,.2L640,173l-2.3,.2l-2.3,.3l-2.3,.2l-2.3,.3l-2.4,.3l-2.3,.2l-2.4,.2l-2.3,.3l-2.4,.2l-2.4,.3l-2.4,.2l-2.4,.3l-2.4,.2l-2.4,.3l-2.5,.2l-2.4,.2l-2.5,.3l-2.4,.2l-2.5,.3l-2.5,.2l-2.5,.2l-2.5,.3l-2.5,.2l-2.6,.2l-2.5,.3l-2.5,.2l-2.6,.2l-2.5,.3l-2.6,.2l-2.6,.2l-2.6,.2l-2.6,.3l-2.6,.2l-2.6,.2l-2.6,.2l-2.6,.2l-2.7,.3l-2.6,.2l-2.6,.2l-2.7,.2l-2.7,.2l-2.6,.2l-2.7,.2l-2.7,.3l-2.7,.2l-2.7,.2l-2.7,.2l-2.7,.2l-2.7,.2l-2.7,.2l-2.7,.2l-2.7,.2l-2.8,.2l-2.7,.2l-2.8,.2l-2.7,.2l-2.8,.2l-2.7,.2l-2.8,.2l-2.8,.2l-2.7,.2l-2.8,.1l-2.8,.2l-2.8,.2l-2.8,.2l-2.8,.2l-2.8,.2L464,188l-2.9,.1l-2.8,.2l-2.8,.2l-2.8,.2l-2.8,.1l-2.8,.2l-2.8,.2l-2.8,.2l-2.9,.1l-2.8,.2l-2.8,.2l-2.8,.1l-2.9,.2l-2.8,.2l-2.8,.1l-2.9,.2l-2.8,.2l-2.8,.1l-2.9,.2l-2.8,.1l-2.8,.2l-2.9,.1l-2.8,.2l-2.8,.1l-2.9,.2l-2.8,.1l-2.8,.2l-2.9,.1l-2.8,.2l-2.8,.1l-2.9,.2l-2.8,.1l-2.8,.1l-2.8,.2l-2.9,.1l-2.8,.2l-2.8,.1l-2.8,.1l-2.9,.2l-2.8,.1l-2.8,.1l-2.8,.1l-2.8,.2l-2.8,.1l-2.8,.1l-2.8,.1l-2.8,.2l-2.8,.1l-2.8,.1l-2.7,.1l-2.8,.1l-2.8,.1l-2.8,.2l-2.7,.1l-2.8,.1l-2.8,.1l-2.7,.1l-2.8,.1l-2.7,.1l-2.7,.1l-2.8,.1l-2.7,.1l-2.7,.1l-2.7,.1l-2.7,.1l-2.8,.1l-2.6,.1l-2.7,.1l-2.7,.1h-2.7l-2.7,.1l-2.6,.1l-2.7,.1l-2.7,.1l-2.6,.1h-2.6l-2.7,.1l-2.6,.1l-2.6,.1h-2.6l-2.6,.1l-2.6,.1l-2.6,.1h-2.6l-2.5,.1l-2.6,.1h-2.5l-2.6,.1h-2.5l-2.5,.1l-2.5,.1h-2.5l-2.5,.1h-2.5l-2.5,.1h-2.4l-2.5,.1h-2.4l-2.5,.1h-2.4l-2.4,.1h-4.8l-2.4,.1h-2.3l-2.4,.1h-4.7l-2.3,.1h-6.9l-2.3,.1h-6.8l-2.2,.1H141.2l-2.2,.1H112.3l-2,-.1H98.9L97,199.9H91.5l-1.8,-.1H84.5l-1.8,-.1H79.3l-1.7,-.1H76l-1.7,-.1H71.1l-1.6,-.1H67.9l-1.6,-.1H64.8l-1.6,-.1H61.7l-1.5,-.1H58.7L57.3,199H55.8l-1.4,-.1L53,198.8H51.6l-1.4,-.1H48.9l-1.4,-.1l-1.3,-.1H44.9l-1.3,-.1l-1.3,-.1l-1.2,-.1H39.8l-1.2,-.1L37.4,198l-1.2,-.1H35.1l-1.2,-.1l-1.1,-.1l-1.1,-.1l-1.1,-.1l-1.1,-.1l-1,-.1h-1l-1.1,-.1l-1,-.1l-.9,-.1l-1,-.1l-.9,-.1l-.9,-.1l-.9,-.1l-.9,-.1l-.9,-.1l-.8,-.1l-.9,-.1l-.8,-.1l-.7,-.1l-.8,-.2l-.8,-.1l-.7,-.1l-.7,-.1l-.7,-.1l-.6,-.1l-.7,-.1l-.6,-.2l-.6,-.1L9,194.8l-.6,-.1l-.5,-.1l-.6,-.2l-.5,-.1l-.5,-.1L5.9,194l-.5,-.1L5,193.8l-.4,-.2l-.4,-.1l-.4,-.1l-.4,-.2l-.3,-.1l-.3,-.2l-.3,-.1l-.3,-.1L2,192.5l-.2,-.1l-.2,-.2l-.2,-.1l-.2,-.2L1,191.8l-.1,-.2l-.1,-.1l-.1,-.2l-.1,-.2v-.3l-.1,-.1l.1,-.2v-.3L.7,190l.1,-.2l.1,-.1l.1,-.2l.2,-.2l.2,-.1l.2,-.2l.2,-.2l.2,-.2l.3,-.1l.2,-.2l.3,-.2l.3,-.2l.4,-.2l.3,-.1l.4,-.2l.4,-.2L5,187l.4,-.2l.5,-.2l.5,-.2l.4,-.2l.6,-.2l.5,-.2l.5,-.2l.6,-.2l.6,-.1l.6,-.2l.6,-.2l.7,-.3l.7,-.2l.7,-.2l.7,-.2l.7,-.2l.7,-.2l.8,-.2l.8,-.2l.8,-.2l.8,-.2l.9,-.2l.8,-.2l.9,-.3l.9,-.2l.9,-.2l1,-.2l.9,-.2l1,-.3l1,-.2l1,-.2l1.1,-.2l1,-.3l1.1,-.2l1.1,-.2l1.1,-.2l1.1,-.3l1.2,-.2l1.2,-.2l1.1,-.3l1.2,-.2l1.3,-.2l1.2,-.3l1.3,-.2l1.2,-.2l1.3,-.3l1.3,-.2l1.4,-.3l1.3,-.2l1.4,-.3l1.4,-.2l1.4,-.2l1.4,-.3l1.4,-.2l1.5,-.3l1.5,-.2l1.4,-.3l1.5,-.2l1.6,-.3l1.5,-.2l1.6,-.3l1.5,-.3l1.6,-.2l1.6,-.3l1.7,-.2l1.6,-.3l1.7,-.2l1.6,-.3l1.7,-.3l1.7,-.2l1.8,-.3l1.7,-.3l1.7,-.2l1.8,-.3l1.8,-.3l1.8,-.2l1.8,-.3l1.9,-.3l1.8,-.2l1.9,-.3l1.9,-.3l1.9,-.2l1.9,-.3l1.9,-.3l1.9,-.3l2,-.2l2,-.3l1.9,-.3l2,-.3l2.1,-.3l2,-.2l2,-.3l2.1,-.3l2,-.3l2.1,-.3l2.1,-.3l2.1,-.2l2.2,-.3l2.1,-.3l2.2,-.3l2.1,-.3l2.2,-.3l2.2,-.3l2.2,-.3l2.2,-.2l2.2,-.3l2.3,-.3l2.2,-.3l2.3,-.3l2.3,-.3l2.3,-.3l2.3,-.3l2.3,-.3l2.3,-.3l2.4,-.3l2.3,-.3l2.4,-.3l2.4,-.3l2.4,-.3l2.4,-.3l2.4,-.3l2.4,-.3l2.4,-.3l2.5,-.3l2.4,-.3l2.5,-.3l2.4,-.3l2.5,-.3l2.5,-.3l2.5,-.3l2.5,-.3l2.6,-.4l2.5,-.3l2.5,-.3l2.6,-.3l2.5,-.3l2.6,-.3l2.6,-.3l2.6,-.3l2.6,-.3l2.6,-.4l2.6,-.3l2.6,-.3l2.6,-.3l2.7,-.3l2.6,-.3l2.7,-.3l2.6,-.4l2.7,-.3l2.7,-.3l2.6,-.3l2.7,-.3l2.7,-.3l2.7,-.4l2.7,-.3l2.8,-.3l2.7,-.3l2.7,-.3l2.7,-.4l2.8,-.3l2.7,-.3l2.8,-.3l2.7,-.3l2.8,-.4l2.8,-.3l2.7,-.3l2.8,-.3l2.8,-.4l2.8,-.3l2.8,-.3l2.8,-.3l2.8,-.4l2.8,-.3l2.8,-.3l2.8,-.3l2.8,-.4l2.9,-.3l2.8,-.3l2.8,-.3l2.8,-.4l2.9,-.3l2.8,-.3l2.9,-.4l2.8,-.3l2.8,-.3l2.9,-.3l2.8,-.4l2.9,-.3l2.9,-.3l2.8,-.4l2.9,-.3L379,134l2.9,-.4l2.9,-.3l2.8,-.3l2.9,-.3l2.8,-.4l2.9,-.3l2.9,-.3l2.8,-.4l2.9,-.3l2.9,-.3l2.8,-.4l2.9,-.3l2.9,-.3l2.8,-.4L422,129l2.9,-.3l2.8,-.3l2.9,-.4l2.9,-.3l2.8,-.3l2.9,-.4l2.8,-.3l2.9,-.3l2.8,-.4l2.9,-.3l2.8,-.3l2.9,-.4l2.8,-.3l2.9,-.3l2.8,-.4l2.8,-.3l2.9,-.3l2.8,-.4l2.8,-.3l2.9,-.3l2.8,-.4l2.8,-.3l2.8,-.3l2.8,-.3l2.8,-.4l2.8,-.3l2.8,-.3l2.8,-.4l2.8,-.3l2.8,-.3l2.7,-.4l2.8,-.3l2.8,-.3l2.7,-.4l2.8,-.3l2.7,-.3l2.8,-.3l2.7,-.4l2.7,-.3l2.8,-.3l2.7,-.4l2.7,-.3l2.7,-.3l2.7,-.3l2.7,-.4l2.7,-.3l2.6,-.3l2.7,-.4l2.7,-.3l2.6,-.3" class="g1_1" />
<path d="M785.1,29.6v0h-.4l-.1,.1h-.5l-.2,.1h-.5l-.3,.1h-.2l-.3,.1h-.4l-.3,.1h-.4l-.4,.1h-.4l-.4,.1l-.4,.1h-.5l-.4,.1l-.5,.1l-.5,.1h-.6l-.5,.1l-.6,.1l-.6,.1l-.6,.1l-.6,.1l-.7,.1l-.6,.1l-.7,.1l-.7,.1l-.7,.1l-.7,.1l-.8,.1l-.8,.2l-.8,.1l-.8,.1l-.8,.1l-.8,.2l-.9,.1l-.9,.1l-.9,.2l-.9,.1l-.9,.1l-1,.2l-1,.1l-.9,.2l-1.1,.1l-1,.2l-1,.2l-1.1,.1l-1.1,.2l-1,.2l-1.2,.1l-1.1,.2l-1.1,.2l-1.2,.2l-1.2,.1l-1.2,.2l-1.2,.2l-1.2,.2l-1.3,.2l-1.2,.2l-1.3,.2l-1.3,.2l-1.3,.2l-1.4,.2l-1.3,.2l-1.4,.2l-1.4,.2l-1.4,.3l-1.4,.2l-1.4,.2l-1.5,.2l-1.4,.2l-1.5,.3l-1.5,.2l-1.5,.2l-1.6,.3l-1.5,.2l-1.6,.3l-1.5,.2l-1.6,.3l-1.6,.2l-1.7,.3l-1.6,.2l-1.6,.3l-1.7,.2l-1.7,.3l-1.7,.3l-1.7,.2l-1.7,.3l-1.8,.3l-1.7,.3l-1.8,.2l-1.8,.3l-1.8,.3l-1.8,.3l-1.8,.3l-1.9,.3l-1.8,.3l-1.9,.2l-1.9,.3l-1.9,.3l-1.9,.3l-1.9,.4l-2,.3l-1.9,.3l-2,.3l-1.9,.3l-2,.3l-2,.3l-2.1,.4l-2,.3l-2,.3l-2.1,.3l-2.1,.4l-2,.3l-2.1,.3l-2.1,.4l-2.1,.3l-2.2,.3l-2.1,.4l-2.2,.3l-2.1,.4l-2.2,.3l-2.2,.4l-2.2,.3l-2.2,.4l-2.2,.4l-2.2,.3l-2.3,.4l-2.2,.4l-2.3,.3l-2.3,.4l-2.3,.4l-2.2,.3l-2.4,.4l-2.3,.4l-2.3,.4l-2.3,.4l-2.4,.3l-2.3,.4l-2.4,.4l-2.4,.4l-2.3,.4l-2.4,.4l-2.4,.4l-2.4,.4L574,63l-2.5,.4l-2.4,.4l-2.4,.4l-2.5,.4l-2.5,.4l-2.4,.4l-2.5,.4l-2.5,.4l-2.5,.5l-2.5,.4l-2.5,.4l-2.5,.4l-2.5,.4l-2.5,.5l-2.6,.4l-2.5,.4l-2.6,.5l-2.5,.4l-2.6,.4l-2.5,.5l-2.6,.4l-2.6,.4l-2.6,.5l-2.6,.4l-2.5,.5l-2.7,.4l-2.6,.5l-2.6,.4l-2.6,.5l-2.6,.4l-2.6,.5l-2.7,.4l-2.6,.5l-2.6,.4l-2.7,.5l-2.6,.4l-2.7,.5l-2.6,.5l-2.7,.4l-2.7,.5l-2.6,.5l-2.7,.4l-2.7,.5l-2.7,.5l-2.6,.5l-2.7,.4l-2.7,.5l-2.7,.5l-2.7,.5l-2.7,.4l-2.7,.5l-2.7,.5l-2.7,.5l-2.7,.5l-2.7,.5l-2.7,.4l-2.7,.5l-2.7,.5l-2.7,.5l-2.7,.5l-2.7,.5l-2.7,.5l-2.7,.5l-2.7,.5l-2.8,.5l-2.7,.5l-2.7,.5L396,94l-2.7,.5l-2.7,.5l-2.7,.5l-2.7,.5l-2.8,.5l-2.7,.5l-2.7,.5l-2.7,.5l-2.7,.5l-2.7,.5l-2.7,.5l-2.7,.5l-2.7,.5l-2.7,.6l-2.7,.5l-2.7,.5l-2.7,.5l-2.6,.5l-2.7,.5l-2.7,.5l-2.7,.6l-2.7,.5l-2.6,.5l-2.7,.5l-2.7,.5l-2.6,.6l-2.7,.5l-2.6,.5l-2.7,.5l-2.6,.5l-2.7,.6l-2.6,.5l-2.6,.5l-2.7,.5l-2.6,.6l-2.6,.5L297,113l-2.6,.5l-2.6,.6l-2.6,.5l-2.6,.5l-2.6,.5l-2.6,.6l-2.6,.5l-2.5,.5l-2.6,.6l-2.5,.5l-2.6,.5l-2.5,.5l-2.6,.6l-2.5,.5l-2.5,.5l-2.5,.6l-2.5,.5l-2.5,.5l-2.5,.6l-2.5,.5l-2.5,.5l-2.5,.5l-2.4,.6l-2.5,.5l-2.4,.5l-2.4,.6l-2.5,.5l-2.4,.5l-2.4,.6l-2.4,.5l-2.4,.5l-2.4,.6l-2.4,.5l-2.3,.5l-2.4,.6l-2.3,.5l-2.4,.5l-2.3,.5l-2.3,.6l-2.3,.5l-2.3,.5l-2.3,.6l-2.3,.5l-2.2,.5l-2.3,.5l-2.2,.6l-2.3,.5l-2.2,.5l-2.2,.6l-2.2,.5l-2.2,.5l-2.1,.5l-2.2,.6l-2.2,.5l-2.1,.5l-2.1,.5l-2.2,.6l-2.1,.5l-2.1,.5l-2,.5l-2.1,.5l-2.1,.6l-2,.5l-2,.5l-2.1,.5l-2,.5l-1.9,.6l-2,.5l-2,.5l-1.9,.5l-2,.5l-1.9,.5l-1.9,.6l-1.9,.5l-1.9,.5l-1.9,.5l-1.8,.5L119,154l-1.8,.5l-1.8,.5l-1.8,.5l-1.8,.5l-1.8,.6l-1.7,.5l-1.8,.5l-1.7,.5l-1.7,.5l-1.7,.5l-1.7,.5l-1.7,.5l-1.6,.5l-1.7,.5l-1.6,.5l-1.6,.5l-1.6,.4l-1.6,.5l-1.5,.5l-1.6,.5l-1.5,.5l-1.5,.5l-1.5,.5l-1.5,.5l-1.4,.5l-1.5,.4l-1.4,.5l-1.4,.5l-1.4,.5l-1.4,.5l-1.4,.4l-1.3,.5l-1.4,.5l-1.3,.5l-1.3,.4l-1.2,.5l-1.3,.5l-1.3,.4l-1.2,.5l-1.2,.5l-1.2,.4l-1.2,.5l-1.1,.5l-1.2,.4l-1.1,.5l-1.1,.4l-1.1,.5l-1.1,.4l-1,.5l-1.1,.5l-1,.4l-1,.5l-1,.4l-.9,.4l-1,.5l-.9,.4l-.9,.5l-.9,.4l-.9,.4l-.9,.5l-.8,.4l-.8,.4l-.8,.5l-.8,.4l-.8,.4l-.7,.4l-.7,.5L31,186l-.7,.4l-.6,.4l-.7,.4l-.6,.5l-.6,.4l-.6,.4l-.6,.4l-.6,.4l-.5,.4l-.5,.4l-.5,.4l-.5,.4l-.5,.4l-.4,.4l-.5,.4l-.4,.4l-.4,.4l-.3,.3l-.4,.4l-.3,.4l-.3,.4l-.3,.4l-.3,.4l-.3,.3l-.2,.4l-.2,.4l-.2,.3l-.2,.4l-.1,.4l-.2,.3l-.1,.4l-.1,.3l-.1,.4l-.1,.4v1.7l.1,.3v.4l.1,.3l.1,.3l.2,.4l.1,.3l.2,.3l.2,.4l.2,.3l.2,.3l.2,.3l.3,.3l.3,.3l.3,.3l.3,.4l.4,.3l.3,.3l.4,.3l.4,.3l.4,.3l.5,.3l.4,.2l.5,.3l.5,.3l.5,.3l.5,.3l.6,.3l.5,.2l.6,.3l.6,.3l.7,.3l.6,.2l.7,.3l.6,.2l.7,.3l.8,.3l.7,.2l.8,.3l.7,.2l.8,.3l.8,.2l.9,.2l.8,.3l.9,.2l.9,.2l.9,.3l.9,.2l.9,.2l1,.3l1,.2l1,.2l1,.2l1,.2l1.1,.2l1,.2l1.1,.2l1.1,.2l1.1,.2l1.2,.2l1.1,.2l1.2,.2l1.2,.2l1.2,.2l1.2,.2l1.2,.1l1.3,.2l1.3,.2l1.3,.2l1.3,.1l1.3,.2l1.4,.2l1.3,.1l1.4,.2l1.4,.1l1.4,.2l1.4,.1l1.5,.2l1.4,.1l1.5,.2l1.5,.1l1.5,.1l1.5,.2l1.6,.1l1.5,.1l1.6,.1l1.6,.2l1.6,.1l1.6,.1l1.6,.1l1.7,.1l1.7,.1l1.6,.1l1.7,.1l1.8,.1l1.7,.1l1.7,.1l1.8,.1l1.7,.1l1.8,.1h1.8l1.9,.1l1.8,.1l1.8,.1H122l1.9,.1l1.8,.1h1.9l2,.1h1.9l1.9,.1h2l2,.1h1.9l2,.1h4.1l2,.1h6.2l2.1,.1h26l2.2,-.1h6.8l2.3,-.1h4.6l2.3,-.1h2.3l2.4,-.1h2.3l2.4,-.1h2.3l2.4,-.1h2.4l2.4,-.1h2.4l2.4,-.1l2.4,-.1l2.5,-.1h2.4l2.4,-.1l2.5,-.1l2.5,-.1l2.4,-.1l2.5,-.1l2.5,-.1l2.5,-.1l2.5,-.1l2.5,-.1l2.6,-.1l2.5,-.1l2.5,-.1l2.6,-.1l2.5,-.1l2.6,-.1l2.6,-.2l2.5,-.1l2.6,-.1l2.6,-.1l2.6,-.2l2.6,-.1l2.6,-.2l2.6,-.1l2.6,-.1l2.6,-.2l2.7,-.1l2.6,-.2l2.6,-.2L305,219l2.6,-.2l2.7,-.1l2.7,-.2l2.6,-.2l2.7,-.2L321,218l2.6,-.2l2.7,-.2l2.7,-.2l2.7,-.2l2.7,-.2l2.7,-.1l2.7,-.2l2.7,-.2l2.7,-.2l2.7,-.2l2.7,-.3l2.7,-.2l2.7,-.2l2.8,-.2l2.7,-.2l2.7,-.2l2.7,-.2l2.8,-.3l2.7,-.2l2.7,-.2l2.8,-.3l2.7,-.2l2.7,-.2l2.8,-.3l2.7,-.2l2.8,-.3l2.7,-.2l2.7,-.3l2.8,-.2l2.7,-.3l2.8,-.2l2.7,-.3l2.7,-.3l2.8,-.2l2.7,-.3l2.8,-.3l2.7,-.2l2.8,-.3l2.7,-.3l2.7,-.3l2.8,-.3l2.7,-.3l2.7,-.2l2.8,-.3l2.7,-.3l2.7,-.3l2.8,-.3l2.7,-.3l2.7,-.3l2.7,-.3l2.7,-.3l2.8,-.4l2.7,-.3l2.7,-.3l2.7,-.3l2.7,-.3l2.7,-.3l2.7,-.4l2.7,-.3l2.7,-.3l2.6,-.4l2.7,-.3l2.7,-.3l2.7,-.4l2.6,-.3l2.7,-.4l2.7,-.3l2.6,-.3l2.7,-.4l2.6,-.4l2.6,-.3l2.7,-.4l2.6,-.3l2.6,-.4l2.6,-.3l2.7,-.4l2.6,-.4l2.6,-.3l2.5,-.4l2.6,-.4l2.6,-.4l2.6,-.3l2.5,-.4l2.6,-.4l2.6,-.4l2.5,-.4l2.5,-.4l2.6,-.4L560,192l2.5,-.3l2.5,-.4l2.5,-.4l2.5,-.4l2.5,-.4l2.5,-.4l2.4,-.5l2.5,-.4l2.4,-.4l2.5,-.4l2.4,-.4l2.4,-.4l2.4,-.4l2.4,-.4l2.4,-.5l2.4,-.4l2.4,-.4l2.3,-.4l2.4,-.5l2.3,-.4l2.4,-.4l2.3,-.5l2.3,-.4l2.3,-.4l2.3,-.5l2.3,-.4l2.3,-.5l2.2,-.4l2.3,-.4l2.2,-.5l2.2,-.4l2.3,-.5l2.2,-.4l2.2,-.5l2.1,-.4l2.2,-.5l2.2,-.5l2.1,-.4l2.1,-.5l2.2,-.4l2.1,-.5l2.1,-.5l2.1,-.4l2,-.5l2.1,-.5l2,-.4l2.1,-.5l2,-.5l2,-.5l2,-.4l1.9,-.5l2,-.5l2,-.5l1.9,-.5l1.9,-.4l1.9,-.5l1.9,-.5l1.9,-.5l1.9,-.5l1.8,-.5l1.9,-.5l1.8,-.5l1.8,-.5l1.8,-.4l1.8,-.5l1.8,-.5l1.7,-.5l1.7,-.5l1.8,-.5l1.7,-.5l1.7,-.5l1.6,-.5l1.7,-.5l1.6,-.5l1.7,-.5l1.6,-.6l1.6,-.5l1.6,-.5l1.5,-.5l1.6,-.5l1.5,-.5l1.5,-.5l1.5,-.5l1.5,-.5l1.5,-.5l1.4,-.6l1.5,-.5l1.4,-.5l1.4,-.5l1.4,-.5l1.3,-.6l1.4,-.5l1.3,-.5l1.3,-.5l1.3,-.5l1.3,-.6l1.3,-.5l1.2,-.5l1.3,-.5l1.2,-.6l1.2,-.5l1.2,-.5l1.1,-.5l1.2,-.6l1.1,-.5l1.1,-.5l1.1,-.5l1.1,-.6l1,-.5l1.1,-.5l1,-.6l1,-.5l1,-.5l.9,-.6l1,-.5l.9,-.5l.9,-.5l.9,-.6l.9,-.5l.8,-.5l.9,-.6l.8,-.5l.8,-.6l.8,-.5l.7,-.5l.8,-.6l.7,-.5l.7,-.5l.7,-.6l.6,-.5l.7,-.5l.6,-.6l.6,-.5l.6,-.5l.6,-.6l.5,-.5l.6,-.5l.5,-.6l.5,-.5l.5,-.6l.4,-.5l.5,-.5l.4,-.6l.4,-.5l.4,-.5l.3,-.6l.4,-.5l.3,-.5l.3,-.6l.3,-.5l.2,-.5l.3,-.6l.2,-.5l.2,-.5l.2,-.6l.2,-.5l.1,-.5l.2,-.6l.1,-.5l.1,-.5v-.6l.1,-.5v-2.1l-.1,-.5v-.6l-.1,-.5l-.1,-.5l-.2,-.5l-.1,-.6l-.2,-.5l-.1,-.5l-.2,-.5l-.3,-.6l-.2,-.5l-.3,-.5l-.3,-.5l-.3,-.6l-.3,-.5l-.3,-.5l-.4,-.5l-.3,-.5l-.4,-.6l-.5,-.5l-.4,-.5l-.4,-.5l-.5,-.5l-.5,-.5l-.5,-.5l-.6,-.5l-.5,-.6l-.6,-.5l-.6,-.5l-.6,-.5l-.6,-.5l-.6,-.5l-.7,-.5l-.7,-.5l-.7,-.5l-.7,-.5l-.8,-.5l-.7,-.5l-.8,-.5l-.8,-.5l-.8,-.5l-.8,-.5l-.9,-.5l-.9,-.5l-.9,-.5l-.9,-.5l-.9,-.5l-.9,-.5l-1,-.4l-1,-.5l-1,-.5l-1,-.5l-1,-.5l-1.1,-.5l-1.1,-.4l-1.1,-.5l-1.1,-.5l-1.1,-.5L758.1,80l-1.2,-.5L755.7,79l-1.2,-.5l-1.2,-.4l-1.2,-.5l-1.3,-.5l-1.2,-.4l-1.3,-.5L747,75.7l-1.3,-.4l-1.4,-.5L743,74.4l-1.4,-.5l-1.4,-.4L738.8,73l-1.4,-.4l-1.5,-.5l-1.4,-.4L733,71.2l-1.5,-.4L730,70.3l-1.5,-.4L727,69.5L725.4,69l-1.6,-.4l-1.5,-.5l-1.6,-.4L719,67.3l-1.6,-.4l-1.6,-.5L714.1,66l-1.7,-.4l-1.7,-.4L709,64.7l-1.7,-.4l-1.8,-.4l-1.7,-.4L702,63.1l-1.8,-.4l-1.8,-.4l-1.8,-.5l-1.8,-.4L692.9,61l-1.8,-.4l-1.9,-.4l-1.9,-.4l-1.9,-.4L683.5,59l-1.9,-.3l-2,-.4l-2,-.4l-1.9,-.4l-2,-.4l-2,-.4l-2,-.3L667.6,56l-2,-.4l-2.1,-.4l-2,-.3l-2.1,-.4l-2.1,-.4l-2.1,-.3l-2.1,-.4L650.9,53l-2.1,-.3l-2.2,-.4L644.5,52l-2.2,-.4l-2.2,-.3l-2.2,-.4l-2.2,-.3l-2.2,-.4l-2.3,-.3L629,49.6l-2.3,-.4l-2.3,-.3l-2.3,-.3l-2.3,-.4l-2.3,-.3l-2.3,-.3l-2.3,-.3l-2.3,-.4l-2.4,-.3l-2.4,-.3L603.5,46l-2.4,-.3l-2.4,-.3l-2.4,-.3l-2.4,-.3l-2.4,-.3L589,44.2l-2.4,-.3l-2.4,-.3l-2.5,-.3L579.2,43l-2.4,-.3l-2.5,-.3l-2.5,-.2l-2.5,-.3l-2.5,-.3l-2.5,-.3l-2.6,-.2l-2.5,-.3l-2.5,-.3l-2.6,-.2L551.6,40L549,39.8l-2.6,-.3l-2.6,-.3L541.3,39l-2.6,-.3l-2.6,-.2l-2.6,-.2L530.8,38l-2.6,-.2l-2.6,-.2L523,37.3l-2.7,-.2l-2.6,-.2L515,36.6l-2.6,-.2l-2.7,-.2L507,36l-2.6,-.2l-2.7,-.2L499,35.4l-2.7,-.2L493.6,35l-2.7,-.2l-2.7,-.2l-2.7,-.2l-2.7,-.2L480.1,34l-2.7,-.2l-2.7,-.2l-2.8,-.2l-2.7,-.1l-2.7,-.2l-2.8,-.2L461,32.8l-2.7,-.2l-2.8,-.2l-2.7,-.1L450,32.1L447.3,32l-2.8,-.2l-2.7,-.1L439,31.5l-2.8,-.1l-2.7,-.2l-2.8,-.1L427.9,31l-2.7,-.2l-2.8,-.1l-2.8,-.1l-2.7,-.2l-2.8,-.1l-2.8,-.1l-2.7,-.1L405.8,30L403,29.9l-2.8,-.1l-2.7,-.1l-2.8,-.1l-2.8,-.1l-2.7,-.1l-2.8,-.1l-2.8,-.1l-2.8,-.1L378.1,29l-2.8,-.1h-2.8l-2.7,-.1L367,28.7h-2.8l-2.7,-.1l-2.8,-.1H356l-2.8,-.1h-2.7l-2.8,-.1H345l-2.8,-.1h-2.7l-2.7,-.1h-5.5L328.6,28h-8.2l-2.7,-.1H288.2l-2.7,.1h-7.9l-2.6,.1h-5.3l-2.6,.1h-5.2l-2.6,.1h-2.6l-2.5,.1l-2.6,.1H249l-2.5,.1h-2.6l-2.5,.1l-2.5,.1h-2.5l-2.6,.1l-2.5,.1l-2.5,.1l-2.4,.1l-2.5,.1h-2.5l-2.4,.1l-2.5,.1l-2.4,.1l-2.5,.1l-2.4,.1l-2.4,.1l-2.4,.2l-2.4,.1l-2.4,.1l-2.4,.1l-2.3,.1l-2.4,.2l-2.3,.1l-2.4,.1l-2.3,.1l-2.3,.2l-2.3,.1l-2.3,.2l-2.3,.1l-2.2,.2l-2.3,.1l-2.2,.2l-2.3,.1l-2.2,.2l-2.2,.1l-2.2,.2l-2.2,.2l-2.1,.1l-2.2,.2l-2.1,.2l-2.2,.2l-2.1,.2l-2.1,.1l-2.1,.2l-2.1,.2l-2.1,.2l-2,.2l-2.1,.2l-2,.2l-2,.2l-2,.2l-2,.2l-2,.2l-2,.3l-1.9,.2l-1.9,.2l-2,.2l-1.9,.2l-1.9,.3l-1.8,.2l-1.9,.2l-1.9,.3l-1.8,.2l-1.8,.2l-1.8,.3l-1.8,.2l-1.8,.3l-1.7,.2l-1.8,.3l-1.7,.2l-1.7,.3l-1.7,.3l-1.7,.2L87.1,41l-1.6,.3l-1.7,.2l-1.6,.3l-1.6,.3L79,42.4l-1.5,.3l-1.6,.2l-1.5,.3l-1.6,.3l-1.5,.3l-1.5,.3l-1.4,.3l-1.5,.3L65.5,45L64,45.3l-1.4,.3l-1.3,.3l-1.4,.3l-1.4,.4l-1.3,.3l-1.3,.3l-1.3,.3l-1.3,.3L52,48.2l-1.2,.3l-1.3,.3l-1.2,.4l-1.2,.3l-1.2,.3l-1.1,.4l-1.2,.3l-1.1,.4l-1.1,.3l-1.1,.4l-1.1,.3l-1,.4l-1.1,.3l-1,.4l-1,.3l-1,.4l-.9,.4l-1,.3l-.9,.4l-.9,.4l-.9,.4l-.8,.3l-.9,.4l-.8,.4l-.8,.4l-.8,.4l-.8,.3l-.8,.4l-.7,.4l-.7,.4l-.7,.4l-.7,.4l-.7,.4l-.6,.4l-.6,.4l-.6,.4l-.6,.4l-.6,.4l-.5,.4l-.6,.4l-.5,.5l-.4,.4l-.5,.4l-.5,.4l-.4,.4l-.4,.5l-.4,.4l-.4,.4l-.3,.4l-.4,.5l-.3,.4l-.3,.4l-.2,.5l-.3,.4l-.2,.5l-.2,.4l-.2,.4l-.2,.5l-.2,.4l-.1,.5l-.1,.4l-.1,.5L9.5,73v.5l-.1,.4v1.4l.1,.5v.4l.1,.5l.1,.5l.1,.4l.2,.5l.1,.5l.2,.5l.2,.4l.2,.5l.3,.5l.2,.5l.3,.4l.3,.5l.3,.5l.4,.5l.3,.5l.4,.5l.4,.4l.4,.5l.4,.5l.5,.5l.5,.5l.5,.5l.5,.5l.5,.5l.6,.5l.5,.5l.6,.5l.6,.5l.6,.5l.7,.5l.7,.5l.6,.5l.8,.5l.7,.5l.7,.5l.8,.5l.8,.5l.8,.6l.8,.5l.8,.5l.9,.5l.9,.5l.8,.5l1,.5l.9,.6l.9,.5l1,.5l1,.5l1,.5l1,.6l1.1,.5l1,.5l1.1,.5l1.1,.6l1.1,.5l1.2,.5l1.1,.5l1.2,.6l1.2,.5l1.2,.5l1.2,.5l1.2,.6l1.3,.5l1.3,.5L55,109l1.3,.5l1.3,.5l1.3,.6l1.4,.5l1.4,.5l1.4,.6l1.4,.5l1.4,.5l1.5,.6l1.5,.5l1.4,.5l1.5,.6l1.6,.5l1.5,.5l1.5,.6l1.6,.5l1.6,.6l1.6,.5l1.6,.5l1.6,.6l1.7,.5l1.6,.6l1.7,.5l1.7,.5l1.7,.6l1.7,.5l1.8,.6L98,124l1.8,.5l1.8,.6l1.8,.5l1.8,.6l1.9,.5l1.8,.5l1.9,.6l1.8,.5l1.9,.6l1.9,.5l2,.5l1.9,.6l1.9,.5l2,.6l2,.5l2,.5l2,.6l2,.5l2,.6l2.1,.5l2,.5l2.1,.6l2.1,.5l2.1,.5l2.1,.6l2.1,.5l2.2,.6l2.1,.5l2.2,.5l2.2,.6l2.2,.5l2.2,.5l2.2,.6l2.2,.5l2.2,.5l2.3,.6l2.2,.5l2.3,.5l2.3,.6l2.3,.5l2.3,.5l2.3,.6l2.4,.5l2.3,.5l2.3,.5l2.4,.6l2.4,.5l2.4,.5l2.4,.5l2.4,.6l2.4,.5l2.4,.5l2.4,.5l2.5,.6l2.4,.5l2.5,.5l2.5,.5l2.4,.5l2.5,.6l2.5,.5l2.5,.5l2.6,.5l2.5,.5l2.5,.5l2.6,.5l2.5,.5l2.6,.6l2.5,.5l2.6,.5l2.6,.5l2.6,.5l2.6,.5l2.6,.5l2.6,.5l2.6,.5l2.7,.5l2.6,.5l2.6,.5l2.7,.5l2.6,.5l2.7,.5l2.7,.5l2.6,.5l2.7,.5l2.7,.5l2.7,.4l2.7,.5l2.7,.5l2.7,.5l2.7,.5l2.7,.5l2.7,.4l2.8,.5l2.7,.5l2.7,.5l2.8,.5l2.7,.4l2.7,.5l2.8,.5l2.8,.4l2.7,.5l2.8,.5l2.7,.4l2.8,.5l2.8,.5l2.8,.4l2.7,.5l2.8,.4l2.8,.5l2.8,.5l2.8,.4l2.8,.5l2.7,.4l2.8,.5l2.8,.4l2.8,.4l2.8,.5l2.8,.4l2.8,.5l2.8,.4l2.8,.4l2.8,.5l2.8,.4l2.8,.4l2.8,.5l2.8,.4l2.8,.4l2.9,.4l2.8,.5l2.8,.4l2.8,.4l2.8,.4l2.8,.4l2.8,.4l2.8,.4l2.8,.5l2.8,.4l2.7,.4l2.8,.4l2.8,.4l2.8,.4l2.8,.4l2.8,.4l2.8,.3l2.8,.4l2.7,.4l2.8,.4l2.8,.4l2.7,.4l2.8,.3l2.8,.4l2.7,.4l2.8,.4l2.7,.3l2.8,.4l2.7,.4l2.8,.3l2.7,.4l2.7,.4l2.8,.3l2.7,.4l2.7,.3l2.7,.4l2.7,.3l2.7,.4l2.7,.3l2.7,.4l2.7,.3l2.7,.3l2.6,.4l2.7,.3l2.7,.3l2.6,.4l2.7,.3l2.6,.3l2.6,.3l2.7,.4l2.6,.3l2.6,.3l2.6,.3l2.6,.3l2.6,.3l2.6,.3l2.6,.3l2.5,.3l2.6,.3l2.5,.3l2.6,.3l2.5,.3l2.5,.3l2.6,.3l2.5,.2l2.5,.3l2.4,.3l2.5,.3l2.5,.2l2.5,.3l2.4,.3l2.5,.2l2.4,.3l2.4,.3l2.4,.2l2.4,.3l2.4,.2l2.4,.3l2.4,.2l2.3,.3l2.4,.2l2.3,.2l2.4,.3l2.3,.2l2.3,.2l2.3,.3l2.3,.2l2.2,.2l2.3,.2l2.2,.2l2.3,.2l2.2,.3l2.2,.2l2.2,.2l2.2,.2l2.2,.2l2.2,.2l2.1,.2l2.1,.2l2.2,.1l2.1,.2l2.1,.2l2.1,.2l2,.2l2.1,.1l2,.2l2.1,.2l2,.1l2,.2l2,.2l2,.1l1.9,.2l2,.1l1.9,.2l1.9,.1l1.9,.2l1.9,.1l1.9,.1l1.8,.2l1.9,.1l1.8,.1l1.8,.2l1.8,.1l1.8,.1l1.8,.1l1.7,.1l1.8,.2l1.7,.1l1.7,.1l1.7,.1l1.7,.1l1.6,.1l1.7,.1l1.6,.1h1.6l1.6,.1l1.6,.1l1.5,.1l1.6,.1h1.5l1.5,.1l1.5,.1h1.5l1.5,.1l1.4,.1h1.4l1.4,.1H751l1.4,.1h2.7l1.3,.1h1.3l1.3,.1h5l1.2,.1h12l.9,-.1H781l.9,-.1h1.7l.9,-.1h.8l.8,-.1h.8l.8,-.1h.7l.7,-.1h.8l.6,-.1l.7,-.1h.7l.6,-.1l.6,-.1l.6,-.1h.6l.6,-.1l.5,-.1l.5,-.1l.5,-.1l.5,-.1l.5,-.1l.4,-.1l.4,-.1l.4,-.1l.4,-.1l.4,-.1l.3,-.1l.3,-.2l.3,-.1l.3,-.1l.3,-.1l.2,-.2l.2,-.1l.2,-.1l.2,-.2l.2,-.1l.1,-.2l.2,-.1l.1,-.2v-.1l.1,-.2v-.1l.1,-.2v-.3l-.1,-.2v-.2l-.1,-.1l-.1,-.2l-.1,-.2l-.2,-.2l-.1,-.2l-.2,-.2l-.2,-.1l-.2,-.2l-.2,-.2l-.3,-.2l-.3,-.2l-.3,-.3l-.3,-.2l-.3,-.2l-.4,-.2l-.3,-.2l-.4,-.2l-.4,-.3l-.5,-.2l-.4,-.2l-.5,-.2l-.5,-.3l-.5,-.2l-.5,-.2l-.6,-.3l-.6,-.2l-.6,-.3l-.6,-.2l-.6,-.3l-.6,-.2l-.7,-.3l-.7,-.3l-.7,-.2l-.7,-.3l-.8,-.3l-.7,-.2l-.8,-.3l-.8,-.3l-.9,-.3l-.8,-.2l-.9,-.3l-.8,-.3l-.9,-.3l-1,-.3l-.9,-.3l-.9,-.3l-1,-.3l-1,-.3l-1,-.3l-1.1,-.3l-1,-.3l-1.1,-.3l-1.1,-.3l-1.1,-.3l-1.1,-.4l-1.1,-.3l-1.2,-.3l-1.2,-.3l-1.2,-.3l-1.2,-.4l-1.2,-.3l-1.2,-.3l-1.3,-.4l-1.3,-.3l-1.3,-.4l-1.3,-.3l-1.4,-.4l-1.3,-.3l-1.4,-.4l-1.4,-.3l-1.4,-.4l-1.4,-.3l-1.5,-.4l-1.4,-.3l-1.5,-.4l-1.5,-.4l-1.5,-.3l-1.5,-.4l-1.6,-.4l-1.5,-.4l-1.6,-.3l-1.6,-.4l-1.6,-.4l-1.7,-.4l-1.6,-.4l-1.7,-.4l-1.6,-.4l-1.7,-.4l-1.7,-.3l-1.8,-.4l-1.7,-.4l-1.8,-.4l-1.7,-.4l-1.8,-.5l-1.8,-.4l-1.8,-.4l-1.9,-.4l-1.8,-.4l-1.9,-.4l-1.9,-.4l-1.9,-.4l-1.9,-.5l-1.9,-.4l-1.9,-.4l-2,-.4L689,187l-2,-.4l-2,-.4l-2,-.5l-2.1,-.4l-2,-.4l-2,-.5l-2.1,-.4l-2.1,-.4l-2.1,-.5l-2.1,-.4l-2.1,-.5l-2.1,-.4l-2.2,-.5l-2.1,-.4l-2.2,-.5l-2.2,-.4l-2.2,-.5l-2.2,-.5l-2.2,-.4l-2.3,-.5l-2.2,-.5l-2.3,-.4l-2.2,-.5l-2.3,-.5l-2.3,-.4l-2.3,-.5l-2.3,-.5l-2.4,-.4l-2.3,-.5l-2.4,-.5l-2.3,-.5l-2.4,-.5l-2.4,-.4l-2.4,-.5l-2.4,-.5l-2.4,-.5L607,170l-2.5,-.5l-2.4,-.5l-2.5,-.4l-2.4,-.5l-2.5,-.5l-2.5,-.5l-2.5,-.5l-2.5,-.5l-2.5,-.5l-2.6,-.5l-2.5,-.5l-2.5,-.5l-2.6,-.5l-2.5,-.5l-2.6,-.5l-2.6,-.5l-2.6,-.5l-2.6,-.6l-2.6,-.5l-2.6,-.5l-2.6,-.5l-2.6,-.5l-2.7,-.5l-2.6,-.5l-2.6,-.5l-2.7,-.6l-2.7,-.5l-2.6,-.5l-2.7,-.5l-2.7,-.5l-2.7,-.6l-2.7,-.5l-2.7,-.5l-2.7,-.5l-2.7,-.6l-2.7,-.5l-2.7,-.5l-2.7,-.5l-2.8,-.6l-2.7,-.5l-2.8,-.5l-2.7,-.5l-2.8,-.6l-2.7,-.5L489,147l-2.8,-.6l-2.7,-.5l-2.8,-.5l-2.8,-.6l-2.8,-.5l-2.8,-.5l-2.8,-.6l-2.8,-.5l-2.7,-.6l-2.9,-.5l-2.8,-.5l-2.8,-.6l-2.8,-.5l-2.8,-.5l-2.8,-.6l-2.8,-.5l-2.8,-.6l-2.9,-.5l-2.8,-.6l-2.8,-.5l-2.8,-.5l-2.9,-.6l-2.8,-.5l-2.8,-.6l-2.9,-.5L416,133l-2.8,-.6l-2.9,-.5l-2.8,-.6l-2.8,-.5l-2.9,-.6l-2.8,-.5l-2.8,-.6l-2.9,-.5l-2.8,-.5l-2.8,-.6l-2.9,-.5l-2.8,-.6l-2.8,-.5l-2.9,-.6l-2.8,-.5l-2.8,-.6l-2.8,-.5l-2.9,-.6l-2.8,-.5l-2.8,-.5l-2.8,-.6l-2.9,-.5l-2.8,-.6l-2.8,-.5l-2.8,-.6l-2.8,-.5l-2.8,-.6l-2.8,-.5l-2.8,-.5l-2.8,-.6l-2.8,-.5l-2.8,-.6L323,115l-2.8,-.6l-2.8,-.5l-2.8,-.5l-2.7,-.6l-2.8,-.5l-2.8,-.6l-2.7,-.5l-2.8,-.5l-2.7,-.6l-2.7,-.5l-2.8,-.5l-2.7,-.6l-2.7,-.5l-2.7,-.6l-2.7,-.5l-2.8,-.5l-2.6,-.6l-2.7,-.5l-2.7,-.5l-2.7,-.6l-2.7,-.5l-2.6,-.5l-2.7,-.6l-2.7,-.5l-2.6,-.5l-2.6,-.5l-2.7,-.6l-2.6,-.5l-2.6,-.5l-2.6,-.6l-2.6,-.5l-2.6,-.5l-2.6,-.5l-2.6,-.5L229,96.3l-2.6,-.5l-2.5,-.5l-2.6,-.5l-2.5,-.5l-2.5,-.6l-2.5,-.5l-2.5,-.5l-2.5,-.5l-2.5,-.5l-2.5,-.5l-2.4,-.5l-2.5,-.5l-2.4,-.6L194,89.1l-2.4,-.5l-2.4,-.5l-2.4,-.5l-2.4,-.5L182,86.6l-2.3,-.5l-2.4,-.5l-2.4,-.5l-2.3,-.5l-2.3,-.5L168,83.6l-2.3,-.5l-2.3,-.5l-2.3,-.5l-2.3,-.4l-2.2,-.5l-2.3,-.5l-2.2,-.5l-2.2,-.5l-2.2,-.5l-2.2,-.4l-2.2,-.5l-2.1,-.5L139,77.3l-2.1,-.5l-2.2,-.4l-2.1,-.5l-2.1,-.5l-2,-.5l-2.1,-.4L124.3,74l-2,-.5l-2.1,-.4l-2,-.5l-2,-.4l-2,-.5l-1.9,-.5l-2,-.4l-1.9,-.5l-2,-.4l-1.9,-.5L102.6,69l-1.9,-.5l-1.8,-.4L97,67.6l-1.8,-.4l-1.9,-.4l-1.8,-.5l-1.8,-.4L88,65.5L86.2,65l-1.7,-.4l-1.8,-.4L81,63.7l-1.7,-.4l-1.7,-.4L76,62.5L74.3,62l-1.6,-.4l-1.6,-.4l-1.6,-.4l-1.6,-.4L66.3,60l-1.5,-.4l-1.6,-.4l-1.5,-.5l-1.5,-.4l-1.5,-.4l-1.4,-.4l-1.5,-.3l-1.4,-.4L53,56.4L51.6,56l-1.4,-.4l-1.3,-.4l-1.4,-.4l-1.3,-.4l-1.3,-.3l-1.3,-.4l-1.3,-.4l-1.2,-.4l-1.3,-.3l-1.2,-.4l-1.2,-.4l-1.2,-.3l-1.1,-.4l-1.2,-.4l-1.1,-.3L31.7,50l-1.1,-.3l-1.1,-.4l-1,-.3l-1,-.4l-1.1,-.3l-1,-.4l-.9,-.3l-1,-.3l-.9,-.4l-.9,-.3l-.9,-.3l-.9,-.4L19,45.6l-.8,-.3L17.3,45l-.8,-.3l-.7,-.4L15,44l-.8,-.3l-.7,-.3l-.7,-.3l-.7,-.3l-.6,-.3l-.7,-.3l-.6,-.3l-.6,-.3L9,41.3L8.4,41l-.5,-.3l-.6,-.2l-.5,-.3l-.5,-.3l-.4,-.3l-.5,-.2L5,39.1l-.4,-.3l-.4,-.2l-.4,-.3L3.4,38l-.3,-.2l-.3,-.3l-.3,-.2L2.2,37L2,36.8l-.2,-.3l-.2,-.2l-.2,-.2l-.2,-.3L1,35.6L.9,35.4L.8,35.1L.7,34.9L.6,34.7v-.5L.5,34l.1,-.2v-.4l.1,-.2L.8,33l.1,-.2L1,32.6l.2,-.2l.2,-.2L1.6,32l.2,-.1L2,31.7l.3,-.2l.2,-.2l.3,-.1L3.1,31l.4,-.2l.3,-.1l.4,-.2l.4,-.2L5,30.2L5.4,30l.5,-.1l.5,-.2l.4,-.1l.6,-.1l.5,-.2l.5,-.1L9,29.1l.6,-.2l.6,-.1l.6,-.1l.7,-.1l.7,-.2l.7,-.1l.7,-.1l.7,-.1L15,28l.8,-.1l.8,-.1l.8,-.1l.8,-.1l.9,-.1l.8,-.1h.9l.9,-.1l.9,-.1l1,-.1l.9,-.1h1l1,-.1l1,-.1h1.1l1,-.1h1.1l1.1,-.1h1.1L34,26.5h1.2l1.2,-.1h2.3L40,26.3h3.7L45,26.2H60.4l1.5,.1h6.2l1.6,.1h1.6l1.7,.1h3.3l1.6,.1h1.7l1.7,.1h1.8l1.7,.1l1.7,.1h1.8l1.8,.1l1.8,.1h1.8l1.9,.1l1.8,.1l1.9,.1l1.9,.1l1.9,.1H105l1.9,.1l1.9,.1l2,.1l2,.1l1.9,.2l2,.1l2.1,.1l2,.1l2,.1l2.1,.1l2,.2L129,29l2.1,.1l2.1,.1l2.2,.2l2.1,.1l2.2,.2l2.1,.1l2.2,.1l2.2,.2l2.2,.2l2.2,.1l2.2,.2l2.3,.1l2.2,.2l2.3,.2l2.3,.1l2.3,.2l2.3,.2l2.3,.2l2.3,.1l2.4,.2l2.3,.2l2.4,.2l2.4,.2l2.4,.2l2.4,.2l2.4,.2l2.4,.2l2.4,.2l2.5,.2l2.4,.2l2.5,.2l2.4,.3l2.5,.2l2.5,.2l2.5,.2l2.5,.3l2.6,.2l2.5,.2l2.5,.3l2.6,.2l2.5,.2l2.6,.3l2.6,.2l2.6,.3l2.6,.2l2.6,.3l2.6,.3l2.6,.2l2.6,.3l2.7,.2l2.6,.3l2.7,.3l2.6,.3l2.7,.2l2.7,.3l2.6,.3l2.7,.3l2.7,.3l2.7,.3l2.7,.2l2.8,.3l2.7,.3l2.7,.3l2.7,.3l2.8,.3l2.7,.4l2.8,.3l2.7,.3l2.8,.3l2.8,.3l2.7,.3l2.8,.4l2.8,.3l2.8,.3l2.8,.3l2.8,.4l2.8,.3l2.8,.3l2.8,.4l2.8,.3l2.8,.4l2.9,.3l2.8,.4l2.8,.3l2.8,.4l2.9,.3l2.8,.4l2.9,.3l2.8,.4l2.8,.4l2.9,.3l2.8,.4l2.9,.4l2.9,.3l2.8,.4l2.9,.4l2.8,.4l2.9,.4l2.9,.3l2.8,.4l2.9,.4l2.8,.4l2.9,.4l2.9,.4l2.8,.4l2.9,.4l2.9,.4l2.8,.4l2.9,.4l2.9,.4l2.8,.4l2.9,.4l2.9,.4l2.8,.5l2.9,.4l2.9,.4l2.8,.4l2.9,.4l2.8,.5l2.9,.4l2.8,.4l2.9,.4l2.8,.5l2.9,.4l2.8,.4l2.9,.5l2.8,.4l2.8,.5l2.9,.4l2.8,.5l2.8,.4l2.9,.4l2.8,.5l2.8,.4l2.8,.5l2.8,.5l2.8,.4l2.8,.5l2.8,.4l2.8,.5l2.8,.5l2.8,.4l2.7,.5l2.8,.5l2.8,.4l2.7,.5l2.8,.5l2.7,.5l2.8,.4l2.7,.5l2.7,.5l2.8,.5l2.7,.4l2.7,.5l2.7,.5l2.7,.5l2.7,.5l2.7,.5l2.6,.5l2.7,.5l2.7,.5l2.6,.4" class="g2_1" />
<path d="M785.1,5.4v.1h-.4l-.1,.1h-.1l-.2,.1h-.2l-.2,.1h-.2l-.3,.1h-.3l-.2,.1l-.3,.1l-.4,.1l-.3,.1l-.4,.1l-.4,.1l-.4,.1l-.4,.1l-.4,.1l-.5,.1L779,7l-.5,.1l-.5,.2l-.6,.1l-.5,.1l-.6,.2l-.6,.1l-.6,.2l-.6,.1l-.7,.2l-.6,.2l-.7,.1l-.7,.2l-.7,.2l-.7,.2l-.8,.2l-.8,.2l-.8,.2l-.8,.2l-.8,.2l-.8,.2l-.9,.2l-.9,.2l-.9,.3l-.9,.2l-.9,.2l-1,.3l-1,.2l-.9,.3l-1.1,.2l-1,.3l-1,.3l-1.1,.2l-1.1,.3l-1,.3l-1.2,.3l-1.1,.3l-1.1,.3l-1.2,.2l-1.2,.3l-1.2,.4l-1.2,.3l-1.2,.3l-1.3,.3l-1.2,.3l-1.3,.3l-1.3,.4l-1.3,.3l-1.4,.4l-1.3,.3l-1.4,.3l-1.4,.4l-1.4,.4l-1.4,.3l-1.4,.4l-1.5,.4l-1.4,.3l-1.5,.4l-1.5,.4l-1.5,.4l-1.6,.4l-1.5,.4l-1.6,.4l-1.5,.4l-1.6,.4l-1.6,.4l-1.7,.4l-1.6,.4l-1.6,.5l-1.7,.4l-1.7,.4l-1.7,.5l-1.7,.4l-1.7,.4l-1.8,.5l-1.7,.4l-1.8,.5l-1.8,.5l-1.8,.4l-1.8,.5l-1.8,.5l-1.9,.4l-1.8,.5l-1.9,.5l-1.9,.5l-1.9,.5l-1.9,.5l-1.9,.5l-2,.5l-1.9,.5l-2,.5l-1.9,.5l-2,.5l-2,.5l-2.1,.5l-2,.6l-2,.5l-2.1,.5l-2.1,.6l-2,.5l-2.1,.6l-2.1,.5l-2.1,.6l-2.2,.5l-2.1,.6l-2.2,.5l-2.1,.6l-2.2,.6l-2.2,.5l-2.2,.6l-2.2,.6l-2.2,.6l-2.2,.5l-2.3,.6l-2.2,.6l-2.3,.6l-2.3,.6l-2.3,.6l-2.2,.6l-2.4,.6l-2.3,.6l-2.3,.6l-2.3,.6L593,55l-2.3,.6l-2.4,.6l-2.4,.6l-2.3,.7l-2.4,.6l-2.4,.6l-2.4,.7L574,60l-2.5,.6l-2.4,.7l-2.4,.6l-2.5,.7l-2.5,.6l-2.4,.7l-2.5,.6l-2.5,.7l-2.5,.7l-2.5,.6l-2.5,.7l-2.5,.7l-2.5,.6l-2.5,.7l-2.6,.7l-2.5,.7l-2.6,.6l-2.5,.7l-2.6,.7l-2.5,.7l-2.6,.7l-2.6,.7l-2.6,.7l-2.6,.7l-2.5,.7l-2.7,.7l-2.6,.7l-2.6,.7l-2.6,.7l-2.6,.7l-2.6,.7l-2.7,.7l-2.6,.7l-2.6,.7l-2.7,.7l-2.6,.8l-2.7,.7l-2.6,.7l-2.7,.7l-2.7,.8l-2.6,.7l-2.7,.7l-2.7,.7l-2.7,.8l-2.6,.7l-2.7,.7l-2.7,.8l-2.7,.7l-2.7,.7l-2.7,.8l-2.7,.7l-2.7,.8l-2.7,.7l-2.7,.8l-2.7,.7l-2.7,.7l-2.7,.8l-2.7,.7l-2.7,.8l-2.7,.7L415,103l-2.7,.7l-2.7,.8l-2.7,.8l-2.8,.7l-2.7,.8l-2.7,.7l-2.7,.8l-2.7,.7l-2.7,.8l-2.7,.8l-2.7,.7l-2.8,.8l-2.7,.7l-2.7,.8l-2.7,.8l-2.7,.7l-2.7,.8l-2.7,.8l-2.7,.7l-2.7,.8l-2.7,.7l-2.7,.8l-2.7,.8l-2.7,.7l-2.6,.8l-2.7,.8l-2.7,.7l-2.7,.8l-2.7,.8l-2.6,.7l-2.7,.8l-2.7,.8l-2.6,.7l-2.7,.8l-2.6,.8l-2.7,.7l-2.6,.8l-2.7,.8l-2.6,.7l-2.6,.8l-2.7,.8l-2.6,.7l-2.6,.8l-2.6,.8l-2.6,.7l-2.6,.8l-2.6,.8l-2.6,.7l-2.6,.8l-2.6,.8l-2.6,.7l-2.5,.8l-2.6,.7l-2.5,.8l-2.6,.8l-2.5,.7l-2.6,.8l-2.5,.7l-2.5,.8l-2.5,.7l-2.5,.8l-2.5,.7l-2.5,.8l-2.5,.8l-2.5,.7l-2.5,.8l-2.4,.7l-2.5,.7l-2.4,.8l-2.4,.7l-2.5,.8l-2.4,.7l-2.4,.8l-2.4,.7l-2.4,.7l-2.4,.8l-2.4,.7l-2.3,.8l-2.4,.7l-2.3,.7l-2.4,.7l-2.3,.8l-2.3,.7l-2.3,.7l-2.3,.8l-2.3,.7l-2.3,.7l-2.2,.7l-2.3,.7l-2.2,.7l-2.3,.8l-2.2,.7l-2.2,.7l-2.2,.7l-2.2,.7l-2.1,.7l-2.2,.7l-2.2,.7l-2.1,.7l-2.1,.7l-2.2,.7l-2.1,.7l-2.1,.7l-2,.7l-2.1,.7l-2.1,.6l-2,.7l-2,.7l-2.1,.7l-2,.7l-1.9,.6l-2,.7l-2,.7l-1.9,.6l-2,.7l-1.9,.7l-1.9,.6l-1.9,.7l-1.9,.6l-1.9,.7l-1.8,.6l-1.9,.7l-1.8,.6l-1.8,.7l-1.8,.6l-1.8,.6l-1.8,.7l-1.7,.6l-1.8,.6l-1.7,.6l-1.7,.7l-1.7,.6l-1.7,.6l-1.7,.6l-1.6,.6l-1.7,.6l-1.6,.6l-1.6,.6l-1.6,.6l-1.6,.6l-1.5,.6l-1.6,.6l-1.5,.6l-1.5,.6l-1.5,.5l-1.5,.6l-1.4,.6l-1.5,.6l-1.4,.5l-1.4,.6l-1.4,.6l-1.4,.5l-1.4,.6l-1.3,.5l-1.4,.6l-1.3,.5l-1.3,.5l-1.2,.6l-1.3,.5l-1.3,.5l-1.2,.6l-1.2,.5l-1.2,.5l-1.2,.5l-1.1,.5l-1.2,.5l-1.1,.5l-1.1,.5l-1.1,.5l-1.1,.5l-1,.5l-1.1,.5l-1,.5l-1,.4l-1,.5l-.9,.5l-1,.5l-.9,.4l-.9,.5l-.9,.4l-.9,.5l-.9,.4l-.8,.5l-.8,.4l-.8,.4l-.8,.5l-.8,.4l-.7,.4l-.7,.4l-.8,.4l-.7,.5l-.6,.4l-.7,.4l-.6,.4l-.6,.4l-.6,.3l-.6,.4l-.6,.4l-.5,.4l-.5,.4l-.5,.3l-.5,.4l-.5,.3l-.4,.4l-.5,.3l-.4,.4l-.4,.3l-.3,.4l-.4,.3l-.3,.3l-.3,.4l-.3,.3l-.3,.3l-.3,.3l-.2,.3l-.2,.3l-.2,.3l-.2,.3l-.1,.3l-.2,.3l-.1,.3l-.1,.2l-.1,.3l-.1,.3v1.2l.1,.3v.2l.1,.2l.1,.3l.2,.2l.1,.2l.2,.2l.2,.2l.2,.2l.2,.2l.2,.2l.3,.2l.3,.2l.3,.1l.3,.2l.4,.2l.3,.1l.4,.2l.4,.2l.4,.1l.5,.1l.4,.2l.5,.1l.5,.2l.5,.1l.5,.1l.6,.1l.5,.1l.6,.1l.6,.1l.7,.1l.6,.1l.7,.1l.6,.1l.7,.1h.8l.7,.1l.8,.1h.7l.8,.1h.8l.9,.1h1.7l.9,.1h9.8l1.1,-.1h2.2l1.2,-.1h1.1l1.2,-.1h1.2l1.2,-.1h1.2l1.2,-.1l1.3,-.1l1.3,-.1h1.3l1.3,-.1l1.3,-.1l1.4,-.1l1.3,-.1l1.4,-.1l1.4,-.1l1.4,-.2l1.4,-.1l1.5,-.1l1.4,-.1L80,246l1.5,-.1l1.5,-.2l1.5,-.1l1.6,-.2l1.5,-.1l1.6,-.2l1.6,-.2l1.6,-.2l1.6,-.1l1.6,-.2l1.7,-.2L99,244l1.6,-.2l1.7,-.2l1.8,-.2l1.7,-.2l1.7,-.2l1.8,-.3l1.7,-.2l1.8,-.2l1.8,-.3l1.9,-.2l1.8,-.3l1.8,-.2L122,241l1.9,-.2l1.8,-.3l1.9,-.3l2,-.2l1.9,-.3l1.9,-.3l2,-.3l2,-.3l1.9,-.3l2,-.3l2,-.3l2.1,-.3l2,-.3l2.1,-.3l2,-.3l2.1,-.4l2.1,-.3l2.1,-.3l2.1,-.4L162,235l2.1,-.4l2.2,-.3l2.2,-.4l2.1,-.3l2.2,-.4l2.2,-.4l2.2,-.3l2.2,-.4l2.3,-.4l2.2,-.4l2.3,-.4l2.2,-.4l2.3,-.4l2.3,-.4l2.3,-.4l2.3,-.4l2.3,-.4l2.3,-.5l2.4,-.4l2.3,-.4l2.4,-.4l2.3,-.5l2.4,-.4l2.4,-.5l2.4,-.4l2.4,-.5l2.4,-.4l2.4,-.5l2.5,-.5l2.4,-.4l2.4,-.5l2.5,-.5l2.5,-.5l2.4,-.4l2.5,-.5l2.5,-.5l2.5,-.5l2.5,-.5l2.5,-.5l2.6,-.5l2.5,-.5l2.5,-.6l2.6,-.5l2.5,-.5l2.6,-.5l2.6,-.6l2.5,-.5l2.6,-.5l2.6,-.6l2.6,-.5l2.6,-.6l2.6,-.5l2.6,-.6l2.6,-.5l2.6,-.6l2.7,-.5l2.6,-.6l2.6,-.6l2.7,-.6l2.6,-.5l2.7,-.6l2.7,-.6l2.6,-.6l2.7,-.6l2.7,-.6l2.6,-.6l2.7,-.6l2.7,-.6l2.7,-.6l2.7,-.6l2.7,-.6l2.7,-.6l2.7,-.6l2.7,-.6l2.7,-.7l2.7,-.6l2.7,-.6L356,196l2.8,-.7l2.7,-.6l2.7,-.7l2.7,-.6l2.8,-.6l2.7,-.7l2.7,-.6l2.8,-.7l2.7,-.7l2.7,-.6l2.8,-.7l2.7,-.6l2.8,-.7l2.7,-.7l2.7,-.7l2.8,-.6l2.7,-.7l2.8,-.7l2.7,-.7l2.7,-.6l2.8,-.7l2.7,-.7l2.8,-.7l2.7,-.7l2.8,-.7l2.7,-.7l2.7,-.7l2.8,-.7l2.7,-.7l2.7,-.7l2.8,-.7l2.7,-.7l2.7,-.7l2.8,-.7l2.7,-.8l2.7,-.7l2.7,-.7l2.7,-.7l2.8,-.7l2.7,-.8l2.7,-.7l2.7,-.7l2.7,-.7l2.7,-.8l2.7,-.7l2.7,-.7l2.7,-.8l2.6,-.7l2.7,-.7l2.7,-.8l2.7,-.7l2.6,-.8l2.7,-.7l2.7,-.8l2.6,-.7l2.7,-.8l2.6,-.7l2.6,-.8l2.7,-.7l2.6,-.8l2.6,-.7l2.6,-.8l2.7,-.7l2.6,-.8l2.6,-.7l2.5,-.8l2.6,-.8l2.6,-.7l2.6,-.8l2.5,-.7l2.6,-.8l2.6,-.8l2.5,-.7l2.5,-.8l2.6,-.8l2.5,-.7l2.5,-.8l2.5,-.8l2.5,-.8l2.5,-.7l2.5,-.8L575,137l2.4,-.7l2.5,-.8l2.4,-.8l2.5,-.7l2.4,-.8l2.4,-.8l2.4,-.8l2.4,-.7l2.4,-.8l2.4,-.8l2.4,-.8l2.3,-.7l2.4,-.8l2.3,-.8l2.4,-.8l2.3,-.7l2.3,-.8l2.3,-.8l2.3,-.8l2.3,-.7l2.3,-.8L627,120l2.3,-.8l2.2,-.7l2.2,-.8l2.3,-.8l2.2,-.8l2.2,-.7l2.1,-.8l2.2,-.8l2.2,-.7l2.1,-.8l2.1,-.8l2.2,-.8l2.1,-.7l2.1,-.8l2.1,-.8l2,-.7l2.1,-.8l2,-.8l2.1,-.7l2,-.8l2,-.7l2,-.8l1.9,-.8l2,-.7l2,-.8l1.9,-.7l1.9,-.8l1.9,-.8l1.9,-.7l1.9,-.8l1.9,-.7l1.8,-.8l1.9,-.7l1.8,-.8l1.8,-.7l1.8,-.8l1.8,-.7l1.8,-.8l1.7,-.7l1.7,-.7l1.8,-.8l1.7,-.7l1.7,-.8l1.6,-.7l1.7,-.7l1.6,-.8l1.7,-.7l1.6,-.7l1.6,-.8l1.6,-.7l1.5,-.7l1.6,-.7l1.5,-.7l1.5,-.8l1.5,-.7l1.5,-.7l1.5,-.7l1.4,-.7l1.5,-.7l1.4,-.7l1.4,-.7l1.4,-.8l1.3,-.7l1.4,-.7l1.3,-.6l1.3,-.7l1.3,-.7l1.3,-.7l1.3,-.7l1.2,-.7l1.3,-.7l1.2,-.7l1.2,-.6l1.2,-.7l1.1,-.7l1.2,-.7l1.1,-.6l1.1,-.7l1.1,-.7l1.1,-.6l1,-.7l1.1,-.6l1,-.7l1,-.7l1,-.6l.9,-.6l1,-.7l.9,-.6l.9,-.7l.9,-.6l.9,-.6l.8,-.7l.9,-.6l.8,-.6l.8,-.6l.8,-.7l.7,-.6l.8,-.6l.7,-.6l.7,-.6l.7,-.6l.6,-.6l.7,-.6l.6,-.6l.6,-.6l.6,-.6l.6,-.5L786,44l.6,-.6l.5,-.6l.5,-.5l.5,-.6l.4,-.6l.5,-.5l.4,-.6l.4,-.6l.4,-.5l.3,-.5l.4,-.6l.3,-.5l.3,-.6l.3,-.5l.2,-.5l.3,-.6l.2,-.5l.2,-.5l.2,-.5l.2,-.5l.1,-.5l.2,-.5l.1,-.5l.1,-.5v-.5l.1,-.5V28.2l-.1,-.5v-.5l-.1,-.4l-.1,-.5l-.2,-.4l-.1,-.5l-.2,-.4l-.1,-.5l-.2,-.4l-.3,-.4l-.2,-.5l-.3,-.4l-.3,-.4l-.3,-.4l-.3,-.4l-.3,-.4l-.4,-.5l-.3,-.4l-.4,-.3l-.5,-.4l-.4,-.4l-.4,-.4l-.5,-.4l-.5,-.4l-.5,-.3l-.6,-.4l-.5,-.4l-.6,-.3l-.6,-.4l-.6,-.3l-.6,-.4l-.6,-.3l-.7,-.3l-.7,-.4l-.7,-.3l-.7,-.3l-.8,-.3l-.7,-.3l-.8,-.4l-.8,-.3l-.8,-.3l-.8,-.3l-.9,-.2l-.9,-.3l-.9,-.3l-.9,-.3l-.9,-.3l-.9,-.2l-1,-.3l-1,-.2l-1,-.3l-1,-.2l-1,-.3l-1.1,-.2l-1.1,-.3l-1.1,-.2l-1.1,-.2L759.2,8l-1.1,-.3l-1.2,-.2l-1.2,-.2l-1.2,-.2l-1.2,-.2l-1.2,-.2l-1.3,-.2l-1.2,-.1l-1.3,-.2L747,6l-1.3,-.2l-1.4,-.1L743,5.5l-1.4,-.1l-1.4,-.2l-1.4,-.1l-1.4,-.2l-1.5,-.1l-1.4,-.1L733,4.5l-1.5,-.1L730,4.3l-1.5,-.1L727,4.1L725.4,4l-1.6,-.1l-1.5,-.1l-1.6,-.1L719,3.6h-1.6l-1.6,-.1l-1.7,-.1h-1.7l-1.7,-.1H709l-1.7,-.1h-1.8l-1.7,-.1h-5.4L696.6,3H685.4l-1.9,.1h-5.9l-1.9,.1h-2l-2,.1h-2l-2.1,.1h-2l-2.1,.1l-2,.1h-2.1l-2.1,.1l-2.1,.1l-2.1,.1L650.9,4l-2.1,.1l-2.2,.1l-2.1,.1l-2.2,.1l-2.2,.2l-2.2,.1l-2.2,.1l-2.2,.1l-2.3,.2L629,5.2l-2.3,.2l-2.3,.1l-2.3,.2l-2.3,.2L617.5,6l-2.3,.2l-2.3,.2l-2.3,.2l-2.4,.1l-2.4,.2l-2.3,.2l-2.4,.2l-2.4,.2l-2.4,.3L593.9,8l-2.4,.2L589,8.4l-2.4,.3l-2.4,.2l-2.5,.2l-2.5,.3l-2.4,.2l-2.5,.3l-2.5,.2l-2.5,.3l-2.5,.3l-2.5,.2l-2.6,.3l-2.5,.3l-2.5,.3l-2.6,.3l-2.5,.3l-2.6,.3l-2.6,.3l-2.6,.3l-2.5,.3l-2.6,.3l-2.6,.3l-2.6,.4l-2.7,.3l-2.6,.3l-2.6,.4l-2.6,.3l-2.7,.4l-2.6,.3L515,17l-2.6,.4l-2.7,.3l-2.7,.4l-2.6,.4l-2.7,.3l-2.7,.4l-2.7,.4l-2.7,.4l-2.7,.4l-2.7,.4l-2.7,.4l-2.7,.4l-2.7,.4l-2.7,.5l-2.7,.4l-2.8,.4l-2.7,.4l-2.7,.5l-2.8,.4l-2.7,.5l-2.7,.4l-2.8,.5l-2.7,.4l-2.8,.5l-2.7,.4l-2.8,.5l-2.7,.5l-2.8,.4l-2.8,.5l-2.7,.5l-2.8,.5l-2.8,.5l-2.7,.5l-2.8,.5l-2.8,.5l-2.7,.5l-2.8,.5l-2.8,.5l-2.7,.5l-2.8,.5l-2.8,.6l-2.8,.5l-2.7,.5l-2.8,.6l-2.8,.5l-2.7,.6l-2.8,.5l-2.8,.5l-2.8,.6l-2.7,.6l-2.8,.5l-2.8,.6l-2.7,.5l-2.8,.6l-2.8,.6l-2.7,.6l-2.8,.5l-2.7,.6l-2.8,.6l-2.7,.6l-2.8,.6l-2.7,.6l-2.8,.6l-2.7,.6l-2.7,.6l-2.8,.6l-2.7,.6l-2.7,.6l-2.8,.7l-2.7,.6l-2.7,.6l-2.7,.6l-2.7,.7l-2.7,.6l-2.7,.6l-2.7,.7l-2.7,.6l-2.7,.7l-2.7,.6l-2.6,.7l-2.7,.6l-2.7,.7l-2.6,.6l-2.7,.7l-2.6,.7l-2.7,.6l-2.6,.7l-2.6,.7l-2.7,.6l-2.6,.7l-2.6,.7l-2.6,.7l-2.6,.7l-2.6,.6l-2.6,.7l-2.5,.7l-2.6,.7l-2.6,.7l-2.5,.7l-2.6,.7l-2.5,.7l-2.5,.7l-2.5,.7l-2.6,.7l-2.5,.7l-2.5,.8l-2.4,.7l-2.5,.7l-2.5,.7L219,79l-2.5,.7l-2.4,.8l-2.5,.7l-2.4,.7l-2.4,.8l-2.4,.7l-2.4,.7l-2.4,.8l-2.4,.7l-2.3,.7l-2.4,.8l-2.3,.7l-2.4,.8l-2.3,.7l-2.3,.7l-2.3,.8l-2.3,.7l-2.3,.8l-2.2,.7l-2.3,.8l-2.2,.8l-2.3,.7l-2.2,.8l-2.2,.7l-2.2,.8l-2.2,.7l-2.1,.8l-2.2,.8l-2.1,.7l-2.2,.8l-2.1,.8l-2.1,.7l-2.1,.8l-2.1,.8l-2.1,.7l-2,.8l-2.1,.8l-2,.8l-2,.7l-2,.8l-2,.8l-2,.8l-2,.7l-1.9,.8l-1.9,.8l-2,.8l-1.9,.7l-1.9,.8l-1.8,.8l-1.9,.8l-1.9,.8l-1.8,.7l-1.8,.8l-1.8,.8l-1.8,.8l-1.8,.8l-1.7,.7l-1.8,.8l-1.7,.8l-1.7,.8l-1.7,.8l-1.7,.8l-1.7,.7l-1.6,.8l-1.7,.8l-1.6,.8l-1.6,.8l-1.6,.7l-1.5,.8l-1.6,.8l-1.5,.8l-1.6,.8l-1.5,.8l-1.5,.7l-1.4,.8l-1.5,.8l-1.4,.8l-1.5,.8l-1.4,.7l-1.3,.8l-1.4,.8l-1.4,.8l-1.3,.7l-1.3,.8l-1.3,.8l-1.3,.8l-1.3,.7l-1.2,.8l-1.3,.8l-1.2,.8l-1.2,.7l-1.2,.8l-1.1,.8l-1.2,.7l-1.1,.8l-1.1,.8l-1.1,.7l-1.1,.8l-1,.8l-1.1,.7l-1,.8l-1,.7l-1,.8l-.9,.8l-1,.7l-.9,.8l-.9,.7l-.9,.8l-.8,.7l-.9,.8L27,164l-.8,.8l-.8,.7l-.8,.8l-.8,.7l-.7,.7l-.7,.8l-.7,.7l-.7,.7l-.7,.8l-.6,.7l-.6,.7l-.6,.8l-.6,.7l-.6,.7l-.5,.7l-.6,.8l-.5,.7l-.4,.7l-.5,.7l-.5,.7l-.4,.7l-.4,.7l-.4,.7l-.4,.7l-.3,.7l-.4,.7l-.3,.7l-.3,.7l-.2,.7l-.3,.7l-.2,.7l-.2,.7l-.2,.7l-.2,.6l-.2,.7l-.1,.7l-.1,.7l-.1,.6l-.1,.7v.7l-.1,.6v2l.1,.7v.6l.1,.7l.1,.6l.1,.6l.2,.7l.1,.6l.2,.6l.2,.7l.2,.6l.3,.6l.2,.6l.3,.7l.3,.6l.3,.6l.4,.6l.3,.6l.4,.6l.4,.6l.4,.6l.4,.6l.5,.6l.5,.6l.5,.5l.5,.6l.5,.6l.6,.6l.5,.5l.6,.6l.6,.6l.6,.5l.7,.6l.7,.5l.6,.6l.8,.5l.7,.6l.7,.5l.8,.5l.8,.6l.8,.5l.8,.5l.8,.5l.9,.5l.9,.6l.8,.5l1,.5l.9,.5l.9,.5l1,.5l1,.4l1,.5l1,.5l1.1,.5l1,.5l1.1,.4l1.1,.5l1.1,.4l1.2,.5l1.1,.5l1.2,.4l1.2,.5l1.2,.4l1.2,.4l1.2,.5l1.3,.4l1.3,.4l1.3,.4l1.3,.4l1.3,.5l1.3,.4l1.4,.4l1.4,.4l1.4,.4l1.4,.4l1.4,.3l1.5,.4l1.5,.4l1.4,.4l1.5,.3l1.6,.4l1.5,.4l1.5,.3l1.6,.4l1.6,.3l1.6,.4l1.6,.3l1.6,.3l1.7,.4l1.6,.3l1.7,.3l1.7,.3l1.7,.3l1.7,.3l1.8,.3l1.7,.3l1.8,.3l1.8,.3l1.8,.3l1.8,.3l1.9,.2l1.8,.3l1.9,.3l1.8,.2l1.9,.3l1.9,.2l2,.3l1.9,.2l1.9,.3l2,.2l2,.2l2,.2l2,.3l2,.2l2,.2l2.1,.2l2,.2l2.1,.2l2.1,.2l2.1,.1l2.1,.2l2.1,.2l2.2,.2l2.1,.1l2.2,.2l2.2,.1l2.2,.2l2.2,.1l2.2,.2l2.2,.1l2.2,.1l2.3,.2l2.2,.1l2.3,.1l2.3,.1l2.3,.1l2.3,.1l2.3,.1l2.4,.1l2.3,.1l2.3,.1h2.4l2.4,.1l2.4,.1h2.4l2.4,.1h2.4l2.4,.1h2.4l2.5,.1h7.4l2.4,.1h12.6l2.5,-.1h7.7l2.5,-.1h5.2l2.6,-.1h2.6l2.6,-.1l2.6,-.1h2.6l2.7,-.1l2.6,-.1l2.6,-.1l2.7,-.1l2.6,-.1h2.7l2.7,-.2l2.6,-.1l2.7,-.1l2.7,-.1l2.7,-.1l2.7,-.1l2.7,-.2l2.7,-.1l2.7,-.2l2.7,-.1L312,248l2.8,-.1l2.7,-.2l2.7,-.1l2.8,-.2l2.7,-.2l2.7,-.2l2.8,-.2l2.8,-.1l2.7,-.2l2.8,-.2l2.7,-.3l2.8,-.2l2.8,-.2l2.8,-.2l2.7,-.2l2.8,-.3l2.8,-.2l2.8,-.2l2.8,-.3l2.8,-.2l2.7,-.3l2.8,-.2l2.8,-.3l2.8,-.3l2.8,-.2l2.8,-.3l2.8,-.3l2.8,-.3l2.8,-.3l2.8,-.3l2.8,-.3l2.8,-.3l2.8,-.3l2.8,-.3l2.8,-.3l2.9,-.3l2.8,-.4l2.8,-.3l2.8,-.3l2.8,-.4l2.8,-.3l2.8,-.4l2.8,-.3l2.8,-.4l2.8,-.3l2.7,-.4l2.8,-.4l2.8,-.4l2.8,-.3l2.8,-.4L454,234l2.8,-.4l2.8,-.4l2.7,-.4l2.8,-.4l2.8,-.4l2.7,-.4l2.8,-.5l2.8,-.4l2.7,-.4l2.8,-.4l2.7,-.5l2.8,-.4l2.7,-.5l2.8,-.4l2.7,-.5l2.7,-.4l2.8,-.5l2.7,-.4l2.7,-.5l2.7,-.5l2.7,-.5l2.7,-.4l2.7,-.5l2.7,-.5l2.7,-.5l2.7,-.5l2.6,-.5l2.7,-.5l2.7,-.5l2.6,-.5l2.7,-.5l2.6,-.6l2.6,-.5l2.7,-.5l2.6,-.5l2.6,-.6l2.6,-.5l2.6,-.6l2.6,-.5L562,215l2.6,-.5l2.5,-.6l2.6,-.5l2.5,-.6l2.6,-.6l2.5,-.5l2.5,-.6l2.6,-.6l2.5,-.6l2.5,-.5l2.4,-.6l2.5,-.6l2.5,-.6l2.5,-.6l2.4,-.6l2.5,-.6l2.4,-.6l2.4,-.6l2.4,-.6l2.4,-.7l2.4,-.6l2.4,-.6l2.4,-.6l2.3,-.7l2.4,-.6l2.3,-.6l2.4,-.7l2.3,-.6l2.3,-.6l2.3,-.7l2.3,-.6l2.2,-.7l2.3,-.6l2.2,-.7l2.3,-.7l2.2,-.6l2.2,-.7l2.2,-.7l2.2,-.6l2.2,-.7l2.2,-.7l2.1,-.7l2.1,-.6l2.2,-.7l2.1,-.7l2.1,-.7l2.1,-.7l2,-.7l2.1,-.7l2,-.7l2.1,-.7l2,-.7l2,-.7l2,-.7l2,-.7l1.9,-.7l2,-.7l1.9,-.7l1.9,-.8l1.9,-.7l1.9,-.7l1.9,-.7l1.8,-.8l1.9,-.7l1.8,-.7l1.8,-.7l1.8,-.8l1.8,-.7l1.8,-.8l1.7,-.7l1.8,-.7l1.7,-.8l1.7,-.7l1.7,-.8l1.7,-.7l1.6,-.8l1.7,-.7l1.6,-.8l1.6,-.7l1.6,-.8l1.6,-.7l1.5,-.8l1.6,-.8l1.5,-.7l1.5,-.8l1.5,-.7l1.5,-.8l1.5,-.8l1.4,-.7l1.4,-.8l1.4,-.8l1.4,-.8l1.4,-.7l1.4,-.8l1.3,-.8l1.3,-.7l1.3,-.8l1.3,-.8l1.3,-.8l1.2,-.8l1.3,-.7l1.2,-.8l1.2,-.8l1.2,-.8l1.1,-.8l1.2,-.7l1.1,-.8l1.1,-.8l1.1,-.8l1.1,-.8l1,-.8l1,-.8l1.1,-.7l1,-.8l.9,-.8l1,-.8l.9,-.8l1,-.8l.9,-.8l.9,-.8l.8,-.8l.9,-.7l.8,-.8l.8,-.8l.8,-.8l.8,-.8l.7,-.8l.7,-.8l.8,-.8l.6,-.8l.7,-.8l.7,-.7l.6,-.8l.6,-.8l.6,-.8l.6,-.8l.6,-.8l.5,-.8l.5,-.8l.5,-.8l.5,-.7l.5,-.8l.4,-.8l.4,-.8l.4,-.8l.4,-.8l.4,-.8l.3,-.7l.3,-.8l.3,-.8l.3,-.8l.3,-.8l.2,-.7l.2,-.8l.2,-.8l.2,-.8l.2,-.8l.1,-.7l.2,-.8l.1,-.8v-.8l.1,-.7v-.8l.1,-.8V94.5l-.1,-.8V93l-.1,-.8l-.1,-.8l-.1,-.7l-.2,-.8l-.1,-.7l-.2,-.8l-.2,-.7l-.2,-.8l-.2,-.7l-.3,-.8l-.3,-.7l-.3,-.8l-.3,-.7l-.3,-.8l-.4,-.7l-.3,-.8l-.4,-.7l-.4,-.7l-.5,-.8l-.4,-.7l-.5,-.7l-.5,-.8l-.5,-.7l-.5,-.7l-.6,-.7l-.6,-.7l-.6,-.8l-.6,-.7l-.6,-.7l-.6,-.7l-.7,-.7l-.7,-.7l-.7,-.7l-.7,-.7l-.8,-.7l-.7,-.7l-.8,-.7l-.8,-.7l-.9,-.7l-.8,-.7l-.9,-.7l-.8,-.7l-.9,-.7l-1,-.6l-.9,-.7l-.9,-.7l-1,-.7l-1,-.6l-1,-.7L774.4,57l-1,-.6l-1.1,-.7l-1.1,-.6l-1.1,-.7L769,53.8l-1.1,-.7l-1.2,-.6l-1.2,-.7l-1.2,-.6l-1.2,-.6l-1.2,-.7l-1.2,-.6l-1.3,-.6l-1.3,-.6l-1.3,-.7l-1.3,-.6l-1.4,-.6l-1.3,-.6L751.4,45L750,44.4l-1.4,-.6l-1.4,-.6l-1.5,-.6L744.3,42l-1.5,-.6l-1.5,-.6l-1.5,-.5l-1.5,-.6l-1.6,-.6l-1.5,-.6L733.6,38L732,37.4l-1.6,-.5l-1.7,-.6l-1.6,-.6l-1.7,-.5l-1.6,-.5l-1.7,-.6l-1.7,-.5L718.6,33l-1.7,-.5L715.1,32l-1.7,-.5l-1.8,-.6l-1.8,-.5L708,29.9l-1.9,-.5l-1.8,-.5l-1.9,-.5l-1.9,-.5l-1.9,-.5l-1.9,-.5l-1.9,-.5L692.9,26l-2,-.5L689,25l-2,-.5l-2,-.4l-2,-.5l-2.1,-.4l-2,-.5l-2,-.4l-2.1,-.5l-2.1,-.4l-2.1,-.5l-2.1,-.4l-2.1,-.4l-2.1,-.4l-2.2,-.5L660,18.8l-2.2,-.4L655.6,18l-2.2,-.4l-2.2,-.4L649,16.8l-2.3,-.4L644.5,16l-2.3,-.3L640,15.3l-2.3,-.4l-2.3,-.3l-2.3,-.4l-2.3,-.4l-2.4,-.3l-2.3,-.4l-2.4,-.3l-2.3,-.3L619,12.1l-2.4,-.3l-2.4,-.3l-2.4,-.4l-2.4,-.3L607,10.5l-2.5,-.3l-2.4,-.3l-2.5,-.3l-2.4,-.3L594.7,9l-2.5,-.3l-2.5,-.2l-2.5,-.3l-2.5,-.3l-2.6,-.3l-2.5,-.2l-2.5,-.3l-2.6,-.2L572,6.6l-2.6,-.2l-2.6,-.2l-2.6,-.3l-2.6,-.2L559,5.5l-2.6,-.2L553.8,5l-2.6,-.2l-2.7,-.2l-2.6,-.2l-2.6,-.2L540.6,4l-2.7,-.1l-2.6,-.2l-2.7,-.2l-2.7,-.2l-2.7,-.1L524.5,3l-2.7,-.1l-2.7,-.2l-2.7,-.1l-2.7,-.2L511,2.3l-2.7,-.1L505.5,2l-2.7,-.1L500,1.8l-2.7,-.1l-2.8,-.1l-2.7,-.1L489,1.4l-2.8,-.1l-2.7,-.1l-2.8,-.1h-2.8L475.1,1L472.3,.9h-2.8L466.7,.8H464L461.1,.7h-2.8L455.5,.6H444.3L441.5,.5H433l-2.8,.1h-8.5l-2.9,.1h-5.6l-2.9,.1h-2.8l-2.8,.1h-2.9L399,1l-2.8,.1l-2.9,.1h-2.8l-2.8,.1l-2.9,.1L382,1.5l-2.8,.1l-2.9,.1l-2.8,.1l-2.8,.1l-2.8,.2L365,2.2l-2.8,.1l-2.8,.1l-2.8,.2l-2.9,.1l-2.8,.2L348.1,3l-2.8,.2l-2.8,.2l-2.8,.1l-2.8,.2l-2.8,.2l-2.8,.2l-2.8,.2l-2.8,.2L323,4.7l-2.8,.2l-2.8,.2l-2.8,.2l-2.7,.2l-2.8,.2L306.3,6l-2.7,.2l-2.8,.2l-2.7,.3l-2.7,.2l-2.8,.3l-2.7,.2l-2.7,.3L284.5,8l-2.7,.2L279,8.5l-2.6,.3l-2.7,.3L271,9.4l-2.7,.3l-2.7,.2l-2.6,.4l-2.7,.3l-2.7,.3l-2.6,.3l-2.6,.3l-2.7,.3l-2.6,.4l-2.6,.3l-2.6,.4l-2.6,.3l-2.6,.3l-2.6,.4l-2.6,.4l-2.5,.3l-2.6,.4l-2.5,.4l-2.6,.3l-2.5,.4l-2.5,.4l-2.5,.4l-2.5,.4l-2.5,.4l-2.5,.4l-2.5,.4l-2.4,.4l-2.5,.4l-2.4,.5l-2.5,.4l-2.4,.4l-2.4,.4l-2.4,.5l-2.4,.4l-2.4,.5l-2.3,.4l-2.4,.5l-2.4,.4l-2.3,.5l-2.3,.5l-2.3,.4l-2.3,.5l-2.3,.5l-2.3,.5l-2.3,.5l-2.2,.4l-2.3,.5l-2.2,.5l-2.2,.5l-2.2,.5l-2.2,.6l-2.2,.5l-2.1,.5l-2.2,.5l-2.1,.5l-2.2,.6l-2.1,.5l-2.1,.5l-2,.6l-2.1,.5l-2.1,.6l-2,.5l-2.1,.6l-2,.5l-2,.6l-2,.6l-1.9,.5l-2,.6l-1.9,.6l-2,.6l-1.9,.5l-1.9,.6l-1.9,.6l-1.8,.6L97,43.4L95.2,44l-1.9,.6l-1.8,.6l-1.8,.6L88,46.5l-1.8,.6l-1.7,.6l-1.8,.6L81,48.9l-1.7,.7l-1.7,.6L76,50.8l-1.7,.7l-1.6,.6l-1.6,.7l-1.6,.6l-1.6,.7l-1.6,.6l-1.5,.7L63.2,56l-1.5,.7l-1.5,.7L58.7,58l-1.4,.7l-1.5,.7L54.4,60L53,60.7l-1.4,.7l-1.4,.7l-1.3,.7l-1.4,.7l-1.3,.6l-1.3,.7l-1.3,.7l-1.3,.7l-1.2,.7l-1.3,.7l-1.2,.7l-1.2,.8l-1.2,.7l-1.1,.7l-1.2,.7l-1.1,.7l-1.1,.7l-1.1,.8l-1.1,.7l-1,.7l-1,.7l-1.1,.8l-1,.7l-.9,.7l-1,.8l-.9,.7l-.9,.7l-.9,.8l-.9,.7l-.9,.8l-.8,.7l-.9,.8l-.8,.7l-.7,.8l-.8,.7l-.8,.8l-.7,.7l-.7,.8l-.7,.8l-.6,.7l-.7,.8l-.6,.8L9.6,92L9,92.8l-.6,.8l-.5,.7l-.6,.8l-.5,.8l-.5,.7l-.4,.8l-.5,.8L5,99l-.4,.8l-.4,.7l-.4,.8l-.4,.8l-.3,.8l-.3,.8l-.3,.7l-.3,.8L2,106l-.2,.8l-.2,.8l-.2,.8l-.2,.8L1,110l-.1,.8l-.1,.7l-.1,.8l-.1,.8v1.6l-.1,.8l.1,.8v1.6l.1,.8l.1,.8l.1,.8l.1,.8l.2,.8l.2,.8l.2,.8l.2,.8l.2,.8l.3,.8l.2,.8l.3,.8l.3,.8l.4,.8l.3,.8l.4,.8l.4,.8l.4,.8l.4,.8l.5,.8l.5,.8l.4,.8l.6,.7l.5,.8l.5,.8l.6,.8l.6,.8l.6,.8l.6,.8l.7,.8l.7,.8l.7,.8l.7,.8l.7,.8l.7,.8l.8,.8l.8,.7l.8,.8l.8,.8l.9,.8l.8,.8l.9,.8l.9,.8l.9,.7l1,.8l.9,.8l1,.8l1,.8l1,.7l1.1,.8l1,.8l1.1,.7l1.1,.8l1.1,.8l1.1,.8l1.2,.7l1.2,.8l1.1,.8l1.2,.7l1.3,.8l1.2,.7l1.3,.8l1.2,.8l1.3,.7l1.3,.8l1.4,.7l1.3,.8l1.4,.7l1.4,.8l1.4,.7l1.4,.7l1.4,.8l1.5,.7l1.5,.8l1.4,.7l1.5,.7l1.6,.8l1.5,.7l1.6,.7l1.5,.7l1.6,.8l1.6,.7l1.7,.7l1.6,.7l1.7,.7l1.6,.8l1.7,.7l1.7,.7l1.8,.7l1.7,.7l1.7,.7l1.8,.7l1.8,.7l1.8,.7l1.8,.7l1.9,.6l1.8,.7l1.9,.7l1.9,.7l1.9,.7l1.9,.6l1.9,.7l1.9,.7l2,.6l2,.7l1.9,.7l2,.6l2.1,.7l2,.6l2,.7l2.1,.6l2,.7l2.1,.6l2.1,.6l2.1,.7l2.2,.6l2.1,.6l2.2,.7l2.1,.6l2.2,.6l2.2,.6l2.2,.6l2.2,.6l2.2,.6l2.3,.6l2.2,.6l2.3,.6l2.3,.6l2.3,.6l2.3,.6l2.3,.6l2.3,.6l2.4,.5l2.3,.6l2.4,.6l2.4,.5l2.4,.6l2.4,.6l2.4,.5l2.4,.6l2.4,.5l2.5,.6l2.4,.5l2.5,.5l2.4,.6l2.5,.5l2.5,.5l2.5,.5l2.5,.5l2.6,.6l2.5,.5l2.5,.5l2.6,.5l2.5,.5l2.6,.5l2.6,.4l2.6,.5l2.6,.5l2.6,.5l2.6,.5l2.6,.4l2.6,.5l2.7,.4l2.6,.5l2.7,.5l2.6,.4l2.7,.4l2.7,.5l2.6,.4l2.7,.4l2.7,.5l2.7,.4l2.7,.4l2.8,.4l2.7,.4l2.7,.4l2.7,.4l2.8,.4l2.7,.4l2.8,.4l2.7,.4l2.8,.4l2.8,.3l2.7,.4l2.8,.4l2.8,.3l2.8,.4l2.8,.3l2.8,.4l2.8,.3l2.8,.4l2.8,.3l2.8,.3l2.8,.4l2.9,.3l2.8,.3l2.8,.3l2.8,.3l2.9,.3l2.8,.3l2.9,.3l2.8,.3l2.8,.3l2.9,.2l2.8,.3l2.9,.3l2.9,.2l2.8,.3l2.9,.2l2.8,.3l2.9,.2l2.9,.3l2.8,.2l2.9,.2l2.8,.3l2.9,.2l2.9,.2l2.8,.2l2.9,.2l2.9,.2l2.8,.2l2.9,.2l2.9,.2l2.8,.1l2.9,.2l2.9,.2l2.8,.2l2.9,.1l2.9,.2l2.8,.1l2.9,.2l2.8,.1l2.9,.1l2.8,.2l2.9,.1l2.8,.1l2.9,.1l2.8,.1l2.9,.1l2.8,.1l2.8,.1l2.9,.1l2.8,.1l2.8,.1l2.9,.1h2.8l2.8,.1l2.8,.1h2.8l2.8,.1h5.6l2.8,.1h8.3l2.8,.1h11l2.8,-.1h10.9l2.7,-.1h2.7l2.7,-.1H548l2.7,-.1h2.6l2.7,-.1l2.7,-.1l2.6,-.1" class="g3_1" />

</svg>
