<?xml version="1.0" encoding="UTF-8" standalone="no"?>
<!DOCTYPE svg PUBLIC "-//W3C//DTD SVG 1.1//EN"
"http://www.w3.org/Graphics/SVG/1.1/DTD/svg11.dtd">


<!-- Page 1 -->
<svg x="0" y="0" width="653" height="203" viewBox="0 0 653 203" version="1.1" xmlns="http://www.w3.org/2000/svg" xmlns:xlink="http://www.w3.org/1999/xlink"
style="display: block;margin-left: auto;margin-right: auto;">
<defs>

<style type="text/css"><![CDATA[

.g0_1{
fill: none;
stroke: #FF0000;
stroke-width: 1.7838188;
stroke-linecap: butt;
stroke-linejoin: miter;
stroke-miterlimit: 4;
}

]]></style>

</defs>
<path d="M0,0
L0,203
L653,203
L653,0 Z " 
fill="#FFFFFF" stroke="none" />
<path d="M326.9,101.6L347.4,88.9L367.8,76.4L388.1,64.3l20,-11.4L427.8,42.1l19.3,-9.8l18.8,-8.6l18.2,-7.5l17.7,-6.1l17,-4.7L535,2.2L550.3,.6h14.5l13.6,1.6L591,5.4l11.5,4.7l10.4,6.1l9.4,7.5l8.1,8.6l6.9,9.8l5.8,10.8l4.4,11.4l3.2,12.1l2,12.5l.6,12.7l-.6,12.7l-2,12.4l-3.2,12.1l-4.4,11.5L637.3,161l-6.9,9.8l-8.1,8.7l-9.4,7.5l-10.4,6.1L591,197.8l-12.6,3.1l-13.6,1.6H550.3L535,200.9l-16.2,-3.1l-17,-4.7L484.1,187l-18.2,-7.5l-18.8,-8.7L427.8,161L408.1,150.3l-20,-11.5L367.8,126.7L347.4,114.3L326.9,101.6L306.4,88.9L286,76.4L265.7,64.3l-20,-11.4L226,42.1L206.7,32.3L187.9,23.7L169.6,16.2L152,10.1L135,5.4L118.8,2.2L103.4,.6H88.9L75.4,2.2L62.8,5.4L51.3,10.1L40.8,16.2l-9.3,7.5l-8.1,8.6l-7,9.8L10.7,52.9L6.2,64.3L3,76.4L1.1,88.9L.4,101.6l.7,12.7L3,126.7l3.2,12.1l4.5,11.5L16.4,161l7,9.8l8.1,8.7l9.3,7.5l10.5,6.1l11.5,4.7l12.6,3.1l13.5,1.6h14.5l15.4,-1.6L135,197.8l17,-4.7L169.6,187l18.3,-7.5l18.8,-8.7L226,161l19.7,-10.7l20,-11.5L286,126.7l20.4,-12.4l20.5,-12.7" class="g0_1" />

</svg>
