<?xml version="1.0" encoding="UTF-8" standalone="no"?>
<!DOCTYPE svg PUBLIC "-//W3C//DTD SVG 1.1//EN"
"http://www.w3.org/Graphics/SVG/1.1/DTD/svg11.dtd">


<!-- Page 1 -->
<svg x="0" y="0" width="673" height="255" viewBox="0 0 673 255" version="1.1" xmlns="http://www.w3.org/2000/svg" xmlns:xlink="http://www.w3.org/1999/xlink"
style="display: block;margin-left: auto;margin-right: auto;">
<defs>
<clipPath id="c0_1"><path d="M55,227.7V36.5H670.1V227.7Z" /></clipPath>

<style type="text/css"><![CDATA[
text { white-space: pre; }
path, image { pointer-events: none; }

.s1_1{
font-size: 10.07px;
font-family: Arial-BoldMT_1x;
fill: #333333;
}
.s2_1{
font-size: 10.90px;
font-family: ArialMT_1d;
fill: #444444;
}
.s3_1{
font-size: 10.90px;
font-family: ArialMT_1d;
fill: #222222;
}

.g0_1{
fill: #FFFFFF;
}
.g1_1{
fill: none;
stroke: #C5C5C5;
stroke-width: 0.8392487;
stroke-linecap: butt;
stroke-linejoin: miter;
stroke-miterlimit: 4;
}
.g2_1{
fill: #E9E9E9;
}
.g3_1{
fill: none;
stroke: #DDDDDD;
stroke-width: 0.8392487;
stroke-linecap: butt;
stroke-linejoin: miter;
stroke-miterlimit: 4;
}
.g4_1{
fill: #F6F6F6;
}
.g5_1{
fill: none;
stroke: #C5C5C5;
stroke-width: 0.83923376;
stroke-linecap: butt;
stroke-linejoin: miter;
stroke-miterlimit: 4;
}
.g6_1{
fill: #FFC0CB;
}
.g7_1{
fill: #CCCCCC;
}
.g8_1{
fill: #EBEBEB;
}
.g9_1{
fill: #333333;
}
.g10_1{
fill: none;
stroke: #000000;
stroke-width: 1.6784974;
stroke-linecap: butt;
stroke-linejoin: miter;
stroke-miterlimit: 4;
}
.g11_1{
fill: none;
stroke: #FF0000;
stroke-width: 1.6784974;
stroke-linecap: butt;
stroke-linejoin: miter;
stroke-miterlimit: 4;
}
.g12_1{
fill: none;
stroke: #0000FF;
stroke-width: 1.6784974;
stroke-linecap: butt;
stroke-linejoin: miter;
stroke-miterlimit: 4;
}
.g13_1{
fill: none;
stroke: #008000;
stroke-width: 1.6784974;
stroke-linecap: butt;
stroke-linejoin: miter;
stroke-miterlimit: 4;
}
.g14_1{
fill: none;
stroke: #FFFF00;
stroke-width: 1.6784974;
stroke-linecap: butt;
stroke-linejoin: miter;
stroke-miterlimit: 4;
}
.g15_1{
fill: none;
stroke: #A52A2A;
stroke-width: 1.6784974;
stroke-linecap: butt;
stroke-linejoin: miter;
stroke-miterlimit: 4;
}
.g16_1{
fill: none;
stroke: #000000;
stroke-width: 1.6784751;
stroke-linecap: butt;
stroke-linejoin: miter;
stroke-miterlimit: 4;
}
.g17_1{
fill: none;
stroke: #FF0000;
stroke-width: 1.6784751;
stroke-linecap: butt;
stroke-linejoin: miter;
stroke-miterlimit: 4;
}
.g18_1{
fill: none;
stroke: #0000FF;
stroke-width: 1.6784751;
stroke-linecap: butt;
stroke-linejoin: miter;
stroke-miterlimit: 4;
}
.g19_1{
fill: none;
stroke: #008000;
stroke-width: 1.6784751;
stroke-linecap: butt;
stroke-linejoin: miter;
stroke-miterlimit: 4;
}
.g20_1{
fill: none;
stroke: #FFFF00;
stroke-width: 1.6784751;
stroke-linecap: butt;
stroke-linejoin: miter;
stroke-miterlimit: 4;
}
.g21_1{
fill: none;
stroke: #A52A2A;
stroke-width: 1.6784751;
stroke-linecap: butt;
stroke-linejoin: miter;
stroke-miterlimit: 4;
}

]]></style>

</defs>
<path d="M0,0
L0,255
L673,255
L673,0 Z " 
fill="#FFFFFF" stroke="none" />
<path d="M2.5,251.4V4.6c0,-.3,.1,-.5,.2,-.8c.1,-.2,.2,-.5,.4,-.7c.2,-.2,.5,-.3,.7,-.4c.3,-.1,.5,-.2,.8,-.2H671c.3,0,.5,.1,.8,.2c.2,.1,.5,.2,.7,.4c.2,.2,.3,.5,.4,.7c.1,.3,.2,.5,.2,.8V251.4c0,.2,-.1,.5,-.2,.8c-.1,.2,-.2,.4,-.4,.6c-.2,.2,-.5,.4,-.7,.5c-.3,.1,-.5,.2,-.8,.2H4.6c-.3,0,-.5,-.1,-.8,-.2c-.2,-.1,-.5,-.3,-.7,-.5c-.2,-.2,-.3,-.4,-.4,-.6c-.1,-.3,-.2,-.6,-.2,-.8Z" class="g0_1" />
<path d="M2.5,251.4V4.6c0,-.3,.1,-.5,.2,-.8c.1,-.2,.2,-.5,.4,-.7c.2,-.2,.5,-.3,.7,-.4c.3,-.1,.5,-.2,.8,-.2H671c.3,0,.5,.1,.8,.2c.2,.1,.5,.2,.7,.4c.2,.2,.3,.5,.4,.7c.1,.3,.2,.5,.2,.8V251.4c0,.2,-.1,.5,-.2,.8c-.1,.2,-.2,.4,-.4,.6c-.2,.2,-.5,.4,-.7,.5c-.3,.1,-.5,.2,-.8,.2H4.6c-.3,0,-.5,-.1,-.8,-.2c-.2,-.1,-.5,-.3,-.7,-.5c-.2,-.2,-.3,-.4,-.4,-.6c-.1,-.3,-.2,-.6,-.2,-.8Z" class="g1_1" />
<path d="M5,25.6V7.1c0,-.2,.1,-.5,.2,-.8c.1,-.2,.3,-.5,.4,-.7c.2,-.1,.5,-.3,.7,-.4C6.6,5.1,6.9,5,7.1,5H668.5c.2,0,.5,.1,.8,.2c.2,.1,.4,.3,.6,.4c.2,.2,.4,.5,.5,.7c.1,.3,.2,.6,.2,.8V25.6c0,.3,-.1,.5,-.2,.8c-.1,.3,-.3,.5,-.5,.7c-.2,.2,-.4,.3,-.6,.4c-.3,.1,-.6,.2,-.8,.2H7.1c-.2,0,-.5,-.1,-.8,-.2c-.2,-.1,-.5,-.2,-.7,-.4c-.1,-.2,-.3,-.4,-.4,-.7C5.1,26.1,5,25.9,5,25.6Z" class="g2_1" />
<path d="M5,25.6V7.1c0,-.2,.1,-.5,.2,-.8c.1,-.2,.3,-.5,.4,-.7c.2,-.1,.5,-.3,.7,-.4C6.6,5.1,6.9,5,7.1,5H668.5c.2,0,.5,.1,.8,.2c.2,.1,.4,.3,.6,.4c.2,.2,.4,.5,.5,.7c.1,.3,.2,.6,.2,.8V25.6c0,.3,-.1,.5,-.2,.8c-.1,.3,-.3,.5,-.5,.7c-.2,.2,-.4,.3,-.6,.4c-.3,.1,-.6,.2,-.8,.2H7.1c-.2,0,-.5,-.1,-.8,-.2c-.2,-.1,-.5,-.2,-.7,-.4c-.1,-.2,-.3,-.4,-.4,-.7C5.1,26.1,5,25.9,5,25.6Z" class="g3_1" />
<text x="15" y="19" class="s1_1">Square wave and first few frequency components</text>
<path d="M650.4,22.2V10.5c0,-.3,0,-.6,.2,-.8c.1,-.3,.2,-.5,.4,-.7c.2,-.2,.4,-.3,.7,-.4c.2,-.2,.5,-.2,.8,-.2h11.7c.3,0,.6,0,.8,.2c.3,.1,.5,.2,.7,.4c.2,.2,.4,.4,.5,.7c.1,.2,.1,.5,.1,.8V22.2c0,.3,0,.6,-.1,.8c-.1,.3,-.3,.5,-.5,.7c-.2,.2,-.4,.4,-.7,.5c-.2,.1,-.5,.1,-.8,.1H652.5c-.3,0,-.6,0,-.8,-.1c-.3,-.1,-.5,-.3,-.7,-.5c-.2,-.2,-.3,-.4,-.4,-.7c-.2,-.2,-.2,-.5,-.2,-.8Z" class="g4_1" />
<path d="M650.4,22.2V10.5c0,-.3,0,-.6,.2,-.8c.1,-.3,.2,-.5,.4,-.7c.2,-.2,.4,-.3,.7,-.4c.2,-.2,.5,-.2,.8,-.2h11.7c.3,0,.6,0,.8,.2c.3,.1,.5,.2,.7,.4c.2,.2,.4,.4,.5,.7c.1,.2,.1,.5,.1,.8V22.2c0,.3,0,.6,-.1,.8c-.1,.3,-.3,.5,-.5,.7c-.2,.2,-.4,.4,-.7,.5c-.2,.1,-.5,.1,-.8,.1H652.5c-.3,0,-.6,0,-.8,-.1c-.3,-.1,-.5,-.3,-.7,-.5c-.2,-.2,-.3,-.4,-.4,-.7c-.2,-.2,-.2,-.5,-.2,-.8Z" class="g5_1" />
<image preserveAspectRatio="none" x="652" y="10" width="13" height="13" xlink:href="1/img/1.png" />
<path d="M4.6,28.1H671V250.5H4.6V28.1Z" class="g6_1" />
<g clip-path="url(#c0_1)">
<path d="M55,36.5h.8V227.7H55V36.5Z" class="g7_1" />
</g>
<path d="M95.3,36.5h.8V227.7h-.8V36.5Z" class="g7_1" />
<path d="M135.5,36.5h.9V227.7h-.9V36.5Z" class="g7_1" />
<path d="M175.8,36.5h.9V227.7h-.9V36.5Z" class="g7_1" />
<path d="M216.9,36.5h.9V227.7h-.9V36.5Z" class="g7_1" />
<path d="M257.2,36.5h.9V227.7h-.9V36.5Z" class="g7_1" />
<path d="M297.5,36.5h.9V227.7h-.9V36.5Z" class="g7_1" />
<path d="M337.8,36.5h.8V227.7h-.8V36.5Z" class="g7_1" />
<path d="M378.1,36.5h.8V227.7h-.8V36.5Z" class="g7_1" />
<path d="M418.4,36.5h.8V227.7h-.8V36.5Z" class="g7_1" />
<path d="M459.5,36.5h.8V227.7h-.8V36.5Z" class="g7_1" />
<path d="M499.8,36.5h.8V227.7h-.8V36.5Z" class="g7_1" />
<path d="M540.1,36.5h.8V227.7h-.8V36.5Z" class="g7_1" />
<path d="M580.3,36.5h.9V227.7h-.9V36.5Z" class="g7_1" />
<path d="M620.6,36.5h.9V227.7h-.9V36.5Z" class="g7_1" />
<path d="M660.9,36.5h.8V227.7h-.8V36.5Z" class="g7_1" />
<path d="M75.1,36.5H76V227.7h-.9V36.5Z" class="g8_1" />
<path d="M115.4,36.5h.8V227.7h-.8V36.5Z" class="g8_1" />
<path d="M155.7,36.5h.8V227.7h-.8V36.5Z" class="g8_1" />
<path d="M196.8,36.5h.8V227.7h-.8V36.5Z" class="g8_1" />
<path d="M237.1,36.5h.8V227.7h-.8V36.5Z" class="g8_1" />
<path d="M277.4,36.5h.8V227.7h-.8V36.5Z" class="g8_1" />
<path d="M317.7,36.5h.8V227.7h-.8V36.5Z" class="g8_1" />
<path d="M357.9,36.5h.9V227.7h-.9V36.5Z" class="g8_1" />
<path d="M398.2,36.5h.9V227.7h-.9V36.5Z" class="g8_1" />
<path d="M439.3,36.5h.9V227.7h-.9V36.5Z" class="g8_1" />
<path d="M479.6,36.5h.9V227.7h-.9V36.5Z" class="g8_1" />
<path d="M519.9,36.5h.9V227.7h-.9V36.5Z" class="g8_1" />
<path d="M560.2,36.5h.8V227.7h-.8V36.5Z" class="g8_1" />
<path d="M600.5,36.5h.8V227.7h-.8V36.5Z" class="g8_1" />
<path d="M640.8,36.5h.8V227.7h-.8V36.5Z" class="g8_1" />
<g clip-path="url(#c0_1)">
<path d="M55,226.8H670.1v.9H55v-.9Z" class="g7_1" />
<path d="M55,179H670.1v.9H55V179Z" class="g7_1" />
<path d="M55,132.1H670.1v.8H55v-.8Z" class="g7_1" />
<path d="M55,84.3H670.1v.8H55v-.8Z" class="g7_1" />
<path d="M55,36.5H670.1v.8H55v-.8Z" class="g7_1" />
<path d="M55,203.3H670.1v.9H55v-.9Z" class="g8_1" />
<path d="M55,155.6H670.1v.8H55v-.8Z" class="g8_1" />
<path d="M55,107.8H670.1v.8H55v-.8Z" class="g8_1" />
<path d="M55,60H670.1v.8H55V60Z" class="g8_1" />
<path d="M55,36.5h.8V227.7H55V36.5Z" class="g9_1" />
<path d="M55,132.1H670.1v.8H55v-.8Z" class="g9_1" />
</g>
<path d="M55.4,84.5h198l4.1,95.2h198l4.1,-95.2h198l4,95.2h8.1" class="g10_1" />
<path d="M55.4,132.1l4,-3.8l4.1,-3.8l4,-3.8L71.6,117l4,-3.6l4,-3.6l4.1,-3.5l4,-3.4l4.1,-3.3l4,-3.1l4,-3l4.1,-2.9l4,-2.7L112,85.4l4,-2.3l4.1,-2.2l4,-1.9l4,-1.7l4.1,-1.5l4,-1.3l4.1,-1.1l4,-.8l4,-.6l4.1,-.4l4,-.1l4.1,.1l4,.4l4.1,.6l4,.8l4,1.1l4.1,1.3l4,1.5l4.1,1.7l4,1.9l4,2.2l4.1,2.3l4,2.5l4.1,2.7l4,2.9l4.1,3l4,3.1l4,3.3l4.1,3.4l4,3.5l4.1,3.6l4,3.6l4,3.7l4.1,3.8l4,3.8l4.1,3.8l4,3.8l4.1,3.8l4,3.7l4,3.7l4.1,3.7l4,3.6l4.1,3.5l4,3.4l4,3.2l4.1,3.2l4,3l4.1,2.9l4,2.6l4.1,2.6l4,2.3l4,2.1l4.1,2l4,1.7l4.1,1.5l4,1.3l4,1.1l4.1,.8l4,.6l4.1,.3l4,.2l4.1,-.2l4,-.3l4,-.6l4.1,-.8l4,-1.1l4.1,-1.3l4,-1.5l4,-1.7l4.1,-2l4,-2.1l4.1,-2.3l4,-2.6l4.1,-2.6l4,-2.9l4,-3l4.1,-3.2l4,-3.2l4.1,-3.4l4,-3.5l4,-3.6l4.1,-3.7l4,-3.7l4.1,-3.7l4,-3.8l4.1,-3.8l4,-3.8l4,-3.8l4.1,-3.8l4,-3.7l4.1,-3.6l4,-3.6l4,-3.5l4.1,-3.4l4,-3.3L500,96.5l4,-3l4.1,-2.9l4,-2.7l4,-2.5l4.1,-2.3l4,-2.2L528.3,79l4,-1.7l4,-1.5l4.1,-1.3l4,-1.1l4.1,-.8l4,-.6l4.1,-.4l4,-.1l4,.1l4.1,.4l4,.6l4.1,.8l4,1.1l4,1.3l4.1,1.5l4,1.7l4.1,1.9l4,2.2l4.1,2.3l4,2.5l4,2.7l4.1,2.9l4,3l4.1,3.1l4,3.3l4,3.4l4.1,3.5l4,3.6l4.1,3.6l4,3.7l4.1,3.8l4,3.8l4,3.8l4.1,3.8l4,3.8" class="g11_1" />
<path d="M55.4,132.1l4,-7.6l4.1,-7.4l4,-7.2l4.1,-6.7l4,-6.2l4,-5.5l4.1,-4.8l4,-4l4.1,-3.1l4,-2.3l4,-1.5l4.1,-.7l4,-.1l4.1,.7l4,1.1l4.1,1.6l4,1.9l4,2l4.1,2.1l4,1.9l4.1,1.8l4,1.5l4,1.2l4.1,.7l4,.2l4.1,-.2l4,-.7l4.1,-1.2l4,-1.5l4,-1.8l4.1,-1.9l4,-2.1l4.1,-2l4,-1.9l4,-1.6l4.1,-1.1l4,-.7l4.1,.1l4,.7l4.1,1.5l4,2.3l4,3.1l4.1,4l4,4.8l4.1,5.5l4,6.2l4,6.7l4.1,7.2l4,7.4l4.1,7.6l4,7.6l4.1,7.4l4,7.2l4,6.7l4.1,6.1l4,5.6l4.1,4.7l4,4l4,3.2l4.1,2.3l4,1.5l4.1,.7h4l4.1,-.6l4,-1.2l4,-1.5l4.1,-1.9l4,-2l4.1,-2.1l4,-2l4,-1.8l4.1,-1.5l4,-1.1l4.1,-.7l4,-.2l4.1,.2l4,.7l4,1.1l4.1,1.5l4,1.8l4.1,2l4,2.1l4,2l4.1,1.9l4,1.5l4.1,1.2l4,.6h4.1l4,-.7l4,-1.5l4.1,-2.3l4,-3.2l4.1,-4l4,-4.7l4,-5.6l4.1,-6.1l4,-6.7l4.1,-7.2l4,-7.4l4.1,-7.6l4,-7.6l4,-7.4l4.1,-7.2l4,-6.7L479.8,97l4,-5.5l4,-4.8l4.1,-4l4,-3.1L500,77.3l4,-1.5l4.1,-.7l4,-.1l4,.7l4.1,1.1l4,1.6l4.1,1.9l4,2l4,2.1l4.1,1.9l4,1.8l4.1,1.5l4,1.2l4.1,.7l4,.2l4,-.2l4.1,-.7l4,-1.2l4.1,-1.5l4,-1.8l4,-1.9l4.1,-2.1l4,-2L597,78.4l4,-1.6l4.1,-1.1l4,-.7l4,.1l4.1,.7l4,1.5l4.1,2.3l4,3.1l4,4l4.1,4.8l4,5.5l4.1,6.2l4,6.7l4.1,7.2l4,7.4l4,7.6l4.1,7.6l4,7.4" class="g12_1" />
<path d="M55.4,132.1l4,-11.4l4.1,-10.8l4,-9.8l4.1,-8.4l4,-6.8l4,-4.9l4.1,-3.1l4,-1.3l4.1,.2l4,1.5l4,2.2l4.1,2.7l4,2.6l4.1,2.4l4,1.7l4.1,1l4,.2l4,-.7l4.1,-1.3l4,-1.8l4.1,-1.9l4,-1.9l4,-1.5l4.1,-1.1l4,-.3l4.1,.3l4,1.1l4.1,1.5l4,1.9l4,1.9l4.1,1.8l4,1.3l4.1,.7l4,-.2l4,-1l4.1,-1.7l4,-2.4L209,82.2l4,-2.7l4.1,-2.2l4,-1.5l4,-.2l4.1,1.3l4,3.1l4.1,4.9l4,6.8l4,8.4l4.1,9.8l4,10.8l4.1,11.4l4,11.3l4.1,10.8l4,9.9l4,8.4l4.1,6.8l4,4.9l4.1,3l4,1.3l4,-.2l4.1,-1.4l4,-2.3L306,182l4,-2.7l4.1,-2.3l4,-1.8l4,-1l4.1,-.1l4,.7l4.1,1.3l4,1.7l4,2l4.1,1.9l4,1.5l4.1,1l4,.4l4.1,-.4l4,-1l4,-1.5l4.1,-1.9l4,-2l4.1,-1.7l4,-1.3l4,-.7l4.1,.1l4,1L403,177l4,2.3l4.1,2.7l4,2.6l4,2.3l4.1,1.4l4,.2l4.1,-1.3l4,-3l4,-4.9l4.1,-6.8l4,-8.4l4.1,-9.9l4,-10.8l4.1,-11.3l4,-11.4l4,-10.8l4.1,-9.8l4,-8.4l4.1,-6.8l4,-4.9l4,-3.1l4.1,-1.3l4,.2l4.1,1.5l4,2.2l4.1,2.7l4,2.6l4,2.4l4.1,1.7l4,1l4.1,.2l4,-.7l4,-1.3l4.1,-1.8l4,-1.9l4.1,-1.9l4,-1.5l4.1,-1.1l4,-.3l4,.3l4.1,1.1l4,1.5l4.1,1.9l4,1.9l4,1.8l4.1,1.3l4,.7l4.1,-.2l4,-1l4.1,-1.7l4,-2.4l4,-2.6l4.1,-2.7l4,-2.2l4.1,-1.5l4,-.2l4,1.3l4.1,3.1l4,4.9l4.1,6.8l4,8.4l4.1,9.8l4,10.8l4,11.4l4.1,11.3l4,10.8" class="g13_1" />
<path d="M55.4,132.1l4,-15l4.1,-13.8l4,-11.6l4.1,-8.5l4,-5.3l4,-2.1l4.1,.6l4,2.4l4.1,3.4l4,3.3l4,2.6l4.1,1.4h4L112,88.3l4,-2L120.1,84l4,-2l4,-1.2l4.1,-.3l4,.7l4.1,1.6l4,1.9l4,1.8l4.1,1.3l4,.4l4.1,-.4l4,-1.3l4.1,-1.8l4,-1.9l4,-1.6l4.1,-.7l4,.3l4.1,1.2l4,2l4,2.3l4.1,2l4,1.2H209l4,-1.4l4.1,-2.6l4,-3.3l4,-3.4l4.1,-2.4l4,-.6l4.1,2.1l4,5.3l4,8.5l4.1,11.6l4,13.8l4.1,15l4,15l4.1,13.8l4,11.5l4,8.6l4.1,5.3l4,2l4.1,-.5l4,-2.4l4,-3.4l4.1,-3.3l4,-2.6l4.1,-1.4h4l4.1,1.2l4,2l4,2.3l4.1,1.9l4,1.3l4.1,.3l4,-.8l4,-1.5l4.1,-1.9l4,-1.8l4.1,-1.3l4,-.5l4.1,.5l4,1.3l4,1.8l4.1,1.9l4,1.5l4.1,.8l4,-.3l4,-1.3l4.1,-1.9l4,-2.3l4.1,-2l4,-1.2h4.1l4,1.4l4,2.6l4.1,3.3l4,3.4l4.1,2.4l4,.5l4,-2l4.1,-5.3l4,-8.6l4.1,-11.5l4,-13.8l4.1,-15l4,-15l4,-13.8l4.1,-11.6l4,-8.5l4.1,-5.3l4,-2.1l4,.6l4.1,2.4l4,3.4l4.1,3.3l4,2.6l4.1,1.4h4l4,-1.2l4.1,-2l4,-2.3l4.1,-2l4,-1.2l4,-.3l4.1,.7l4,1.6l4.1,1.9l4,1.8l4.1,1.3l4,.4l4,-.4l4.1,-1.3l4,-1.8l4.1,-1.9l4,-1.6l4,-.7l4.1,.3l4,1.2l4.1,2l4,2.3l4.1,2l4,1.2h4l4.1,-1.4l4,-2.6l4.1,-3.3l4,-3.4l4,-2.4l4.1,-.6l4,2.1l4.1,5.3l4,8.5l4.1,11.6l4,13.8l4,15l4.1,15l4,13.8" class="g14_1" />
<path d="M55.4,132.1l4,-18.6L63.5,97.2L67.5,85l4.1,-7l4,-2.2l4,1.7l4.1,3.8l4,4.1l4.1,3l4,1.1l4,-1l4.1,-2.3l4,-2.6l4.1,-2l4,-.8l4.1,.7l4,1.8l4,2.1l4.1,1.6l4,.6l4.1,-.6l4,-1.5l4,-1.9l4.1,-1.5l4,-.6l4.1,.6l4,1.5l4.1,1.9l4,1.5l4,.6l4.1,-.6l4,-1.6l4.1,-2.1l4,-1.8l4,-.7l4.1,.8l4,2l4.1,2.6l4,2.3l4.1,1l4,-1.1l4,-3l4.1,-4.1l4,-3.8l4.1,-1.7l4,2.2l4,7l4.1,12.2l4,16.3l4.1,18.6l4,18.6l4.1,16.3l4,12.1l4,7.1l4.1,2.1l4,-1.6l4.1,-3.8l4,-4.2l4,-2.9l4.1,-1.1l4,.9l4.1,2.3l4,2.7l4.1,2l4,.7l4,-.7l4.1,-1.7l4,-2.1l4.1,-1.7l4,-.6l4,.6l4.1,1.6l4,1.9l4.1,1.5l4,.6l4.1,-.6l4,-1.5l4,-1.9l4.1,-1.6l4,-.6l4.1,.6l4,1.7l4,2.1l4.1,1.7l4,.7l4.1,-.7l4,-2l4.1,-2.7l4,-2.3l4,-.9l4.1,1.1l4,2.9l4.1,4.2l4,3.8l4,1.6l4.1,-2.1l4,-7.1L451.5,167l4,-16.3l4.1,-18.6l4,-18.6l4,-16.3L471.7,85l4,-7l4.1,-2.2l4,1.7l4,3.8l4.1,4.1l4,3l4.1,1.1l4,-1l4.1,-2.3l4,-2.6l4,-2l4.1,-.8l4,.7l4.1,1.8l4,2.1l4,1.6l4.1,.6l4,-.6l4.1,-1.5l4,-1.9l4.1,-1.5l4,-.6l4,.6l4.1,1.5l4,1.9l4.1,1.5l4,.6l4,-.6l4.1,-1.6l4,-2.1L597,81.5l4,-.7l4.1,.8l4,2l4,2.6l4.1,2.3l4,1l4.1,-1.1l4,-3l4,-4.1l4.1,-3.8l4,-1.7l4.1,2.2l4,7l4.1,12.2l4,16.3l4,18.6l4.1,18.6l4,16.3" class="g15_1" />
<text x="47" y="239" class="s2_1">0.0</text>
<text x="88" y="239" class="s2_1">0.1</text>
<text x="128" y="239" class="s2_1">0.2</text>
<text x="169" y="239" class="s2_1">0.3</text>
<text x="209" y="239" class="s2_1">0.4</text>
<text x="249" y="239" class="s2_1">0.5</text>
<text x="290" y="239" class="s2_1">0.6</text>
<text x="330" y="239" class="s2_1">0.7</text>
<text x="371" y="239" class="s2_1">0.8</text>
<text x="411" y="239" class="s2_1">0.9</text>
<text x="451" y="239" class="s2_1">1.0</text>
<text x="492" y="239" class="s2_1">1.1</text>
<text x="532" y="239" class="s2_1">1.2</text>
<text x="573" y="239" class="s2_1">1.3</text>
<text x="613" y="239" class="s2_1">1.4</text>
<text x="654" y="239" class="s2_1">1.5</text>
<text x="13" y="231" class="s2_1">-2.0E0</text>
<text x="13" y="183" class="s2_1">-1.0E0</text>
<text x="17" y="135" class="s2_1">0.0E0</text>
<text x="17" y="88" class="s2_1">1.0E0</text>
<text x="17" y="40" class="s2_1">2.0E0</text>
<text x="80" y="52" class="s3_1">Square wave</text>
<path d="M55,48.7H76.8" class="g16_1" />
<text x="188" y="52" class="s3_1">Fundamental</text>
<path d="M162.4,48.7h21.8" class="g17_1" />
<text x="295" y="52" class="s3_1">First three</text>
<path d="M269.8,48.7h21.8" class="g18_1" />
<text x="388" y="52" class="s3_1">First five</text>
<path d="M363,48.7h21.8" class="g19_1" />
<text x="473" y="52" class="s3_1">First seven</text>
<path d="M447.7,48.7h21.9" class="g20_1" />
<text x="571" y="52" class="s3_1">First nine</text>
<path d="M545.1,48.7h21.8" class="g21_1" />
<image preserveAspectRatio="none" x="667" y="247" width="6" height="6" xlink:href="1/img/2.png" />


<!-- Any embedded fonts defined here -->
<style type="text/css" ><![CDATA[

@font-face {
	font-family: Arial-BoldMT_1x;
	src: url("fonts/Arial-BoldMT_1x.woff") format("woff");
}

@font-face {
	font-family: ArialMT_1d;
	src: url("fonts/ArialMT_1d.woff") format("woff");
}

]]></style>

</svg>
