<?xml version="1.0" encoding="UTF-8" standalone="no"?>
<!DOCTYPE svg PUBLIC "-//W3C//DTD SVG 1.1//EN" "http://www.w3.org/Graphics/SVG/1.1/DTD/svg11.dtd">
<svg version="1.1" xmlns="http://www.w3.org/2000/svg" xmlns:xlink="http://www.w3.org/1999/xlink" preserveAspectRatio="xMidYMid meet" viewBox="0 0 1000 1000" width="1000" height="1000"><defs><path d="M981.49 0C991.71 0 1000 8.29 1000 18.51C1000 214.81 1000 785.19 1000 981.48C1000 991.71 991.71 1000 981.49 1000C785.19 1000 214.81 1000 18.51 1000C8.29 1000 0 991.71 0 981.48C0 785.19 0 214.81 0 18.51C0 8.29 8.29 0 18.51 0C214.81 0 785.19 0 981.49 0Z" id="aEaFEuWX4"></path><radialGradient id="gradientaDLDKPBfG" gradientUnits="userSpaceOnUse" cx="500" cy="484.85" dx="1000" dy="1000" r="717.9"><stop style="stop-color: #ffffff;stop-opacity: 1" offset="0%"></stop><stop style="stop-color: #fffefe;stop-opacity: 0" offset="100%"></stop></radialGradient><path d="M50 400L950 400L950 600L50 600L50 400Z" id="n3bPKhp9uw"></path><path d="M400 50L600 50L600 950L400 950L400 50Z" id="a837ojwUQm"></path></defs><g><g><g><use xlink:href="#aEaFEuWX4" opacity="1" fill="url(#gradientaDLDKPBfG)"></use></g><g><use xlink:href="#n3bPKhp9uw" opacity="1" fill="#000000" fill-opacity="1"></use></g><g><use xlink:href="#a837ojwUQm" opacity="1" fill="#000000" fill-opacity="1"></use></g></g></g></svg>