<svg width="500" height="344" xmlns="http://www.w3.org/2000/svg">
 <defs>
  <style type="text/css">
   <![CDATA[

.g0_1{
fill: none;
stroke: #0000ff40;
stroke-width: 2;
stroke-linecap: round;
stroke-linejoin: round;
}

]]>
  </style>
   <style type="text/css">
   .path {
  stroke-dasharray: 2000;
  stroke-dashoffset: 0;
  animation: dash 15s linear infinite;
}
@keyframes dash {
  from {
    stroke-dashoffset: 2000;
  }
  to {
    stroke-dashoffset: 0;
  }
}
 </style>
  <linearGradient y2="0" x2="1" y1="0" x1="0" id="svg_4">
   <stop offset="0" stop-color="#007991"/>
   <stop offset="1" stop-color="#78ffd6"/>
  </linearGradient>
 </defs>
 <g>
  <title>background</title>
  <rect fill="url(#svg_4)" id="canvas_background" height="346" width="502" y="-1" x="-1"/>
 </g>
 <g>
  <title>Layer 1</title>
  <path id="svg_2" class="path g0_1" d="m1.5,283.7l0.3,0.2l0.2,0.2l0.3,0.2l0.2,0.2l0.3,0.2l0.2,0.1l0.3,0.1l0.2,0.1l0.3,0.1l0.7,0l0.3,-0.1l0.2,-0.1l0.3,-0.1l0.2,-0.1l0.3,-0.2l0.2,-0.2l0.3,-0.2l0.2,-0.2l0.2,-0.2l0.3,-0.3l0.2,-0.3l0.3,-0.2l0.2,-0.3l0.3,-0.3l0.2,-0.3l0.3,-0.3l0.2,-0.3l0.3,-0.2l0.2,-0.3l0.3,-0.3l0.2,-0.2l0.3,-0.2l0.2,-0.2l0.3,-0.2l0.2,-0.1l0.3,-0.2l0.2,0l0.3,-0.1l0.2,-0.1l0.5,0l0.3,0.1l0.2,0.1l0.3,0.1l0.2,0.1l0.3,0.2l0.2,0.1l0.3,0.2l0.2,0.3l0.3,0.2l0.2,0.3l0.3,0.2l0.2,0.3l0.3,0.3l0.2,0.3l0.2,0.3l0.3,0.3l0.2,0.3l0.3,0.3l0.2,0.3l0.3,0.2l0.2,0.3l0.3,0.2l0.2,0.2l0.3,0.2l0.2,0.2l0.3,0.1l0.2,0.1l0.3,0.1l0.2,0.1l0.5,0l0.3,-0.1l0.2,0l0.3,-0.1l0.2,-0.1l0.3,-0.2l0.2,-0.2l0.3,-0.2l0.2,-0.2l0.3,-0.2l0.2,-0.3l0.3,-0.3l0.2,-0.3l0.3,-0.3l0.2,-0.3l0.3,-0.3l0.2,-0.3l0.3,-0.3l0.2,-0.3l0.3,-0.3l0.2,-0.2l0.2,-0.3l0.3,-0.3l0.2,-0.2l0.3,-0.2l0.2,-0.2l0.3,-0.1l0.2,-0.2l0.3,-0.1l0.2,0l0.3,-0.1l0.5,0l0.2,0.1l0.3,0.1l0.2,0.1l0.3,0.1l0.2,0.2l0.3,0.2l0.2,0.2l0.3,0.3l0.2,0.2l0.3,0.3l0.2,0.3l0.3,0.3l0.2,0.3l0.3,0.3l0.2,0.4l0.3,0.3l0.2,0.3l0.3,0.3l0.2,0.3l0.3,0.3l0.2,0.2l0.3,0.3l0.2,0.2l0.3,0.2l0.2,0.2l0.2,0.1l0.3,0.1l0.2,0.1l0.3,0.1l0.7,0l0.3,-0.1l0.2,-0.1l0.3,-0.2l0.2,-0.1l0.3,-0.2l0.2,-0.2l0.3,-0.3l0.2,-0.3l0.3,-0.2l0.2,-0.3l0.3,-0.3l0.2,-0.4l0.3,-0.3l0.2,-0.3l0.3,-0.3l0.2,-0.4l0.3,-0.3l0.2,-0.3l0.3,-0.3l0.2,-0.3l0.3,-0.3l0.2,-0.2l0.3,-0.2l0.2,-0.2l0.3,-0.2l0.2,-0.1l0.3,-0.1l0.2,-0.1l0.7,0l0.3,0.1l0.2,0.1l0.3,0.1l0.2,0.2l0.3,0.2l0.2,0.2l0.3,0.2l0.2,0.3l0.3,0.3l0.2,0.3l0.3,0.3l0.2,0.3l0.3,0.4l0.2,0.3l0.3,0.3l0.2,0.4l0.3,0.3l0.2,0.3l0.3,0.4l0.2,0.3l0.3,0.2l0.2,0.3l0.3,0.2l0.2,0.2l0.3,0.2l0.2,0.2l0.3,0.1l0.2,0.1l0.3,0l0.2,0.1l0.3,-0.1l0.2,0l0.3,-0.1l0.2,-0.1l0.3,-0.2l0.2,-0.2l0.2,-0.2l0.3,-0.2l0.2,-0.3l0.3,-0.3l0.2,-0.3l0.3,-0.3l0.2,-0.3l0.3,-0.4l0.2,-0.3l0.3,-0.4l0.2,-0.3l0.3,-0.4l0.2,-0.3l0.3,-0.4l0.2,-0.3l0.3,-0.3l0.2,-0.3l0.3,-0.2l0.2,-0.3l0.3,-0.2l0.2,-0.1l0.3,-0.2l0.2,-0.1l0.3,-0.1l0.5,0l0.2,0.1l0.3,0l0.2,0.1l0.3,0.2l0.2,0.2l0.3,0.2l0.2,0.2l0.3,0.3l0.2,0.3l0.3,0.3l0.2,0.3l0.2,0.4l0.3,0.3l0.2,0.4l0.3,0.4l0.2,0.3l0.3,0.4l0.2,0.4l0.3,0.3l0.2,0.3l0.3,0.4l0.2,0.3l0.3,0.3l0.2,0.2l0.3,0.2l0.2,0.2l0.3,0.2l0.2,0.1l0.3,0.1l0.2,0l0.3,0.1l0.2,-0.1l0.3,0l0.2,-0.1l0.3,-0.2l0.2,-0.1l0.3,-0.2l0.2,-0.3l0.3,-0.2l0.2,-0.3l0.3,-0.3l0.2,-0.4l0.3,-0.3l0.2,-0.4l0.3,-0.4l0.2,-0.4l0.3,-0.4l0.2,-0.4l0.2,-0.3l0.3,-0.4l0.2,-0.4l0.3,-0.3l0.2,-0.3l0.3,-0.3l0.2,-0.3l0.3,-0.3l0.2,-0.2l0.3,-0.2l0.2,-0.1l0.3,-0.1l0.2,-0.1l0.8,0l0.2,0.1l0.3,0.2l0.2,0.1l0.3,0.2l0.2,0.3l0.3,0.2l0.2,0.3l0.3,0.3l0.2,0.4l0.3,0.3l0.2,0.4l0.3,0.4l0.2,0.4l0.3,0.4l0.2,0.4l0.3,0.4l0.2,0.4l0.3,0.4l0.2,0.4l0.3,0.3l0.2,0.3l0.2,0.3l0.3,0.3l0.2,0.3l0.3,0.2l0.2,0.1l0.3,0.2l0.2,0.1l0.8,0l0.2,-0.1l0.3,-0.1l0.2,-0.2l0.3,-0.2l0.2,-0.2l0.3,-0.3l0.2,-0.2l0.3,-0.4l0.2,-0.3l0.3,-0.4l0.2,-0.4l0.3,-0.4l0.2,-0.4l0.3,-0.4l0.2,-0.5l0.3,-0.4l0.2,-0.4l0.3,-0.4l0.2,-0.4l0.3,-0.4l0.2,-0.3l0.3,-0.4l0.2,-0.2l0.3,-0.3l0.2,-0.2l0.3,-0.2l0.2,-0.2l0.2,-0.1l0.3,-0.1l0.5,0l0.2,0.1l0.3,0.1l0.2,0.1l0.3,0.2l0.2,0.2l0.3,0.3l0.2,0.3l0.3,0.3l0.2,0.4l0.3,0.4l0.2,0.4l0.3,0.4l0.2,0.4l0.3,0.5l0.2,0.4l0.3,0.4l0.2,0.5l0.3,0.4l0.2,0.4l0.3,0.4l0.2,0.4l0.3,0.4l0.2,0.3l0.3,0.3l0.2,0.3l0.3,0.2l0.2,0.2l0.3,0.1l0.2,0.1l0.8,0l0.2,-0.1l0.2,-0.1l0.3,-0.2l0.2,-0.2l0.3,-0.3l0.2,-0.3l0.3,-0.3l0.2,-0.4l0.3,-0.4l0.2,-0.4l0.3,-0.4l0.2,-0.5l0.3,-0.4l0.2,-0.5l0.3,-0.5l0.2,-0.4l0.3,-0.5l0.2,-0.4l0.3,-0.5l0.2,-0.4l0.3,-0.4l0.2,-0.3l0.3,-0.4l0.2,-0.2l0.3,-0.3l0.2,-0.2l0.3,-0.2l0.2,-0.1l0.3,-0.1l0.2,0l0.3,0.1l0.2,0l0.3,0.1l0.2,0.2l0.3,0.2l0.2,0.3l0.3,0.3l0.2,0.3l0.2,0.4l0.3,0.4l0.2,0.4l0.3,0.5l0.2,0.4l0.3,0.5l0.2,0.5l0.3,0.5l0.2,0.5l0.3,0.5l0.2,0.5l0.3,0.4l0.2,0.5l0.3,0.4l0.2,0.4l0.3,0.3l0.2,0.4l0.3,0.2l0.2,0.3l0.3,0.2l0.2,0.1l0.3,0.1l0.2,0.1l0.3,0l0.2,-0.1l0.3,-0.1l0.2,-0.2l0.3,-0.2l0.2,-0.2l0.3,-0.3l0.2,-0.4l0.3,-0.3l0.2,-0.4l0.3,-0.5l0.2,-0.4l0.3,-0.5l0.2,-0.5l0.2,-0.6l0.3,-0.5l0.2,-0.5l0.3,-0.5l0.2,-0.5l0.3,-0.5l0.2,-0.5l0.3,-0.5l0.2,-0.4l0.3,-0.4l0.2,-0.4l0.3,-0.3l0.2,-0.2l0.3,-0.3l0.2,-0.1l0.3,-0.2l0.2,0l0.3,-0.1l0.2,0.1l0.3,0.1l0.2,0.1l0.3,0.2l0.2,0.3l0.3,0.2l0.2,0.4l0.3,0.4l0.2,0.4l0.3,0.4l0.2,0.5l0.3,0.5l0.2,0.6l0.3,0.5l0.2,0.6l0.3,0.5l0.2,0.6l0.3,0.5l0.2,0.6l0.2,0.5l0.3,0.5l0.2,0.5l0.3,0.4l0.2,0.4l0.3,0.3l0.2,0.4l0.3,0.2l0.2,0.2l0.3,0.2l0.2,0.1l0.5,0l0.3,-0.1l0.2,-0.1l0.3,-0.2l0.2,-0.2l0.3,-0.3l0.2,-0.3l0.3,-0.4l0.2,-0.5l0.3,-0.4l0.2,-0.5l0.3,-0.6l0.2,-0.5l0.3,-0.6l0.2,-0.6l0.3,-0.6l0.2,-0.6l0.3,-0.6l0.2,-0.6l0.3,-0.5l0.2,-0.6l0.3,-0.5l0.2,-0.5l0.3,-0.4l0.2,-0.4l0.2,-0.3l0.3,-0.3l0.2,-0.3l0.3,-0.2l0.2,-0.1l0.3,-0.1l0.5,0l0.2,0.2l0.3,0.1l0.2,0.3l0.3,0.2l0.2,0.4l0.3,0.4l0.2,0.4l0.3,0.5l0.2,0.5l0.3,0.6l0.2,0.6l0.3,0.6l0.2,0.6l0.3,0.6l0.2,0.7l0.3,0.6l0.2,0.6l0.3,0.7l0.2,0.6l0.3,0.5l0.2,0.5l0.3,0.5l0.2,0.5l0.3,0.4l0.2,0.3l0.3,0.3l0.2,0.3l0.3,0.1l0.2,0.1l0.2,0.1l0.3,0l0.2,-0.1l0.3,-0.2l0.2,-0.2l0.3,-0.3l0.2,-0.3l0.3,-0.4l0.2,-0.5l0.3,-0.5l0.2,-0.5l0.3,-0.6l0.2,-0.6l0.3,-0.7l0.2,-0.7l0.3,-0.6l0.2,-0.7l0.3,-0.7l0.2,-0.7l0.3,-0.7l0.2,-0.6l0.3,-0.6l0.2,-0.6l0.3,-0.6l0.2,-0.5l0.3,-0.4l0.2,-0.4l0.3,-0.4l0.2,-0.2l0.3,-0.3l0.2,-0.1l0.3,-0.1l0.2,0l0.3,0.1l0.2,0.1l0.3,0.2l0.2,0.3l0.2,0.3l0.3,0.5l0.2,0.4l0.3,0.5l0.2,0.6l0.3,0.6l0.2,0.7l0.3,0.7l0.2,0.7l0.3,0.7l0.2,0.8l0.3,0.7l0.2,0.7l0.3,0.8l0.2,0.7l0.3,0.7l0.2,0.6l0.3,0.6l0.2,0.6l0.3,0.5l0.2,0.5l0.3,0.4l0.2,0.3l0.3,0.3l0.2,0.2l0.3,0.1l0.5,0l0.2,-0.1l0.3,-0.2l0.2,-0.3l0.3,-0.3l0.2,-0.4l0.3,-0.5l0.2,-0.6l0.3,-0.6l0.2,-0.6l0.2,-0.7l0.3,-0.7l0.2,-0.8l0.3,-0.8l0.2,-0.8l0.3,-0.8l0.2,-0.8l0.3,-0.8l0.2,-0.8l0.3,-0.8l0.2,-0.7l0.3,-0.7l0.2,-0.6l0.3,-0.6l0.2,-0.6l0.3,-0.4l0.2,-0.4l0.3,-0.4l0.2,-0.2l0.3,-0.2l0.7,0l0.3,0.2l0.2,0.3l0.3,0.3l0.2,0.4l0.3,0.5l0.2,0.6l0.3,0.6l0.2,0.7l0.3,0.8l0.2,0.7l0.3,0.9l0.2,0.8l0.3,0.9l0.2,0.9l0.2,0.9l0.3,0.9l0.2,0.9l0.3,0.8l0.2,0.8l0.3,0.8l0.2,0.8l0.3,0.6l0.2,0.7l0.3,0.5l0.2,0.5l0.3,0.4l0.2,0.3l0.3,0.2l0.2,0.1l0.3,0.1l0.2,-0.1l0.3,-0.1l0.2,-0.3l0.3,-0.3l0.2,-0.5l0.3,-0.5l0.2,-0.6l0.3,-0.6l0.2,-0.8l0.3,-0.8l0.2,-0.8l0.3,-0.9l0.2,-0.9l0.3,-1l0.2,-1l0.3,-1l0.2,-1l0.3,-1l0.2,-0.9l0.3,-1l0.2,-0.8l0.2,-0.9l0.3,-0.8l0.2,-0.7l0.3,-0.7l0.2,-0.5l0.3,-0.5l0.2,-0.4l0.3,-0.3l0.2,-0.2l0.3,-0.1l0.2,0.1l0.3,0.1l0.2,0.2l0.3,0.3l0.2,0.5l0.3,0.5l0.2,0.6l0.3,0.7l0.2,0.8l0.3,0.9l0.2,0.9l0.3,1l0.2,1l0.3,1.1l0.2,1.1l0.3,1.1l0.2,1.1l0.3,1.2l0.2,1.1l0.3,1l0.2,1.1l0.3,0.9l0.2,1l0.3,0.8l0.2,0.8l0.2,0.7l0.3,0.5l0.2,0.5l0.3,0.4l0.2,0.3l0.3,0.1l0.2,0.1l0.3,-0.1l0.2,-0.2l0.3,-0.3l0.2,-0.5l0.3,-0.5l0.2,-0.7l0.3,-0.7l0.2,-0.9l0.3,-0.9l0.2,-1.1l0.3,-1.1l0.2,-1.1l0.3,-1.2l0.2,-1.3l0.3,-1.2l0.2,-1.3l0.3,-1.3l0.2,-1.3l0.3,-1.2l0.2,-1.2l0.3,-1.2l0.2,-1l0.3,-1.1l0.2,-0.9l0.3,-0.8l0.2,-0.8l0.3,-0.6l0.2,-0.5l0.3,-0.4l0.2,-0.2l0.2,-0.1l0.3,0l0.2,0.2l0.3,0.3l0.2,0.4l0.3,0.6l0.2,0.7l0.3,0.8l0.2,1l0.3,1l0.2,1.2l0.3,1.2l0.2,1.3l0.3,1.4l0.2,1.4l0.3,1.5l0.2,1.5l0.3,1.5l0.2,1.5l0.3,1.5l0.2,1.4l0.3,1.4l0.2,1.3l0.3,1.2l0.2,1.2l0.3,1l0.2,0.9l0.3,0.8l0.2,0.7l0.3,0.5l0.2,0.4l0.3,0.2l0.2,0l0.3,-0.1l0.2,-0.3l0.3,-0.4l0.2,-0.6l0.2,-0.8l0.3,-0.9l0.2,-1l0.3,-1.2l0.2,-1.3l0.3,-1.5l0.2,-1.5l0.3,-1.6l0.2,-1.7l0.3,-1.7l0.2,-1.8l0.3,-1.8l0.2,-1.8l0.3,-1.8l0.2,-1.7l0.3,-1.7l0.2,-1.7l0.3,-1.5l0.2,-1.5l0.3,-1.3l0.2,-1.2l0.3,-1l0.2,-0.9l0.3,-0.8l0.2,-0.5l0.3,-0.4l0.2,-0.1l0.3,0l0.2,0.2l0.3,0.5l0.2,0.6l0.3,0.8l0.2,1l0.3,1.2l0.2,1.4l0.3,1.6l0.2,1.7l0.2,1.8l0.3,1.9l0.2,2.1l0.3,2.1l0.2,2.2l0.3,2.2l0.2,2.3l0.3,2.3l0.2,2.2l0.3,2.2l0.2,2.1l0.3,2l0.2,2l0.3,1.7l0.2,1.7l0.3,1.4l0.2,1.3l0.3,1.1l0.2,0.8l0.3,0.6l0.2,0.4l0.3,0.1l0.2,-0.1l0.3,-0.4l0.2,-0.7l0.3,-0.9l0.2,-1.2l0.3,-1.4l0.2,-1.7l0.3,-1.9l0.2,-2.1l0.3,-2.3l0.2,-2.4l0.3,-2.7l0.2,-2.7l0.3,-2.9l0.2,-3l0.2,-3l0.3,-3l0.2,-3.1l0.3,-3l0.2,-2.9l0.3,-2.9l0.2,-2.7l0.3,-2.6l0.2,-2.4l0.3,-2.2l0.2,-2l0.3,-1.6l0.2,-1.5l0.3,-1.1l0.2,-0.7l0.3,-0.5l0.2,-0.1l0.3,0.3l0.2,0.6l0.3,1.1l0.2,1.4l0.3,1.7l0.2,2.1l0.3,2.5l0.2,2.8l0.3,3.2l0.2,3.4l0.3,3.7l0.2,4l0.3,4.1l0.2,4.4l0.3,4.5l0.2,4.6l0.3,4.7l0.2,4.7l0.3,4.7l0.2,4.7l0.2,4.5l0.3,4.4l0.2,4.1l0.3,3.9l0.2,3.7l0.3,3.2l0.2,2.9l0.3,2.4l0.2,2l0.3,1.5l0.2,0.9l0.3,0.3l0.2,-0.2l0.3,-0.9l0.2,-1.6l0.3,-2.2l0.2,-2.9l0.3,-3.6l0.2,-4.3l0.3,-5l0.2,-5.7l0.3,-6.4l0.2,-7l0.3,-7.7l0.2,-8.3l0.3,-8.9l0.2,-9.4l0.3,-10l0.2,-10.4l0.3,-10.9l0.2,-11.2l0.3,-11.5l0.2,-11.9l0.3,-12l0.2,-12.1l0.3,-12.2l0.2,-12.3l0.2,-12.2l0.3,-12l0.2,-11.9l0.3,-11.6l0.2,-11.3l0.3,-10.9l0.2,-10.5l0.3,-10l0.2,-9.4l0.3,-8.8l0.2,-8.1l0.3,-7.4l0.2,-6.6l0.3,-5.8l0.2,-5l0.3,-4.1l0.2,-3.3l0.3,-2.3l0.2,-1.4l0.3,-0.5l0.2,0.5l0.3,1.4l0.2,2.3l0.3,3.3l0.2,4.1l0.3,5l0.2,5.8l0.3,6.6l0.2,7.4l0.3,8.1l0.2,8.8l0.3,9.4l0.2,10l0.3,10.5l0.2,10.9l0.3,11.3l0.2,11.6l0.2,11.9l0.3,12l0.2,12.2l0.3,12.3l0.2,12.2l0.3,12.1l0.2,12l0.3,11.9l0.2,11.5l0.3,11.2l0.2,10.9l0.3,10.4l0.2,10l0.3,9.4l0.2,8.9l0.3,8.3l0.2,7.7l0.3,7l0.2,6.4l0.3,5.7l0.2,5l0.3,4.3l0.2,3.6l0.3,2.9l0.2,2.2l0.3,1.6l0.2,0.9l0.3,0.2l0.2,-0.3l0.3,-0.9l0.2,-1.5l0.3,-2l0.2,-2.4l0.3,-2.9l0.2,-3.2l0.3,-3.7l0.2,-3.9l0.2,-4.1l0.3,-4.4l0.2,-4.5l0.3,-4.7l0.2,-4.7l0.3,-4.7l0.2,-4.7l0.3,-4.6l0.2,-4.5l0.3,-4.4l0.2,-4.1l0.3,-4l0.2,-3.7l0.3,-3.4l0.2,-3.2l0.3,-2.8l0.2,-2.5l0.3,-2.1l0.2,-1.7l0.3,-1.4l0.2,-1.1l0.3,-0.6l0.2,-0.3l0.3,0.1l0.2,0.5l0.3,0.7l0.2,1.1l0.3,1.5l0.2,1.6l0.3,2l0.2,2.2l0.3,2.4l0.2,2.6l0.3,2.7l0.2,2.9l0.3,2.9l0.2,3l0.2,3.1l0.3,3l0.2,3l0.3,3l0.2,2.9l0.3,2.7l0.2,2.7l0.3,2.4l0.2,2.3l0.3,2.1l0.2,1.9l0.3,1.7l0.2,1.4l0.3,1.2l0.2,0.9l0.3,0.7l0.2,0.4l0.3,0.1l0.2,-0.1l0.3,-0.4l0.2,-0.6l0.3,-0.8l0.2,-1.1l0.3,-1.3l0.2,-1.4l0.3,-1.7l0.2,-1.7l0.3,-2l0.2,-2l0.3,-2.1l0.2,-2.2l0.3,-2.2l0.2,-2.3l0.3,-2.3l0.2,-2.2l0.3,-2.2l0.2,-2.1l0.2,-2.1l0.3,-1.9l0.2,-1.8l0.3,-1.7l0.2,-1.6l0.3,-1.4l0.2,-1.2l0.3,-1l0.2,-0.8l0.3,-0.6l0.2,-0.5l0.3,-0.2l0.2,0l0.3,0.1l0.2,0.4l0.3,0.5l0.2,0.8l0.3,0.9l0.2,1l0.3,1.2l0.2,1.3l0.3,1.5l0.2,1.5l0.3,1.7l0.2,1.7l0.3,1.7l0.2,1.8l0.3,1.8l0.2,1.8l0.3,1.8l0.2,1.7l0.3,1.7l0.2,1.6l0.3,1.5l0.2,1.5l0.3,1.3l0.2,1.2l0.2,1l0.3,0.9l0.2,0.8l0.3,0.6l0.2,0.4l0.3,0.3l0.2,0.1l0.3,0l0.2,-0.2l0.3,-0.4l0.2,-0.5l0.3,-0.7l0.2,-0.8l0.3,-0.9l0.2,-1l0.3,-1.2l0.2,-1.2l0.3,-1.3l0.2,-1.4l0.3,-1.4l0.2,-1.5l0.3,-1.5l0.2,-1.5l0.3,-1.5l0.2,-1.5l0.3,-1.4l0.2,-1.4l0.3,-1.3l0.2,-1.2l0.3,-1.2l0.2,-1l0.3,-1l0.2,-0.8l0.3,-0.7l0.2,-0.6l0.3,-0.4l0.2,-0.3l0.2,-0.2l0.3,0l0.2,0.1l0.3,0.2l0.2,0.4l0.3,0.5l0.2,0.6l0.3,0.8l0.2,0.8l0.3,0.9l0.2,1.1l0.3,1l0.2,1.2l0.3,1.2l0.2,1.2l0.3,1.3l0.2,1.3l0.3,1.3l0.2,1.2l0.3,1.3l0.2,1.2l0.3,1.1l0.2,1.1l0.3,1.1l0.2,0.9l0.3,0.9l0.2,0.7l0.3,0.7l0.2,0.5l0.3,0.5l0.2,0.3l0.3,0.2l0.2,0.1l0.3,-0.1l0.2,-0.1l0.3,-0.3l0.2,-0.4l0.2,-0.5l0.3,-0.5l0.2,-0.7l0.3,-0.8l0.2,-0.8l0.3,-1l0.2,-0.9l0.3,-1.1l0.2,-1l0.3,-1.1l0.2,-1.2l0.3,-1.1l0.2,-1.1l0.3,-1.1l0.2,-1.1l0.3,-1l0.2,-1l0.3,-0.9l0.2,-0.9l0.3,-0.8l0.2,-0.7l0.3,-0.6l0.2,-0.5l0.3,-0.5l0.2,-0.3l0.3,-0.2l0.2,-0.1l0.3,-0.1l0.2,0.1l0.3,0.2l0.2,0.3l0.3,0.4l0.2,0.5l0.3,0.5l0.2,0.7l0.3,0.7l0.2,0.8l0.2,0.9l0.3,0.8l0.2,1l0.3,0.9l0.2,1l0.3,1l0.2,1l0.3,1l0.2,1l0.3,0.9l0.2,0.9l0.3,0.8l0.2,0.8l0.3,0.8l0.2,0.6l0.3,0.6l0.2,0.5l0.3,0.5l0.2,0.3l0.3,0.3l0.2,0.1l0.3,0.1l0.2,-0.1l0.3,-0.1l0.2,-0.2l0.3,-0.3l0.2,-0.4l0.3,-0.5l0.2,-0.5l0.3,-0.7l0.2,-0.6l0.3,-0.8l0.2,-0.8l0.3,-0.8l0.2,-0.8l0.3,-0.9l0.2,-0.9l0.2,-0.9l0.3,-0.9l0.2,-0.9l0.3,-0.8l0.2,-0.9l0.3,-0.7l0.2,-0.8l0.3,-0.7l0.2,-0.6l0.3,-0.6l0.2,-0.5l0.3,-0.4l0.2,-0.3l0.3,-0.3l0.2,-0.2l0.8,0l0.2,0.2l0.3,0.2l0.2,0.4l0.3,0.4l0.2,0.4l0.3,0.6l0.2,0.6l0.3,0.6l0.2,0.7l0.3,0.7l0.2,0.8l0.3,0.8l0.2,0.8l0.3,0.8l0.2,0.8l0.3,0.8l0.2,0.8l0.3,0.8l0.2,0.7l0.2,0.7l0.3,0.6l0.2,0.6l0.3,0.6l0.2,0.5l0.3,0.4l0.2,0.3l0.3,0.3l0.2,0.2l0.3,0.1l0.5,0l0.2,-0.1l0.3,-0.2l0.2,-0.3l0.3,-0.3l0.2,-0.4l0.3,-0.5l0.2,-0.5l0.3,-0.6l0.2,-0.6l0.3,-0.6l0.2,-0.7l0.3,-0.7l0.2,-0.8l0.3,-0.7l0.2,-0.7l0.3,-0.8l0.2,-0.7l0.3,-0.7l0.2,-0.7l0.3,-0.7l0.2,-0.6l0.3,-0.6l0.2,-0.5l0.3,-0.4l0.2,-0.5l0.2,-0.3l0.3,-0.3l0.2,-0.2l0.3,-0.1l0.2,-0.1l0.3,0l0.2,0.1l0.3,0.1l0.2,0.3l0.3,0.2l0.2,0.4l0.3,0.4l0.2,0.4l0.3,0.5l0.2,0.6l0.3,0.6l0.2,0.6l0.3,0.6l0.2,0.7l0.3,0.7l0.2,0.7l0.3,0.7l0.2,0.6l0.3,0.7l0.2,0.7l0.3,0.6l0.2,0.6l0.3,0.5l0.2,0.5l0.3,0.5l0.2,0.4l0.3,0.3l0.2,0.3l0.3,0.2l0.2,0.2l0.3,0.1l0.2,0l0.2,-0.1l0.3,-0.1l0.2,-0.1l0.3,-0.3l0.2,-0.3l0.3,-0.3l0.2,-0.4l0.3,-0.5l0.2,-0.5l0.3,-0.5l0.2,-0.5l0.3,-0.6l0.2,-0.7l0.3,-0.6l0.2,-0.6l0.3,-0.7l0.2,-0.6l0.3,-0.6l0.2,-0.6l0.3,-0.6l0.2,-0.6l0.3,-0.5l0.2,-0.5l0.3,-0.4l0.2,-0.4l0.3,-0.4l0.2,-0.2l0.3,-0.3l0.2,-0.1l0.3,-0.2l0.5,0l0.2,0.1l0.3,0.1l0.2,0.2l0.3,0.3l0.2,0.3l0.2,0.3l0.3,0.4l0.2,0.4l0.3,0.5l0.2,0.5l0.3,0.6l0.2,0.5l0.3,0.6l0.2,0.6l0.3,0.6l0.2,0.6l0.3,0.6l0.2,0.6l0.3,0.5l0.2,0.6l0.3,0.5l0.2,0.4l0.3,0.5l0.2,0.4l0.3,0.3l0.2,0.3l0.3,0.2l0.2,0.2l0.3,0.1l0.2,0.1l0.5,0l0.3,-0.1l0.2,-0.2l0.3,-0.2l0.2,-0.2l0.3,-0.4l0.2,-0.3l0.3,-0.4l0.2,-0.4l0.3,-0.5l0.2,-0.5l0.2,-0.5l0.3,-0.6l0.2,-0.5l0.3,-0.6l0.2,-0.5l0.3,-0.6l0.2,-0.5l0.3,-0.6l0.2,-0.5l0.3,-0.5l0.2,-0.4l0.3,-0.4l0.2,-0.4l0.3,-0.4l0.2,-0.2l0.3,-0.3l0.2,-0.2l0.3,-0.1l0.2,-0.1l0.3,-0.1l0.2,0.1l0.3,0l0.2,0.2l0.3,0.1l0.2,0.3l0.3,0.2l0.2,0.3l0.3,0.4l0.2,0.4l0.3,0.4l0.2,0.5l0.3,0.5l0.2,0.5l0.3,0.5l0.2,0.5l0.3,0.5l0.2,0.5l0.2,0.6l0.3,0.5l0.2,0.5l0.3,0.4l0.2,0.5l0.3,0.4l0.2,0.3l0.3,0.4l0.2,0.3l0.3,0.2l0.2,0.2l0.3,0.2l0.2,0.1l0.3,0.1l0.2,0l0.3,-0.1l0.2,-0.1l0.3,-0.1l0.2,-0.2l0.3,-0.3l0.2,-0.2l0.3,-0.4l0.2,-0.3l0.3,-0.4l0.2,-0.4l0.3,-0.5l0.2,-0.4l0.3,-0.5l0.2,-0.5l0.3,-0.5l0.2,-0.5l0.3,-0.5l0.2,-0.5l0.3,-0.4l0.2,-0.5l0.3,-0.4l0.2,-0.4l0.2,-0.4l0.3,-0.3l0.2,-0.3l0.3,-0.3l0.2,-0.2l0.3,-0.2l0.2,-0.1l0.3,0l0.2,-0.1l0.3,0l0.2,0.1l0.3,0.1l0.2,0.2l0.3,0.2l0.2,0.3l0.3,0.2l0.2,0.4l0.3,0.3l0.2,0.4l0.3,0.4l0.2,0.5l0.3,0.4l0.2,0.5l0.3,0.4l0.2,0.5l0.3,0.5l0.2,0.4l0.3,0.5l0.2,0.4l0.3,0.4l0.2,0.4l0.3,0.4l0.2,0.3l0.3,0.3l0.2,0.3l0.3,0.2l0.2,0.2l0.2,0.1l0.3,0.1l0.7,0l0.3,-0.1l0.2,-0.1l0.3,-0.2l0.2,-0.2l0.3,-0.3l0.2,-0.3l0.3,-0.3l0.2,-0.4l0.3,-0.4l0.2,-0.4l0.3,-0.4l0.2,-0.4l0.3,-0.5l0.2,-0.4l0.3,-0.4l0.2,-0.5l0.3,-0.4l0.2,-0.4l0.3,-0.4l0.2,-0.4l0.3,-0.4l0.2,-0.3l0.3,-0.3l0.2,-0.3l0.3,-0.2l0.2,-0.2l0.3,-0.1l0.2,-0.1l0.3,-0.1l0.5,0l0.2,0.1l0.2,0.1l0.3,0.2l0.2,0.2l0.3,0.2l0.2,0.3l0.3,0.2l0.2,0.4l0.3,0.3l0.2,0.4l0.3,0.4l0.2,0.4l0.3,0.4l0.2,0.4l0.3,0.5l0.2,0.4l0.3,0.4l0.2,0.4l0.3,0.4l0.2,0.4l0.3,0.3l0.2,0.4l0.3,0.2l0.2,0.3l0.3,0.2l0.2,0.2l0.3,0.2l0.2,0.1l0.3,0.1l0.7,0l0.3,-0.1l0.2,-0.2l0.3,-0.1l0.2,-0.2l0.3,-0.3l0.2,-0.3l0.2,-0.3l0.3,-0.3l0.2,-0.3l0.3,-0.4l0.2,-0.4l0.3,-0.4l0.2,-0.4l0.3,-0.4l0.2,-0.4l0.3,-0.4l0.2,-0.4l0.3,-0.4l0.2,-0.3l0.3,-0.4l0.2,-0.3l0.3,-0.3l0.2,-0.2l0.3,-0.3l0.2,-0.2l0.3,-0.1l0.2,-0.2l0.3,-0.1l0.7,0l0.3,0.1l0.2,0.1l0.3,0.1l0.2,0.2l0.3,0.2l0.2,0.3l0.3,0.3l0.2,0.3l0.3,0.3l0.2,0.3l0.3,0.4l0.2,0.4l0.2,0.3l0.3,0.4l0.2,0.4l0.3,0.4l0.2,0.4l0.3,0.4l0.2,0.3l0.3,0.4l0.2,0.3l0.3,0.3l0.2,0.2l0.3,0.3l0.2,0.2l0.3,0.1l0.2,0.2l0.3,0.1l0.2,0l0.3,0.1l0.2,-0.1l0.3,0l0.2,-0.1l0.3,-0.1l0.2,-0.2l0.3,-0.2l0.2,-0.2l0.3,-0.2l0.2,-0.3l0.3,-0.3l0.2,-0.4l0.3,-0.3l0.2,-0.3l0.3,-0.4l0.2,-0.4l0.3,-0.3l0.2,-0.4l0.2,-0.4l0.3,-0.3l0.2,-0.4l0.3,-0.3l0.2,-0.3l0.3,-0.3l0.2,-0.3l0.3,-0.2l0.2,-0.2l0.3,-0.2l0.2,-0.2l0.3,-0.1l0.2,0l0.3,-0.1l0.5,0l0.2,0.1l0.3,0.1l0.2,0.2l0.3,0.1l0.2,0.2l0.3,0.3l0.2,0.2l0.3,0.3l0.2,0.3l0.3,0.3l0.2,0.4l0.3,0.3l0.2,0.4l0.3,0.3l0.2,0.4l0.3,0.3l0.2,0.4l0.3,0.3l0.2,0.3l0.3,0.3l0.2,0.3l0.2,0.3l0.3,0.2l0.2,0.2l0.3,0.2l0.2,0.2l0.3,0.1l0.2,0.1l0.3,0l0.2,0.1l0.3,-0.1l0.2,0l0.3,-0.1l0.2,-0.1l0.3,-0.2l0.2,-0.2l0.3,-0.2l0.2,-0.2l0.3,-0.3l0.2,-0.2l0.3,-0.3l0.2,-0.4l0.3,-0.3l0.2,-0.3l0.3,-0.4l0.2,-0.3l0.3,-0.3l0.2,-0.4l0.3,-0.3l0.2,-0.3l0.3,-0.3l0.2,-0.3l0.3,-0.3l0.2,-0.2l0.3,-0.2l0.2,-0.2l0.3,-0.2l0.2,-0.1l0.2,-0.1l0.3,-0.1l0.7,0l0.3,0.1l0.2,0.1l0.3,0.1l0.2,0.2l0.3,0.2l0.2,0.2l0.3,0.2l0.2,0.3l0.3,0.3l0.2,0.3l0.3,0.3l0.2,0.3l0.3,0.4l0.2,0.3l0.3,0.3l0.2,0.3l0.3,0.4l0.2,0.3l0.3,0.3l0.2,0.2l0.3,0.3l0.2,0.3l0.3,0.2l0.2,0.2l0.3,0.1l0.2,0.2l0.3,0.1l0.2,0.1l0.8,0l0.2,-0.1l0.2,-0.1l0.3,-0.1l0.2,-0.1l0.3,-0.2l0.2,-0.2l0.3,-0.2l0.2,-0.3l0.3,-0.2l0.2,-0.3l0.3,-0.3l0.2,-0.3l0.3,-0.3l0.2,-0.3l0.3,-0.4l0.2,-0.3l0.3,-0.3l0.2,-0.3l0.3,-0.3l0.2,-0.3l0.3,-0.2l0.2,-0.3l0.3,-0.2l0.2,-0.2l0.3,-0.2l0.2,-0.1l0.3,-0.1l0.2,-0.1l0.3,-0.1l0.5,0l0.2,0.1l0.3,0l0.2,0.1l0.3,0.2l0.2,0.1l0.3,0.2l0.2,0.2l0.2,0.2l0.3,0.3l0.2,0.3l0.3,0.2l0.2,0.3l0.3,0.3l0.2,0.3l0.3,0.3l0.2,0.3l0.3,0.3l0.2,0.3l0.3,0.3l0.2,0.3l0.3,0.3l0.2,0.2l0.3,0.2l0.2,0.2l0.3,0.2l0.2,0.2l0.3,0.1l0.2,0.1l0.3,0l0.2,0.1l0.5,0l0.3,-0.1l0.2,-0.1l0.3,-0.1l0.2,-0.1l0.3,-0.2l0.2,-0.2l0.3,-0.2l0.2,-0.2l0.3,-0.3l0.2,-0.2l0.3,-0.3l0.2,-0.3l0.2,-0.3l0.3,-0.3l0.2,-0.3l0.3,-0.3l0.2,-0.3l0.3,-0.3l0.2,-0.2l0.3,-0.3l0.2,-0.2l0.3,-0.3l0.2,-0.2l0.3,-0.1l0.2,-0.2l0.3,-0.1l0.2,-0.1l0.3,-0.1l0.2,-0.1l0.5,0l0.3,0.1l0.2,0.1l0.3,0l0.2,0.2l0.3,0.1l0.2,0.2l0.3,0.2l0.2,0.2l0.3,0.2l0.2,0.3l0.3,0.3l0.2,0.2l0.3,0.3l0.2,0.3l0.3,0.3l0.2,0.3l0.3,0.3l0.2,0.2l0.2,0.3l0.3,0.3l0.2,0.2l0.3,0.2l0.2,0.2l0.3,0.2l0.2,0.2l0.3,0.1l0.2,0.1l0.3,0.1l0.2,0.1l0.8,0l0.2,-0.1l0.3,-0.1l0.2,-0.1l0.3,-0.1l0.2,-0.2l0.3,-0.2l0.2,-0.2l0.3,-0.2l0.2,-0.2"/>
 </g>
</svg>