<?xml version="1.0" standalone="no"?> <!DOCTYPE svg PUBLIC "-//W3C//DTD SVG 20010904//EN" "http://www.w3.org/TR/2001/REC-SVG-20010904/DTD/svg10.dtd"> <svg version="1.0" xmlns="http://www.w3.org/2000/svg" width="1280.000000pt" height="1248.000000pt" viewBox="0 0 1280.000000 1248.000000" preserveAspectRatio="xMidYMid meet"> <g transform="translate(0.000000,1248.000000) scale(0.100000,-0.100000)" fill="#000000" stroke="none"> <path d="M6020 12469 c-41 -5 -136 -16 -210 -24 -799 -89 -1572 -490 -2123 -1100 -479 -531 -777 -1187 -863 -1905 -24 -194 -24 -581 0 -770 94 -766 412 -1440 935 -1982 580 -602 1334 -963 2169 -1038 170 -16 574 -7 732 15 638 89 1204 332 1705 731 212 169 475 450 642 684 333 469 540 1011 609 1600 21 174 23 531 6 700 -121 1148 -770 2126 -1778 2679 -334 183 -752 322 -1129 375 -269 38 -554 53 -695 35z"/> <path d="M8555 5854 c-446 -338 -1055 -600 -1635 -703 -268 -48 -361 -55 -700 -55 -281 0 -347 3 -490 22 -675 92 -1279 328 -1807 706 l-97 70 -104 -18 c-156 -26 -435 -99 -616 -160 -443 -150 -866 -370 -1246 -649 -331 -243 -688 -597 -939 -931 -492 -654 -802 -1441 -885 -2246 -32 -310 -39 -429 -33 -555 35 -783 226 -1154 657 -1278 342 -99 638 -67 1820 193 513 113 888 182 1225 225 400 51 265 48 2570 53 1485 2 2206 0 2330 -8 480 -29 939 -101 1670 -261 540 -119 935 -196 1106 -218 90 -11 203 -26 250 -32 199 -26 478 19 655 106 273 134 433 430 483 895 6 52 15 139 21 192 13 122 13 289 0 415 -5 54 -17 169 -25 255 -77 804 -391 1607 -885 2263 -237 315 -549 630 -865 875 -486 376 -1077 661 -1676 809 -191 47 -483 99 -602 106 l-82 5 -100 -76z"/> </g> </svg>