<?xml version="1.0" standalone="no"?>
<!DOCTYPE svg PUBLIC "-//W3C//DTD SVG 1.1//EN" "http://www.w3.org/Graphics/SVG/1.1/DTD/svg11.dtd" >
<svg>
<metadata>
Created by FontForge 20090914 at Mon Apr 29 17:47:37 2013
 By www-data
From the WSI-FONT Collection.  Copyright (c) 1992 WSI.  All Rights Reserved.  Redistribution strictly prohibited.
</metadata>
<defs>
<font id="UniversalCondensedRegular" horiz-adv-x="361" >
  <font-face 
    font-family="Universal Condensed"
    font-weight="5"
    font-stretch="normal"
    units-per-em="1000"
    panose-1="0 0 0 0 0 0 0 0 0 0"
    ascent="800"
    descent="-200"
    x-height="463"
    cap-height="666"
    bbox="-55 -211 2403 862"
    underline-thickness="50"
    underline-position="-75"
    unicode-range="U+0020-U+F002"
  />
<missing-glyph horiz-adv-x="800" 
d="M50 0v800h700v-800h-700zM700 50v700h-600v-700h600z" />
    <glyph glyph-name=".notdef" horiz-adv-x="800" 
d="M50 0v800h700v-800h-700zM700 50v700h-600v-700h600z" />
    <glyph glyph-name="space" unicode=" " horiz-adv-x="609" 
 />
    <glyph glyph-name="exclam" unicode="!" horiz-adv-x="195" 
d="M150 666l-15 -510h-67l-17 510h99zM146 0h-85v90h85v-90z" />
    <glyph glyph-name="quotedbl" unicode="&#x22;" horiz-adv-x="334" 
d="M299 666l-67 -156h-54l29 156h92zM164 666l-66 -156h-55l31 156h90z" />
    <glyph glyph-name="numbersign" unicode="#" horiz-adv-x="609" 
d="M566 473l-17 -78h-94l-33 -133h99l-17 -78h-100l-49 -186h-66l51 186h-110l-48 -186h-63l45 186h-107l19 78h108l31 133h-115l15 78h117l45 191h69l-47 -191h109l43 191h69l-45 -191h91zM387 393h-108l-33 -133h109z" />
    <glyph glyph-name="dollar" unicode="$" horiz-adv-x="445" 
d="M394 194c0 -52 -11.5 -91.499 -34.5 -118.499s-60.167 -44.5 -111.5 -52.5v-66h-49v66c-61.333 6.66699 -102 25.834 -122 57.501s-30 81.5 -30 149.5h82c0 -40.667 3.66699 -72 11 -94s27 -37.333 59 -46v219c-55.333 37.333 -92 67.666 -110 90.999
s-27 58.666 -27 105.999c0 39.333 13.667 70.5 41 93.5s59.333 37.5 96 43.5v68h49v-68c56.667 -6 94.667 -25.5 114 -58.5s29 -74.167 29 -123.5h-84c0 32.667 -3.16699 58.167 -9.5 76.5s-22.833 30.5 -49.5 36.5v-201c45.333 -28 81 -51.667 107 -71s39 -55.333 39 -108z
M199 400.001l-0.00195312 174c-13.333 -4.66699 -25.666 -13 -36.999 -25s-17 -25 -17 -39c0 -26 2.83301 -45.833 8.5 -59.5s20.834 -30.5 45.501 -50.5zM313.998 180.001c0 20 -4.66895 38 -14.002 54s-26.666 32.333 -51.999 49v-193c18.667 4 34.334 15.5 47.001 34.5
s19 37.5 19 55.5z" />
    <glyph glyph-name="percent" unicode="%" horiz-adv-x="527" 
d="M215 432c0 -43.333 -6.83301 -73.667 -20.5 -91s-38.5 -26 -74.5 -26c-38 0 -64.167 9 -78.5 27s-21.5 48 -21.5 90v125c0 36.667 7.33301 65.667 22 87s39.667 32 75 32s60.5 -10 75.5 -30s22.5 -48 22.5 -84v-130zM461 665.999l-340 -666h-66l351 666h55zM506 89.999
c0 -32 -7.83398 -55.5 -23.501 -70.5s-38.5 -22.5 -68.5 -22.5c-36.667 0 -62.667 6.66699 -78 20s-23 36.333 -23 69v174c0 30 8.66699 53.333 26 70s41 25 71 25c30.667 0 54.334 -9.33301 71.001 -28s25 -42.667 25 -72v-165zM145.999 394.999l0.000976562 181
c0 18 -0.833008 30.667 -2.5 38s-10.167 11 -25.5 11c-12.667 0 -20.5 -3 -23.5 -9s-4.5 -19.333 -4.5 -40v-178c0 -11.333 1.66699 -19.5 5 -24.5s10.333 -7.5 21 -7.5c13.333 0 21.666 2.5 24.999 7.5s5 12.167 5 21.5zM439 75.999v194c0 22 -9.66699 33 -29 33
s-29 -11 -29 -33v-194c0 -21.333 8.66699 -32 26 -32c21.333 0 32 10.667 32 32z" />
    <glyph glyph-name="ampersand" unicode="&#x26;" horiz-adv-x="473" 
d="M473 305h-77.998v-303c-41.333 -5.33301 -83 -8 -125 -8c-84.667 0 -147.334 15.333 -188.001 46s-61 79.334 -61 146.001c0 42 10 77.667 30 107s51.667 48.333 95 57c-38.667 16.667 -65.834 35.167 -81.501 55.5s-23.5 55.166 -23.5 104.499
c0 51.333 15.167 91.5 45.5 120.5s78.833 43.5 145.5 43.5h77v-72c-65.333 0 -111.333 -5.5 -138 -16.5s-40 -35.167 -40 -72.5c0 -46 9.5 -79.833 28.5 -101.5s53.167 -32.5 102.5 -32.5h47v90h86v-90h78v-74zM309.002 68v237h-88c-32.667 0 -59.167 -11.5 -79.5 -34.5
s-30.5 -51.167 -30.5 -84.5c0 -26.667 10 -53 30 -79s42 -39 66 -39h102z" />
    <glyph glyph-name="quotesingle" unicode="'" horiz-adv-x="195" 
d="M164 666l-66 -156h-55l31 156h90z" />
    <glyph glyph-name="parenleft" unicode="(" horiz-adv-x="223" 
d="M182 -127l-57.001 0.00195312c-1.33301 0 -9.83301 22.833 -25.5 68.5s-30.834 99.167 -45.501 160.5s-22 114 -22 158c0 56 7.33301 117.5 22 184.5s29.667 124.333 45 172s24 71.5 26 71.5h57c-5.33301 -24.667 -12.666 -60.5 -21.999 -107.5
s-18.166 -98.333 -26.499 -154s-12.5 -103.5 -12.5 -143.5c0 -44.667 4 -93.834 12 -147.501s18 -110.834 30 -171.501s18.333 -91 19 -91z" />
    <glyph glyph-name="parenright" unicode=")" horiz-adv-x="223" 
d="M176 278c0 -52.667 -6.33496 -107.167 -19.002 -163.5s-27.667 -110.666 -45 -162.999s-26.666 -78.5 -27.999 -78.5h-59c0.666992 0 6.33398 24.667 17.001 74s21 106.166 31 170.499s15 119.5 15 165.5c0 64 -4.66699 126.167 -14 186.5s-19.5 111.833 -30.5 154.5
s-17.167 64 -18.5 64h59c0.666992 0 9.66699 -27.167 27 -81.5s32.5 -110.5 45.5 -168.5s19.5 -111.333 19.5 -160z" />
    <glyph glyph-name="asterisk" unicode="*" 
d="M332 521l-103 -35l64 -90l-53 -37l-64 88l-67 -88l-50 37l66 90l-107 35l21 61l106 -35v119h64v-119l104 35z" />
    <glyph glyph-name="plus" unicode="+" horiz-adv-x="473" 
d="M447 268h-179v-198h-65v198h-183v64h183v180h65v-180h179v-64z" />
    <glyph glyph-name="comma" unicode="," horiz-adv-x="223" 
d="M178 57l-74 -174h-61l35 174h100z" />
    <glyph glyph-name="hyphen" unicode="-" horiz-adv-x="223" 
d="M195 217h-170v76h170v-76z" />
    <glyph glyph-name="hyphen" unicode="&#xad;" horiz-adv-x="223" 
d="M195 217h-170v76h170v-76z" />
    <glyph glyph-name="period" unicode="." horiz-adv-x="223" 
d="M152 0h-84v90h84v-90z" />
    <glyph glyph-name="slash" unicode="/" horiz-adv-x="445" 
d="M465 666l-395 -773h-74l391 773h78z" />
    <glyph glyph-name="zero" unicode="0" horiz-adv-x="445" 
d="M400 177c0 -58.667 -13.6689 -103.833 -41.002 -135.5s-72.333 -47.5 -135 -47.5c-63.333 0 -109.666 15.167 -138.999 45.5s-44 74.166 -44 131.499v315c0 58 13.833 103.833 41.5 137.5s74.834 50.5 141.501 50.5c60 0 104.333 -16.167 133 -48.5
s43 -78.166 43 -137.499v-311zM311.998 173.001v312c0 42 -7.83301 72.5 -23.5 91.5s-36.834 28.5 -63.501 28.5c-33.333 0 -57.666 -10 -72.999 -30s-23 -50.333 -23 -91v-314c0 -32 7.16699 -57.667 21.5 -77s38.833 -29 73.5 -29c26.667 0 48 9.66699 64 29s24 46 24 80z
" />
    <glyph glyph-name="one" unicode="1" horiz-adv-x="445" 
d="M299 0l-90.001 0.000976562v563c-29.333 -24.667 -62.666 -46.334 -99.999 -65.001v84c40.667 22 78.667 50 114 84h76v-666z" />
    <glyph glyph-name="two" unicode="2" horiz-adv-x="445" 
d="M398 0l-355.001 0.000976562v74c98 122.667 164 213.5 198 272.5s51 113.5 51 163.5c0 28.667 -5.66699 51.5 -17 68.5s-33 25.5 -65 25.5c-28 0 -48.167 -10.5 -60.5 -31.5s-18.5 -48.5 -18.5 -82.5h-88c0 58 14 103.167 42 135.5s72 48.5 132 48.5
c58.667 0 100.5 -16.167 125.5 -48.5s37.5 -73.5 37.5 -123.5c0 -38.667 -7 -74.834 -21 -108.501s-38.167 -74 -72.5 -121s-86.166 -113.167 -155.499 -198.5h267v-74z" />
    <glyph glyph-name="three" unicode="3" horiz-adv-x="445" 
d="M398 188c0 -58 -13.332 -104.498 -39.999 -139.498s-74.667 -52.5 -144 -52.5c-59.333 0 -103 14.667 -131 44s-42 77.333 -42 144h88c0 -38.667 6.83301 -68.334 20.5 -89.001s39.167 -31 76.5 -31c35.333 0 58.166 10.833 68.499 32.5s15.5 52.167 15.5 91.5
c0 41.333 -9.83301 72.5 -29.5 93.5s-54.5 31.5 -104.5 31.5v76c49.333 0 81.333 10.167 96 30.5s22 48.5 22 84.5c0 28.667 -5.66699 52.5 -17 71.5s-31 28.5 -59 28.5c-36 0 -57.833 -10 -65.5 -30s-11.5 -50.667 -11.5 -92l-94 2c0 62.667 11.333 110 34 142
s68.667 48 138 48c52 0 92.167 -15.5 120.5 -46.5s42.5 -70.167 42.5 -117.5c0 -46 -9.5 -81.167 -28.5 -105.5s-47.5 -40.833 -85.5 -49.5c52 -13.333 86.667 -32.833 104 -58.5s26 -61.834 26 -108.501z" />
    <glyph glyph-name="four" unicode="4" horiz-adv-x="445" 
d="M432 160h-102v-160h-86v160h-234v74l201 432h119v-432h102v-74zM244 234v338l-148 -338h148z" />
    <glyph glyph-name="five" unicode="5" horiz-adv-x="445" 
d="M390 226c0 -80.667 -13 -138.834 -39 -174.501s-70.333 -53.5 -133 -53.5c-65.333 0 -109.833 14.667 -133.5 44s-35.5 72 -35.5 128h86c4.66699 -45.333 13 -74 25 -86s30.667 -18 56 -18c34.667 0 58.334 10.5 71.001 31.5s19 57.167 19 108.5
c0 56 -5.5 96.833 -16.5 122.5s-33.833 38.5 -68.5 38.5c-19.333 0 -34.5 -4.66699 -45.5 -14s-22.5 -34.666 -34.5 -75.999h-88v389h304v-80h-216v-199c37.333 31.333 75.666 47 114.999 47c44.667 0 78.167 -15.833 100.5 -47.5s33.5 -85.167 33.5 -160.5z" />
    <glyph glyph-name="six" unicode="6" horiz-adv-x="445" 
d="M406 212c0 -66 -16.002 -118.834 -48.002 -158.501s-80 -59.5 -144 -59.5c-56 0 -96.667 14.667 -122 44s-40.666 65 -45.999 107s-8 96.333 -8 163c0 77.333 2.83301 139.833 8.5 187.5s21.5 89.334 47.5 125.001s66.667 53.5 122 53.5c66 0 111.333 -17.167 136 -51.5
s37 -81.833 37 -142.5h-92c0 38.667 -5.16699 70 -15.5 94s-30.166 36 -59.499 36c-40 0 -65.5 -19.167 -76.5 -57.5s-16.5 -98.833 -16.5 -181.5c35.333 35.333 73 53 113 53c50 0 89.833 -21.167 119.5 -63.5s44.5 -91.833 44.5 -148.5zM313.998 215.999
c0 39.333 -7.66797 72.333 -23.001 99s-38.666 40 -69.999 40c-64 0 -96 -48.333 -96 -145c0 -45.333 7.16699 -81 21.5 -107s38.5 -39 72.5 -39c30 0 53.333 13.333 70 40s25 64 25 112z" />
    <glyph glyph-name="seven" unicode="7" horiz-adv-x="445" 
d="M385 598l-172 -598h-96l180 586h-242v80h330v-68z" />
    <glyph glyph-name="eight" unicode="8" horiz-adv-x="445" 
d="M400 172c0 -59.333 -14.5 -103.999 -43.5 -133.999s-73.833 -45 -134.5 -45s-106.834 17.5 -138.501 52.5s-47.5 80.5 -47.5 136.5c0 44.667 10.167 80 30.5 106s48.833 45.333 85.5 58c-34.667 12 -62 33.5 -82 64.5s-30 64.833 -30 101.5
c0 43.333 15.833 81.166 47.5 113.499s72.834 48.5 123.501 48.5c58.667 0 102.167 -15.833 130.5 -47.5s42.5 -74.5 42.5 -128.5c0 -36 -8.33301 -67.167 -25 -93.5s-42 -45.833 -76 -58.5c78 -18 117 -76 117 -174zM296 506.001c0 27.333 -6.5 50.501 -19.5 69.501
s-35.5 28.5 -67.5 28.5c-26 0 -45 -10.333 -57 -31s-18 -43 -18 -67c0 -38 5.5 -66.5 16.5 -85.5s32.167 -28.5 63.5 -28.5s52.833 8.66699 64.5 26s17.5 46.666 17.5 87.999zM308 178.002c0 40 -5.33301 72.5 -16 97.5s-35 37.5 -73 37.5
c-33.333 0 -56.5 -13.333 -69.5 -40s-19.5 -59 -19.5 -97c0 -76 30 -114 90 -114c30.667 0 53 7.83301 67 23.5s21 46.5 21 92.5z" />
    <glyph glyph-name="nine" unicode="9" horiz-adv-x="445" 
d="M404 320c0 -108 -12 -189.668 -36 -245.001s-75.333 -83 -154 -83c-60 0 -103.167 17 -129.5 51s-39.5 81 -39.5 141h90c0 -39.333 4.5 -68.833 13.5 -88.5s30.833 -29.5 65.5 -29.5c42.667 0 69.167 13.667 79.5 41s15.5 95.333 15.5 204
c-16.667 -14 -35.167 -25 -55.5 -33s-40.833 -12 -61.5 -12c-48 0 -85 18.333 -111 55s-39 86.334 -39 149.001c0 58 12.667 106.5 38 145.5s70 58.5 134 58.5c76.667 0 127.5 -24 152.5 -72s37.5 -142 37.5 -282zM306 473.999c0 45.333 -5.83203 78 -17.499 98
s-34.834 30 -69.501 30c-30.667 0 -53.167 -11.167 -67.5 -33.5s-21.5 -49.833 -21.5 -82.5c0 -55.333 7.16699 -94.5 21.5 -117.5s38.833 -34.5 73.5 -34.5c32 0 53.5 12.5 64.5 37.5s16.5 59.167 16.5 102.5z" />
    <glyph glyph-name="colon" unicode=":" horiz-adv-x="223" 
d="M152 275h-84v92h84v-92zM152 0h-84v90h84v-90z" />
    <glyph glyph-name="semicolon" unicode=";" horiz-adv-x="223" 
d="M166 275h-84v92h84v-92zM178 57l-74 -174h-61l35 174h100z" />
    <glyph glyph-name="less" unicode="&#x3c;" horiz-adv-x="223" 
d="M191 78h-74l-92 182l80 181h71l-65 -181z" />
    <glyph glyph-name="equal" unicode="=" horiz-adv-x="473" 
d="M443 336h-418v55h418v-55zM443 213h-418v55h418v-55z" />
    <glyph glyph-name="greater" unicode="&#x3e;" horiz-adv-x="223" 
d="M191 260l-91 -182h-75l80 182l-64 181h70z" />
    <glyph glyph-name="question" unicode="?" 
d="M328 518c0 -29.333 -4.00098 -56.6689 -12.001 -82.002s-24 -52.666 -48 -81.999s-40.167 -56.333 -48.5 -81s-12.5 -59 -12.5 -103h-78v50c0 31.333 2.33301 58.833 7 82.5s18 47.834 40 72.501s37.5 46.5 46.5 65.5s13.5 42.833 13.5 71.5c0 36 -3.33301 60.667 -10 74
s-20.667 20 -42 20c-22 0 -38.333 -5.33301 -49 -16s-16 -29 -16 -55v-47h-90c0 68 11.333 116.333 34 145s62.334 43 119.001 43c52 0 89.333 -12.667 112 -38s34 -65.333 34 -120zM212.999 -0.00292969h-84v90h84v-90z" />
    <glyph glyph-name="at" unicode="@" horiz-adv-x="609" 
d="M550 402c0 -64 -14.5 -123.998 -43.5 -179.998s-66.5 -84 -112.5 -84c-24.667 0 -45.334 8 -62.001 24s-25 37.667 -25 65c-2.66699 -23.333 -12 -44 -28 -62s-34.333 -27 -55 -27c-22.667 0 -42 13.5 -58 40.5s-24 56.167 -24 87.5
c0 59.333 13.167 117.166 39.5 173.499s59.166 84.5 98.499 84.5c17.333 0 31 -4.66699 41 -14s17.667 -21 23 -35l10 37h56l-51 -293c-1.33301 -13.333 1.16699 -24.5 7.5 -33.5s14.833 -13.5 25.5 -13.5c32 0 59.667 24.833 83 74.5s35 100.167 35 151.5
c0 72 -18.667 130.5 -56 175.5s-91 67.5 -161 67.5c-54.667 0 -106.167 -31.667 -154.5 -95s-72.5 -146 -72.5 -248c0 -76 17.5 -142.667 52.5 -200s85.5 -86 151.5 -86c46.667 0 90.167 14 130.5 42s84.5 66.667 132.5 116c2.66699 -6 4 -12.667 4 -20
c0 -6 -2 -14.333 -6 -25c-30 -46.667 -67.167 -83.167 -111.5 -109.5s-92.166 -39.5 -143.499 -39.5c-77.333 0 -140.333 28.667 -189 86s-73 134.666 -73 231.999c0 128.667 29.833 223.834 89.5 285.501s128.834 92.5 207.501 92.5c71.333 0 129 -23.333 173 -70
s66 -113.334 66 -200.001zM330 412.002c0 24 -2.33301 42.333 -7 55s-14 19 -28 19c-24 0 -45.833 -29.5 -65.5 -88.5s-29.5 -114.167 -29.5 -165.5c0 -17.333 3.5 -32 10.5 -44s17.5 -18 31.5 -18c20 0 39.667 28 59 84s29 108.667 29 158z" />
    <glyph glyph-name="A" unicode="A" horiz-adv-x="445" 
d="M455 0h-92l-39 148h-220l-40 -148h-85l181 666h113zM307 229l-88 373l-94 -373h182z" />
    <glyph glyph-name="B" unicode="B" horiz-adv-x="445" 
d="M426 182c0 -60 -13 -105.332 -39 -135.999s-75.667 -46 -149 -46h-187v666h204c44.667 0 81.667 -17 111 -51s44 -74.333 44 -121c0 -43.333 -9.33301 -74.5 -28 -93.5s-45.667 -35.167 -81 -48.5c41.333 -9.33301 72.5 -27.833 93.5 -55.5s31.5 -65.834 31.5 -114.501z
M318 490.001c0 34.667 -7.66699 60.667 -23 78s-36.333 26 -63 26h-93v-209c9.33301 0 23.5 0.333008 42.5 1s33.167 1 42.5 1c36 0 60.667 8.5 74 25.5s20 42.833 20 77.5zM338 186.001c0 36 -9.33203 65.833 -27.999 89.5s-47 35.5 -85 35.5l-86 2v-239
c13.333 0 26.5 -0.166992 39.5 -0.5s26.167 -0.5 39.5 -0.5c7.33301 0 11.333 0.333008 12 1c41.333 0 69.666 8.83301 84.999 26.5s23 46.167 23 85.5z" />
    <glyph glyph-name="C" unicode="C" horiz-adv-x="418" 
d="M393 213c0 -81.333 -12.6641 -137.833 -37.9971 -169.5s-73 -47.5 -143 -47.5c-63.333 0 -109.333 13.667 -138 41s-43 70.333 -43 129v332c0 49.333 13.833 91.333 41.5 126s73.5 52 137.5 52c65.333 0 112.166 -17.833 140.499 -53.5s42.5 -84.834 42.5 -147.501h-92
c0 86 -28.333 129 -85 129c-32.667 0 -56.334 -9.66699 -71.001 -29s-22 -46.666 -22 -81.999v-325c0 -38 8.16699 -64.5 24.5 -79.5s39.166 -22.5 68.499 -22.5c36 0 59.167 9 69.5 27s15.5 46.667 15.5 86v34h92z" />
    <glyph glyph-name="D" unicode="D" horiz-adv-x="473" 
d="M438 218c0 -72 -15.5 -126.333 -46.5 -163s-89.167 -55 -174.5 -55h-166v666h189c80 0 133 -19.833 159 -59.5s39 -99.167 39 -178.5v-210zM346 209v219.001v18c0 38.667 -6.33301 72 -19 100s-39.667 42 -81 42h-105v-514h78c43.333 0 75.333 9.66699 96 29
s31 54.666 31 105.999z" />
    <glyph glyph-name="E" unicode="E" 
d="M365 0h-314v666h301v-78h-209v-211h197v-76h-197v-223h222v-78z" />
    <glyph glyph-name="F" unicode="F" 
d="M354 588h-213v-213h203v-76h-203v-299h-90v666h303v-78z" />
    <glyph glyph-name="G" unicode="G" horiz-adv-x="418" 
d="M414 45c-28.667 -17.333 -58.665 -30.499 -89.998 -39.499s-66 -13.5 -104 -13.5c-70 0 -119 15.833 -147 47.5s-42 75.167 -42 130.5v322c0 57.333 15.167 102.333 45.5 135s80.5 49 150.5 49s118.667 -17.167 146 -51.5s41 -81.833 41 -142.5h-92
c0 35.333 -7.5 64.166 -22.5 86.499s-38.833 33.5 -71.5 33.5c-24.667 0 -48.334 -8.33301 -71.001 -25s-34 -43 -34 -79v-338c0 -30.667 8.66699 -54 26 -70s41.666 -24 72.999 -24c25.333 0 45.333 2.33301 60 7c16.667 7.33301 30 13 40 17v187h-107v80h199v-312z" />
    <glyph glyph-name="H" unicode="H" horiz-adv-x="473" 
d="M426 0h-90v305h-193v-305h-92v666h92v-285h193v285h90v-666z" />
    <glyph glyph-name="I" unicode="I" horiz-adv-x="195" 
d="M145 0h-94v666h94v-666z" />
    <glyph glyph-name="J" unicode="J" horiz-adv-x="334" 
d="M309 193c0 -80.667 -13.334 -133.667 -40.001 -159s-68.334 -38 -125.001 -38c-59.333 0 -101.666 15.333 -126.999 46s-38 85.667 -38 165h87c0 -45.333 4.83301 -81.333 14.5 -108s31.167 -40 64.5 -40c16.667 0 32.834 7.16699 48.501 21.5s23.5 32.5 23.5 54.5v531
h92v-473z" />
    <glyph glyph-name="K" unicode="K" horiz-adv-x="445" 
d="M461 0h-115l-196 367l190 299h105l-199 -299zM143 0h-92v666h92v-666z" />
    <glyph glyph-name="L" unicode="L" horiz-adv-x="334" 
d="M352 0h-301v666h95v-586h206v-80z" />
    <glyph glyph-name="M" unicode="M" horiz-adv-x="641" 
d="M611 0h-82v613l-158 -613h-78l-164 613v-613h-78v666h154l129 -519l131 519h146v-666z" />
    <glyph glyph-name="N" unicode="N" horiz-adv-x="500" 
d="M465 0h-139l-193 598v-598h-82v666h144l190 -582l-1 582h81v-666z" />
    <glyph glyph-name="O" unicode="O" horiz-adv-x="445" 
d="M414 169c0 -68.667 -15.499 -114.668 -46.499 -138.001s-77.5 -35 -139.5 -35s-110.333 11.667 -145 35s-52 69 -52 137v334c0 66.667 18.333 112.334 55 137.001s85 37 145 37c57.333 0 102.166 -11.833 134.499 -35.5s48.5 -69.167 48.5 -136.5v-335zM324.001 187.999
v299.999c0 47.333 -6.16699 78.833 -18.5 94.5s-37.833 23.5 -76.5 23.5c-40.667 0 -68.5 -8.16699 -83.5 -24.5s-22.5 -46.833 -22.5 -91.5v-304c0 -46 7.5 -77.167 22.5 -93.5s43.167 -24.5 84.5 -24.5c38 0 63.167 7.83301 75.5 23.5s18.5 47.834 18.5 96.501z" />
    <glyph glyph-name="P" unicode="P" horiz-adv-x="414" 
d="M406 488c0 -72 -15.333 -121.833 -46 -149.5s-76 -41.5 -136 -41.5h-81v-297h-92v666h191c49.333 0 89 -13.833 119 -41.5s45 -73.167 45 -136.5zM314 488c0 39.333 -8 66.167 -24 80.5s-43 21.5 -81 21.5h-66v-217h68c40.667 0 68 7.33301 82 22s21 45.667 21 93z" />
    <glyph glyph-name="Q" unicode="Q" horiz-adv-x="452" 
d="M469 0l-127.998 0.00195312c-26.667 0 -50.834 -0.333008 -72.501 -1s-42.5 -2 -62.5 -4c-55.333 0 -98.333 13.5 -129 40.5s-46 76.5 -46 148.5v326c0 53.333 17.5 94.333 52.5 123s82.833 43 143.5 43c60 0 105.5 -15.667 136.5 -47s46.5 -72 46.5 -122v-323
c0 -27.333 -5.16699 -52.333 -15.5 -75s-23.833 -41.334 -40.5 -56.001c17.333 3.33301 36.666 6.66602 57.999 9.99902s40.333 5 57 5v-68zM322.002 189.002v275.999c0 40 -5.33301 72.833 -16 98.5s-37 38.5 -79 38.5s-69.833 -9.5 -83.5 -28.5
s-20.5 -55.167 -20.5 -108.5l-1 -271c0 -41.333 7.5 -72.666 22.5 -93.999s40.167 -32 75.5 -32c36 0 62 8 78 24s24 48.333 24 97z" />
    <glyph glyph-name="R" unicode="R" horiz-adv-x="445" 
d="M438 0l-104 -0.00292969c-12 44.667 -18.833 95.834 -20.5 153.501s-5 92.334 -10 104.001s-15.667 22.167 -32 31.5s-34.833 14 -55.5 14h-75v-303h-90v666h199c61.333 0 104.666 -14 129.999 -42s38 -72.667 38 -134c0 -53.333 -7.83301 -87.166 -23.5 -101.499
s-45.5 -29.166 -89.5 -44.499c16 -2 32 -7.33301 48 -16s27.333 -18.834 34 -30.501s13.834 -55.667 21.501 -132s17.5 -131.5 29.5 -165.5zM326 493.997c0 66.667 -35.999 100 -107.999 100l-77 -2v-215l59 1c47.333 0 80.166 8.5 98.499 25.5s27.5 47.167 27.5 90.5z" />
    <glyph glyph-name="S" unicode="S" horiz-adv-x="418" 
d="M399 165c0 -54 -17.166 -96.5 -51.499 -127.5s-82.833 -46.5 -145.5 -46.5c-78.667 0 -130 19.5 -154 58.5s-36 96.167 -36 171.5h93c0 -53.333 5.66699 -92.5 17 -117.5s40.666 -37.5 87.999 -37.5c30 0 53.5 7.83301 70.5 23.5s25.5 39.834 25.5 72.501
c0 48 -23.667 88.667 -71 122l-134 82c-48 37.333 -72 84.666 -72 141.999c0 52 17 93 51 123s77.333 45 130 45c78.667 0 129.167 -19.167 151.5 -57.5s33.5 -85.5 33.5 -141.5h-92c0 38 -5.83301 68.667 -17.5 92s-36.167 35 -73.5 35c-32 0 -54.833 -9.83301 -68.5 -29.5
s-20.5 -41.5 -20.5 -65.5c0 -40 22.833 -74.667 68.5 -104l135.5 -86c48 -40.667 72 -92 72 -154z" />
    <glyph glyph-name="T" unicode="T" horiz-adv-x="396" 
d="M405 588h-163v-588h-91v588h-162v78h416v-78z" />
    <glyph glyph-name="U" unicode="U" horiz-adv-x="445" 
d="M426 204c0 -81.333 -15.001 -136.167 -45.001 -164.5s-77 -42.5 -141 -42.5c-65.333 0 -113.166 14.167 -143.499 42.5s-45.5 82.5 -45.5 162.5v464h92v-453c0 -52 5.83301 -88.5 17.5 -109.5s39.5 -31.5 83.5 -31.5c38.667 0 64 11.833 76 35.5s18 59.5 18 107.5v451h88
v-462z" />
    <glyph glyph-name="V" unicode="V" horiz-adv-x="418" 
d="M420 666l-158 -666h-117l-159 666h96l125 -589l123 589h90z" />
    <glyph glyph-name="W" unicode="W" horiz-adv-x="695" 
d="M705 666l-142 -666h-106l-110 552l-113 -552h-99l-149 666h90l113 -546l110 546h103l109 -552l110 552h84z" />
    <glyph glyph-name="X" unicode="X" horiz-adv-x="418" 
d="M438 0h-104l-132 283l-138 -283h-85l177 344l-162 322h96l119 -254l125 254h86l-164 -322z" />
    <glyph glyph-name="Y" unicode="Y" horiz-adv-x="389" 
d="M416 666l-166 -385v-281h-94v271l-177 395h105l116 -284l122 284h94z" />
    <glyph glyph-name="Z" unicode="Z" horiz-adv-x="389" 
d="M385 0h-375v96l275 492h-265v78h365v-88l-280 -498h280v-80z" />
    <glyph glyph-name="bracketleft" unicode="[" horiz-adv-x="277" 
d="M229 -141h-174v821h174v-75h-83v-673h83v-73z" />
    <glyph glyph-name="backslash" unicode="\" horiz-adv-x="609" 
d="M533 -8h-66l-424 647h72z" />
    <glyph glyph-name="bracketright" unicode="]" horiz-adv-x="277" 
d="M234 -141h-171v71h82v675h-82v75h171v-821z" />
    <glyph glyph-name="asciicircum" unicode="^" horiz-adv-x="343" 
d="M295 531h-66l-57 78l-47 -78h-76l82 143h84z" />
    <glyph glyph-name="underscore" unicode="_" horiz-adv-x="606" 
d="M607 -150h-607v50h607v-50z" />
    <glyph glyph-name="grave" unicode="`" horiz-adv-x="245" 
d="M204 541h-63l-123 154h100z" />
    <glyph glyph-name="a" unicode="a" 
d="M334 0l-88.001 0.00195312v51c-16.667 -20 -32.167 -33.833 -46.5 -41.5s-37.5 -11.5 -69.5 -11.5c-36 0 -61.333 10.667 -76 32s-22 48.666 -22 81.999c0 68 13 112.167 39 132.5s84.333 34.5 175 42.5v43c0 25.333 -3.66699 44.833 -11 58.5s-23.666 20.5 -48.999 20.5
c-40.667 0 -61 -26.333 -61 -79h-84c0 45.333 12.167 80.166 36.5 104.499s61.5 36.5 111.5 36.5c36 0 69.167 -12 99.5 -36s45.5 -56.333 45.5 -97v-338zM245.999 176.002v51c-44.667 0 -77.667 -7.83301 -99 -23.5s-32 -38.167 -32 -67.5c0 -22 3 -39.5 9 -52.5
s20 -19.5 42 -19.5c53.333 0 80 37.333 80 112z" />
    <glyph glyph-name="b" unicode="b" 
d="M340 139c0 -49.333 -10.335 -85.333 -31.002 -108s-50 -34 -88 -34c-23.333 0 -42.666 3.83301 -57.999 11.5s-28.666 21.167 -39.999 40.5v-49h-86v666h86v-242c28 29.333 58.667 44 92 44c48 0 80.833 -14.167 98.5 -42.5s26.5 -66.5 26.5 -114.5v-172zM253.998 115
l-0.000976562 223.001c0 17.333 -4.66699 33.666 -14 48.999s-24.666 23 -45.999 23c-22 0 -39.333 -5.83301 -52 -17.5s-19 -32.5 -19 -62.5v-164c0 -30.667 6 -57.167 18 -79.5s31.333 -33.5 58 -33.5c22 0 36.667 6.16699 44 18.5s11 26.833 11 43.5z" />
    <glyph glyph-name="c" unicode="c" horiz-adv-x="334" 
d="M316 145c0 -99.333 -48.668 -149.001 -146.001 -149.001c-44 0 -78.333 12.167 -103 36.5s-37 62.833 -37 115.5l-1 172c0 46 11.5 82.667 34.5 110s59.833 41 110.5 41c46.667 0 80.834 -13.167 102.501 -39.5s32.5 -63.5 32.5 -111.5h-84
c0 30.667 -5.16699 53.334 -15.5 68.001s-24.166 22 -41.499 22c-22.667 0 -37.167 -9.83301 -43.5 -29.5s-9.5 -45.5 -9.5 -77.5v-137c0 -35.333 3 -62.5 9 -81.5s22 -28.5 48 -28.5c23.333 0 39.166 7.66699 47.499 23s12.5 37.333 12.5 66h84z" />
    <glyph glyph-name="d" unicode="d" 
d="M334 0h-90.001v45c-12.667 -16.667 -25.167 -28.667 -37.5 -36s-31.833 -11 -58.5 -11c-44 0 -75 13.667 -93 41s-27 64.333 -27 111v146c0 47.333 8.33301 88.333 25 123s46.334 52 89.001 52c24 0 44 -4.16699 60 -12.5s30 -20.5 42 -36.5v244h90v-666zM243.999 150
v185.998c0 19.333 -6.16699 36.5 -18.5 51.5s-27.5 22.5 -45.5 22.5c-27.333 0 -45 -9.16699 -53 -27.5s-12 -46.166 -12 -83.499v-176c0 -19.333 4.33301 -35.666 13 -48.999s22.667 -20 42 -20c26 0 44.833 9.5 56.5 28.5s17.5 41.5 17.5 67.5z" />
    <glyph glyph-name="e" unicode="e" horiz-adv-x="334" 
d="M322 143c0 -46 -12 -81.999 -36 -107.999s-57.333 -39 -100 -39c-66.667 0 -109.334 15.5 -128.001 46.5s-28 94.167 -28 189.5c0 87.333 8.33301 148.833 25 184.5s56.667 53.5 120 53.5c68 0 109.5 -18.333 124.5 -55s22.5 -105.334 22.5 -206.001h-207
c0 -64.667 3.83301 -105.667 11.5 -123s26.834 -26 57.501 -26c18.667 0 32.667 5.16699 42 15.5s14 32.833 14 67.5h82zM236 273.001l-0.000976562 30v25c0 26 -3.66699 46.167 -11 60.5s-23.666 21.5 -48.999 21.5c-26 0 -42.667 -8.83301 -50 -26.5s-11 -42.5 -11 -74.5
v-36h121z" />
    <glyph glyph-name="f" unicode="f" horiz-adv-x="223" 
d="M215 400h-78.001v-400h-84v400h-63v63h63v101c0 30.667 7.83301 56.667 23.5 78s37.834 32 66.501 32c12.667 0 22.334 -0.333008 29.001 -1s21 -3 43 -7v-55c-12.667 0.666992 -22.334 1 -29.001 1c-13.333 0 -24.833 -1.5 -34.5 -4.5s-14.5 -14.167 -14.5 -33.5v-111
h78v-63z" />
    <glyph glyph-name="g" unicode="g" 
d="M330 -25c0 -45.333 -12.5 -80.5 -37.5 -105.5s-63.167 -37.5 -114.5 -37.5c-50.667 0 -86.167 11.167 -106.5 33.5s-30.5 56.166 -30.5 101.499h88c0 -24.667 4.16699 -43 12.5 -55s24.5 -18 48.5 -18c23.333 0 38.833 7.16699 46.5 21.5s11.5 36.5 11.5 66.5v71
c-16.667 -13.333 -33.334 -24.166 -50.001 -32.499s-32.667 -12.5 -48 -12.5c-51.333 0 -83.833 19.167 -97.5 57.5s-20.5 101.166 -20.5 188.499c0 75.333 6.83301 130.333 20.5 165s48.834 52 105.501 52c20.667 0 37 -3.66699 49 -11s25.667 -18.666 41 -33.999v37h82
v-488zM249 254c0 65.333 -5.5 108 -16.5 128s-34.5 30 -70.5 30c-22 0 -35.833 -15.167 -41.5 -45.5s-8.5 -69.833 -8.5 -118.5c0 -58.667 3.33301 -104.167 10 -136.5s24.667 -48.5 54 -48.5s48.833 12.5 58.5 37.5s14.5 76.167 14.5 153.5z" />
    <glyph glyph-name="h" unicode="h" 
d="M338 0h-84v318c0 28 -4.5 50.333 -13.5 67s-25.167 25 -48.5 25c-16 0 -31.5 -6.33301 -46.5 -19s-22.5 -31.334 -22.5 -56.001v-335h-86v666h86v-244c30.667 32 63.667 48 99 48c36 0 64.333 -10.667 85 -32s31 -47.666 31 -78.999v-359z" />
    <glyph glyph-name="i" unicode="i" horiz-adv-x="139" 
d="M121 578h-84v88h84v-88zM121 0h-84v463h84v-463z" />
    <glyph glyph-name="j" unicode="j" horiz-adv-x="139" 
d="M115 572h-84v94h84v-94zM115 -64c0 -44.667 -11.5 -73.5 -34.5 -86.5s-57.5 -19.5 -103.5 -19.5v63c22 0 36.5 2.5 43.5 7.5s10.5 18.5 10.5 40.5v522h84v-527z" />
    <glyph glyph-name="k" unicode="k" horiz-adv-x="334" 
d="M363 0h-95l-145 268l129 195h94l-139 -201zM123 0h-86v666h86v-666z" />
    <glyph glyph-name="l" unicode="l" horiz-adv-x="139" 
d="M123 0h-86v666h86v-666z" />
    <glyph glyph-name="m" unicode="m" horiz-adv-x="557" 
d="M539 0h-86v338c-2 21.333 -6.5 38.333 -13.5 51s-21.5 19 -43.5 19c-25.333 0 -42.333 -8.83301 -51 -26.5s-13 -43.834 -13 -78.501v-303h-88v338c0 20.667 -4.5 37.834 -13.5 51.501s-24.167 20.5 -45.5 20.5c-20.667 0 -36.167 -7.16699 -46.5 -21.5
s-15.5 -36.166 -15.5 -65.499v-323h-86v463h86v-41c10 14.667 24 26.5 42 35.5s35.333 13.5 52 13.5c22.667 0 42.834 -4.5 60.501 -13.5s31.167 -23.5 40.5 -43.5c16.667 19.333 33.5 33.666 50.5 42.999s36.833 14 59.5 14c37.333 0 65.166 -10.833 83.499 -32.5
s27.5 -49.5 27.5 -83.5v-355z" />
    <glyph glyph-name="n" unicode="n" 
d="M340 0l-84 0.000976562v326c0 26.667 -6 47.5 -18 62.5s-26.667 22.5 -44 22.5c-26 0 -44.333 -8.33301 -55 -25s-16 -44.334 -16 -83.001v-303h-86v463h86v-35c15.333 14 30.833 24.667 46.5 32s34.167 11 55.5 11c34.667 0 62.5 -10.5 83.5 -31.5
s31.5 -49.833 31.5 -86.5v-353z" />
    <glyph glyph-name="o" unicode="o" 
d="M339 185c0 -68 -10.5 -116.499 -31.5 -145.499s-61.167 -43.5 -120.5 -43.5c-62.667 0 -104.667 15.167 -126 45.5s-32 78.166 -32 143.499v102c0 60 12.167 105.667 36.5 137s65.5 47 123.5 47c52 0 90 -14.667 114 -44s36 -74 36 -134v-108zM254 191.001v95
c0 47.333 -4.16699 79.833 -12.5 97.5s-25.5 26.5 -51.5 26.5c-29.333 0 -48.833 -9 -58.5 -27s-14.5 -50.667 -14.5 -98v-95c0 -48.667 5 -83.5 15 -104.5s28.667 -31.5 56 -31.5c26 0 43.5 10.333 52.5 31s13.5 56 13.5 106z" />
    <glyph glyph-name="p" unicode="p" 
d="M338 174c0 -53.333 -8.83203 -96.333 -26.499 -129s-50.167 -49 -97.5 -49c-20 0 -34.167 1.33301 -42.5 4s-24.5 13.667 -48.5 33v-205h-86v635h86l1 -38c6 11.333 18.667 21.833 38 31.5s35.666 14.5 48.999 14.5c40.667 0 72 -14 94 -42s33 -64.333 33 -109v-146z
M254.001 180l-0.00195312 129.001c0 30.667 -5.16699 55.167 -15.5 73.5s-27.166 27.5 -50.499 27.5c-19.333 0 -35 -7.83301 -47 -23.5s-18 -29.167 -18 -40.5v-221c0 -20.667 6.33301 -37.334 19 -50.001s28.334 -19 47.001 -19c20.667 0 36.667 8.16699 48 24.5
s17 49.5 17 99.5z" />
    <glyph glyph-name="q" unicode="q" 
d="M332 -172h-86v205c-11.333 -14 -23.333 -23.333 -36 -28s-32 -7 -58 -7c-82 0 -123 60.333 -123 181v137c0 44 10.5 80.833 31.5 110.5s52.167 44.5 93.5 44.5c18.667 0 36 -4.5 52 -13.5s29.333 -19.5 40 -31.5v37h86v-635zM246 160l-0.00195312 174
c0 20.667 -5.16699 38.5 -15.5 53.5s-28.166 22.5 -53.499 22.5c-21.333 0 -36.666 -9 -45.999 -27s-14 -40.333 -14 -67v-158c0 -32 4.5 -57.333 13.5 -76s25.167 -28 48.5 -28c24.667 0 42 10.333 52 31s15 45.667 15 75z" />
    <glyph glyph-name="r" unicode="r" horiz-adv-x="250" 
d="M242 396c-49.333 0 -81.833 -8.16797 -97.5 -24.501s-23.5 -53.166 -23.5 -110.499v-261h-84v463h84v-67c9.33301 22 21.5 40 36.5 54s30.167 21 45.5 21h39v-75z" />
    <glyph glyph-name="s" unicode="s" horiz-adv-x="307" 
d="M299 118c0 -37.333 -11.5 -66.835 -34.5 -88.502s-56.5 -32.5 -100.5 -32.5c-102 0 -153 40.333 -153 121l-1 27h86l1 -17c0 -21.333 5.33301 -39.166 16 -53.499s26.667 -21.5 48 -21.5c15.333 0 28.333 5 39 15s16 22.667 16 38c0 28.667 -32 65.667 -96 111
s-96 90 -96 134c0 38 12.167 67.5 36.5 88.5s54.5 31.5 90.5 31.5c50.667 0 87.667 -10.833 111 -32.5s35 -50.167 35 -85.5v-25h-82v15c0 43.333 -19.667 65 -59 65c-12 0 -22.667 -4 -32 -12s-14 -19.333 -14 -34c0 -24.667 31.5 -59.167 94.5 -103.5
s94.5 -91.166 94.5 -140.499z" />
    <glyph glyph-name="t" unicode="t" horiz-adv-x="223" 
d="M211 0h-61c-25.333 0 -47.833 6 -67.5 18s-29.5 30.667 -29.5 56v328h-69v61h69v90l84 33v-123h74v-61h-74v-275c0 -32 4.5 -51.333 13.5 -58s29.167 -10 60.5 -10v-59z" />
    <glyph glyph-name="u" unicode="u" 
d="M334 0h-85.999v41c-13.333 -17.333 -25.833 -28.5 -37.5 -33.5s-31.834 -7.5 -60.501 -7.5c-37.333 -0 -65.5 10.333 -84.5 31s-28.5 58.667 -28.5 114v318h84v-311c0 -34 3.16699 -59.167 9.5 -75.5s22.5 -24.5 48.5 -24.5c24 0 41.5 8.5 52.5 25.5
s16.5 41.833 16.5 74.5v311h86v-463z" />
    <glyph glyph-name="v" unicode="v" horiz-adv-x="334" 
d="M349 464l-118 -463h-107l-135 463h86l104 -384l91 384h79z" />
    <glyph glyph-name="w" unicode="w" horiz-adv-x="584" 
d="M584 463l-102 -463h-103l-92 394l-86 -394h-109l-102 463h86l74 -388l86 388h112l85 -388l71 388h80z" />
    <glyph glyph-name="x" unicode="x" horiz-adv-x="334" 
d="M339 0h-94l-86 176l-86 -176h-78l129 238l-115 225h97l69 -164l80 164h84l-119 -225z" />
    <glyph glyph-name="y" unicode="y" horiz-adv-x="334" 
d="M354 463l-196 -629h-88l53 160l-133 469h94l85 -355l102 355h83z" />
    <glyph glyph-name="z" unicode="z" horiz-adv-x="277" 
d="M273 0h-265v74l172 322h-162v67h252v-74l-178 -326h181v-63z" />
    <glyph glyph-name="braceleft" unicode="{" horiz-adv-x="350" 
d="M293 754l-79 0.00195312c-6.66699 0 -12 -4.16699 -16 -12.5s-6 -16.5 -6 -24.5v-305c0 -12 -9.16699 -29.5 -27.5 -52.5s-36.166 -36.167 -53.499 -39.5c16.667 -5.33301 33.834 -16.833 51.501 -34.5s26.5 -31.5 26.5 -41.5v-326c0 -6.66699 2.66699 -13.834 8 -21.501
s11 -11.5 17 -11.5h73v-61h-105c-10.667 0 -26.334 9 -47.001 27s-31 35.667 -31 53v311c0 24 -6.66699 43.833 -20 59.5s-29 25.834 -47 30.501v33c25.333 5.33301 42.166 13.666 50.499 24.999s12.5 25.666 12.5 42.999v323c0 21.333 10.833 41.833 32.5 61.5
s40.5 29.5 56.5 29.5h104v-66z" />
    <glyph glyph-name="bar" unicode="|" horiz-adv-x="609" 
d="M340 -12h-82v832h82v-832z" />
    <glyph glyph-name="braceright" unicode="}" horiz-adv-x="350" 
d="M314 305c-25.333 -13.333 -42.999 -24.999 -52.999 -34.999s-15 -28.333 -15 -55v-311c0 -20.667 -8.83301 -39.167 -26.5 -55.5s-34.167 -24.5 -49.5 -24.5h-106v61h75c6 0 11 3.5 15 10.5s6 14.5 6 22.5v316c0 16.667 8.83301 33.5 26.5 50.5s35.5 28.833 53.5 35.5
c-22.667 6.66699 -42 20.167 -58 40.5s-24 40.833 -24 61.5v295c0 6 -1.83301 13.667 -5.5 23s-8.16699 14 -13.5 14h-80v66h101c17.333 0 36.666 -10 57.999 -30s32 -40.333 32 -61v-323c0 -36.667 21.333 -59.334 64 -68.001v-33z" />
    <glyph glyph-name="asciitilde" unicode="~" horiz-adv-x="371" 
d="M321 382c-2.66699 -28 -11.1641 -51.334 -25.4971 -70.001s-34.166 -28 -59.499 -28c-16.667 0 -37.334 8.16699 -62.001 24.5s-40.334 24.5 -47.001 24.5c-8.66699 0 -15.334 -3.33301 -20.001 -10s-8.33398 -15.667 -11.001 -27h-55c0 26.667 8.5 50.167 25.5 70.5
s38.167 30.5 63.5 30.5c13.333 0 32.333 -8 57 -24s41 -24 49 -24c10.667 0 18 2.83301 22 8.5s6.66699 13.834 8 24.501h55z" />
    <glyph glyph-name="nonbreakingspace" unicode="&#xa0;" horiz-adv-x="500" 
 />
    <glyph glyph-name="exclamdown" unicode="&#xa1;" horiz-adv-x="195" 
d="M146 576h-85v90h85v-90zM150 0h-99l17 512h67z" />
    <glyph glyph-name="cent" unicode="&#xa2;" horiz-adv-x="334" 
d="M316 145c0 -49.333 -11.502 -86.165 -34.502 -110.498s-54.833 -36.5 -95.5 -36.5h-19c-9.33301 0 -20 0.666992 -32 2l-26 -98h-41l28 108c-24 17.333 -41.167 37.666 -51.5 60.999s-15.5 52.333 -15.5 87v162c0 45.333 11.167 81.666 33.5 108.999s57.5 41 105.5 41
c10.667 0 19.334 -0.5 26.001 -1.5l23 -3.5l21 84h41l-27 -98c22.667 -16 37.834 -31.667 45.501 -47s11.5 -43.333 11.5 -84h-75l-5 41l-79 -302l28 -1c36 0 54 29 54 87h84zM198.998 400.001l-17 6.50195c-6 2.33301 -10 3.5 -12 3.5c-24.667 0 -40 -9.83301 -46 -29.5
s-9 -43.167 -9 -70.5v-144c0 -10.667 0.166992 -18.834 0.5 -24.501s1.5 -18.834 3.5 -39.501z" />
    <glyph glyph-name="sterling" unicode="&#xa3;" horiz-adv-x="445" 
d="M432 502h-93.998c0 32 -6.83301 56.333 -20.5 73s-30.834 25 -51.501 25c-56 0 -84 -34 -84 -102v-82h127v-78h-127v-258h228v-80h-387v80h67v258h-82v78h82v85c0 46.667 16.167 87.167 48.5 121.5s74.166 51.5 125.499 51.5c50 0 90.5 -15.5 121.5 -46.5
s46.5 -72.833 46.5 -125.5z" />
    <glyph glyph-name="currency" unicode="&#xa4;" horiz-adv-x="444" 
d="M395 297c0 -30 -10.999 -61.334 -32.999 -94.001l30 -27l-36 -36l-31 29c-30 -22 -65.333 -33 -106 -33c-18 0 -35.167 2.83301 -51.5 8.5s-32.5 13.834 -48.5 24.501l-30 -29l-36 36l30 27c-22 32 -33 64.333 -33 97c0 20.667 2.33301 38.167 7 52.5
s13.334 29.833 26.001 46.5l-30 28l36 36l30 -28c15.333 10.667 31.666 18.5 48.999 23.5s36.333 7.5 57 7.5c35.333 0 68.666 -10.333 99.999 -31l31 28l36 -36l-30 -28c22 -30.667 33 -64.667 33 -102zM332.001 302.999c0 33.333 -9.66699 61.5 -29 84.5
s-45.333 34.5 -78 34.5c-34.667 0 -62.167 -11.5 -82.5 -34.5s-30.5 -52.167 -30.5 -87.5c0 -32.667 10 -60.667 30 -84s46 -35 78 -35c33.333 0 60.333 11.667 81 35s31 52.333 31 87z" />
    <glyph glyph-name="yen" unicode="&#xa5;" horiz-adv-x="389" 
d="M416 666l-166 -385v-22h65v-55h-65v-68h65v-55h-65v-81h-94v81h-68v55h68v68h-68v55h68v18l-177 389h105l118 -278l120 278h94z" />
    <glyph glyph-name="brokenbar" unicode="&#xa6;" horiz-adv-x="265" 
d="M170 335h-65v280h65v-280zM171 -1h-67v281h67v-281z" />
    <glyph glyph-name="section" unicode="&#xa7;" horiz-adv-x="445" 
d="M388 260c0 -18.667 -3.66504 -37.834 -10.998 -57.501s-23 -45.5 -47 -77.5c11.333 -21.333 20.5 -44 27.5 -68s10.5 -47 10.5 -69c0 -43.333 -12.667 -79.166 -38 -107.499s-64 -42.5 -116 -42.5c-61.333 0 -102.5 15.833 -123.5 47.5s-31.5 78.834 -31.5 141.501h72
c0 -40 6 -68.5 18 -85.5s35 -25.5 69 -25.5c20 0 37.167 5.83301 51.5 17.5s21.5 27.167 21.5 46.5c0 24 -2.33301 44.333 -7 61s-17.334 31 -38.001 43l-136 79c-21.333 12 -36.666 29 -45.999 51s-14 40.667 -14 56c0 24 6.66699 49.167 20 75.5s27 47.166 41 62.499
c-11.333 13.333 -19 28.833 -23 46.5s-6 38.167 -6 61.5c0 53.333 11.5 93.333 34.5 120s60.833 40 113.5 40c55.333 0 92.333 -15.5 111 -46.5s28 -73.5 28 -127.5h-70c0 28.667 -6.33301 52.5 -19 71.5s-31.334 28.5 -56.001 28.5c-23.333 0 -41.333 -7 -54 -21
s-19 -29.667 -19 -47c0 -12.667 2.83301 -26.667 8.5 -42s13.5 -26 23.5 -32l169 -103c9.33301 -5.33301 17.666 -18.5 24.999 -39.5s11 -40.167 11 -57.5zM320.002 227c0 37.333 -20.001 67 -60.001 89l-108 55c-9.33301 -12.667 -16.666 -26.667 -21.999 -42
s-8 -29.333 -8 -42c0 -24.667 18.5 -47 55.5 -67l111.5 -60l21 40c6.66699 13.333 10 22.333 10 27z" />
    <glyph glyph-name="dieresis" unicode="&#xa8;" horiz-adv-x="336" 
d="M285 559h-78v82h78v-82zM117 559h-78v82h78v-82z" />
    <glyph glyph-name="copyright" unicode="&#xa9;" horiz-adv-x="504" 
d="M462 355c0 -74.667 -19.333 -137 -58 -187s-86.334 -75 -143.001 -75c-56 0 -104.167 24.833 -144.5 74.5s-60.5 111.5 -60.5 185.5s19 135.667 57 185s85.333 74 142 74s105.334 -24.5 146.001 -73.5s61 -110.167 61 -183.5zM428 355c0 61.333 -16.667 114 -50 158
s-73.333 66 -120 66s-86.334 -22 -119.001 -66s-49 -97.333 -49 -160c0 -62 16.833 -114.833 50.5 -158.5s73.834 -65.5 120.501 -65.5c46 0 85.333 22.167 118 66.5s49 97.5 49 159.5zM352 291c0 -41.333 -6.5 -70.166 -19.5 -86.499s-37.5 -24.5 -73.5 -24.5
c-61.333 0 -92 29 -92 87v164c0 25.333 7 46.833 21 64.5s37.333 26.5 70 26.5c33.333 0 57.333 -9.16699 72 -27.5s22 -43.5 22 -75.5h-47c0 44 -14.667 66 -44 66c-16.667 0 -28.667 -5 -36 -15s-11 -24 -11 -42v-160c0 -19.333 4.16699 -32.833 12.5 -40.5
s19.833 -11.5 34.5 -11.5c25.333 0 39 6.16699 41 18.5s3 31.166 3 56.499h47z" />
    <glyph glyph-name="ordfeminine" unicode="&#xaa;" horiz-adv-x="273" 
d="M222 368h-52.001v30c-12 -14 -22.333 -22.667 -31 -26s-20.667 -5 -36 -5c-21.333 0 -36.166 6 -44.499 18s-12.5 28 -12.5 48c0 40 7.5 65.833 22.5 77.5s48.833 20.167 101.5 25.5v25c0 15.333 -2.16699 26.833 -6.5 34.5s-13.833 11.5 -28.5 11.5
c-23.333 0 -35 -15.333 -35 -46h-49c0 26.667 7 47 21 61s35.667 21 65 21c22 0 41.667 -6.83301 59 -20.5s26 -32.5 26 -56.5v-198zM237.999 286h-213v47h213v-47zM169.999 471l0.000976562 30c-26 0 -45.167 -4.5 -57.5 -13.5s-18.5 -22.167 -18.5 -39.5
c0 -13.333 1.66699 -23.833 5 -31.5s11.666 -11.5 24.999 -11.5c30.667 0 46 22 46 66z" />
    <glyph glyph-name="guillemotleft" unicode="&#xab;" 
d="M330 78h-74l-90 182l80 181h70l-64 -181zM191 78h-74l-92 182l80 181h71l-65 -181z" />
    <glyph glyph-name="logicalnot" unicode="&#xac;" horiz-adv-x="2518" 
d="M2121 505c0 -42 -19.3301 -107.999 -57.9971 -197.999s-73.5 -162.333 -104.5 -217s-57.5 -95.667 -79.5 -123s-48.667 -41 -80 -41c-26.667 0 -53.334 8.66699 -80.001 26s-40 38.333 -40 63c0 16 4.66699 31.667 14 47s22 30.666 38 45.999
c19.333 -23.333 35.166 -40.333 47.499 -51s28.5 -16 48.5 -16c54.667 0 102.167 43.667 142.5 131s60.5 161.666 60.5 222.999c0 36.667 -9.83301 60.5 -29.5 71.5s-47.834 16.5 -84.501 16.5c-59.333 0 -98.333 -17.333 -117 -52s-29.667 -53 -33 -55l-13 19
c0 92.667 3.83301 146.834 11.5 162.501s37.5 23.5 89.5 23.5h56c58.667 0 108.5 -4.33301 149.5 -13s61.5 -29.667 61.5 -63zM2403 186.001c0 -96 -27.165 -166.331 -81.498 -210.998s-130.5 -67 -228.5 -67c-42 0 -76.333 5.33301 -103 16s-40 24.667 -40 42
c0 13.333 3.83301 23.5 11.5 30.5s17.5 10.5 29.5 10.5c11.333 0 23.333 -3.5 36 -10.5s21.5 -15.667 26.5 -26s13 -19 24 -26s23.5 -11.833 37.5 -14.5c76 0 133.667 20.333 173 61s59 102 59 184c2 19.333 3 40 3 62c0 98 -23.833 188 -71.5 270
s-123.5 129.833 -227.5 143.5s-183.667 23.334 -239 29.001s-99.666 8.5 -132.999 8.5c-46 0 -96.5 -4.5 -151.5 -13.5l-177 -29.5c-63 -10.667 -148.333 -52.667 -256 -126s-201.167 -158 -280.5 -254s-123.666 -182 -132.999 -258c31.333 -44 47 -89.333 47 -136
c0 -15.333 -1.16699 -27.833 -3.5 -37.5s-8.5 -14.5 -18.5 -14.5c-18.667 0 -33.5 16.5 -44.5 49.5s-16.5 61.167 -16.5 84.5v13c-41.333 33.333 -75.666 63.666 -102.999 90.999s-42.833 54.166 -46.5 80.499s-5.5 47.5 -5.5 63.5c0 10.667 0.666992 18.667 2 24s2 9 2 11
c-29.333 -25.333 -64.833 -53.666 -106.5 -84.999s-83.167 -58.333 -124.5 -81s-75.333 -34 -102 -34c-12.667 0 -23.667 3.5 -33 10.5s-14 16.833 -14 29.5c0 33.333 8.66699 76.166 26 128.499s33.333 88.5 48 108.5l64 88c7.33301 8.66699 12.333 14.834 15 18.501
s4.66699 7.5 6 11.5c-30.667 0 -53.334 7 -68.001 21s-24.334 37 -29.001 69c10 -2 20 -3 30 -3c36.667 0 73.167 10.333 109.5 31s70.5 47 102.5 79c2.66699 4.66699 5 7 7 7c2.66699 0 5.16699 -4.33301 7.5 -13s3.5 -16 3.5 -22c0 -53.333 -16.667 -93 -50 -119l-82 -52
c-6.66699 -12 -25.667 -39.5 -57 -82.5s-47 -81.167 -47 -114.5c0 -22 5.16699 -48.333 15.5 -79s22.5 -46 36.5 -46c23.333 0 61.5 18.333 114.5 55l143.5 101c1.33301 2.66699 14 32.667 38 90s43.833 95.666 59.5 114.999s27.5 31.833 35.5 37.5s16.667 8.5 26 8.5
c7.33301 0 13.666 -2.33301 18.999 -7s8 -11.334 8 -20.001c0 -26 -11.167 -51.167 -33.5 -75.5s-47.5 -44.833 -75.5 -61.5c-4.66699 -8.66699 -11.5 -31.5 -20.5 -68.5s-13.5 -60.5 -13.5 -70.5c0 -12 9 -32.5 27 -61.5s43.667 -63.5 77 -103.5
c17.333 83.333 64.333 171 141 263s164.167 171.833 262.5 239.5s188.166 110 269.499 127s153 29.833 215 38.5s127 13 195 13c51.333 0 104 -2.33301 158 -7s112.833 -12 176.5 -22s118.667 -31.667 165 -65s85.166 -86.333 116.499 -159s47 -168.667 47 -288z
M1610 -45.9971c-2 -8.66699 -6.99902 -15.001 -14.999 -19.001s-18 -6 -30 -6c-8 0 -18 1.66699 -30 5s-22.667 10.5 -32 21.5s-12.666 22.167 -9.99902 33.5c5.33301 16 20.666 24 45.999 24c7.33301 0 16.666 -1.66699 27.999 -5s21.5 -9.16602 30.5 -17.499
s13.5 -17.833 13.5 -28.5c0 -3.33301 -0.333008 -6 -1 -8zM1589.01 220.002c0 -39.333 -13.3369 -77.1689 -40.0039 -113.502s-72.5 -79.5 -137.5 -129.5s-156.833 -75 -275.5 -75c-61.333 0 -115.166 12 -161.499 36s-69.5 63.333 -69.5 118c0 34 12.167 64.833 36.5 92.5
s54.5 46.167 90.5 55.5l3 -9c-34 -13.333 -57 -27.333 -69 -42s-18 -31.667 -18 -51c0 -51.333 27 -86.166 81 -104.499s115 -27.5 183 -27.5c100 0 173.333 17.5 220 52.5s75.167 60.333 85.5 76s15.5 32.834 15.5 51.501c0 21.333 -8.5 37.5 -25.5 48.5
s-47.5 16.5 -91.5 16.5c-19.333 0 -46.333 -1.5 -81 -4.5s-54 -4.5 -58 -4.5c-50 0 -92.5 11 -127.5 33s-52.5 57.333 -52.5 106c0 68.667 31 123 93 163s129.667 60 203 60c25.333 0 44.333 -1.5 57 -4.5s25 -10.833 37 -23.5c6 2 11 3 15 3
c9.33301 0 17.833 -8.16699 25.5 -24.5s13.834 -26.333 18.501 -30s7 -7.5 7 -11.5c-2 -8.66699 -8.83301 -19.334 -20.5 -32.001l-37.5 -41c-2 -8 -5.66699 -12 -11 -12c-4.66699 0 -11.667 4.16699 -21 12.5s-16.166 13 -20.499 14s-10.333 2.83301 -18 5.5
s-11.5 7.33398 -11.5 14.001c0 9.33301 6.16699 22 18.5 38s18.5 28.667 18.5 38c0 13.333 -6.33301 22.666 -19 27.999s-27 8 -43 8c-54.667 0 -107 -13.833 -157 -41.5s-75 -67.167 -75 -118.5c0 -28.667 12.333 -48.167 37 -58.5s52.667 -15.5 84 -15.5
c13.333 0 33.333 1 60 3s46.334 3 59.001 3c58.667 0 105.5 -5.66699 140.5 -17s52.5 -39.666 52.5 -84.999zM903.002 -51.001c-2.66699 -9.33301 -8.33301 -16.3311 -17 -20.998s-19.334 -7 -32.001 -7c-9.33301 0 -17.666 1.33301 -24.999 4
c-14.667 3.33301 -26.834 9.66602 -36.501 18.999s-14.5 19.666 -14.5 30.999c0 4 1.5 11 4.5 21s17.833 15 44.5 15c8 0 18.167 -1.66699 30.5 -5s23.833 -10.833 34.5 -22.5s14.334 -23.167 11.001 -34.5z" />
    <glyph glyph-name="registered" unicode="&#xae;" horiz-adv-x="519" 
d="M462 355c0 -74.667 -19.333 -137 -58 -187s-86.334 -75 -143.001 -75c-56 0 -104.167 24.833 -144.5 74.5s-60.5 111.5 -60.5 185.5s19 135.667 57 185s85.333 74 142 74s105.334 -24.5 146.001 -73.5s61 -110.167 61 -183.5zM428 355c0 61.333 -16.667 114 -50 158
s-73.333 66 -120 66s-86.334 -22 -119.001 -66s-49 -97.333 -49 -160c0 -62 16.833 -114.833 50.5 -158.5s73.834 -65.5 120.501 -65.5c46 0 85.333 22.167 118 66.5s49 97.5 49 159.5zM355 199l-50.999 0.000976562c-6 22 -9.5 47.167 -10.5 75.5s-2.83301 45.5 -5.5 51.5
s-7.66699 11.167 -15 15.5s-16.333 6.5 -27 6.5h-37v-149h-44v327h97c30.667 0 52.167 -6.83301 64.5 -20.5s18.5 -35.5 18.5 -65.5c0 -26.667 -3.83301 -43.334 -11.5 -50.001s-22.5 -14 -44.5 -22c9.33301 -1.33301 17.333 -3.83301 24 -7.5s11.667 -8.16699 15 -13.5
s7.16602 -27.333 11.499 -66s9.5 -66 15.5 -82zM300.001 442.001c0 32.667 -17.667 49.001 -53 49.001l-38 -1v-106l29 1c23.333 0 39.5 4.16699 48.5 12.5s13.5 23.166 13.5 44.499z" />
    <glyph glyph-name="macron" unicode="&#xaf;" horiz-adv-x="462" 
d="M422 567h-397v76h397v-76z" />
    <glyph glyph-name="macron" unicode="&#x2c9;" horiz-adv-x="462" 
d="M422 567h-397v76h397v-76z" />
    <glyph glyph-name="degree" unicode="&#xb0;" horiz-adv-x="324" 
d="M243 474c0 -23.333 -7.16699 -43.167 -21.5 -59.5s-34.166 -24.5 -59.499 -24.5c-26 0 -47 7.66699 -63 23s-24 35 -24 59s8 44.333 24 61s36 25 60 25c23.333 0 43.166 -8.5 59.499 -25.5s24.5 -36.5 24.5 -58.5zM201 476.999c0 10 -3.66895 19.167 -11.002 27.5
s-17.666 12.5 -30.999 12.5c-12.667 0 -22.834 -4.66699 -30.501 -14s-11.5 -20 -11.5 -32c0.666992 -10.667 5.83398 -20 15.501 -28s19.834 -12 30.501 -12c12.667 0 22.167 4.33301 28.5 13s9.5 19.667 9.5 33z" />
    <glyph glyph-name="plusminus" unicode="&#xb1;" horiz-adv-x="549" 
d="M506 263h-197v-122h-68v122h-197v68h197v122h68v-122h197v-68zM506 19h-462v68h462v-68z" />
    <glyph glyph-name="twosuperior" unicode="&#xb2;" horiz-adv-x="271" 
d="M228 402h-185v38c51.333 62.667 85.833 109 103.5 139s26.5 57.667 26.5 83c0 14 -3 25.5 -9 34.5s-17.333 13.5 -34 13.5c-14.667 0 -25.167 -5.33301 -31.5 -16s-9.5 -24.667 -9.5 -42h-46c0 29.333 7.33301 52.333 22 69s37.667 25 69 25
c30.667 0 52.5 -8.33301 65.5 -25s19.5 -37.667 19.5 -63c0 -27.333 -8.33301 -54.5 -25 -81.5s-51.667 -72.5 -105 -136.5h139v-38z" />
    <glyph glyph-name="threesuperior" unicode="&#xb3;" horiz-adv-x="262" 
d="M218 495c0 -31.333 -7.83008 -54.835 -23.4971 -70.502s-37.834 -23.5 -66.501 -23.5c-34.667 0 -58.167 8.33301 -70.5 25s-18.5 39.667 -18.5 69h44c0 -20 2.83301 -35 8.5 -45s18.5 -15 38.5 -15c18 0 29.667 5.16699 35 15.5s8 25.833 8 46.5
c0 24.667 -5.5 41.334 -16.5 50.001s-27.833 13 -50.5 13v38c20 0 34.833 4 44.5 12s14.5 23 14.5 45c0 13.333 -3.33301 25 -10 35s-16.334 15 -29.001 15c-15.333 0 -25.333 -4.66699 -30 -14s-7 -21.666 -7 -36.999v-10l-47 1c0 32 5.5 55.833 16.5 71.5
s34.167 23.5 69.5 23.5c27.333 0 47.666 -7.83301 60.999 -23.5s20 -35.5 20 -59.5c0 -23.333 -4.33301 -40.666 -13 -51.999s-23.334 -19.333 -44.001 -24c22.667 -4.66699 39.334 -13.334 50.001 -26.001s16 -32.667 16 -60z" />
    <glyph glyph-name="acute" unicode="&#xb4;" horiz-adv-x="273" 
d="M234 695l-123 -154h-63l88 154h98z" />
    <glyph glyph-name="mu" unicode="&#xb5;" horiz-adv-x="480" 
d="M424 0l-83 -0.00195312l1 71c-8.66699 -23.333 -25.5 -42.666 -50.5 -57.999s-51.5 -23 -79.5 -23c-21.333 0 -39.333 5.66699 -54 17v-199h-82v697h82v-370c0 -21.333 7.5 -40.166 22.5 -56.499s36.167 -24.5 63.5 -24.5c36.667 0 62.167 12.667 76.5 38
s21.5 54 21.5 86v328h82v-506z" />
    <glyph glyph-name="paragraph" unicode="&#xb6;" horiz-adv-x="485" 
d="M446 -121h-74.001v776h-98v-776h-74v459c-47.333 0 -87.166 18.5 -119.499 55.5s-48.5 81.833 -48.5 134.5c0 47.333 14.167 91.5 42.5 132.5s80.5 61.5 156.5 61.5h215v-843z" />
    <glyph glyph-name="periodcentered" unicode="&#xb7;" horiz-adv-x="220" 
d="M170 319c0 -14.667 -4.66797 -27.332 -14.001 -37.999s-21.333 -16 -36 -16s-27.667 4.66699 -39 14s-17 21.333 -17 36s4.83301 27.5 14.5 38.5s21.834 16.5 36.501 16.5s27.5 -4.83301 38.5 -14.5s16.5 -21.834 16.5 -36.501z" />
    <glyph glyph-name="periodcentered" unicode="&#x2219;" horiz-adv-x="220" 
d="M170 319c0 -14.667 -4.66797 -27.332 -14.001 -37.999s-21.333 -16 -36 -16s-27.667 4.66699 -39 14s-17 21.333 -17 36s4.83301 27.5 14.5 38.5s21.834 16.5 36.501 16.5s27.5 -4.83301 38.5 -14.5s16.5 -21.834 16.5 -36.501z" />
    <glyph glyph-name="cedilla" unicode="&#xb8;" horiz-adv-x="224" 
d="M169 -61l-36 -150h-80l57 150h59z" />
    <glyph glyph-name="onesuperior" unicode="&#xb9;" horiz-adv-x="214" 
d="M142 405h-44.999v282c-8.66699 -7.33301 -16.834 -13.5 -24.501 -18.5s-16.167 -9.83301 -25.5 -14.5v42c20 10.667 39 24.667 57 42h38v-333z" />
    <glyph glyph-name="ordmasculine" unicode="&#xba;" horiz-adv-x="273" 
d="M226 522c0 -42.667 -6.33105 -72.999 -18.998 -90.999s-39.334 -27 -80.001 -27c-32 0 -54.667 9.66699 -68 29s-20 47.666 -20 84.999v62c0 37.333 7.16699 65.333 21.5 84s39.166 28 74.499 28c28.667 0 51 -9 67 -27s24 -45 24 -81v-62zM241.002 328.001h-213v47h213
v-47zM175.002 522.001l-0.000976562 58c0 28 -2.83301 47.5 -8.5 58.5s-16.167 16.5 -31.5 16.5c-17.333 0 -28.833 -5.33301 -34.5 -16s-8.5 -30.667 -8.5 -60v-58c0 -30.667 2.66699 -52 8 -64s16.333 -18 33 -18s27.834 5.83301 33.501 17.5s8.5 33.5 8.5 65.5z" />
    <glyph glyph-name="guillemotright" unicode="&#xbb;" 
d="M330 260l-90 -182h-74l80 182l-64 181h70zM191 260l-91 -182h-75l80 182l-64 181h70z" />
    <glyph glyph-name="onequarter" unicode="&#xbc;" horiz-adv-x="510" 
d="M139 355h-44.999v282c-8.66699 -7.33301 -16.834 -13.5 -24.501 -18.5s-16.167 -9.83301 -25.5 -14.5v42c20 10.667 39 24.667 57 42h38v-333zM350.001 415l-285 -252v74l285 252v-74zM455.001 79h-51v-80h-43v80h-117v37l101 216h59v-216h51v-37zM361.001 116v169
l-74 -169h74z" />
    <glyph glyph-name="onehalf" unicode="&#xbd;" horiz-adv-x="540" 
d="M510 2h-185v38c51.333 62.667 85.833 109 103.5 139s26.5 57.667 26.5 83c0 14 -3 25.5 -9 34.5s-17.333 13.5 -34 13.5c-14.667 0 -25.167 -5.33301 -31.5 -16s-9.5 -24.667 -9.5 -42h-46c0 29.333 7.33301 52.333 22 69s37.667 25 69 25
c30.667 0 52.5 -8.33301 65.5 -25s19.5 -37.667 19.5 -63c0 -27.333 -8.33301 -54.5 -25 -81.5s-51.667 -72.5 -105 -136.5h139v-38zM151 369h-44.999v282c-8.66699 -7.33301 -16.834 -13.5 -24.501 -18.5s-16.167 -9.83301 -25.5 -14.5v42c20 10.667 39 24.667 57 42h38
v-333zM370.001 425l-285 -252v74l285 252v-74z" />
    <glyph glyph-name="threequarters" unicode="&#xbe;" horiz-adv-x="567" 
d="M195 479c0 -31.333 -7.83008 -54.835 -23.4971 -70.502s-37.834 -23.5 -66.501 -23.5c-34.667 0 -58.167 8.33301 -70.5 25s-18.5 39.667 -18.5 69h44c0 -20 2.83301 -35 8.5 -45s18.5 -15 38.5 -15c18 0 29.667 5.16699 35 15.5s8 25.833 8 46.5
c0 24.667 -5.5 41.334 -16.5 50.001s-27.833 13 -50.5 13v38c20 0 34.833 4 44.5 12s14.5 23 14.5 45c0 13.333 -3.33301 25 -10 35s-16.334 15 -29.001 15c-15.333 0 -25.333 -4.66699 -30 -14s-7 -21.666 -7 -36.999v-10l-47 1c0 32 5.5 55.833 16.5 71.5
s34.167 23.5 69.5 23.5c27.333 0 47.666 -7.83301 60.999 -23.5s20 -35.5 20 -59.5c0 -23.333 -4.33301 -40.666 -13 -51.999s-23.334 -19.333 -44.001 -24c22.667 -4.66699 39.334 -13.334 50.001 -26.001s16 -32.667 16 -60zM351.003 414.998l-285 -252v74l285 252v-74z
M455.003 78.998h-51v-80h-43v80h-117v37l101 216h59v-216h51v-37zM361.003 115.998v169l-74 -169h74z" />
    <glyph glyph-name="questiondown" unicode="&#xbf;" 
d="M232 586h-84v90h84v-90zM332 188c0 -62 -10.499 -108.166 -31.499 -138.499s-62.5 -45.5 -124.5 -45.5c-54 0 -91.167 14.5 -111.5 43.5s-30.5 69.167 -30.5 120.5c0 48.667 20 99.667 60 153s60 87.666 60 102.999v84h78v-121c0 -1.33301 -18.167 -32 -54.5 -92
s-54.5 -105.667 -54.5 -137c0 -29.333 3.66699 -51 11 -65s22 -21 44 -21c25.333 0 42.666 9.16699 51.999 27.5s14 47.833 14 88.5h88z" />
    <glyph glyph-name="Agrave" unicode="&#xc0;" horiz-adv-x="445" 
d="M455 0h-92l-39 148h-220l-40 -148h-85l181 666h113zM307 229l-88 373l-94 -373h182zM267 694h-63l-123 154h100z" />
    <glyph glyph-name="Aacute" unicode="&#xc1;" horiz-adv-x="445" 
d="M455 0h-92l-39 148h-220l-40 -148h-85l181 666h113zM307 229l-88 373l-94 -373h182zM345 853l-123 -154h-63l88 154h98z" />
    <glyph glyph-name="Acircumflex" unicode="&#xc2;" horiz-adv-x="445" 
d="M455 0h-92l-39 148h-220l-40 -148h-85l181 666h113zM307 229l-88 373l-94 -373h182zM332 699h-66l-57 78l-47 -78h-76l82 143h84z" />
    <glyph glyph-name="Atilde" unicode="&#xc3;" horiz-adv-x="445" 
d="M455 0h-92l-39 148h-220l-40 -148h-85l181 666h113zM307 229l-88 373l-94 -373h182zM354 786c-2.66699 -28.667 -10.5 -51.667 -23.5 -69s-32.5 -26 -58.5 -26c-22 0 -43.333 7.66699 -64 23s-37 23 -49 23c-10 0 -17.5 -4 -22.5 -12s-7.5 -16 -7.5 -24h-55
c4 26.667 13.333 49.5 28 68.5s32.667 28.5 54 28.5s44.333 -7.33301 69 -22s41.667 -22 51 -22c6 0 11 3.5 15 10.5s6.66699 14.167 8 21.5h55z" />
    <glyph glyph-name="Adieresis" unicode="&#xc4;" horiz-adv-x="445" 
d="M455 0h-92l-39 148h-220l-40 -148h-85l181 666h113zM307 229l-88 373l-94 -373h182zM343 697h-78v82h78v-82zM175 697h-78v82h78v-82z" />
    <glyph glyph-name="Aring" unicode="&#xc5;" horiz-adv-x="445" 
d="M455 0h-92l-39 148h-220l-40 -148h-85l181 666h113zM307 229l-88 373l-94 -373h182zM304 780c0 -24.667 -7.33203 -45.667 -21.999 -63s-34.667 -26 -60 -26c-22.667 0 -42.834 8 -60.501 24s-26.5 36.333 -26.5 61c0 22 8.5 41.833 25.5 59.5s36.5 26.5 58.5 26.5
c23.333 0 43.333 -8.33301 60 -25s25 -35.667 25 -57zM263.001 779c0 10 -4.16797 19.5 -12.501 28.5s-17.833 13.5 -28.5 13.5c-13.333 0 -23.666 -4 -30.999 -12s-11 -19 -11 -33c0 -12 3.16699 -21.667 9.5 -29s16.5 -11 30.5 -11c10.667 0 20.5 4.5 29.5 13.5
s13.5 18.833 13.5 29.5z" />
    <glyph glyph-name="AE" unicode="&#xc6;" horiz-adv-x="639" 
d="M635 0h-248l-20 150h-232l-63 -150h-93l291 666h355v-78h-230l29 -213h195v-78h-183l29 -219h170v-78zM355 232l-42 338l-143 -338h185z" />
    <glyph glyph-name="Ccedilla" unicode="&#xc7;" horiz-adv-x="418" 
d="M393 213c0 -75.333 -10.8301 -130.167 -32.4971 -164.5s-60.5 -51.5 -116.5 -51.5l-35 -147h-80l56 147c-52 0 -90.667 14.333 -116 43s-38 70.667 -38 126v332c0 49.333 13.833 91.333 41.5 126s73.5 52 137.5 52c65.333 0 112.166 -17.833 140.499 -53.5
s42.5 -84.834 42.5 -147.501h-92c0 86 -28.333 129 -85 129c-32.667 0 -56.334 -9.66699 -71.001 -29s-22 -46.666 -22 -81.999v-325c0 -38 8.16699 -64.5 24.5 -79.5s39.166 -22.5 68.499 -22.5c36 0 59.167 9 69.5 27s15.5 46.667 15.5 86v34h92z" />
    <glyph glyph-name="Egrave" unicode="&#xc8;" 
d="M365 0h-314v666h301v-78h-209v-211h197v-76h-197v-223h222v-78zM298 694h-63l-123 154h100z" />
    <glyph glyph-name="Eacute" unicode="&#xc9;" 
d="M365 0h-314v666h301v-78h-209v-211h197v-76h-197v-223h222v-78zM293 853l-123 -154h-63l88 154h98z" />
    <glyph glyph-name="Ecircumflex" unicode="&#xca;" 
d="M365 0h-314v666h301v-78h-209v-211h197v-76h-197v-223h222v-78zM320 700h-66l-57 78l-47 -78h-76l82 143h84z" />
    <glyph glyph-name="Edieresis" unicode="&#xcb;" 
d="M365 0h-314v666h301v-78h-209v-211h197v-76h-197v-223h222v-78zM319 692h-78v82h78v-82zM151 692h-78v82h78v-82z" />
    <glyph glyph-name="Igrave" unicode="&#xcc;" horiz-adv-x="195" 
d="M145 0h-94v666h94v-666zM155 699h-63l-123 154h100z" />
    <glyph glyph-name="Iacute" unicode="&#xcd;" horiz-adv-x="195" 
d="M145 0h-94v666h94v-666zM227 853l-123 -154h-63l88 154h98z" />
    <glyph glyph-name="Icircumflex" unicode="&#xce;" horiz-adv-x="195" 
d="M145 0h-94v666h94v-666zM217 699h-66l-57 78l-47 -78h-76l82 143h84z" />
    <glyph glyph-name="Idieresis" unicode="&#xcf;" horiz-adv-x="195" 
d="M145 0h-94v666h94v-666zM222 697h-78v82h78v-82zM54 697h-78v82h78v-82z" />
    <glyph glyph-name="Eth" unicode="&#xd0;" horiz-adv-x="473" 
d="M438 218c0 -72 -15.5 -126.333 -46.5 -163s-89.167 -55 -174.5 -55h-166v340h-56v58h56v268h189c80 0 133 -19.833 159 -59.5s39 -99.167 39 -178.5v-210zM346 209v219.001v18c0 38.667 -6.33301 72 -19 100s-39.667 42 -81 42h-105v-190h114v-58h-114v-266h78
c43.333 0 75.333 9.66699 96 29s31 54.666 31 105.999z" />
    <glyph glyph-name="Ntilde" unicode="&#xd1;" horiz-adv-x="500" 
d="M465 0h-139l-193 598v-598h-82v666h144l190 -582l-1 582h81v-666zM400 786c-2.66699 -28.667 -10.5 -51.667 -23.5 -69s-32.5 -26 -58.5 -26c-22 0 -43.333 7.66699 -64 23s-37 23 -49 23c-10 0 -17.5 -4 -22.5 -12s-7.5 -16 -7.5 -24h-55c4 26.667 13.333 49.5 28 68.5
s32.667 28.5 54 28.5s44.333 -7.33301 69 -22s41.667 -22 51 -22c6 0 11 3.5 15 10.5s6.66699 14.167 8 21.5h55z" />
    <glyph glyph-name="Ograve" unicode="&#xd2;" horiz-adv-x="445" 
d="M414 169c0 -68.667 -15.499 -114.668 -46.499 -138.001s-77.5 -35 -139.5 -35s-110.333 11.667 -145 35s-52 69 -52 137v334c0 66.667 18.333 112.334 55 137.001s85 37 145 37c57.333 0 102.166 -11.833 134.499 -35.5s48.5 -69.167 48.5 -136.5v-335zM324.001 187.999
v299.999c0 47.333 -6.16699 78.833 -18.5 94.5s-37.833 23.5 -76.5 23.5c-40.667 0 -68.5 -8.16699 -83.5 -24.5s-22.5 -46.833 -22.5 -91.5v-304c0 -46 7.5 -77.167 22.5 -93.5s43.167 -24.5 84.5 -24.5c38 0 63.167 7.83301 75.5 23.5s18.5 47.834 18.5 96.501z
M314.001 698.998h-63l-123 154h100z" />
    <glyph glyph-name="Oacute" unicode="&#xd3;" horiz-adv-x="445" 
d="M414 169c0 -68.667 -15.499 -114.668 -46.499 -138.001s-77.5 -35 -139.5 -35s-110.333 11.667 -145 35s-52 69 -52 137v334c0 66.667 18.333 112.334 55 137.001s85 37 145 37c57.333 0 102.166 -11.833 134.499 -35.5s48.5 -69.167 48.5 -136.5v-335zM324.001 187.999
v299.999c0 47.333 -6.16699 78.833 -18.5 94.5s-37.833 23.5 -76.5 23.5c-40.667 0 -68.5 -8.16699 -83.5 -24.5s-22.5 -46.833 -22.5 -91.5v-304c0 -46 7.5 -77.167 22.5 -93.5s43.167 -24.5 84.5 -24.5c38 0 63.167 7.83301 75.5 23.5s18.5 47.834 18.5 96.501z
M319.001 852.998l-123 -154h-63l88 154h98z" />
    <glyph glyph-name="Ocircumflex" unicode="&#xd4;" horiz-adv-x="445" 
d="M414 169c0 -68.667 -15.499 -114.668 -46.499 -138.001s-77.5 -35 -139.5 -35s-110.333 11.667 -145 35s-52 69 -52 137v334c0 66.667 18.333 112.334 55 137.001s85 37 145 37c57.333 0 102.166 -11.833 134.499 -35.5s48.5 -69.167 48.5 -136.5v-335zM324.001 187.999
v299.999c0 47.333 -6.16699 78.833 -18.5 94.5s-37.833 23.5 -76.5 23.5c-40.667 0 -68.5 -8.16699 -83.5 -24.5s-22.5 -46.833 -22.5 -91.5v-304c0 -46 7.5 -77.167 22.5 -93.5s43.167 -24.5 84.5 -24.5c38 0 63.167 7.83301 75.5 23.5s18.5 47.834 18.5 96.501z
M339.001 698.998h-66l-57 78l-47 -78h-76l82 143h84z" />
    <glyph glyph-name="Otilde" unicode="&#xd5;" horiz-adv-x="445" 
d="M414 169c0 -68.667 -15.499 -114.668 -46.499 -138.001s-77.5 -35 -139.5 -35s-110.333 11.667 -145 35s-52 69 -52 137v334c0 66.667 18.333 112.334 55 137.001s85 37 145 37c57.333 0 102.166 -11.833 134.499 -35.5s48.5 -69.167 48.5 -136.5v-335zM324.001 187.999
v299.999c0 47.333 -6.16699 78.833 -18.5 94.5s-37.833 23.5 -76.5 23.5c-40.667 0 -68.5 -8.16699 -83.5 -24.5s-22.5 -46.833 -22.5 -91.5v-304c0 -46 7.5 -77.167 22.5 -93.5s43.167 -24.5 84.5 -24.5c38 0 63.167 7.83301 75.5 23.5s18.5 47.834 18.5 96.501z
M366.001 785.998c-2.66699 -28.667 -10.5 -51.667 -23.5 -69s-32.5 -26 -58.5 -26c-22 0 -43.333 7.66699 -64 23s-37 23 -49 23c-10 0 -17.5 -4 -22.5 -12s-7.5 -16 -7.5 -24h-55c4 26.667 13.333 49.5 28 68.5s32.667 28.5 54 28.5s44.333 -7.33301 69 -22
s41.667 -22 51 -22c6 0 11 3.5 15 10.5s6.66699 14.167 8 21.5h55z" />
    <glyph glyph-name="Odieresis" unicode="&#xd6;" horiz-adv-x="445" 
d="M414 169c0 -68.667 -15.499 -114.668 -46.499 -138.001s-77.5 -35 -139.5 -35s-110.333 11.667 -145 35s-52 69 -52 137v334c0 66.667 18.333 112.334 55 137.001s85 37 145 37c57.333 0 102.166 -11.833 134.499 -35.5s48.5 -69.167 48.5 -136.5v-335zM324.001 187.999
v299.999c0 47.333 -6.16699 78.833 -18.5 94.5s-37.833 23.5 -76.5 23.5c-40.667 0 -68.5 -8.16699 -83.5 -24.5s-22.5 -46.833 -22.5 -91.5v-304c0 -46 7.5 -77.167 22.5 -93.5s43.167 -24.5 84.5 -24.5c38 0 63.167 7.83301 75.5 23.5s18.5 47.834 18.5 96.501z
M350.001 696.998h-78v82h78v-82zM182.001 696.998h-78v82h78v-82z" />
    <glyph glyph-name="multiply" unicode="&#xd7;" horiz-adv-x="473" 
d="M419 161l-46 -46l-140 140l-130 -130l-45 45l129 130l-127 127l46 46l132 -130l122 129l45 -45l-126 -126z" />
    <glyph glyph-name="Oslash" unicode="&#xd8;" 
d="M340 138c0 -40 -12.332 -73.668 -36.999 -101.001s-60.334 -41 -107.001 -41l-44 2l-11 -55l-32 8l12 49c-25.333 8 -47 24.333 -65 49s-27 53 -27 85c-0.666992 1.33301 -1 8.16602 -1 20.499v31.5v56c0 15.333 0.333008 30 1 44c0 63.333 12.833 109.833 38.5 139.5
s62.5 44.5 110.5 44.5l49 -3l13 60l31 -7l-13 -61c27.333 -11.333 47.833 -30.666 61.5 -57.999s20.5 -57.666 20.5 -90.999v-172zM255.001 145.999l0.00195312 164.999c0 19.333 -1.33301 34.333 -4 45s-6.33398 20.334 -11.001 29.001l-74 -330l20 -1
c19.333 0 35.666 7.83301 48.999 23.5s20 38.5 20 68.5zM211.003 405.998l-27 4c-43.333 0 -65 -34 -65 -102v-166c0 -14 1.5 -26.167 4.5 -36.5s7.5 -21.5 13.5 -33.5z" />
    <glyph glyph-name="Ugrave" unicode="&#xd9;" horiz-adv-x="445" 
d="M426 204c0 -81.333 -15.001 -136.167 -45.001 -164.5s-77 -42.5 -141 -42.5c-65.333 0 -113.166 14.167 -143.499 42.5s-45.5 82.5 -45.5 162.5v464h92v-453c0 -52 5.83301 -88.5 17.5 -109.5s39.5 -31.5 83.5 -31.5c38.667 0 64 11.833 76 35.5s18 59.5 18 107.5v451h88
v-462zM334.999 698.999h-63l-123 154h100z" />
    <glyph glyph-name="Uacute" unicode="&#xda;" horiz-adv-x="445" 
d="M426 204c0 -81.333 -15.001 -136.167 -45.001 -164.5s-77 -42.5 -141 -42.5c-65.333 0 -113.166 14.167 -143.499 42.5s-45.5 82.5 -45.5 162.5v464h92v-453c0 -52 5.83301 -88.5 17.5 -109.5s39.5 -31.5 83.5 -31.5c38.667 0 64 11.833 76 35.5s18 59.5 18 107.5v451h88
v-462zM333.999 852.999l-123 -154h-63l88 154h98z" />
    <glyph glyph-name="Ucircumflex" unicode="&#xdb;" horiz-adv-x="445" 
d="M426 204c0 -81.333 -15.001 -136.167 -45.001 -164.5s-77 -42.5 -141 -42.5c-65.333 0 -113.166 14.167 -143.499 42.5s-45.5 82.5 -45.5 162.5v464h92v-453c0 -52 5.83301 -88.5 17.5 -109.5s39.5 -31.5 83.5 -31.5c38.667 0 64 11.833 76 35.5s18 59.5 18 107.5v451h88
v-462zM358.999 696.999h-66l-57 78l-47 -78h-76l82 143h84z" />
    <glyph glyph-name="Udieresis" unicode="&#xdc;" horiz-adv-x="445" 
d="M426 204c0 -81.333 -15.001 -136.167 -45.001 -164.5s-77 -42.5 -141 -42.5c-65.333 0 -113.166 14.167 -143.499 42.5s-45.5 82.5 -45.5 162.5v464h92v-453c0 -52 5.83301 -88.5 17.5 -109.5s39.5 -31.5 83.5 -31.5c38.667 0 64 11.833 76 35.5s18 59.5 18 107.5v451h88
v-462zM367.999 700.999h-78v82h78v-82zM199.999 700.999h-78v82h78v-82z" />
    <glyph glyph-name="Yacute" unicode="&#xdd;" horiz-adv-x="389" 
d="M416 666l-166 -385v-281h-94v271l-177 395h105l116 -284l122 284h94zM300 855l-123 -154h-63l88 154h98z" />
    <glyph glyph-name="Thorn" unicode="&#xde;" horiz-adv-x="389" 
d="M356 398c0 -50.667 -14 -93.5 -42 -128.5s-68 -52.5 -120 -52.5h-81v-217h-92v660h93v-95h98c42 0 76.5 -17.333 103.5 -52s40.5 -73 40.5 -115zM264 398c0 24.667 -8.16699 46.168 -24.5 64.501s-36.5 27.5 -60.5 27.5h-66v-197h68c22 0 41.333 9.66699 58 29
s25 44.666 25 75.999z" />
    <glyph glyph-name="germandbls" unicode="&#xdf;" horiz-adv-x="418" 
d="M408 123c0 -41.333 -10.667 -72.667 -32 -94s-55.666 -32 -102.999 -32c-40.667 0 -71 9.66699 -91 29s-30 50.333 -30 93h77c-0.666992 -14.667 0.333008 -29.334 3 -44.001s12.667 -22 30 -22c28 0 45.167 5.66699 51.5 17s9.5 28 9.5 50
c0 32 -26.167 76.5 -78.5 133.5s-78.5 99.167 -78.5 126.5c0 26 14.333 52.667 43 80s43 56 43 86c0 20 -3.5 36 -10.5 48s-23.5 18 -49.5 18c-26.667 0 -45.167 -10 -55.5 -30s-15.5 -48 -15.5 -84v-498h-84v498c0 57.333 11 101 33 131s63.667 45 125 45
c47.333 0 82.666 -10.667 105.999 -32s35 -51.333 35 -90c0 -36.667 -13 -69.667 -39 -99s-39 -53 -39 -71c0 -12.667 25 -46.667 75 -102s75 -107.666 75 -156.999z" />
    <glyph glyph-name="agrave" unicode="&#xe0;" 
d="M334 0l-88.001 0.00195312v51c-16.667 -20 -32.167 -33.833 -46.5 -41.5s-37.5 -11.5 -69.5 -11.5c-36 0 -61.333 10.667 -76 32s-22 48.666 -22 81.999c0 68 13 112.167 39 132.5s84.333 34.5 175 42.5v43c0 25.333 -3.66699 44.833 -11 58.5s-23.666 20.5 -48.999 20.5
c-40.667 0 -61 -26.333 -61 -79h-84c0 45.333 12.167 80.166 36.5 104.499s61.5 36.5 111.5 36.5c36 0 69.167 -12 99.5 -36s45.5 -56.333 45.5 -97v-338zM245.999 176.002v51c-44.667 0 -77.667 -7.83301 -99 -23.5s-32 -38.167 -32 -67.5c0 -22 3 -39.5 9 -52.5
s20 -19.5 42 -19.5c53.333 0 80 37.333 80 112zM253.999 521.002h-63l-123 154h100z" />
    <glyph glyph-name="aacute" unicode="&#xe1;" 
d="M334 0l-88.001 0.00195312v51c-16.667 -20 -32.167 -33.833 -46.5 -41.5s-37.5 -11.5 -69.5 -11.5c-36 0 -61.333 10.667 -76 32s-22 48.666 -22 81.999c0 68 13 112.167 39 132.5s84.333 34.5 175 42.5v43c0 25.333 -3.66699 44.833 -11 58.5s-23.666 20.5 -48.999 20.5
c-40.667 0 -61 -26.333 -61 -79h-84c0 45.333 12.167 80.166 36.5 104.499s61.5 36.5 111.5 36.5c36 0 69.167 -12 99.5 -36s45.5 -56.333 45.5 -97v-338zM245.999 176.002v51c-44.667 0 -77.667 -7.83301 -99 -23.5s-32 -38.167 -32 -67.5c0 -22 3 -39.5 9 -52.5
s20 -19.5 42 -19.5c53.333 0 80 37.333 80 112zM307.999 675.002l-123 -154h-63l88 154h98z" />
    <glyph glyph-name="acircumflex" unicode="&#xe2;" 
d="M334 0l-88.001 0.00195312v51c-16.667 -20 -32.167 -33.833 -46.5 -41.5s-37.5 -11.5 -69.5 -11.5c-36 0 -61.333 10.667 -76 32s-22 48.666 -22 81.999c0 68 13 112.167 39 132.5s84.333 34.5 175 42.5v43c0 25.333 -3.66699 44.833 -11 58.5s-23.666 20.5 -48.999 20.5
c-40.667 0 -61 -26.333 -61 -79h-84c0 45.333 12.167 80.166 36.5 104.499s61.5 36.5 111.5 36.5c36 0 69.167 -12 99.5 -36s45.5 -56.333 45.5 -97v-338zM245.999 176.002v51c-44.667 0 -77.667 -7.83301 -99 -23.5s-32 -38.167 -32 -67.5c0 -22 3 -39.5 9 -52.5
s20 -19.5 42 -19.5c53.333 0 80 37.333 80 112zM301.999 521.002h-66l-57 78l-47 -78h-76l82 143h84z" />
    <glyph glyph-name="atilde" unicode="&#xe3;" 
d="M334 0l-88.001 0.00195312v51c-16.667 -20 -32.167 -33.833 -46.5 -41.5s-37.5 -11.5 -69.5 -11.5c-36 0 -61.333 10.667 -76 32s-22 48.666 -22 81.999c0 68 13 112.167 39 132.5s84.333 34.5 175 42.5v43c0 25.333 -3.66699 44.833 -11 58.5s-23.666 20.5 -48.999 20.5
c-40.667 0 -61 -26.333 -61 -79h-84c0 45.333 12.167 80.166 36.5 104.499s61.5 36.5 111.5 36.5c36 0 69.167 -12 99.5 -36s45.5 -56.333 45.5 -97v-338zM245.999 176.002v51c-44.667 0 -77.667 -7.83301 -99 -23.5s-32 -38.167 -32 -67.5c0 -22 3 -39.5 9 -52.5
s20 -19.5 42 -19.5c53.333 0 80 37.333 80 112zM336.999 606.002c-2.66699 -28.667 -10.5 -51.667 -23.5 -69s-32.5 -26 -58.5 -26c-22 0 -43.333 7.66699 -64 23s-37 23 -49 23c-10 0 -17.5 -4 -22.5 -12s-7.5 -16 -7.5 -24h-55c4 26.667 13.333 49.5 28 68.5
s32.667 28.5 54 28.5s44.333 -7.33301 69 -22s41.667 -22 51 -22c6 0 11 3.5 15 10.5s6.66699 14.167 8 21.5h55z" />
    <glyph glyph-name="adieresis" unicode="&#xe4;" 
d="M334 0l-88.001 0.00195312v51c-16.667 -20 -32.167 -33.833 -46.5 -41.5s-37.5 -11.5 -69.5 -11.5c-36 0 -61.333 10.667 -76 32s-22 48.666 -22 81.999c0 68 13 112.167 39 132.5s84.333 34.5 175 42.5v43c0 25.333 -3.66699 44.833 -11 58.5s-23.666 20.5 -48.999 20.5
c-40.667 0 -61 -26.333 -61 -79h-84c0 45.333 12.167 80.166 36.5 104.499s61.5 36.5 111.5 36.5c36 0 69.167 -12 99.5 -36s45.5 -56.333 45.5 -97v-338zM245.999 176.002v51c-44.667 0 -77.667 -7.83301 -99 -23.5s-32 -38.167 -32 -67.5c0 -22 3 -39.5 9 -52.5
s20 -19.5 42 -19.5c53.333 0 80 37.333 80 112zM314.999 521.002h-78v82h78v-82zM146.999 521.002h-78v82h78v-82z" />
    <glyph glyph-name="aring" unicode="&#xe5;" 
d="M334 0l-88.001 0.00195312v51c-16.667 -20 -32.167 -33.833 -46.5 -41.5s-37.5 -11.5 -69.5 -11.5c-36 0 -61.333 10.667 -76 32s-22 48.666 -22 81.999c0 68 13 112.167 39 132.5s84.333 34.5 175 42.5v43c0 25.333 -3.66699 44.833 -11 58.5s-23.666 20.5 -48.999 20.5
c-40.667 0 -61 -26.333 -61 -79h-84c0 45.333 12.167 80.166 36.5 104.499s61.5 36.5 111.5 36.5c36 0 69.167 -12 99.5 -36s45.5 -56.333 45.5 -97v-338zM245.999 176.002v51c-44.667 0 -77.667 -7.83301 -99 -23.5s-32 -38.167 -32 -67.5c0 -22 3 -39.5 9 -52.5
s20 -19.5 42 -19.5c53.333 0 80 37.333 80 112zM266.999 591.002c0 -24.667 -7.33203 -45.667 -21.999 -63s-34.667 -26 -60 -26c-22.667 0 -42.834 8 -60.501 24s-26.5 36.333 -26.5 61c0 22 8.5 41.833 25.5 59.5s36.5 26.5 58.5 26.5c23.333 0 43.333 -8.33301 60 -25
s25 -35.667 25 -57zM226 590.002c0 10 -4.16797 19.5 -12.501 28.5s-17.833 13.5 -28.5 13.5c-13.333 0 -23.666 -4 -30.999 -12s-11 -19 -11 -33c0 -12 3.16699 -21.667 9.5 -29s16.5 -11 30.5 -11c10.667 0 20.5 4.5 29.5 13.5s13.5 18.833 13.5 29.5z" />
    <glyph glyph-name="ae" unicode="&#xe6;" horiz-adv-x="584" 
d="M543 139c0 -47.333 -9.83008 -83.0029 -29.4971 -107.003s-54.167 -36 -103.5 -36c-40.667 0 -66.334 4.33301 -77.001 13s-25.334 27 -44.001 55c-20 -25.333 -38.833 -43 -56.5 -53s-43.167 -15 -76.5 -15c-42.667 0 -74.334 12.833 -95.001 38.5
s-31 56.834 -31 93.501c0 44.667 14.667 80 44 106s75.666 39 138.999 39h41v47c0 61.333 -25.333 92 -76 92c-16.667 0 -31 -6.66699 -43 -20s-18 -34 -18 -62h-84c0 38 10.833 71 32.5 99s57.834 42 108.501 42c29.333 0 53.833 -7 73.5 -21s34.834 -30.667 45.501 -50
c11.333 22.667 25.5 39.667 42.5 51s40.833 17 71.5 17c57.333 0 94.333 -16.833 111 -50.5s25 -86.167 25 -157.5v-51h-205v-49c0 -37.333 3.83301 -63.666 11.5 -78.999s24.5 -23 50.5 -23c25.333 0 42.166 5.83301 50.499 17.5s12.5 32.834 12.5 63.501h80z
M457.003 272.997v47c0 26 -3.33301 46.5 -10 61.5s-21.667 22.5 -45 22.5c-24.667 0 -41.5 -7 -50.5 -21s-13.5 -35 -13.5 -63v-47h119zM254.003 167.997v41h-43c-30.667 0 -54.5 -5.83301 -71.5 -17.5s-25.5 -31.5 -25.5 -59.5c0 -51.333 20.667 -77 62 -77
c22 0 40.5 11.5 55.5 34.5s22.5 49.167 22.5 78.5z" />
    <glyph glyph-name="ccedilla" unicode="&#xe7;" horiz-adv-x="334" 
d="M316 145c0 -86.667 -36.334 -135.334 -109.001 -146.001l-35 -145h-80l54 143c-36 4 -64.333 18.333 -85 43s-31 60.667 -31 108l-1 172c0 46 11.5 82.667 34.5 110s59.833 41 110.5 41c46.667 0 80.834 -13.167 102.501 -39.5s32.5 -63.5 32.5 -111.5h-84
c0 30.667 -5.16699 53.334 -15.5 68.001s-24.166 22 -41.499 22c-22.667 0 -37.167 -9.83301 -43.5 -29.5s-9.5 -45.5 -9.5 -77.5v-137c0 -35.333 3 -62.5 9 -81.5s22 -28.5 48 -28.5c23.333 0 39.166 7.66699 47.499 23s12.5 37.333 12.5 66h84z" />
    <glyph glyph-name="egrave" unicode="&#xe8;" horiz-adv-x="334" 
d="M322 143c0 -46 -12 -81.999 -36 -107.999s-57.333 -39 -100 -39c-66.667 0 -109.334 15.5 -128.001 46.5s-28 94.167 -28 189.5c0 87.333 8.33301 148.833 25 184.5s56.667 53.5 120 53.5c68 0 109.5 -18.333 124.5 -55s22.5 -105.334 22.5 -206.001h-207
c0 -64.667 3.83301 -105.667 11.5 -123s26.834 -26 57.501 -26c18.667 0 32.667 5.16699 42 15.5s14 32.833 14 67.5h82zM236 273.001l-0.000976562 30v25c0 26 -3.66699 46.167 -11 60.5s-23.666 21.5 -48.999 21.5c-26 0 -42.667 -8.83301 -50 -26.5s-11 -42.5 -11 -74.5
v-36h121zM239.999 521.001h-63l-123 154h100z" />
    <glyph glyph-name="eacute" unicode="&#xe9;" horiz-adv-x="334" 
d="M322 143c0 -46 -12 -81.999 -36 -107.999s-57.333 -39 -100 -39c-66.667 0 -109.334 15.5 -128.001 46.5s-28 94.167 -28 189.5c0 87.333 8.33301 148.833 25 184.5s56.667 53.5 120 53.5c68 0 109.5 -18.333 124.5 -55s22.5 -105.334 22.5 -206.001h-207
c0 -64.667 3.83301 -105.667 11.5 -123s26.834 -26 57.501 -26c18.667 0 32.667 5.16699 42 15.5s14 32.833 14 67.5h82zM236 273.001l-0.000976562 30v25c0 26 -3.66699 46.167 -11 60.5s-23.666 21.5 -48.999 21.5c-26 0 -42.667 -8.83301 -50 -26.5s-11 -42.5 -11 -74.5
v-36h121zM295.999 675.001l-123 -154h-63l88 154h98z" />
    <glyph glyph-name="ecircumflex" unicode="&#xea;" horiz-adv-x="334" 
d="M322 143c0 -46 -12 -81.999 -36 -107.999s-57.333 -39 -100 -39c-66.667 0 -109.334 15.5 -128.001 46.5s-28 94.167 -28 189.5c0 87.333 8.33301 148.833 25 184.5s56.667 53.5 120 53.5c68 0 109.5 -18.333 124.5 -55s22.5 -105.334 22.5 -206.001h-207
c0 -64.667 3.83301 -105.667 11.5 -123s26.834 -26 57.501 -26c18.667 0 32.667 5.16699 42 15.5s14 32.833 14 67.5h82zM236 273.001l-0.000976562 30v25c0 26 -3.66699 46.167 -11 60.5s-23.666 21.5 -48.999 21.5c-26 0 -42.667 -8.83301 -50 -26.5s-11 -42.5 -11 -74.5
v-36h121zM288.999 521.001h-66l-57 78l-47 -78h-76l82 143h84z" />
    <glyph glyph-name="edieresis" unicode="&#xeb;" horiz-adv-x="334" 
d="M322 143c0 -46 -12 -81.999 -36 -107.999s-57.333 -39 -100 -39c-66.667 0 -109.334 15.5 -128.001 46.5s-28 94.167 -28 189.5c0 87.333 8.33301 148.833 25 184.5s56.667 53.5 120 53.5c68 0 109.5 -18.333 124.5 -55s22.5 -105.334 22.5 -206.001h-207
c0 -64.667 3.83301 -105.667 11.5 -123s26.834 -26 57.501 -26c18.667 0 32.667 5.16699 42 15.5s14 32.833 14 67.5h82zM236 273.001l-0.000976562 30v25c0 26 -3.66699 46.167 -11 60.5s-23.666 21.5 -48.999 21.5c-26 0 -42.667 -8.83301 -50 -26.5s-11 -42.5 -11 -74.5
v-36h121zM297.999 521.001h-78v82h78v-82zM129.999 521.001h-78v82h78v-82z" />
    <glyph glyph-name="igrave" unicode="&#xec;" horiz-adv-x="139" 
d="M121 0h-84v463h84v-463zM137 521h-63l-123 154h100z" />
    <glyph glyph-name="iacute" unicode="&#xed;" horiz-adv-x="139" 
d="M121 0h-84v463h84v-463zM206 672l-123 -154h-63l88 154h98z" />
    <glyph glyph-name="icircumflex" unicode="&#xee;" horiz-adv-x="139" 
d="M121 0h-84v463h84v-463zM196 521h-66l-57 78l-47 -78h-76l82 143h84z" />
    <glyph glyph-name="idieresis" unicode="&#xef;" horiz-adv-x="139" 
d="M121 0h-84v463h84v-463zM207 521h-78v82h78v-82zM39 521h-78v82h78v-82z" />
    <glyph glyph-name="eth" unicode="&#xf0;" 
d="M339 191c0 -69.333 -10.668 -119.164 -32.001 -149.497s-65 -45.5 -131 -45.5c-54 0 -92 15.667 -114 47s-33 78.666 -33 141.999v102c0 56.667 16.333 100 49 130s79.334 45 140.001 45c-5.33301 18.667 -12.666 34.5 -21.999 47.5l-21 29.5l-76 -41l-20 40l63 37
c-7.33301 7.33301 -16.833 16 -28.5 26s-27.834 19.667 -48.501 29l40 30c20.667 -8.66699 37.834 -18.834 51.501 -30.501s23.5 -20.834 29.5 -27.501l62 38l25 -40l-51 -31c51.333 -61.333 83.666 -109.333 96.999 -144s20 -78.667 20 -132v-102zM253.999 191.002
l0.00195312 96c0 46 -4.5 78 -13.5 96s-26.167 27 -51.5 27c-28.667 0 -47.834 -9.16699 -57.501 -27.5s-14.5 -50.833 -14.5 -97.5v-95c0 -51.333 4.16699 -86.833 12.5 -106.5s26.833 -29.5 55.5 -29.5c27.333 0 45.666 9.66699 54.999 29s14 55.333 14 108z" />
    <glyph glyph-name="ntilde" unicode="&#xf1;" 
d="M340 0l-84 0.000976562v326c0 26.667 -6 47.5 -18 62.5s-26.667 22.5 -44 22.5c-26 0 -44.333 -8.33301 -55 -25s-16 -44.334 -16 -83.001v-303h-86v463h86v-35c15.333 14 30.833 24.667 46.5 32s34.167 11 55.5 11c34.667 0 62.5 -10.5 83.5 -31.5
s31.5 -49.833 31.5 -86.5v-353zM329 606.001c-2.66699 -28.667 -10.5 -51.667 -23.5 -69s-32.5 -26 -58.5 -26c-22 0 -43.333 7.66699 -64 23s-37 23 -49 23c-10 0 -17.5 -4 -22.5 -12s-7.5 -16 -7.5 -24h-55c4 26.667 13.333 49.5 28 68.5s32.667 28.5 54 28.5
s44.333 -7.33301 69 -22s41.667 -22 51 -22c6 0 11 3.5 15 10.5s6.66699 14.167 8 21.5h55z" />
    <glyph glyph-name="ograve" unicode="&#xf2;" 
d="M339 185c0 -68 -10.5 -116.499 -31.5 -145.499s-61.167 -43.5 -120.5 -43.5c-62.667 0 -104.667 15.167 -126 45.5s-32 78.166 -32 143.499v102c0 60 12.167 105.667 36.5 137s65.5 47 123.5 47c52 0 90 -14.667 114 -44s36 -74 36 -134v-108zM254 191.001v95
c0 47.333 -4.16699 79.833 -12.5 97.5s-25.5 26.5 -51.5 26.5c-29.333 0 -48.833 -9 -58.5 -27s-14.5 -50.667 -14.5 -98v-95c0 -48.667 5 -83.5 15 -104.5s28.667 -31.5 56 -31.5c26 0 43.5 10.333 52.5 31s13.5 56 13.5 106zM239 526.001h-63l-123 154h100z" />
    <glyph glyph-name="oacute" unicode="&#xf3;" 
d="M339 185c0 -68 -10.5 -116.499 -31.5 -145.499s-61.167 -43.5 -120.5 -43.5c-62.667 0 -104.667 15.167 -126 45.5s-32 78.166 -32 143.499v102c0 60 12.167 105.667 36.5 137s65.5 47 123.5 47c52 0 90 -14.667 114 -44s36 -74 36 -134v-108zM254 191.001v95
c0 47.333 -4.16699 79.833 -12.5 97.5s-25.5 26.5 -51.5 26.5c-29.333 0 -48.833 -9 -58.5 -27s-14.5 -50.667 -14.5 -98v-95c0 -48.667 5 -83.5 15 -104.5s28.667 -31.5 56 -31.5c26 0 43.5 10.333 52.5 31s13.5 56 13.5 106zM303 675.001l-123 -154h-63l88 154h98z" />
    <glyph glyph-name="ocircumflex" unicode="&#xf4;" 
d="M339 185c0 -68 -10.5 -116.499 -31.5 -145.499s-61.167 -43.5 -120.5 -43.5c-62.667 0 -104.667 15.167 -126 45.5s-32 78.166 -32 143.499v102c0 60 12.167 105.667 36.5 137s65.5 47 123.5 47c52 0 90 -14.667 114 -44s36 -74 36 -134v-108zM254 191.001v95
c0 47.333 -4.16699 79.833 -12.5 97.5s-25.5 26.5 -51.5 26.5c-29.333 0 -48.833 -9 -58.5 -27s-14.5 -50.667 -14.5 -98v-95c0 -48.667 5 -83.5 15 -104.5s28.667 -31.5 56 -31.5c26 0 43.5 10.333 52.5 31s13.5 56 13.5 106zM299 521.001h-66l-57 78l-47 -78h-76l82 143
h84z" />
    <glyph glyph-name="otilde" unicode="&#xf5;" 
d="M339 185c0 -68 -10.5 -116.499 -31.5 -145.499s-61.167 -43.5 -120.5 -43.5c-62.667 0 -104.667 15.167 -126 45.5s-32 78.166 -32 143.499v102c0 60 12.167 105.667 36.5 137s65.5 47 123.5 47c52 0 90 -14.667 114 -44s36 -74 36 -134v-108zM254 191.001v95
c0 47.333 -4.16699 79.833 -12.5 97.5s-25.5 26.5 -51.5 26.5c-29.333 0 -48.833 -9 -58.5 -27s-14.5 -50.667 -14.5 -98v-95c0 -48.667 5 -83.5 15 -104.5s28.667 -31.5 56 -31.5c26 0 43.5 10.333 52.5 31s13.5 56 13.5 106zM324 606.001
c-2.66699 -28.667 -10.5 -51.667 -23.5 -69s-32.5 -26 -58.5 -26c-22 0 -43.333 7.66699 -64 23s-37 23 -49 23c-10 0 -17.5 -4 -22.5 -12s-7.5 -16 -7.5 -24h-55c4 26.667 13.333 49.5 28 68.5s32.667 28.5 54 28.5s44.333 -7.33301 69 -22s41.667 -22 51 -22
c6 0 11 3.5 15 10.5s6.66699 14.167 8 21.5h55z" />
    <glyph glyph-name="odieresis" unicode="&#xf6;" 
d="M339 185c0 -68 -10.5 -116.499 -31.5 -145.499s-61.167 -43.5 -120.5 -43.5c-62.667 0 -104.667 15.167 -126 45.5s-32 78.166 -32 143.499v102c0 60 12.167 105.667 36.5 137s65.5 47 123.5 47c52 0 90 -14.667 114 -44s36 -74 36 -134v-108zM254 191.001v95
c0 47.333 -4.16699 79.833 -12.5 97.5s-25.5 26.5 -51.5 26.5c-29.333 0 -48.833 -9 -58.5 -27s-14.5 -50.667 -14.5 -98v-95c0 -48.667 5 -83.5 15 -104.5s28.667 -31.5 56 -31.5c26 0 43.5 10.333 52.5 31s13.5 56 13.5 106zM309 521.001h-78v82h78v-82zM141 521.001h-78
v82h78v-82z" />
    <glyph glyph-name="divide" unicode="&#xf7;" horiz-adv-x="549" 
d="M331 370c0 -16 -5.16797 -29.502 -15.501 -40.502s-23.833 -16.5 -40.5 -16.5c-15.333 0 -28.666 5.33301 -39.999 16s-17 24.334 -17 41.001c0 16 5.5 29.5 16.5 40.5s24.5 16.5 40.5 16.5s29.333 -5.66699 40 -17s16 -24.666 16 -39.999zM505.999 201.998h-463v68h463
v-68zM330.999 100.998c0 -16 -5.16699 -29.5 -15.5 -40.5s-23.833 -16.5 -40.5 -16.5c-16 0 -29.5 5.16699 -40.5 15.5s-16.5 24.166 -16.5 41.499c0 16 5.5 29.5 16.5 40.5s24.5 16.5 40.5 16.5c16.667 0 30.167 -5.16699 40.5 -15.5s15.5 -24.166 15.5 -41.499z" />
    <glyph glyph-name="oslash" unicode="&#xf8;" horiz-adv-x="445" 
d="M414 180c0 -65.333 -14.3311 -112.667 -42.998 -142s-75.667 -44 -141 -44c-10 0 -21.833 0.666992 -35.5 2s-25.834 2.66602 -36.501 3.99902l-15 -64l-39 9l17 63c-30 18.667 -52.667 38.334 -68 59.001s-23 55 -23 103l-1 354c0 31.333 15.167 64.5 45.5 99.5
s80.5 52.5 150.5 52.5c14 0 25.667 -0.5 35 -1.5s17.666 -2.5 24.999 -4.5l16 66l37 -7l-16 -67c28 -12 50.333 -29.833 67 -53.5s25 -52.167 25 -85.5v-343zM324.002 174.999v327c0 13.333 -1.5 26.333 -4.5 39s-8.5 25.667 -16.5 39l-127 -510
c6.66699 -1.33301 16.167 -2.33301 28.5 -3s21.5 -1 27.5 -1c34 0 57.833 7.5 71.5 22.5s20.5 43.833 20.5 86.5zM266.002 597.999c-10 2 -19 3.66699 -27 5s-14.667 2 -20 2c-31.333 0 -55.166 -8.5 -71.499 -25.5s-24.5 -43.5 -24.5 -79.5v-328
c2 -16 4.16699 -29.667 6.5 -41s6.16602 -23 11.499 -35z" />
    <glyph glyph-name="ugrave" unicode="&#xf9;" 
d="M334 0h-85.999v41c-13.333 -17.333 -25.833 -28.5 -37.5 -33.5s-31.834 -7.5 -60.501 -7.5c-37.333 -0 -65.5 10.333 -84.5 31s-28.5 58.667 -28.5 114v318h84v-311c0 -34 3.16699 -59.167 9.5 -75.5s22.5 -24.5 48.5 -24.5c24 0 41.5 8.5 52.5 25.5
s16.5 41.833 16.5 74.5v311h86v-463zM252.001 521h-63l-123 154h100z" />
    <glyph glyph-name="uacute" unicode="&#xfa;" 
d="M334 0h-85.999v41c-13.333 -17.333 -25.833 -28.5 -37.5 -33.5s-31.834 -7.5 -60.501 -7.5c-37.333 -0 -65.5 10.333 -84.5 31s-28.5 58.667 -28.5 114v318h84v-311c0 -34 3.16699 -59.167 9.5 -75.5s22.5 -24.5 48.5 -24.5c24 0 41.5 8.5 52.5 25.5
s16.5 41.833 16.5 74.5v311h86v-463zM303.001 675l-123 -154h-63l88 154h98z" />
    <glyph glyph-name="ucircumflex" unicode="&#xfb;" 
d="M334 0h-85.999v41c-13.333 -17.333 -25.833 -28.5 -37.5 -33.5s-31.834 -7.5 -60.501 -7.5c-37.333 -0 -65.5 10.333 -84.5 31s-28.5 58.667 -28.5 114v318h84v-311c0 -34 3.16699 -59.167 9.5 -75.5s22.5 -24.5 48.5 -24.5c24 0 41.5 8.5 52.5 25.5
s16.5 41.833 16.5 74.5v311h86v-463zM299.001 521h-66l-57 78l-47 -78h-76l82 143h84z" />
    <glyph glyph-name="udieresis" unicode="&#xfc;" 
d="M334 0h-85.999v41c-13.333 -17.333 -25.833 -28.5 -37.5 -33.5s-31.834 -7.5 -60.501 -7.5c-37.333 -0 -65.5 10.333 -84.5 31s-28.5 58.667 -28.5 114v318h84v-311c0 -34 3.16699 -59.167 9.5 -75.5s22.5 -24.5 48.5 -24.5c24 0 41.5 8.5 52.5 25.5
s16.5 41.833 16.5 74.5v311h86v-463zM313.001 521h-78v82h78v-82zM145.001 521h-78v82h78v-82z" />
    <glyph glyph-name="yacute" unicode="&#xfd;" horiz-adv-x="334" 
d="M354 463l-196 -629h-88l53 160l-133 469h94l85 -355l102 355h83zM303 675l-123 -154h-63l88 154h98z" />
    <glyph glyph-name="thorn" unicode="&#xfe;" 
d="M338 174c0 -53.333 -8.83203 -96.333 -26.499 -129s-50.167 -49 -97.5 -49c-20 0 -34.167 1.33301 -42.5 4s-24.5 13.667 -48.5 33v-205h-86v825h86l1 -228c6 11.333 18.667 21.833 38 31.5s35.666 14.5 48.999 14.5c40.667 0 72 -14 94 -42s33 -64.333 33 -109v-146z
M254.001 180l-0.00195312 129.001c0 30.667 -5.16699 55.167 -15.5 73.5s-27.166 27.5 -50.499 27.5c-19.333 0 -35 -7.83301 -47 -23.5s-18 -29.167 -18 -40.5v-221c0 -20.667 6.33301 -37.334 19 -50.001s28.334 -19 47.001 -19c20.667 0 36.667 8.16699 48 24.5
s17 49.5 17 99.5z" />
    <glyph glyph-name="ydieresis" unicode="&#xff;" horiz-adv-x="334" 
d="M354 463l-196 -629h-88l53 160l-133 469h94l85 -355l102 355h83zM305 521h-78v82h78v-82zM137 521h-78v82h78v-82z" />
    <glyph glyph-name="dotlessi" unicode="&#x131;" horiz-adv-x="168" 
d="M121 0h-84v463h84v-463z" />
    <glyph glyph-name="Lslash" unicode="&#x141;" horiz-adv-x="410" 
d="M372 0h-301v257l-66 -47v56l66 47v353h95v-285l109 79v-57l-109 -78v-245h206v-80z" />
    <glyph glyph-name="lslash" unicode="&#x142;" horiz-adv-x="260" 
d="M178 408l-55 -39v-369h-86v308l-23 -16v76l23 15v283h86v-224l55 38v-72z" />
    <glyph glyph-name="OE" unicode="&#x152;" horiz-adv-x="900" 
d="M635 0h-277.999h-48l-41 -4c-63.333 0 -112.5 4.5 -147.5 13.5s-60.833 34.5 -77.5 76.5c-4.66699 15.333 -8.16699 30.666 -10.5 45.999s-3.5 32.666 -3.5 51.999v324c3.33301 36.667 10.666 66.334 21.999 89.001s31.333 42.334 60 59.001c28 8 48 13.333 60 16
s26.667 4 44 4l62 -2l36 -4c3.33301 0 9 -0.666992 17 -2s14 -2 18 -2h275v-78h-211v-211h199v-76h-199v-223h223v-78zM322.001 172l0.000976562 305.001c0 31.333 -4.16699 58.833 -12.5 82.5s-25.5 37.167 -51.5 40.5l-37 5l-26 -1c-18.667 -4.66699 -32.667 -10 -42 -16
s-17.333 -16.333 -24 -31l-8 -59v-310l8 -71l6.5 -13c2.33301 -4.66699 9.66602 -12.834 21.999 -24.501s34.833 -17.5 67.5 -17.5c24 0 45 6.5 63 19.5s28.667 32.167 32 57.5z" />
    <glyph glyph-name="oe" unicode="&#x153;" horiz-adv-x="584" 
d="M551 143l-0.998047 -33c0 -32.667 -13.833 -59.5 -41.5 -80.5s-60.5 -31.5 -98.5 -31.5c-24.667 0 -46.334 3.16699 -65.001 9.5s-34.667 18.833 -48 37.5c-18.667 -18.667 -34.334 -31.167 -47.001 -37.5s-35.334 -9.5 -68.001 -9.5
c-48.667 0 -86.167 13.833 -112.5 41.5s-39.5 67.167 -39.5 118.5v142c0 52 12.5 93.5 37.5 124.5s61.833 46.5 110.5 46.5c24 0 45.5 -4.5 64.5 -13.5s37.167 -22.167 54.5 -39.5c16.667 18.667 34.334 31.667 53.001 39s38 11 58 11c52 0 88.833 -14.667 110.5 -44
s32.5 -75 32.5 -137v-78h-211v-47c0 -41.333 5.66699 -69.333 17 -84s30.333 -22 57 -22c13.333 0 25.5 5.83301 36.5 17.5s16.5 25.167 16.5 40.5v29h84zM463.002 273v36c0 39.333 -5.16699 66 -15.5 80s-24.833 21 -43.5 21c-22.667 0 -39 -7.83301 -49 -23.5
s-15 -42.167 -15 -79.5v-34h123zM254.002 150l0.00195312 151c0 35.333 -4.33301 62.333 -13 81s-26.334 28 -53.001 28c-30 0 -49.333 -9 -58 -27s-13 -46 -13 -84v-147c0 -32 4.66699 -55.667 14 -71s27.666 -23 54.999 -23c24.667 0 42.167 7.5 52.5 22.5
s15.5 38.167 15.5 69.5z" />
    <glyph glyph-name="Scaron" unicode="&#x160;" horiz-adv-x="418" 
d="M399 165c0 -54 -17.166 -96.5 -51.499 -127.5s-82.833 -46.5 -145.5 -46.5c-78.667 0 -130 19.5 -154 58.5s-36 96.167 -36 171.5h93c0 -53.333 5.66699 -92.5 17 -117.5s40.666 -37.5 87.999 -37.5c30 0 53.5 7.83301 70.5 23.5s25.5 39.834 25.5 72.501
c0 48 -23.667 88.667 -71 122l-134 82c-48 37.333 -72 84.666 -72 141.999c0 52 17 93 51 123s77.333 45 130 45c78.667 0 129.167 -19.167 151.5 -57.5s33.5 -85.5 33.5 -141.5h-92c0 38 -5.83301 68.667 -17.5 92s-36.167 35 -73.5 35c-32 0 -54.833 -9.83301 -68.5 -29.5
s-20.5 -41.5 -20.5 -65.5c0 -40 22.833 -74.667 68.5 -104l135.5 -86c48 -40.667 72 -92 72 -154zM323.001 842l-80 -143h-84l-82 143h76l47 -78l57 78h66z" />
    <glyph glyph-name="scaron" unicode="&#x161;" horiz-adv-x="307" 
d="M299 118c0 -37.333 -11.5 -66.835 -34.5 -88.502s-56.5 -32.5 -100.5 -32.5c-102 0 -153 40.333 -153 121l-1 27h86l1 -17c0 -21.333 5.33301 -39.166 16 -53.499s26.667 -21.5 48 -21.5c15.333 0 28.333 5 39 15s16 22.667 16 38c0 28.667 -32 65.667 -96 111
s-96 90 -96 134c0 38 12.167 67.5 36.5 88.5s54.5 31.5 90.5 31.5c50.667 0 87.667 -10.833 111 -32.5s35 -50.167 35 -85.5v-25h-82v15c0 43.333 -19.667 65 -59 65c-12 0 -22.667 -4 -32 -12s-14 -19.333 -14 -34c0 -24.667 31.5 -59.167 94.5 -103.5
s94.5 -91.166 94.5 -140.499zM282 661.998l-80 -143h-84l-82 143h76l47 -78l57 78h66z" />
    <glyph glyph-name="Ydieresis" unicode="&#x178;" horiz-adv-x="389" 
d="M416 666l-166 -385v-281h-94v271l-177 395h105l116 -284l122 284h94zM327 697h-78v82h78v-82zM159 697h-78v82h78v-82z" />
    <glyph glyph-name="Zcaron" unicode="&#x17d;" horiz-adv-x="389" 
d="M385 0h-375v96l275 492h-265v78h365v-88l-280 -498h280v-80zM328 842l-80 -143h-84l-82 143h76l47 -78l57 78h66z" />
    <glyph glyph-name="zcaron" unicode="&#x17f;" horiz-adv-x="277" 
d="M273 0h-265v74l172 322h-162v67h252v-74l-178 -326h181v-63zM274 664l-80 -143h-84l-82 143h76l47 -78l57 78h66z" />
    <glyph glyph-name="florin" unicode="&#x192;" horiz-adv-x="345" 
d="M321 702l-13 -69.001c-3.33301 1.33301 -7.66602 2.5 -12.999 3.5s-10.333 1.5 -15 1.5c-18 0 -34 -8 -48 -24s-22.333 -32 -25 -48l-18 -113h97l-9 -62h-98l-63 -415c-10 -68 -28.333 -109.333 -55 -124s-65.334 -22 -116.001 -22l10 66c28.667 0 47.667 5 57 15
s17.333 36.667 24 80l62 400h-92l14 62h87l15 97c6.66699 45.333 22.667 82.5 48 111.5s62 43.5 110 43.5c16 0 26.167 -0.166992 30.5 -0.5s7.83301 -1.16602 10.5 -2.49902z" />
    <glyph glyph-name="circumflex" unicode="&#x2c6;" horiz-adv-x="318" 
d="M265 531h-66l-57 78l-47 -78h-76l82 143h84z" />
    <glyph glyph-name="caron" unicode="&#x2c7;" horiz-adv-x="266" 
d="M255 674l-80 -143h-84l-82 143h76l47 -78l57 78h66z" />
    <glyph glyph-name="breve" unicode="&#x2d8;" horiz-adv-x="350" 
d="M325 674c-8.66699 -26.667 -21.3311 -53.334 -37.998 -80.001s-46.667 -40 -90 -40c-48.667 0 -82.834 13.333 -102.501 40s-34.834 53.334 -45.501 80.001h76c3.33301 -13.333 9 -26.333 17 -39s24.667 -19 50 -19c24 0 40.167 6.33301 48.5 19s14.5 25.667 18.5 39h66z
" />
    <glyph glyph-name="ring" unicode="&#x2da;" horiz-adv-x="282" 
d="M229 533c0 -24.667 -7.33203 -45.667 -21.999 -63s-34.667 -26 -60 -26c-22.667 0 -42.834 8 -60.501 24s-26.5 36.333 -26.5 61c0 22 8.5 41.833 25.5 59.5s36.5 26.5 58.5 26.5c23.333 0 43.333 -8.33301 60 -25s25 -35.667 25 -57zM188.001 532
c0 10 -4.16797 19.5 -12.501 28.5s-17.833 13.5 -28.5 13.5c-13.333 0 -23.666 -4 -30.999 -12s-11 -19 -11 -33c0 -12 3.16699 -21.667 9.5 -29s16.5 -11 30.5 -11c10.667 0 20.5 4.5 29.5 13.5s13.5 18.833 13.5 29.5z" />
    <glyph glyph-name="tilde" unicode="&#x2dc;" horiz-adv-x="348" 
d="M311 648c-2.66699 -28.667 -10.5 -51.667 -23.5 -69s-32.5 -26 -58.5 -26c-22 0 -43.333 7.66699 -64 23s-37 23 -49 23c-10 0 -17.5 -4 -22.5 -12s-7.5 -16 -7.5 -24h-55c4 26.667 13.333 49.5 28 68.5s32.667 28.5 54 28.5s44.333 -7.33301 69 -22s41.667 -22 51 -22
c6 0 11 3.5 15 10.5s6.66699 14.167 8 21.5h55z" />
    <glyph glyph-name="endash" unicode="&#x2013;" 
d="M332 217h-307v76h307v-76z" />
    <glyph glyph-name="emdash" unicode="&#x2014;" horiz-adv-x="557" 
d="M527 217h-502v76h502v-76z" />
    <glyph glyph-name="quoteleft" unicode="&#x2018;" horiz-adv-x="210" 
d="M164 666l-31 -156h-90l66 156h55z" />
    <glyph glyph-name="quoteright" unicode="&#x2019;" horiz-adv-x="195" 
d="M164 666l-66 -156h-55l31 156h90z" />
    <glyph glyph-name="quotesinglbase" unicode="&#x201a;" horiz-adv-x="195" 
d="M158 72l-66 -156h-55l31 156h90z" />
    <glyph glyph-name="quotedblleft" unicode="&#x201c;" horiz-adv-x="334" 
d="M299 666l-31 -156h-90l64 156h57zM164 666l-31 -156h-90l66 156h55z" />
    <glyph glyph-name="quotedblright" unicode="&#x201d;" horiz-adv-x="334" 
d="M294 666l-67 -156h-54l29 156h92zM159 666l-66 -156h-55l31 156h90z" />
    <glyph glyph-name="quotedblbase" unicode="&#x201e;" horiz-adv-x="334" 
d="M294 78l-67 -156h-54l29 156h92zM159 78l-66 -156h-55l31 156h90z" />
    <glyph glyph-name="dagger" unicode="&#x2020;" horiz-adv-x="557" 
d="M480 410h-158v-508h-92v508h-158v78h158v178h92v-178h158v-78z" />
    <glyph glyph-name="daggerdbl" unicode="&#x2021;" horiz-adv-x="543" 
d="M479 234h-157v-332h-92v332h-154v79h154v125h-154v78h154v150h92v-150h157v-78h-157v-125h157v-79z" />
    <glyph glyph-name="bullet" unicode="&#x2022;" horiz-adv-x="195" 
d="M162 300c0 -16.667 -6.16699 -31.832 -18.5 -45.499s-26.833 -20.5 -43.5 -20.5c-19.333 0 -34.5 6.66699 -45.5 20s-16.5 28.666 -16.5 45.999s5.5 32.5 16.5 45.5s26.167 19.5 45.5 19.5c18 0 32.833 -6.66699 44.5 -20s17.5 -28.333 17.5 -45z" />
    <glyph glyph-name="ellipsis" unicode="&#x2026;" horiz-adv-x="669" 
d="M579 0h-84v90h84v-90zM363 0h-84v90h84v-90zM152 0h-84v90h84v-90z" />
    <glyph glyph-name="perthousand" unicode="&#x2030;" horiz-adv-x="765" 
d="M743 90c0 -32 -7.83398 -55.5 -23.501 -70.5s-38.5 -22.5 -68.5 -22.5c-36.667 0 -62.667 6.66699 -78 20s-23 36.333 -23 69v174c0 30 8.66699 53.333 26 70s41 25 71 25c30.667 0 54.334 -9.33301 71.001 -28s25 -42.667 25 -72v-165zM214.999 432
c0 -43.333 -6.83301 -73.667 -20.5 -91s-38.5 -26 -74.5 -26c-38 0 -64.167 9 -78.5 27s-21.5 48 -21.5 90v125c0 36.667 7.33301 65.667 22 87s39.667 32 75 32s60.5 -10 75.5 -30s22.5 -48 22.5 -84v-130zM460.999 665.999l-340 -666h-66l351 666h55zM505.999 89.999
c0 -32 -7.83398 -55.5 -23.501 -70.5s-38.5 -22.5 -68.5 -22.5c-36.667 0 -62.667 6.66699 -78 20s-23 36.333 -23 69v174c0 30 8.66699 53.333 26 70s41 25 71 25c30.667 0 54.334 -9.33301 71.001 -28s25 -42.667 25 -72v-165zM675.998 75.999v194
c0 22 -9.66699 33 -29 33s-29 -11 -29 -33v-194c0 -21.333 8.66699 -32 26 -32c21.333 0 32 10.667 32 32zM145.998 394.999l0.000976562 181c0 18 -0.833008 30.667 -2.5 38s-10.167 11 -25.5 11c-12.667 0 -20.5 -3 -23.5 -9s-4.5 -19.333 -4.5 -40v-178
c0 -11.333 1.66699 -19.5 5 -24.5s10.333 -7.5 21 -7.5c13.333 0 21.666 2.5 24.999 7.5s5 12.167 5 21.5zM438.999 75.999v194c0 22 -9.66699 33 -29 33s-29 -11 -29 -33v-194c0 -21.333 8.66699 -32 26 -32c21.333 0 32 10.667 32 32z" />
    <glyph glyph-name="guilsinglleft" unicode="&#x2039;" horiz-adv-x="228" 
d="M191 78h-74l-92 182l80 181h71l-65 -181z" />
    <glyph glyph-name="guilsinglright" unicode="&#x203a;" horiz-adv-x="225" 
d="M191 260l-91 -182h-75l80 182l-64 181h70z" />
    <glyph glyph-name="trademark" unicode="&#x2122;" horiz-adv-x="597" 
d="M548 352h-41v308l-79 -308h-39l-82 308v-308h-39v333h77l65 -268l65 268h73v-333zM239 648h-81v-294h-46v294h-82v39h209v-39z" />
    <glyph glyph-name="minus" unicode="&#x2212;" horiz-adv-x="510" 
d="M444 237h-367v66h367v-66z" />
    <glyph glyph-name="fraction" unicode="&#x2215;" horiz-adv-x="413" 
d="M350 475l-285 -252v74l285 252v-74z" />
    <glyph glyph-name="fi" unicode="&#xf001;" horiz-adv-x="366" 
d="M329 0h-84.001v400h-87v-400h-84v400h-63v63h63v101c0 34 6.5 60.833 19.5 80.5s36.5 29.5 70.5 29.5c12.667 0 22.334 -0.333008 29.001 -1s21 -3 43 -7v-55h-20c-22.667 0 -38 -3 -46 -9s-12 -15.333 -12 -28v-111h171v-463z" />
    <glyph glyph-name="fl" unicode="&#xf002;" horiz-adv-x="380" 
d="M261 666h82.001v-666h-86v611c-12.667 0.666992 -22.667 1 -30 1c-20.667 0 -37.5 -2.5 -50.5 -7.5s-19.5 -15.167 -19.5 -30.5v-111h78v-63h-78v-400h-84v400h-63v63h63v101c0 30.667 7.83301 56.667 23.5 78s37.834 32 66.501 32c15.333 0 31.666 -0.666992 48.999 -2
s33.666 -3.33301 48.999 -6z" />
    <glyph glyph-name=".null" horiz-adv-x="0" 
 />
    <glyph glyph-name="nonmarkingreturn" horiz-adv-x="609" 
 />
    </font>
</defs>
</svg>
