<?xml version="1.0" standalone="no"?>
<!DOCTYPE svg PUBLIC "-//W3C//DTD SVG 1.1//EN" "http://www.w3.org/Graphics/SVG/1.1/DTD/svg11.dtd" >
<svg>
<metadata>
Created by FontForge 20090914 at Mon Apr 29 17:47:51 2013
 By www-data
From the WSI-FONT Collection.  Copyright (c) 1992 WSI.  All Rights Reserved.  Redistribution strictly prohibited.
</metadata>
<defs>
<font id="UniversalCondensedBoldItalic" horiz-adv-x="418" >
  <font-face 
    font-family="Universal Condensed"
    font-weight="7"
    font-style="italic"
    font-stretch="normal"
    units-per-em="1000"
    panose-1="0 0 0 0 0 0 0 0 0 0"
    ascent="800"
    descent="-200"
    x-height="459"
    cap-height="666"
    bbox="-62.001 -192 2403 876"
    underline-thickness="50"
    underline-position="-75"
    unicode-range="U+0020-U+F002"
  />
<missing-glyph horiz-adv-x="800" 
d="M50 0v800h700v-800h-700zM700 50v700h-600v-700h600z" />
    <glyph glyph-name=".notdef" horiz-adv-x="800" 
d="M50 0v800h700v-800h-700zM700 50v700h-600v-700h600z" />
    <glyph glyph-name="space" unicode=" " horiz-adv-x="609" 
 />
    <glyph glyph-name="exclam" unicode="!" horiz-adv-x="223" 
d="M324 666l-125 -480h-93l95 480h123zM164 0h-111l28 121h111z" />
    <glyph glyph-name="quotedbl" unicode="&#x22;" horiz-adv-x="389" 
d="M504 666l-104 -186h-82l72 186h114zM334 666l-104 -186h-82l72 186h114z" />
    <glyph glyph-name="numbersign" unicode="#" horiz-adv-x="609" 
d="M675 473l-35 -78h-94l-64 -133h99l-35 -78h-100l-91 -186h-66l93 186h-110l-90 -186h-63l87 186h-107l37 78h108l62 133h-115l33 78h117l89 191h69l-91 -191h109l87 191h69l-89 -191h91zM478 393h-108l-64 -133h109z" />
    <glyph glyph-name="dollar" unicode="$" horiz-adv-x="473" 
d="M471 207c-13.333 -56.667 -37.5029 -97.666 -72.5029 -122.999s-80.5 -42.333 -136.5 -51l-17 -72h-51l17 72c-45.333 6 -77.666 18.833 -96.999 38.5s-29 46.5 -29 80.5c0 21.333 3.66699 47.333 11 78h125l-5.5 -33.5c-1.66699 -10.333 -2.5 -18.833 -2.5 -25.5
c0 -15.333 3.33301 -26.833 10 -34.5s19.334 -11.5 38.001 -11.5c15.333 0 32 6.33301 50 19s28.5 26.334 31.5 41.001s4.5 23.667 4.5 27c0 26.667 -32.333 60.667 -97 102s-97 85.333 -97 132v22c2 7.33301 5.66699 22.333 11 45s27.333 51.167 66 85.5
s79.667 51.5 123 51.5l14 59h51l-13 -57c46 -8.66699 78.667 -21.167 98 -37.5s29 -40.5 29 -72.5c0 -22.667 -4 -51 -12 -85h-127c2 11.333 3.66699 21.5 5 30.5s2 16.833 2 23.5c0 15.333 -2.66699 27.5 -8 36.5s-14.666 13.5 -27.999 13.5c-12.667 0 -26.5 -5 -41.5 -15
s-24 -21.333 -27 -34s-4.5 -22.334 -4.5 -29.001c0 -30 30.833 -63.833 92.5 -101.5s92.5 -80.834 92.5 -129.501c0 -11.333 -0.333008 -19.333 -1 -24s-2 -11.667 -4 -21z" />
    <glyph glyph-name="percent" unicode="%" horiz-adv-x="500" 
d="M336 485c-7.33301 -30.667 -19.167 -51.333 -35.5 -62s-43.833 -16 -82.5 -16c-32 0 -54.167 3.33301 -66.5 10s-18.5 19 -18.5 37c0 7.33301 1.66699 18.333 5 33l26 110c5.33301 24 16.333 41.833 33 53.5s43.667 17.5 81 17.5c57.333 0 86 -17.333 86 -52l-2 -17z
M598.999 666.001l-490 -666h-68l486 666h72zM487.999 78.001c-7.33301 -30.667 -19.165 -51.333 -35.498 -62s-43.833 -16 -82.5 -16c-32.667 0 -55.667 3.5 -69 10.5s-20 20.167 -20 39.5v10.5c0 3 1.33301 9.5 4 19.5l26 110c5.33301 23.333 17.166 41 35.499 53
s46.166 18 83.499 18c57.333 0 86 -17.333 86 -52l-2 -17zM264 484.002l24 104.999c2.66699 12 4 19.667 4 23c0 13.333 -7.66699 20 -23 20c-12 0 -20.333 -3.66699 -25 -11s-8.66699 -18 -12 -32l-24 -106c-3.33301 -12 -5 -20.667 -5 -26c0 -10 7.33301 -15 22 -15
c12 0 20.5 2.83301 25.5 8.5s9.5 16.834 13.5 33.501zM416 77.001l24 104.999c2.66699 12 4 19.667 4 23c0 13.333 -7.66699 20 -23 20c-12.667 0 -21.5 -3.83301 -26.5 -11.5s-9.16699 -18.167 -12.5 -31.5l-24 -106c-2.66699 -8.66699 -4 -17 -4 -25
c0 -10.667 7.66699 -16 23 -16c12 0 20.5 2.83301 25.5 8.5s9.5 16.834 13.5 33.501z" />
    <glyph glyph-name="ampersand" unicode="&#x26;" horiz-adv-x="557" 
d="M615 303l-96 0.00195312l-70 -303h-252c-43.333 0 -77.5 10.5 -102.5 31.5s-37.5 50.833 -37.5 89.5c0 14 4.33301 39.833 13 77.5s26.834 69 54.501 94s67.5 45.5 119.5 61.5c-28 7.33301 -50.333 19.666 -67 36.999s-25 40.333 -25 69v14c0 4 4.16699 23.167 12.5 57.5
s26.666 65.333 54.999 93s67.833 41.5 118.5 41.5h123l-23 -98c-39.333 0 -72 -4.83301 -98 -14.5s-41.5 -25.334 -46.5 -47.001s-7.5 -37.167 -7.5 -46.5c0 -20.667 7 -35.167 21 -43.5s34.333 -12.5 61 -12.5h47l28 121h127l-28 -121h96zM346 102.002l46.001 201h-82
c-28.667 0 -50.667 -12.167 -66 -36.5s-25.333 -46.5 -30 -66.5s-7 -33 -7 -39c0 -17.333 7.66699 -31.5 23 -42.5s33.666 -16.5 54.999 -16.5h61z" />
    <glyph glyph-name="quotesingle" unicode="'" horiz-adv-x="223" 
d="M334 666l-104 -186h-82l72 186h114z" />
    <glyph glyph-name="parenleft" unicode="(" horiz-adv-x="250" 
d="M185 -123h-89.999c-5.33301 26 -10.333 56.667 -15 92s-7 78.666 -7 129.999c0 34 1.16699 63.667 3.5 89s8.83301 61.333 19.5 108s29.667 99.667 57 159s55.333 113 84 161s43.667 72 45 72h86l-52 -112.5c-22 -48.333 -45.167 -102.166 -69.5 -161.499
s-40 -104.333 -47 -135s-11.667 -66 -14 -106s-3.5 -85 -3.5 -135c0 -46 0.166992 -79.5 0.5 -100.5s1.16602 -41.167 2.49902 -60.5z" />
    <glyph glyph-name="parenright" unicode=")" horiz-adv-x="250" 
d="M273 288c-14 -60 -29.6719 -112.001 -47.0049 -156.001s-33.166 -78.833 -47.499 -104.5s-44.166 -75.834 -89.499 -150.501h-92l73 154.5c26.667 55.667 47.334 101.834 62.001 138.501s25.834 71.5 33.501 104.5s12.834 70 15.501 111s4 83.5 4 127.5v21v19v16v14v13
v11c0 11.333 -0.166992 23 -0.5 35s-0.5 24 -0.5 36v10h92c4.66699 -38 8.83398 -75.833 12.501 -113.5s5.5 -72.167 5.5 -103.5c0 -35.333 -1.33301 -65.666 -4 -90.999s-8.33398 -56 -17.001 -92z" />
    <glyph glyph-name="asterisk" unicode="*" horiz-adv-x="361" 
d="M457 523l-100 -33l39 -80l-75 -43l-37 76l-75 -78l-56 43l75 80l-88 32l40 72l87 -28l24 102h80l-24 -102l102 32z" />
    <glyph glyph-name="plus" unicode="+" horiz-adv-x="434" 
d="M469 264h-154l-45 -194h-74l45 194h-160l17 72h160l40 176h74l-40 -176h154z" />
    <glyph glyph-name="comma" unicode="," horiz-adv-x="223" 
d="M210 66l-115 -203h-90l80 203h125z" />
    <glyph glyph-name="hyphen" unicode="-" horiz-adv-x="250" 
d="M268 221h-192l19 84h192z" />
    <glyph glyph-name="hyphen" unicode="&#xad;" horiz-adv-x="250" 
d="M268 221h-192l19 84h192z" />
    <glyph glyph-name="period" unicode="." horiz-adv-x="223" 
d="M172 0h-111l28 121h111z" />
    <glyph glyph-name="slash" unicode="/" horiz-adv-x="500" 
d="M653 678l-583 -783h-98l576 783h105z" />
    <glyph glyph-name="zero" unicode="0" horiz-adv-x="473" 
d="M470 199c-18.667 -80 -44.333 -134.168 -77 -162.501s-85 -42.5 -157 -42.5c-56.667 0 -97.5 8.5 -122.5 25.5s-37.5 46.167 -37.5 87.5c0 24.667 4.66699 56.667 14 96l66 287c14 60.667 39.333 106.834 76 138.501s90 47.5 160 47.5c51.333 0 89.833 -10.5 115.5 -31.5
s38.5 -51.5 38.5 -91.5c0 -12 -0.333008 -21 -1 -27s-2.66699 -15.667 -6 -29zM334.001 194.999l63.001 274.003c0.666992 2.66699 2.66699 12 6 28s5 29.333 5 40c0 15.333 -2.83301 26.666 -8.5 33.999s-16.167 11 -31.5 11c-23.333 0 -40.333 -9.83301 -51 -29.5
s-20 -46.834 -28 -81.501l-64 -278c-2.66699 -10.667 -5.33398 -22.5 -8.00098 -35.5s-4 -24.5 -4 -34.5c0 -24 13.667 -36 41 -36c23.333 0 40 7.16699 50 21.5s20 43.166 30 86.499z" />
    <glyph glyph-name="one" unicode="1" horiz-adv-x="473" 
d="M334 0l-133 0.00195312l121 523c-36 -29.333 -73 -53.333 -111 -72l27 117c24.667 11.333 48 25.166 70 41.499s41 35.166 57 56.499h123z" />
    <glyph glyph-name="two" unicode="2" horiz-adv-x="473" 
d="M428 0l-389.001 0.00195312l27 117c79.333 66 154.333 137.5 225 214.5s109 128 115 153s9 40.5 9 46.5c0 14 -3.66699 26 -11 36s-17.333 15 -30 15c-20 0 -35.333 -6.5 -46 -19.5s-21 -39.833 -31 -80.5h-133c18 69.333 41.5 119.333 70.5 150s82.833 46 161.5 46
c50 0 87.5 -10.333 112.5 -31s37.5 -48.334 37.5 -83.001c0 -10.667 -3.66699 -32.334 -11 -65.001s-27.666 -72 -60.999 -118s-69.5 -87.167 -108.5 -123.5s-99.167 -89.5 -180.5 -159.5h266z" />
    <glyph glyph-name="three" unicode="3" horiz-adv-x="473" 
d="M457 178c-15.333 -68.667 -41.002 -116.497 -77.002 -143.497s-88.333 -40.5 -157 -40.5c-58 0 -99.167 8.5 -123.5 25.5s-36.5 43.5 -36.5 79.5c0 10 1 21.667 3 35s4.66699 27.333 8 42h135c-2 -8 -3.83301 -16 -5.5 -24s-2.5 -16.333 -2.5 -25
c0 -12.667 3 -22.667 9 -30s16.667 -11 32 -11c28 0 46.167 8.16699 54.5 24.5s15.833 38.5 22.5 66.5s10 47.667 10 59c0 42 -30.667 63 -92 63l24 103c42.667 0 72.167 6.5 88.5 19.5s26.833 30.167 31.5 51.5s7.66699 35.666 9 42.999s2 13.666 2 18.999
c0 14 -3 25 -9 33s-16.333 12 -31 12c-18.667 0 -33.167 -6.5 -43.5 -19.5s-18.166 -30.5 -23.499 -52.5h-135c12.667 53.333 34.834 95 66.501 125s81.834 45 150.501 45c56.667 0 97.667 -9 123 -27s38 -45.667 38 -83c0 -16 -4.83301 -44.167 -14.5 -84.5
s-23.334 -69.333 -41.001 -87s-46.5 -32.5 -86.5 -44.5c29.333 -8 50.333 -18.333 63 -31s19 -33.667 19 -63c0 -13.333 -0.666992 -25.333 -2 -36s-4.33301 -25.334 -9 -44.001z" />
    <glyph glyph-name="four" unicode="4" horiz-adv-x="473" 
d="M494 152h-86l-35 -152h-133l35 152h-232l28 121l267 393h189l-97 -418h86zM297 248l72 310l-195 -310h123z" />
    <glyph glyph-name="five" unicode="5" horiz-adv-x="473" 
d="M475 238c-21.333 -94 -49.168 -157.999 -83.501 -191.999s-89.833 -51 -166.5 -51c-52 0 -89.5 6.83301 -112.5 20.5s-34.5 40.167 -34.5 79.5c0 10 1 21.833 3 35.5s4.66699 28.167 8 43.5h133c-4.66699 -22 -7 -38 -7 -48c0 -24 10.667 -36 32 -36
c24.667 0 41.334 6.83301 50.001 20.5s18.667 44.5 30 92.5s17 82.333 17 103c0 22.667 -9.33301 34 -28 34c-22 0 -38.333 -7 -49 -21s-19.667 -36.333 -27 -67h-133l96 414h336l-23 -98h-209l-48 -203c16.667 23.333 36.167 41.666 58.5 54.999s45.833 20 70.5 20
c36.667 0 62.5 -9.33301 77.5 -28s22.5 -44.667 22.5 -78c0 -27.333 -4.33301 -59.333 -13 -96z" />
    <glyph glyph-name="six" unicode="6" horiz-adv-x="473" 
d="M479 245c-23.333 -100.667 -52.6689 -167.999 -88.002 -201.999s-91 -51 -167 -51c-53.333 0 -91 9.66699 -113 29s-33 47 -33 83c0 21.333 3 44.666 9 69.999l71 308c16 69.333 43.167 119 81.5 149s89.833 45 154.5 45c56.667 0 96.167 -6.83301 118.5 -20.5
s33.5 -37.167 33.5 -70.5c0 -9.33301 -1 -20.833 -3 -34.5s-4.66699 -27.834 -8 -42.501h-135l7 28c2 8 3 14.333 3 19c0 9.33301 -2.66699 16.5 -8 21.5s-15 7.5 -29 7.5c-27.333 0 -47.166 -14.167 -59.499 -42.5s-26.5 -77.166 -42.5 -146.499
c20.667 14 42.834 25.667 66.501 35s45.167 14 64.5 14c31.333 0 54.5 -6.5 69.5 -19.5s22.5 -37.167 22.5 -72.5c0 -26 -5 -61.667 -15 -107zM336.997 220.001c2.66699 12 5.33105 25.499 7.99805 40.499s4 27.167 4 36.5c0 17.333 -3 30.166 -9 38.499
s-16.667 12.5 -32 12.5c-21.333 0 -38.666 -13.667 -51.999 -41s-23.833 -56.666 -31.5 -87.999s-11.5 -57.666 -11.5 -78.999c0 -34 10.667 -51 32 -51c24.667 0 43.334 9.5 56.001 28.5s24.667 53.167 36 102.5z" />
    <glyph glyph-name="seven" unicode="7" horiz-adv-x="473" 
d="M543 578l-287 -578h-147l300 564h-224l24 102h355z" />
    <glyph glyph-name="eight" unicode="8" horiz-adv-x="473" 
d="M542 512c-21.333 -92.667 -69 -146 -143 -160c21.333 -6 39.833 -13.5 55.5 -22.5s23.5 -28.833 23.5 -59.5c0 -19.333 -6.5 -56.666 -19.5 -111.999s-35.167 -96.5 -66.5 -123.5s-84.333 -40.5 -159 -40.5c-55.333 0 -94.5 7.5 -117.5 22.5s-34.5 41.167 -34.5 78.5
c0 24.667 5.5 60.834 16.5 108.501s26.833 82.334 47.5 104.001s50.667 36.5 90 44.5c-25.333 7.33301 -44.833 19.166 -58.5 35.499s-20.5 38.833 -20.5 67.5c0 8.66699 0.833008 18.167 2.5 28.5s6.16699 31.166 13.5 62.499s30.333 61.166 69 89.499
s88.667 42.5 150 42.5c105.333 0 158 -36.667 158 -110c0 -12 -0.333008 -21 -1 -27s-2.66699 -15.667 -6 -29zM393 482c4 14.667 7.16602 27.332 9.49902 37.999s3.5 19.667 3.5 27c0 11.333 -2.66699 20 -8 26s-14.666 9 -27.999 9c-21.333 0 -36.833 -8.66699 -46.5 -26
s-18.167 -40.666 -25.5 -69.999l-4.5 -30c-1 -6.66699 -1.5 -11 -1.5 -13c0 -13.333 2.66699 -23.833 8 -31.5s15 -11.5 29 -11.5c22 0 36.667 7 44 21s14 34.333 20 61zM335.999 189.998c6.66699 28 10 50.001 10 66.001c0 14 -3.16699 24.833 -9.5 32.5
s-17.5 11.5 -33.5 11.5c-21.333 0 -38.833 -11.333 -52.5 -34s-23.667 -48.334 -30 -77.001s-9.5 -50.667 -9.5 -66c0 -26.667 14 -40 42 -40c24 0 41.5 7.66699 52.5 23s21.167 43.333 30.5 84z" />
    <glyph glyph-name="nine" unicode="9" horiz-adv-x="473" 
d="M468 199c-18 -80 -47 -134.833 -87 -164.5s-97 -44.5 -171 -44.5c-46 0 -80 8.16699 -102 24.5s-33 44.833 -33 85.5c0 12.667 0.5 22.667 1.5 30s3.83301 22 8.5 44h135c-2 -8 -4 -17.667 -6 -29s-3 -19.666 -3 -24.999c0 -22.667 13.667 -34 41 -34
c24.667 0 42.5 12.5 53.5 37.5s26.5 84.167 46.5 177.5c-14 -17.333 -31.167 -30.5 -51.5 -39.5s-39.5 -13.5 -57.5 -13.5c-34 0 -60.5 8 -79.5 24s-28.5 44 -28.5 84c0 18.667 0.666992 32.667 2 42s8.33301 41.166 21 95.499s36.167 98.333 70.5 132s85.5 50.5 153.5 50.5
c56 0 96.833 -8.33301 122.5 -25s38.5 -47.334 38.5 -92.001c0 -23.333 -4 -52.666 -12 -87.999zM393 470c2.66699 13.333 5.16699 26.665 7.5 39.998s3.5 24.333 3.5 33c0 26 -14 39 -42 39c-21.333 0 -37.333 -10.167 -48 -30.5s-20 -48.166 -28 -83.499
s-12 -62.333 -12 -81c0 -28.667 12.333 -43 37 -43c20.667 0 36.5 7.83301 47.5 23.5s22.5 49.834 34.5 102.501z" />
    <glyph glyph-name="colon" unicode=":" horiz-adv-x="223" 
d="M247 324h-111l28 121h111zM172 0h-111l28 121h111z" />
    <glyph glyph-name="semicolon" unicode=";" horiz-adv-x="223" 
d="M250 322h-112l28 121h112zM210 66l-115 -203h-90l80 203h125z" />
    <glyph glyph-name="less" unicode="&#x3c;" horiz-adv-x="223" 
d="M215 86h-91l-39 176l120 177h91l-95 -177z" />
    <glyph glyph-name="equal" unicode="=" horiz-adv-x="473" 
d="M521 336h-418l12 55h418zM492 213h-418l13 55h418z" />
    <glyph glyph-name="greater" unicode="&#x3e;" horiz-adv-x="223" 
d="M256 264l-115 -176h-96l98 176l-16 177h96z" />
    <glyph glyph-name="question" unicode="?" horiz-adv-x="389" 
d="M478 538c-11.333 -48 -25.166 -82.665 -41.499 -103.998s-43.833 -52.833 -82.5 -94.5s-60.667 -74.167 -66 -97.5l-14 -58h-91l22 94c8 34 32.333 77.667 73 131s63.834 92.166 69.501 116.499s8.5 39.166 8.5 44.499c0 7.33301 -1.83301 13.166 -5.5 17.499
s-10.834 6.5 -21.501 6.5c-8.66699 0 -16.834 -3.33301 -24.501 -10s-12.834 -14.667 -15.501 -24l-13 -48h-133c16 67.333 39.333 111.5 70 132.5s74.334 31.5 131.001 31.5c46.667 0 81.667 -7 105 -21s35 -37.667 35 -71c0 -13.333 -2 -28.666 -6 -45.999z
M240 0.00195312h-111l28 121h111z" />
    <glyph glyph-name="at" unicode="@" horiz-adv-x="609" 
d="M643 404c-16 -69.333 -44.833 -130.999 -86.5 -184.999s-85.834 -81 -132.501 -81c-44.667 0 -67 22.667 -67 68c0 4.66699 0.666992 11.667 2 21c-7.33301 -22.667 -21.5 -43.167 -42.5 -61.5s-41.833 -27.5 -62.5 -27.5c-18.667 0 -32.834 8.33301 -42.501 25
s-14.5 37.667 -14.5 63c0 12.667 4.5 39 13.5 79s34.167 86.667 75.5 140s78.333 80 111 80c15.333 0 28.166 -5.33301 38.499 -16s16.5 -22 18.5 -34l18 37h56l-118 -293c-1.33301 -3.33301 -2.33301 -6.66602 -3 -9.99902s-1 -6.66602 -1 -9.99902c0 -18 8 -27 24 -27
c34.667 0 68.5 24.167 101.5 72.5s54.167 92.5 63.5 132.5s14 72 14 96c0 50 -13.167 90.5 -39.5 121.5s-64.5 46.5 -114.5 46.5c-72.667 0 -139 -34.5 -199 -103.5s-96.667 -132 -110 -189s-20 -101.5 -20 -133.5c0 -58 12.333 -106.333 37 -145s61.334 -58 110.001 -58
c34 0 67.5 7.33301 100.5 22s65 33.167 96 55.5s65.167 49.166 102.5 80.499c1.33301 -8 1 -15.333 -1 -22s-5.66699 -14.334 -11 -23.001c-42.667 -48 -88.167 -85.167 -136.5 -111.5s-100.166 -39.5 -155.499 -39.5c-63.333 0 -111.833 19.667 -145.5 59
s-50.5 92.666 -50.5 159.999c0 16.667 1 33.334 3 50.001s10.833 58.667 26.5 126s57.834 135 126.501 203s148 102 238 102c58.667 0 104.5 -16.5 137.5 -49.5s49.5 -78.833 49.5 -137.5c0 -26.667 -3.33301 -54.334 -10 -83.001zM424 406.001
c4.66699 17.333 7.00098 33.334 7.00098 48.001c0 10.667 -1.5 18.667 -4.5 24s-9.5 8 -19.5 8c-25.333 0 -54.333 -29.5 -87 -88.5s-52 -101.333 -58 -127s-9.33301 -41 -10 -46s-1 -10.167 -1 -15.5c0 -12.667 2.16699 -22.334 6.5 -29.001s12.166 -10 23.499 -10
c17.333 0 43 28.333 77 85s56 107 66 151z" />
    <glyph glyph-name="A" unicode="A" horiz-adv-x="500" 
d="M510 0h-145l-3 148h-185l-72 -148h-123l332 666h178zM361 250l8 304l-143 -304h135z" />
    <glyph glyph-name="B" unicode="B" horiz-adv-x="500" 
d="M520 200c-14 -60.667 -39.165 -109.166 -75.498 -145.499s-86.833 -54.5 -151.5 -54.5h-242l154 666h265c40 0 69.333 -10.667 88 -32s28 -49.666 28 -84.999c0 -12.667 -0.333008 -22.334 -1 -29.001s-4.33398 -24 -11.001 -52s-23.334 -52.167 -50.001 -72.5
s-61.334 -34.166 -104.001 -41.499c34.667 -3.33301 60.834 -14.833 78.501 -34.5s26.5 -44.834 26.5 -75.501c0 -11.333 -0.333008 -19.333 -1 -24s-2 -11.334 -4 -20.001zM434.002 486.001c3.33301 14.667 5 26.333 5 35c0 31.333 -14.667 47 -44 47h-78l-39 -170h78
c38.667 0 64.667 29.333 78 88zM378.002 192c4.66699 21.333 7.00098 39.334 7.00098 54.001c0 17.333 -3.33301 30.833 -10 40.5s-18.334 14.5 -35.001 14.5h-85l-46 -202h80c20.667 0 39.5 10.167 56.5 30.5s27.833 41.166 32.5 62.499z" />
    <glyph glyph-name="C" unicode="C" horiz-adv-x="473" 
d="M567 485l-9.99805 -34h-137c3.33301 16 6 29.5 8 40.5s3 20.833 3 29.5c0 16.667 -4.16699 29.334 -12.5 38.001s-23.833 13 -46.5 13c-24.667 0 -46.667 -14 -66 -42s-37 -76.333 -53 -145s-27.167 -118 -33.5 -148s-9.5 -57.333 -9.5 -82
c0 -22.667 4.5 -38.5 13.5 -47.5s23.833 -13.5 44.5 -13.5c25.333 0 45.5 9.5 60.5 28.5s27.833 52.5 38.5 100.5h137c-18 -77.333 -43.333 -135.333 -76 -174s-95.334 -58 -188.001 -58c-63.333 0 -107.833 9.83301 -133.5 29.5s-38.5 54.167 -38.5 103.5
c0 24.667 3.16699 55.667 9.5 93s19.333 98.666 39 183.999s50.5 152.666 92.5 201.999s108 74 198 74c57.333 0 99.666 -11.333 126.999 -34s41 -55 41 -97c0 -17.333 -2.66699 -37.666 -8 -60.999z" />
    <glyph glyph-name="D" unicode="D" horiz-adv-x="500" 
d="M561 316c-24.667 -108 -56.168 -187.667 -94.501 -239s-100.166 -77 -185.499 -77h-230l154 666h254c46.667 0 80.167 -12.667 100.5 -38s30.5 -63.333 30.5 -114c0 -49.333 -9.66699 -115.333 -29 -198zM419.999 336c18.667 80 28.001 134.668 28.001 164.001
c0 24.667 -5.16699 41.5 -15.5 50.5s-27.833 13.5 -52.5 13.5h-61l-106 -459h84c30 0 52.667 15.667 68 47s33.666 92.666 54.999 183.999z" />
    <glyph glyph-name="E" unicode="E" 
d="M404 0h-353l154 666h340l-24 -102h-198l-38 -166h190l-24 -105h-190l-44 -188h211z" />
    <glyph glyph-name="F" unicode="F" horiz-adv-x="406" 
d="M521 561h-200l-39 -166h190l-24 -104h-190l-67 -291h-140l154 666h340z" />
    <glyph glyph-name="G" unicode="G" horiz-adv-x="500" 
d="M466 20c-41.333 -9.33301 -76.3311 -16.333 -104.998 -21s-60.334 -7 -95.001 -7c-70 0 -120 8.66699 -150 26s-45 55 -45 113c0 40 12.667 115.833 38 227.5s58.833 192.5 100.5 242.5s109.167 75 202.5 75c64 0 108.333 -10.167 133 -30.5s37 -49.5 37 -87.5
c0 -13.333 -1.33301 -28 -4 -44s-6 -33 -10 -51h-137c6 25.333 9 46.333 9 63c0 33.333 -17.667 50 -53 50c-36 0 -62.833 -14.833 -80.5 -44.5s-37.667 -92.667 -60 -189s-33.5 -159.833 -33.5 -190.5c0 -23.333 5.16699 -38.833 15.5 -46.5s28.166 -11.5 53.499 -11.5
c18 0 32.167 0.666992 42.5 2s17.833 2 22.5 2l35 152h-72l24 104h209z" />
    <glyph glyph-name="H" unicode="H" horiz-adv-x="527" 
d="M480 0h-142l68 295h-145l-68 -295h-142l154 666h142l-61 -264h145l61 264h142z" />
    <glyph glyph-name="I" unicode="I" horiz-adv-x="250" 
d="M191 0h-140l154 666h140z" />
    <glyph glyph-name="J" unicode="J" 
d="M408 160c-11.333 -48.667 -35.498 -88.833 -72.498 -120.5s-90.833 -47.5 -161.5 -47.5c-45.333 0 -83.833 9 -115.5 27s-47.5 47.667 -47.5 89c0 10 1.66699 22.667 5 38l17 75h139l-10 -43c-4.66699 -18.667 -7 -33.667 -7 -45c0 -12.667 3 -22.334 9 -29.001
s16.667 -10 32 -10c23.333 0 39.666 5.33301 48.999 16s16.666 27.334 21.999 50.001l117 506h141z" />
    <glyph glyph-name="K" unicode="K" horiz-adv-x="500" 
d="M510 0h-155l-68 371l213 295h138l-211 -281zM191 0h-140l154 666h140z" />
    <glyph glyph-name="L" unicode="L" horiz-adv-x="374" 
d="M381 0h-330l154 666h140l-130 -561h190z" />
    <glyph glyph-name="M" unicode="M" horiz-adv-x="723" 
d="M688 0h-135l139 600l-264 -600h-137l12 600l-139 -600h-113l154 666h219l-16 -483l213 483h221z" />
    <glyph glyph-name="N" unicode="N" horiz-adv-x="527" 
d="M508 0h-195l-30 523l-121 -523h-111l154 666h183l37 -518l120 518h117z" />
    <glyph glyph-name="O" unicode="O" horiz-adv-x="500" 
d="M532 266c-22 -98 -53.168 -168.167 -93.501 -210.5s-101.833 -63.5 -184.5 -63.5c-66 0 -113.333 13 -142 39s-43 65.333 -43 118c0 31.333 5.33301 70.333 16 117l38 164c18 75.333 51 135.166 99 179.499s110 66.5 186 66.5c60.667 0 104.834 -14.167 132.501 -42.5
s41.5 -67.166 41.5 -116.499c0 -26 -3.66699 -54.667 -11 -86zM384.999 228l51.999 228c6 26 9 47.333 9 64c0 20 -4.66699 34 -14 42s-24.666 12 -45.999 12c-31.333 0 -55.333 -8.66699 -72 -26s-30 -47.333 -40 -90l-54 -232c-3.33301 -14 -6 -27.167 -8 -39.5
s-3 -23.5 -3 -33.5c0 -22.667 5.16699 -38.167 15.5 -46.5s26.833 -12.5 49.5 -12.5c30.667 0 53.667 9 69 27s29.333 53.667 42 107z" />
    <glyph glyph-name="P" unicode="P" horiz-adv-x="473" 
d="M574 466c-15.333 -68 -41.832 -118.333 -79.499 -151s-80.834 -49 -129.501 -49h-116l-61 -266h-137l154 666l265 -1c38.667 0 67.167 -11.667 85.5 -35s27.5 -54 27.5 -92c0 -22.667 -3 -46.667 -9 -72zM437.001 470c4 18 6 33.333 6 46c0 33.333 -16 50 -48 50h-76
l-46 -199h82c21.333 0 38.5 9.5 51.5 28.5s23.167 43.833 30.5 74.5z" />
    <glyph glyph-name="Q" unicode="Q" horiz-adv-x="500" 
d="M540 -4l-296 -3.00098c-53.333 0 -95.666 11.667 -126.999 35s-47 60 -47 110c0 17.333 2.66699 38.666 8 63.999l63 276c15.333 64.667 45.833 113.834 91.5 147.501s104.167 50.5 175.5 50.5c55.333 0 99 -11.833 131 -35.5s48 -59.167 48 -106.5
c0 -10.667 -0.333008 -19 -1 -25s-2.66699 -15.667 -6 -29l-62 -269c-6 -24.667 -16.667 -47.667 -32 -69s-36.333 -44.666 -63 -69.999c21.333 6 44.666 10.833 69.999 14.5s48.333 5.5 69 5.5zM379 218.999l52.002 228c2.66699 10.667 5.33398 23 8.00098 37s4 26 4 36
c0 18 -4.33301 31.833 -13 41.5s-24.334 14.5 -47.001 14.5c-24.667 0 -45 -7.5 -61 -22.5s-32.333 -50.5 -49 -106.5l-53 -230c-6 -26 -9 -48 -9 -66c0 -39.333 19.333 -59 58 -59c25.333 0 47.166 9.66699 65.499 29s33.166 52 44.499 98z" />
    <glyph glyph-name="R" unicode="R" horiz-adv-x="527" 
d="M486 0h-146c3.33301 30 10.166 71.833 20.499 125.5s15.5 87.5 15.5 101.5c0 18.667 -3.83301 32.5 -11.5 41.5s-21.5 13.5 -41.5 13.5c-8.66699 0 -21.667 -0.833008 -39 -2.5s-28 -2.5 -32 -2.5l-64 -277h-137l154 666l269 -1c42 0 71.833 -8.83301 89.5 -26.5
s26.5 -42.5 26.5 -74.5c0 -17.333 -4.66699 -46 -14 -86s-24.5 -71.333 -45.5 -94s-54.833 -40 -101.5 -52c34.667 -6 58.834 -18 72.501 -36s20.5 -41 20.5 -69c0 -22 -6 -59 -18 -111s-18 -90.667 -18 -116zM436 476c4 18 5.99805 33.001 5.99805 45.001
c0 17.333 -4.66699 29.166 -14 35.499s-25.666 9.5 -48.999 9.5h-60l-44 -189l54 1c29.333 0 51.833 5.33301 67.5 16s28.834 38 39.501 82z" />
    <glyph glyph-name="S" unicode="S" horiz-adv-x="445" 
d="M477 178c-14.667 -62.667 -40.666 -108.833 -77.999 -138.5s-95.333 -44.5 -174 -44.5c-65.333 0 -111 10.167 -137 30.5s-39 50.5 -39 90.5c0 24.667 4.33301 55 13 91h142c-2.66699 -10 -5.16699 -21.5 -7.5 -34.5s-3.5 -23.5 -3.5 -31.5
c0 -16 3.33301 -28.167 10 -36.5s19.334 -12.5 38.001 -12.5c31.333 0 53.5 6.83301 66.5 20.5s21.333 29.334 25 47.001s5.5 28.834 5.5 33.501c0 26 -17.667 51.833 -53 77.5l-104 75.5c-37.333 32.667 -56 67 -56 103v12.5c0 3.66699 4.33301 23.667 13 60
s36.167 71.166 82.5 104.499s102.166 50 167.499 50c44.667 0 82.667 -9.5 114 -28.5s47 -51.833 47 -98.5c0 -14.667 -2 -31.667 -6 -51l-9 -37h-141c6.66699 28.667 10 51.667 10 69s-3.83301 29.166 -11.5 35.499s-19.834 9.5 -36.501 9.5
c-15.333 0 -30.5 -5.66699 -45.5 -17s-24.167 -24.5 -27.5 -39.5s-5 -25.833 -5 -32.5c0 -28 17.167 -52.333 51.5 -73l101.5 -61c36 -30 54 -68 54 -114c0 -19.333 -2.33301 -39.333 -7 -60z" />
    <glyph glyph-name="T" unicode="T" horiz-adv-x="426" 
d="M562 561h-151l-130 -561h-140l130 561h-149l24 105h440z" />
    <glyph glyph-name="U" unicode="U" horiz-adv-x="527" 
d="M518 164c-15.333 -57.333 -42 -100.331 -80 -128.998s-97.333 -43 -178 -43c-63.333 0 -108.833 10.333 -136.5 31s-41.5 50 -41.5 88c0 9.33301 1 19.666 3 30.999s3.33301 18.666 4 21.999l116 502h140l-112 -486c-3.33301 -12.667 -5 -25.334 -5 -38.001
c0 -30.667 19.333 -46 58 -46c28 0 48.833 6.33301 62.5 19s24.167 34.334 31.5 65.001l112 486h142z" />
    <glyph glyph-name="V" unicode="V" horiz-adv-x="473" 
d="M634 666l-318 -666h-160l-12 666h145l-6 -499l223 499h128z" />
    <glyph glyph-name="W" unicode="W" horiz-adv-x="723" 
d="M900 666l-287 -666h-150l26 507l-221 -507h-153l29 666h135l-28 -454l204 454h154l-18 -455l186 455h123z" />
    <glyph glyph-name="X" unicode="X" horiz-adv-x="445" 
d="M477 0h-159l-53 234l-156 -234h-132l246 348l-83 318h157l37 -215l144 215h133l-231 -324z" />
    <glyph glyph-name="Y" unicode="Y" horiz-adv-x="445" 
d="M613 666l-262 -406l-60 -260h-141l60 260l-74 406h147l34 -281l165 281h131z" />
    <glyph glyph-name="Z" unicode="Z" 
d="M406 0h-392l29 125l335 439h-234l24 102h384l-25 -109l-351 -453h254z" />
    <glyph glyph-name="bracketleft" unicode="[" horiz-adv-x="334" 
d="M233 -135h-207l187 809h207l-24 -102h-82l-139 -601h82z" />
    <glyph glyph-name="backslash" unicode="\" horiz-adv-x="609" 
d="M531 -8h-66l-274 647h72z" />
    <glyph glyph-name="bracketright" unicode="]" horiz-adv-x="334" 
d="M242 -135h-207l23 102h84l139 601h-84l25 106h207z" />
    <glyph glyph-name="asciicircum" unicode="^" horiz-adv-x="417" 
d="M489 516h-123l-30 74l-64 -74h-121l133 150h142z" />
    <glyph glyph-name="underscore" unicode="_" horiz-adv-x="609" 
d="M572 -150h-607l12 50h607z" />
    <glyph glyph-name="grave" unicode="`" horiz-adv-x="246" 
d="M331 516h-92l-53 150h137z" />
    <glyph glyph-name="a" unicode="a" horiz-adv-x="389" 
d="M373 0l-129 -0.000976562l10 53c-21.333 -20.667 -40.833 -35.167 -58.5 -43.5s-41.167 -12.5 -70.5 -12.5c-24 0 -42.333 5.5 -55 16.5s-19 31.5 -19 61.5c0 18 5.16699 49.5 15.5 94.5s34.166 76.167 71.499 93.5s94.333 26 171 26l9 47.5
c2.66699 13.667 4 24.167 4 31.5c0 17.333 -10 26 -30 26c-17.333 0 -29.333 -5 -36 -15s-12.667 -27 -18 -51h-125c10 45.333 28.333 79.833 55 103.5s74.334 35.5 143.001 35.5c40 0 73.167 -7 99.5 -21s39.5 -36.333 39.5 -67c0 -7.33301 -1 -15.666 -3 -24.999l-63 -270
c-2 -10.667 -4 -25.667 -6 -45s-3.66699 -32.333 -5 -39zM293 220.999c-37.333 0 -62.833 -4.83301 -76.5 -14.5s-23.167 -26.167 -28.5 -49.5s-8 -40 -8 -50c0 -10.667 2.5 -19 7.5 -25s13.167 -9 24.5 -9c23.333 0 39.833 12 49.5 36s20.167 61.333 31.5 112z" />
    <glyph glyph-name="b" unicode="b" 
d="M408 117c-10 -44.667 -27.998 -76.334 -53.998 -95.001s-56.333 -28 -91 -28c-20.667 0 -38.334 4.33301 -53.001 13s-28 20.667 -40 36l-10 -43h-127l154 666h127l-59 -256c37.333 38.667 77.666 58 120.999 58c28.667 0 51 -7.33301 67 -22s24 -35 24 -61
c0 -3.33301 -0.166992 -7.16602 -0.5 -11.499s-1.5 -10.833 -3.5 -19.5zM289.002 143l43.999 189c1.33301 8 2 13.333 2 16c0 12 -3.16699 21.833 -9.5 29.5s-14.833 11.5 -25.5 11.5c-14 0 -26.833 -6.16699 -38.5 -18.5s-19.5 -26.5 -23.5 -42.5l-42 -182l-4 -39
c0 -10.667 2.5 -18.667 7.5 -24s14.833 -8 29.5 -8c14 0 26.333 6.33301 37 19s18.334 29 23.001 49z" />
    <glyph glyph-name="c" unicode="c" horiz-adv-x="389" 
d="M429 295l-129.003 -0.000976562c7.33301 31.333 11 53.333 11 66c0 17.333 -9 26 -27 26c-14 0 -26.167 -9.66699 -36.5 -29s-22.833 -61.333 -37.5 -126s-22 -106.667 -22 -126c0 -12.667 2.16699 -21.167 6.5 -25.5s11.166 -6.5 20.499 -6.5
c14.667 0 25.334 5.66699 32.001 17s15 38.333 25 81h127c-13.333 -54.667 -33.166 -97.667 -59.499 -129s-74.5 -47 -144.5 -47c-51.333 0 -87.166 7.83301 -107.499 23.5s-30.5 41.5 -30.5 77.5c0 14.667 1.83301 32.334 5.5 53.001s12.834 62.5 27.501 125.5
s38.5 110.667 71.5 143s80.167 48.5 141.5 48.5c90.667 0 136 -35 136 -105c0 -20.667 -3.33301 -43 -10 -67z" />
    <glyph glyph-name="d" unicode="d" 
d="M377 0h-120.998l10 45c-20.667 -17.333 -40.834 -30.333 -60.501 -39s-40.834 -13 -63.501 -13c-30 0 -52.167 8.16699 -66.5 24.5s-21.5 38.833 -21.5 67.5v14.5c0 4.33301 1.66699 14.5 5 30.5l53 229c8 34 23.833 60.333 47.5 79s54.5 28 92.5 28
c24.667 0 42.167 -4 52.5 -12s23.833 -22.667 40.5 -44l59 256h127zM281.002 135l41.001 177c0.666992 4.66699 1.5 9.5 2.5 14.5s1.5 10.833 1.5 17.5c0 14 -2.66699 25.5 -8 34.5s-14 13.5 -26 13.5c-16 0 -29.333 -8.16699 -40 -24.5s-18.667 -35.833 -24 -58.5l-39 -172
c-2 -9.33301 -3 -18 -3 -26c0 -11.333 3 -20.333 9 -27s15.667 -10 29 -10s25.166 6.16699 35.499 18.5s17.5 26.5 21.5 42.5z" />
    <glyph glyph-name="e" unicode="e" horiz-adv-x="389" 
d="M406 160c-12 -51.333 -33.168 -91.167 -63.501 -119.5s-77.833 -42.5 -142.5 -42.5c-52 0 -88.833 9.16699 -110.5 27.5s-32.5 47.5 -32.5 87.5c0 29.333 7.33301 75.5 22 138.5s39.5 114.667 74.5 155s86.167 60.5 153.5 60.5c50 0 85 -8.33301 105 -25
s30 -43.667 30 -81c0 -20.667 -1.83301 -41.667 -5.5 -63s-10.5 -53 -20.5 -95h-213c-5.33301 -22 -10.166 -43 -14.499 -63s-6.5 -35 -6.5 -45c0 -19.333 10.333 -29 31 -29c21.333 0 37 9 47 27s18.333 40.333 25 67h121zM306.999 274.999
c5.33301 19.333 9.66895 36 13.002 50s5 25.667 5 35c0 24 -11 36 -33 36c-26.667 0 -43.334 -11.167 -50.001 -33.5s-14.334 -51.5 -23.001 -87.5h88z" />
    <glyph glyph-name="f" unicode="f" horiz-adv-x="223" 
d="M331 377l-69.999 0.000976562l-87 -377h-129l87 377h-59l19 82h59l21 90c9.33301 39.333 24.166 70.166 44.499 92.499s54.833 33.5 103.5 33.5c12 0 24.667 -1 38 -3l40 -6l-18 -78c-24.667 0 -43.167 -3 -55.5 -9s-20.5 -17.667 -24.5 -35l-20 -85h70z" />
    <glyph glyph-name="g" unicode="g" 
d="M380 14c-14.667 -64.667 -36.5 -111.832 -65.5 -141.499s-80.5 -44.5 -154.5 -44.5c-52 0 -88.5 7.66699 -109.5 23s-31.5 37.666 -31.5 66.999c0 6 0.5 12.833 1.5 20.5s2.83301 18.5 5.5 32.5h127c-1.33301 -10 -2.5 -18.333 -3.5 -25s-1.5 -10.667 -1.5 -12
c0 -10.667 2.33301 -19 7 -25s13.667 -9 27 -9c12 0 23.833 4.83301 35.5 14.5s19.5 22.5 23.5 38.5l27 115c-22 -21.333 -39.333 -37 -52 -47s-37.667 -15 -75 -15c-30.667 0 -52.5 6.5 -65.5 19.5s-19.5 35.167 -19.5 66.5c0 29.333 8.83301 83 26.5 161
s39.667 133.5 66 166.5s64.833 49.5 115.5 49.5c12 0 24.333 -3.16699 37 -9.5s28.667 -19.5 48 -39.5l9 39h125zM286 154.002l40.001 174.001c2 8 3 15.333 3 22c0 28 -13.667 42 -41 42c-14.667 0 -26.834 -8.33301 -36.501 -25s-16.834 -35.334 -21.501 -56.001l-37 -159
c-0.666992 -4 -1.5 -8.5 -2.5 -13.5s-1.5 -10.167 -1.5 -15.5c0 -12 2.83301 -21.167 8.5 -27.5s14.834 -9.5 27.501 -9.5c16 0 29 6.83301 39 20.5s17.333 29.5 22 47.5z" />
    <glyph glyph-name="h" unicode="h" 
d="M381 0h-127l70 303c2 8 4 16.5 6 25.5s3 16.833 3 23.5c0 10.667 -2.33301 18.667 -7 24s-13 8 -25 8c-20 0 -35.833 -9.16699 -47.5 -27.5s-21.167 -42.833 -28.5 -73.5l-65 -283h-127l154 666h127l-59 -256c16.667 16.667 34.5 30.167 53.5 40.5s37.5 15.5 55.5 15.5
c66 0 99 -28.667 99 -86c0 -10.667 -0.333008 -19 -1 -25s-2.66699 -15.667 -6 -29z" />
    <glyph glyph-name="i" unicode="i" horiz-adv-x="195" 
d="M290 561h-127l24 105h127zM160 0h-127l106 459h127z" />
    <glyph glyph-name="j" unicode="j" horiz-adv-x="195" 
d="M287 557h-127l25 109h127zM152 -27c-15.333 -66 -35.334 -106 -60.001 -120s-76 -21 -154 -21l19 82c23.333 0 38.833 3.16699 46.5 9.5s14.834 22.833 21.501 49.5l112 486h127z" />
    <glyph glyph-name="k" unicode="k" 
d="M406 0h-138l-41 264l139 195h129l-144 -191zM160 0h-127l154 666h127z" />
    <glyph glyph-name="l" unicode="l" horiz-adv-x="195" 
d="M160 0h-127l154 666h127z" />
    <glyph glyph-name="m" unicode="m" horiz-adv-x="639" 
d="M602 0l-126.997 0.00292969l70 303c2 9.33301 3.66699 17.5 5 24.5s2 13.167 2 18.5c0 11.333 -2.66699 20.166 -8 26.499s-14.666 9.5 -27.999 9.5c-14 0 -26.833 -6.33301 -38.5 -19s-18.5 -23.667 -20.5 -33l-76 -330h-129l77 334c1.33301 5.33301 2 9.66602 2 12.999
c0 24.667 -12 37 -36 37c-15.333 0 -29 -9 -41 -27s-20.667 -38.667 -26 -62l-68 -295h-127l106 459h125l-9 -41c19.333 16 38.666 28.167 57.999 36.5s39.666 12.5 60.999 12.5c23.333 0 42.166 -5.16699 56.499 -15.5s25.166 -25.5 32.499 -45.5
c21.333 19.333 42.5 34.5 63.5 45.5s42.167 16.5 63.5 16.5c32 0 55.5 -8.16699 70.5 -24.5s22.5 -38.5 22.5 -66.5c0 -16.667 -2.66699 -36.334 -8 -59.001z" />
    <glyph glyph-name="n" unicode="n" 
d="M381 0h-129.001l78 338c1.33301 6.66699 2 11 2 13c0 22 -11 33 -33 33c-19.333 0 -34.166 -7.16699 -44.499 -21.5s-18.166 -32.833 -23.499 -55.5l-71 -307h-127l106 459h125l-9 -41c21.333 16 41.166 28.333 59.499 37s37.5 13 57.5 13c32.667 0 56 -7.83301 70 -23.5
s21 -37.167 21 -64.5c0 -10 -0.833008 -20.167 -2.5 -30.5s-3.16699 -18.833 -4.5 -25.5z" />
    <glyph glyph-name="o" unicode="o" 
d="M439 238c-22.667 -98.667 -48 -163.335 -76 -194.002s-79 -46 -153 -46c-56 0 -94.833 7 -116.5 21s-32.5 40.667 -32.5 80c0 28.667 8.5 79.834 25.5 153.501s41 127.834 72 162.501s85.167 52 162.5 52c50 0 85.333 -8.5 106 -25.5s31 -43.833 31 -80.5
c0 -16 -1.33301 -32.5 -4 -49.5s-7.66699 -41.5 -15 -73.5zM308 235.999c14 58 20.999 97.335 20.999 118.002c0 22.667 -10.333 34 -31 34c-21.333 0 -37 -9.5 -47 -28.5s-20.167 -51.333 -30.5 -97s-18 -80.834 -23 -105.501s-7.5 -42 -7.5 -52
c0 -12 2.83301 -20.167 8.5 -24.5s14.834 -6.5 27.501 -6.5c22 0 37 8.16699 45 24.5s20.333 62.166 37 137.499z" />
    <glyph glyph-name="p" unicode="p" 
d="M411 129c-9.33301 -42 -26.668 -74.668 -52.001 -98.001s-61.333 -35 -108 -35c-22 0 -36.333 2.16699 -43 6.5s-19.667 16.5 -39 36.5l-49 -211h-127l146 631h127l-10 -45c19.333 17.333 37 30.5 53 39.5s34 13.5 54 13.5c30.667 0 54.834 -6.66699 72.501 -20
s26.5 -36.666 26.5 -69.999c0 -10.667 -0.333008 -19 -1 -25s-2.66699 -16 -6 -30zM323.998 299.999c1.33301 6.66699 2.66699 14.667 4 24s2 17.333 2 24c0 12.667 -2.5 22.667 -7.5 30s-14.167 11 -27.5 11s-26 -7.83301 -38 -23.5s-22 -40.5 -30 -74.5l-32 -141
c-2.66699 -14.667 -4 -24.667 -4 -30c0 -30.667 11.333 -46 34 -46c16.667 0 30 6.66699 40 20s18.167 32.5 24.5 57.5l19.5 78c6.66699 27 11.667 50.5 15 70.5z" />
    <glyph glyph-name="q" unicode="q" 
d="M335 -172l-122.999 -0.000976562l49 209c-18.667 -12.667 -34.334 -22.667 -47.001 -30s-33.667 -11 -63 -11c-64.667 0 -97 29 -97 87c0 15.333 2 32 6 50l48 211c8 35.333 26.5 64.833 55.5 88.5s63.833 35.5 104.5 35.5c18.667 0 35 -5.16699 49 -15.5
s24.333 -23.166 31 -38.499l10 45h123zM283.001 144.999l36.999 158.001c3.33301 15.333 5 28.666 5 39.999c0 14.667 -2.66699 26 -8 34s-14.666 12 -27.999 12c-14.667 0 -28.5 -10 -41.5 -30s-22.167 -41.333 -27.5 -64l-35 -150c-2 -9.33301 -3 -18 -3 -26
c0 -30 13 -45 39 -45c16 0 29.333 7 40 21s18 30.667 22 50z" />
    <glyph glyph-name="r" unicode="r" horiz-adv-x="277" 
d="M357 363c-46.667 0 -79 -6.16797 -97 -18.501s-33 -44.166 -45 -95.499l-57 -249h-125l106 459h125l-15 -63c18 24.667 34.833 42.667 50.5 54s35.167 17 58.5 17h23z" />
    <glyph glyph-name="s" unicode="s" horiz-adv-x="389" 
d="M387 144c-12.667 -57.333 -35.334 -95.833 -68.001 -115.5s-75.667 -29.5 -129 -29.5c-50.667 0 -87.5 6.33301 -110.5 19s-34.5 37 -34.5 73c0 12 0.333008 21.333 1 28s3 17.667 7 33h123c-2 -8 -4 -17 -6 -27s-3 -18.667 -3 -26c0 -18 11.333 -27 34 -27
c19.333 0 32.833 5 40.5 15s12.667 19.333 15 28s3.5 15 3.5 19c0 12 -27.833 37.333 -83.5 76s-83.5 72 -83.5 100c0 8.66699 2.66699 24.167 8 46.5s25.333 46.333 60 72s77 38.5 127 38.5c52 0 88.333 -7.33301 109 -22s31 -37.667 31 -69c0 -6 -0.666992 -13.5 -2 -22.5
s-3 -18.833 -5 -29.5h-123c2 10 3.66699 18.667 5 26s2 13 2 17c0 9.33301 -2.33301 16.5 -7 21.5s-13.667 7.5 -27 7.5s-23.166 -3.66699 -29.499 -11s-11.5 -20.333 -15.5 -39c-3.33301 -14 23 -38.833 79 -74.5s84 -71.167 84 -106.5
c0 -9.33301 -0.666992 -16.333 -2 -21z" />
    <glyph glyph-name="t" unicode="t" horiz-adv-x="250" 
d="M252 0c-6 -0.666992 -14.668 -1.16602 -26.001 -1.49902s-21.333 -0.833008 -30 -1.5c-47.333 0 -80 3.83301 -98 11.5s-27 25.834 -27 54.501c0 16.667 2.33301 34.667 7 54l60 260h-65l19 82h65l18 76l134 51l-29 -127h68l-19 -82h-68l-57 -248
c-1.33301 -6.66699 -2 -13.334 -2 -20.001s1.33301 -13.834 4 -21.501s10.334 -11.5 23.001 -11.5c8.66699 0 17.5 0.166992 26.5 0.5s13.833 1.5 14.5 3.5z" />
    <glyph glyph-name="u" unicode="u" 
d="M379 0l-120.998 0.000976562l10 45c-22.667 -18.667 -42 -31.334 -58 -38.001s-38.333 -10 -67 -10c-30 0 -51.833 7.16699 -65.5 21.5s-20.5 34.833 -20.5 61.5c0 16 2.66699 35.667 8 59l74 320h127l-78 -338c-1.33301 -6.66699 -2 -11 -2 -13
c0 -10 3.33301 -17.167 10 -21.5s14 -6.5 22 -6.5c21.333 0 37.166 6 47.499 18s17.166 25.667 20.499 41l74 320h125z" />
    <glyph glyph-name="v" unicode="v" horiz-adv-x="361" 
d="M483 459l-219 -459h-151l-13 459h129l-6 -329l147 329h113z" />
    <glyph glyph-name="w" unicode="w" horiz-adv-x="611" 
d="M733 459l-204 -459h-138l-5 313l-148 -313h-146l8 459h127l-20 -326l153 326h131v-321l129 321h113z" />
    <glyph glyph-name="x" unicode="x" horiz-adv-x="361" 
d="M381 0h-135l-33 168l-100 -168h-119l175 244l-63 215h135l29 -133l82 133h119l-161 -215z" />
    <glyph glyph-name="y" unicode="y" horiz-adv-x="361" 
d="M479 459l-330 -627h-118l90 168l-29 459h135l1 -296l130 296h121z" />
    <glyph glyph-name="z" unicode="z" horiz-adv-x="334" 
d="M303 0h-299l24 105l227 274h-154l19 80h289l-22 -96l-234 -275h170z" />
    <glyph glyph-name="braceleft" unicode="{" horiz-adv-x="350" 
d="M467 752l-84.001 -0.00292969c-1.33301 -2.66699 -8.33301 -31.667 -21 -87l-37.5 -165.5c-12.333 -55 -18.833 -82.5 -19.5 -82.5c-3.33301 -13.333 -15.333 -30.666 -36 -51.999s-40.667 -36.333 -60 -45c15.333 -10 28.5 -24.333 39.5 -43
s14.833 -34.334 11.5 -47.001l-78 -347h78l-13 -57h-121c-9.33301 0 -20.666 9.33301 -33.999 28s-18 35.334 -14 50.001l72 311c2.66699 12.667 4 24.334 4 35.001c0 16 -3.66699 26.833 -11 32.5s-19.666 11.834 -36.999 18.501l9 37c20.667 4 37.667 11 51 21
s22.666 25.667 27.999 47l75 328c3.33301 13.333 18 31 44 53s46.667 33 62 33h107z" />
    <glyph glyph-name="bar" unicode="|" horiz-adv-x="609" 
d="M337 -12h-82l192 832h82z" />
    <glyph glyph-name="braceright" unicode="}" horiz-adv-x="350" 
d="M368 301c-23.333 -5.33301 -41 -13.167 -53 -23.5s-21.667 -31.166 -29 -62.499l-72 -311c-3.33301 -12.667 -15.333 -28.834 -36 -48.501s-36.667 -29.5 -48 -29.5h-121l13 57h80l80 347c3.33301 14 14.333 30 33 48s38.667 32 60 42c-14.667 8 -27 19.833 -37 35.5
s-15 31.167 -15 46.5c0 4.66699 0.333008 8 1 10l79 340h-84l15 68h105c14 0 29.5 -10.167 46.5 -30.5s23.5 -38.833 19.5 -55.5l-75 -328c-1.33301 -4.66699 -2 -11 -2 -19c0 -14 4.33301 -24.833 13 -32.5s20.667 -13.167 36 -16.5z" />
    <glyph glyph-name="asciitilde" unicode="~" horiz-adv-x="356" 
d="M401 334c-18 -44 -35.999 -73.834 -53.999 -89.501s-38.667 -23.5 -62 -23.5c-13.333 0 -33.333 7.5 -60 22.5s-42.334 22.5 -47.001 22.5c-8 0 -15.5 -3.33301 -22.5 -10s-11.5 -14 -13.5 -22h-66c8 30.667 23.333 57 46 79s46.334 33 71.001 33
c17.333 0 37.666 -6.5 60.999 -19.5s39.333 -19.5 48 -19.5c8 0 14.833 2.83301 20.5 8.5s9.16699 11.834 10.5 18.501h68z" />
    <glyph glyph-name="nonbreakingspace" unicode="&#xa0;" horiz-adv-x="500" 
 />
    <glyph glyph-name="exclamdown" unicode="&#xa1;" horiz-adv-x="223" 
d="M290 547h-111l28 119h111zM170 0h-123l127 482h93z" />
    <glyph glyph-name="cent" unicode="&#xa2;" horiz-adv-x="389" 
d="M429 295l-126.997 -0.00292969l-98 -219h13c14 0 24 4.83301 30 14.5s14.333 36.834 25 81.501h127c-12.667 -53.333 -30.834 -95.666 -54.501 -126.999s-70.5 -47 -140.5 -47h-38l-44 -96h-43l49 102c-26.667 6.66699 -45.167 17.334 -55.5 32.001s-15.5 35 -15.5 61
c0 20.667 3 44.5 9 71.5l26 116c11.333 50.333 32.166 92.833 62.499 127.5s78.5 52 144.5 52l42 -1l40 86h39l-41 -92c21.333 -5.33301 36.666 -16 45.999 -32s14 -35.667 14 -59c0 -10 -0.833008 -20.5 -2.5 -31.5s-4.16699 -24.167 -7.5 -39.5zM307.003 380.997
c-2.66699 0.666992 -6.49902 1.83301 -11.499 3.5s-8.83301 2.5 -11.5 2.5c-17.333 0 -31.333 -14.167 -42 -42.5s-21.334 -66.5 -32.001 -114.5l-15 -80z" />
    <glyph glyph-name="sterling" unicode="&#xa3;" horiz-adv-x="473" 
d="M562 506h-124.998c4.66699 18.667 7 33 7 43c0 20.667 -11.333 31 -34 31c-30.667 0 -50.334 -19 -59.001 -57l-26 -111h90l-19 -82h-90l-56 -242h188l-20 -88h-383l20 88h67l56 242h-81l19 82h81l20 86c12 53.333 36.667 96.333 74 129s81.666 49 132.999 49
c52.667 0 90.167 -9 112.5 -27s33.5 -44.333 33.5 -79c0 -18 -2.66699 -39.333 -8 -64z" />
    <glyph glyph-name="currency" unicode="&#xa4;" horiz-adv-x="444" 
d="M452 176l-67 -53.001l-27 30c-34 -20 -71 -30 -111 -30c-18 0 -34.167 2.5 -48.5 7.5s-28.5 12.5 -42.5 22.5l-39 -30l-40 53l37 29c-8 18 -12 36.333 -12 55c0 11.333 2 25.833 6 43.5s9.83301 33.834 17.5 48.501s18.834 29.667 33.501 45l-25 30l66 54l25 -30
c34 18 70.667 27 110 27c36.667 0 67.667 -9.33301 93 -28l40 30l42 -53l-40 -30c8 -19.333 12 -39 12 -59c0 -10.667 -2 -24.5 -6 -41.5s-9.83301 -32.5 -17.5 -46.5s-18.834 -29 -33.501 -45zM390 302.999c2 10 2.99902 19.332 2.99902 27.999
c0 22.667 -6.33301 41.334 -19 56.001s-31 22 -55 22c-31.333 0 -58.166 -10.167 -80.499 -30.5s-35.833 -41 -40.5 -62s-7 -35.833 -7 -44.5c0 -22.667 6.5 -41.5 19.5 -56.5s31.167 -22.5 54.5 -22.5c30 0 56.5 10.5 79.5 31.5s38.167 47.167 45.5 78.5z" />
    <glyph glyph-name="yen" unicode="&#xa5;" horiz-adv-x="445" 
d="M613 666l-262 -406l-3 -13h75l-12 -54h-75l-16 -67h75l-12 -54h-75l-17 -72h-141l17 72h-74l12 54h74l16 67h-74l12 54h74l3 13l-74 406h147l30 -292l169 292h131z" />
    <glyph glyph-name="brokenbar" unicode="&#xa6;" horiz-adv-x="265" 
d="M261 338h-91l64 277h91zM184 -1h-92l68 294h92z" />
    <glyph glyph-name="section" unicode="&#xa7;" horiz-adv-x="473" 
d="M498 257c-10 -42.667 -22.8301 -71.999 -38.4971 -87.999s-39.834 -37.667 -72.501 -65c12.667 -25.333 19 -53.666 19 -84.999c0 -15.333 -3.66699 -38 -11 -68s-27.666 -56.333 -60.999 -79s-81.666 -34 -144.999 -34c-42.667 0 -77.667 7.66699 -105 23s-41 38 -41 68
c0 8 1 16 3 24l22 96h123l-18 -88c-2 -11.333 0.666992 -19.666 8 -24.999s18.666 -8 33.999 -8c32 0 50 9.33301 54 28s6 32.667 6 42c0 22 -8.33301 42.333 -25 61l-132 138c-8 8.66699 -14.333 17 -19 25s-7 19.333 -7 34v10.5c0 3 2.5 15 7.5 36
s18.167 43.167 39.5 66.5l68 63c-10.667 16.667 -16 40.667 -16 72c0 14 3.33301 34.667 10 62s28.167 52.666 64.5 75.999s77.166 35 122.499 35c57.333 0 97.333 -7.5 120 -22.5s34 -37.833 34 -68.5c0 -6.66699 -0.333008 -13.667 -1 -21s-2.66699 -18.666 -6 -33.999
l-12 -51h-117l10 43l4 18.5c1.33301 6.33301 2 11.833 2 16.5c0 9.33301 -2.83301 16.666 -8.5 21.999s-15.834 8 -30.501 8c-18 0 -32.167 -3.5 -42.5 -10.5s-16.666 -15.5 -18.999 -25.5s-3.5 -18.333 -3.5 -25c0 -11.333 2.66699 -21.833 8 -31.5
s13.666 -19.834 24.999 -30.501l113 -103c11.333 -11.333 20.166 -25.5 26.499 -42.5s9.5 -33.167 9.5 -48.5v-9c-1.33301 -2.66699 -2 -4.33398 -2 -5.00098zM379.003 215.001c1.33301 6.66699 2.00195 11.667 2.00195 15c0 8 -2.16699 15.667 -6.5 23
s-10.5 15.333 -18.5 24l-98 96l-24 -24c-11.333 -13.333 -18.333 -26 -21 -38c-3.33301 -12 4 -27.667 22 -47l97 -102c9.33301 8 19.166 17.5 29.499 28.5s16.166 19.167 17.499 24.5z" />
    <glyph glyph-name="dieresis" unicode="&#xa8;" horiz-adv-x="314" 
d="M403 547h-100l25 107h100zM249 547h-96l25 107h96z" />
    <glyph glyph-name="copyright" unicode="&#xa9;" horiz-adv-x="504" 
d="M486 357c0 -81.333 -22.001 -149.999 -66.001 -205.999s-97 -84 -159 -84s-115 27.333 -159 82s-66 122.667 -66 204s20.833 149.166 62.5 203.499s93.834 81.5 156.501 81.5c62 0 116 -26.833 162 -80.5s69 -120.5 69 -200.5zM427.999 355.001
c0 61.333 -16.667 114 -50 158s-73.333 66 -120 66s-86.334 -22 -119.001 -66s-49 -97.333 -49 -160c0 -62 16.833 -114.833 50.5 -158.5s73.834 -65.5 120.501 -65.5c46 0 85.333 22.167 118 66.5s49 97.5 49 159.5zM368.999 293.001
c0 -38.667 -5.83105 -67.501 -17.498 -86.501s-40.834 -28.5 -87.501 -28.5s-76.334 11.667 -89.001 35s-19 71 -19 143c0 59.333 7.66699 101.333 23 126s45.333 37 90 37c37.333 0 63.333 -9.5 78 -28.5s22 -46.833 22 -83.5h-68c0 20.667 -1.83301 35.834 -5.5 45.501
s-14.5 14.5 -32.5 14.5c-15.333 0 -25.333 -9.66699 -30 -29s-7 -46.333 -7 -81c0 -53.333 2.16699 -88 6.5 -104s15.5 -24 33.5 -24c12.667 0 21.667 4.83301 27 14.5s8 26.167 8 49.5h68z" />
    <glyph glyph-name="ordfeminine" unicode="&#xaa;" horiz-adv-x="310" 
d="M352 441h-76.999l5 32c-12.667 -12 -24.334 -20.667 -35.001 -26s-24.667 -8 -42 -8c-14.667 0 -25.834 3.5 -33.501 10.5s-11.5 19.5 -11.5 37.5c0 12.667 3.16699 32 9.5 58s20.666 44.167 42.999 54.5s56.5 15.5 102.5 15.5c5.33301 25.333 8 41.333 8 48
c0 10 -5.66699 15 -17 15c-10.667 0 -18.167 -3 -22.5 -9s-8.16602 -16.333 -11.499 -31h-75c6.66699 27.333 18 48.166 34 62.499s44.667 21.5 86 21.5c24.667 0 44.667 -4.16699 60 -12.5s23 -21.833 23 -40.5c0 -3.33301 -0.666992 -8.33301 -2 -15l-37 -162
c-1.33301 -7.33301 -2.66602 -16.666 -3.99902 -27.999s-2.33301 -19 -3 -23zM362.001 355h-260l13 58h260zM296.001 538l7.99805 36.002c-22 0 -37.167 -2.83301 -45.5 -8.5s-14.166 -15.334 -17.499 -29.001s-5 -23.834 -5 -30.501c0 -14 6.33301 -21 19 -21
c8.66699 0 16.834 5.16699 24.501 15.5s13.167 22.833 16.5 37.5z" />
    <glyph glyph-name="guillemotleft" unicode="&#xab;" 
d="M397 86h-92l-36 176l117 177h92l-96 -177zM215 86h-91l-39 176l120 177h91l-95 -177z" />
    <glyph glyph-name="logicalnot" unicode="&#xac;" horiz-adv-x="2518" 
d="M2121 505c0 -42 -19.3301 -107.999 -57.9971 -197.999s-73.5 -162.333 -104.5 -217s-57.5 -95.667 -79.5 -123s-48.667 -41 -80 -41c-26.667 0 -53.334 8.66699 -80.001 26s-40 38.333 -40 63c0 16 4.66699 31.667 14 47s22 30.666 38 45.999
c19.333 -23.333 35.166 -40.333 47.499 -51s28.5 -16 48.5 -16c54.667 0 102.167 43.667 142.5 131s60.5 161.666 60.5 222.999c0 36.667 -9.83301 60.5 -29.5 71.5s-47.834 16.5 -84.501 16.5c-59.333 0 -98.333 -17.333 -117 -52s-29.667 -53 -33 -55l-13 19
c0 92.667 3.83301 146.834 11.5 162.501s37.5 23.5 89.5 23.5h56c58.667 0 108.5 -4.33301 149.5 -13s61.5 -29.667 61.5 -63zM2403 186.001c0 -96 -27.165 -166.331 -81.498 -210.998s-130.5 -67 -228.5 -67c-42 0 -76.333 5.33301 -103 16s-40 24.667 -40 42
c0 13.333 3.83301 23.5 11.5 30.5s17.5 10.5 29.5 10.5c11.333 0 23.333 -3.5 36 -10.5s21.5 -15.667 26.5 -26s13 -19 24 -26s23.5 -11.833 37.5 -14.5c76 0 133.667 20.333 173 61s59 102 59 184c2 19.333 3 40 3 62c0 98 -23.833 188 -71.5 270
s-123.5 129.833 -227.5 143.5s-183.667 23.334 -239 29.001s-99.666 8.5 -132.999 8.5c-46 0 -96.5 -4.5 -151.5 -13.5l-177 -29.5c-63 -10.667 -148.333 -52.667 -256 -126s-201.167 -158 -280.5 -254s-123.666 -182 -132.999 -258c31.333 -44 47 -89.333 47 -136
c0 -15.333 -1.16699 -27.833 -3.5 -37.5s-8.5 -14.5 -18.5 -14.5c-18.667 0 -33.5 16.5 -44.5 49.5s-16.5 61.167 -16.5 84.5v13c-41.333 33.333 -75.666 63.666 -102.999 90.999s-42.833 54.166 -46.5 80.499s-5.5 47.5 -5.5 63.5c0 10.667 0.666992 18.667 2 24s2 9 2 11
c-29.333 -25.333 -64.833 -53.666 -106.5 -84.999s-83.167 -58.333 -124.5 -81s-75.333 -34 -102 -34c-12.667 0 -23.667 3.5 -33 10.5s-14 16.833 -14 29.5c0 33.333 8.66699 76.166 26 128.499s33.333 88.5 48 108.5l64 88c7.33301 8.66699 12.333 14.834 15 18.501
s4.66699 7.5 6 11.5c-30.667 0 -53.334 7 -68.001 21s-24.334 37 -29.001 69c10 -2 20 -3 30 -3c36.667 0 73.167 10.333 109.5 31s70.5 47 102.5 79c2.66699 4.66699 5 7 7 7c2.66699 0 5.16699 -4.33301 7.5 -13s3.5 -16 3.5 -22c0 -53.333 -16.667 -93 -50 -119l-82 -52
c-6.66699 -12 -25.667 -39.5 -57 -82.5s-47 -81.167 -47 -114.5c0 -22 5.16699 -48.333 15.5 -79s22.5 -46 36.5 -46c23.333 0 61.5 18.333 114.5 55l143.5 101c1.33301 2.66699 14 32.667 38 90s43.833 95.666 59.5 114.999s27.5 31.833 35.5 37.5s16.667 8.5 26 8.5
c7.33301 0 13.666 -2.33301 18.999 -7s8 -11.334 8 -20.001c0 -26 -11.167 -51.167 -33.5 -75.5s-47.5 -44.833 -75.5 -61.5c-4.66699 -8.66699 -11.5 -31.5 -20.5 -68.5s-13.5 -60.5 -13.5 -70.5c0 -12 9 -32.5 27 -61.5s43.667 -63.5 77 -103.5
c17.333 83.333 64.333 171 141 263s164.167 171.833 262.5 239.5s188.166 110 269.499 127s153 29.833 215 38.5s127 13 195 13c51.333 0 104 -2.33301 158 -7s112.833 -12 176.5 -22s118.667 -31.667 165 -65s85.166 -86.333 116.499 -159s47 -168.667 47 -288z
M1610 -45.9971c-2 -8.66699 -6.99902 -15.001 -14.999 -19.001s-18 -6 -30 -6c-8 0 -18 1.66699 -30 5s-22.667 10.5 -32 21.5s-12.666 22.167 -9.99902 33.5c5.33301 16 20.666 24 45.999 24c7.33301 0 16.666 -1.66699 27.999 -5s21.5 -9.16602 30.5 -17.499
s13.5 -17.833 13.5 -28.5c0 -3.33301 -0.333008 -6 -1 -8zM1589.01 220.002c0 -39.333 -13.3369 -77.1689 -40.0039 -113.502s-72.5 -79.5 -137.5 -129.5s-156.833 -75 -275.5 -75c-61.333 0 -115.166 12 -161.499 36s-69.5 63.333 -69.5 118c0 34 12.167 64.833 36.5 92.5
s54.5 46.167 90.5 55.5l3 -9c-34 -13.333 -57 -27.333 -69 -42s-18 -31.667 -18 -51c0 -51.333 27 -86.166 81 -104.499s115 -27.5 183 -27.5c100 0 173.333 17.5 220 52.5s75.167 60.333 85.5 76s15.5 32.834 15.5 51.501c0 21.333 -8.5 37.5 -25.5 48.5
s-47.5 16.5 -91.5 16.5c-19.333 0 -46.333 -1.5 -81 -4.5s-54 -4.5 -58 -4.5c-50 0 -92.5 11 -127.5 33s-52.5 57.333 -52.5 106c0 68.667 31 123 93 163s129.667 60 203 60c25.333 0 44.333 -1.5 57 -4.5s25 -10.833 37 -23.5c6 2 11 3 15 3
c9.33301 0 17.833 -8.16699 25.5 -24.5s13.834 -26.333 18.501 -30s7 -7.5 7 -11.5c-2 -8.66699 -8.83301 -19.334 -20.5 -32.001l-37.5 -41c-2 -8 -5.66699 -12 -11 -12c-4.66699 0 -11.667 4.16699 -21 12.5s-16.166 13 -20.499 14s-10.333 2.83301 -18 5.5
s-11.5 7.33398 -11.5 14.001c0 9.33301 6.16699 22 18.5 38s18.5 28.667 18.5 38c0 13.333 -6.33301 22.666 -19 27.999s-27 8 -43 8c-54.667 0 -107 -13.833 -157 -41.5s-75 -67.167 -75 -118.5c0 -28.667 12.333 -48.167 37 -58.5s52.667 -15.5 84 -15.5
c13.333 0 33.333 1 60 3s46.334 3 59.001 3c58.667 0 105.5 -5.66699 140.5 -17s52.5 -39.666 52.5 -84.999zM903.002 -51.001c-2.66699 -9.33301 -8.33301 -16.3311 -17 -20.998s-19.334 -7 -32.001 -7c-9.33301 0 -17.666 1.33301 -24.999 4
c-14.667 3.33301 -26.834 9.66602 -36.501 18.999s-14.5 19.666 -14.5 30.999c0 4 1.5 11 4.5 21s17.833 15 44.5 15c8 0 18.167 -1.66699 30.5 -5s23.833 -10.833 34.5 -22.5s14.334 -23.167 11.001 -34.5z" />
    <glyph glyph-name="registered" unicode="&#xae;" horiz-adv-x="519" 
d="M486 357c0 -81.333 -22.001 -149.999 -66.001 -205.999s-97 -84 -159 -84s-115 27.333 -159 82s-66 122.667 -66 204s20.833 149.166 62.5 203.499s93.834 81.5 156.501 81.5c62 0 116 -26.833 162 -80.5s69 -120.5 69 -200.5zM427.999 355.001
c0 61.333 -16.667 114 -50 158s-73.333 66 -120 66s-86.334 -22 -119.001 -66s-49 -97.333 -49 -160c0 -62 16.833 -114.833 50.5 -158.5s73.834 -65.5 120.501 -65.5c46 0 85.333 22.167 118 66.5s49 97.5 49 159.5zM373.999 212.001l-65.999 -0.00195312
c-2 30.667 -3.66699 61.334 -5 92.001c-2.66699 23.333 -13.334 35 -32.001 35l-31 -2v-125h-62v301h121c23.333 0 40.166 -6.83301 50.499 -20.5s15.5 -31.167 15.5 -52.5c0 -26 -3.5 -44.167 -10.5 -54.5s-20.5 -18.166 -40.5 -23.499c30.667 -6 48 -21 52 -45
c0.666992 -39.333 3.33398 -74.333 8.00098 -105zM302 426.999c0 16.667 -2.33301 27.667 -7 33s-14 8 -28 8h-27v-86l24 1c14 0 23.833 2.33301 29.5 7s8.5 17 8.5 37z" />
    <glyph glyph-name="macron" unicode="&#xaf;" horiz-adv-x="462" 
d="M555 577h-397l18 76h397z" />
    <glyph glyph-name="macron" unicode="&#x2c9;" horiz-adv-x="462" 
d="M555 577h-397l18 76h397z" />
    <glyph glyph-name="degree" unicode="&#xb0;" horiz-adv-x="264" 
d="M359 592c-6.66699 -26.667 -19.5 -48.833 -38.5 -66.5s-42.5 -26.5 -70.5 -26.5c-22.667 0 -40.667 6.5 -54 19.5s-20 29.5 -20 49.5c0 8.66699 1.83301 20.5 5.5 35.5s16.5 31.5 38.5 49.5s45.667 27 71 27c20 0 36.667 -7 50 -21s20 -31 20 -51
c0 -4 -0.666992 -9.33301 -2 -16zM312 590.001c0.666992 2.66699 0.999023 6.66797 0.999023 12.001c0 9.33301 -2.5 16.833 -7.5 22.5s-13.5 8.5 -25.5 8.5c-13.333 0 -24.666 -4.33301 -33.999 -13s-15.333 -19.334 -18 -32.001c-2.66699 -11.333 -1 -21.333 5 -30
s15 -13 27 -13s22.833 4.5 32.5 13.5s16.167 19.5 19.5 31.5z" />
    <glyph glyph-name="plusminus" unicode="&#xb1;" horiz-adv-x="549" 
d="M567 263h-197l-28 -122h-68l28 122h-197l15 68h197l29 122h68l-29 -122h197zM510 19h-462l16 68h462z" />
    <glyph glyph-name="twosuperior" unicode="&#xb2;" horiz-adv-x="271" 
d="M321 405h-194.001l13 59c40 33.333 76.667 68.5 110 105.5s52 63.5 56 79.5s6 27 6 33c0 9.33301 -5.33301 14 -16 14c-11.333 0 -19.666 -3.16699 -24.999 -9.5s-10.666 -19.833 -15.999 -40.5h-66c6.66699 30.667 17.167 54.667 31.5 72s40.166 26 77.499 26
c54 0 81 -18.667 81 -56c0 -7.33301 -2.33301 -20.5 -7 -39.5s-14.667 -37.833 -30 -56.5s-63 -64.667 -143 -138h133z" />
    <glyph glyph-name="threesuperior" unicode="&#xb3;" horiz-adv-x="262" 
d="M332 471c-8 -34.667 -20.9961 -58.666 -38.9961 -71.999s-45.667 -20 -83 -20c-28 0 -47.5 4.16699 -58.5 12.5s-16.5 20.833 -16.5 37.5c0 12 2 25.667 6 41h67c-3.33301 -13.333 -5 -23 -5 -29c0 -11.333 6.66699 -17 20 -17c11.333 0 20 3.83301 26 11.5
s10.667 19.667 14 36s5 25.5 5 27.5c0 12 -4 20.5 -12 25.5s-19.333 7.5 -34 7.5l12 51c18.667 0 32.667 2.66699 42 8s16.666 18.666 21.999 39.999c1.33301 8 2 13.667 2 17c0 16 -7 24 -21 24c-8.66699 0 -15.834 -3.5 -21.501 -10.5s-9.5 -15.5 -11.5 -25.5h-67
c6.66699 28 18 49 34 63s41 21 75 21c29.333 0 50 -4.5 62 -13.5s18 -22.167 18 -39.5c0 -10 -2.33301 -24.833 -7 -44.5s-10.834 -33.167 -18.501 -40.5s-22.834 -15.333 -45.501 -24c14.667 -4.66699 25 -10 31 -16s9 -16.667 9 -32c0 -12.667 -1.66699 -25.667 -5 -39z
" />
    <glyph glyph-name="acute" unicode="&#xb4;" horiz-adv-x="230" 
d="M354 666l-121 -150h-92l78 150h135z" />
    <glyph glyph-name="mu" unicode="&#xb5;" horiz-adv-x="500" 
d="M435 -7h-107.999l10 40c-18 -15.333 -38.333 -27.333 -61 -36s-45.334 -13 -68.001 -13c-13.333 0 -26.333 2.33301 -39 7l-42 -183h-107l161 697h107l-86 -369c-1.33301 -6.66699 -2 -11.334 -2 -14.001c0 -14.667 5 -27 15 -37s25 -15 45 -15c32 0 57 11.333 75 34
s30 47.334 36 74.001l76 328h107z" />
    <glyph glyph-name="paragraph" unicode="&#xb6;" horiz-adv-x="575" 
d="M500 -121l-116.001 -0.000976562l179 776h-58l-179 -776h-124l106 459c-45.333 0 -84.833 12.667 -118.5 38s-50.5 61.333 -50.5 108c0 16 3.66699 39.333 11 70s35.833 66.334 85.5 107.001s113.834 61 192.501 61h267z" />
    <glyph glyph-name="periodcentered" unicode="&#xb7;" horiz-adv-x="215" 
d="M247 354c-3.33301 -16 -11.832 -29.833 -25.499 -41.5s-28.167 -17.5 -43.5 -17.5c-14 0 -25.667 4 -35 12s-14 18.667 -14 32c0 4.66699 1 11.667 3 21s9.83301 20 23.5 32s28.5 18 44.5 18c13.333 0 24.666 -4.33301 33.999 -13s14 -19.667 14 -33
c0 -4 -0.333008 -7.33301 -1 -10z" />
    <glyph glyph-name="periodcentered" unicode="&#x2219;" horiz-adv-x="215" 
d="M247 354c-3.33301 -16 -11.832 -29.833 -25.499 -41.5s-28.167 -17.5 -43.5 -17.5c-14 0 -25.667 4 -35 12s-14 18.667 -14 32c0 4.66699 1 11.667 3 21s9.83301 20 23.5 32s28.5 18 44.5 18c13.333 0 24.666 -4.33301 33.999 -13s14 -19.667 14 -33
c0 -4 -0.333008 -7.33301 -1 -10z" />
    <glyph glyph-name="cedilla" unicode="&#xb8;" horiz-adv-x="186" 
d="M153 -13l-68 -150h-97l97 150h68z" />
    <glyph glyph-name="onesuperior" unicode="&#xb9;" horiz-adv-x="182" 
d="M226 365h-66l61 262c-18 -14.667 -36.667 -26.667 -56 -36l14 58c25.333 12 46.333 28.333 63 49h61z" />
    <glyph glyph-name="ordmasculine" unicode="&#xba;" horiz-adv-x="295" 
d="M391 590c-13.333 -58.667 -28.501 -97.166 -45.501 -115.499s-47.5 -27.5 -91.5 -27.5c-32.667 0 -55.5 4.16699 -68.5 12.5s-19.5 23.833 -19.5 46.5c0 12 1.16699 24.167 3.5 36.5s7.33301 35.666 15 69.999s20.834 62 39.501 83s51 31.5 97 31.5c30 0 51 -5 63 -15
s18 -26 18 -48c0 -18 -3.66699 -42.667 -11 -74zM353.999 365.001h-245l15 64h245zM312.999 589.001c8 35.333 11.998 59 11.998 71c0 13.333 -6 20 -18 20c-12.667 0 -22 -5.5 -28 -16.5s-13.5 -36.333 -22.5 -76s-13.5 -65.167 -13.5 -76.5c0 -12.667 7 -19 21 -19
c12.667 0 21.334 4.83301 26.001 14.5s12.334 37.167 23.001 82.5z" />
    <glyph glyph-name="guillemotright" unicode="&#xbb;" 
d="M442 264l-117 -176h-94l98 176l-16 177h94zM256 264l-115 -176h-96l98 176l-16 177h96z" />
    <glyph glyph-name="onequarter" unicode="&#xbc;" horiz-adv-x="510" 
d="M232 390l-66 0.000976562l61 262c-6 -4.66699 -14.833 -10.834 -26.5 -18.501s-21.5 -13.5 -29.5 -17.5l14 58c25.333 12 46.333 28.333 63 49h61zM526 465.001l-396 -305l25 108l397 308zM486 75.001h-43l-17 -76h-67l17 76h-116l14 61l134 196h95l-49 -209h43z
M387 123.001l35 152l-96 -152h61z" />
    <glyph glyph-name="onehalf" unicode="&#xbd;" horiz-adv-x="560" 
d="M536 -2h-194.001l13 59c40 33.333 76.667 68.5 110 105.5s52 63.5 56 79.5s6 27 6 33c0 9.33301 -5.33301 14 -16 14c-11.333 0 -19.666 -3.16699 -24.999 -9.5s-10.666 -19.833 -15.999 -40.5h-66c6.66699 30.667 17.167 54.667 31.5 72s40.166 26 77.499 26
c54 0 81 -18.667 81 -56c0 -7.33301 -2.33301 -20.5 -7 -39.5s-14.667 -37.833 -30 -56.5s-63 -64.667 -143 -138h133zM231.999 391h-66l61 262c-18 -14.667 -36.667 -26.667 -56 -36l14 58c25.333 12 46.333 28.333 63 49h61zM545.999 465l-396 -305l25 108l397 308z" />
    <glyph glyph-name="threequarters" unicode="&#xbe;" horiz-adv-x="567" 
d="M322 469c-8 -34 -20.9961 -57.832 -38.9961 -71.499s-45.333 -20.5 -82 -20.5c-28 0 -47.667 4.16699 -59 12.5s-17 21.166 -17 38.499c0 11.333 2 24.666 6 39.999h67c-2.66699 -10.667 -4 -20.334 -4 -29.001c0 -11.333 6.33301 -17 19 -17
c11.333 0 20 3.83301 26 11.5s10.667 19.667 14 36s5 25.833 5 28.5c0 11.333 -4 19.5 -12 24.5s-19.333 7.5 -34 7.5l12 51c19.333 0 33.666 2.5 42.999 7.5s15.333 13.833 18 26.5s4.16699 20.834 4.5 24.501s0.5 6.16699 0.5 7.5c0 15.333 -6.66699 23 -20 23
c-8.66699 0 -15.834 -3.5 -21.501 -10.5s-9.83398 -15.5 -12.501 -25.5h-67c6.66699 28 18.167 49 34.5 63s41.5 21 75.5 21c29.333 0 50 -4.5 62 -13.5s18 -22.167 18 -39.5c0 -5.33301 -1.33301 -15.333 -4 -30c-7.33301 -29.333 -14.833 -47.666 -22.5 -54.999
s-22.834 -15.333 -45.501 -24c14.667 -4 25.167 -9.16699 31.5 -15.5s9.5 -16.833 9.5 -31.5c0 -10.667 -2 -24 -6 -40zM536.004 465.001l-396 -305l25 108l397 308zM486.004 75.001h-43l-17 -76h-67l17 76h-116l14 61l134 196h95l-49 -209h43zM387.004 123.001l35 152
l-96 -152h61z" />
    <glyph glyph-name="questiondown" unicode="&#xbf;" horiz-adv-x="389" 
d="M383 557h-111l27 119h111zM395 164c-13.333 -55.333 -33.8359 -96.666 -61.5029 -123.999s-73.167 -41 -136.5 -41c-45.333 0 -80.5 7 -105.5 21s-37.5 38 -37.5 72c0 10 3.66699 31.167 11 63.5s21.333 62.5 42 90.5s48.334 60.5 83.001 97.5s54.334 65.5 59.001 85.5
l15 63h92l-17 -70c-14.667 -62 -41.667 -116 -81 -162s-61.666 -80.833 -66.999 -104.5s-8 -38.5 -8 -44.5c0 -10.667 2.33301 -17.834 7 -21.501s11.667 -5.5 21 -5.5c25.333 0 44 26.667 56 80h128z" />
    <glyph glyph-name="Agrave" unicode="&#xc0;" horiz-adv-x="500" 
d="M510 0h-145l-3 148h-185l-72 -148h-123l332 666h178zM361 250l8 304l-143 -304h135zM457 709h-92l-53 150h137z" />
    <glyph glyph-name="Aacute" unicode="&#xc1;" horiz-adv-x="500" 
d="M510 0h-145l-3 148h-185l-72 -148h-123l332 666h178zM361 250l8 304l-143 -304h135zM489 853l-121 -150h-92l78 150h135z" />
    <glyph glyph-name="Acircumflex" unicode="&#xc2;" horiz-adv-x="500" 
d="M510 0h-145l-3 148h-185l-72 -148h-123l332 666h178zM361 250l8 304l-143 -304h135zM479 861h-142l-133 -150h121l64 74l30 -74h123z" />
    <glyph glyph-name="Atilde" unicode="&#xc3;" horiz-adv-x="500" 
d="M510 0h-145l-3 148h-185l-72 -148h-123l332 666h178zM361 250l8 304l-143 -304h135zM553 829c-7.33301 -32 -20.666 -58.666 -39.999 -79.999s-43.333 -32 -72 -32c-23.333 0 -45 7.33301 -65 22s-35.667 22 -47 22c-10 0 -17.667 -3.33301 -23 -10l-12 -21h-66
c7.33301 31.333 21.666 57.666 42.999 78.999s46 32 74 32c12.667 0 32 -6.5 58 -19.5s45.333 -19.5 58 -19.5c5.33301 0 9.83301 3 13.5 9l10.5 18h68z" />
    <glyph glyph-name="Adieresis" unicode="&#xc4;" horiz-adv-x="500" 
d="M510 0h-145l-3 148h-185l-72 -148h-123l332 666h178zM361 250l8 304l-143 -304h135zM505 713h-100l25 107h100zM351 713h-96l25 107h96z" />
    <glyph glyph-name="Aring" unicode="&#xc5;" horiz-adv-x="500" 
d="M510 0h-145l-3 148h-185l-72 -148h-123l332 666h178zM361 250l8 304l-143 -304h135zM475 784c-6 -25.333 -19.998 -46.333 -41.998 -63s-44 -25 -66 -25c-20.667 0 -38.334 6 -53.001 18s-22 28.333 -22 49c0 6.66699 1.83301 18 5.5 34s16.667 33.167 39 51.5
s46.166 27.5 71.499 27.5c22 0 39 -6.66699 51 -20s18 -30.333 18 -51c0 -9.33301 -0.666992 -16.333 -2 -21zM431.002 788c2 8 1.33496 16.833 -1.99805 26.5s-14 14.5 -32 14.5c-13.333 0 -24.833 -4.16699 -34.5 -12.5s-15.334 -16 -17.001 -23s-2.5 -12.833 -2.5 -17.5
c0 -23.333 11.333 -35 34 -35c12 0 23.167 4.66699 33.5 14s17.166 20.333 20.499 33z" />
    <glyph glyph-name="AE" unicode="&#xc6;" horiz-adv-x="695" 
d="M689 -2h-319l13 148h-188l-89 -148h-128l403 666h461l-23 -102h-268l-14 -168h229l-24 -103h-213l-14 -188h198zM390 248l44 316l-179 -316h135z" />
    <glyph glyph-name="Ccedilla" unicode="&#xc7;" horiz-adv-x="473" 
d="M567 485l-9.99805 -34.002h-137c3.33301 16 6 29.5 8 40.5s3 20.833 3 29.5c0 16.667 -4.16699 29.334 -12.5 38.001s-23.833 13 -46.5 13c-24.667 0 -46.667 -14 -66 -42s-37 -76.333 -53 -145s-27.167 -118 -33.5 -148s-9.5 -57.333 -9.5 -82
c0 -22.667 4.5 -38.5 13.5 -47.5s23.833 -13.5 44.5 -13.5c25.333 0 45.5 9.5 60.5 28.5s27.833 52.5 38.5 100.5h137c-16 -70.667 -37.333 -124.667 -64 -162s-76.667 -59.666 -150 -66.999l-62 -139h-97l87 136c-54.667 0 -93.334 10 -116.001 30s-34 53.333 -34 100
c0 25.333 3.16699 56.666 9.5 93.999s19.333 99 39 185s50.5 153.667 92.5 203s108 74 198 74c57.333 0 99.666 -11.333 126.999 -34s41 -55 41 -97c0 -17.333 -2.66699 -37.666 -8 -60.999z" />
    <glyph glyph-name="Egrave" unicode="&#xc8;" horiz-adv-x="389" 
d="M404 0h-353l154 666h340l-24 -102h-198l-38 -166h190l-24 -105h-190l-44 -188h211zM427 706h-92l-53 150h137z" />
    <glyph glyph-name="Eacute" unicode="&#xc9;" horiz-adv-x="389" 
d="M404 0h-353l154 666h340l-24 -102h-198l-38 -166h190l-24 -105h-190l-44 -188h211zM468 859l-121 -150h-92l78 150h135z" />
    <glyph glyph-name="Ecircumflex" unicode="&#xca;" horiz-adv-x="389" 
d="M404 0h-353l154 666h340l-24 -102h-198l-38 -166h190l-24 -105h-190l-44 -188h211zM457 861h-142l-133 -150h121l64 74l30 -74h123z" />
    <glyph glyph-name="Edieresis" unicode="&#xcb;" horiz-adv-x="389" 
d="M404 0h-353l154 666h340l-24 -102h-198l-38 -166h190l-24 -105h-190l-44 -188h211zM472 713h-100l25 107h100zM318 713h-96l25 107h96z" />
    <glyph glyph-name="Igrave" unicode="&#xcc;" horiz-adv-x="250" 
d="M191 0h-140l154 666h140zM329 706h-92l-53 150h137z" />
    <glyph glyph-name="Iacute" unicode="&#xcd;" horiz-adv-x="250" 
d="M191 0h-140l154 666h140zM361 847l-121 -150h-92l78 150h135z" />
    <glyph glyph-name="Icircumflex" unicode="&#xce;" horiz-adv-x="250" 
d="M191 0h-140l154 666h140zM353 858h-142l-133 -150h121l64 74l30 -74h123z" />
    <glyph glyph-name="Idieresis" unicode="&#xcf;" horiz-adv-x="250" 
d="M191 0h-140l154 666h140zM377 713h-100l25 107h100zM223 713h-96l25 107h96z" />
    <glyph glyph-name="Eth" unicode="&#xd0;" horiz-adv-x="500" 
d="M513 227c-17.333 -74.667 -47.667 -131.167 -91 -169.5s-111.666 -57.5 -204.999 -57.5h-188l73 318h-56l23 98h56l58 250h211c66 0 112.5 -11.667 139.5 -35s40.5 -57 40.5 -101c0 -16 -1.33301 -32.5 -4 -49.5s-6.33398 -36.167 -11.001 -57.5zM371.999 207l52 224.001
c0 0.666992 2.16699 11 6.5 31s6.5 35 6.5 45c0 19.333 -4.16699 34.666 -12.5 45.999s-23.833 17 -46.5 17h-82l-34 -147h114l-25 -106h-114l-52 -225h55c36.667 0 65.167 8 85.5 24s35.833 46.333 46.5 91z" />
    <glyph glyph-name="Ntilde" unicode="&#xd1;" horiz-adv-x="527" 
d="M508 0h-195l-30 523l-121 -523h-111l154 666h183l37 -518l120 518h117zM598 829c-7.33301 -32 -20.666 -58.666 -39.999 -79.999s-43.333 -32 -72 -32c-23.333 0 -45 7.33301 -65 22s-35.667 22 -47 22c-10 0 -17.667 -3.33301 -23 -10l-12 -21h-66
c7.33301 31.333 21.666 57.666 42.999 78.999s46 32 74 32c12.667 0 32 -6.5 58 -19.5s45.333 -19.5 58 -19.5c5.33301 0 9.83301 3 13.5 9l10.5 18h68z" />
    <glyph glyph-name="Ograve" unicode="&#xd2;" horiz-adv-x="500" 
d="M532 266c-22 -98 -53.168 -168.167 -93.501 -210.5s-101.833 -63.5 -184.5 -63.5c-66 0 -113.333 13 -142 39s-43 65.333 -43 118c0 31.333 5.33301 70.333 16 117l38 164c18 75.333 51 135.166 99 179.499s110 66.5 186 66.5c60.667 0 104.834 -14.167 132.501 -42.5
s41.5 -67.166 41.5 -116.499c0 -26 -3.66699 -54.667 -11 -86zM384.999 228l51.999 228c6 26 9 47.333 9 64c0 20 -4.66699 34 -14 42s-24.666 12 -45.999 12c-31.333 0 -55.333 -8.66699 -72 -26s-30 -47.333 -40 -90l-54 -232c-3.33301 -14 -6 -27.167 -8 -39.5
s-3 -23.5 -3 -33.5c0 -22.667 5.16699 -38.167 15.5 -46.5s26.833 -12.5 49.5 -12.5c30.667 0 53.667 9 69 27s29.333 53.667 42 107zM456.998 712h-92l-53 150h137z" />
    <glyph glyph-name="Oacute" unicode="&#xd3;" horiz-adv-x="500" 
d="M532 266c-22 -98 -53.168 -168.167 -93.501 -210.5s-101.833 -63.5 -184.5 -63.5c-66 0 -113.333 13 -142 39s-43 65.333 -43 118c0 31.333 5.33301 70.333 16 117l38 164c18 75.333 51 135.166 99 179.499s110 66.5 186 66.5c60.667 0 104.834 -14.167 132.501 -42.5
s41.5 -67.166 41.5 -116.499c0 -26 -3.66699 -54.667 -11 -86zM384.999 228l51.999 228c6 26 9 47.333 9 64c0 20 -4.66699 34 -14 42s-24.666 12 -45.999 12c-31.333 0 -55.333 -8.66699 -72 -26s-30 -47.333 -40 -90l-54 -232c-3.33301 -14 -6 -27.167 -8 -39.5
s-3 -23.5 -3 -33.5c0 -22.667 5.16699 -38.167 15.5 -46.5s26.833 -12.5 49.5 -12.5c30.667 0 53.667 9 69 27s29.333 53.667 42 107zM506.998 859l-121 -150h-92l78 150h135z" />
    <glyph glyph-name="Ocircumflex" unicode="&#xd4;" horiz-adv-x="500" 
d="M532 266c-22 -98 -53.168 -168.167 -93.501 -210.5s-101.833 -63.5 -184.5 -63.5c-66 0 -113.333 13 -142 39s-43 65.333 -43 118c0 31.333 5.33301 70.333 16 117l38 164c18 75.333 51 135.166 99 179.499s110 66.5 186 66.5c60.667 0 104.834 -14.167 132.501 -42.5
s41.5 -67.166 41.5 -116.499c0 -26 -3.66699 -54.667 -11 -86zM384.999 228l51.999 228c6 26 9 47.333 9 64c0 20 -4.66699 34 -14 42s-24.666 12 -45.999 12c-31.333 0 -55.333 -8.66699 -72 -26s-30 -47.333 -40 -90l-54 -232c-3.33301 -14 -6 -27.167 -8 -39.5
s-3 -23.5 -3 -33.5c0 -22.667 5.16699 -38.167 15.5 -46.5s26.833 -12.5 49.5 -12.5c30.667 0 53.667 9 69 27s29.333 53.667 42 107zM480.998 864h-142l-133 -150h121l64 74l30 -74h123z" />
    <glyph glyph-name="Otilde" unicode="&#xd5;" horiz-adv-x="500" 
d="M532 266c-22 -98 -53.168 -168.167 -93.501 -210.5s-101.833 -63.5 -184.5 -63.5c-66 0 -113.333 13 -142 39s-43 65.333 -43 118c0 31.333 5.33301 70.333 16 117l38 164c18 75.333 51 135.166 99 179.499s110 66.5 186 66.5c60.667 0 104.834 -14.167 132.501 -42.5
s41.5 -67.166 41.5 -116.499c0 -26 -3.66699 -54.667 -11 -86zM384.999 228l51.999 228c6 26 9 47.333 9 64c0 20 -4.66699 34 -14 42s-24.666 12 -45.999 12c-31.333 0 -55.333 -8.66699 -72 -26s-30 -47.333 -40 -90l-54 -232c-3.33301 -14 -6 -27.167 -8 -39.5
s-3 -23.5 -3 -33.5c0 -22.667 5.16699 -38.167 15.5 -46.5s26.833 -12.5 49.5 -12.5c30.667 0 53.667 9 69 27s29.333 53.667 42 107zM558.998 832c-7.33301 -32 -20.666 -58.666 -39.999 -79.999s-43.333 -32 -72 -32c-23.333 0 -45 7.33301 -65 22s-35.667 22 -47 22
c-10 0 -17.667 -3.33301 -23 -10l-12 -21h-66c7.33301 31.333 21.666 57.666 42.999 78.999s46 32 74 32c12.667 0 32 -6.5 58 -19.5s45.333 -19.5 58 -19.5c5.33301 0 9.83301 3 13.5 9l10.5 18h68z" />
    <glyph glyph-name="Odieresis" unicode="&#xd6;" horiz-adv-x="500" 
d="M532 266c-22 -98 -53.168 -168.167 -93.501 -210.5s-101.833 -63.5 -184.5 -63.5c-66 0 -113.333 13 -142 39s-43 65.333 -43 118c0 31.333 5.33301 70.333 16 117l38 164c18 75.333 51 135.166 99 179.499s110 66.5 186 66.5c60.667 0 104.834 -14.167 132.501 -42.5
s41.5 -67.166 41.5 -116.499c0 -26 -3.66699 -54.667 -11 -86zM384.999 228l51.999 228c6 26 9 47.333 9 64c0 20 -4.66699 34 -14 42s-24.666 12 -45.999 12c-31.333 0 -55.333 -8.66699 -72 -26s-30 -47.333 -40 -90l-54 -232c-3.33301 -14 -6 -27.167 -8 -39.5
s-3 -23.5 -3 -33.5c0 -22.667 5.16699 -38.167 15.5 -46.5s26.833 -12.5 49.5 -12.5c30.667 0 53.667 9 69 27s29.333 53.667 42 107zM501.998 713h-100l25 107h100zM347.998 713h-96l25 107h96z" />
    <glyph glyph-name="multiply" unicode="&#xd7;" horiz-adv-x="434" 
d="M441 163l-64 -52l-106 137l-139 -113l-39 51l139 113l-95 125l64 52l95 -125l134 109l39 -51l-134 -108z" />
    <glyph glyph-name="Oslash" unicode="&#xd8;" 
d="M506 469l-56.999 -59.002c3.33301 -8.66699 5.66602 -18 6.99902 -28s2 -20.333 2 -31c0 -16 -1 -30.833 -3 -44.5s-9.83301 -49.667 -23.5 -108s-36.167 -107 -67.5 -146s-84.333 -58.5 -159 -58.5c-45.333 0 -87 11 -125 33l-50 -50l-18 15l54 57
c-5.33301 8 -8 20.333 -8 37c0 19.333 2.5 40.833 7.5 64.5s14.333 65.334 28 125.001s33.667 106.334 60 140.001s79.166 50.5 158.499 50.5c40.667 0 81.334 -11.333 122.001 -34l51 54zM325.001 315.998c3.33301 13.333 5 24.667 5 34c0 24.667 -11.667 37 -35 37
c-21.333 0 -36.833 -8.16699 -46.5 -24.5s-20.5 -50.5 -32.5 -102.5l-17 -72zM306.001 219.999l11 51l-126 -130c-3.33301 -12 -5 -23 -5 -33c0 -10.667 2.5 -19 7.5 -25s13.833 -9 26.5 -9c21.333 0 37.5 9.66699 48.5 29s23.5 58.333 37.5 117z" />
    <glyph glyph-name="Ugrave" unicode="&#xd9;" horiz-adv-x="527" 
d="M518 164c-15.333 -57.333 -42 -100.331 -80 -128.998s-97.333 -43 -178 -43c-63.333 0 -108.833 10.333 -136.5 31s-41.5 50 -41.5 88c0 9.33301 1 19.666 3 30.999s3.33301 18.666 4 21.999l116 502h140l-112 -486c-3.33301 -12.667 -5 -25.334 -5 -38.001
c0 -30.667 19.333 -46 58 -46c28 0 48.833 6.33301 62.5 19s24.167 34.334 31.5 65.001l112 486h142zM472 704.002h-92l-53 150h137z" />
    <glyph glyph-name="Uacute" unicode="&#xda;" horiz-adv-x="527" 
d="M518 164c-15.333 -57.333 -42 -100.331 -80 -128.998s-97.333 -43 -178 -43c-63.333 0 -108.833 10.333 -136.5 31s-41.5 50 -41.5 88c0 9.33301 1 19.666 3 30.999s3.33301 18.666 4 21.999l116 502h140l-112 -486c-3.33301 -12.667 -5 -25.334 -5 -38.001
c0 -30.667 19.333 -46 58 -46c28 0 48.833 6.33301 62.5 19s24.167 34.334 31.5 65.001l112 486h142zM507 854.002l-121 -150h-92l78 150h135z" />
    <glyph glyph-name="Ucircumflex" unicode="&#xdb;" horiz-adv-x="527" 
d="M518 164c-15.333 -57.333 -42 -100.331 -80 -128.998s-97.333 -43 -178 -43c-63.333 0 -108.833 10.333 -136.5 31s-41.5 50 -41.5 88c0 9.33301 1 19.666 3 30.999s3.33301 18.666 4 21.999l116 502h140l-112 -486c-3.33301 -12.667 -5 -25.334 -5 -38.001
c0 -30.667 19.333 -46 58 -46c28 0 48.833 6.33301 62.5 19s24.167 34.334 31.5 65.001l112 486h142zM499 859.002h-142l-133 -150h121l64 74l30 -74h123z" />
    <glyph glyph-name="Udieresis" unicode="&#xdc;" horiz-adv-x="527" 
d="M518 164c-15.333 -57.333 -42 -100.331 -80 -128.998s-97.333 -43 -178 -43c-63.333 0 -108.833 10.333 -136.5 31s-41.5 50 -41.5 88c0 9.33301 1 19.666 3 30.999s3.33301 18.666 4 21.999l116 502h140l-112 -486c-3.33301 -12.667 -5 -25.334 -5 -38.001
c0 -30.667 19.333 -46 58 -46c28 0 48.833 6.33301 62.5 19s24.167 34.334 31.5 65.001l112 486h142zM524 721.002h-100l25 107h100zM370 721.002h-96l25 107h96z" />
    <glyph glyph-name="Yacute" unicode="&#xdd;" horiz-adv-x="445" 
d="M613 666l-262 -406l-60 -260h-141l60 260l-74 406h147l34 -281l165 281h131zM476 852l-121 -150h-92l78 150h135z" />
    <glyph glyph-name="Thorn" unicode="&#xde;" horiz-adv-x="473" 
d="M418 390c4 18 6 33.333 6 46c0 33.333 -16 50 -48 50h-76l-46 -199h82c21.333 0 38.5 9.5 51.5 28.5s23.167 43.833 30.5 74.5zM206 670l135 -0.000976562l-20 -85h130c38.667 0 67.167 -11.5 85.5 -34.5s27.5 -53.5 27.5 -91.5c0 -23.333 -5.33301 -58.166 -16 -104.499
s-34.667 -86 -72 -119s-80.333 -49.5 -129 -49.5h-116l-43 -186h-137z" />
    <glyph glyph-name="germandbls" unicode="&#xdf;" horiz-adv-x="473" 
d="M477 117c-10 -44 -34.5 -75.0049 -73.5 -93.0049s-85.5 -27 -139.5 -27c-20 0 -39.667 1 -59 3l19 82c6.66699 -0.666992 13 -1.16699 19 -1.5s13.333 -0.5 22 -0.5c24.667 0 45.167 4.33301 61.5 13s26.166 21.167 29.499 37.5s5 26.5 5 30.5c0 20 -10.833 52 -32.5 96
s-32.5 78.333 -32.5 103c0 8.66699 1.33301 19 4 31s19.334 34 50.001 66s47.334 54 50.001 66s4 20.333 4 25c0 13.333 -3.33301 24.5 -10 33.5s-17.334 13.5 -32.001 13.5c-22.667 0 -39.834 -5.16699 -51.501 -15.5s-20.5 -25.166 -26.5 -44.499l-124 -535h-127l115 498
c13.333 58.667 38 102.667 74 132s87 44 153 44c46.667 0 84.334 -7.66699 113.001 -23s43 -41 43 -77c0 -9.33301 -2.66699 -25.166 -8 -47.499s-21.666 -45.666 -48.999 -69.999s-43 -44.666 -47 -60.999s-6 -28.833 -6 -37.5c0 -14.667 10.333 -41 31 -79s31 -74 31 -108
c0 -9.33301 -0.333008 -18.166 -1 -26.499s-2.33398 -17.5 -5.00098 -27.5z" />
    <glyph glyph-name="agrave" unicode="&#xe0;" horiz-adv-x="389" 
d="M373 0l-129 -0.000976562l10 53c-21.333 -20.667 -40.833 -35.167 -58.5 -43.5s-41.167 -12.5 -70.5 -12.5c-24 0 -42.333 5.5 -55 16.5s-19 31.5 -19 61.5c0 18 5.16699 49.5 15.5 94.5s34.166 76.167 71.499 93.5s94.333 26 171 26l9 47.5
c2.66699 13.667 4 24.167 4 31.5c0 17.333 -10 26 -30 26c-17.333 0 -29.333 -5 -36 -15s-12.667 -27 -18 -51h-125c10 45.333 28.333 79.833 55 103.5s74.334 35.5 143.001 35.5c40 0 73.167 -7 99.5 -21s39.5 -36.333 39.5 -67c0 -7.33301 -1 -15.666 -3 -24.999l-63 -270
c-2 -10.667 -4 -25.667 -6 -45s-3.66699 -32.333 -5 -39zM293 220.999c-37.333 0 -62.833 -4.83301 -76.5 -14.5s-23.167 -26.167 -28.5 -49.5s-8 -40 -8 -50c0 -10.667 2.5 -19 7.5 -25s13.167 -9 24.5 -9c23.333 0 39.833 12 49.5 36s20.167 61.333 31.5 112zM409 521.999
h-92l-53 150h137z" />
    <glyph glyph-name="aacute" unicode="&#xe1;" horiz-adv-x="389" 
d="M373 0l-129 -0.000976562l10 53c-21.333 -20.667 -40.833 -35.167 -58.5 -43.5s-41.167 -12.5 -70.5 -12.5c-24 0 -42.333 5.5 -55 16.5s-19 31.5 -19 61.5c0 18 5.16699 49.5 15.5 94.5s34.166 76.167 71.499 93.5s94.333 26 171 26l9 47.5
c2.66699 13.667 4 24.167 4 31.5c0 17.333 -10 26 -30 26c-17.333 0 -29.333 -5 -36 -15s-12.667 -27 -18 -51h-125c10 45.333 28.333 79.833 55 103.5s74.334 35.5 143.001 35.5c40 0 73.167 -7 99.5 -21s39.5 -36.333 39.5 -67c0 -7.33301 -1 -15.666 -3 -24.999l-63 -270
c-2 -10.667 -4 -25.667 -6 -45s-3.66699 -32.333 -5 -39zM293 220.999c-37.333 0 -62.833 -4.83301 -76.5 -14.5s-23.167 -26.167 -28.5 -49.5s-8 -40 -8 -50c0 -10.667 2.5 -19 7.5 -25s13.167 -9 24.5 -9c23.333 0 39.833 12 49.5 36s20.167 61.333 31.5 112zM446 673.999
l-121 -150h-92l78 150h135z" />
    <glyph glyph-name="acircumflex" unicode="&#xe2;" horiz-adv-x="389" 
d="M373 0l-129 -0.000976562l10 53c-21.333 -20.667 -40.833 -35.167 -58.5 -43.5s-41.167 -12.5 -70.5 -12.5c-24 0 -42.333 5.5 -55 16.5s-19 31.5 -19 61.5c0 18 5.16699 49.5 15.5 94.5s34.166 76.167 71.499 93.5s94.333 26 171 26l9 47.5
c2.66699 13.667 4 24.167 4 31.5c0 17.333 -10 26 -30 26c-17.333 0 -29.333 -5 -36 -15s-12.667 -27 -18 -51h-125c10 45.333 28.333 79.833 55 103.5s74.334 35.5 143.001 35.5c40 0 73.167 -7 99.5 -21s39.5 -36.333 39.5 -67c0 -7.33301 -1 -15.666 -3 -24.999l-63 -270
c-2 -10.667 -4 -25.667 -6 -45s-3.66699 -32.333 -5 -39zM293 220.999c-37.333 0 -62.833 -4.83301 -76.5 -14.5s-23.167 -26.167 -28.5 -49.5s-8 -40 -8 -50c0 -10.667 2.5 -19 7.5 -25s13.167 -9 24.5 -9c23.333 0 39.833 12 49.5 36s20.167 61.333 31.5 112zM436 678.999
h-142l-133 -150h121l64 74l30 -74h123z" />
    <glyph glyph-name="atilde" unicode="&#xe3;" horiz-adv-x="389" 
d="M373 0l-129 -0.000976562l10 53c-21.333 -20.667 -40.833 -35.167 -58.5 -43.5s-41.167 -12.5 -70.5 -12.5c-24 0 -42.333 5.5 -55 16.5s-19 31.5 -19 61.5c0 18 5.16699 49.5 15.5 94.5s34.166 76.167 71.499 93.5s94.333 26 171 26l9 47.5
c2.66699 13.667 4 24.167 4 31.5c0 17.333 -10 26 -30 26c-17.333 0 -29.333 -5 -36 -15s-12.667 -27 -18 -51h-125c10 45.333 28.333 79.833 55 103.5s74.334 35.5 143.001 35.5c40 0 73.167 -7 99.5 -21s39.5 -36.333 39.5 -67c0 -7.33301 -1 -15.666 -3 -24.999l-63 -270
c-2 -10.667 -4 -25.667 -6 -45s-3.66699 -32.333 -5 -39zM293 220.999c-37.333 0 -62.833 -4.83301 -76.5 -14.5s-23.167 -26.167 -28.5 -49.5s-8 -40 -8 -50c0 -10.667 2.5 -19 7.5 -25s13.167 -9 24.5 -9c23.333 0 39.833 12 49.5 36s20.167 61.333 31.5 112zM504 633.999
c-7.33301 -32 -20.666 -58.666 -39.999 -79.999s-43.333 -32 -72 -32c-23.333 0 -45 7.33301 -65 22s-35.667 22 -47 22c-10 0 -17.667 -3.33301 -23 -10l-12 -21h-66c7.33301 31.333 21.666 57.666 42.999 78.999s46 32 74 32c12.667 0 32 -6.5 58 -19.5
s45.333 -19.5 58 -19.5c5.33301 0 9.83301 3 13.5 9l10.5 18h68z" />
    <glyph glyph-name="adieresis" unicode="&#xe4;" horiz-adv-x="389" 
d="M373 0l-129 -0.000976562l10 53c-21.333 -20.667 -40.833 -35.167 -58.5 -43.5s-41.167 -12.5 -70.5 -12.5c-24 0 -42.333 5.5 -55 16.5s-19 31.5 -19 61.5c0 18 5.16699 49.5 15.5 94.5s34.166 76.167 71.499 93.5s94.333 26 171 26l9 47.5
c2.66699 13.667 4 24.167 4 31.5c0 17.333 -10 26 -30 26c-17.333 0 -29.333 -5 -36 -15s-12.667 -27 -18 -51h-125c10 45.333 28.333 79.833 55 103.5s74.334 35.5 143.001 35.5c40 0 73.167 -7 99.5 -21s39.5 -36.333 39.5 -67c0 -7.33301 -1 -15.666 -3 -24.999l-63 -270
c-2 -10.667 -4 -25.667 -6 -45s-3.66699 -32.333 -5 -39zM293 220.999c-37.333 0 -62.833 -4.83301 -76.5 -14.5s-23.167 -26.167 -28.5 -49.5s-8 -40 -8 -50c0 -10.667 2.5 -19 7.5 -25s13.167 -9 24.5 -9c23.333 0 39.833 12 49.5 36s20.167 61.333 31.5 112zM459 522.999
h-100l25 107h100zM305 522.999h-96l25 107h96z" />
    <glyph glyph-name="aring" unicode="&#xe5;" horiz-adv-x="389" 
d="M373 0l-129 -0.000976562l10 53c-21.333 -20.667 -40.833 -35.167 -58.5 -43.5s-41.167 -12.5 -70.5 -12.5c-24 0 -42.333 5.5 -55 16.5s-19 31.5 -19 61.5c0 18 5.16699 49.5 15.5 94.5s34.166 76.167 71.499 93.5s94.333 26 171 26l9 47.5
c2.66699 13.667 4 24.167 4 31.5c0 17.333 -10 26 -30 26c-17.333 0 -29.333 -5 -36 -15s-12.667 -27 -18 -51h-125c10 45.333 28.333 79.833 55 103.5s74.334 35.5 143.001 35.5c40 0 73.167 -7 99.5 -21s39.5 -36.333 39.5 -67c0 -7.33301 -1 -15.666 -3 -24.999l-63 -270
c-2 -10.667 -4 -25.667 -6 -45s-3.66699 -32.333 -5 -39zM293 220.999c-37.333 0 -62.833 -4.83301 -76.5 -14.5s-23.167 -26.167 -28.5 -49.5s-8 -40 -8 -50c0 -10.667 2.5 -19 7.5 -25s13.167 -9 24.5 -9c23.333 0 39.833 12 49.5 36s20.167 61.333 31.5 112zM428 595.999
c-6 -25.333 -19.998 -46.333 -41.998 -63s-44 -25 -66 -25c-20.667 0 -38.334 6 -53.001 18s-22 28.333 -22 49c0 6.66699 1.83301 18 5.5 34s16.667 33.167 39 51.5s46.166 27.5 71.499 27.5c22 0 39 -6.66699 51 -20s18 -30.333 18 -51
c0 -9.33301 -0.666992 -16.333 -2 -21zM384.002 599.999c2 8 1.33496 16.833 -1.99805 26.5s-14 14.5 -32 14.5c-13.333 0 -24.833 -4.16699 -34.5 -12.5s-15.334 -16 -17.001 -23s-2.5 -12.833 -2.5 -17.5c0 -23.333 11.333 -35 34 -35c12 0 23.167 4.66699 33.5 14
s17.166 20.333 20.499 33z" />
    <glyph glyph-name="ae" unicode="&#xe6;" horiz-adv-x="611" 
d="M619 162c-15.333 -53.333 -37.502 -94.6689 -66.502 -124.002s-72.167 -44 -129.5 -44c-38 0 -64.167 4.83301 -78.5 14.5s-28.833 26.5 -43.5 50.5c-18 -18.667 -41 -33.834 -69 -45.501s-55.667 -17.5 -83 -17.5c-33.333 0 -58.166 6 -74.499 18s-24.5 32.333 -24.5 61
c0 15.333 4.83301 43.666 14.5 84.999s31.5 72.5 65.5 93.5s95.333 31.5 184 31.5l13 57c1.33301 6.66699 2 11.334 2 14.001c0 22 -11 33 -33 33c-18 0 -31.667 -6.16699 -41 -18.5s-16 -27.166 -20 -44.499h-123c10.667 44.667 31.167 79.334 61.5 104.001
s71.5 37 123.5 37c26.667 0 46.5 -4.16699 59.5 -12.5s27.5 -23.166 43.5 -44.499c21.333 18.667 44.333 32.834 69 42.501s49.334 14.5 74.001 14.5c40 0 69.333 -9.16699 88 -27.5s28 -44.5 28 -78.5c0 -18 -2.66699 -38.667 -8 -62l-20 -88h-211l-19 -80
c-2 -9.33301 -3 -17.333 -3 -24c0 -25.333 11.667 -38 35 -38c18 0 30.833 7.66699 38.5 23s15.167 38.666 22.5 69.999h125zM522.998 284.997c8 34 12 59.667 12 77c0 22.667 -11.333 34 -34 34c-26 0 -47.333 -37 -64 -111h86zM279.998 138.997l16.999 72
c-31.333 0 -56.333 -4.33301 -75 -13s-30.5 -24.667 -35.5 -48s-7.5 -39 -7.5 -47c0 -23.333 11 -35 33 -35c17.333 0 31.833 6.66699 43.5 20s19.834 30.333 24.501 51z" />
    <glyph glyph-name="ccedilla" unicode="&#xe7;" horiz-adv-x="389" 
d="M429 295l-128.999 0.00195312c7.33301 31.333 11 53.333 11 66c0 17.333 -9 26 -27 26c-14 0 -26.167 -9.66699 -36.5 -29s-22.833 -61.333 -37.5 -126s-22 -106.667 -22 -126c0 -12.667 2.16699 -21.167 6.5 -25.5s11.166 -6.5 20.499 -6.5
c14.667 0 25.334 5.66699 32.001 17s15 38.333 25 81h127c-11.333 -48 -27.833 -87 -49.5 -117s-58.834 -48.667 -111.501 -56l-62 -136h-97l86 134c-39.333 0 -67 7.66699 -83 23s-24 40 -24 74c0 29.333 9 82.666 27 159.999s43.5 132.166 76.5 164.499
s80.167 48.5 141.5 48.5c90.667 0 136 -35 136 -105c0 -20.667 -3.33301 -43 -10 -67z" />
    <glyph glyph-name="egrave" unicode="&#xe8;" horiz-adv-x="389" 
d="M406 160c-12 -51.333 -33.168 -91.167 -63.501 -119.5s-77.833 -42.5 -142.5 -42.5c-52 0 -88.833 9.16699 -110.5 27.5s-32.5 47.5 -32.5 87.5c0 29.333 7.33301 75.5 22 138.5s39.5 114.667 74.5 155s86.167 60.5 153.5 60.5c50 0 85 -8.33301 105 -25
s30 -43.667 30 -81c0 -20.667 -1.83301 -41.667 -5.5 -63s-10.5 -53 -20.5 -95h-213c-5.33301 -22 -10.166 -43 -14.499 -63s-6.5 -35 -6.5 -45c0 -19.333 10.333 -29 31 -29c21.333 0 37 9 47 27s18.333 40.333 25 67h121zM306.999 274.999
c5.33301 19.333 9.66895 36 13.002 50s5 25.667 5 35c0 24 -11 36 -33 36c-26.667 0 -43.334 -11.167 -50.001 -33.5s-14.334 -51.5 -23.001 -87.5h88zM406.002 523.999h-92l-53 150h137z" />
    <glyph glyph-name="eacute" unicode="&#xe9;" horiz-adv-x="389" 
d="M406 160c-12 -51.333 -33.168 -91.167 -63.501 -119.5s-77.833 -42.5 -142.5 -42.5c-52 0 -88.833 9.16699 -110.5 27.5s-32.5 47.5 -32.5 87.5c0 29.333 7.33301 75.5 22 138.5s39.5 114.667 74.5 155s86.167 60.5 153.5 60.5c50 0 85 -8.33301 105 -25
s30 -43.667 30 -81c0 -20.667 -1.83301 -41.667 -5.5 -63s-10.5 -53 -20.5 -95h-213c-5.33301 -22 -10.166 -43 -14.499 -63s-6.5 -35 -6.5 -45c0 -19.333 10.333 -29 31 -29c21.333 0 37 9 47 27s18.333 40.333 25 67h121zM306.999 274.999
c5.33301 19.333 9.66895 36 13.002 50s5 25.667 5 35c0 24 -11 36 -33 36c-26.667 0 -43.334 -11.167 -50.001 -33.5s-14.334 -51.5 -23.001 -87.5h88zM435.002 673.999l-121 -150h-92l78 150h135z" />
    <glyph glyph-name="ecircumflex" unicode="&#xea;" horiz-adv-x="389" 
d="M406 160c-12 -51.333 -33.168 -91.167 -63.501 -119.5s-77.833 -42.5 -142.5 -42.5c-52 0 -88.833 9.16699 -110.5 27.5s-32.5 47.5 -32.5 87.5c0 29.333 7.33301 75.5 22 138.5s39.5 114.667 74.5 155s86.167 60.5 153.5 60.5c50 0 85 -8.33301 105 -25
s30 -43.667 30 -81c0 -20.667 -1.83301 -41.667 -5.5 -63s-10.5 -53 -20.5 -95h-213c-5.33301 -22 -10.166 -43 -14.499 -63s-6.5 -35 -6.5 -45c0 -19.333 10.333 -29 31 -29c21.333 0 37 9 47 27s18.333 40.333 25 67h121zM306.999 274.999
c5.33301 19.333 9.66895 36 13.002 50s5 25.667 5 35c0 24 -11 36 -33 36c-26.667 0 -43.334 -11.167 -50.001 -33.5s-14.334 -51.5 -23.001 -87.5h88zM431.002 678.999h-142l-133 -150h121l64 74l30 -74h123z" />
    <glyph glyph-name="edieresis" unicode="&#xeb;" horiz-adv-x="389" 
d="M406 160c-12 -51.333 -33.168 -91.167 -63.501 -119.5s-77.833 -42.5 -142.5 -42.5c-52 0 -88.833 9.16699 -110.5 27.5s-32.5 47.5 -32.5 87.5c0 29.333 7.33301 75.5 22 138.5s39.5 114.667 74.5 155s86.167 60.5 153.5 60.5c50 0 85 -8.33301 105 -25
s30 -43.667 30 -81c0 -20.667 -1.83301 -41.667 -5.5 -63s-10.5 -53 -20.5 -95h-213c-5.33301 -22 -10.166 -43 -14.499 -63s-6.5 -35 -6.5 -45c0 -19.333 10.333 -29 31 -29c21.333 0 37 9 47 27s18.333 40.333 25 67h121zM306.999 274.999
c5.33301 19.333 9.66895 36 13.002 50s5 25.667 5 35c0 24 -11 36 -33 36c-26.667 0 -43.334 -11.167 -50.001 -33.5s-14.334 -51.5 -23.001 -87.5h88zM456.002 522.999h-100l25 107h100zM302.002 522.999h-96l25 107h96z" />
    <glyph glyph-name="igrave" unicode="&#xec;" horiz-adv-x="195" 
d="M160 0h-127l106 459h127zM307 522h-92l-53 150h137z" />
    <glyph glyph-name="iacute" unicode="&#xed;" horiz-adv-x="195" 
d="M160 0h-127l106 459h127zM342 674l-121 -150h-92l78 150h135z" />
    <glyph glyph-name="icircumflex" unicode="&#xee;" horiz-adv-x="195" 
d="M160 0h-127l106 459h127zM327 677h-142l-133 -150h121l64 74l30 -74h123z" />
    <glyph glyph-name="idieresis" unicode="&#xef;" horiz-adv-x="195" 
d="M160 0h-127l106 459h127zM349 509h-100l25 107h100zM195 509h-96l25 107h96z" />
    <glyph glyph-name="eth" unicode="&#xf0;" 
d="M418 199c-16.667 -72 -41.166 -123.83 -73.499 -155.497s-85.5 -47.5 -159.5 -47.5c-46.667 0 -80.667 9.83301 -102 29.5s-32 48.167 -32 85.5c0 23.333 3.66699 50.666 11 81.999l21 95c26.667 112 100.667 173 222 183c2 6 1.16699 13.5 -2.5 22.5
s-6.83398 16.5 -9.50098 22.5l-91 -40l-19 55l79 34c-8.66699 8.66699 -18.5 17.167 -29.5 25.5s-24.5 15.166 -40.5 20.499l73 49c16 -7.33301 29 -15 39 -23s22.667 -20 38 -36l75 34l21 -53l-49 -22c21.333 -35.333 37 -65.833 47 -91.5s15 -54.834 15 -87.501
c0 -28 -3.66699 -57 -11 -87zM285.001 186.003l24.999 110c9.33301 38.667 14 66 14 82c0 21.333 -10 32 -30 32c-22 0 -37.5 -8 -46.5 -24s-18.833 -47 -29.5 -93l-26 -109l-11.5 -50c-4.33301 -18.667 -6.5 -34 -6.5 -46c0 -22.667 11 -34 33 -34
c20.667 0 35.834 9 45.501 27s20.5 53 32.5 105z" />
    <glyph glyph-name="ntilde" unicode="&#xf1;" 
d="M381 0h-129.001l78 338c1.33301 6.66699 2 11 2 13c0 22 -11 33 -33 33c-19.333 0 -34.166 -7.16699 -44.499 -21.5s-18.166 -32.833 -23.499 -55.5l-71 -307h-127l106 459h125l-9 -41c21.333 16 41.166 28.333 59.499 37s37.5 13 57.5 13c32.667 0 56 -7.83301 70 -23.5
s21 -37.167 21 -64.5c0 -10 -0.833008 -20.167 -2.5 -30.5s-3.16699 -18.833 -4.5 -25.5zM515.999 638c-7.33301 -32 -20.666 -58.666 -39.999 -79.999s-43.333 -32 -72 -32c-23.333 0 -45 7.33301 -65 22s-35.667 22 -47 22c-10 0 -17.667 -3.33301 -23 -10l-12 -21h-66
c7.33301 31.333 21.666 57.666 42.999 78.999s46 32 74 32c12.667 0 32 -6.5 58 -19.5s45.333 -19.5 58 -19.5c5.33301 0 9.83301 3 13.5 9l10.5 18h68z" />
    <glyph glyph-name="ograve" unicode="&#xf2;" 
d="M439 238c-22.667 -98.667 -48 -163.335 -76 -194.002s-79 -46 -153 -46c-56 0 -94.833 7 -116.5 21s-32.5 40.667 -32.5 80c0 28.667 8.5 79.834 25.5 153.501s41 127.834 72 162.501s85.167 52 162.5 52c50 0 85.333 -8.5 106 -25.5s31 -43.833 31 -80.5
c0 -16 -1.33301 -32.5 -4 -49.5s-7.66699 -41.5 -15 -73.5zM308 235.999c14 58 20.999 97.335 20.999 118.002c0 22.667 -10.333 34 -31 34c-21.333 0 -37 -9.5 -47 -28.5s-20.167 -51.333 -30.5 -97s-18 -80.834 -23 -105.501s-7.5 -42 -7.5 -52
c0 -12 2.83301 -20.167 8.5 -24.5s14.834 -6.5 27.501 -6.5c22 0 37 8.16699 45 24.5s20.333 62.166 37 137.499zM415.999 524.001h-92l-53 150h137z" />
    <glyph glyph-name="oacute" unicode="&#xf3;" 
d="M439 238c-22.667 -98.667 -48 -163.335 -76 -194.002s-79 -46 -153 -46c-56 0 -94.833 7 -116.5 21s-32.5 40.667 -32.5 80c0 28.667 8.5 79.834 25.5 153.501s41 127.834 72 162.501s85.167 52 162.5 52c50 0 85.333 -8.5 106 -25.5s31 -43.833 31 -80.5
c0 -16 -1.33301 -32.5 -4 -49.5s-7.66699 -41.5 -15 -73.5zM308 235.999c14 58 20.999 97.335 20.999 118.002c0 22.667 -10.333 34 -31 34c-21.333 0 -37 -9.5 -47 -28.5s-20.167 -51.333 -30.5 -97s-18 -80.834 -23 -105.501s-7.5 -42 -7.5 -52
c0 -12 2.83301 -20.167 8.5 -24.5s14.834 -6.5 27.501 -6.5c22 0 37 8.16699 45 24.5s20.333 62.166 37 137.499zM452.999 674.001l-121 -150h-92l78 150h135z" />
    <glyph glyph-name="ocircumflex" unicode="&#xf4;" 
d="M439 238c-22.667 -98.667 -48 -163.335 -76 -194.002s-79 -46 -153 -46c-56 0 -94.833 7 -116.5 21s-32.5 40.667 -32.5 80c0 28.667 8.5 79.834 25.5 153.501s41 127.834 72 162.501s85.167 52 162.5 52c50 0 85.333 -8.5 106 -25.5s31 -43.833 31 -80.5
c0 -16 -1.33301 -32.5 -4 -49.5s-7.66699 -41.5 -15 -73.5zM308 235.999c14 58 20.999 97.335 20.999 118.002c0 22.667 -10.333 34 -31 34c-21.333 0 -37 -9.5 -47 -28.5s-20.167 -51.333 -30.5 -97s-18 -80.834 -23 -105.501s-7.5 -42 -7.5 -52
c0 -12 2.83301 -20.167 8.5 -24.5s14.834 -6.5 27.501 -6.5c22 0 37 8.16699 45 24.5s20.333 62.166 37 137.499zM440.999 679.001h-142l-133 -150h121l64 74l30 -74h123z" />
    <glyph glyph-name="otilde" unicode="&#xf5;" 
d="M439 238c-22.667 -98.667 -48 -163.335 -76 -194.002s-79 -46 -153 -46c-56 0 -94.833 7 -116.5 21s-32.5 40.667 -32.5 80c0 28.667 8.5 79.834 25.5 153.501s41 127.834 72 162.501s85.167 52 162.5 52c50 0 85.333 -8.5 106 -25.5s31 -43.833 31 -80.5
c0 -16 -1.33301 -32.5 -4 -49.5s-7.66699 -41.5 -15 -73.5zM308 235.999c14 58 20.999 97.335 20.999 118.002c0 22.667 -10.333 34 -31 34c-21.333 0 -37 -9.5 -47 -28.5s-20.167 -51.333 -30.5 -97s-18 -80.834 -23 -105.501s-7.5 -42 -7.5 -52
c0 -12 2.83301 -20.167 8.5 -24.5s14.834 -6.5 27.501 -6.5c22 0 37 8.16699 45 24.5s20.333 62.166 37 137.499zM516.999 636.001c-7.33301 -32 -20.666 -58.666 -39.999 -79.999s-43.333 -32 -72 -32c-23.333 0 -45 7.33301 -65 22s-35.667 22 -47 22
c-10 0 -17.667 -3.33301 -23 -10l-12 -21h-66c7.33301 31.333 21.666 57.666 42.999 78.999s46 32 74 32c12.667 0 32 -6.5 58 -19.5s45.333 -19.5 58 -19.5c5.33301 0 9.83301 3 13.5 9l10.5 18h68z" />
    <glyph glyph-name="odieresis" unicode="&#xf6;" 
d="M439 238c-22.667 -98.667 -48 -163.335 -76 -194.002s-79 -46 -153 -46c-56 0 -94.833 7 -116.5 21s-32.5 40.667 -32.5 80c0 28.667 8.5 79.834 25.5 153.501s41 127.834 72 162.501s85.167 52 162.5 52c50 0 85.333 -8.5 106 -25.5s31 -43.833 31 -80.5
c0 -16 -1.33301 -32.5 -4 -49.5s-7.66699 -41.5 -15 -73.5zM308 235.999c14 58 20.999 97.335 20.999 118.002c0 22.667 -10.333 34 -31 34c-21.333 0 -37 -9.5 -47 -28.5s-20.167 -51.333 -30.5 -97s-18 -80.834 -23 -105.501s-7.5 -42 -7.5 -52
c0 -12 2.83301 -20.167 8.5 -24.5s14.834 -6.5 27.501 -6.5c22 0 37 8.16699 45 24.5s20.333 62.166 37 137.499zM459.999 507.001h-100l25 107h100zM305.999 507.001h-96l25 107h96z" />
    <glyph glyph-name="divide" unicode="&#xf7;" horiz-adv-x="549" 
d="M416 370c-3.33301 -16 -11.5 -29.501 -24.5 -40.501s-27.833 -16.5 -44.5 -16.5c-12.667 0 -23.5 4.16699 -32.5 12.5s-13.5 18.833 -13.5 31.5c0 2 1.33301 8.83301 4 20.5s10.667 22.834 24 33.501s28.333 16 45 16c13.333 0 24 -4 32 -12s12 -18 12 -30
c0 -3.33301 -0.666992 -8.33301 -2 -15zM553 201.999h-463l15 68h463zM354 100.999c-3.33301 -16 -11.5 -29.499 -24.5 -40.499s-27.833 -16.5 -44.5 -16.5c-13.333 0 -24.333 4 -33 12s-13 18.667 -13 32c0 3.33301 1.33301 10.5 4 21.5s10.667 21.833 24 32.5s28 16 44 16
c30 0 45 -14.333 45 -43c0 -2.66699 -0.666992 -7.33398 -2 -14.001z" />
    <glyph glyph-name="oslash" unicode="&#xf8;" horiz-adv-x="500" 
d="M649 680l-70.001 -84c4.66699 -10 7 -25.333 7 -46c0 -28 -3.5 -59 -10.5 -93s-20.667 -95.667 -41 -185s-48.666 -158 -84.999 -206s-99.166 -72 -188.499 -72c-42.667 0 -76.834 3.16699 -102.501 9.5s-45.5 20.833 -59.5 43.5l-69 -76l-19 17l72 84
c-4 8.66699 -6.83301 17 -8.5 25s-2.5 19.333 -2.5 34c0 22.667 2.66699 51 8 85s18 94.5 38 181.5s52.333 155.5 97 205.5s110 75 196 75c32 0 60.167 -4.16699 84.5 -12.5s46.5 -22.5 66.5 -42.5l68 74zM443.999 484c0 4.66699 0.330078 9.66699 0.99707 15
s1 9.33301 1 12c0 20 -4.33301 35.167 -13 45.5s-24.334 15.5 -47.001 15.5c-35.333 0 -61.666 -13 -78.999 -39s-32.666 -68.167 -45.999 -126.5s-21.666 -98.5 -24.999 -120.5s-5.66602 -38 -6.99902 -48zM413.996 348l20 86l-216 -250c-4 -19.333 -6 -34.666 -6 -45.999
c0 -16.667 4.5 -27.834 13.5 -33.501s25.167 -8.5 48.5 -8.5c34.667 0 60.5 15 77.5 45s37.833 99 62.5 207z" />
    <glyph glyph-name="ugrave" unicode="&#xf9;" 
d="M379 0l-120.998 0.000976562l10 45c-22.667 -18.667 -42 -31.334 -58 -38.001s-38.333 -10 -67 -10c-30 0 -51.833 7.16699 -65.5 21.5s-20.5 34.833 -20.5 61.5c0 16 2.66699 35.667 8 59l74 320h127l-78 -338c-1.33301 -6.66699 -2 -11 -2 -13
c0 -10 3.33301 -17.167 10 -21.5s14 -6.5 22 -6.5c21.333 0 37.166 6 47.499 18s17.166 25.667 20.499 41l74 320h125zM419.002 524.001h-92l-53 150h137z" />
    <glyph glyph-name="uacute" unicode="&#xfa;" 
d="M379 0l-120.998 0.000976562l10 45c-22.667 -18.667 -42 -31.334 -58 -38.001s-38.333 -10 -67 -10c-30 0 -51.833 7.16699 -65.5 21.5s-20.5 34.833 -20.5 61.5c0 16 2.66699 35.667 8 59l74 320h127l-78 -338c-1.33301 -6.66699 -2 -11 -2 -13
c0 -10 3.33301 -17.167 10 -21.5s14 -6.5 22 -6.5c21.333 0 37.166 6 47.499 18s17.166 25.667 20.499 41l74 320h125zM452.002 674.001l-121 -150h-92l78 150h135z" />
    <glyph glyph-name="ucircumflex" unicode="&#xfb;" 
d="M379 0l-120.998 0.000976562l10 45c-22.667 -18.667 -42 -31.334 -58 -38.001s-38.333 -10 -67 -10c-30 0 -51.833 7.16699 -65.5 21.5s-20.5 34.833 -20.5 61.5c0 16 2.66699 35.667 8 59l74 320h127l-78 -338c-1.33301 -6.66699 -2 -11 -2 -13
c0 -10 3.33301 -17.167 10 -21.5s14 -6.5 22 -6.5c21.333 0 37.166 6 47.499 18s17.166 25.667 20.499 41l74 320h125zM443.002 677.001h-142l-133 -150h121l64 74l30 -74h123z" />
    <glyph glyph-name="udieresis" unicode="&#xfc;" 
d="M379 0l-120.998 0.000976562l10 45c-22.667 -18.667 -42 -31.334 -58 -38.001s-38.333 -10 -67 -10c-30 0 -51.833 7.16699 -65.5 21.5s-20.5 34.833 -20.5 61.5c0 16 2.66699 35.667 8 59l74 320h127l-78 -338c-1.33301 -6.66699 -2 -11 -2 -13
c0 -10 3.33301 -17.167 10 -21.5s14 -6.5 22 -6.5c21.333 0 37.166 6 47.499 18s17.166 25.667 20.499 41l74 320h125zM464.002 505.001h-100l25 107h100zM310.002 505.001h-96l25 107h96z" />
    <glyph glyph-name="yacute" unicode="&#xfd;" horiz-adv-x="361" 
d="M479 459l-330 -627h-118l90 168l-29 459h135l1 -296l130 296h121zM440 674l-121 -150h-92l78 150h135z" />
    <glyph glyph-name="thorn" unicode="&#xfe;" horiz-adv-x="388" 
d="M423 178c-12.667 -56 -34.167 -101.833 -64.5 -137.5s-72.5 -53.5 -126.5 -53.5c-18 0 -31.333 0.833008 -40 2.5s-17 5.16699 -25 10.5l-40 -172h-131l191 825h131l-44 -192c26.667 12.667 49.667 19 69 19c38.667 0 68 -10 88 -30s30 -47.667 30 -83
c0 -16 -2 -33 -6 -51zM293 173l33.9961 147.999c4.66699 20 7 36.333 7 49c0 13.333 -2.16699 23.333 -6.5 30s-12.166 10 -23.499 10c-13.333 0 -25 -5.66699 -35 -17s-16 -21.333 -18 -30l-59 -253c-1.33301 -5.33301 -2 -10.666 -2 -15.999
c0 -10.667 2.33301 -19.667 7 -27s13.334 -11 26.001 -11c14.667 0 27.334 8 38.001 24s21.334 47 32.001 93z" />
    <glyph glyph-name="ydieresis" unicode="&#xff;" horiz-adv-x="361" 
d="M479 459l-330 -627h-118l90 168l-29 459h135l1 -296l130 296h121zM444 505h-100l25 107h100zM290 505h-96l25 107h96z" />
    <glyph glyph-name="dotlessi" unicode="&#x131;" horiz-adv-x="195" 
d="M160 0h-127l106 459h127z" />
    <glyph glyph-name="Lslash" unicode="&#x141;" horiz-adv-x="450" 
d="M425 0h-346l51 222l-76 -44l24 104l76 44l79 340h140l-57 -246l126 74l-24 -105l-126 -73l-46 -199h206z" />
    <glyph glyph-name="lslash" unicode="&#x142;" horiz-adv-x="260" 
d="M313 393l-64 -36l-82 -357h-131l63 271l-27 -15l29 127l27 15l62 268h131l-44 -190l65 42z" />
    <glyph glyph-name="OE" unicode="&#x152;" horiz-adv-x="730" 
d="M414 348c13.333 58 21.667 95.667 25 113s5 34.333 5 51c0 41.333 -19.333 62 -58 62c-38 0 -64.833 -13 -80.5 -39s-35.167 -89.833 -58.5 -191.5s-35 -167.5 -35 -197.5c0 -21.333 4.5 -35.333 13.5 -42s25.167 -10 48.5 -10c38 0 64.5 15 79.5 45
s35.167 99.667 60.5 209zM498.001 666h337.002l-24 -102h-198l-38 -166h190l-24 -105h-190l-44 -188h211l-24 -105h-353c-26.667 -5.33301 -55.667 -8 -87 -8c-66.667 0 -113.667 11.667 -141 35s-41 61 -41 113c0 28.667 2.66699 58.334 8 89.001
s17.666 88.167 36.999 172.5s51.166 151.166 95.499 200.499s109.5 74 195.5 74c36 0 66 -3.33301 90 -10z" />
    <glyph glyph-name="oe" unicode="&#x153;" horiz-adv-x="611" 
d="M631 162c-12.667 -54.667 -33.833 -95.666 -63.5 -122.999s-75.5 -41 -137.5 -41c-28 0 -48.333 2.83301 -61 8.5s-29 17.167 -49 34.5c-19.333 -15.333 -41.666 -27 -66.999 -35s-51.333 -12 -78 -12c-40 0 -68.667 9 -86 27s-26 45.667 -26 83
c0 31.333 6.5 76.166 19.5 134.499s32.5 111 58.5 158s73 70.5 141 70.5c35.333 0 62 -3.33301 80 -10s35.667 -19.667 53 -39c22.667 17.333 45.5 29.333 68.5 36s47.5 10 73.5 10c42 0 71.5 -9.33301 88.5 -28s25.5 -44.667 25.5 -78
c0 -21.333 -4.16699 -48.833 -12.5 -82.5l-17.5 -70.5h-213l-13 -57.5c-4.66699 -21 -7 -37.833 -7 -50.5c0 -11.333 2.66699 -19 8 -23s14.666 -6 27.999 -6c18 0 32.333 8.83301 43 26.5s19 40.167 25 67.5h119zM532.001 275.001l11.999 49c4 16.667 6 29.667 6 39
c0 22 -11.667 33 -35 33c-27.333 0 -46.666 -20.333 -57.999 -61c-6 -28.667 -10.333 -48.667 -13 -60h88zM304 226.001c14.667 62.667 22.001 104.667 22.001 126c0 13.333 -2.83301 22.166 -8.5 26.499s-14.5 6.5 -26.5 6.5c-20 0 -35.333 -11.167 -46 -33.5
s-21.167 -55.666 -31.5 -99.999s-17.5 -77 -21.5 -98s-6 -36.5 -6 -46.5c0 -22 12 -33 36 -33c31.333 0 58.666 50.667 81.999 152z" />
    <glyph glyph-name="Scaron" unicode="&#x160;" horiz-adv-x="445" 
d="M477 178c-14.667 -62.667 -40.666 -108.833 -77.999 -138.5s-95.333 -44.5 -174 -44.5c-65.333 0 -111 10.167 -137 30.5s-39 50.5 -39 90.5c0 24.667 4.33301 55 13 91h142c-2.66699 -10 -5.16699 -21.5 -7.5 -34.5s-3.5 -23.5 -3.5 -31.5
c0 -16 3.33301 -28.167 10 -36.5s19.334 -12.5 38.001 -12.5c31.333 0 53.5 6.83301 66.5 20.5s21.333 29.334 25 47.001s5.5 28.834 5.5 33.501c0 26 -17.667 51.833 -53 77.5l-104 75.5c-37.333 32.667 -56 67 -56 103v12.5c0 3.66699 4.33301 23.667 13 60
s36.167 71.166 82.5 104.499s102.166 50 167.499 50c44.667 0 82.667 -9.5 114 -28.5s47 -51.833 47 -98.5c0 -14.667 -2 -31.667 -6 -51l-9 -37h-141c6.66699 28.667 10 51.667 10 69s-3.83301 29.166 -11.5 35.499s-19.834 9.5 -36.501 9.5
c-15.333 0 -30.5 -5.66699 -45.5 -17s-24.167 -24.5 -27.5 -39.5s-5 -25.833 -5 -32.5c0 -28 17.167 -52.333 51.5 -73l101.5 -61c36 -30 54 -68 54 -114c0 -19.333 -2.33301 -39.333 -7 -60zM548.001 864.001l-133 -150h-142l-63 150h121l29 -76l65 76h123z" />
    <glyph glyph-name="scaron" unicode="&#x161;" horiz-adv-x="389" 
d="M387 144c-12.667 -57.333 -35.334 -95.833 -68.001 -115.5s-75.667 -29.5 -129 -29.5c-50.667 0 -87.5 6.33301 -110.5 19s-34.5 37 -34.5 73c0 12 0.333008 21.333 1 28s3 17.667 7 33h123c-2 -8 -4 -17 -6 -27s-3 -18.667 -3 -26c0 -18 11.333 -27 34 -27
c19.333 0 32.833 5 40.5 15s12.667 19.333 15 28s3.5 15 3.5 19c0 12 -27.833 37.333 -83.5 76s-83.5 72 -83.5 100c0 8.66699 2.66699 24.167 8 46.5s25.333 46.333 60 72s77 38.5 127 38.5c52 0 88.333 -7.33301 109 -22s31 -37.667 31 -69c0 -6 -0.666992 -13.5 -2 -22.5
s-3 -18.833 -5 -29.5h-123c2 10 3.66699 18.667 5 26s2 13 2 17c0 9.33301 -2.33301 16.5 -7 21.5s-13.667 7.5 -27 7.5s-23.166 -3.66699 -29.499 -11s-11.5 -20.333 -15.5 -39c-3.33301 -14 23 -38.833 79 -74.5s84 -71.167 84 -106.5
c0 -9.33301 -0.666992 -16.333 -2 -21zM518 666l-133 -150h-142l-63 150h121l29 -76l65 76h123z" />
    <glyph glyph-name="Ydieresis" unicode="&#x178;" horiz-adv-x="445" 
d="M613 666l-262 -406l-60 -260h-141l60 260l-74 406h147l34 -281l165 281h131zM485 720h-100l25 107h100zM331 720h-96l25 107h96z" />
    <glyph glyph-name="Zcaron" unicode="&#x17d;" 
d="M406 0h-392l29 125l335 439h-234l24 102h384l-25 -109l-351 -453h254zM540 859l-133 -150h-142l-63 150h121l29 -76l65 76h123z" />
    <glyph glyph-name="zcaron" unicode="&#x17f;" horiz-adv-x="334" 
d="M303 0h-299l24 105l227 274h-154l19 80h289l-22 -96l-234 -275h170zM499 681l-133 -150h-142l-63 150h121l29 -76l65 76h123z" />
    <glyph glyph-name="florin" unicode="&#x192;" horiz-adv-x="465" 
d="M607 699l-46.999 -110.004c-4.66699 0.666992 -12.667 2.33398 -24 5.00098s-18 4 -20 4c-13.333 0 -25.833 -5.33301 -37.5 -16s-19.834 -21.667 -24.501 -33l-34 -84h97l-39 -101h-98l-147 -376c-28.667 -74.667 -60.834 -119.667 -96.501 -135s-88.5 -23 -158.5 -23
l41 106c30 0 50.167 3.83301 60.5 11.5s21.833 27.834 34.5 60.501l140 356h-94l47 101h86l30 75c18.667 48.667 45.834 88.334 81.501 119.001s81.167 46 136.5 46c9.33301 0 20 -0.666992 32 -2s23.333 -2.66602 34 -3.99902z" />
    <glyph glyph-name="circumflex" unicode="&#x2c6;" horiz-adv-x="417" 
d="M433 671h-142l-133 -150h121l64 74l30 -74h123z" />
    <glyph glyph-name="caron" unicode="&#x2c7;" horiz-adv-x="402" 
d="M524 666l-133 -150h-142l-63 150h121l29 -76l65 76h123z" />
    <glyph glyph-name="breve" unicode="&#x2d8;" horiz-adv-x="450" 
d="M554 666c-23.333 -33.333 -51.334 -66.833 -84.001 -100.5s-73 -50.5 -121 -50.5c-54 0 -88.5 16.667 -103.5 50s-24.833 67 -29.5 101h101c4 -16 9.5 -31.833 16.5 -47.5s18.167 -23.5 33.5 -23.5c14.667 0 29.334 7.66699 44.001 23s28 31.333 40 48h103z" />
    <glyph glyph-name="ring" unicode="&#x2da;" horiz-adv-x="264" 
d="M358 588c-6 -25.333 -19.998 -46.333 -41.998 -63s-44 -25 -66 -25c-20.667 0 -38.334 6 -53.001 18s-22 28.333 -22 49c0 6.66699 1.83301 18 5.5 34s16.667 33.167 39 51.5s46.166 27.5 71.499 27.5c22 0 39 -6.66699 51 -20s18 -30.333 18 -51
c0 -9.33301 -0.666992 -16.333 -2 -21zM314.002 592c2 8 1.33496 16.833 -1.99805 26.5s-14 14.5 -32 14.5c-13.333 0 -24.833 -4.16699 -34.5 -12.5s-15.334 -16 -17.001 -23s-2.5 -12.833 -2.5 -17.5c0 -23.333 11.333 -35 34 -35c12 0 23.167 4.66699 33.5 14
s17.166 20.333 20.499 33z" />
    <glyph glyph-name="tilde" unicode="&#x2dc;" horiz-adv-x="346" 
d="M472 654c-7.33301 -32 -20.666 -58.666 -39.999 -79.999s-43.333 -32 -72 -32c-23.333 0 -45 7.33301 -65 22s-35.667 22 -47 22c-10 0 -17.667 -3.33301 -23 -10l-12 -21h-66c7.33301 31.333 21.666 57.666 42.999 78.999s46 32 74 32c12.667 0 32 -6.5 58 -19.5
s45.333 -19.5 58 -19.5c5.33301 0 9.83301 3 13.5 9l10.5 18h68z" />
    <glyph glyph-name="endash" unicode="&#x2013;" horiz-adv-x="389" 
d="M424 221h-348l19 84h348z" />
    <glyph glyph-name="emdash" unicode="&#x2014;" horiz-adv-x="611" 
d="M647 221h-571l19 84h571z" />
    <glyph glyph-name="quoteleft" unicode="&#x2018;" horiz-adv-x="225" 
d="M334 666l-73 -186h-113l106 186h80z" />
    <glyph glyph-name="quoteright" unicode="&#x2019;" horiz-adv-x="223" 
d="M334 666l-104 -186h-82l72 186h114z" />
    <glyph glyph-name="quotesinglbase" unicode="&#x201a;" horiz-adv-x="223" 
d="M202 84l-104 -186h-82l72 186h114z" />
    <glyph glyph-name="quotedblleft" unicode="&#x201c;" horiz-adv-x="389" 
d="M504 666l-73 -186h-113l104 186h82zM334 666l-73 -186h-113l106 186h80z" />
    <glyph glyph-name="quotedblright" unicode="&#x201d;" horiz-adv-x="389" 
d="M510 671l-103 -181h-82l71 181h114zM340 671l-103 -181h-82l71 181h114z" />
    <glyph glyph-name="quotedblbase" unicode="&#x201e;" horiz-adv-x="389" 
d="M373 80l-102 -181h-82l70 181h114zM203 80l-102 -181h-82l70 181h114z" />
    <glyph glyph-name="dagger" unicode="&#x2020;" horiz-adv-x="584" 
d="M598 400h-149l-115 -498h-130l115 498h-153l23 100h153l39 166h130l-39 -166h149z" />
    <glyph glyph-name="daggerdbl" unicode="&#x2021;" horiz-adv-x="584" 
d="M449 400h149l23 100h-149l39 166h-130l-39 -166h-153l-23 -100h153l-20 -90h-153l-24 -100h153l-68 -298h130l68 298h149l24 100h-149z" />
    <glyph glyph-name="bullet" unicode="&#x2022;" horiz-adv-x="195" 
d="M231 300c-3.33301 -16 -12.5 -31.001 -27.5 -45.001s-30.833 -21 -47.5 -21c-16 0 -28.667 5.33301 -38 16s-14 23.334 -14 38.001c0 5.33301 1.16699 13 3.5 23s11.333 21.5 27 34.5s32.167 19.5 49.5 19.5c14 0 25.5 -5.16699 34.5 -15.5s13.5 -22.833 13.5 -37.5
c0 -5.33301 -0.333008 -9.33301 -1 -12z" />
    <glyph glyph-name="ellipsis" unicode="&#x2026;" horiz-adv-x="669" 
d="M589 0h-111l28 121h111zM373 0h-111l28 121h111zM172 0h-111l28 121h111z" />
    <glyph glyph-name="perthousand" unicode="&#x2030;" horiz-adv-x="735" 
d="M735 78c-7.33301 -30.667 -19.165 -51.333 -35.498 -62s-43.833 -16 -82.5 -16c-32.667 0 -55.667 3.5 -69 10.5s-20 20.167 -20 39.5v10.5c0 3 1.33301 9.5 4 19.5l26 110c5.33301 23.333 17.166 41 35.499 53s46.166 18 83.499 18c57.333 0 86 -17.333 86 -52l-2 -17z
M336.001 485.001c-7.33301 -30.667 -19.167 -51.333 -35.5 -62s-43.833 -16 -82.5 -16c-32 0 -54.167 3.33301 -66.5 10s-18.5 19 -18.5 37c0 7.33301 1.66699 18.333 5 33l26 110c5.33301 24 16.333 41.833 33 53.5s43.667 17.5 81 17.5c57.333 0 86 -17.333 86 -52l-2 -17
zM599 666.002l-490 -666h-68l486 666h72zM488 78.002c-7.33301 -30.667 -19.165 -51.333 -35.498 -62s-43.833 -16 -82.5 -16c-32.667 0 -55.667 3.5 -69 10.5s-20 20.167 -20 39.5v10.5c0 3 1.33301 9.5 4 19.5l26 110c5.33301 23.333 17.166 41 35.499 53
s46.166 18 83.499 18c57.333 0 86 -17.333 86 -52l-2 -17zM663.001 77.0029l24 104.999c2.66699 12 4 19.667 4 23c0 13.333 -7.66699 20 -23 20c-12.667 0 -21.5 -3.83301 -26.5 -11.5s-9.16699 -18.167 -12.5 -31.5l-24 -106c-2.66699 -8.66699 -4 -17 -4 -25
c0 -10.667 7.66699 -16 23 -16c12 0 20.5 2.83301 25.5 8.5s9.5 16.834 13.5 33.501zM264.001 484.002l24 104.999c2.66699 12 4 19.667 4 23c0 13.333 -7.66699 20 -23 20c-12 0 -20.333 -3.66699 -25 -11s-8.66699 -18 -12 -32l-24 -106c-3.33301 -12 -5 -20.667 -5 -26
c0 -10 7.33301 -15 22 -15c12 0 20.5 2.83301 25.5 8.5s9.5 16.834 13.5 33.501zM416.001 77.001l24 104.999c2.66699 12 4 19.667 4 23c0 13.333 -7.66699 20 -23 20c-12.667 0 -21.5 -3.83301 -26.5 -11.5s-9.16699 -18.167 -12.5 -31.5l-24 -106
c-2.66699 -8.66699 -4 -17 -4 -25c0 -10.667 7.66699 -16 23 -16c12 0 20.5 2.83301 25.5 8.5s9.5 16.834 13.5 33.501z" />
    <glyph glyph-name="guilsinglleft" unicode="&#x2039;" horiz-adv-x="249" 
d="M215 86h-91l-39 176l120 177h91l-95 -177z" />
    <glyph glyph-name="guilsinglright" unicode="&#x203a;" horiz-adv-x="234" 
d="M256 264l-115 -176h-96l98 176l-16 177h96z" />
    <glyph glyph-name="trademark" unicode="&#x2122;" horiz-adv-x="642" 
d="M687 354h-68l69 300l-131 -300h-69l6 300l-69 -300h-57l77 333h110l-8 -240l106 240h111zM400 636h-76l-65 -282h-70l65 282h-74l12 51h220z" />
    <glyph glyph-name="minus" unicode="&#x2212;" horiz-adv-x="462" 
d="M456 277h-327l17 76h327z" />
    <glyph glyph-name="fraction" unicode="&#x2215;" horiz-adv-x="425" 
d="M476 465l-396 -305l25 108l397 308z" />
    <glyph glyph-name="fi" unicode="&#xf001;" horiz-adv-x="390" 
d="M374 0h-129l87 375h-42l-87 -375h-129l87 375h-63l23 101h63l17 74c8.66699 38.667 23.834 69 45.501 91s53.5 33 95.5 33c18.667 0 36 -1.33301 52 -4s29.333 -4.66699 40 -6l-21 -91c-7.33301 0 -17.333 0.666992 -30 2s-21 2 -25 2
c-14.667 0 -23.334 -5.66699 -26.001 -17l-19 -84h171z" />
    <glyph glyph-name="fl" unicode="&#xf002;" horiz-adv-x="480" 
d="M459 665l130.999 1l-154 -666h-131l132 573c-7.33301 0 -20.5 0.666992 -39.5 2s-28.833 2 -29.5 2c-12 0 -21.167 -1.16699 -27.5 -3.5s-10.166 -6.83301 -11.499 -13.5l-19 -84h78l-23 -101h-78l-87 -375h-129l87 375h-63l23 101h63l17 74
c8 35.333 24.5 64.833 49.5 88.5s55.5 35.5 91.5 35.5c28.667 0 68.667 -3 120 -9z" />
    <glyph glyph-name=".null" horiz-adv-x="0" 
 />
    <glyph glyph-name="nonmarkingreturn" horiz-adv-x="609" 
 />
    </font>
</defs>
</svg>
