<?xml version="1.0" standalone="no"?>
<!DOCTYPE svg PUBLIC "-//W3C//DTD SVG 20010904//EN"
 "http://www.w3.org/TR/2001/REC-SVG-20010904/DTD/svg10.dtd">
<svg version="1.0" xmlns="http://www.w3.org/2000/svg"
 width="323.000000pt" height="323.000000pt" viewBox="0 0 323.000000 323.000000"
 preserveAspectRatio="xMidYMid meet">
<metadata>
Created by potrace 1.11, written by Peter Selinger 2001-2013
</metadata>
<g transform="translate(0.000000,323.000000) scale(0.100000,-0.100000)"
fill="#000000" stroke="none">
<path d="M1463 3023 c3 -109 8 -212 11 -229 2 -17 7 -71 11 -120 3 -49 8 -105
10 -124 2 -19 7 -68 10 -107 l6 -73 -28 -1 c-15 0 -35 -2 -43 -4 -8 -1 -33 -6
-55 -9 -459 -74 -872 -378 -1080 -794 -41 -82 -89 -213 -100 -270 -2 -14 -9
-48 -14 -76 -20 -104 -30 -319 -18 -381 3 -11 8 -42 11 -68 34 -229 183 -473
381 -624 45 -35 165 -96 210 -108 17 -5 35 -9 40 -11 132 -36 333 -23 445 28
135 63 259 171 338 295 34 54 59 56 90 5 138 -222 471 -363 819 -348 164 8
294 62 406 170 97 93 143 184 154 303 21 237 -139 471 -369 538 -260 75 -530
-65 -629 -325 -24 -63 -33 -161 -21 -223 5 -26 6 -49 3 -51 -12 -8 -95 50
-132 91 -82 90 -137 231 -146 372 l-6 87 -118 0 -119 0 -1 -36 c0 -19 -2 -44
-4 -55 -2 -11 -7 -40 -10 -65 -21 -146 -134 -324 -260 -410 -136 -92 -326 -98
-472 -14 -108 63 -211 200 -261 352 -23 68 -26 94 -26 227 -1 105 3 157 12
172 l13 23 1242 0 1242 0 0 158 c1 86 -2 159 -6 162 -4 3 -543 5 -1199 5 -655
0 -1194 3 -1196 7 -2 4 0 9 6 13 5 3 10 13 10 21 0 19 76 135 125 191 80 92
252 203 399 258 77 29 200 60 286 72 73 11 399 10 475 0 292 -40 534 -136 758
-301 l27 -20 43 41 c23 23 73 71 110 107 l69 66 -24 20 c-59 51 -223 154 -310
195 -193 90 -447 159 -687 187 l-103 12 6 85 c4 47 9 100 11 116 2 17 7 73 10
125 4 52 9 104 12 115 2 11 7 111 10 223 l6 202 -193 0 -193 0 6 -197z m1198
-2277 c50 -21 115 -89 135 -142 34 -90 3 -219 -68 -279 -130 -110 -326 -77
-399 67 -95 186 39 389 246 373 28 -2 67 -11 86 -19z"/>
</g>
</svg>
