<?xml version="1.0" encoding="utf-8"?>
<svg viewBox="13.41 32.075 1882.175 138.186" xmlns="http://www.w3.org/2000/svg">
  <g transform="matrix(1.036022, 0, 0, 1.036022, -32.388905, -29.073073)" style="">
    <path fill="#020202" stroke="#020202" stroke-width="0.0938" d="M93.5,68.55c32.53-11.04,68.06-12.14,101.49-4.64 c39.66,8.61,75.94,27.56,111.46,46.55c17.8,9.29,35.49,19.15,54.67,25.36c16.03,5.49,33.26,4.31,49.92,3.83 c46.89-2.57,92.97-13.12,137.87-26.45c14.15-4.27,28.19-8.87,42.08-13.91c5.21-1.87,10.31-4.27,15.85-5.04 c13.0099-2.14,27.15,2.3,36.0699,12.14c5.77,6.31,9.47,15.08,7.97,23.71c-1.6,11.69-11.34,21.35-22.73,23.8 c-9.95,2.27-21.2401-1.5-27.2401-9.88c-3.0099-4.01-4.42-9.16-3.6299-14.13c1.3199-9.3,10.34-16.61,19.67-16.35 c6.42,0.04,13.13,3.61,15.79,9.62c1.1,1.87-0.62,4.42-2.72,4.28c-2.15,0.43-3.02-1.84-4.1-3.18c-3.07-4.79-10.03-6.07-14.88-3.31 c-5.71,2.71-9.1,9.81-6.7599,15.86c3.29,8.79,13.78,13.45,22.68,11.18c9.21-2.23,16.9-10.42,17.63-20.01 c0.59-6.11-1.92-12.14-5.8701-16.69c-8.5099-10-23.22-13.91-35.67-9.98c-42.88,16.04-87.07,28.77-132.11,37.12 c-29.98,5.38-60.51,8.82-91,7.22c-15.55-0.99-30.18-7.03-44.2-13.41c-36.93-17.37-71.46-39.83-109.89-53.98 c-29.19-10.96-60.98-16.03-92-11.47c-18.89,2.9-37.69,8.17-54.42,17.59c-9.02,5.34-18.08,12.64-21.01,23.15 c-2.36,8.07,0.82,16.69,6.05,22.92c8.01,9.54,19.66,15.23,31.52,18.37c12.98,3.47,26.93,3.02,39.67-1.23 c8.92-2.88,17.17-7.54,24.71-13.07c-0.27-2.95,0.38-6.62,3.52-7.8c3.71-1.94,9.75-1.95,11.79,2.32c-1.43,2.43-4.12,3.81-5.49,6.24 c4.82,0.49,9.48-0.99,14-2.43c-1.02-1.85-2.65-3.76-2.02-6.04c0.81-4.25,6.45-6.58,10-4.08c1.94,1.32,1.83,3.89,2.33,5.94 c4.27-1.83,9.01-4.72,13.76-3c3.52,1.95,2.35,6.58,3.36,9.85c1.28-0.42,2.56-0.84,3.84-1.25c-0.88,2.99-4.54,5.33-7.47,3.64 c-3.05-1.67-1.95-5.8-3.7-8.32c-3.67-1.49-7.38,0.79-10.76,2.02c-2.41,5.24-5.38,10.38-5.9,16.24c2.73-1.9,5.02-4.8,8.5-5.29 c5.28-0.86,10.43,3.02,12.23,7.83c1.18,4.28,0.54,9.19-2.14,12.81c-3.8,5.61-10.96,7.65-14.65,13.37 c-3.65,4.71-4.78,11.43-10.08,14.76c-3.56,2.34-8.95,0.59-10.31-3.47c-1.23-2.53,0.56-5.04,1.85-7.1c1.12,1.87,1.93,4.19,3.98,5.29 c2.37,1.39,6.05,0.74,7.27-1.89c1.17-2.83,0.59-6.43-1.8-8.46c-6.04-5.17-15.19-6.57-19.33-13.9c-3.16-7.28,1.7-17.28,9.7-18.65 c4.33-0.83,7.59,2.61,11.07,4.5c1.08-5.19,3.32-10.01,5.97-14.57c-7.89,3.2-16.25,7.4-25,5.76 c-18.03,13.08-40.68,19.89-62.94,17.98c-15.81-1.15-31.73-6.43-43.87-16.86c-7.8-6.74-14.05-16.37-13.87-27 c0.07-9.8,5.74-18.6,12.81-25C67.42,78.68,80.42,72.95,93.5,68.55 M186.72,131.49c1.44-0.45,2.89-0.91,4.33-1.38 c0.02-2.28-0.11-5.36-3.12-5.47C184.45,125.43,184.9,129.31,186.72,131.49z"/>
    <path fill="#020202" stroke="#020202" stroke-width="0.0938" d="M341.89,60.87c5.2-2.33,11.48-2.38,16.84-0.53 c6.98,3.09,8.82,11.28,11,17.85c1.45-1.41,2.89-2.84,4.37-4.23c0.96,4.31,2.75,8.39,3.57,12.73c10.54-0.91,18.49,7.58,24.96,14.72 c0.21,0.13,0.62,0.39,0.83,0.52c-3.01-6.56-4.21-14.09-2.77-21.19c2.2-9.7,12.81-15.67,22.34-14.08 c-4.68,3.09-8.82,7.48-9.57,13.29c3.23,0.47,6.7,1.64,8.2,4.82c-3.97,0.71-8.19,1.87-10.86,5.13c-3.42,4.05-5.04,10.01-3.66,15.13 c3.89,4.53,9.06,7.99,14.51,10.38c5.74,2.29,12.83,2.98,18.21-0.59c4.44-2.83,6.03-8.99,4.17-13.79c-1.11-2.85-4.21-3.92-6.26-5.92 c-0.5-3.86,3.52-7.22,7.21-5.77c4.58,1.69,6.17,7.22,5.91,11.67c0.03,8.47-6.01,16.23-13.98,18.8c-8.97,3.35-19.03,0.36-26.49-5.11 c-2.88-1.83-5.12-4.66-8.32-5.96c-5.56-0.67-9.74,4.49-10.77,9.46c-1.1,3.46,0.07,7,0.61,10.44c-3.71-1.44-6.26-4.63-9.54-6.67 c-1.86,3.82-1.69,8.14-2.21,12.25c-3.42-3.86-4.25-9.28-4.63-14.23c-0.41-5.34,2.04-11,6.87-13.6c5.69-3.42,12.75-2.55,18.75-0.45 c-6.88-6.48-13.92-14.28-23.75-15.76c-2.51,3.84-5.97,6.91-9.39,9.9c-0.52-2.4-1.04-4.8-1.73-7.16c-4.3,4.06-7.76,9.65-13.75,11.34 c-6.7,1.46-14.07-1.16-18.5-6.37c3.49-2.05,7.33-3.85,9.82-7.16c-0.05-0.25-0.15-0.76-0.2-1.02c-5.41-2.56-9.96-6.51-13.85-11.02 c5.24-3.63,11.72-5.35,18.09-5.26C347.74,68.59,345.57,64.01,341.89,60.87 M349.97,82.67c1.79,2.86,4.08,5.69,7.39,6.83 c3.19,1.37,6.75,0.12,9.61-1.49c0.82-0.64,2.63-1.45,1.84-2.76C365.25,78.47,355.27,77.23,349.97,82.67z"/>
    <path fill="#020202" stroke="#020202" stroke-width="0.0938" d="M1545.67,60.77c5.5399-2.46,12.2799-2.23,17.85,0.1 c-3.88,3.02-5.76,7.77-6.2001,12.56c6.52-0.32,12.6001,2.06,18.3501,4.87c-3.99,4.93-8.88,9.15-14.7001,11.76 c2.5701,3.56,6.42,5.73,10.22,7.73c-4.0699,5.26-11.2799,7.67-17.74,6.62c-6.3899-1.37-9.9399-7.37-14.49-11.46 c-0.64,2.38-1.1599,4.8-1.73,7.2c-3.33-3.13-6.88-6.13-9.35-10.01c-9.8199,1.59-16.84,9.37-23.8,15.79 c5.9801-1.99,12.9401-3.01,18.64,0.37c5.3,2.73,7.67,9.04,7,14.75c-0.5399,4.56-1.21,9.72-4.7,13.04 c-0.27-4.2-0.4401-8.47-2.1-12.4c-2.9601,2.51-5.79,5.25-9.3301,6.92c0.5801-4.51,1.64-9.29-0.6699-13.55 c-1.6801-4.37-7.61-8.49-11.91-5.11c-5.61,4.66-11.6901,9.25-19.02,10.66c-7.83,1.83-16.67-0.45-22.21-6.39 c-4.55-4.75-6.4-11.88-4.8401-18.26c0.8601-3.28,3.3701-6.8,7.0701-6.9c3.28-0.29,5.92,2.96,5.53,6.12 c-1.9701,1.77-4.66,2.82-5.9401,5.26c-2.62,5.24-0.34,12.38,4.9401,15.02c6.12,3.24,13.6,1.85,19.5399-1.13 c4.53-2.59,9.24-5.49,12.3401-9.75c1.0599-6.51-1.4-14.26-7.4601-17.58c-2.27-1.31-4.9099-1.64-7.38-2.29 c1.6901-3.02,4.9601-4.39,8.27-4.74c-0.63-2.68-1.39-5.42-3.13-7.61c-1.6899-2.37-4.37-3.72-6.26-5.87 c8.1001-0.83,17.0701,2.81,20.74,10.42c3.91,7.99,1.8,17.3-1.21,25.22c6.77-7.26,14.6901-16.37,25.64-15.42 c0.87-4.32,2.63-8.39,3.63-12.68c1.49,1.32,2.92,2.71,4.37,4.08C1537.72,71.83,1539.4399,64.29,1545.67,60.77 M1540.98,80.82 c-1.9299,1.34-4.71,3.08-4.59,5.69c2.3199,2.15,5.4399,3.34,8.58,3.62c4.66-0.29,8.52-3.68,10.39-7.82 C1551.27,79.34,1545.48,77.88,1540.98,80.82z"/>
    <path fill="#020202" stroke="#020202" stroke-width="0.0938" d="M1687.15,70.13c21.88-7.03,44.7999-11.28,67.84-11.01 c20.2,0.06,40.36,3.7,59.42,10.36c10.7999,3.82,21.4099,8.64,30.49,15.72c5.97,4.78,11.36,10.66,14.13,17.9 c3.3199,8.28,2.1799,17.98-2.41,25.56c-6.59,11.12-17.9301,18.59-29.8,23.11c-28.7999,10.64-62.63,5.08-87.0099-13.42 c-9,2.78-17.9301-2.02-26.14-5.22c2.58,4.61,4.7999,9.44,6,14.61c2.95-1.78,5.6899-4.61,9.37-4.68 c9.9199-0.04,16.3199,14.23,9.38,21.46c-5.03,5.37-12.8501,6.75-18.05,11.86c-3.02,2.99-2.3,9.83,2.54,10.33 c3.9,0.78,5.85-3.01,7.71-5.65c1.1,1.7,2.4401,3.63,1.95,5.78c-0.6399,4.15-5.6,6.7-9.3899,5.06c-4.12-1.54-6.03-5.77-7.8401-9.43 c-2.2799-4.7-5.2999-9.23-9.83-12c-5.16-3.33-10.5601-7.94-10.9301-14.55c-1.1899-7.03,5.26-14.15,12.39-13.42 c3.64,0.33,6.02,3.35,8.8101,5.34c-0.3201-4.78-2.4301-9.12-4.47-13.35c-1.26-4.25-6.4701-5.07-10.27-5.4 c-4.5801,0.32-1.78,6.79-5.23,8.64c-3.1001,2.07-6.7201-0.53-7.9401-3.49c1.24,0.42,2.48,0.86,3.74,1.31 c1.55-3.25-0.0499-8.11,3.8201-9.96c4.73-1.59,9.34,1.4,13.6499,3.03c0.3201-1.89,0.16-4.23,1.8201-5.58 c3.5-2.99,9.78-0.63,10.47,3.96c0.55,2.23-1.14,4.01-2.1899,5.75c4.97,1.75,10.2599,3.32,15.59,2.21c-1.5-2.4-6.03-4.18-4.26-7.53 c2.71-3.24,7.6899-2.02,10.64,0.35c1.72,1.39,1.63,3.78,2.4199,5.68c15.9801,12.79,37.04,20.12,57.5601,16.98 c14.27-2.21,28.67-7.96,38.55-18.82c5.5299-5.99,9.1499-14.4,7.4299-22.62c-1.86-9.29-9.04-16.35-16.53-21.57 c-11.98-8.08-25.7799-12.96-39.6499-16.68C1765.25,63.92,1737.99,63.39,1712,68.81c-36.0699,7.37-68.88,24.84-101.02,42.1 c-17.1899,9.07-34.21,18.55-52.1799,26c-11.4,4.63-23.38,8.52-35.78,8.85c-46.37,1.83-92.4401-6.73-137.21-18.04 c-24.4-6.31-48.52-13.69-72.2401-22.2c-6.13-2.06-12.0199-5.15-18.5599-5.6c-10.61-0.87-21.75,3.27-28.65,11.5 c-4.1,4.79-6.61,11.22-5.66,17.57c1.4601,11.38,12.7301,20.6,24.2001,19.46c7.47-0.68,14.9399-5.93,16.52-13.54 c1.1899-5.87-2.51-11.92-7.87-14.25c-4.2101-2.11-9.62-1.27-13,1.97c-1.3201,1.38-2.17,3.14-3.52,4.47 c-2.38,1.43-6.03-1.06-4.6801-3.8c2.51-5.68,8.5801-9.32,14.6801-9.71c9.35-0.84,18.83,6.04,20.6899,15.29 c1.3301,5.31-0.38,10.95-3.53,15.28c-4.6499,6.37-12.4299,10.09-20.23,10.36c-12.35,0.53-24.45-7.83-28.46-19.49 c-2.67-7.55-1.62-16.23,2.59-23.01c7.4501-12.55,22.5601-19.34,36.9-18.19c8,0.46,15.22,4.2,22.7,6.71 c41.7101,14.72,84.53,26.57,128.2001,33.81c26.48,4.21,53.37,6.85,80.1799,5.23c18.12-1.74,34.76-9.93,50.91-17.79 C1613.09,103.37,1648.28,82.41,1687.15,70.13 M1712.38,130.04c1.36,0.5,2.74,1,4.15,1.48c0.7-1.14,1.4099-2.28,1.97-3.53 c-0.3199-1.97-2.53-4.26-4.55-2.81C1712.13,126.09,1712.52,128.38,1712.38,130.04z"/>
    <path fill="#020202" stroke="#020202" stroke-width="0.0938" d="M900.24,92.16c2.23-3.3,5.65-6.22,9.8-6.44 c4.47-0.04,8.34,3.01,10.62,6.66c4.6801,7.19,5.61,16.12,4.96,24.5c8.37,1.18,15.02,8.1,17.31,16.01 c1.3,7.75,0.97,16.56-4.01,23.02c-1.43,2.04-4.57,2.31-6.32,0.55c-4.0699-3.07-4.68-8.69-3.88-13.37c0.29-2.16,2.25-3.29,3.83-4.46 c0.17,3.03-1.02,6.49,0.66,9.26c1.02,1.95,3.81,0.43,5.0099-0.69c3.5-3.78,3.4-9.57,2.6801-14.35 c-2.72-6.43-8.97-11.13-15.94-11.86c-1.44,5.49-3.55,11.22-8.16,14.84c-2.54,2.07-5.96,2.76-9.13,2.05 c-1.83,5.52-5.2,11.89-11.57,12.82c-5.74,0.81-10.06-4.04-12.3199-8.73c-5.39,5.08-12.1201,9.27-19.6801,9.73 c-10.63,0.88-20.62-4.65-28.22-11.64c-1.17-0.9-2.19-2.36-3.81-2.26c-11.35-0.5-21.87-5.57-31.13-11.8 c-2.48,4.99-1.96,10.72-1.53,16.09c0.55,4.27,2.02,9.11,6.05,11.32c2.07,1.2,5.59,1.48,6.55-1.25c1.59-4.08,0.38-8.54-0.19-12.71 c2.9,0.61,5.55,2.47,6.17,5.52c1.14,6.03,1.08,13.09-3.12,18.01c-2.01,2.83-5.78,5.72-9.27,3.52c-4.93-3.17-6.99-9.11-8.48-14.49 c-1.78-8.94-2.29-18.89,2.19-27.15c-2.89-2.21-5.68-4.56-8.83-6.39c-1.29,4.89-3.63,11.14-9.48,11.69 c-4.84,0.14-7.68-4.54-9.18-8.52c-1.74,0.64-3.48,1.27-5.22,1.9c0.4901,10.72-1.46,22.2-8.3199,30.78 c-3.63,4.62-10.15,7.65-15.86,5.08c-7.61-3.3-11.13-11.54-13.55-18.93c-7.58,4.68-13.98,10.93-19.77,17.65 c-4.71,5.66-11.74,9.27-19.0699,9.8c-6.2401,0.08-11.82-3.56-16.17-7.71c-3.62-3.36-6.13-7.71-7.69-12.36 c-4.5-13.01-6.47-27.65-1.46-40.82c1.98-5.39,5.95-11.2,12.2-11.64c4.29-0.17,9.75-0.97,12.72,2.93c6.11,7.06,6.74,17.13,4.24,25.8 c-0.82-5.25-0.98-11.11-4.54-15.39c-1.85-2.33-5.65-2.16-7.35,0.24c-3.47,4.5-3.82,10.59-3.61,16.06 c0.43,6.25,2.23,13.24,7.64,17.03c5.15,3.18,11.43,0.98,16.87-0.25c9.64-2.45,17.13-9.25,24.44-15.59 c0.3-9.75,2.57-20.06,9.2-27.55c3.78-4.4,10.41-6.68,15.8-3.88c7.85,4.01,11.37,12.93,13.31,21.04c1.79-0.14,3.6-0.26,5.41-0.39 c0.32-4.49,1.4-9.35,4.92-12.46c2.65-2.69,7.36-2.56,9.99,0.1c3.61,3.56,4.54,8.87,4.55,13.74c3.74,0.96,7.44,2.14,10.9,3.9 c4.5099-7.36,11.19-13.71,19.61-16.23c12.88-4.04,26.7-0.87,38.94,3.86c8.02,3.16,15.67,7.2,22.95,11.8 c1.9-5.64,6.1-10.55,12.12-11.78C895.75,102.72,896.96,96.93,900.24,92.16 M907.02,92.94c-5.76,3.23-7.4,10.27-8.36,16.3 c4.01,2.42,6.9,6.23,8.4901,10.61c4.68-1.8,9.58-2.99,14.6-3.27c0.89-6.89-0.05-14.38-4.1-20.19 C915.38,93.08,910.83,90.76,907.02,92.94 M737.82,106.91c-3.55,5.03-5.5,11.26-5.42,17.42c2.44-1.32,2.13-4.19,2.86-6.45 c1.1-4.39,3.28-8.82,7.11-11.44c3.11-2.18,7.64-1.74,10.39,0.85c2.94,2.37,4.24,6,5.92,9.25l2,0.27 c-1.57-5.89-4.61-12.39-10.65-14.76C745.4,100.16,740.49,103.18,737.82,106.91 M735.96,122.32c6.82-2.2,13.75-4.08,20.82-5.28 c-1.8-4.43-5.2401-9.94-10.77-9.26C739.52,109.27,737.13,116.55,735.96,122.32 M803.59,122.04c8.6,6.84,19.08,12.69,30.4,12.17 c9.25-0.51,16.77-7.22,21.05-15.02c-11.9-5.18-24.95-10.56-38.14-7.94C810.77,112.17,807.22,117.63,803.59,122.04 M908.35,124.56 c0.15,2.45,0.26,4.92,0.34,7.38c6.5,0.65,10.43-5.5,12.18-10.88C916.53,121.52,912.36,122.9,908.35,124.56 M846,135.93 c6.53,4.84,14.71,8.81,23.03,7c5.39-0.81,9.18-4.99,13.14-8.34c-5.74-4.07-11.91-7.48-18.06-10.87 C859.14,129.15,852.96,133.47,846,135.93 M759.97,128c-0.33,6.51-1.92,13.5-6.7599,18.2c-2.56,2.65-6.88,3.56-10.14,1.67 c-4.06-2.27-6.2-6.68-7.65-10.91c-0.5,0.16-1.52,0.47-2.02,0.63c1.72,5.74,4.73,11.99,10.68,14.29c4.88,1.86,9.87-1.48,12.51-5.45 c4.23-6.33,5.91-14.29,5.03-21.82C760.66,125.51,759.76,126.56,759.97,128 M736.9,135.93c1.5699,3.83,3.52,8.11,7.62,9.77 c3.05,1.39,6.55-0.24,8.59-2.63c4.02-4.51,5-10.79,5.31-16.62C751.08,129.22,743.85,132.29,736.9,135.93z"/>
    <path fill="#020202" stroke="#020202" stroke-width="0.0938" d="M987.43,89.4c3.38-3.88,9.62-4.94,13.78-1.65 c6.42,4.83,8.62,13.25,9.39,20.87c6.21,0.66,10.14,6.1,12.19,11.51c11.6401-7.32,24.2501-13.43,37.79-16.26 c9.12-1.86,18.99-1.93,27.61,2c6.8,2.99,12.15,8.54,15.9901,14.8c2.7999-1.27,5.6799-2.34,8.6-3.33c0.7,0.49,1.4199,0.98,2.15,1.46 c-3.17,1.54-5.75,3.95-8.5901,5.98c4,7.22,3.73,15.75,2.89,23.7c-1.2,6.49-3.26,13.67-8.78,17.8c-3.45,2.51-7.59-0.27-9.61-3.24 c-4.24-4.79-4.2-11.7-3.27-17.65c0.4801-3.21,3.13-5.38,6.2401-5.89c-0.4501,4.7-2.65,10.73,1.2699,14.49 c3.41,1.08,7.0801-1.14,8.74-4.11c2.8601-5.11,2.89-11.19,2.7301-16.89c0.0499-2.46-0.9401-4.73-1.9-6.94 c-8.6,5.69-18.15,10.58-28.5601,11.52c-1.7899,0.23-3.87-0.03-5.15,1.48c-7.5599,7.07-17.2599,13.04-27.95,12.72 c-8.08-0.03-15.39-4.39-21.11-9.78c-2.3,4.52-6.41,9.35-12.01,8.75c-6.5-0.76-10.09-7.22-11.86-12.86 c-4.1,1.03-8.37-0.68-11.06-3.82c-3.42-3.6-4.97-8.43-6.36-13.08c-7.07,0.81-13.5,5.74-16.01,12.37 c-0.43,4.57-0.53,9.77,2.49,13.55c1.24,1.64,3.35,1.81,5.24,1.87c1.27-3.25,0.99-6.72,0.92-10.13c3.88,1.88,4.51,6.52,3.79,10.36 c-0.22,3.7-2.61,7.29-6.11,8.61c-2.31,0.47-4.14-1.42-5.2599-3.18c-3.84-6.26-4.02-13.97-3.03-21.04 c2.09-8.13,8.81-15.21,17.3-16.52C979.35,107.34,980.54,96.62,987.43,89.4 M988.65,95.56c-4.7,5.84-5.53,13.77-4.87,21 c5.04,0.33,10.0099,1.45,14.71,3.33c1.64-4.35,4.41-8.28,8.51-10.62c-0.89-5.84-2.48-12.36-7.62-15.94 C995.94,90.89,991.06,92.37,988.65,95.56 M1050.5601,119.16c4.3899,7.89,12.0499,14.72,21.47,15.07 c11.11,0.33,21.5-5.3,29.87-12.16c-3.42-4.85-7.51-10.17-13.84-10.97C1075.04,108.82,1062.3101,114.17,1050.5601,119.16 M984.8,121.05c1.69,5.25,5.52,11.62,11.96,10.76c0.37-2.38,0.42-4.8,0.6-7.21C993.33,122.91,989.15,121.55,984.8,121.05 M1023.46,134.55c3.68,3.13,7.14,7,12.04,8.12c7.4301,2.07,15.21-0.72,21.4-4.84c0.75-0.62,1.9-1.03,2.11-2.12 c-6.6801-2.55-12.67-6.7-17.4301-12.03C1035.42,127.11,1029.25,130.54,1023.46,134.55z"/>
    <path fill="#020202" stroke="#020202" stroke-width="0.0938" d="M939.21,94.3c3.12-1.78,6.52,0.85,7.87,3.65 c3.08,5.98,2.98,13.76-0.77,19.43c-1.59,2.55-5.25,4-7.84,2.01c-4.2599-3.3-5.2-9.27-4.84-14.33 C934.09,101.05,935.37,96.33,939.21,94.3 M940.16,102.19c-2.7,2.54-2.3799,7.14-0.1,9.87c3.39,1.52,4.82-3.37,4.41-5.92 C944.49,104.14,942.46,100.36,940.16,102.19z"/>
    <path fill="#020202" stroke="#020202" stroke-width="0.0938" d="M962.17,94.23c3.23-1.67,6.58,1.09,7.91,3.94 c2.85,5.69,2.76,12.88-0.38,18.44c-1.45,2.83-5.25,4.99-8.17,2.89c-4.17-2.99-5.23-8.63-5.07-13.45 C956.69,101.67,958.03,96.48,962.17,94.23 M963.16,102.1c-2.79,2.39-2.64,7.3-0.19,9.91c3.36,1.62,4.86-3.46,4.36-5.98 C967.31,104.13,965.29,100.47,963.16,102.1z"/>
    <path fill="#020202" stroke="#020202" stroke-width="0.0938" d="M1149.98,96.97c3.22-2.85,7.88-4.24,12.0601-2.91 c4.4399,1.33,7.75,4.93,10.1699,8.73c4.3401,7.07,5.8301,15.45,6.2001,23.62c3.65,2.72,6.88,5.96,10.58,8.63 c7.22,5.3,16.08,8.26,25.01,8.65c4.64,0.2,8.5699-3.31,10.45-7.31c3.0601-6.41,3.6001-13.89,2.16-20.79 c-0.74-2.94-1.8099-6.15-4.42-7.94c-2.0599-1.2-4.7799-0.53-6.1499,1.37c-3.2001,4.14-3.3301,9.57-4.3301,14.5 c-2.2999-8.2-1.77-17.56,3.66-24.46c2.9301-4.67,9.0699-3.95,13.79-3.61c5.23,0.48,8.86,4.99,10.89,9.46 c4.5399,10.17,4.6599,21.8,2.3099,32.55c-1.75,7.87-3.98,16.2-9.86,22.08c-4.38,4.4-10.0601,8.23-16.46,8.39 c-7.9301-0.35-15.4-4.53-20.3201-10.69c-5.39-6.59-11.87-12.19-18.97-16.87c-1.7,5.54-3.95,11.14-8.13,15.3 c-3.1801,3.35-8.05,5.55-12.6801,4.33c-5.5599-1.31-9.47-6.07-12.0099-10.91c-3.9501-7.8-5.4601-16.77-4.8201-25.46 c-1.76-0.67-3.51-1.34-5.25-2.03c-1.35,3.1-2.9,6.59-6.23,7.98c-3.28,1.54-7.09-0.25-9.05-3.02 c-4.3999-6.21-4.5499-15.1-0.49-21.51c1.92-3.07,5.99-5.34,9.5-3.47c5.1,2.52,6.65,8.72,7.0701,13.94 c1.76,0.07,3.52,0.2,5.3099,0.16C1141.8199,108.83,1144.37,101.68,1149.98,96.97 M1154.52,102.52 c-5.3201,2.71-7.89,8.55-9.54,13.97c0.53,0.06,1.6,0.18,2.13,0.25c1.83-5.31,5.4501-11.9,11.9301-11.69 c6.0599,0.46,9.52,6.63,11.1,11.86c1,2.52,0.29,6.08,3.3099,7.33c-0.45-7.17-2.5499-14.81-7.95-19.86 C1162.65,101.62,1158.08,100.52,1154.52,102.52 M1156.12,108.21c-3.8,1.46-5.71,5.34-7.2,8.85c7.0699,1.19,14.0199,3.06,20.83,5.32 c-1.01-4.42-2.33-9.09-5.7-12.32C1162,108.07,1158.83,106.94,1156.12,108.21 M1143.74,124.84c-0.33,8.06,1.26,16.7,6.47,23.09 c2.73,3.34,7.5,5.7,11.74,3.81c5.0901-2.11,7.9801-7.33,9.7001-12.3c0.64-1.23-0.1-2.22-1.0701-2.92 c-1.84,4.2-3.6499,8.92-7.87,11.28c-3.4399,2.08-8.02,0.96-10.64-1.92c-5.12-5.26-6.1399-12.88-6.6-19.87L1143.74,124.84 M1147.22,126.47c0.29,5.92,1.3401,12.31,5.53,16.82c1.85,1.89,4.61,3.55,7.35,2.71c4.62-1.16,7.11-5.8,8.51-9.99 C1161.85,132.09,1154.49,129.29,1147.22,126.47z"/>
    <path fill="#020202" stroke="#020202" stroke-width="0.0938" d="M880.47,98.57c1.51-1.12,3.5,0.14,4.07,1.7 c1.54,3.26,1.3,8.52-2.48,10.12C877.22,109.09,877.13,101.52,880.47,98.57 M881.26,101.14c-1.91,1.98-1.29,5.12,0.74,6.77 C883.69,106.12,884.7,101.38,881.26,101.14z"/>
    <path fill="#020202" stroke="#020202" stroke-width="0.0938" d="M1022.42,98.61c1.05-0.79,2.7501-0.46,3.47,0.66 c1.89,2.37,1.88,5.84,0.7999,8.56c-0.6599,1.66-2.71,3.5-4.3499,1.85C1019.42,106.91,1019.49,101.37,1022.42,98.61 M1024.13,107.84 c1.54-2.08,2.17-5.08-0.05-6.94C1021.1,102.14,1021.77,106.29,1024.13,107.84z"/>
    <path fill="#020202" stroke="#020202" stroke-width="0.0938" d="M706.4,101.33c2.64-2.14,6.4-0.45,7.97,2.18 c3.6,5.74,3.69,13.49,0.44,19.4c-1.42,2.47-4.32,4.83-7.3,3.52c-3.91-1.85-5.38-6.48-5.87-10.46 C701.21,110.83,702.05,104.7,706.4,101.33 M708.14,107.18c-3.09,2.05-3.27,6.63-2.18,9.84c0.54,1.94,2.72,4.44,4.81,2.75 c3.01-2.65,3.12-7.52,1.35-10.91C711.36,107.61,709.61,105.96,708.14,107.18z"/>
    <path fill="#020202" stroke="#020202" stroke-width="0.0938" d="M1193.33,101.37c2.4301-1.97,6.04-0.83,7.66,1.62 c3.91,5.46,4.08,13.11,1.3101,19.1c-1.3401,2.85-4.51,5.79-7.8501,4.3c-3.87-1.91-5.2999-6.53-5.7999-10.51 C1188.2,110.77,1189.12,104.78,1193.33,101.37 M1193.4,117.96c0.62,1.59,2.76,3.26,4.36,1.83 c3.9399-3.47,3.4299-11.41-1.8101-13.44C1192.26,108.89,1191.47,114.09,1193.4,117.96z"/>
    <path fill="#020202" stroke="#020202" stroke-width="0.0938" d="M785.31,141.54c2.41-1.4,5.33,0.3,6.43,2.57 c2.78,5.12,2.69,12.07-0.92,16.76c-1.83,2.46-5.67,2.3-7.3-0.27C779.58,155.1,779.65,145.81,785.31,141.54 M785.4,147.44 c-2.11,2.85-1.97,8.16,1.44,9.98c3.72-0.45,4.2599-5.59,3.14-8.47C789.54,146.9,786.77,145.04,785.4,147.44z"/>
    <path fill="#020202" stroke="#020202" stroke-width="0.0938" d="M1116.42,141.54c2.45-1.39,5.25,0.31,6.4399,2.55 c2.51,4.52,2.5601,10.36,0.29,14.99c-1.03,2.29-3.5801,4.35-6.1801,3.38c-3.47-1.71-4.74-5.9-4.88-9.49 C1111.84,148.84,1112.71,143.96,1116.42,141.54 M1116.5,147.42c-2.0699,2.91-1.9301,8.04,1.42,9.96c3.76-0.26,4.2899-5.54,3.2-8.39 C1120.74,146.88,1117.9301,145.14,1116.5,147.42z"/>
  </g>
</svg>