<?xml version="1.0" standalone="no"?>
<!DOCTYPE svg PUBLIC "-//W3C//DTD SVG 1.1//EN" "http://www.w3.org/Graphics/SVG/1.1/DTD/svg11.dtd" >
<svg>
<metadata>
Created by FontForge 20090914 at Mon Apr 29 18:06:36 2013
 By www-data
Copyright 2000 Agfa Monotype Corporation. All Rights Reserved.
</metadata>
<defs>
<font id="Univers-Condensed" horiz-adv-x="1024" >
  <font-face 
    font-family="Univers 57 Condensed"
    font-weight="400"
    font-stretch="condensed"
    units-per-em="2048"
    panose-1="2 11 6 6 2 2 2 6 2 4"
    ascent="1638"
    descent="-410"
    x-height="1040"
    cap-height="1663"
    bbox="-336 -544.001 2048 2066"
    underline-thickness="102"
    underline-position="-154"
    unicode-range="U+0020-U+FB02"
  />
<missing-glyph horiz-adv-x="1022" 
d="M76 0v1109h870v-1109h-870zM332 256h358v597h-358v-597z" />
    <glyph glyph-name=".notdef" horiz-adv-x="1022" 
d="M76 0v1109h870v-1109h-870zM332 256h358v597h-358v-597z" />
    <glyph glyph-name="space" unicode=" " horiz-adv-x="455" 
 />
    <glyph glyph-name="space" unicode="&#xa0;" horiz-adv-x="455" 
 />
    <glyph glyph-name="exclam" unicode="!" horiz-adv-x="682" 
d="M271 343l-39 1129v0h223v0l-39 -1129h-145zM247 0v213h193v-213h-193z" />
    <glyph glyph-name="quotedbl" unicode="&#x22;" horiz-adv-x="512" 
d="M315 1472h123v-416h-123v416zM69 1472h123v-416h-123v416z" />
    <glyph glyph-name="numbersign" unicode="#" horiz-adv-x="909" 
d="M-9 480l36 114h202v0l75 240v0h-205l36 114h203v0l147 476v0v0h107l-147 -476v0h165v0l147 476h107l-147 -476v0h207l-36 -114h-205v0l-75 -240v0h211l-36 -114h-209v0l-147 -480h-107l147 480v0h-165v0l-147 -480v0v0h-107v0l147 480v0h-204zM336 594h165v0l75 240v0
h-165v0z" />
    <glyph glyph-name="dollar" unicode="$" horiz-adv-x="909" 
d="M9 434l199.003 0.000976562c0 -182.667 68.333 -282.667 205 -300v516c-132.667 63.333 -227.334 124.333 -284.001 183c-56 58.667 -84 135.667 -84 231c0 101.333 33.333 188.666 100 261.999c67.333 74 156.666 114 267.999 120v0v128h89v-125
c264.667 -6 397 -145.667 397 -419h-199c0 158.667 -66 242.667 -198 252v-470v0l43 -23c140 -68.667 234.333 -135.667 283 -201c49.333 -65.333 74 -139.666 74 -222.999c0 -110.667 -33.667 -202.667 -101 -276c-67.333 -72.667 -167 -112.334 -299 -119.001v-128h-89
v128v0c-124.667 0 -223.334 35.333 -296.001 106c-72 71.333 -108 172.333 -108 303v55zM502.003 610.001v-476.001c61.333 5.33301 111.333 28.333 150 69c39.333 40.667 59 91.334 59 152.001c0 56 -17.667 102.333 -53 139c-34.667 37.333 -86.667 76 -156 116z
M413.003 1282c-118 -24.667 -177 -93 -177 -205c0 -90.667 59 -165.667 177 -225v430z" />
    <glyph glyph-name="percent" unicode="%" horiz-adv-x="1593" 
d="M384 -74l704 1632h128l-704 -1632h-128zM929 388c0 126 20.001 218.667 60.001 278c40.667 60 108.667 90 204 90c91.333 0 158 -28.667 200 -86s63 -152.666 63 -285.999c0 -176 -22.333 -289 -67 -339s-109.334 -75 -194.001 -75c-99.333 0 -168.333 27.667 -207 83
c-38 55.333 -57.667 132.666 -59 231.999v103zM1072 359c0 -124 9.66797 -201 29.001 -231c19.333 -29.333 50 -44 92 -44c44 0 75 14.333 93 43s27 103.667 27 225c0 118 -8.66699 195.667 -26 233c-16.667 38 -48.334 57 -95.001 57c-47.333 0 -79.333 -16.667 -96 -50
c-16 -33.333 -24 -111 -24 -233zM144.002 1145c0 126 19.998 218.666 59.998 277.999c40.667 60 108.667 90 204 90c91.333 0 158 -28.667 200 -86s63 -152.666 63 -285.999c0 -167.333 -19.667 -278.333 -59 -333c-39.333 -54 -106.666 -81 -201.999 -81
s-163.666 27 -204.999 81c-40.667 54.667 -61 146 -61 274v63zM287 1116c0 -120 9.33301 -196 28 -228c18.667 -31.333 49.667 -47 93 -47c40.667 0 70.667 14.667 90 44c20 30 30 104.667 30 224c0 122.667 -9.33301 201.667 -28 237c-18 35.333 -49 53 -93 53
c-47.333 0 -79.333 -16.667 -96 -50c-16 -33.333 -24 -111 -24 -233z" />
    <glyph glyph-name="ampersand" unicode="&#x26;" horiz-adv-x="1366" 
d="M437 838c-129.333 148.667 -194.001 272.332 -194.001 370.999c0 92 31.333 164 94 216c63.333 52 153.333 78 270 78v0c108 0 191.667 -26.667 251 -80c60 -52.667 90 -125.667 90 -219c0 -123.333 -81 -251.333 -243 -384v0l294 -373v0c22 65.333 33 150 33 254v166
h168c0 -274.667 -30.667 -459.667 -92 -555v0l236 -312h-214l-118 152v0c-57.333 -67.333 -118.333 -114.666 -183 -141.999s-144 -41 -238 -41c-141.333 0 -256.666 36 -345.999 108c-89.333 72.667 -134 177 -134 313c0 182.667 108.667 332 326 448zM541.999 729.998
c-103.333 -69.333 -169.001 -128.334 -197.001 -177.001c-27.333 -48 -41 -99.667 -41 -155c0 -81.333 28.333 -146.666 85 -195.999s129.334 -74 218.001 -74c132 0 233.333 48.667 304 146v0zM597.998 933.997c104.667 97.333 157 182.667 157 256
c0 113.333 -52.333 170 -157 170c-46 0 -84.667 -15.333 -116 -46c-30.667 -30 -46 -70 -46 -120c0 -42 22 -90.333 66 -145z" />
    <glyph glyph-name="quotesingle" unicode="'" horiz-adv-x="512" 
d="M192 1472h123v-416h-123v416z" />
    <glyph glyph-name="parenleft" unicode="(" horiz-adv-x="569" 
d="M308 1540c-72.667 -236 -123.667 -411.666 -153 -526.999c-30 -115.333 -45 -238.333 -45 -369c0 -156.667 20.667 -303.334 62 -440.001l136 -443h117c-81.333 359.333 -122 649 -122 869c0 244 42.667 547.333 128 910h-123z" />
    <glyph glyph-name="parenright" unicode=")" horiz-adv-x="569" 
d="M261 1540c72.667 -236 123.667 -411.666 153 -526.999c30 -115.333 45 -238.333 45 -369c0 -156.667 -20.667 -303.334 -62 -440.001l-136 -443h-117c81.333 359.333 122 649 122 869c0 244 -42.667 547.333 -128 910h123z" />
    <glyph glyph-name="asterisk" unicode="*" horiz-adv-x="909" 
d="M64 1199l320 -32l-183 269l117 67l135 -293v0l135 293l117 -67l-183 -269l320 32v-141l-320 32l183 -269l-117 -67l-132 301v0l-138 -301l-117 67l183 269l-320 -32v141z" />
    <glyph glyph-name="plus" unicode="+" 
d="M96 580h368v448h127v-448h368v-127h-368v-448h-127v448h-368v127z" />
    <glyph glyph-name="comma" unicode="," horiz-adv-x="455" 
d="M64 -263l108 480h208l-184 -480h-132z" />
    <glyph glyph-name="glyph14" unicode="-" horiz-adv-x="682" 
d="M112 638h448v-156h-448v156z" />
    <glyph glyph-name="period" unicode="." horiz-adv-x="455" 
d="M132 213h193v-213h-193v213z" />
    <glyph glyph-name="slash" unicode="/" horiz-adv-x="569" 
d="M-48 -192l486 1664h138l-486 -1664h-138z" />
    <glyph glyph-name="zero" unicode="0" horiz-adv-x="909" 
d="M71 754l0.000976562 136.999c0 196.667 30.333 338.334 91 425.001s159 130 295 130c124 0 217.333 -42 280 -126c63.333 -83.333 97 -251.333 101 -504v-68v-128c0 -273.333 -33.333 -450 -100 -530s-160.334 -120 -281.001 -120c-132 0 -229.333 42.667 -292 128
c-62.667 86 -94 261.667 -94 527v129zM262.001 698.999v-98c0 -190.667 15.333 -316.667 46 -378c31.333 -60.667 80.333 -91 147 -91c64 0 112 28.333 144 85s48 183.667 48 381v92v0v132c0 184 -14.667 307 -44 369s-79 93 -149 93s-119.667 -36 -149 -108
c-28.667 -71.333 -43 -189.333 -43 -354v-123v0z" />
    <glyph glyph-name="one" unicode="1" horiz-adv-x="909" 
d="M192 1251c52.667 24.667 132 82.333 238 173h161v-1424h-191v1216l-208 -144v179z" />
    <glyph glyph-name="two" unicode="2" horiz-adv-x="909" 
d="M89 164l351.001 491c118.667 168 178 313.667 178 437c0 128 -57.667 192 -173 192c-108 0 -162 -74 -162 -222v0h-191v66c0 90 30.667 165.333 92 226c61.333 61.333 147.333 92 258 92c121.333 0 212.666 -31 273.999 -93c62 -61.333 93 -154 93 -278
c0 -104.667 -30 -212 -90 -322c-60 -109.333 -203.667 -306.333 -431 -591v0h557v-162h-756v164z" />
    <glyph glyph-name="three" unicode="3" horiz-adv-x="909" 
d="M51 386l191 -0.00292969v0c0 -90.667 14.333 -155.667 43 -195s77.667 -59 147 -59c140.667 0 211 85.333 211 256c0 98.667 -20.667 168.667 -62 210c-40.667 41.333 -121.334 62 -242.001 62v0v165c24 -2 39.667 -3 47 -3c161.333 0 242 78.333 242 235
c0 151.333 -62.667 227 -188 227c-64 0 -109 -17.667 -135 -53s-39 -91.666 -39 -168.999h-191v63c0 98 30.667 176 92 234c62 58 153.333 87 274 87c252 0 378 -123.667 378 -371c0 -185.333 -95.333 -296.333 -286 -333c122.667 -19.333 203.334 -59.666 242.001 -120.999
c39.333 -61.333 59 -141.666 59 -240.999c0 -273.333 -137.667 -410 -413 -410c-246.667 0 -370 116.333 -370 349v67v0z" />
    <glyph glyph-name="four" unicode="4" horiz-adv-x="909" 
d="M51 513l406 911h250v-913h167v-162h-167v-349h-176v349h-480v164zM215 511h316v749v0z" />
    <glyph glyph-name="five" unicode="5" horiz-adv-x="909" 
d="M101 322l191.001 0.000976562v0c0 -144 53 -216 159 -216c71.333 0 120.333 26.333 147 79c26.667 53.333 40 132.666 40 237.999c0 134.667 -12 229 -36 283c-24 54.667 -70.667 82 -140 82c-98 0 -154.667 -52.667 -170 -158h-170v794h656v-162h-468v1v-427
c39.333 76 115.666 114 228.999 114c94.667 0 166.667 -37.667 216 -113s74 -202.333 74 -381c0 -166 -31.333 -288.667 -94 -368c-62 -78.667 -153 -118 -273 -118c-126 0 -217.667 25.667 -275 77c-57.333 52 -86 143.667 -86 275v0z" />
    <glyph glyph-name="six" unicode="6" horiz-adv-x="909" 
d="M265 793c16 32 44.667 63.0029 86 93.0029c42 30.667 94.333 46 157 46c222 0 333 -160.333 333 -481c0 -156.667 -34.333 -276 -103 -358c-68 -82 -157.667 -123 -269 -123c-140 0 -241 44.667 -303 134c-61.333 89.333 -92 261.666 -92 516.999v231
c0 225.333 31.333 380.666 94 465.999s160.334 128 293.001 128c108 0 193.667 -31.333 257 -94c64 -62 96 -136.333 96 -223v-35h-191c0 61.333 -15.667 112.666 -47 153.999c-30.667 41.333 -69.667 62 -117 62c-76.667 0 -128.334 -37.333 -155.001 -112
c-26 -74 -39 -209 -39 -405zM268 461.003c0 -219.333 66.667 -329 200 -329c66 0 112.667 28.333 140 85c28 57.333 42 147 42 269c0 189.333 -64 284 -192 284c-126.667 0 -190 -103 -190 -309z" />
    <glyph glyph-name="seven" unicode="7" horiz-adv-x="909" 
d="M207 0l400 1262v0h-543v162h736v-167l-379 -1257h-214z" />
    <glyph glyph-name="eight" unicode="8" horiz-adv-x="909" 
d="M355 753c-72.667 4.66699 -134.998 37.668 -186.998 99.001c-52 62 -78 140 -78 234c0 104 30.667 190 92 258c62 68 154 102 276 102c109.333 0 197.666 -31 264.999 -93c68 -62 102 -151.667 102 -269c0 -97.333 -23.667 -173.333 -71 -228
c-46.667 -54 -107.334 -87.667 -182.001 -101c91.333 -13.333 159 -48.333 203 -105s66 -147.334 66 -272.001c0 -126 -32 -225.667 -96 -299c-64 -72.667 -159 -109 -285 -109c-118 0 -212 34 -282 102c-69.333 68.667 -104 171.334 -104 308.001
c0 115.333 22.667 204.333 68 267c45.333 63.333 116.333 98.666 213 105.999zM265.002 393.001c0 -174 64.667 -261 194 -261c127.333 0 191 87 191 261c0 188 -64.333 282 -193 282c-128 0 -192 -94 -192 -282zM281.002 1096c0 -80.667 15.3311 -144 45.998 -190
s74.334 -69 131.001 -69s100 21 130 63c30.667 42 46 107.333 46 196c0 58.667 -15 109 -45 151c-29.333 42 -72.666 63 -129.999 63c-56.667 0 -100.667 -20.667 -132 -62c-30.667 -41.333 -46 -92 -46 -152z" />
    <glyph glyph-name="nine" unicode="9" horiz-adv-x="909" 
d="M104 338l190.999 0.000976562c0 -62.667 14.333 -112.667 43 -150s67.334 -56 116.001 -56c77.333 0 129.333 39 156 117c26.667 78.667 40 229 40 451c-45.333 -94.667 -128 -142 -248 -142c-100 0 -179.667 38 -239 114c-59.333 76.667 -89 189 -89 337
c0 146.667 36.333 256 109 328c72.667 72.667 165 109 277 109c138.667 0 236.667 -46.333 294 -139c58 -92 87 -245.667 87 -461v-240c0 -239.333 -31.667 -405.333 -95 -498c-63.333 -92 -159.333 -138 -288 -138c-110 0 -196.667 33.333 -260 100
c-62.667 67.333 -94 156.666 -94 267.999zM264.999 1008c0 -192 63 -288 189 -288c124.667 0 187 95.333 187 286c0 202.667 -62.333 304 -187 304c-126 0 -189 -100.667 -189 -302z" />
    <glyph glyph-name="colon" unicode=":" horiz-adv-x="455" 
d="M132 1034h193v-213h-193v213zM132 213h193v-213h-193v213z" />
    <glyph glyph-name="semicolon" unicode=";" horiz-adv-x="455" 
d="M64 -263l108 480h208l-184 -480h-132zM132 1034h193v-213h-193v213z" />
    <glyph glyph-name="less" unicode="&#x3c;" 
d="M941 1046l-848 -464v-131l848 -480v149l-689 396v0l689 381v149z" />
    <glyph glyph-name="equal" unicode="=" 
d="M96 387h848v-127h-848v127zM96 786h848v-127h-848v127z" />
    <glyph glyph-name="greater" unicode="&#x3e;" 
d="M83 1046l848 -464v-131l-848 -480v149l689 396v0l-689 381v149z" />
    <glyph glyph-name="question" unicode="?" horiz-adv-x="909" 
d="M352 213h193v-213h-193v213zM111 1080v35.9971c0 258 119.333 387 358 387c103.333 0 184.333 -31 243 -93c58.667 -61.333 88 -143.666 88 -246.999v0c0 -122 -32.333 -227 -97 -315c-42 -60 -81 -112.667 -117 -158s-54 -100.666 -54 -165.999v-151h-168v225
c0 54 21.667 111.333 65 172c44 60.667 75.667 107.667 95 141c55.333 90.667 83 175.334 83 254.001c0 54 -13.667 101 -41 141c-26.667 40.667 -62.667 61 -108 61c-102.667 0 -154 -81.333 -154 -244v-43h-193z" />
    <glyph glyph-name="at" unicode="@" horiz-adv-x="1614" 
d="M1296 1170l-215.997 -626.001c-16 -49.333 -24 -83.333 -24 -102c0 -34.667 20.333 -52 61 -52c75.333 0 150.666 44 225.999 132s113 205 113 351c0 150 -54.333 273.333 -163 370s-263 145 -463 145c-194.667 0 -354.667 -65.333 -480 -196
c-124.667 -130 -187 -282.333 -187 -457c0 -184 65 -338.667 195 -464s287 -188 471 -188c123.333 0 236.666 23 339.999 69c103.333 46.667 185.666 113.334 246.999 200.001h123c-68 -123.333 -166.333 -218.333 -295 -285c-128.667 -66 -265.334 -99 -410.001 -99
c-217.333 0 -402.666 74.333 -555.999 223c-153.333 149.333 -230 331 -230 545c0 213.333 75 394.333 225 543c150 149.333 334.667 224 554 224c251.333 0 438 -65 560 -195c122.667 -129.333 184 -275.333 184 -438c0 -190.667 -51.667 -337.667 -155 -441
c-102.667 -102.667 -212.334 -154 -329.001 -154c-42 0 -79.667 10.667 -113 32c-33.333 22 -54 50 -62 84v0c-66.667 -74.667 -149 -112 -247 -112c-89.333 0 -160.666 29.667 -213.999 89c-53.333 60 -80 132.333 -80 217c0 151.333 49.667 293.666 149 426.999
c100 133.333 222 200 366 200c54 0 102.667 -13.667 146 -41s74.333 -61.666 93 -102.999l30 102h141zM894.003 1089c-110.667 0 -199.334 -56.999 -266.001 -170.999s-100 -219.667 -100 -317c0 -54 14.667 -100.667 44 -140s69.333 -59 120 -59
c106.667 0 196.334 80.333 269.001 241c52.667 120 79 217.667 79 293c0 43.333 -14.333 79.666 -43 108.999s-63 44 -103 44z" />
    <glyph glyph-name="A" unicode="A" horiz-adv-x="1251" 
d="M30 0l464 1472h241l480 -1472h-211l-106 353v0h-570v0l-109 -353h-189zM377 517h468v0l-238 788v0zM632 1663v0zM1183 0v0zM0 1503v0z" />
    <glyph glyph-name="B" unicode="B" horiz-adv-x="1251" 
d="M183 0v1472h492c120 0 214.667 -32 284 -96c70 -63.333 105 -149 105 -257c0 -199.333 -94.333 -315 -283 -347c220.667 -18 331 -137.667 331 -359c0 -139.333 -37 -243 -111 -311s-177.333 -102 -310 -102h-508zM376 164h274c78 0 142.333 23.333 193 70
s76 107.667 76 183c0 92 -25.333 160.333 -76 205c-50.667 45.333 -135 68 -253 68h-214v-526zM376 854h275.001c146.667 0 220 77 220 231c0 70 -20.333 124.667 -61 164s-96.334 59 -167.001 59h-267v-454z" />
    <glyph glyph-name="C" unicode="C" horiz-adv-x="1139" 
d="M838 433l192.998 -0.000976562c0 -160 -35 -277.333 -105 -352c-69.333 -74.667 -176.666 -112 -321.999 -112c-144.667 0 -256.667 39.667 -336 119c-78.667 80 -118 230.333 -118 451v437c0 351.333 155.333 527 466 527c266 0 399 -113 399 -339v-93h-193v49
c0 149.333 -71.667 224 -215 224c-78.667 0 -142.334 -25 -191.001 -75s-73 -160.333 -73 -331v-425c0 -129.333 18 -226 54 -290c36.667 -63.333 106.334 -95 209.001 -95c72.667 0 129.334 27 170.001 81c41.333 54.667 62 129.334 62 224.001zM615.998 1663v0z
M582.998 -0.000976562v0z" />
    <glyph glyph-name="D" unicode="D" horiz-adv-x="1251" 
d="M171 0l-0.000976562 1472h454c158 0 276.667 -47.333 356 -142c79.333 -94 119 -280.667 119 -560c0 -333.333 -45 -545 -135 -635c-89.333 -90 -224.666 -135 -405.999 -135h-388zM363.999 164l191.001 -0.000976562c130 0 221 32 273 96
c52.667 64.667 79 173.334 79 326.001v329c0 142.667 -24.333 243.667 -73 303c-48.667 60 -120.334 90 -215.001 90h-255v-1144zM581 1663v0zM0 1503v0z" />
    <glyph glyph-name="E" unicode="E" 
d="M165 0v1472h769v-164h-576v-469h534v-164h-534v-511h588v-164h-781zM513 1663v0zM889 0v0zM0 1503v0z" />
    <glyph glyph-name="F" unicode="F" horiz-adv-x="909" 
d="M150 0v1472h737v-164h-544v-469h514v-164h-514v-675h-193z" />
    <glyph glyph-name="G" unicode="G" horiz-adv-x="1251" 
d="M596 634l-0.000976562 164h464v-719c-128 -73.333 -277.667 -110 -449 -110c-154.667 0 -270.667 43 -348 129s-116 232.667 -116 440v480c0 323.333 157 485 471 485c294.667 0 442 -124 442 -372v-60h-193c0 182 -85 273 -255 273
c-99.333 0 -169.666 -30.333 -210.999 -91c-40.667 -60.667 -61 -138.667 -61 -234v-506c0 -158.667 24.667 -262.667 74 -312c49.333 -48.667 111 -73 185 -73c120.667 0 210 21.667 268 65v441h-271zM606.999 1663v0zM606.999 0v0z" />
    <glyph glyph-name="H" unicode="H" horiz-adv-x="1251" 
d="M177 1472h193v-633h511v633h193v-1472h-193v675h-511v-675h-193v1472z" />
    <glyph glyph-name="I" unicode="I" horiz-adv-x="569" 
d="M189 1472h193v-1472h-193v1472zM286 1663v0zM328 0v0zM0 1503v0z" />
    <glyph glyph-name="J" unicode="J" 
d="M60 465h193c0 -120 11.333 -206.333 34 -259c23.333 -52 70 -78 140 -78c73.333 0 126.333 23.667 159 71c33.333 48 50 133 50 255v1018h193v-1116c0 -258 -133.333 -387 -400 -387c-114 0 -204 32.667 -270 98c-66 66 -99 168.667 -99 308v90z" />
    <glyph glyph-name="K" unicode="K" horiz-adv-x="1139" 
d="M358 817l522 655h214l-537 -667l567 -805h-241l-525 776v0v-776h-193v1472h193v-655zM637 0v0z" />
    <glyph glyph-name="L" unicode="L" horiz-adv-x="909" 
d="M165 1472h193v-1308h544v-164h-737v1472zM343 1663v0zM585 0v0zM0 1503v0z" />
    <glyph glyph-name="M" unicode="M" horiz-adv-x="1706" 
d="M168 1472h304l381 -1242v0l382 1242h310v-1472h-193v1300v0l-415 -1300h-177l-415 1311v0v-1311h-177v1472z" />
    <glyph glyph-name="N" unicode="N" horiz-adv-x="1366" 
d="M177 1472h268l580 -1271v0v1271h168v-1472h-259l-589 1282v0v-1282h-168v1472zM705 1663v0zM665 0v0zM0 1503v0z" />
    <glyph glyph-name="O" unicode="O" horiz-adv-x="1251" 
d="M159 532l-0.000976562 484.999c0 154 39.333 273.333 118 358c78.667 85.333 194.334 128 347.001 128c152 0 267.333 -42.667 346 -128c78.667 -84.667 118 -202.667 118 -354v-489c0 -192.667 -37 -334.667 -111 -426s-190.667 -137 -350 -137
c-168.667 0 -289 47 -361 141c-71.333 94.667 -107 235.334 -107 422.001zM351.999 1021l-0.000976562 -506c0 -130.667 19.333 -228 58 -292c38.667 -63.333 110 -95 214 -95c94.667 0 163.334 29.333 206.001 88c43.333 58.667 65 161 65 307v508
c0 103.333 -24.333 181.333 -73 234s-115 79 -199 79c-180.667 0 -271 -107.667 -271 -323zM633.998 1663v0z" />
    <glyph glyph-name="P" unicode="P" horiz-adv-x="1139" 
d="M189 1472h443.999c124 0 222.333 -33.333 295 -100c73.333 -66 110 -172.667 110 -320c0 -126.667 -35.667 -225 -107 -295s-170.666 -105 -297.999 -105h-251v-652h-193v1472zM381.999 1308v-492h210c83.333 0 146.333 22.667 189 68s64 105.333 64 180
c0 77.333 -19.333 137.333 -58 180s-93 64 -163 64h-242z" />
    <glyph glyph-name="Q" unicode="Q" horiz-adv-x="1251" 
d="M938 128c80 24 125.666 35.998 136.999 35.998h145v-164h-650c-148 0 -255.667 42.667 -323 128c-66.667 86 -100 219 -100 399v489c0 154.667 39.333 274.334 118 359.001c78.667 85.333 194.334 128 347.001 128c152 0 267.333 -42.333 346 -127
c78.667 -84 118 -202.667 118 -356v-481c0 -79.333 -12 -160.666 -36 -243.999c-26.667 -95.333 -60.667 -151 -102 -167zM339.999 513.998c0 -133.333 21 -227.333 63 -282c42 -54 112.333 -81 211 -81c100.667 0 170.667 29.333 210 88s59 153.667 59 285v506
c0 104.667 -24.333 183 -73 235c-48.667 52.667 -115 79 -199 79c-180.667 0 -271 -108.333 -271 -325v-505z" />
    <glyph glyph-name="R" unicode="R" horiz-adv-x="1139" 
d="M162 0l-0.00195312 1472h507c112.667 0 200.334 -32.333 263.001 -97c63.333 -64 95 -154.333 95 -271c0 -188.667 -92.333 -302.334 -277 -341.001c79.333 -8 138.333 -34 177 -78c39.333 -44 61.333 -121.333 66 -232c6 -191.333 24.333 -342.333 55 -453h-196
c-19.333 29.333 -32.666 93.333 -39.999 192c-6.66699 98.667 -12.334 196.334 -17.001 293.001c-7.33301 126.667 -79.666 190 -216.999 190h-223v-675h-193zM354.998 839h277.001c62 0 111 22.333 147 67c36.667 44.667 55 104 55 178c0 60.667 -16.333 113 -49 157
c-32.667 44.667 -81.334 67 -146.001 67h-284v-469zM563.999 1663v0zM594.999 0v0zM-0.000976562 1503v0z" />
    <glyph glyph-name="S" unicode="S" horiz-adv-x="1139" 
d="M128 433l192.998 0.00195312v-52c0 -76 22 -136.333 66 -181s109 -67 195 -67c74 0 134 20 180 60s69 98.333 69 175c0 61.333 -23 114 -69 158c-45.333 44 -125.666 94.667 -240.999 152c-141.333 72.667 -237 140 -287 202c-49.333 62.667 -74 137.334 -74 224.001
c0 119.333 38.333 215.666 115 288.999s184 110 322 110c136.667 0 239.334 -33.333 308.001 -100s103 -158.334 103 -275.001v-57h-193v0c0 178.667 -76.333 268 -229 268c-72.667 0 -129.667 -19.333 -171 -58s-62 -90.667 -62 -156
c0 -68.667 31.333 -129.334 94 -182.001c38.667 -33.333 116.667 -79.333 234 -138c118 -58.667 202.333 -118.334 253 -179.001c60 -72 90 -155.667 90 -251c0 -270.667 -157.667 -406 -473 -406c-134.667 0 -239 35 -313 105c-73.333 70.667 -110 172.334 -110 305.001v54
zM608.998 1663v0zM560.998 0.00195312v0z" />
    <glyph glyph-name="T" unicode="T" 
d="M32 1472h961v-164h-384v-1308h-193v1308h-384v164zM513 1663v0zM513 0v0zM0 1503v0z" />
    <glyph glyph-name="U" unicode="U" horiz-adv-x="1251" 
d="M159 1472h193.002v-956c0 -140.667 21.667 -240.667 65 -300c43.333 -58.667 111.333 -88 204 -88c95.333 0 164.666 29 207.999 87c44 58 66 158.667 66 302v955h193v-934c0 -202 -39 -347.333 -117 -436c-77.333 -88.667 -192 -133 -344 -133
c-158.667 0 -276.334 44.333 -353.001 133s-115 234 -115 436v934zM631.002 1663v0zM732.002 0v0zM0.00195312 1503v0z" />
    <glyph glyph-name="V" unicode="V" horiz-adv-x="1139" 
d="M581 167l348 1305h193l-432 -1472h-226l-432 1472h205z" />
    <glyph glyph-name="W" unicode="W" horiz-adv-x="1821" 
d="M16 1472h202l286 -1282v0l296 1282h244l277 -1282v0l295 1282h196l-384 -1472h-229l-288 1277v0l-298 -1277h-229z" />
    <glyph glyph-name="X" unicode="X" horiz-adv-x="1139" 
d="M12 0l425 765v0l-404 707h217l302 -569v0l308 569h208l-395 -707v0l440 -765h-224l-345 627v0l-327 -627h-205z" />
    <glyph glyph-name="Y" unicode="Y" 
d="M16 1472h211l293 -713v0l300 713h189l-400 -908v-564h-193v564zM575 1663v0zM0 1503v0z" />
    <glyph glyph-name="Z" unicode="Z" 
d="M48 0v213l719 1095v0h-695v164h888v-190l-735 -1118v0h750v-164h-927zM516 1663v0zM0 1503v0z" />
    <glyph glyph-name="bracketleft" unicode="[" horiz-adv-x="569" 
d="M144 -239h344v113h-176v1553h170v113h-338v-1779z" />
    <glyph glyph-name="backslash" unicode="\" horiz-adv-x="569" 
d="M435 -32l-438 1504h138l438 -1504h-138z" />
    <glyph glyph-name="bracketright" unicode="]" horiz-adv-x="569" 
d="M425 -239h-344v113h176v1553h-170v113h338v-1779z" />
    <glyph glyph-name="asciicircum" unicode="^" 
d="M279 573h-144l320 854h123l320 -854h-144l-241 657v0z" />
    <glyph glyph-name="underscore" unicode="_" 
d="M0 -254v103h1024v-103h-1024z" />
    <glyph glyph-name="grave" unicode="`" horiz-adv-x="569" 
d="M303 1184l-262 288h224l176 -288h-138zM266 1184v0z" />
    <glyph glyph-name="a" unicode="a" 
d="M158 758c4 202.667 119.667 304.001 347 304.001s341 -105 341 -315v-511c0 -82.667 8 -161.334 24 -236.001h-187v155c-48 -118 -134.333 -177 -259 -177c-193.333 0 -290 113 -290 339c0 105.333 34.667 186.333 104 243s172.666 85 309.999 85h130v89
c0 134 -59 201 -177 201c-47.333 0 -86.666 -14.667 -117.999 -44c-30.667 -28.667 -46 -73 -46 -133h-179zM678 518.001h-37.001c-127.333 0 -215.666 -16.667 -264.999 -50s-74 -86.333 -74 -159c0 -60 14.667 -107.333 44 -142s68 -52 116 -52c68 0 121 26.667 159 80
s57 161 57 323v0zM513.999 1190v0zM823.999 0.000976562v0z" />
    <glyph glyph-name="b" unicode="b" 
d="M163 0l-0.000976562 1472h168v-554c26 48 59 84 99 108c40.667 24 87.334 36 140.001 36c116.667 0 202 -39.333 256 -118c54 -78 81 -219.333 81 -424c0 -184 -24.333 -320.333 -73 -409c-48 -88.667 -134.667 -133 -260 -133c-114.667 0 -195.667 48 -243 144v-122
h-168zM330.999 514c0 -150.667 14.999 -255 44.999 -313c30.667 -57.333 78.334 -86 143.001 -86c74.667 0 128 29.333 160 88c32.667 58.667 49 156 49 292c0 165.333 -14.333 278.333 -43 339s-82 91 -160 91c-52 0 -92 -15.667 -120 -47s-46.667 -67.333 -56 -108
c-12 -54 -18 -139.333 -18 -256z" />
    <glyph glyph-name="c" unicode="c" 
d="M688 346l178.999 0.000976562c0 -116 -32 -206.333 -96 -271c-63.333 -64.667 -140.333 -97 -231 -97c-152 0 -254.667 45 -308 135s-80 221.333 -80 394c0 202 29.333 345 88 429s160 126 304 126c98 0 175 -27.333 231 -82s84 -144.667 84 -270v0v0h-179v0v0
c0 68 -12 120.667 -36 158c-24 38 -58.667 57 -104 57c-73.333 0 -126.666 -26.333 -159.999 -79c-32.667 -52.667 -49 -143.334 -49 -272.001c0 -182 15 -304 45 -366s83 -93 159 -93c102 0.666992 153 77.667 153 231zM546.999 1190v0zM458.999 0.000976562v0z" />
    <glyph glyph-name="d" unicode="d" 
d="M694 918l-0.000976562 554h168v-1472h-168v122c-48 -96 -129 -144 -243 -144c-119.333 0 -204.666 42.333 -255.999 127s-77 223 -77 415c0 210 28.333 352.667 85 428c56.667 76 141 114 253 114c110.667 0 190 -48 238 -144zM296.999 495
c0 -142.667 17.333 -241.666 52 -296.999s87 -83 157 -83c62 0 108.667 26.667 140 80c32 53.333 48 159.666 48 318.999c0 116.667 -6.33301 202 -19 256c-9.33301 40.667 -28 76.667 -56 108s-67.667 47 -119 47c-80 0 -134 -30.333 -162 -91
c-27.333 -60.667 -41 -173.667 -41 -339z" />
    <glyph glyph-name="e" unicode="e" 
d="M310 466c0 -134.667 16.667 -226.999 50 -276.999c33.333 -49.333 85.333 -74 156 -74c51.333 0 93 18 125 54c32 36.667 49.667 85 53 145h184c0 -104.667 -31.333 -187 -94 -247c-62.667 -59.333 -150 -89 -262 -89c-160 0 -265.333 49.333 -316 148
c-50 99.333 -75 226.333 -75 381c0 206.667 29.667 350.667 89 432c60 82 161 123 303 123c134.667 0 228.667 -37.667 282 -113c54 -74.667 81 -199.334 81 -374.001v-109h-576zM310 593.001l397.001 0.000976562v0c0 143.333 -21 240.666 -63 291.999
c-26.667 33.333 -69.334 50 -128.001 50c-74.667 0 -127.667 -25 -159 -75s-47 -139 -47 -267zM506.001 1190v0zM579.001 0.00195312v0z" />
    <glyph glyph-name="f" unicode="f" horiz-adv-x="569" 
d="M16 1040h160v175c0 90 22.667 155.333 68 196c46 40.667 124.333 61 235 61c24 0 48.333 -2 73 -6v-123c-3.33301 1.33301 -16.333 2 -39 2c-112.667 0 -169 -45 -169 -135v-170h208v-127h-208v-913h-168v913h-160v127z" />
    <glyph glyph-name="g" unicode="g" 
d="M174 -112h191.999v0c0 -52 16.333 -89.333 49 -112c32.667 -22 67.334 -33 104.001 -33c118.667 0 178 58 178 174v211c-50 -85.333 -128 -128 -234 -128c-136.667 -0 -230.667 58.333 -282 175c-36.667 84 -55 208.333 -55 373c0 342.667 108.667 514 326 514
c114 0 195.667 -53.333 245 -160v138h168v-1141c0 -188.667 -119.667 -283 -359 -283c-109.333 0 -192 23.667 -248 71c-56 48 -84 104.333 -84 169v32zM304.999 549c0 -148.667 16 -254.667 48 -318c32 -62.667 82.667 -94 152 -94c64 0 112.667 25.333 146 76
c34 51.333 51 155.333 51 312c0 158 -15.667 264 -47 318c-31.333 54.667 -80.333 82 -147 82c-75.333 0 -128 -31.333 -158 -94c-30 -62 -45 -156 -45 -282zM492.999 1190v0z" />
    <glyph glyph-name="h" unicode="h" 
d="M144 1472h168v-570c55.333 106.667 150 160 284 160c96.667 0 166.667 -26.333 210 -79c44 -52 66 -137.667 66 -257v-726h-168v723c0 134.667 -58.667 202 -176 202c-144 0 -216 -97.667 -216 -293v-632h-168v1472z" />
    <glyph glyph-name="i" unicode="i" horiz-adv-x="455" 
d="M144 1040h168v-1040h-168v1040zM133 1493h190v-181h-190v181zM265 0v0z" />
    <glyph glyph-name="j" unicode="j" horiz-adv-x="455" 
d="M144 -136v1176h168v-1174c0 -95.333 -21 -160.333 -63 -195s-119 -53 -231 -55v0v143v0c48 0 81 7.33301 99 22c18 15.333 27 43 27 83zM133 1493h190v-181h-190v181z" />
    <glyph glyph-name="k" unicode="k" horiz-adv-x="909" 
d="M315 589l323 451h205l-347 -447l407 -593h-213l-375 581v0v-581h-168v1472h168v-883zM513 0v0z" />
    <glyph glyph-name="l" unicode="l" horiz-adv-x="455" 
d="M144 0v1472h168v-1472h-168zM230 1664v0zM230 0v0z" />
    <glyph glyph-name="m" unicode="m" horiz-adv-x="1479" 
d="M307 0h-167.999v837c0 63.333 -1.66699 131 -5 203h173v-138c41.333 106.667 127.666 160 258.999 160c120 0 200 -42.667 240 -128c46 85.333 128 128 246 128c186 0 279 -91.333 279 -274v-788h-168v723c0 134.667 -54.667 202 -164 202c-120 0 -180 -73.667 -180 -221
v-704h-168v723c0 134.667 -52.333 202 -157 202c-124.667 0 -187 -75 -187 -225v-700z" />
    <glyph glyph-name="n" unicode="n" 
d="M315 0l-168.001 0.000976562v857c0 50 -1.66699 111 -5 183h179l-6 -138c30.667 59.333 69.334 100.666 116.001 123.999c47.333 24 103.333 36 168 36c95.333 0 165 -25.333 209 -76c44.667 -50 67 -136.667 67 -260v-726h-168v723c0 134.667 -59.667 202 -179 202
c-142 0 -213 -97.667 -213 -293v-632zM527.999 1190v0zM521.999 0.000976562v0z" />
    <glyph glyph-name="o" unicode="o" 
d="M118 507c0 215.333 31 361.667 93 439c62.667 77.333 164 116 304 116c146.667 0 248.334 -42.333 305.001 -127c56.667 -84 85 -221 85 -411c0 -203.333 -29.333 -345.333 -88 -426c-58.667 -80 -159.334 -120 -302.001 -120c-138.667 0 -239.667 37.333 -303 112
c-62.667 75.333 -94 214.333 -94 417zM297 574.001c0 -173.333 14.332 -293.333 42.999 -360c28.667 -66 87 -99 175 -99c82 0 137.667 33.667 167 101s44 186.666 44 357.999c0 136.667 -18.667 229.334 -56 278.001s-89.666 73 -156.999 73c-76 0 -131 -26.333 -165 -79
c-34 -52 -51 -142.667 -51 -272zM511.999 1190v0z" />
    <glyph glyph-name="p" unicode="p" 
d="M320 902c48.667 106.667 129.667 160 243 160c118.667 0 203.667 -42.667 255 -128c52 -84.667 78 -222.667 78 -414c0 -206.667 -28 -348.667 -84 -426c-55.333 -77.333 -140 -116 -254 -116c-112.667 0 -192 48 -238 144v-506h-168v1424h168v-138zM320 526
l0.000976562 -49.001c0 -131.333 16 -224.666 48 -279.999c32 -54.667 80.667 -82 146 -82c78 0 131.333 30.333 160 91s43 174.667 43 342c0 143.333 -17 242 -51 296c-33.333 54 -86 81 -158 81c-64.667 0 -112.334 -29 -143.001 -87c-30 -57.333 -45 -161.333 -45 -312z
" />
    <glyph glyph-name="q" unicode="q" 
d="M697 902v138.001h168v-1424h-168v506c-22 -40.667 -52 -75 -90 -103c-38 -27.333 -87.667 -41 -149 -41c-118.667 0 -204.667 41.333 -258 124c-52.667 83.333 -79 222.666 -79 417.999c0 194.667 26 333.667 78 417s137 125 255 125c112.667 0 193.667 -53.333 243 -160
zM300 548.001c0 -167.333 13.667 -281.333 41 -342c28 -60.667 82 -91 162 -91c68.667 0 118 32 148 96c30.667 64 46 169 46 315c0 150.667 -15.333 254.667 -46 312c-30.667 58 -78 87 -142 87c-71.333 0 -124 -27 -158 -81s-51 -152.667 -51 -296z" />
    <glyph glyph-name="r" unicode="r" horiz-adv-x="682" 
d="M155 0v1040h168v-163v0c44 123.333 139 185 285 185h35v0v-175c-29.333 6.66699 -59.333 10 -90 10c-153.333 0 -230 -94.667 -230 -284v-613h-168zM401 1190v0zM237 0v0z" />
    <glyph glyph-name="s" unicode="s" horiz-adv-x="909" 
d="M104 314l192 0.00292969v0c0 -132.667 55 -199 165 -199c58 0 102.333 12.333 133 37c30.667 25.333 46 64.666 46 117.999c0 37.333 -17.333 69 -52 95c-34.667 26.667 -86.667 55.667 -156 87c-97.333 44 -172.333 90.667 -225 140c-52.667 50 -79 109.667 -79 179
c0 91.333 31.667 162.666 95 213.999s151 77 263 77c104.667 0 185 -22.667 241 -68c56 -44.667 84 -99 84 -163v-57h-192v0c0 107.333 -51.333 161 -154 161c-46.667 0 -84.667 -12.667 -114 -38s-44 -60 -44 -104c0 -40 26 -75.667 78 -107
c52 -30.667 104 -57.334 156 -80.001c88 -41.333 156.333 -85.333 205 -132s73 -104.667 73 -174c0 -214.667 -119.333 -322 -358 -322c-238 0 -357 112 -357 336v0zM507 1190v0zM446 0.00292969v0z" />
    <glyph glyph-name="t" unicode="t" horiz-adv-x="569" 
d="M-6 913v126.999h171v197l168 75v-272h224v-127h-224v-664c0 -43.333 12.333 -76.666 37 -99.999c25.333 -22.667 63 -34 113 -34c18.667 0 44.667 2.66699 78 8v-127c-40 -12 -95.333 -18 -166 -18c-153.333 0 -230 63.333 -230 190v745h-171zM276 -0.000976562v0z" />
    <glyph glyph-name="u" unicode="u" 
d="M155 1040l168 0.000976562v-723c0 -141.333 57.667 -212 173 -212c67.333 0 118 24.667 152 74s51 103.666 51 162.999v698h168v-857c0 -50.667 1.66699 -111.667 5 -183h-173v138c-52.667 -106.667 -142.667 -160 -270 -160c-85.333 0 -152.333 22 -201 66
c-48.667 44.667 -73 109.667 -73 195v801zM502 1190v0zM816 0.000976562v0zM0 1062v0z" />
    <glyph glyph-name="v" unicode="v" horiz-adv-x="909" 
d="M452 154l249 886h176l-320 -1040h-221l-304 1040h189z" />
    <glyph glyph-name="w" unicode="w" horiz-adv-x="1479" 
d="M18 1040h186l187 -902v0l235 902h239l211 -902v0l202 902h179l-272 -1040h-226l-220 890v0l-239 -890h-226z" />
    <glyph glyph-name="x" unicode="x" horiz-adv-x="909" 
d="M13 0l319 544v0l-293 496h215l196 -374v0l206 374h205l-310 -496v0l342 -544h-221l-238 423v0l-221 -423h-200z" />
    <glyph glyph-name="y" unicode="y" horiz-adv-x="909" 
d="M16 1040h194l254 -840v0l251 840h181l-473 -1424h-173l115 384v0zM484 1190v0zM0 1062v0z" />
    <glyph glyph-name="z" unicode="z" horiz-adv-x="797" 
d="M71 0v158l454 745v0h-430v137h616v-154l-459 -749v0h472v-137h-653zM429 1190v0zM0 1062v0z" />
    <glyph glyph-name="braceleft" unicode="{" horiz-adv-x="561" 
d="M16 743c76.667 16.667 127.665 37.001 152.998 61.001c26 24 39 59.667 39 107v372c0 179.333 96.667 269 290 269h62v-115v0c-67.333 -3.33301 -114.666 -17.333 -141.999 -42s-41 -74.334 -41 -149.001v-307c0 -72 -17.333 -129.667 -52 -173
c-34 -42.667 -92.667 -69.667 -176 -81v0c87.333 -20 147 -51.333 179 -94c32.667 -42 49 -106.667 49 -194v-347c0 -66.667 13.333 -115.334 40 -146.001c26.667 -30 74.334 -45 143.001 -45v0v-115h-21h-18c-110.667 0 -190.667 23.333 -240 70
c-48.667 46.667 -73 122.334 -73 227.001v415c0 48.667 -12.333 84 -37 106c-24 22 -75.667 44 -155 66v115z" />
    <glyph glyph-name="bar" unicode="|" horiz-adv-x="512" 
d="M192 1536h127v-2048h-127v2048z" />
    <glyph glyph-name="braceright" unicode="}" horiz-adv-x="561" 
d="M560 629c-80 -22 -131.999 -44.0029 -155.999 -66.0029s-36 -57.667 -36 -107v-415c0 -99.333 -23.333 -173.666 -70 -222.999c-46 -49.333 -127.333 -74 -244 -74h-18c-10 0 -16.667 0.666992 -20 2v113v0c68 0 115.333 15 142 45c27.333 30.667 41 79.334 41 146.001
v347c0 88 16 153 48 195c32 42.667 92 74 180 94v0c-71.333 10 -127.333 34.667 -168 74c-40 39.333 -60 99 -60 179v307c0 74.667 -14 124.334 -42 149.001c-27.333 24.667 -74.333 38.667 -141 42v0v115h62c193.333 0 290 -89.333 290 -268v-372
c0 -47.333 12.667 -83 38 -107s76.666 -44.333 153.999 -61v-115z" />
    <glyph glyph-name="asciitilde" unicode="~" 
d="M89 484c66.667 131.333 145.668 197 237.001 197c44.667 0 111.667 -23.667 201 -71c89.333 -46.667 148 -70 176 -70c60 0 115 47 165 141l69 -97c-66 -132.667 -144 -199 -234 -199c-43.333 0 -108.666 23.333 -195.999 70c-86.667 47.333 -146.334 71 -179.001 71
c-60.667 0 -117.334 -47 -170.001 -141z" />
    <glyph glyph-name="exclamdown" unicode="&#xa1;" horiz-adv-x="682" 
d="M413 744l39 -1129v0h-223v0l39 1129h145zM437 1087v-213h-193v213h193z" />
    <glyph glyph-name="cent" unicode="&#xa2;" horiz-adv-x="909" 
d="M208 71c-75.333 80 -113.001 224.333 -113.001 433c0 198.667 28.667 340 86 424c58 84 162.667 126 314 126c45.333 0 87 -6 125 -18v0l54 130v0l64 -30l-53 -132v0c76 -54 114 -154.667 114 -302v0h-176c0 54 -3.33301 97 -10 129v0l-274 -660v0
c30.667 -38 78.334 -57 143.001 -57c40 0 75 19.667 105 59s45 97 45 173h176c0 -117.333 -31 -208 -93 -272s-140.333 -96 -235 -96c-87.333 0 -155 12.667 -203 38v0l-57 -134v0l-74 33zM298.999 272l264 628v0c-21.333 12 -45.333 18 -72 18
c-77.333 0 -133.333 -26 -168 -78s-52 -141.333 -52 -268c0 -137.333 9.33301 -237.333 28 -300z" />
    <glyph glyph-name="sterling" unicode="&#xa3;" horiz-adv-x="909" 
d="M-9 860h164v243c0 228.667 126.333 343 379 343c109.333 0 196 -29.333 260 -88s96 -140.667 96 -246v-19v-15h-196v33c0 115.333 -55.667 173 -167 173c-60 0 -105.333 -14.667 -136 -44c-30 -28.667 -45 -84.667 -45 -168v-212h283v-162h-283v-536h535v-162h-878v162
h152v536h-164v162z" />
    <glyph glyph-name="currency" unicode="&#xa4;" horiz-adv-x="909" 
d="M-6 1014l99 104.999l77 -82v0c85.333 64 180.333 96 285 96v0c97.333 0 189.666 -33.667 276.999 -101v0l82 87l99 -105l-80 -92v0c58.667 -88 88 -193.667 88 -317v0c0 -104 -29.333 -202.333 -88 -295v0l80 -87l-99 -111l-83 92v0
c-83.333 -69.333 -176.333 -104 -279 -104v0c-95.333 0 -188.666 34.667 -279.999 104v0l-81 -92l-97 111l82 91v0c-61.333 88.667 -92 188.667 -92 300v0c0 124.667 30.667 227.334 92 308.001v0zM137 615.999c0 -109.333 30.334 -197.332 91.001 -263.999
c61.333 -66 134.666 -99 219.999 -99c87.333 0 162.333 32.667 225 98c63.333 65.333 95 154 95 266c0 106.667 -30.333 193.667 -91 261c-60 68 -132.333 102 -217 102c-108.667 0 -189.667 -36.667 -243 -110c-53.333 -72.667 -80 -157.334 -80 -254.001z" />
    <glyph glyph-name="yen" unicode="&#xa5;" horiz-adv-x="909" 
d="M368 0v272h-240v136h240v128h-240v136h188v0l-316 752h199l261 -656v0l280 656h179l-331 -752v0h187v-136h-240v-128h240v-136h-240v-272h-167z" />
    <glyph glyph-name="brokenbar" unicode="&#xa6;" horiz-adv-x="512" 
d="M319 -352h-127v720h127v-720zM192 1392h127v-720h-127v720z" />
    <glyph glyph-name="section" unicode="&#xa7;" horiz-adv-x="909" 
d="M141 15l-0.00292969 183.002c97.333 -45.333 185.333 -68 264 -68c56 0 102 12.333 138 37c36 25.333 54 58.666 54 99.999c0 66 -55.333 118.333 -166 157l-115 41c-136.667 49.333 -205 126.666 -205 231.999c0 109.333 69.333 198.333 208 267
c-120.667 54 -181 133 -181 237c0 92.667 32.333 165.667 97 219c64.667 54 150 81 256 81c72.667 0 149.334 -13 230.001 -39v-169c-92 34.667 -163.667 52 -215 52s-93.333 -12.333 -126 -37s-49 -56 -49 -94c0 -61.333 50 -111 150 -149l111 -42
c122 -46.667 183 -122 183 -226c0 -61.333 -19 -115.666 -57 -162.999c-37.333 -47.333 -88.666 -82.333 -153.999 -105c60 -14.667 112.667 -42.334 158 -83.001s68 -94.667 68 -162c0 -97.333 -34.667 -173.333 -104 -228s-159.666 -82 -270.999 -82
c-98.667 0 -190 13.667 -274 41zM430.997 916.002c-101.333 -39.333 -152 -96.0029 -152 -170.003c0 -43.333 10 -75.666 30 -96.999c20.667 -21.333 64.667 -43.666 132 -66.999c110.667 38.667 166 98.334 166 179.001c0 41.333 -14.667 73 -44 95s-73.333 42 -132 60z
" />
    <glyph glyph-name="dieresis" unicode="&#xa8;" horiz-adv-x="569" 
d="M16 1413h189v-213h-189v213zM365 1413h189v-213h-189v213zM287 1184v0z" />
    <glyph glyph-name="copyright" unicode="&#xa9;" horiz-adv-x="1638" 
d="M817 -43c-210.667 0 -391.668 75.999 -543.001 227.999c-150.667 152 -226 334 -226 546c0 213.333 75 395.333 225 546c150.667 151.333 332.334 227 545.001 227c210 0 390.667 -74.667 542 -224c151.333 -148.667 227 -329.667 227 -543s-76 -396.666 -228 -549.999
c-151.333 -153.333 -332 -230 -542 -230zM162.999 729.999c0 -176.667 63.001 -329.333 189.001 -458c126.667 -128 283.667 -192 471 -192c182 0 335.667 64 461 192s188 281 188 459c0 180.667 -64.667 334 -194 460c-128.667 126.667 -282.334 190 -461.001 190
c-184 0 -339 -63.333 -465 -190c-126 -126 -189 -279.667 -189 -461zM1104 956h-145.002c0 94 -43.333 141 -130 141c-67.333 0 -115.333 -14 -144 -42c-28.667 -27.333 -43 -73 -43 -137v-288c0 -89.333 17 -146.333 51 -171c34.667 -24.667 75.334 -37 122.001 -37
c100.667 0 153.334 57.667 158.001 173h143c0 -192 -100.333 -288 -301 -288c-96.667 0 -173.667 24.333 -231 73c-56.667 49.333 -85 140.333 -85 273v216c0 228.667 109.333 343 328 343c184.667 0 277 -74.667 277 -224v-32z" />
    <glyph glyph-name="ordfeminine" unicode="&#xaa;" horiz-adv-x="614" 
d="M51 1321c3.33301 128 88.333 192 255 192c165.333 0 248 -61.667 248 -185v-306c0 -49.333 6 -96.333 18 -141h-149v93c-33.333 -70.667 -91.666 -106 -174.999 -106c-141.333 0 -212 68.667 -212 206c0 60.667 25.667 109 77 145s131.666 55 240.999 57h66v28
c0 84 -40.333 126 -121 126c-80 0 -120 -36.333 -120 -109h-128zM420 1193l-23 0.000976562c-95.333 0 -157 -10.333 -185 -31s-42 -53.334 -42 -98.001c0 -75.333 33.333 -113 100 -113c52.667 0 90.667 18 114 54c24 36 36 91 36 165v19v4z" />
    <glyph glyph-name="guillemotleft" unicode="&#xab;" horiz-adv-x="909" 
d="M413 558l193 -400h159l-169 397l169 403h-156zM61 558l193 -400h159l-169 397l169 403h-156z" />
    <glyph glyph-name="logicalnot" unicode="&#xac;" 
d="M96 781h848v-543h-127v416h-721v127z" />
    <glyph glyph-name="hyphen" unicode="&#xad;" horiz-adv-x="682" 
d="M112 638h448v-156h-448v156z" />
    <glyph glyph-name="registered" unicode="&#xae;" horiz-adv-x="1638" 
d="M817 -43c-210.667 0 -391.668 75.999 -543.001 227.999c-150.667 152 -226 334 -226 546c0 213.333 75 395.333 225 546c150.667 151.333 332.334 227 545.001 227c210 0 390.667 -74.667 542 -224c151.333 -148.667 227 -329.667 227 -543s-76 -396.666 -228 -549.999
c-151.333 -153.333 -332 -230 -542 -230zM162.999 729.999c0 -176.667 63.001 -329.333 189.001 -458c126.667 -128 283.667 -192 471 -192c182 0 335.667 64 461 192s188 281 188 459c0 180.667 -64.667 334 -194 460c-128.667 126.667 -282.334 190 -461.001 190
c-184 0 -339 -63.333 -465 -190c-126 -126 -189 -279.667 -189 -461zM531 292v880.998h342c84.667 0 147 -20.667 187 -62s60 -93 60 -155c0 -52.667 -19.333 -98 -58 -136c-38 -37.333 -84 -59.666 -138 -66.999v0c54 -10 91.333 -25 112 -45
c21.333 -19.333 35 -62.666 41 -129.999c10.667 -114 16 -171.667 16 -173c0 -48 9 -85.667 27 -113h-143c-14 21.333 -25.667 112.333 -35 273c-4 83.333 -47.667 125 -131 125h-137v-398h-143zM674 1076v-271h181c81.333 0 122 46.333 122 139c0 88 -41.333 132 -124 132
h-179z" />
    <glyph glyph-name="macron" unicode="&#xaf;" horiz-adv-x="569" 
d="M0 1345h560v-113h-560v113zM282 1184v0z" />
    <glyph glyph-name="macron" unicode="&#x2c9;" horiz-adv-x="569" 
d="M0 1345h560v-113h-560v113zM282 1184v0z" />
    <glyph glyph-name="degree" unicode="&#xb0;" horiz-adv-x="819" 
d="M96 1142c0 83.333 30 154.668 90 214.001c60.667 60 134.667 90 222 90c86 0 159.333 -30 220 -90c61.333 -59.333 92 -131 92 -215c0 -85.333 -30.667 -157.333 -92 -216c-60.667 -58.667 -134 -88 -220 -88c-87.333 0 -161.333 29.333 -222 88
c-60 59.333 -90 131.666 -90 216.999zM224 1140c0 -48 18 -89.001 54 -123.001s79.333 -51 130 -51c50 0 93 17.333 129 52c36.667 34.667 55 76.334 55 125.001c0 47.333 -18.333 88 -55 122c-36 34.667 -79 52 -129 52c-50.667 0 -94 -17.667 -130 -53
c-36 -34.667 -54 -76 -54 -124z" />
    <glyph glyph-name="plusminus" unicode="&#xb1;" 
d="M96 131h863v-127h-863v127zM96 706h368v336h127v-336h368v-127h-368v-336h-127v336h-368v127z" />
    <glyph glyph-name="twosuperior" unicode="&#xb2;" horiz-adv-x="545" 
d="M32 684l213 255c93.333 110 140 202.667 140 278c0 70 -39 105 -117 105c-59.333 0 -89 -41.667 -89 -125v0v0h-143v0v24c0 64 20.667 116 62 156s96.333 60 165 60c176.667 0 265 -73.667 265 -221c0 -90 -32 -174.333 -96 -253l-229 -278v0h329v-109h-500v108z" />
    <glyph glyph-name="threesuperior" unicode="&#xb3;" horiz-adv-x="545" 
d="M4 814l131 -0.000976562v0c0 -94 39 -141 117 -141c94 0 141 45 141 135c0 65.333 -14.667 109.333 -44 132c-28.667 22.667 -79.667 34 -153 34v0v103h35c94.667 0 142 45 142 135c0 81.333 -39 122 -117 122c-72.667 0 -109 -45.667 -109 -137h-129v40
c0 65.333 19.667 115 59 149s98.666 51 177.999 51c88.667 0 154.334 -18.667 197.001 -56c42.667 -36.667 64 -89.667 64 -159c0 -110 -66 -176.333 -198 -199c72.667 -11.333 127 -32.666 163 -63.999c36.667 -30.667 55 -82.667 55 -156c0 -74 -25.333 -133.333 -76 -178
c-50 -44.667 -121.667 -67 -215 -67c-68 0 -125.333 16.667 -172 50c-46 34 -69 89 -69 165v41z" />
    <glyph glyph-name="acute" unicode="&#xb4;" horiz-adv-x="569" 
d="M128 1184l176 288h224l-262 -288h-138zM303 1184v0z" />
    <glyph glyph-name="mu" unicode="&#xb5;" 
d="M867 1040v-858c0 -51.333 3.66699 -112 11 -182h-179v139c-24.667 -47.333 -59 -86 -103 -116c-43.333 -30 -99 -45 -167 -45c-26 0 -61.333 6.66699 -106 20v-382h-168v1424h168v-722c0 -140.667 57.667 -211 173 -211c63.333 0 113 22.667 149 68
c36 46 54 102.333 54 169v696h168z" />
    <glyph glyph-name="paragraph" unicode="&#xb6;" horiz-adv-x="901" 
d="M336 -240v927.999c-86.667 0 -161.667 39 -225 117c-63.333 78.667 -95 169.334 -95 272.001c0 114 30.667 208.333 92 283c62 74.667 155.667 112 281 112h404v0v0v-1712h-143v1575h-171v-1575h-143z" />
    <glyph glyph-name="periodcentered" unicode="&#xb7;" horiz-adv-x="455" 
d="M131 416v212h192v-212h-192z" />
    <glyph glyph-name="periodcentered" unicode="&#x2219;" horiz-adv-x="455" 
d="M131 416v212h192v-212h-192z" />
    <glyph glyph-name="cedilla" unicode="&#xb8;" horiz-adv-x="569" 
d="M64 -406l35.001 83c50 -20.667 93.667 -31 131 -31c73.333 0 110 25 110 75c0 56 -32.333 84 -97 84c-4.66699 0 -31.334 -5.66699 -80.001 -17l-35 39l130 173h97l-100 -129c24.667 11.333 48.667 17 72 17c50 0 90.667 -14.333 122 -43c31.333 -28 47 -65.333 47 -112
c0 -54.667 -22.333 -99 -67 -133c-44 -34 -99.333 -51 -166 -51c-66 0 -132.333 15 -199 45zM255.001 0v0z" />
    <glyph glyph-name="onesuperior" unicode="&#xb9;" horiz-adv-x="545" 
d="M96 1318c22 9.33301 75.333 44.667 160 106h127v-848h-143v708l-144 -84v118z" />
    <glyph glyph-name="ordmasculine" unicode="&#xba;" horiz-adv-x="614" 
d="M32 1183c0 131.333 21.002 219 63.002 263c42 44.667 110.667 67 206 67c89.333 0 155.666 -21.667 198.999 -65c44 -42.667 66 -127.667 66 -255c0 -121.333 -20.333 -206 -61 -254c-40 -47.333 -108 -71 -204 -71c-102.667 0 -173.334 25 -212.001 75
c-38 50.667 -57 130.667 -57 240zM166.002 1223c0 -119.333 10.332 -195.001 30.999 -227.001c20.667 -31.333 55.334 -47 104.001 -47c46.667 0 80 17 100 51c20.667 34.667 31 99.334 31 194.001c0 86 -9.33301 147 -28 183c-18 36.667 -53 55 -105 55
c-50 0 -84.667 -15 -104 -45s-29 -84.667 -29 -164z" />
    <glyph glyph-name="guillemotright" unicode="&#xbb;" horiz-adv-x="909" 
d="M496 558l-193 -400h-159l169 397l-169 403h156zM848 558l-193 -400h-159l169 397l-169 403h156z" />
    <glyph glyph-name="onequarter" unicode="&#xbc;" horiz-adv-x="1364" 
d="M96 1318c22 9.33301 75.333 44.667 160 106h127v-848h-143v708l-144 -84v118zM135 -51.999l896 1535h128l-896 -1535h-128zM719 304.001l262 545h202v-534h109v-115h-109v-199h-143v199h-321v104zM850 315.001h190v415v0z" />
    <glyph glyph-name="onehalf" unicode="&#xbd;" horiz-adv-x="1364" 
d="M35 1318c22 9.33301 75.333 44.667 160 106h127v-848h-143v708l-144 -84v118zM74 -51.999l896 1535h128l-896 -1535h-128zM792 109.001l213 255c93.333 110 140 202.667 140 278c0 70 -39 105 -117 105c-59.333 0 -89 -41.667 -89 -125v0v0h-143v0v24
c0 64 20.667 116 62 156s96.333 60 165 60c176.667 0 265 -73.667 265 -221c0 -90 -32 -174.333 -96 -253l-229 -278v0h329v-109h-500v108z" />
    <glyph glyph-name="threequarters" unicode="&#xbe;" horiz-adv-x="1364" 
d="M14 814l131 -0.000976562v0c0 -94 39 -141 117 -141c94 0 141 45 141 135c0 65.333 -14.667 109.333 -44 132c-28.667 22.667 -79.667 34 -153 34v0v103h35c94.667 0 142 45 142 135c0 81.333 -39 122 -117 122c-72.667 0 -109 -45.667 -109 -137h-129v40
c0 65.333 19.667 115 59 149s98.666 51 177.999 51c88.667 0 154.334 -18.667 197.001 -56c42.667 -36.667 64 -89.667 64 -159c0 -110 -66 -176.333 -198 -199c72.667 -11.333 127 -32.666 163 -63.999c36.667 -30.667 55 -82.667 55 -156c0 -74 -25.333 -133.333 -76 -178
c-50 -44.667 -121.667 -67 -215 -67c-68 0 -125.333 16.667 -172 50c-46 34 -69 89 -69 165v41zM207 -52.001l896 1535h128l-896 -1535h-128zM750 303.999l262 545h202v-534h109v-115h-109v-199h-143v199h-321v104zM881 314.999h190v415v0z" />
    <glyph glyph-name="questiondown" unicode="&#xbf;" horiz-adv-x="909" 
d="M555 872h-193v213h193v-213zM796 5v-35.9971c0 -258 -119.333 -387 -358 -387c-103.333 0 -184.333 31 -243 93c-58.667 61.333 -88 143.666 -88 246.999v0c0 122 32.333 227 97 315c42 60 81 112.667 117 158s54 100.666 54 165.999v151h168v-225
c0 -54 -21.667 -111.333 -65 -172c-44 -60.667 -75.667 -107.667 -95 -141c-55.333 -90.667 -83 -175.334 -83 -254.001c0 -54 13.667 -101 41 -141c26.667 -40.667 62.667 -61 108 -61c102.667 0 154 81.333 154 244v43h193z" />
    <glyph glyph-name="Agrave" unicode="&#xc0;" horiz-adv-x="1251" 
d="M30 0l464 1472h241l480 -1472h-211l-106 353v0h-570v0l-109 -353h-189zM377 517h468v0l-238 788v0zM632 1663v0zM1183 0v0zM0 1503v0zM669 1663l-262 288h224l176 -288h-138zM632 1663v0z" />
    <glyph glyph-name="Aacute" unicode="&#xc1;" horiz-adv-x="1251" 
d="M30 0l464 1472h241l480 -1472h-211l-106 353v0h-570v0l-109 -353h-189zM377 517h468v0l-238 788v0zM632 1663v0zM1183 0v0zM0 1503v0zM457 1663l176 288h224l-262 -288h-138zM632 1663v0z" />
    <glyph glyph-name="Acircumflex" unicode="&#xc2;" horiz-adv-x="1251" 
d="M30 0l464 1472h241l480 -1472h-211l-106 353v0h-570v0l-109 -353h-189zM377 517h468v0l-238 788v0zM632 1663v0zM1183 0v0zM0 1503v0zM322 1663l208 288h189l208 -288h-165l-138 192v0l-137 -192h-165zM632 1663v0z" />
    <glyph glyph-name="Atilde" unicode="&#xc3;" horiz-adv-x="1251" 
d="M30 0l464 1472h241l480 -1472h-211l-106 353v0h-570v0l-109 -353h-189zM377 517h468v0l-238 788v0zM632 1663v0zM1183 0v0zM0 1503v0zM278 1657c9.33301 72.667 31.335 127.333 66.002 164s83.667 55 147 55c38.667 0 89 -12.667 151 -38
c62.667 -25.333 107.667 -38 135 -38c32 0 56 8 72 24c16 16.667 25.333 39.667 28 69h103c-4.66699 -63.333 -27 -116.333 -67 -159s-88 -64 -144 -64c-33.333 0 -84.333 12.667 -153 38s-117.334 38 -146.001 38c-25.333 0 -47.333 -9 -66 -27
s-29.334 -38.667 -32.001 -62h-94zM632.002 1663v0z" />
    <glyph glyph-name="Adieresis" unicode="&#xc4;" horiz-adv-x="1251" 
d="M30 0l464 1472h241l480 -1472h-211l-106 353v0h-570v0l-109 -353h-189zM377 517h468v0l-238 788v0zM632 1663v0zM1183 0v0zM0 1503v0zM361 1892h189v-213h-189v213zM710 1892h189v-213h-189v213zM632 1663v0z" />
    <glyph glyph-name="Aring" unicode="&#xc5;" horiz-adv-x="1251" 
d="M30 0l464 1472h241l480 -1472h-211l-106 353v0h-570v0l-109 -353h-189zM377 517h468v0l-238 788v0zM632 1663v0zM1183 0v0zM0 1503v0zM420 1858c0 57.333 20.333 106.332 61 146.999c41.333 40.667 91.333 61 150 61c60.667 0 110.667 -20 150 -60
c40 -39.333 60 -89.666 60 -150.999c0 -58 -20.667 -107.333 -62 -148c-41.333 -40 -91 -60 -149 -60s-107.667 18.667 -149 56c-40.667 37.333 -61 89 -61 155zM505 1856c0 -35.333 12.001 -65.334 36.001 -90.001c24.667 -24 54.667 -36 90 -36c34.667 0 64 12 88 36
c24.667 24.667 37 55 37 91c0 34.667 -12.333 64.334 -37 89.001s-54.334 37 -89.001 37c-35.333 0 -65 -12.333 -89 -37s-36 -54.667 -36 -90zM632.001 1663v0z" />
    <glyph glyph-name="AE" unicode="&#xc6;" horiz-adv-x="1706" 
d="M30 0l656 1472v0h910v-164h-606v0l63 -469v0h528v-164h-501v0l72 -511v0h462v-164h-624l-51 353v0h-557v0l-153 -353h-199zM459 517h458v0l-111 800v0z" />
    <glyph glyph-name="Ccedilla" unicode="&#xc7;" horiz-adv-x="1139" 
d="M838 433l192.998 -0.000976562c0 -160 -35 -277.333 -105 -352c-69.333 -74.667 -176.666 -112 -321.999 -112c-144.667 0 -256.667 39.667 -336 119c-78.667 80 -118 230.333 -118 451v437c0 351.333 155.333 527 466 527c266 0 399 -113 399 -339v-93h-193v49
c0 149.333 -71.667 224 -215 224c-78.667 0 -142.334 -25 -191.001 -75s-73 -160.333 -73 -331v-425c0 -129.333 18 -226 54 -290c36.667 -63.333 106.334 -95 209.001 -95c72.667 0 129.334 27 170.001 81c41.333 54.667 62 129.334 62 224.001zM615.998 1663v0z
M582.998 -0.000976562v0zM391.998 -406.001l35.001 83c50 -20.667 93.667 -31 131 -31c73.333 0 110 25 110 75c0 56 -32.333 84 -97 84c-4.66699 0 -31.334 -5.66699 -80.001 -17l-35 39l130 173h97l-100 -129c24.667 11.333 48.667 17 72 17c50 0 90.667 -14.333 122 -43
c31.333 -28 47 -65.333 47 -112c0 -54.667 -22.333 -99 -67 -133c-44 -34 -99.333 -51 -166 -51c-66 0 -132.333 15 -199 45zM582.999 -0.000976562v0z" />
    <glyph glyph-name="Egrave" unicode="&#xc8;" 
d="M165 0v1472h769v-164h-576v-469h534v-164h-534v-511h588v-164h-781zM513 1663v0zM889 0v0zM0 1503v0zM550 1663l-262 288h224l176 -288h-138zM513 1663v0z" />
    <glyph glyph-name="Eacute" unicode="&#xc9;" 
d="M165 0v1472h769v-164h-576v-469h534v-164h-534v-511h588v-164h-781zM513 1663v0zM889 0v0zM0 1503v0zM338 1663l176 288h224l-262 -288h-138zM513 1663v0z" />
    <glyph glyph-name="Ecircumflex" unicode="&#xca;" 
d="M165 0v1472h769v-164h-576v-469h534v-164h-534v-511h588v-164h-781zM513 1663v0zM889 0v0zM0 1503v0zM203 1663l208 288h189l208 -288h-165l-138 192v0l-137 -192h-165zM513 1663v0z" />
    <glyph glyph-name="Edieresis" unicode="&#xcb;" 
d="M165 0v1472h769v-164h-576v-469h534v-164h-534v-511h588v-164h-781zM513 1663v0zM889 0v0zM0 1503v0zM242 1892h189v-213h-189v213zM591 1892h189v-213h-189v213zM513 1663v0z" />
    <glyph glyph-name="Igrave" unicode="&#xcc;" horiz-adv-x="569" 
d="M189 1472h193v-1472h-193v1472zM286 1663v0zM328 0v0zM0 1503v0zM323 1663l-262 288h224l176 -288h-138zM286 1663v0z" />
    <glyph glyph-name="Iacute" unicode="&#xcd;" horiz-adv-x="569" 
d="M189 1472h193v-1472h-193v1472zM286 1663v0zM328 0v0zM0 1503v0zM111 1663l176 288h224l-262 -288h-138zM286 1663v0z" />
    <glyph glyph-name="Icircumflex" unicode="&#xce;" horiz-adv-x="569" 
d="M189 1472h193v-1472h-193v1472zM286 1663v0zM328 0v0zM0 1503v0zM-24 1663l208 288h189l208 -288h-165l-138 192v0l-137 -192h-165zM286 1663v0z" />
    <glyph glyph-name="Idieresis" unicode="&#xcf;" horiz-adv-x="569" 
d="M189 1472h193v-1472h-193v1472zM286 1663v0zM328 0v0zM0 1503v0zM15 1892h189v-213h-189v213zM364 1892h189v-213h-189v213zM286 1663v0z" />
    <glyph glyph-name="Eth" unicode="&#xd0;" horiz-adv-x="1251" 
d="M171 859l-0.00195312 612.999h454c140.667 0 249.334 -35.667 326.001 -107c99.333 -93.333 149 -291.666 149 -594.999c0 -333.333 -45 -545 -135 -635c-89.333 -90 -224.666 -135 -405.999 -135h-388v744h-144v115h144zM363.998 858.999l304 -0.00195312v-115h-304
v-580h191c138 0 233.333 37 286 111c44 62.667 66 166.334 66 311.001v329c0 142.667 -25.667 245.334 -77 308.001c-46 56.667 -116.333 85 -211 85h-255v-449z" />
    <glyph glyph-name="Ntilde" unicode="&#xd1;" horiz-adv-x="1366" 
d="M177 1472h268l580 -1271v0v1271h168v-1472h-259l-589 1282v0v-1282h-168v1472zM705 1663v0zM665 0v0zM0 1503v0zM351 1657c9.33301 72.667 31.335 127.333 66.002 164s83.667 55 147 55c38.667 0 89 -12.667 151 -38c62.667 -25.333 107.667 -38 135 -38c32 0 56 8 72 24
c16 16.667 25.333 39.667 28 69h103c-4.66699 -63.333 -27 -116.333 -67 -159s-88 -64 -144 -64c-33.333 0 -84.333 12.667 -153 38s-117.334 38 -146.001 38c-25.333 0 -47.333 -9 -66 -27s-29.334 -38.667 -32.001 -62h-94zM705.002 1663v0z" />
    <glyph glyph-name="Ograve" unicode="&#xd2;" horiz-adv-x="1251" 
d="M159 532l-0.000976562 484.999c0 154 39.333 273.333 118 358c78.667 85.333 194.334 128 347.001 128c152 0 267.333 -42.667 346 -128c78.667 -84.667 118 -202.667 118 -354v-489c0 -192.667 -37 -334.667 -111 -426s-190.667 -137 -350 -137
c-168.667 0 -289 47 -361 141c-71.333 94.667 -107 235.334 -107 422.001zM351.999 1021l-0.000976562 -506c0 -130.667 19.333 -228 58 -292c38.667 -63.333 110 -95 214 -95c94.667 0 163.334 29.333 206.001 88c43.333 58.667 65 161 65 307v508
c0 103.333 -24.333 181.333 -73 234s-115 79 -199 79c-180.667 0 -271 -107.667 -271 -323zM633.998 1663v0zM670.998 1663l-262 288h224l176 -288h-138zM633.998 1663v0z" />
    <glyph glyph-name="Oacute" unicode="&#xd3;" horiz-adv-x="1251" 
d="M159 532l-0.000976562 484.999c0 154 39.333 273.333 118 358c78.667 85.333 194.334 128 347.001 128c152 0 267.333 -42.667 346 -128c78.667 -84.667 118 -202.667 118 -354v-489c0 -192.667 -37 -334.667 -111 -426s-190.667 -137 -350 -137
c-168.667 0 -289 47 -361 141c-71.333 94.667 -107 235.334 -107 422.001zM351.999 1021l-0.000976562 -506c0 -130.667 19.333 -228 58 -292c38.667 -63.333 110 -95 214 -95c94.667 0 163.334 29.333 206.001 88c43.333 58.667 65 161 65 307v508
c0 103.333 -24.333 181.333 -73 234s-115 79 -199 79c-180.667 0 -271 -107.667 -271 -323zM633.998 1663v0zM458.998 1663l176 288h224l-262 -288h-138zM633.998 1663v0z" />
    <glyph glyph-name="Ocircumflex" unicode="&#xd4;" horiz-adv-x="1251" 
d="M159 532l-0.000976562 484.999c0 154 39.333 273.333 118 358c78.667 85.333 194.334 128 347.001 128c152 0 267.333 -42.667 346 -128c78.667 -84.667 118 -202.667 118 -354v-489c0 -192.667 -37 -334.667 -111 -426s-190.667 -137 -350 -137
c-168.667 0 -289 47 -361 141c-71.333 94.667 -107 235.334 -107 422.001zM351.999 1021l-0.000976562 -506c0 -130.667 19.333 -228 58 -292c38.667 -63.333 110 -95 214 -95c94.667 0 163.334 29.333 206.001 88c43.333 58.667 65 161 65 307v508
c0 103.333 -24.333 181.333 -73 234s-115 79 -199 79c-180.667 0 -271 -107.667 -271 -323zM633.998 1663v0zM323.998 1663l208 288h189l208 -288h-165l-138 192v0l-137 -192h-165zM633.998 1663v0z" />
    <glyph glyph-name="Otilde" unicode="&#xd5;" horiz-adv-x="1251" 
d="M159 532l-0.000976562 484.999c0 154 39.333 273.333 118 358c78.667 85.333 194.334 128 347.001 128c152 0 267.333 -42.667 346 -128c78.667 -84.667 118 -202.667 118 -354v-489c0 -192.667 -37 -334.667 -111 -426s-190.667 -137 -350 -137
c-168.667 0 -289 47 -361 141c-71.333 94.667 -107 235.334 -107 422.001zM351.999 1021l-0.000976562 -506c0 -130.667 19.333 -228 58 -292c38.667 -63.333 110 -95 214 -95c94.667 0 163.334 29.333 206.001 88c43.333 58.667 65 161 65 307v508
c0 103.333 -24.333 181.333 -73 234s-115 79 -199 79c-180.667 0 -271 -107.667 -271 -323zM633.998 1663v0zM279.998 1657c9.33301 72.667 31.335 127.333 66.002 164s83.667 55 147 55c38.667 0 89 -12.667 151 -38c62.667 -25.333 107.667 -38 135 -38c32 0 56 8 72 24
c16 16.667 25.333 39.667 28 69h103c-4.66699 -63.333 -27 -116.333 -67 -159s-88 -64 -144 -64c-33.333 0 -84.333 12.667 -153 38s-117.334 38 -146.001 38c-25.333 0 -47.333 -9 -66 -27s-29.334 -38.667 -32.001 -62h-94zM634 1663v0z" />
    <glyph glyph-name="Odieresis" unicode="&#xd6;" horiz-adv-x="1251" 
d="M159 532l-0.000976562 484.999c0 154 39.333 273.333 118 358c78.667 85.333 194.334 128 347.001 128c152 0 267.333 -42.667 346 -128c78.667 -84.667 118 -202.667 118 -354v-489c0 -192.667 -37 -334.667 -111 -426s-190.667 -137 -350 -137
c-168.667 0 -289 47 -361 141c-71.333 94.667 -107 235.334 -107 422.001zM351.999 1021l-0.000976562 -506c0 -130.667 19.333 -228 58 -292c38.667 -63.333 110 -95 214 -95c94.667 0 163.334 29.333 206.001 88c43.333 58.667 65 161 65 307v508
c0 103.333 -24.333 181.333 -73 234s-115 79 -199 79c-180.667 0 -271 -107.667 -271 -323zM633.998 1663v0zM362.998 1892h189v-213h-189v213zM711.998 1892h189v-213h-189v213zM633.998 1663v0z" />
    <glyph glyph-name="multiply" unicode="&#xd7;" 
d="M185 97l-89 89l335 335v0l-335 335l89 89l335 -335v0l335 335l89 -89l-335 -335v0l335 -335l-89 -89l-335 335v0z" />
    <glyph glyph-name="Oslash" unicode="&#xd8;" horiz-adv-x="1251" 
d="M985 1357l106 161l72 -46l-126 -192v0c34 -71.333 51 -158 51 -260v-489c0 -194.667 -36.333 -337 -109 -427s-190 -135 -352 -135c-165.333 0 -285.333 46 -360 138v0l-114 -174l-69 46l129 211v0c-36 84 -54 199.667 -54 347v484c0 152.667 39.333 271 118 355
c78.667 84.667 194.334 127 347.001 127c161.333 0 281.666 -48.667 360.999 -146zM870 1181c-39.333 108.667 -121.667 163 -247 163c-180.667 0 -271 -108.333 -271 -325v-506c0 -43.333 2 -81.333 6 -114v0zM894.999 1059l-513.001 -778v0
c34.667 -102 114.667 -153 240 -153c100.667 0 171.334 29 212.001 87s61 161 61 309v535z" />
    <glyph glyph-name="Ugrave" unicode="&#xd9;" horiz-adv-x="1251" 
d="M159 1472h193.002v-956c0 -140.667 21.667 -240.667 65 -300c43.333 -58.667 111.333 -88 204 -88c95.333 0 164.666 29 207.999 87c44 58 66 158.667 66 302v955h193v-934c0 -202 -39 -347.333 -117 -436c-77.333 -88.667 -192 -133 -344 -133
c-158.667 0 -276.334 44.333 -353.001 133s-115 234 -115 436v934zM631.002 1663v0zM732.002 0v0zM0.00195312 1503v0zM668.002 1663l-262 288h224l176 -288h-138zM631.002 1663v0z" />
    <glyph glyph-name="Uacute" unicode="&#xda;" horiz-adv-x="1251" 
d="M159 1472h193.002v-956c0 -140.667 21.667 -240.667 65 -300c43.333 -58.667 111.333 -88 204 -88c95.333 0 164.666 29 207.999 87c44 58 66 158.667 66 302v955h193v-934c0 -202 -39 -347.333 -117 -436c-77.333 -88.667 -192 -133 -344 -133
c-158.667 0 -276.334 44.333 -353.001 133s-115 234 -115 436v934zM631.002 1663v0zM732.002 0v0zM0.00195312 1503v0zM456.002 1663l176 288h224l-262 -288h-138zM631.002 1663v0z" />
    <glyph glyph-name="Ucircumflex" unicode="&#xdb;" horiz-adv-x="1251" 
d="M159 1472h193.002v-956c0 -140.667 21.667 -240.667 65 -300c43.333 -58.667 111.333 -88 204 -88c95.333 0 164.666 29 207.999 87c44 58 66 158.667 66 302v955h193v-934c0 -202 -39 -347.333 -117 -436c-77.333 -88.667 -192 -133 -344 -133
c-158.667 0 -276.334 44.333 -353.001 133s-115 234 -115 436v934zM631.002 1663v0zM732.002 0v0zM0.00195312 1503v0zM321.002 1663l208 288h189l208 -288h-165l-138 192v0l-137 -192h-165zM631.002 1663v0z" />
    <glyph glyph-name="Udieresis" unicode="&#xdc;" horiz-adv-x="1251" 
d="M159 1472h193.002v-956c0 -140.667 21.667 -240.667 65 -300c43.333 -58.667 111.333 -88 204 -88c95.333 0 164.666 29 207.999 87c44 58 66 158.667 66 302v955h193v-934c0 -202 -39 -347.333 -117 -436c-77.333 -88.667 -192 -133 -344 -133
c-158.667 0 -276.334 44.333 -353.001 133s-115 234 -115 436v934zM631.002 1663v0zM732.002 0v0zM0.00195312 1503v0zM360.002 1892h189v-213h-189v213zM709.002 1892h189v-213h-189v213zM631.002 1663v0z" />
    <glyph glyph-name="Yacute" unicode="&#xdd;" 
d="M16 1472h211l293 -713v0l300 713h189l-400 -908v-564h-193v564zM575 1663v0zM0 1503v0zM400 1663l176 288h224l-262 -288h-138zM575 1663v0z" />
    <glyph glyph-name="Thorn" unicode="&#xde;" horiz-adv-x="1139" 
d="M382 1227h255.999c122.667 0 220 -33.667 292 -101c72 -66.667 108 -174.334 108 -323.001c0 -119.333 -35.667 -216.666 -107 -291.999c-71.333 -74.667 -170.666 -112 -297.999 -112h-251v-399h-193v1472h193v-245zM381.999 1063v-499.999h210
c83.333 0 146.333 22.667 189 68c42.667 46 64 106.667 64 182c0 79.333 -19.333 140.666 -58 183.999c-38.667 44 -93 66 -163 66h-242z" />
    <glyph glyph-name="germandbls" unicode="&#xdf;" horiz-adv-x="1139" 
d="M144 0l0.000976562 1178c0 101.333 39 180.333 117 237c78.667 57.333 172 86 280 86c118 0 210.667 -25.667 278 -77s101 -126.666 101 -225.999c0 -72 -26.667 -134.333 -80 -187l-60 -62c-20.667 -20 -39.334 -42 -56.001 -66c-16.667 -23.333 -25 -45.333 -25 -66
c0 -37.333 23.333 -75.333 70 -114l112 -87c100.667 -80.667 151 -183 151 -307c0 -220.667 -107 -331 -321 -331c-204 0 -306 92.667 -306 278h173c0 -94 44.333 -141 133 -141c94.667 0 142 61.667 142 185c0 77.333 -41.667 149 -125 215l-85 68
c-45.333 32.667 -77.333 68 -96 106c-18 38.667 -27 78 -27 118v0c2.66699 51.333 38.334 113.333 107.001 186c69.333 72.667 104 134.667 104 186c0 58 -17.667 103.333 -53 136c-34.667 32.667 -80.334 49 -137.001 49c-78 0 -135.667 -17.667 -173 -53
c-37.333 -34.667 -56 -100.334 -56 -197.001v-1114h-168z" />
    <glyph glyph-name="agrave" unicode="&#xe0;" 
d="M158 758c4 202.667 119.667 304.001 347 304.001s341 -105 341 -315v-511c0 -82.667 8 -161.334 24 -236.001h-187v155c-48 -118 -134.333 -177 -259 -177c-193.333 0 -290 113 -290 339c0 105.333 34.667 186.333 104 243s172.666 85 309.999 85h130v89
c0 134 -59 201 -177 201c-47.333 0 -86.666 -14.667 -117.999 -44c-30.667 -28.667 -46 -73 -46 -133h-179zM678 518.001h-37.001c-127.333 0 -215.666 -16.667 -264.999 -50s-74 -86.333 -74 -159c0 -60 14.667 -107.333 44 -142s68 -52 116 -52c68 0 121 26.667 159 80
s57 161 57 323v0zM513.999 1190v0zM823.999 0.000976562v0zM550.999 1190l-262 288h224l176 -288h-138zM513.999 1190v0z" />
    <glyph glyph-name="aacute" unicode="&#xe1;" 
d="M158 758c4 202.667 119.667 304.001 347 304.001s341 -105 341 -315v-511c0 -82.667 8 -161.334 24 -236.001h-187v155c-48 -118 -134.333 -177 -259 -177c-193.333 0 -290 113 -290 339c0 105.333 34.667 186.333 104 243s172.666 85 309.999 85h130v89
c0 134 -59 201 -177 201c-47.333 0 -86.666 -14.667 -117.999 -44c-30.667 -28.667 -46 -73 -46 -133h-179zM678 518.001h-37.001c-127.333 0 -215.666 -16.667 -264.999 -50s-74 -86.333 -74 -159c0 -60 14.667 -107.333 44 -142s68 -52 116 -52c68 0 121 26.667 159 80
s57 161 57 323v0zM513.999 1190v0zM823.999 0.000976562v0zM338.999 1190l176 288h224l-262 -288h-138zM513.999 1190v0z" />
    <glyph glyph-name="acircumflex" unicode="&#xe2;" 
d="M158 758c4 202.667 119.667 304.001 347 304.001s341 -105 341 -315v-511c0 -82.667 8 -161.334 24 -236.001h-187v155c-48 -118 -134.333 -177 -259 -177c-193.333 0 -290 113 -290 339c0 105.333 34.667 186.333 104 243s172.666 85 309.999 85h130v89
c0 134 -59 201 -177 201c-47.333 0 -86.666 -14.667 -117.999 -44c-30.667 -28.667 -46 -73 -46 -133h-179zM678 518.001h-37.001c-127.333 0 -215.666 -16.667 -264.999 -50s-74 -86.333 -74 -159c0 -60 14.667 -107.333 44 -142s68 -52 116 -52c68 0 121 26.667 159 80
s57 161 57 323v0zM513.999 1190v0zM823.999 0.000976562v0zM203.999 1190l208 288h189l208 -288h-165l-138 192v0l-137 -192h-165zM513.999 1190v0z" />
    <glyph glyph-name="atilde" unicode="&#xe3;" 
d="M158 758c4 202.667 119.667 304.001 347 304.001s341 -105 341 -315v-511c0 -82.667 8 -161.334 24 -236.001h-187v155c-48 -118 -134.333 -177 -259 -177c-193.333 0 -290 113 -290 339c0 105.333 34.667 186.333 104 243s172.666 85 309.999 85h130v89
c0 134 -59 201 -177 201c-47.333 0 -86.666 -14.667 -117.999 -44c-30.667 -28.667 -46 -73 -46 -133h-179zM678 518.001h-37.001c-127.333 0 -215.666 -16.667 -264.999 -50s-74 -86.333 -74 -159c0 -60 14.667 -107.333 44 -142s68 -52 116 -52c68 0 121 26.667 159 80
s57 161 57 323v0zM513.999 1190v0zM823.999 0.000976562v0zM159.999 1184c9.33301 72.667 31.335 127.333 66.002 164s83.667 55 147 55c38.667 0 89 -12.667 151 -38c62.667 -25.333 107.667 -38 135 -38c32 0 56 8 72 24c16 16.667 25.333 39.667 28 69h103
c-4.66699 -63.333 -27 -116.333 -67 -159s-88 -64 -144 -64c-33.333 0 -84.333 12.667 -153 38s-117.334 38 -146.001 38c-25.333 0 -47.333 -9 -66 -27s-29.334 -38.667 -32.001 -62h-94zM514.001 1190v0z" />
    <glyph glyph-name="adieresis" unicode="&#xe4;" 
d="M158 758c4 202.667 119.667 304.001 347 304.001s341 -105 341 -315v-511c0 -82.667 8 -161.334 24 -236.001h-187v155c-48 -118 -134.333 -177 -259 -177c-193.333 0 -290 113 -290 339c0 105.333 34.667 186.333 104 243s172.666 85 309.999 85h130v89
c0 134 -59 201 -177 201c-47.333 0 -86.666 -14.667 -117.999 -44c-30.667 -28.667 -46 -73 -46 -133h-179zM678 518.001h-37.001c-127.333 0 -215.666 -16.667 -264.999 -50s-74 -86.333 -74 -159c0 -60 14.667 -107.333 44 -142s68 -52 116 -52c68 0 121 26.667 159 80
s57 161 57 323v0zM513.999 1190v0zM823.999 0.000976562v0zM242.999 1419h189v-213h-189v213zM591.999 1419h189v-213h-189v213zM513.999 1190v0z" />
    <glyph glyph-name="aring" unicode="&#xe5;" 
d="M158 758c4 202.667 119.667 304.001 347 304.001s341 -105 341 -315v-511c0 -82.667 8 -161.334 24 -236.001h-187v155c-48 -118 -134.333 -177 -259 -177c-193.333 0 -290 113 -290 339c0 105.333 34.667 186.333 104 243s172.666 85 309.999 85h130v89
c0 134 -59 201 -177 201c-47.333 0 -86.666 -14.667 -117.999 -44c-30.667 -28.667 -46 -73 -46 -133h-179zM678 518.001h-37.001c-127.333 0 -215.666 -16.667 -264.999 -50s-74 -86.333 -74 -159c0 -60 14.667 -107.333 44 -142s68 -52 116 -52c68 0 121 26.667 159 80
s57 161 57 323v0zM513.999 1190v0zM823.999 0.000976562v0zM301.999 1385c0 57.333 20.333 106.332 61 146.999c41.333 40.667 91.333 61 150 61c60.667 0 110.667 -20 150 -60c40 -39.333 60 -89.666 60 -150.999c0 -58 -20.667 -107.333 -62 -148
c-41.333 -40 -91 -60 -149 -60s-107.667 18.667 -149 56c-40.667 37.333 -61 89 -61 155zM386.999 1383c0 -35.333 12.001 -65.334 36.001 -90.001c24.667 -24 54.667 -36 90 -36c34.667 0 64 12 88 36c24.667 24.667 37 55 37 91c0 34.667 -12.333 64.334 -37 89.001
s-54.334 37 -89.001 37c-35.333 0 -65 -12.333 -89 -37s-36 -54.667 -36 -90zM514 1190v0z" />
    <glyph glyph-name="ae" unicode="&#xe6;" horiz-adv-x="1593" 
d="M805 905c30.667 104.667 123.334 157.001 278.001 157.001c138 0 234 -42.667 288 -128s81 -198.333 81 -339c0 -10 -1.66699 -44 -5 -102h-571v0v0v0v0v0c0 -142 14.667 -240.667 44 -296c29.333 -54.667 78.333 -82 147 -82c120 0 185 71.667 195 215h179
c0 -121.333 -31.667 -210.333 -95 -267c-62.667 -56.667 -152.667 -85 -270 -85c-84.667 0 -154.334 17 -209.001 51c-54.667 34.667 -89 79.667 -103 135c-52.667 -124 -158 -186 -316 -186c-100.667 0 -177.667 26.667 -231 80s-80 129.333 -80 228
c0 101.333 28 178.666 84 231.999c56 54 161.333 85.333 316 94l160 8v0v103c0 70.667 -15.667 123.667 -47 159s-78.333 53 -141 53c-61.333 0 -105 -15.333 -131 -46c-25.333 -30 -38 -66.667 -38 -110v-21h-179c4 202.667 119 304 345 304
c164 0 263.667 -52.333 299 -157zM323 285.001c0 -113.333 54 -170.001 162 -170.001c74 0 127.667 27.333 161 82c34 55.333 51 135 51 239v57v0h-74c-108.667 -2 -186 -19 -232 -51c-45.333 -31.333 -68 -83.666 -68 -156.999zM876 620h397v0c0 116 -18 197.333 -54 244
c-36 47.333 -86.333 71 -151 71c-128 0 -192 -105 -192 -315z" />
    <glyph glyph-name="ccedilla" unicode="&#xe7;" 
d="M688 346l178.999 0.000976562c0 -116 -32 -206.333 -96 -271c-63.333 -64.667 -140.333 -97 -231 -97c-152 0 -254.667 45 -308 135s-80 221.333 -80 394c0 202 29.333 345 88 429s160 126 304 126c98 0 175 -27.333 231 -82s84 -144.667 84 -270v0v0h-179v0v0
c0 68 -12 120.667 -36 158c-24 38 -58.667 57 -104 57c-73.333 0 -126.666 -26.333 -159.999 -79c-32.667 -52.667 -49 -143.334 -49 -272.001c0 -182 15 -304 45 -366s83 -93 159 -93c102 0.666992 153 77.667 153 231zM546.999 1190v0zM458.999 0.000976562v0z
M267.999 -405.999l35.001 83c50 -20.667 93.667 -31 131 -31c73.333 0 110 25 110 75c0 56 -32.333 84 -97 84c-4.66699 0 -31.334 -5.66699 -80.001 -17l-35 39l130 173h97l-100 -129c24.667 11.333 48.667 17 72 17c50 0 90.667 -14.333 122 -43
c31.333 -28 47 -65.333 47 -112c0 -54.667 -22.333 -99 -67 -133c-44 -34 -99.333 -51 -166 -51c-66 0 -132.333 15 -199 45zM459 0.000976562v0z" />
    <glyph glyph-name="egrave" unicode="&#xe8;" 
d="M310 466c0 -134.667 16.667 -226.999 50 -276.999c33.333 -49.333 85.333 -74 156 -74c51.333 0 93 18 125 54c32 36.667 49.667 85 53 145h184c0 -104.667 -31.333 -187 -94 -247c-62.667 -59.333 -150 -89 -262 -89c-160 0 -265.333 49.333 -316 148
c-50 99.333 -75 226.333 -75 381c0 206.667 29.667 350.667 89 432c60 82 161 123 303 123c134.667 0 228.667 -37.667 282 -113c54 -74.667 81 -199.334 81 -374.001v-109h-576zM310 593.001l397.001 0.000976562v0c0 143.333 -21 240.666 -63 291.999
c-26.667 33.333 -69.334 50 -128.001 50c-74.667 0 -127.667 -25 -159 -75s-47 -139 -47 -267zM506.001 1190v0zM579.001 0.00195312v0zM543.001 1190l-262 288h224l176 -288h-138zM506.001 1190v0z" />
    <glyph glyph-name="eacute" unicode="&#xe9;" 
d="M310 466c0 -134.667 16.667 -226.999 50 -276.999c33.333 -49.333 85.333 -74 156 -74c51.333 0 93 18 125 54c32 36.667 49.667 85 53 145h184c0 -104.667 -31.333 -187 -94 -247c-62.667 -59.333 -150 -89 -262 -89c-160 0 -265.333 49.333 -316 148
c-50 99.333 -75 226.333 -75 381c0 206.667 29.667 350.667 89 432c60 82 161 123 303 123c134.667 0 228.667 -37.667 282 -113c54 -74.667 81 -199.334 81 -374.001v-109h-576zM310 593.001l397.001 0.000976562v0c0 143.333 -21 240.666 -63 291.999
c-26.667 33.333 -69.334 50 -128.001 50c-74.667 0 -127.667 -25 -159 -75s-47 -139 -47 -267zM506.001 1190v0zM579.001 0.00195312v0zM331.001 1190l176 288h224l-262 -288h-138zM506.001 1190v0z" />
    <glyph glyph-name="ecircumflex" unicode="&#xea;" 
d="M310 466c0 -134.667 16.667 -226.999 50 -276.999c33.333 -49.333 85.333 -74 156 -74c51.333 0 93 18 125 54c32 36.667 49.667 85 53 145h184c0 -104.667 -31.333 -187 -94 -247c-62.667 -59.333 -150 -89 -262 -89c-160 0 -265.333 49.333 -316 148
c-50 99.333 -75 226.333 -75 381c0 206.667 29.667 350.667 89 432c60 82 161 123 303 123c134.667 0 228.667 -37.667 282 -113c54 -74.667 81 -199.334 81 -374.001v-109h-576zM310 593.001l397.001 0.000976562v0c0 143.333 -21 240.666 -63 291.999
c-26.667 33.333 -69.334 50 -128.001 50c-74.667 0 -127.667 -25 -159 -75s-47 -139 -47 -267zM506.001 1190v0zM579.001 0.00195312v0zM196.001 1190l208 288h189l208 -288h-165l-138 192v0l-137 -192h-165zM506.001 1190v0z" />
    <glyph glyph-name="edieresis" unicode="&#xeb;" 
d="M310 466c0 -134.667 16.667 -226.999 50 -276.999c33.333 -49.333 85.333 -74 156 -74c51.333 0 93 18 125 54c32 36.667 49.667 85 53 145h184c0 -104.667 -31.333 -187 -94 -247c-62.667 -59.333 -150 -89 -262 -89c-160 0 -265.333 49.333 -316 148
c-50 99.333 -75 226.333 -75 381c0 206.667 29.667 350.667 89 432c60 82 161 123 303 123c134.667 0 228.667 -37.667 282 -113c54 -74.667 81 -199.334 81 -374.001v-109h-576zM310 593.001l397.001 0.000976562v0c0 143.333 -21 240.666 -63 291.999
c-26.667 33.333 -69.334 50 -128.001 50c-74.667 0 -127.667 -25 -159 -75s-47 -139 -47 -267zM506.001 1190v0zM579.001 0.00195312v0zM235.001 1419h189v-213h-189v213zM584.001 1419h189v-213h-189v213zM506.001 1190v0z" />
    <glyph glyph-name="igrave" unicode="&#xec;" horiz-adv-x="455" 
d="M144 1040h168v-1040h-168v1040zM230 1190v0zM0 1062v0zM267 1190l-262 288h224l176 -288h-138zM230 1190v0z" />
    <glyph glyph-name="iacute" unicode="&#xed;" horiz-adv-x="455" 
d="M144 1040h168v-1040h-168v1040zM230 1190v0zM0 1062v0zM55 1190l176 288h224l-262 -288h-138zM230 1190v0z" />
    <glyph glyph-name="icircumflex" unicode="&#xee;" horiz-adv-x="455" 
d="M144 1040h168v-1040h-168v1040zM230 1190v0zM0 1062v0zM-80 1190l208 288h189l208 -288h-165l-138 192v0l-137 -192h-165zM230 1190v0z" />
    <glyph glyph-name="idieresis" unicode="&#xef;" horiz-adv-x="455" 
d="M144 1040h168v-1040h-168v1040zM230 1190v0zM0 1062v0zM-41 1419h189v-213h-189v213zM308 1419h189v-213h-189v213zM230 1190v0z" />
    <glyph glyph-name="eth" unicode="&#xf0;" 
d="M386 1327c-53.333 42.667 -110.668 80.001 -172.001 112.001l113 97c71.333 -34 139 -77 203 -129v0l194 111l60 -67l-190 -108v0c117.333 -127.333 198.333 -250.333 243 -369c45.333 -118.667 68 -276.667 68 -474c0 -192 -30 -327 -90 -405
c-59.333 -78 -159.333 -117 -300 -117c-148 0 -251.333 41.667 -310 125c-58 83.333 -87 218.666 -87 405.999c0 204.667 28.667 344.334 86 419.001s151.333 112 282 112c66.667 0 128.667 -26.333 186 -79c-29.333 97.333 -100.666 200.666 -213.999 309.999v0l-178 -103
l-63 62zM296.998 574.001c0 -173.333 14.667 -293.332 44 -359.999c29.333 -66 87.333 -99 174 -99c82 0 137.667 33.667 167 101s44 186.666 44 357.999c0 121.333 -17.667 206.333 -53 255c-35.333 49.333 -88.666 74 -159.999 74
c-74.667 0 -129.334 -24.667 -164.001 -74s-52 -134.333 -52 -255z" />
    <glyph glyph-name="ntilde" unicode="&#xf1;" 
d="M315 0l-168.001 0.000976562v857c0 50 -1.66699 111 -5 183h179l-6 -138c30.667 59.333 69.334 100.666 116.001 123.999c47.333 24 103.333 36 168 36c95.333 0 165 -25.333 209 -76c44.667 -50 67 -136.667 67 -260v-726h-168v723c0 134.667 -59.667 202 -179 202
c-142 0 -213 -97.667 -213 -293v-632zM527.999 1190v0zM521.999 0.000976562v0zM173.999 1184c9.33301 72.667 31.335 127.333 66.002 164s83.667 55 147 55c38.667 0 89 -12.667 151 -38c62.667 -25.333 107.667 -38 135 -38c32 0 56 8 72 24
c16 16.667 25.333 39.667 28 69h103c-4.66699 -63.333 -27 -116.333 -67 -159s-88 -64 -144 -64c-33.333 0 -84.333 12.667 -153 38s-117.334 38 -146.001 38c-25.333 0 -47.333 -9 -66 -27s-29.334 -38.667 -32.001 -62h-94zM528.001 1190v0z" />
    <glyph glyph-name="ograve" unicode="&#xf2;" 
d="M118 507c0 215.333 31 361.667 93 439c62.667 77.333 164 116 304 116c146.667 0 248.334 -42.333 305.001 -127c56.667 -84 85 -221 85 -411c0 -203.333 -29.333 -345.333 -88 -426c-58.667 -80 -159.334 -120 -302.001 -120c-138.667 0 -239.667 37.333 -303 112
c-62.667 75.333 -94 214.333 -94 417zM297 574.001c0 -173.333 14.332 -293.333 42.999 -360c28.667 -66 87 -99 175 -99c82 0 137.667 33.667 167 101s44 186.666 44 357.999c0 136.667 -18.667 229.334 -56 278.001s-89.666 73 -156.999 73c-76 0 -131 -26.333 -165 -79
c-34 -52 -51 -142.667 -51 -272zM511.999 1190v0zM548.999 1190l-262 288h224l176 -288h-138zM511.999 1190v0z" />
    <glyph glyph-name="oacute" unicode="&#xf3;" 
d="M118 507c0 215.333 31 361.667 93 439c62.667 77.333 164 116 304 116c146.667 0 248.334 -42.333 305.001 -127c56.667 -84 85 -221 85 -411c0 -203.333 -29.333 -345.333 -88 -426c-58.667 -80 -159.334 -120 -302.001 -120c-138.667 0 -239.667 37.333 -303 112
c-62.667 75.333 -94 214.333 -94 417zM297 574.001c0 -173.333 14.332 -293.333 42.999 -360c28.667 -66 87 -99 175 -99c82 0 137.667 33.667 167 101s44 186.666 44 357.999c0 136.667 -18.667 229.334 -56 278.001s-89.666 73 -156.999 73c-76 0 -131 -26.333 -165 -79
c-34 -52 -51 -142.667 -51 -272zM511.999 1190v0zM336.999 1190l176 288h224l-262 -288h-138zM511.999 1190v0z" />
    <glyph glyph-name="ocircumflex" unicode="&#xf4;" 
d="M118 507c0 215.333 31 361.667 93 439c62.667 77.333 164 116 304 116c146.667 0 248.334 -42.333 305.001 -127c56.667 -84 85 -221 85 -411c0 -203.333 -29.333 -345.333 -88 -426c-58.667 -80 -159.334 -120 -302.001 -120c-138.667 0 -239.667 37.333 -303 112
c-62.667 75.333 -94 214.333 -94 417zM297 574.001c0 -173.333 14.332 -293.333 42.999 -360c28.667 -66 87 -99 175 -99c82 0 137.667 33.667 167 101s44 186.666 44 357.999c0 136.667 -18.667 229.334 -56 278.001s-89.666 73 -156.999 73c-76 0 -131 -26.333 -165 -79
c-34 -52 -51 -142.667 -51 -272zM511.999 1190v0zM201.999 1190l208 288h189l208 -288h-165l-138 192v0l-137 -192h-165zM511.999 1190v0z" />
    <glyph glyph-name="otilde" unicode="&#xf5;" 
d="M118 507c0 215.333 31 361.667 93 439c62.667 77.333 164 116 304 116c146.667 0 248.334 -42.333 305.001 -127c56.667 -84 85 -221 85 -411c0 -203.333 -29.333 -345.333 -88 -426c-58.667 -80 -159.334 -120 -302.001 -120c-138.667 0 -239.667 37.333 -303 112
c-62.667 75.333 -94 214.333 -94 417zM297 574.001c0 -173.333 14.332 -293.333 42.999 -360c28.667 -66 87 -99 175 -99c82 0 137.667 33.667 167 101s44 186.666 44 357.999c0 136.667 -18.667 229.334 -56 278.001s-89.666 73 -156.999 73c-76 0 -131 -26.333 -165 -79
c-34 -52 -51 -142.667 -51 -272zM511.999 1190v0zM157.999 1184c9.33301 72.667 31.335 127.333 66.002 164s83.667 55 147 55c38.667 0 89 -12.667 151 -38c62.667 -25.333 107.667 -38 135 -38c32 0 56 8 72 24c16 16.667 25.333 39.667 28 69h103
c-4.66699 -63.333 -27 -116.333 -67 -159s-88 -64 -144 -64c-33.333 0 -84.333 12.667 -153 38s-117.334 38 -146.001 38c-25.333 0 -47.333 -9 -66 -27s-29.334 -38.667 -32.001 -62h-94zM512.001 1190v0z" />
    <glyph glyph-name="odieresis" unicode="&#xf6;" 
d="M118 507c0 215.333 31 361.667 93 439c62.667 77.333 164 116 304 116c146.667 0 248.334 -42.333 305.001 -127c56.667 -84 85 -221 85 -411c0 -203.333 -29.333 -345.333 -88 -426c-58.667 -80 -159.334 -120 -302.001 -120c-138.667 0 -239.667 37.333 -303 112
c-62.667 75.333 -94 214.333 -94 417zM297 574.001c0 -173.333 14.332 -293.333 42.999 -360c28.667 -66 87 -99 175 -99c82 0 137.667 33.667 167 101s44 186.666 44 357.999c0 136.667 -18.667 229.334 -56 278.001s-89.666 73 -156.999 73c-76 0 -131 -26.333 -165 -79
c-34 -52 -51 -142.667 -51 -272zM511.999 1190v0zM240.999 1419h189v-213h-189v213zM589.999 1419h189v-213h-189v213zM511.999 1190v0z" />
    <glyph glyph-name="divide" unicode="&#xf7;" 
d="M407 820v208h192v-208h-192zM919 453h-832v127h832v-127zM407 5v208h192v-208h-192z" />
    <glyph glyph-name="oslash" unicode="&#xf8;" 
d="M189 139c-47.333 83.333 -71 208.332 -71 374.999c0 198 28 338.667 84 422c56 84 160 126 312 126c118.667 0 209 -29 271 -87v0l99 135l66 -42l-115 -159v0c46.667 -77.333 70 -205.666 70 -384.999c0 -203.333 -29.667 -345.333 -89 -426
c-58.667 -80 -160.334 -120 -305.001 -120c-129.333 0 -222.666 28.333 -279.999 85v0l-95 -133l-63 46zM711 735.999l-371 -521.001v0c30.667 -66.667 89 -100 175 -100c82 0 137.667 33.667 167 101c29.333 68 44 187.667 44 359c0 62.667 -5 116.334 -15 161.001z
M314 307.998l368.999 522v0c-31.333 63.333 -87.666 95 -168.999 95c-76 0 -131.333 -26.333 -166 -79c-34 -52 -51 -143 -51 -273c0 -116.667 5.66699 -205 17 -265z" />
    <glyph glyph-name="ugrave" unicode="&#xf9;" 
d="M155 1040l168 0.000976562v-723c0 -141.333 57.667 -212 173 -212c67.333 0 118 24.667 152 74s51 103.666 51 162.999v698h168v-857c0 -50.667 1.66699 -111.667 5 -183h-173v138c-52.667 -106.667 -142.667 -160 -270 -160c-85.333 0 -152.333 22 -201 66
c-48.667 44.667 -73 109.667 -73 195v801zM502 1190v0zM816 0.000976562v0zM0 1062v0zM539 1190l-262 288h224l176 -288h-138zM502 1190v0z" />
    <glyph glyph-name="uacute" unicode="&#xfa;" 
d="M155 1040l168 0.000976562v-723c0 -141.333 57.667 -212 173 -212c67.333 0 118 24.667 152 74s51 103.666 51 162.999v698h168v-857c0 -50.667 1.66699 -111.667 5 -183h-173v138c-52.667 -106.667 -142.667 -160 -270 -160c-85.333 0 -152.333 22 -201 66
c-48.667 44.667 -73 109.667 -73 195v801zM502 1190v0zM816 0.000976562v0zM0 1062v0zM327 1190l176 288h224l-262 -288h-138zM502 1190v0z" />
    <glyph glyph-name="ucircumflex" unicode="&#xfb;" 
d="M155 1040l168 0.000976562v-723c0 -141.333 57.667 -212 173 -212c67.333 0 118 24.667 152 74s51 103.666 51 162.999v698h168v-857c0 -50.667 1.66699 -111.667 5 -183h-173v138c-52.667 -106.667 -142.667 -160 -270 -160c-85.333 0 -152.333 22 -201 66
c-48.667 44.667 -73 109.667 -73 195v801zM502 1190v0zM816 0.000976562v0zM0 1062v0zM192 1190l208 288h189l208 -288h-165l-138 192v0l-137 -192h-165zM502 1190v0z" />
    <glyph glyph-name="udieresis" unicode="&#xfc;" 
d="M155 1040l168 0.000976562v-723c0 -141.333 57.667 -212 173 -212c67.333 0 118 24.667 152 74s51 103.666 51 162.999v698h168v-857c0 -50.667 1.66699 -111.667 5 -183h-173v138c-52.667 -106.667 -142.667 -160 -270 -160c-85.333 0 -152.333 22 -201 66
c-48.667 44.667 -73 109.667 -73 195v801zM502 1190v0zM816 0.000976562v0zM0 1062v0zM231 1419h189v-213h-189v213zM580 1419h189v-213h-189v213zM502 1190v0z" />
    <glyph glyph-name="yacute" unicode="&#xfd;" horiz-adv-x="909" 
d="M16 1040h194l254 -840v0l251 840h181l-473 -1424h-173l115 384v0zM484 1190v0zM0 1062v0zM309 1190l176 288h224l-262 -288h-138zM484 1190v0z" />
    <glyph glyph-name="thorn" unicode="&#xfe;" 
d="M310 902c48.667 106.667 129.667 159.999 243 159.999c116 0 200.333 -41.333 253 -124c53.333 -82.667 80 -222 80 -418c0 -203.333 -28 -344.666 -84 -423.999c-56 -78.667 -140.667 -118 -254 -118c-112.667 0 -192 48 -238 144v-506h-168v1856h168v-570zM310 525.999
c0 -179.333 17 -292.667 51 -340c34.667 -47.333 82.334 -71 143.001 -71c78 0 131.333 30.333 160 91s43 174.667 43 342c0 133.333 -15 229.333 -45 288c-30 59.333 -84.667 89 -164 89c-64.667 0 -112.334 -28 -143.001 -84c-30 -55.333 -45 -160.333 -45 -315z" />
    <glyph glyph-name="ydieresis" unicode="&#xff;" horiz-adv-x="909" 
d="M16 1040h194l254 -840v0l251 840h181l-473 -1424h-173l115 384v0zM484 1190v0zM0 1062v0zM213 1419h189v-213h-189v213zM562 1419h189v-213h-189v213zM484 1190v0z" />
    <glyph glyph-name="Amacron" unicode="&#x100;" horiz-adv-x="1251" 
d="M30 0l464 1472h241l480 -1472h-211l-106 353v0h-570v0l-109 -353h-189zM377 517h468v0l-238 788v0zM632 1663v0zM1183 0v0zM0 1503v0zM350 1824h560v-113h-560v113zM632 1663v0z" />
    <glyph glyph-name="amacron" unicode="&#x101;" 
d="M158 758c4 202.667 119.667 304.001 347 304.001s341 -105 341 -315v-511c0 -82.667 8 -161.334 24 -236.001h-187v155c-48 -118 -134.333 -177 -259 -177c-193.333 0 -290 113 -290 339c0 105.333 34.667 186.333 104 243s172.666 85 309.999 85h130v89
c0 134 -59 201 -177 201c-47.333 0 -86.666 -14.667 -117.999 -44c-30.667 -28.667 -46 -73 -46 -133h-179zM678 518.001h-37.001c-127.333 0 -215.666 -16.667 -264.999 -50s-74 -86.333 -74 -159c0 -60 14.667 -107.333 44 -142s68 -52 116 -52c68 0 121 26.667 159 80
s57 161 57 323v0zM513.999 1190v0zM823.999 0.000976562v0zM231.999 1351h560v-113h-560v113zM513.999 1190v0z" />
    <glyph glyph-name="Abreve" unicode="&#x102;" horiz-adv-x="1251" 
d="M30 0l464 1472h241l480 -1472h-211l-106 353v0h-570v0l-109 -353h-189zM377 517h468v0l-238 788v0zM632 1663v0zM1183 0v0zM0 1503v0zM844 1952h100c-12.667 -89.333 -45.667 -157.333 -99 -204c-52.667 -46 -122.667 -69 -210 -69c-200.667 0 -307 91 -319 273h100
c20 -106.667 92 -160 216 -160c119.333 0 190 53.333 212 160zM632 1663v0z" />
    <glyph glyph-name="abreve" unicode="&#x103;" 
d="M158 758c4 202.667 119.667 304.001 347 304.001s341 -105 341 -315v-511c0 -82.667 8 -161.334 24 -236.001h-187v155c-48 -118 -134.333 -177 -259 -177c-193.333 0 -290 113 -290 339c0 105.333 34.667 186.333 104 243s172.666 85 309.999 85h130v89
c0 134 -59 201 -177 201c-47.333 0 -86.666 -14.667 -117.999 -44c-30.667 -28.667 -46 -73 -46 -133h-179zM678 518.001h-37.001c-127.333 0 -215.666 -16.667 -264.999 -50s-74 -86.333 -74 -159c0 -60 14.667 -107.333 44 -142s68 -52 116 -52c68 0 121 26.667 159 80
s57 161 57 323v0zM513.999 1190v0zM823.999 0.000976562v0zM725.999 1479h100c-12.667 -89.333 -45.667 -157.333 -99 -204c-52.667 -46 -122.667 -69 -210 -69c-200.667 0 -307 91 -319 273h100c20 -106.667 92 -160 216 -160c119.333 0 190 53.333 212 160zM513.999 1190
v0z" />
    <glyph glyph-name="Aogonek" unicode="&#x104;" horiz-adv-x="1251" 
d="M30 0l464 1472h241l480 -1472h-211l-106 353v0h-570v0l-109 -353h-189zM377 517h468v0l-238 788v0zM632 1663v0zM1183 0v0zM0 1503v0zM1099 0h127c-133.333 -54 -200 -112 -200 -174c0 -29.333 8.33301 -53 25 -71c16.667 -17.333 40 -26 70 -26
c19.333 0 44 3.33301 74 10c30 7.33301 64.333 18.333 103 33v-111c-72 -30 -144.333 -45 -217 -45c-64.667 0 -118 16 -160 48c-42 32.667 -63 75.667 -63 129c0 50 26.333 93 79 129c53.333 36.667 107.333 62.667 162 78zM1183 0v0z" />
    <glyph glyph-name="aogonek" unicode="&#x105;" 
d="M158 758c4 202.667 119.667 304.001 347 304.001s341 -105 341 -315v-511c0 -82.667 8 -161.334 24 -236.001h-187v155c-48 -118 -134.333 -177 -259 -177c-193.333 0 -290 113 -290 339c0 105.333 34.667 186.333 104 243s172.666 85 309.999 85h130v89
c0 134 -59 201 -177 201c-47.333 0 -86.666 -14.667 -117.999 -44c-30.667 -28.667 -46 -73 -46 -133h-179zM678 518.001h-37.001c-127.333 0 -215.666 -16.667 -264.999 -50s-74 -86.333 -74 -159c0 -60 14.667 -107.333 44 -142s68 -52 116 -52c68 0 121 26.667 159 80
s57 161 57 323v0zM513.999 1190v0zM823.999 0.000976562v0zM739.999 0.000976562h127c-133.333 -54 -200 -112 -200 -174c0 -29.333 8.33301 -53 25 -71c16.667 -17.333 40 -26 70 -26c19.333 0 44 3.33301 74 10c30 7.33301 64.333 18.333 103 33v-111
c-72 -30 -144.333 -45 -217 -45c-64.667 0 -118 16 -160 48c-42 32.667 -63 75.667 -63 129c0 50 26.333 93 79 129c53.333 36.667 107.333 62.667 162 78zM823.999 0.000976562v0z" />
    <glyph glyph-name="Cacute" unicode="&#x106;" horiz-adv-x="1139" 
d="M838 433l192.998 -0.000976562c0 -160 -35 -277.333 -105 -352c-69.333 -74.667 -176.666 -112 -321.999 -112c-144.667 0 -256.667 39.667 -336 119c-78.667 80 -118 230.333 -118 451v437c0 351.333 155.333 527 466 527c266 0 399 -113 399 -339v-93h-193v49
c0 149.333 -71.667 224 -215 224c-78.667 0 -142.334 -25 -191.001 -75s-73 -160.333 -73 -331v-425c0 -129.333 18 -226 54 -290c36.667 -63.333 106.334 -95 209.001 -95c72.667 0 129.334 27 170.001 81c41.333 54.667 62 129.334 62 224.001zM615.998 1663v0z
M582.998 -0.000976562v0zM440.998 1663l176 288h224l-262 -288h-138zM615.998 1663v0z" />
    <glyph glyph-name="cacute" unicode="&#x107;" 
d="M688 346l178.999 0.000976562c0 -116 -32 -206.333 -96 -271c-63.333 -64.667 -140.333 -97 -231 -97c-152 0 -254.667 45 -308 135s-80 221.333 -80 394c0 202 29.333 345 88 429s160 126 304 126c98 0 175 -27.333 231 -82s84 -144.667 84 -270v0v0h-179v0v0
c0 68 -12 120.667 -36 158c-24 38 -58.667 57 -104 57c-73.333 0 -126.666 -26.333 -159.999 -79c-32.667 -52.667 -49 -143.334 -49 -272.001c0 -182 15 -304 45 -366s83 -93 159 -93c102 0.666992 153 77.667 153 231zM546.999 1190v0zM458.999 0.000976562v0z
M371.999 1190l176 288h224l-262 -288h-138zM546.999 1190v0z" />
    <glyph glyph-name="Ccaron" unicode="&#x10c;" horiz-adv-x="1139" 
d="M838 433l192.998 -0.000976562c0 -160 -35 -277.333 -105 -352c-69.333 -74.667 -176.666 -112 -321.999 -112c-144.667 0 -256.667 39.667 -336 119c-78.667 80 -118 230.333 -118 451v437c0 351.333 155.333 527 466 527c266 0 399 -113 399 -339v-93h-193v49
c0 149.333 -71.667 224 -215 224c-78.667 0 -142.334 -25 -191.001 -75s-73 -160.333 -73 -331v-425c0 -129.333 18 -226 54 -290c36.667 -63.333 106.334 -95 209.001 -95c72.667 0 129.334 27 170.001 81c41.333 54.667 62 129.334 62 224.001zM615.998 1663v0z
M582.998 -0.000976562v0zM901.998 1951l-208 -288h-189l-208 288h165l137 -192v0l138 192h165zM615.998 1663v0z" />
    <glyph glyph-name="ccaron" unicode="&#x10d;" 
d="M688 346l178.999 0.000976562c0 -116 -32 -206.333 -96 -271c-63.333 -64.667 -140.333 -97 -231 -97c-152 0 -254.667 45 -308 135s-80 221.333 -80 394c0 202 29.333 345 88 429s160 126 304 126c98 0 175 -27.333 231 -82s84 -144.667 84 -270v0v0h-179v0v0
c0 68 -12 120.667 -36 158c-24 38 -58.667 57 -104 57c-73.333 0 -126.666 -26.333 -159.999 -79c-32.667 -52.667 -49 -143.334 -49 -272.001c0 -182 15 -304 45 -366s83 -93 159 -93c102 0.666992 153 77.667 153 231zM546.999 1190v0zM458.999 0.000976562v0z
M832.999 1478l-208 -288h-189l-208 288h165l137 -192v0l138 192h165zM546.999 1190v0z" />
    <glyph glyph-name="Dcaron" unicode="&#x10e;" horiz-adv-x="1251" 
d="M171 0l-0.000976562 1472h454c158 0 276.667 -47.333 356 -142c79.333 -94 119 -280.667 119 -560c0 -333.333 -45 -545 -135 -635c-89.333 -90 -224.666 -135 -405.999 -135h-388zM363.999 164l191.001 -0.000976562c130 0 221 32 273 96
c52.667 64.667 79 173.334 79 326.001v329c0 142.667 -24.333 243.667 -73 303c-48.667 60 -120.334 90 -215.001 90h-255v-1144zM581 1663v0zM0 1503v0zM867 1951l-208 -288h-189l-208 288h165l137 -192v0l138 192h165zM581 1663v0z" />
    <glyph glyph-name="dcaron" unicode="&#x10f;" horiz-adv-x="1229" 
d="M694 918l-0.000976562 554h168v-1472h-168v122c-48 -96 -129 -144 -243 -144c-119.333 0 -204.666 42.333 -255.999 127s-77 223 -77 415c0 210 28.333 352.667 85 428c56.667 76 141 114 253 114c110.667 0 190 -48 238 -144zM296.999 495
c0 -142.667 17.333 -241.666 52 -296.999s87 -83 157 -83c62 0 108.667 26.667 140 80c32 53.333 48 159.666 48 318.999c0 116.667 -6.33301 202 -19 256c-9.33301 40.667 -28 76.667 -56 108s-67.667 47 -119 47c-80 0 -134 -30.333 -162 -91
c-27.333 -60.667 -41 -173.667 -41 -339zM990.999 1286v185.999h189v-187c0 -145.333 -63 -235.666 -189 -270.999v83c69.333 12 104 75 104 189h-104z" />
    <glyph glyph-name="Dcroat" unicode="&#x110;" horiz-adv-x="1251" 
d="M171 859l-0.00195312 612.999h454c140.667 0 249.334 -35.667 326.001 -107c99.333 -93.333 149 -291.666 149 -594.999c0 -333.333 -45 -545 -135 -635c-89.333 -90 -224.666 -135 -405.999 -135h-388v744h-144v115h144zM363.998 858.999l304 -0.00195312v-115h-304
v-580h191c138 0 233.333 37 286 111c44 62.667 66 166.334 66 311.001v329c0 142.667 -25.667 245.334 -77 308.001c-46 56.667 -116.333 85 -211 85h-255v-449z" />
    <glyph glyph-name="dcroat" unicode="&#x111;" 
d="M694 1222h-228.001v107h228v143h168v-143h123v-107h-123v-1222h-168v122c-48 -96 -129 -144 -243 -144c-119.333 0 -204.666 42.667 -255.999 128s-77 223.333 -77 414c0 212.667 27.667 356 83 430c56 74.667 141 112 255 112c110.667 0 190 -48 238 -144v304z
M296.999 495c0 -132.667 16 -229.333 48 -290c32 -60 85.667 -90 161 -90c56.667 0 102 27 136 81c34.667 54.667 52 160.667 52 318c0 116.667 -6.33301 202 -19 256c-9.33301 40.667 -28 76.667 -56 108s-67.667 47 -119 47c-80 0 -134 -30.333 -162 -91
c-27.333 -60.667 -41 -173.667 -41 -339z" />
    <glyph glyph-name="Emacron" unicode="&#x112;" 
d="M165 0v1472h769v-164h-576v-469h534v-164h-534v-511h588v-164h-781zM513 1663v0zM889 0v0zM0 1503v0zM231 1824h560v-113h-560v113zM513 1663v0z" />
    <glyph glyph-name="emacron" unicode="&#x113;" 
d="M310 466c0 -134.667 16.667 -226.999 50 -276.999c33.333 -49.333 85.333 -74 156 -74c51.333 0 93 18 125 54c32 36.667 49.667 85 53 145h184c0 -104.667 -31.333 -187 -94 -247c-62.667 -59.333 -150 -89 -262 -89c-160 0 -265.333 49.333 -316 148
c-50 99.333 -75 226.333 -75 381c0 206.667 29.667 350.667 89 432c60 82 161 123 303 123c134.667 0 228.667 -37.667 282 -113c54 -74.667 81 -199.334 81 -374.001v-109h-576zM310 593.001l397.001 0.000976562v0c0 143.333 -21 240.666 -63 291.999
c-26.667 33.333 -69.334 50 -128.001 50c-74.667 0 -127.667 -25 -159 -75s-47 -139 -47 -267zM506.001 1190v0zM579.001 0.00195312v0zM224.001 1351h560v-113h-560v113zM506.001 1190v0z" />
    <glyph glyph-name="Edotaccent" unicode="&#x116;" 
d="M165 0v1472h769v-164h-576v-469h534v-164h-534v-511h588v-164h-781zM513 1663v0zM889 0v0zM0 1503v0zM415 1892h191v-213h-191v213zM513 1663v0z" />
    <glyph glyph-name="edotaccent" unicode="&#x117;" 
d="M310 466c0 -134.667 16.667 -226.999 50 -276.999c33.333 -49.333 85.333 -74 156 -74c51.333 0 93 18 125 54c32 36.667 49.667 85 53 145h184c0 -104.667 -31.333 -187 -94 -247c-62.667 -59.333 -150 -89 -262 -89c-160 0 -265.333 49.333 -316 148
c-50 99.333 -75 226.333 -75 381c0 206.667 29.667 350.667 89 432c60 82 161 123 303 123c134.667 0 228.667 -37.667 282 -113c54 -74.667 81 -199.334 81 -374.001v-109h-576zM310 593.001l397.001 0.000976562v0c0 143.333 -21 240.666 -63 291.999
c-26.667 33.333 -69.334 50 -128.001 50c-74.667 0 -127.667 -25 -159 -75s-47 -139 -47 -267zM506.001 1190v0zM579.001 0.00195312v0zM408.001 1419h191v-213h-191v213zM506.001 1190v0z" />
    <glyph glyph-name="Eogonek" unicode="&#x118;" 
d="M165 0v1472h769v-164h-576v-469h534v-164h-534v-511h588v-164h-781zM513 1663v0zM889 0v0zM0 1503v0zM805 0h127c-133.333 -54 -200 -112 -200 -174c0 -29.333 8.33301 -53 25 -71c16.667 -17.333 40 -26 70 -26c19.333 0 44 3.33301 74 10
c30 7.33301 64.333 18.333 103 33v-111c-72 -30 -144.333 -45 -217 -45c-64.667 0 -118 16 -160 48c-42 32.667 -63 75.667 -63 129c0 50 26.333 93 79 129c53.333 36.667 107.333 62.667 162 78zM889 0v0z" />
    <glyph glyph-name="eogonek" unicode="&#x119;" 
d="M310 466c0 -134.667 16.667 -226.999 50 -276.999c33.333 -49.333 85.333 -74 156 -74c51.333 0 93 18 125 54c32 36.667 49.667 85 53 145h184c0 -104.667 -31.333 -187 -94 -247c-62.667 -59.333 -150 -89 -262 -89c-160 0 -265.333 49.333 -316 148
c-50 99.333 -75 226.333 -75 381c0 206.667 29.667 350.667 89 432c60 82 161 123 303 123c134.667 0 228.667 -37.667 282 -113c54 -74.667 81 -199.334 81 -374.001v-109h-576zM310 593.001l397.001 0.000976562v0c0 143.333 -21 240.666 -63 291.999
c-26.667 33.333 -69.334 50 -128.001 50c-74.667 0 -127.667 -25 -159 -75s-47 -139 -47 -267zM506.001 1190v0zM579.001 0.00195312v0zM495.001 0.00195312h127c-133.333 -54 -200 -112 -200 -174c0 -29.333 8.33301 -53 25 -71c16.667 -17.333 40 -26 70 -26
c19.333 0 44 3.33301 74 10c30 7.33301 64.333 18.333 103 33v-111c-72 -30 -144.333 -45 -217 -45c-64.667 0 -118 16 -160 48c-42 32.667 -63 75.667 -63 129c0 50 26.333 93 79 129c53.333 36.667 107.333 62.667 162 78zM579.001 0.00195312v0z" />
    <glyph glyph-name="Ecaron" unicode="&#x11a;" 
d="M165 0v1472h769v-164h-576v-469h534v-164h-534v-511h588v-164h-781zM513 1663v0zM889 0v0zM0 1503v0zM799 1951l-208 -288h-189l-208 288h165l137 -192v0l138 192h165zM513 1663v0z" />
    <glyph glyph-name="ecaron" unicode="&#x11b;" 
d="M310 466c0 -134.667 16.667 -226.999 50 -276.999c33.333 -49.333 85.333 -74 156 -74c51.333 0 93 18 125 54c32 36.667 49.667 85 53 145h184c0 -104.667 -31.333 -187 -94 -247c-62.667 -59.333 -150 -89 -262 -89c-160 0 -265.333 49.333 -316 148
c-50 99.333 -75 226.333 -75 381c0 206.667 29.667 350.667 89 432c60 82 161 123 303 123c134.667 0 228.667 -37.667 282 -113c54 -74.667 81 -199.334 81 -374.001v-109h-576zM310 593.001l397.001 0.000976562v0c0 143.333 -21 240.666 -63 291.999
c-26.667 33.333 -69.334 50 -128.001 50c-74.667 0 -127.667 -25 -159 -75s-47 -139 -47 -267zM506.001 1190v0zM579.001 0.00195312v0zM792.001 1478l-208 -288h-189l-208 288h165l137 -192v0l138 192h165zM506.001 1190v0z" />
    <glyph glyph-name="Gbreve" unicode="&#x11e;" horiz-adv-x="1251" 
d="M596 634l-0.000976562 164h464v-719c-128 -73.333 -277.667 -110 -449 -110c-154.667 0 -270.667 43 -348 129s-116 232.667 -116 440v480c0 323.333 157 485 471 485c294.667 0 442 -124 442 -372v-60h-193c0 182 -85 273 -255 273
c-99.333 0 -169.666 -30.333 -210.999 -91c-40.667 -60.667 -61 -138.667 -61 -234v-506c0 -158.667 24.667 -262.667 74 -312c49.333 -48.667 111 -73 185 -73c120.667 0 210 21.667 268 65v441h-271zM606.999 1663v0zM606.999 0v0zM818.999 1952h100
c-12.667 -89.333 -45.667 -157.333 -99 -204c-52.667 -46 -122.667 -69 -210 -69c-200.667 0 -307 91 -319 273h100c20 -106.667 92 -160 216 -160c119.333 0 190 53.333 212 160zM606.999 1663v0z" />
    <glyph glyph-name="gbreve" unicode="&#x11f;" 
d="M174 -112h191.999v0c0 -52 16.333 -89.333 49 -112c32.667 -22 67.334 -33 104.001 -33c118.667 0 178 58 178 174v211c-50 -85.333 -128 -128 -234 -128c-136.667 -0 -230.667 58.333 -282 175c-36.667 84 -55 208.333 -55 373c0 342.667 108.667 514 326 514
c114 0 195.667 -53.333 245 -160v138h168v-1141c0 -188.667 -119.667 -283 -359 -283c-109.333 0 -192 23.667 -248 71c-56 48 -84 104.333 -84 169v32zM304.999 549c0 -148.667 16 -254.667 48 -318c32 -62.667 82.667 -94 152 -94c64 0 112.667 25.333 146 76
c34 51.333 51 155.333 51 312c0 158 -15.667 264 -47 318c-31.333 54.667 -80.333 82 -147 82c-75.333 0 -128 -31.333 -158 -94c-30 -62 -45 -156 -45 -282zM492.999 1190v0zM704.999 1479h100c-12.667 -89.333 -45.667 -157.333 -99 -204
c-52.667 -46 -122.667 -69 -210 -69c-200.667 0 -307 91 -319 273h100c20 -106.667 92 -160 216 -160c119.333 0 190 53.333 212 160zM492.999 1190v0z" />
    <glyph glyph-name="Gcommaaccent" unicode="&#x122;" horiz-adv-x="1251" 
d="M596 634l-0.000976562 164h464v-719c-128 -73.333 -277.667 -110 -449 -110c-154.667 0 -270.667 43 -348 129s-116 232.667 -116 440v480c0 323.333 157 485 471 485c294.667 0 442 -124 442 -372v-60h-193c0 182 -85 273 -255 273
c-99.333 0 -169.666 -30.333 -210.999 -91c-40.667 -60.667 -61 -138.667 -61 -234v-506c0 -158.667 24.667 -262.667 74 -312c49.333 -48.667 111 -73 185 -73c120.667 0 210 21.667 268 65v441h-271zM606.999 1663v0zM606.999 0v0zM536.999 -320v160h144v-155
c0 -124 -48 -200.333 -144 -229v67c48.667 10.667 73 63 73 157h-73zM606.999 0v0z" />
    <glyph glyph-name="gcommaaccent" unicode="&#x123;" 
d="M174 -112h191.999v0c0 -52 16.333 -89.333 49 -112c32.667 -22 67.334 -33 104.001 -33c118.667 0 178 58 178 174v211c-50 -85.333 -128 -128 -234 -128c-136.667 -0 -230.667 58.333 -282 175c-36.667 84 -55 208.333 -55 373c0 342.667 108.667 514 326 514
c114 0 195.667 -53.333 245 -160v138h168v-1141c0 -188.667 -119.667 -283 -359 -283c-109.333 0 -192 23.667 -248 71c-56 48 -84 104.333 -84 169v32zM304.999 549c0 -148.667 16 -254.667 48 -318c32 -62.667 82.667 -94 152 -94c64 0 112.667 25.333 146 76
c34 51.333 51 155.333 51 312c0 158 -15.667 264 -47 318c-31.333 54.667 -80.333 82 -147 82c-75.333 0 -128 -31.333 -158 -94c-30 -62 -45 -156 -45 -282zM492.999 1190v0zM548.999 1350v-160.001h-144v154c0 124 48 200.667 144 230v-70
c-48.667 -11.333 -73 -62.666 -73 -153.999h73zM492.999 1190v0z" />
    <glyph glyph-name="Imacron" unicode="&#x12a;" horiz-adv-x="569" 
d="M189 1472h193v-1472h-193v1472zM286 1663v0zM328 0v0zM0 1503v0zM4 1824h560v-113h-560v113zM286 1663v0z" />
    <glyph glyph-name="imacron" unicode="&#x12b;" horiz-adv-x="455" 
d="M144 1040h168v-1040h-168v1040zM230 1190v0zM0 1062v0zM-52 1351h560v-113h-560v113zM230 1190v0z" />
    <glyph glyph-name="Iogonek" unicode="&#x12e;" horiz-adv-x="569" 
d="M189 1472h193v-1472h-193v1472zM286 1663v0zM328 0v0zM0 1503v0zM244 0h127c-133.333 -54 -200 -112 -200 -174c0 -29.333 8.33301 -53 25 -71c16.667 -17.333 40 -26 70 -26c19.333 0 44 3.33301 74 10c30 7.33301 64.333 18.333 103 33v-111
c-72 -30 -144.333 -45 -217 -45c-64.667 0 -118 16 -160 48c-42 32.667 -63 75.667 -63 129c0 50 26.333 93 79 129c53.333 36.667 107.333 62.667 162 78zM328 0v0z" />
    <glyph glyph-name="iogonek" unicode="&#x12f;" horiz-adv-x="455" 
d="M144 1040h168v-1040h-168v1040zM133 1493h190v-181h-190v181zM265 0v0zM181 0h127c-133.333 -54 -200 -112 -200 -174c0 -29.333 8.33301 -53 25 -71c16.667 -17.333 40 -26 70 -26c19.333 0 44 3.33301 74 10c30 7.33301 64.333 18.333 103 33v-111
c-72 -30 -144.333 -45 -217 -45c-64.667 0 -118 16 -160 48c-42 32.667 -63 75.667 -63 129c0 50 26.333 93 79 129c53.333 36.667 107.333 62.667 162 78zM265 0v0z" />
    <glyph glyph-name="Idotaccent" unicode="&#x130;" horiz-adv-x="569" 
d="M189 1472h193v-1472h-193v1472zM286 1663v0zM328 0v0zM0 1503v0zM188 1892h191v-213h-191v213zM286 1663v0z" />
    <glyph glyph-name="dotlessi" unicode="&#x131;" horiz-adv-x="455" 
d="M144 1040h168v-1040h-168v1040zM230 1190v0zM0 1062v0z" />
    <glyph glyph-name="Kcommaaccent" unicode="&#x136;" horiz-adv-x="1139" 
d="M358 817l522 655h214l-537 -667l567 -805h-241l-525 776v0v-776h-193v1472h193v-655zM637 0v0zM567 -320v160h144v-155c0 -124 -48 -200.333 -144 -229v67c48.667 10.667 73 63 73 157h-73zM637 0v0z" />
    <glyph glyph-name="kcommaaccent" unicode="&#x137;" horiz-adv-x="909" 
d="M315 589l323 451h205l-347 -447l407 -593h-213l-375 581v0v-581h-168v1472h168v-883zM513 0v0zM443 -320v160h144v-155c0 -124 -48 -200.333 -144 -229v67c48.667 10.667 73 63 73 157h-73zM513 0v0z" />
    <glyph glyph-name="Lacute" unicode="&#x139;" horiz-adv-x="909" 
d="M165 1472h193v-1308h544v-164h-737v1472zM343 1663v0zM585 0v0zM0 1503v0zM168 1663l176 288h224l-262 -288h-138zM343 1663v0z" />
    <glyph glyph-name="lacute" unicode="&#x13a;" horiz-adv-x="455" 
d="M144 0v1472h168v-1472h-168zM230 1664v0zM230 0v0zM55 1664l176 288h224l-262 -288h-138zM230 1664v0z" />
    <glyph glyph-name="Lcommaaccent" unicode="&#x13b;" horiz-adv-x="909" 
d="M165 1472h193v-1308h544v-164h-737v1472zM343 1663v0zM585 0v0zM0 1503v0zM515 -320v160h144v-155c0 -124 -48 -200.333 -144 -229v67c48.667 10.667 73 63 73 157h-73zM585 0v0z" />
    <glyph glyph-name="lcommaaccent" unicode="&#x13c;" horiz-adv-x="455" 
d="M144 0v1472h168v-1472h-168zM230 1664v0zM230 0v0zM160 -320v160h144v-155c0 -124 -48 -200.333 -144 -229v67c48.667 10.667 73 63 73 157h-73zM230 0v0z" />
    <glyph glyph-name="Lcaron" unicode="&#x13d;" horiz-adv-x="909" 
d="M165 1472h193v-1308h544v-164h-737v1472zM343 1663v0zM585 0v0zM0 1503v0zM602 1286v185.999h189v-187c0 -145.333 -63 -235.666 -189 -270.999v83c69.333 12 104 75 104 189h-104z" />
    <glyph glyph-name="lcaron" unicode="&#x13e;" horiz-adv-x="655" 
d="M144 0v1472h168v-1472h-168zM230 1664v0zM230 0v0zM432 1286v185.999h189v-187c0 -145.333 -63 -235.666 -189 -270.999v83c69.333 12 104 75 104 189h-104z" />
    <glyph glyph-name="Lslash" unicode="&#x141;" horiz-adv-x="909" 
d="M165 1472h193v-504v0l153 83l45 -79l-198 -112v0v-696h544v-164h-737v749v0l-144 -82l-45 79l189 108v0v618z" />
    <glyph glyph-name="lslash" unicode="&#x142;" horiz-adv-x="455" 
d="M144 0v771v0l-163 -94l-42 71l205 121v0v603v0h168v0v-505v0l163 94l42 -71l-205 -121v0v-869v0h-168z" />
    <glyph glyph-name="Nacute" unicode="&#x143;" horiz-adv-x="1366" 
d="M177 1472h268l580 -1271v0v1271h168v-1472h-259l-589 1282v0v-1282h-168v1472zM705 1663v0zM665 0v0zM0 1503v0zM530 1663l176 288h224l-262 -288h-138zM705 1663v0z" />
    <glyph glyph-name="nacute" unicode="&#x144;" 
d="M315 0l-168.001 0.000976562v857c0 50 -1.66699 111 -5 183h179l-6 -138c30.667 59.333 69.334 100.666 116.001 123.999c47.333 24 103.333 36 168 36c95.333 0 165 -25.333 209 -76c44.667 -50 67 -136.667 67 -260v-726h-168v723c0 134.667 -59.667 202 -179 202
c-142 0 -213 -97.667 -213 -293v-632zM527.999 1190v0zM521.999 0.000976562v0zM352.999 1190l176 288h224l-262 -288h-138zM527.999 1190v0z" />
    <glyph glyph-name="Ncommaaccent" unicode="&#x145;" horiz-adv-x="1366" 
d="M177 1472h268l580 -1271v0v1271h168v-1472h-259l-589 1282v0v-1282h-168v1472zM705 1663v0zM665 0v0zM0 1503v0zM595 -320v160h144v-155c0 -124 -48 -200.333 -144 -229v67c48.667 10.667 73 63 73 157h-73zM665 0v0z" />
    <glyph glyph-name="ncommaaccent" unicode="&#x146;" 
d="M315 0l-168.001 0.000976562v857c0 50 -1.66699 111 -5 183h179l-6 -138c30.667 59.333 69.334 100.666 116.001 123.999c47.333 24 103.333 36 168 36c95.333 0 165 -25.333 209 -76c44.667 -50 67 -136.667 67 -260v-726h-168v723c0 134.667 -59.667 202 -179 202
c-142 0 -213 -97.667 -213 -293v-632zM527.999 1190v0zM521.999 0.000976562v0zM451.999 -319.999v160h144v-155c0 -124 -48 -200.333 -144 -229v67c48.667 10.667 73 63 73 157h-73zM521.999 0.000976562v0z" />
    <glyph glyph-name="Ncaron" unicode="&#x147;" horiz-adv-x="1366" 
d="M177 1472h268l580 -1271v0v1271h168v-1472h-259l-589 1282v0v-1282h-168v1472zM705 1663v0zM665 0v0zM0 1503v0zM991 1951l-208 -288h-189l-208 288h165l137 -192v0l138 192h165zM705 1663v0z" />
    <glyph glyph-name="ncaron" unicode="&#x148;" 
d="M315 0l-168.001 0.000976562v857c0 50 -1.66699 111 -5 183h179l-6 -138c30.667 59.333 69.334 100.666 116.001 123.999c47.333 24 103.333 36 168 36c95.333 0 165 -25.333 209 -76c44.667 -50 67 -136.667 67 -260v-726h-168v723c0 134.667 -59.667 202 -179 202
c-142 0 -213 -97.667 -213 -293v-632zM527.999 1190v0zM521.999 0.000976562v0zM813.999 1478l-208 -288h-189l-208 288h165l137 -192v0l138 192h165zM527.999 1190v0z" />
    <glyph glyph-name="Omacron" unicode="&#x14c;" horiz-adv-x="1251" 
d="M159 532l-0.000976562 484.999c0 154 39.333 273.333 118 358c78.667 85.333 194.334 128 347.001 128c152 0 267.333 -42.667 346 -128c78.667 -84.667 118 -202.667 118 -354v-489c0 -192.667 -37 -334.667 -111 -426s-190.667 -137 -350 -137
c-168.667 0 -289 47 -361 141c-71.333 94.667 -107 235.334 -107 422.001zM351.999 1021l-0.000976562 -506c0 -130.667 19.333 -228 58 -292c38.667 -63.333 110 -95 214 -95c94.667 0 163.334 29.333 206.001 88c43.333 58.667 65 161 65 307v508
c0 103.333 -24.333 181.333 -73 234s-115 79 -199 79c-180.667 0 -271 -107.667 -271 -323zM633.998 1663v0zM351.998 1824h560v-113h-560v113zM633.998 1663v0z" />
    <glyph glyph-name="omacron" unicode="&#x14d;" 
d="M118 507c0 215.333 31 361.667 93 439c62.667 77.333 164 116 304 116c146.667 0 248.334 -42.333 305.001 -127c56.667 -84 85 -221 85 -411c0 -203.333 -29.333 -345.333 -88 -426c-58.667 -80 -159.334 -120 -302.001 -120c-138.667 0 -239.667 37.333 -303 112
c-62.667 75.333 -94 214.333 -94 417zM297 574.001c0 -173.333 14.332 -293.333 42.999 -360c28.667 -66 87 -99 175 -99c82 0 137.667 33.667 167 101s44 186.666 44 357.999c0 136.667 -18.667 229.334 -56 278.001s-89.666 73 -156.999 73c-76 0 -131 -26.333 -165 -79
c-34 -52 -51 -142.667 -51 -272zM511.999 1190v0zM229.999 1351h560v-113h-560v113zM511.999 1190v0z" />
    <glyph glyph-name="Ohungarumlaut" unicode="&#x150;" horiz-adv-x="1251" 
d="M159 532l-0.000976562 484.999c0 154 39.333 273.333 118 358c78.667 85.333 194.334 128 347.001 128c152 0 267.333 -42.667 346 -128c78.667 -84.667 118 -202.667 118 -354v-489c0 -192.667 -37 -334.667 -111 -426s-190.667 -137 -350 -137
c-168.667 0 -289 47 -361 141c-71.333 94.667 -107 235.334 -107 422.001zM351.999 1021l-0.000976562 -506c0 -130.667 19.333 -228 58 -292c38.667 -63.333 110 -95 214 -95c94.667 0 163.334 29.333 206.001 88c43.333 58.667 65 161 65 307v508
c0 103.333 -24.333 181.333 -73 234s-115 79 -199 79c-180.667 0 -271 -107.667 -271 -323zM633.998 1663v0zM318.998 1663l176 288h224l-262 -288h-138zM686.998 1663l176 288h224l-262 -288h-138zM633.998 1663v0z" />
    <glyph glyph-name="ohungarumlaut" unicode="&#x151;" 
d="M118 507c0 215.333 31 361.667 93 439c62.667 77.333 164 116 304 116c146.667 0 248.334 -42.333 305.001 -127c56.667 -84 85 -221 85 -411c0 -203.333 -29.333 -345.333 -88 -426c-58.667 -80 -159.334 -120 -302.001 -120c-138.667 0 -239.667 37.333 -303 112
c-62.667 75.333 -94 214.333 -94 417zM297 574.001c0 -173.333 14.332 -293.333 42.999 -360c28.667 -66 87 -99 175 -99c82 0 137.667 33.667 167 101s44 186.666 44 357.999c0 136.667 -18.667 229.334 -56 278.001s-89.666 73 -156.999 73c-76 0 -131 -26.333 -165 -79
c-34 -52 -51 -142.667 -51 -272zM511.999 1190v0zM196.999 1190l176 288h224l-262 -288h-138zM564.999 1190l176 288h224l-262 -288h-138zM511.999 1190v0z" />
    <glyph glyph-name="OE" unicode="&#x152;" horiz-adv-x="1706" 
d="M1652 0l-1002 -0.000976562v0c-181.333 0 -310.666 44.333 -387.999 133c-76.667 88.667 -115 225.334 -115 410.001v354c0 202 38 348.333 114 439s193.667 136 353 136v0h1026v-164h-580v-469h538v-164h-538v-511h592v-164zM866.999 1308h-273.999
c-88 0 -152.333 -28.667 -193 -86c-40 -57.333 -60 -165.333 -60 -324v-345c0 -131.333 19.667 -229 59 -293s111.666 -96 216.999 -96h251v1144z" />
    <glyph glyph-name="oe" unicode="&#x153;" horiz-adv-x="1593" 
d="M806 886c39.333 117.333 140.002 176.001 302.002 176.001c128.667 0 221.667 -37.667 279 -113c57.333 -74.667 86 -199.334 86 -374.001v-109h-576v0c0 -124 14.333 -213.667 43 -269c28.667 -54.667 83 -82 163 -82c54.667 0 97 16.667 127 50
c30.667 34 47.667 83.667 51 149h184c0 -99.333 -31.333 -180.333 -94 -243c-62.667 -62 -150.667 -93 -264 -93c-165.333 0 -269 53.333 -311 160c-53.333 -106.667 -147.666 -160 -282.999 -160c-158.667 0 -264.334 45.333 -317.001 136c-52 90.667 -78 221.667 -78 393
c0 212 32.333 357.333 97 436c64.667 79.333 164 119 298 119c85.333 0 152.666 -13.667 201.999 -41s79.666 -72.333 90.999 -135zM297.002 574.001c0 -173.333 14.332 -293.332 42.999 -359.999c28.667 -66 87 -99 175 -99c82 0 137.667 33.667 167 101
s44 186.666 44 357.999c0 132 -17.667 223.333 -53 274c-35.333 51.333 -88.666 77 -159.999 77c-76 0 -131 -26.333 -165 -79c-34 -52 -51 -142.667 -51 -272zM897.001 593.002h397v0c0 114.667 -12.667 198.667 -38 252c-24.667 53.333 -78.667 80 -162 80
c-72.667 0 -123.667 -25 -153 -75s-44 -135.667 -44 -257z" />
    <glyph glyph-name="Racute" unicode="&#x154;" horiz-adv-x="1139" 
d="M162 0l-0.00195312 1472h507c112.667 0 200.334 -32.333 263.001 -97c63.333 -64 95 -154.333 95 -271c0 -188.667 -92.333 -302.334 -277 -341.001c79.333 -8 138.333 -34 177 -78c39.333 -44 61.333 -121.333 66 -232c6 -191.333 24.333 -342.333 55 -453h-196
c-19.333 29.333 -32.666 93.333 -39.999 192c-6.66699 98.667 -12.334 196.334 -17.001 293.001c-7.33301 126.667 -79.666 190 -216.999 190h-223v-675h-193zM354.998 839h277.001c62 0 111 22.333 147 67c36.667 44.667 55 104 55 178c0 60.667 -16.333 113 -49 157
c-32.667 44.667 -81.334 67 -146.001 67h-284v-469zM563.999 1663v0zM594.999 0v0zM-0.000976562 1503v0zM388.999 1663l176 288h224l-262 -288h-138zM563.999 1663v0z" />
    <glyph glyph-name="racute" unicode="&#x155;" horiz-adv-x="682" 
d="M155 0v1040h168v-163v0c44 123.333 139 185 285 185h35v0v-175c-29.333 6.66699 -59.333 10 -90 10c-153.333 0 -230 -94.667 -230 -284v-613h-168zM401 1190v0zM237 0v0zM226 1190l176 288h224l-262 -288h-138zM401 1190v0z" />
    <glyph glyph-name="Rcommaaccent" unicode="&#x156;" horiz-adv-x="1139" 
d="M162 0l-0.00195312 1472h507c112.667 0 200.334 -32.333 263.001 -97c63.333 -64 95 -154.333 95 -271c0 -188.667 -92.333 -302.334 -277 -341.001c79.333 -8 138.333 -34 177 -78c39.333 -44 61.333 -121.333 66 -232c6 -191.333 24.333 -342.333 55 -453h-196
c-19.333 29.333 -32.666 93.333 -39.999 192c-6.66699 98.667 -12.334 196.334 -17.001 293.001c-7.33301 126.667 -79.666 190 -216.999 190h-223v-675h-193zM354.998 839h277.001c62 0 111 22.333 147 67c36.667 44.667 55 104 55 178c0 60.667 -16.333 113 -49 157
c-32.667 44.667 -81.334 67 -146.001 67h-284v-469zM563.999 1663v0zM594.999 0v0zM-0.000976562 1503v0zM524.999 -320v160h144v-155c0 -124 -48 -200.333 -144 -229v67c48.667 10.667 73 63 73 157h-73zM594.999 0v0z" />
    <glyph glyph-name="rcommaaccent" unicode="&#x157;" horiz-adv-x="682" 
d="M155 0v1040h168v-163v0c44 123.333 139 185 285 185h35v0v-175c-29.333 6.66699 -59.333 10 -90 10c-153.333 0 -230 -94.667 -230 -284v-613h-168zM401 1190v0zM237 0v0zM167 -320v160h144v-155c0 -124 -48 -200.333 -144 -229v67c48.667 10.667 73 63 73 157h-73z
M237 0v0z" />
    <glyph glyph-name="Rcaron" unicode="&#x158;" horiz-adv-x="1139" 
d="M162 0l-0.00195312 1472h507c112.667 0 200.334 -32.333 263.001 -97c63.333 -64 95 -154.333 95 -271c0 -188.667 -92.333 -302.334 -277 -341.001c79.333 -8 138.333 -34 177 -78c39.333 -44 61.333 -121.333 66 -232c6 -191.333 24.333 -342.333 55 -453h-196
c-19.333 29.333 -32.666 93.333 -39.999 192c-6.66699 98.667 -12.334 196.334 -17.001 293.001c-7.33301 126.667 -79.666 190 -216.999 190h-223v-675h-193zM354.998 839h277.001c62 0 111 22.333 147 67c36.667 44.667 55 104 55 178c0 60.667 -16.333 113 -49 157
c-32.667 44.667 -81.334 67 -146.001 67h-284v-469zM563.999 1663v0zM594.999 0v0zM-0.000976562 1503v0zM849.999 1951l-208 -288h-189l-208 288h165l137 -192v0l138 192h165zM563.999 1663v0z" />
    <glyph glyph-name="rcaron" unicode="&#x159;" horiz-adv-x="682" 
d="M155 0v1040h168v-163v0c44 123.333 139 185 285 185h35v0v-175c-29.333 6.66699 -59.333 10 -90 10c-153.333 0 -230 -94.667 -230 -284v-613h-168zM401 1190v0zM237 0v0zM687 1478l-208 -288h-189l-208 288h165l137 -192v0l138 192h165zM401 1190v0z" />
    <glyph glyph-name="Sacute" unicode="&#x15a;" horiz-adv-x="1139" 
d="M128 433l192.998 0.00195312v-52c0 -76 22 -136.333 66 -181s109 -67 195 -67c74 0 134 20 180 60s69 98.333 69 175c0 61.333 -23 114 -69 158c-45.333 44 -125.666 94.667 -240.999 152c-141.333 72.667 -237 140 -287 202c-49.333 62.667 -74 137.334 -74 224.001
c0 119.333 38.333 215.666 115 288.999s184 110 322 110c136.667 0 239.334 -33.333 308.001 -100s103 -158.334 103 -275.001v-57h-193v0c0 178.667 -76.333 268 -229 268c-72.667 0 -129.667 -19.333 -171 -58s-62 -90.667 -62 -156
c0 -68.667 31.333 -129.334 94 -182.001c38.667 -33.333 116.667 -79.333 234 -138c118 -58.667 202.333 -118.334 253 -179.001c60 -72 90 -155.667 90 -251c0 -270.667 -157.667 -406 -473 -406c-134.667 0 -239 35 -313 105c-73.333 70.667 -110 172.334 -110 305.001v54
zM608.998 1663v0zM560.998 0.00195312v0zM433.998 1663l176 288h224l-262 -288h-138zM608.998 1663v0z" />
    <glyph glyph-name="sacute" unicode="&#x15b;" horiz-adv-x="909" 
d="M104 314l192 0.00292969v0c0 -132.667 55 -199 165 -199c58 0 102.333 12.333 133 37c30.667 25.333 46 64.666 46 117.999c0 37.333 -17.333 69 -52 95c-34.667 26.667 -86.667 55.667 -156 87c-97.333 44 -172.333 90.667 -225 140c-52.667 50 -79 109.667 -79 179
c0 91.333 31.667 162.666 95 213.999s151 77 263 77c104.667 0 185 -22.667 241 -68c56 -44.667 84 -99 84 -163v-57h-192v0c0 107.333 -51.333 161 -154 161c-46.667 0 -84.667 -12.667 -114 -38s-44 -60 -44 -104c0 -40 26 -75.667 78 -107
c52 -30.667 104 -57.334 156 -80.001c88 -41.333 156.333 -85.333 205 -132s73 -104.667 73 -174c0 -214.667 -119.333 -322 -358 -322c-238 0 -357 112 -357 336v0zM507 1190v0zM446 0.00292969v0zM332 1190l176 288h224l-262 -288h-138zM507 1190v0z" />
    <glyph glyph-name="Scedilla" unicode="&#x15e;" horiz-adv-x="1139" 
d="M128 433l192.998 0.00195312v-52c0 -76 22 -136.333 66 -181s109 -67 195 -67c74 0 134 20 180 60s69 98.333 69 175c0 61.333 -23 114 -69 158c-45.333 44 -125.666 94.667 -240.999 152c-141.333 72.667 -237 140 -287 202c-49.333 62.667 -74 137.334 -74 224.001
c0 119.333 38.333 215.666 115 288.999s184 110 322 110c136.667 0 239.334 -33.333 308.001 -100s103 -158.334 103 -275.001v-57h-193v0c0 178.667 -76.333 268 -229 268c-72.667 0 -129.667 -19.333 -171 -58s-62 -90.667 -62 -156
c0 -68.667 31.333 -129.334 94 -182.001c38.667 -33.333 116.667 -79.333 234 -138c118 -58.667 202.333 -118.334 253 -179.001c60 -72 90 -155.667 90 -251c0 -270.667 -157.667 -406 -473 -406c-134.667 0 -239 35 -313 105c-73.333 70.667 -110 172.334 -110 305.001v54
zM608.998 1663v0zM560.998 0.00195312v0zM369.998 -405.998l35.001 83c50 -20.667 93.667 -31 131 -31c73.333 0 110 25 110 75c0 56 -32.333 84 -97 84c-4.66699 0 -31.334 -5.66699 -80.001 -17l-35 39l130 173h97l-100 -129c24.667 11.333 48.667 17 72 17
c50 0 90.667 -14.333 122 -43c31.333 -28 47 -65.333 47 -112c0 -54.667 -22.333 -99 -67 -133c-44 -34 -99.333 -51 -166 -51c-66 0 -132.333 15 -199 45zM560.999 0.00195312v0z" />
    <glyph glyph-name="scedilla" unicode="&#x15f;" horiz-adv-x="909" 
d="M104 314l192 0.00292969v0c0 -132.667 55 -199 165 -199c58 0 102.333 12.333 133 37c30.667 25.333 46 64.666 46 117.999c0 37.333 -17.333 69 -52 95c-34.667 26.667 -86.667 55.667 -156 87c-97.333 44 -172.333 90.667 -225 140c-52.667 50 -79 109.667 -79 179
c0 91.333 31.667 162.666 95 213.999s151 77 263 77c104.667 0 185 -22.667 241 -68c56 -44.667 84 -99 84 -163v-57h-192v0c0 107.333 -51.333 161 -154 161c-46.667 0 -84.667 -12.667 -114 -38s-44 -60 -44 -104c0 -40 26 -75.667 78 -107
c52 -30.667 104 -57.334 156 -80.001c88 -41.333 156.333 -85.333 205 -132s73 -104.667 73 -174c0 -214.667 -119.333 -322 -358 -322c-238 0 -357 112 -357 336v0zM507 1190v0zM446 0.00292969v0zM255 -405.997l35.001 83c50 -20.667 93.667 -31 131 -31
c73.333 0 110 25 110 75c0 56 -32.333 84 -97 84c-4.66699 0 -31.334 -5.66699 -80.001 -17l-35 39l130 173h97l-100 -129c24.667 11.333 48.667 17 72 17c50 0 90.667 -14.333 122 -43c31.333 -28 47 -65.333 47 -112c0 -54.667 -22.333 -99 -67 -133
c-44 -34 -99.333 -51 -166 -51c-66 0 -132.333 15 -199 45zM446.001 0.00292969v0z" />
    <glyph glyph-name="Scaron" unicode="&#x160;" horiz-adv-x="1139" 
d="M128 433l192.998 0.00195312v-52c0 -76 22 -136.333 66 -181s109 -67 195 -67c74 0 134 20 180 60s69 98.333 69 175c0 61.333 -23 114 -69 158c-45.333 44 -125.666 94.667 -240.999 152c-141.333 72.667 -237 140 -287 202c-49.333 62.667 -74 137.334 -74 224.001
c0 119.333 38.333 215.666 115 288.999s184 110 322 110c136.667 0 239.334 -33.333 308.001 -100s103 -158.334 103 -275.001v-57h-193v0c0 178.667 -76.333 268 -229 268c-72.667 0 -129.667 -19.333 -171 -58s-62 -90.667 -62 -156
c0 -68.667 31.333 -129.334 94 -182.001c38.667 -33.333 116.667 -79.333 234 -138c118 -58.667 202.333 -118.334 253 -179.001c60 -72 90 -155.667 90 -251c0 -270.667 -157.667 -406 -473 -406c-134.667 0 -239 35 -313 105c-73.333 70.667 -110 172.334 -110 305.001v54
zM608.998 1663v0zM560.998 0.00195312v0zM894.998 1951l-208 -288h-189l-208 288h165l137 -192v0l138 192h165zM608.998 1663v0z" />
    <glyph glyph-name="scaron" unicode="&#x161;" horiz-adv-x="909" 
d="M104 314l192 0.00292969v0c0 -132.667 55 -199 165 -199c58 0 102.333 12.333 133 37c30.667 25.333 46 64.666 46 117.999c0 37.333 -17.333 69 -52 95c-34.667 26.667 -86.667 55.667 -156 87c-97.333 44 -172.333 90.667 -225 140c-52.667 50 -79 109.667 -79 179
c0 91.333 31.667 162.666 95 213.999s151 77 263 77c104.667 0 185 -22.667 241 -68c56 -44.667 84 -99 84 -163v-57h-192v0c0 107.333 -51.333 161 -154 161c-46.667 0 -84.667 -12.667 -114 -38s-44 -60 -44 -104c0 -40 26 -75.667 78 -107
c52 -30.667 104 -57.334 156 -80.001c88 -41.333 156.333 -85.333 205 -132s73 -104.667 73 -174c0 -214.667 -119.333 -322 -358 -322c-238 0 -357 112 -357 336v0zM507 1190v0zM446 0.00292969v0zM793 1478l-208 -288h-189l-208 288h165l137 -192v0l138 192h165zM507 1190
v0z" />
    <glyph glyph-name="Tcommaaccent" unicode="&#x162;" 
d="M32 1472h961v-164h-384v-1308h-193v1308h-384v164zM513 1663v0zM513 0v0zM0 1503v0zM443 -320v160h144v-155c0 -124 -48 -200.333 -144 -229v67c48.667 10.667 73 63 73 157h-73zM513 0v0z" />
    <glyph glyph-name="tcommaaccent" unicode="&#x163;" horiz-adv-x="569" 
d="M-6 913v126.999h171v197l168 75v-272h224v-127h-224v-664c0 -43.333 12.333 -76.666 37 -99.999c25.333 -22.667 63 -34 113 -34c18.667 0 44.667 2.66699 78 8v-127c-40 -12 -95.333 -18 -166 -18c-153.333 0 -230 63.333 -230 190v745h-171zM276 -0.000976562v0z
M206 -320.001v160h144v-155c0 -124 -48 -200.333 -144 -229v67c48.667 10.667 73 63 73 157h-73zM276 -0.000976562v0z" />
    <glyph glyph-name="Tcaron" unicode="&#x164;" 
d="M32 1472h961v-164h-384v-1308h-193v1308h-384v164zM513 1663v0zM513 0v0zM0 1503v0zM799 1951l-208 -288h-189l-208 288h165l137 -192v0l138 192h165zM513 1663v0z" />
    <glyph glyph-name="tcaron" unicode="&#x165;" horiz-adv-x="774" 
d="M-6 913v126.999h171v197l168 75v-272h224v-127h-224v-664c0 -43.333 12.333 -76.666 37 -99.999c25.333 -22.667 63 -34 113 -34c18.667 0 44.667 2.66699 78 8v-127c-40 -12 -95.333 -18 -166 -18c-153.333 0 -230 63.333 -230 190v745h-171zM276 -0.000976562v0z
M483 1407v185.999h189v-187c0 -145.333 -63 -235.666 -189 -270.999v83c69.333 12 104 75 104 189h-104z" />
    <glyph glyph-name="Umacron" unicode="&#x16a;" horiz-adv-x="1251" 
d="M159 1472h193.002v-956c0 -140.667 21.667 -240.667 65 -300c43.333 -58.667 111.333 -88 204 -88c95.333 0 164.666 29 207.999 87c44 58 66 158.667 66 302v955h193v-934c0 -202 -39 -347.333 -117 -436c-77.333 -88.667 -192 -133 -344 -133
c-158.667 0 -276.334 44.333 -353.001 133s-115 234 -115 436v934zM631.002 1663v0zM732.002 0v0zM0.00195312 1503v0zM349.002 1824h560v-113h-560v113zM631.002 1663v0z" />
    <glyph glyph-name="umacron" unicode="&#x16b;" 
d="M155 1040l168 0.000976562v-723c0 -141.333 57.667 -212 173 -212c67.333 0 118 24.667 152 74s51 103.666 51 162.999v698h168v-857c0 -50.667 1.66699 -111.667 5 -183h-173v138c-52.667 -106.667 -142.667 -160 -270 -160c-85.333 0 -152.333 22 -201 66
c-48.667 44.667 -73 109.667 -73 195v801zM502 1190v0zM816 0.000976562v0zM0 1062v0zM220 1351h560v-113h-560v113zM502 1190v0z" />
    <glyph glyph-name="Uring" unicode="&#x16e;" horiz-adv-x="1251" 
d="M159 1472h193.002v-956c0 -140.667 21.667 -240.667 65 -300c43.333 -58.667 111.333 -88 204 -88c95.333 0 164.666 29 207.999 87c44 58 66 158.667 66 302v955h193v-934c0 -202 -39 -347.333 -117 -436c-77.333 -88.667 -192 -133 -344 -133
c-158.667 0 -276.334 44.333 -353.001 133s-115 234 -115 436v934zM631.002 1663v0zM732.002 0v0zM0.00195312 1503v0zM419.002 1858c0 57.333 20.333 106.332 61 146.999c41.333 40.667 91.333 61 150 61c60.667 0 110.667 -20 150 -60c40 -39.333 60 -89.666 60 -150.999
c0 -58 -20.667 -107.333 -62 -148c-41.333 -40 -91 -60 -149 -60s-107.667 18.667 -149 56c-40.667 37.333 -61 89 -61 155zM504.002 1856c0 -35.333 12.001 -65.334 36.001 -90.001c24.667 -24 54.667 -36 90 -36c34.667 0 64 12 88 36c24.667 24.667 37 55 37 91
c0 34.667 -12.333 64.334 -37 89.001s-54.334 37 -89.001 37c-35.333 0 -65 -12.333 -89 -37s-36 -54.667 -36 -90zM631.003 1663v0z" />
    <glyph glyph-name="uring" unicode="&#x16f;" 
d="M155 1040l168 0.000976562v-723c0 -141.333 57.667 -212 173 -212c67.333 0 118 24.667 152 74s51 103.666 51 162.999v698h168v-857c0 -50.667 1.66699 -111.667 5 -183h-173v138c-52.667 -106.667 -142.667 -160 -270 -160c-85.333 0 -152.333 22 -201 66
c-48.667 44.667 -73 109.667 -73 195v801zM502 1190v0zM816 0.000976562v0zM0 1062v0zM290 1385c0 57.333 20.333 106.332 61 146.999c41.333 40.667 91.333 61 150 61c60.667 0 110.667 -20 150 -60c40 -39.333 60 -89.666 60 -150.999c0 -58 -20.667 -107.333 -62 -148
c-41.333 -40 -91 -60 -149 -60s-107.667 18.667 -149 56c-40.667 37.333 -61 89 -61 155zM375 1383c0 -35.333 12.001 -65.334 36.001 -90.001c24.667 -24 54.667 -36 90 -36c34.667 0 64 12 88 36c24.667 24.667 37 55 37 91c0 34.667 -12.333 64.334 -37 89.001
s-54.334 37 -89.001 37c-35.333 0 -65 -12.333 -89 -37s-36 -54.667 -36 -90zM502.001 1190v0z" />
    <glyph glyph-name="Uhungarumlaut" unicode="&#x170;" horiz-adv-x="1251" 
d="M159 1472h193.002v-956c0 -140.667 21.667 -240.667 65 -300c43.333 -58.667 111.333 -88 204 -88c95.333 0 164.666 29 207.999 87c44 58 66 158.667 66 302v955h193v-934c0 -202 -39 -347.333 -117 -436c-77.333 -88.667 -192 -133 -344 -133
c-158.667 0 -276.334 44.333 -353.001 133s-115 234 -115 436v934zM631.002 1663v0zM732.002 0v0zM0.00195312 1503v0zM316.002 1663l176 288h224l-262 -288h-138zM684.002 1663l176 288h224l-262 -288h-138zM631.002 1663v0z" />
    <glyph glyph-name="uhungarumlaut" unicode="&#x171;" 
d="M155 1040l168 0.000976562v-723c0 -141.333 57.667 -212 173 -212c67.333 0 118 24.667 152 74s51 103.666 51 162.999v698h168v-857c0 -50.667 1.66699 -111.667 5 -183h-173v138c-52.667 -106.667 -142.667 -160 -270 -160c-85.333 0 -152.333 22 -201 66
c-48.667 44.667 -73 109.667 -73 195v801zM502 1190v0zM816 0.000976562v0zM0 1062v0zM187 1190l176 288h224l-262 -288h-138zM555 1190l176 288h224l-262 -288h-138zM502 1190v0z" />
    <glyph glyph-name="Uogonek" unicode="&#x172;" horiz-adv-x="1251" 
d="M159 1472h193.002v-956c0 -140.667 21.667 -240.667 65 -300c43.333 -58.667 111.333 -88 204 -88c95.333 0 164.666 29 207.999 87c44 58 66 158.667 66 302v955h193v-934c0 -202 -39 -347.333 -117 -436c-77.333 -88.667 -192 -133 -344 -133
c-158.667 0 -276.334 44.333 -353.001 133s-115 234 -115 436v934zM631.002 1663v0zM732.002 0v0zM0.00195312 1503v0zM648.002 0h127c-133.333 -54 -200 -112 -200 -174c0 -29.333 8.33301 -53 25 -71c16.667 -17.333 40 -26 70 -26c19.333 0 44 3.33301 74 10
c30 7.33301 64.333 18.333 103 33v-111c-72 -30 -144.333 -45 -217 -45c-64.667 0 -118 16 -160 48c-42 32.667 -63 75.667 -63 129c0 50 26.333 93 79 129c53.333 36.667 107.333 62.667 162 78zM732.002 0v0z" />
    <glyph glyph-name="uogonek" unicode="&#x173;" 
d="M155 1040l168 0.000976562v-723c0 -141.333 57.667 -212 173 -212c67.333 0 118 24.667 152 74s51 103.666 51 162.999v698h168v-857c0 -50.667 1.66699 -111.667 5 -183h-173v138c-52.667 -106.667 -142.667 -160 -270 -160c-85.333 0 -152.333 22 -201 66
c-48.667 44.667 -73 109.667 -73 195v801zM502 1190v0zM816 0.000976562v0zM0 1062v0zM732 0.000976562h127c-133.333 -54 -200 -112 -200 -174c0 -29.333 8.33301 -53 25 -71c16.667 -17.333 40 -26 70 -26c19.333 0 44 3.33301 74 10c30 7.33301 64.333 18.333 103 33
v-111c-72 -30 -144.333 -45 -217 -45c-64.667 0 -118 16 -160 48c-42 32.667 -63 75.667 -63 129c0 50 26.333 93 79 129c53.333 36.667 107.333 62.667 162 78zM816 0.000976562v0z" />
    <glyph glyph-name="Ydieresis" unicode="&#x178;" 
d="M16 1472h211l293 -713v0l300 713h189l-400 -908v-564h-193v564zM575 1663v0zM0 1503v0zM304 1892h189v-213h-189v213zM653 1892h189v-213h-189v213zM575 1663v0z" />
    <glyph glyph-name="Zacute" unicode="&#x179;" 
d="M48 0v213l719 1095v0h-695v164h888v-190l-735 -1118v0h750v-164h-927zM516 1663v0zM0 1503v0zM341 1663l176 288h224l-262 -288h-138zM516 1663v0z" />
    <glyph glyph-name="zacute" unicode="&#x17a;" horiz-adv-x="797" 
d="M71 0v158l454 745v0h-430v137h616v-154l-459 -749v0h472v-137h-653zM429 1190v0zM0 1062v0zM254 1190l176 288h224l-262 -288h-138zM429 1190v0z" />
    <glyph glyph-name="Zdotaccent" unicode="&#x17b;" 
d="M48 0v213l719 1095v0h-695v164h888v-190l-735 -1118v0h750v-164h-927zM516 1663v0zM0 1503v0zM418 1892h191v-213h-191v213zM516 1663v0z" />
    <glyph glyph-name="zdotaccent" unicode="&#x17c;" horiz-adv-x="797" 
d="M71 0v158l454 745v0h-430v137h616v-154l-459 -749v0h472v-137h-653zM429 1190v0zM0 1062v0zM331 1419h191v-213h-191v213zM429 1190v0z" />
    <glyph glyph-name="Zcaron" unicode="&#x17d;" 
d="M48 0v213l719 1095v0h-695v164h888v-190l-735 -1118v0h750v-164h-927zM516 1663v0zM0 1503v0zM802 1951l-208 -288h-189l-208 288h165l137 -192v0l138 192h165zM516 1663v0z" />
    <glyph glyph-name="zcaron" unicode="&#x17e;" horiz-adv-x="797" 
d="M71 0v158l454 745v0h-430v137h616v-154l-459 -749v0h472v-137h-653zM429 1190v0zM0 1062v0zM715 1478l-208 -288h-189l-208 288h165l137 -192v0l138 192h165zM429 1190v0z" />
    <glyph glyph-name="florin" unicode="&#x192;" horiz-adv-x="909" 
d="M71 -350l24 137c2.66699 -1.33301 6.66699 -2 12 -2h15c70.667 0 112.334 38.333 125.001 115l140 905v0h-188l24 127h184v0l31 196c35.333 208 138 312 308 312c28.667 0 59.667 -2.66699 93 -8l-24 -137c-18 5.33301 -35 8 -51 8c-90.667 0 -146.334 -63 -167.001 -189
l-30 -182v0h208l-18 -127h-208v0l-142 -918c-24.667 -159.333 -121.667 -239 -291 -239h-23c-12 0 -19.333 0.666992 -22 2z" />
    <glyph glyph-name="circumflex" unicode="&#x2c6;" horiz-adv-x="569" 
d="M-16 1184l208 288h189l208 -288h-165l-138 192v0l-137 -192h-165zM294 1184v0z" />
    <glyph glyph-name="caron" unicode="&#x2c7;" horiz-adv-x="569" 
d="M589 1472l-208 -288h-189l-208 288h165l137 -192v0l138 192h165zM303 1184v0z" />
    <glyph glyph-name="breve" unicode="&#x2d8;" horiz-adv-x="569" 
d="M496 1473h100c-12.667 -89.333 -45.667 -157.333 -99 -204c-52.667 -46 -122.667 -69 -210 -69c-200.667 0 -307 91 -319 273h100c20 -106.667 92 -160 216 -160c119.333 0 190 53.333 212 160zM284 1184v0z" />
    <glyph glyph-name="dotaccent" unicode="&#x2d9;" horiz-adv-x="569" 
d="M192 1413h191v-213h-191v213zM290 1184v0z" />
    <glyph glyph-name="ring" unicode="&#x2da;" horiz-adv-x="569" 
d="M80 1379c0 57.333 20.333 106.332 61 146.999c41.333 40.667 91.333 61 150 61c60.667 0 110.667 -20 150 -60c40 -39.333 60 -89.666 60 -150.999c0 -58 -20.667 -107.333 -62 -148c-41.333 -40 -91 -60 -149 -60s-107.667 18.667 -149 56
c-40.667 37.333 -61 89 -61 155zM165 1377c0 -35.333 12.001 -65.334 36.001 -90.001c24.667 -24 54.667 -36 90 -36c34.667 0 64 12 88 36c24.667 24.667 37 55 37 91c0 34.667 -12.333 64.334 -37 89.001s-54.334 37 -89.001 37c-35.333 0 -65 -12.333 -89 -37
s-36 -54.667 -36 -90zM292.001 1184v0z" />
    <glyph glyph-name="ogonek" unicode="&#x2db;" horiz-adv-x="569" 
d="M305 0h127c-133.333 -54 -200 -112 -200 -174c0 -29.333 8.33301 -53 25 -71c16.667 -17.333 40 -26 70 -26c19.333 0 44 3.33301 74 10c30 7.33301 64.333 18.333 103 33v-111c-72 -30 -144.333 -45 -217 -45c-64.667 0 -118 16 -160 48c-42 32.667 -63 75.667 -63 129
c0 50 26.333 93 79 129c53.333 36.667 107.333 62.667 162 78zM389 0v0z" />
    <glyph glyph-name="tilde" unicode="&#x2dc;" horiz-adv-x="569" 
d="M-64 1178c9.33301 72.667 31.335 127.333 66.002 164s83.667 55 147 55c38.667 0 89 -12.667 151 -38c62.667 -25.333 107.667 -38 135 -38c32 0 56 8 72 24c16 16.667 25.333 39.667 28 69h103c-4.66699 -63.333 -27 -116.333 -67 -159s-88 -64 -144 -64
c-33.333 0 -84.333 12.667 -153 38s-117.334 38 -146.001 38c-25.333 0 -47.333 -9 -66 -27s-29.334 -38.667 -32.001 -62h-94zM290.002 1184v0z" />
    <glyph glyph-name="hungarumlaut" unicode="&#x2dd;" horiz-adv-x="909" 
d="M80 1184l176 288h224l-262 -288h-138zM448 1184l176 288h224l-262 -288h-138zM395 1184v0z" />
    <glyph glyph-name="endash" unicode="&#x2013;" 
d="M0 612h1024v-113h-1024v113z" />
    <glyph glyph-name="emdash" unicode="&#x2014;" horiz-adv-x="2048" 
d="M0 612h2048v-113h-2048v113z" />
    <glyph glyph-name="quoteleft" unicode="&#x2018;" horiz-adv-x="455" 
d="M389 1472l-81 -400h-223l163 400h141z" />
    <glyph glyph-name="quoteright" unicode="&#x2019;" horiz-adv-x="455" 
d="M64 1072l81 400h223l-163 -400h-141z" />
    <glyph glyph-name="quotesinglbase" unicode="&#x201a;" horiz-adv-x="455" 
d="M64 -224l81 400h223l-163 -400h-141z" />
    <glyph glyph-name="quotedblleft" unicode="&#x201c;" horiz-adv-x="909" 
d="M780 1472l-81 -400h-223l163 400h141zM444 1472l-81 -400h-223l163 400h141z" />
    <glyph glyph-name="quotedblright" unicode="&#x201d;" horiz-adv-x="909" 
d="M129 1072l81 400h223l-163 -400h-141zM465 1072l81 400h223l-163 -400h-141z" />
    <glyph glyph-name="quotedblbase" unicode="&#x201e;" horiz-adv-x="909" 
d="M129 -224l81 400h223l-163 -400h-141zM465 -224l81 400h223l-163 -400h-141z" />
    <glyph glyph-name="dagger" unicode="&#x2020;" horiz-adv-x="909" 
d="M81 1168h288v304h168v-304h288v-136h-288v-1032h-168v1032h-288v136z" />
    <glyph glyph-name="daggerdbl" unicode="&#x2021;" horiz-adv-x="909" 
d="M80 1168h288v304h168v-304h288v-136h-288v-589h288v-136h-288v-304h-168v304h-288v136h288v589h-288v136z" />
    <glyph glyph-name="bullet" unicode="&#x2022;" horiz-adv-x="682" 
d="M29 739c0 84.667 30.333 157.667 91 219c60.667 62 134.334 93 221.001 93c84.667 0 157.667 -31 219 -93c62 -61.333 93 -134.333 93 -219c0 -86.667 -31 -160.334 -93 -221.001c-61.333 -60.667 -134.333 -91 -219 -91c-86.667 0 -160.334 30.333 -221.001 91
s-91 134.334 -91 221.001z" />
    <glyph glyph-name="ellipsis" unicode="&#x2026;" horiz-adv-x="2048" 
d="M247 213h193v-213h-193v213zM935 213h193v-213h-193v213zM1623 0v213h193v-213h-193z" />
    <glyph glyph-name="perthousand" unicode="&#x2030;" horiz-adv-x="1821" 
d="M194 -74l704 1632h128l-704 -1632h-128zM720 343c0 126.667 15.667 216.667 47 270c32 54 93.667 81 185 81c85.333 0 145.333 -25 180 -75c34.667 -49.333 52 -140.333 52 -273c0 -150 -20 -250.333 -60 -301c-39.333 -50 -96 -75 -170 -75
c-80.667 0 -140 25.667 -178 77c-37.333 51.333 -56 150 -56 296zM848 316c0 -83.333 8.66699 -143 26 -179c18 -35.333 45.333 -53 82 -53c33.333 0 58.333 17 75 51c16.667 34.667 25 95 25 181c0 112 -6.33301 183.667 -19 215s-39.667 47 -81 47
c-40 0 -68 -15.333 -84 -46s-24 -102.667 -24 -216zM1309 343c0 129.333 16.333 220 49 272c32.667 52.667 93.667 79 183 79c85.333 0 145.333 -25 180 -75c34.667 -49.333 52 -140.333 52 -273c0 -150 -21 -252 -63 -306c-37.333 -46.667 -93 -70 -167 -70
c-80.667 0 -140 25.667 -178 77c-37.333 51.333 -56 150 -56 296zM1437 316c0 -74.667 8.00195 -132 24.002 -172s44 -60 84 -60c35.333 0 60.666 19.333 75.999 58c16 38.667 24 96.667 24 174c0 106.667 -6.33301 177 -19 211s-39.667 51 -81 51
c-42.667 0 -71.334 -17 -86.001 -51s-22 -104.333 -22 -211zM48.002 1155c0 124.667 15.667 214.333 47 269c32 54.667 93.667 82 185 82c85.333 0 145.333 -25 180 -75c34.667 -49.333 52 -140.333 52 -273c0 -150 -20 -250.333 -60 -301c-39.333 -50 -96 -75 -170 -75
c-80.667 0 -140 25.667 -178 77c-37.333 51.333 -56 150 -56 296zM176.002 1128c0 -87.333 9.33105 -147.999 27.998 -181.999c18.667 -33.333 45.334 -50 80.001 -50c30.667 0 55 16.333 73 49c18 33.333 27 94.333 27 183c0 119.333 -8 192.666 -24 219.999
c-15.333 28 -40.666 42 -75.999 42c-38 0 -65.667 -15.667 -83 -47c-16.667 -31.333 -25 -103 -25 -215z" />
    <glyph glyph-name="guilsinglleft" unicode="&#x2039;" horiz-adv-x="455" 
d="M47 558l193 -400h159l-169 397l169 403h-156z" />
    <glyph glyph-name="guilsinglright" unicode="&#x203a;" horiz-adv-x="455" 
d="M412 558l-193 -400h-159l169 397l-169 403h156z" />
    <glyph glyph-name="foursuperior" unicode="&#x2074;" horiz-adv-x="545" 
d="M-16 879l262 545h202v-534h109v-115h-109v-199h-143v199h-321v104zM115 890h190v415v0z" />
    <glyph glyph-name="Euro" unicode="&#x20ac;" horiz-adv-x="909" 
d="M361 903h336l-42 -131h-294v-112v0h256l-42 -131h-214v-109c0 -120 15 -199 45 -237c30.667 -37.333 76.334 -56 137.001 -56c60 0 101.333 19.333 124 58s34 104.667 34 198h188c0 -80 -3.33301 -137.667 -10 -173c-14.667 -73.333 -48.334 -131.666 -101.001 -174.999
c-52 -43.333 -137 -65 -255 -65c-126 0 -216 32.667 -270 98c-53.333 65.333 -80 171.666 -80 318.999v142h-152l39 131h113v0v112h-152l39 131h113v55c0 176.667 27 302 81 376c54 74.667 149.333 112 286 112c123.333 0 210.333 -24.667 261 -74
c50.667 -48.667 77 -127.667 79 -237v-54h-188v35c0 63.333 -10.333 108 -31 134s-61.667 39 -123 39c-58.667 0 -103 -16.333 -133 -49c-29.333 -32 -44 -116.333 -44 -253v-84z" />
    <glyph glyph-name="trademark" unicode="&#x2122;" horiz-adv-x="1690" 
d="M240 592v765h-244v115h631v-115h-244v-765h-143zM730 592v880h226l225 -660v0l212 660h222v-880h-143v705l-241 -705h-117l-241 708v-708h-143z" />
    <glyph glyph-name="partialdiff" unicode="&#x2202;" horiz-adv-x="1012" 
d="M767 690c16 80 23.999 161 23.999 243c0 149.333 -31.333 271.333 -94 366c-62 94.667 -147.667 142 -257 142c-70.667 0 -147 -23.333 -229 -70l-79 103c96 38.667 185.333 58 268 58c166.667 0 299.667 -69 399 -207c100 -138 150 -307.333 150 -508
c0 -229.333 -44 -430.333 -132 -603s-213.333 -259 -376 -259c-109.333 0 -201.333 38.667 -276 116c-74.667 78 -112 172.333 -112 283c0 122 38.333 231.667 115 329s171.334 146 284.001 146s217.667 -46.333 315 -139zM751.999 617
c-64.667 88.667 -138.333 133 -221 133c-78 0 -148 -42 -210 -126c-61.333 -83.333 -92 -192 -92 -326c0 -100 18 -172 54 -216c36.667 -43.333 80 -65 130 -65c84.667 0 155.667 48 213 144c58 96 100 248 126 456z" />
    <glyph glyph-name="Delta" unicode="&#x2206;" horiz-adv-x="1253" 
d="M11 0l656 1407l576 -1407h-1232zM145 100h845v0l-399 955z" />
    <glyph glyph-name="summation" unicode="&#x2211;" horiz-adv-x="1460" 
d="M29 -203l713.001 822.001l-713 932c104.667 -12.667 175.334 -19 212.001 -19h1023l13 -320h-40c-24 92 -58 153 -102 183c-43.333 30 -114.333 45 -213 45h-543v0l562 -735l-598 -697v0h752c72 0 127.333 14 166 42s76 89.667 112 185h48
c-42.667 -148 -72 -298.333 -88 -451c-26 5.33301 -57.667 9.66602 -95 12.999c-36.667 4 -64.334 6 -83.001 6h-1007c-26.667 0 -66.334 -2 -119.001 -6z" />
    <glyph glyph-name="minus" unicode="&#x2212;" 
d="M96 453v127h848v-127h-848z" />
    <glyph glyph-name="fraction" unicode="&#x2215;" horiz-adv-x="342" 
d="M-336 -52l896 1535h128l-896 -1535h-128z" />
    <glyph glyph-name="radical" unicode="&#x221a;" horiz-adv-x="1124" 
d="M989 1886l71 -10l-309 -1949l-499 1025l-198 -93l-34 67l301 147l406 -824z" />
    <glyph glyph-name="notequal" unicode="&#x2260;" 
d="M87 787h472v0l88 224v0h127l-88 -224v0h249v-127h-299v0l-107 -272v0h406v-127h-454v0l-90 -224v0h-127l90 224v0h-267v127h315v0l106 272v0h-421v127z" />
    <glyph glyph-name="lessequal" unicode="&#x2264;" 
d="M87 127v-127h848v127h-848zM87 855v-131l848 -480v149l-689 397l689 396v149z" />
    <glyph glyph-name="greaterequal" unicode="&#x2265;" 
d="M937 127v-127h-848v127h848zM937 855v-131l-848 -480v149l689 397l-689 396v149z" />
    <glyph glyph-name="lozenge" unicode="&#x25ca;" horiz-adv-x="1012" 
d="M567 1520l400 -748l-400 -772h-128l-400 772l400 748h128zM503 1412l-336 -642l336 -662l336 662z" />
    <glyph glyph-name="unif001" unicode="&#xf001;" 
d="M19 1040h160v175c0 90 22.667 155.333 68 196c46 40.667 124.333 61 235 61c24 0 48.333 -2 73 -6v-123c-3.33301 1.33301 -16.333 2 -39 2c-112.667 0 -169 -45 -169 -135v-170h208v-127h-208v-913h-168v913h-160v127zM707 1040h168v-1040h-168v1040zM696 1493h190v-181
h-190v181z" />
    <glyph glyph-name="unif002" unicode="&#xf002;" 
d="M19 1040h160v175c0 90 22.667 155.333 68 196c46 40.667 124.333 61 235 61c24 0 48.333 -2 73 -6v-123c-3.33301 1.33301 -16.333 2 -39 2c-112.667 0 -169 -45 -169 -135v-170h208v-127h-208v-913h-168v913h-160v127zM707 0v1472h168v-1472h-168z" />
    <glyph glyph-name="unif151" unicode="&#xf151;" horiz-adv-x="455" 
d="M135 1286v185.999h189v-187c0 -145.333 -63 -235.666 -189 -270.999v83c69.333 12 104 75 104 189h-104z" />
    <glyph glyph-name="commaaccent" unicode="&#xf170;" horiz-adv-x="455" 
d="M144 -320v160h144v-155c0 -124 -48 -200.333 -144 -229v67c48.667 10.667 73 63 73 157h-73zM214 0v0z" />
    <glyph glyph-name="unif171" unicode="&#xf171;" horiz-adv-x="455" 
d="M288 1344v-160.001h-144v154c0 124 48 200.667 144 230v-70c-48.667 -11.333 -73 -62.666 -73 -153.999h73zM232 1184v0z" />
    <glyph glyph-name="Scommaaccent" unicode="&#xf24d;" horiz-adv-x="1139" 
d="M128 433l192.998 0.00195312v-52c0 -76 22 -136.333 66 -181s109 -67 195 -67c74 0 134 20 180 60s69 98.333 69 175c0 61.333 -23 114 -69 158c-45.333 44 -125.666 94.667 -240.999 152c-141.333 72.667 -237 140 -287 202c-49.333 62.667 -74 137.334 -74 224.001
c0 119.333 38.333 215.666 115 288.999s184 110 322 110c136.667 0 239.334 -33.333 308.001 -100s103 -158.334 103 -275.001v-57h-193v0c0 178.667 -76.333 268 -229 268c-72.667 0 -129.667 -19.333 -171 -58s-62 -90.667 -62 -156
c0 -68.667 31.333 -129.334 94 -182.001c38.667 -33.333 116.667 -79.333 234 -138c118 -58.667 202.333 -118.334 253 -179.001c60 -72 90 -155.667 90 -251c0 -270.667 -157.667 -406 -473 -406c-134.667 0 -239 35 -313 105c-73.333 70.667 -110 172.334 -110 305.001v54
zM608.998 1663v0zM560.998 0.00195312v0zM490.998 -319.998v160h144v-155c0 -124 -48 -200.333 -144 -229v67c48.667 10.667 73 63 73 157h-73zM560.998 0.00195312v0z" />
    <glyph glyph-name="scommaaccent" unicode="&#xf24e;" horiz-adv-x="909" 
d="M104 314l192 0.00292969v0c0 -132.667 55 -199 165 -199c58 0 102.333 12.333 133 37c30.667 25.333 46 64.666 46 117.999c0 37.333 -17.333 69 -52 95c-34.667 26.667 -86.667 55.667 -156 87c-97.333 44 -172.333 90.667 -225 140c-52.667 50 -79 109.667 -79 179
c0 91.333 31.667 162.666 95 213.999s151 77 263 77c104.667 0 185 -22.667 241 -68c56 -44.667 84 -99 84 -163v-57h-192v0c0 107.333 -51.333 161 -154 161c-46.667 0 -84.667 -12.667 -114 -38s-44 -60 -44 -104c0 -40 26 -75.667 78 -107
c52 -30.667 104 -57.334 156 -80.001c88 -41.333 156.333 -85.333 205 -132s73 -104.667 73 -174c0 -214.667 -119.333 -322 -358 -322c-238 0 -357 112 -357 336v0zM507 1190v0zM446 0.00292969v0zM376 -319.997v160h144v-155c0 -124 -48 -200.333 -144 -229v67
c48.667 10.667 73 63 73 157h-73zM446 0.00292969v0z" />
    <glyph glyph-name="fi" unicode="&#xfb01;" 
d="M19 1040h160v175c0 90 22.667 155.333 68 196c46 40.667 124.333 61 235 61c24 0 48.333 -2 73 -6v-123c-3.33301 1.33301 -16.333 2 -39 2c-112.667 0 -169 -45 -169 -135v-170h208v-127h-208v-913h-168v913h-160v127zM707 1040h168v-1040h-168v1040zM696 1493h190v-181
h-190v181z" />
    <glyph glyph-name="fl" unicode="&#xfb02;" 
d="M19 1040h160v175c0 90 22.667 155.333 68 196c46 40.667 124.333 61 235 61c24 0 48.333 -2 73 -6v-123c-3.33301 1.33301 -16.333 2 -39 2c-112.667 0 -169 -45 -169 -135v-170h208v-127h-208v-913h-168v913h-160v127zM707 0v1472h168v-1472h-168z" />
    <glyph glyph-name=".null" horiz-adv-x="0" 
 />
    <glyph glyph-name="nonmarkingreturn" horiz-adv-x="455" 
 />
  </font>
</defs>
</svg>
